<svg width="272" height="308" viewBox="0 0 272 308" fill="none" xmlns="http://www.w3.org/2000/svg">
<rect width="272" height="308" fill="#E5E5E5"/>
<mask id="mask0_204_668" style="mask-type:alpha" maskUnits="userSpaceOnUse" x="0" y="0" width="272" height="308">
<path d="M250 308H22C9.84974 308 0 298.15 0 286V22C0 9.84974 9.84974 0 22 0H170L272 102V286C272 298.15 262.15 308 250 308Z" fill="url(#paint0_linear_204_668)"/>
</mask>
<g mask="url(#mask0_204_668)">
<path d="M250 308H22C9.84974 308 0 298.15 0 286V22C0 9.84974 9.84974 0 22 0H170L272 102V286C272 298.15 262.15 308 250 308Z" fill="url(#paint1_linear_204_668)"/>
<g opacity="0.2" filter="url(#filter0_f_204_668)">
<rect x="48" y="149" width="178" height="84" fill="#780AAF" style="mix-blend-mode:darken"/>
</g>
<path d="M87.4944 202.62C82.9064 202.62 78.5871 201.793 74.5364 200.14C74.0404 199.933 73.6478 199.644 73.3584 199.272C73.0691 198.859 72.9244 198.363 72.9244 197.784C72.9244 197.081 73.1518 196.482 73.6064 195.986C74.1024 195.449 74.7018 195.18 75.4044 195.18C75.7764 195.18 76.1691 195.263 76.5824 195.428C79.5584 196.627 82.8444 197.226 86.4404 197.226C89.6644 197.226 92.3718 196.709 94.5625 195.676C96.7944 194.601 97.9104 192.824 97.9104 190.344C97.9104 185.136 93.3431 182.532 84.2084 182.532H83.2164C82.5138 182.532 81.8938 182.284 81.3564 181.788C80.8604 181.251 80.6124 180.631 80.6124 179.928C80.6124 179.225 80.8604 178.626 81.3564 178.13C81.8938 177.593 82.5138 177.324 83.2164 177.324H83.5884C87.7218 177.324 90.8838 176.704 93.0744 175.464C95.2651 174.183 96.3604 172.302 96.3604 169.822C96.3604 167.838 95.5338 166.267 93.8804 165.11C92.2271 163.953 89.7885 163.374 86.5644 163.374C83.0924 163.374 79.8891 164.056 76.9544 165.42C76.5411 165.585 76.1691 165.668 75.8384 165.668C75.2184 165.668 74.6811 165.461 74.2264 165.048C73.7718 164.593 73.5444 164.035 73.5444 163.374C73.5444 162.423 73.9578 161.721 74.7844 161.266C78.7524 159.158 82.8444 158.104 87.0604 158.104C91.8138 158.104 95.4925 159.075 98.0965 161.018C100.7 162.961 102.002 165.709 102.002 169.264C102.002 172.116 101.279 174.369 99.8325 176.022C98.4271 177.634 96.6498 178.833 94.5004 179.618C96.8564 180.155 98.9438 181.292 100.762 183.028C102.622 184.723 103.552 187.265 103.552 190.654C103.552 194.457 102.044 197.412 99.0265 199.52C96.0505 201.587 92.2064 202.62 87.4944 202.62ZM137.71 202.62C133.453 202.62 129.671 201.69 126.364 199.83C123.057 197.929 120.495 195.304 118.676 191.956C116.857 188.567 115.948 184.723 115.948 180.424C115.948 176.043 116.899 172.157 118.8 168.768C120.701 165.379 123.285 162.754 126.55 160.894C129.857 159.034 133.515 158.104 137.524 158.104C140.748 158.104 143.559 158.497 145.956 159.282C148.395 160.067 150.73 161.163 152.962 162.568C153.293 162.733 153.582 163.023 153.83 163.436C154.078 163.849 154.202 164.304 154.202 164.8C154.202 165.503 153.954 166.102 153.458 166.598C153.003 167.094 152.383 167.342 151.598 167.342C151.143 167.342 150.709 167.239 150.296 167.032C148.353 165.875 146.411 165.007 144.468 164.428C142.525 163.849 140.417 163.56 138.144 163.56C135.003 163.56 132.171 164.221 129.65 165.544C127.129 166.867 125.145 168.809 123.698 171.372C122.293 173.893 121.59 176.911 121.59 180.424C121.59 183.648 122.251 186.541 123.574 189.104C124.938 191.625 126.881 193.63 129.402 195.118C131.965 196.565 134.982 197.288 138.454 197.288C142.339 197.288 145.956 196.379 149.304 194.56V183.338H139.074C138.371 183.338 137.772 183.09 137.276 182.594C136.78 182.098 136.532 181.499 136.532 180.796C136.532 180.093 136.78 179.494 137.276 178.998C137.772 178.502 138.371 178.254 139.074 178.254H151.288C152.115 178.254 152.817 178.543 153.396 179.122C153.975 179.701 154.264 180.403 154.264 181.23V195.304C154.264 196.172 154.037 196.957 153.582 197.66C153.169 198.321 152.611 198.817 151.908 199.148C147.279 201.463 142.546 202.62 137.71 202.62ZM171.118 202C170.167 202 169.382 201.711 168.762 201.132C168.142 200.512 167.832 199.727 167.832 198.776C167.832 196.627 168.452 194.643 169.692 192.824C170.973 191.005 172.503 189.414 174.28 188.05C176.099 186.645 178.475 184.991 181.41 183.09C183.931 181.478 185.936 180.114 187.424 178.998C188.912 177.882 190.152 176.663 191.144 175.34C192.136 174.017 192.632 172.612 192.632 171.124C192.632 168.768 191.847 166.908 190.276 165.544C188.747 164.139 186.267 163.436 182.836 163.436C179.116 163.436 175.582 164.18 172.234 165.668C171.821 165.875 171.428 165.978 171.056 165.978C170.395 165.978 169.837 165.751 169.382 165.296C168.927 164.841 168.7 164.263 168.7 163.56C168.7 162.527 169.155 161.762 170.064 161.266C174.28 159.158 178.868 158.104 183.828 158.104C186.473 158.104 188.871 158.641 191.02 159.716C193.211 160.749 194.926 162.217 196.166 164.118C197.447 166.019 198.088 168.21 198.088 170.69C198.088 173.129 197.365 175.402 195.918 177.51C194.513 179.577 192.818 181.395 190.834 182.966C188.85 184.537 186.267 186.355 183.084 188.422C180.191 190.365 178 191.935 176.512 193.134C175.065 194.291 174.053 195.49 173.474 196.73H195.05C195.794 196.73 196.414 196.999 196.91 197.536C197.447 198.032 197.716 198.652 197.716 199.396C197.716 200.14 197.447 200.76 196.91 201.256C196.414 201.752 195.794 202 195.05 202H171.118Z" fill="white"/>
<path d="M74.5364 200.14L73.7672 201.986L73.7739 201.989L73.7807 201.992L74.5364 200.14ZM73.3585 199.272L71.72 200.419L71.7488 200.46L71.7797 200.5L73.3585 199.272ZM73.6064 195.986L72.1368 194.629L72.1321 194.635L73.6064 195.986ZM76.5825 195.428L77.3297 193.573L77.3252 193.571L76.5825 195.428ZM94.5624 195.676L95.4157 197.485L95.4229 197.481L95.4301 197.478L94.5624 195.676ZM81.3565 181.788L79.8868 183.145L79.9411 183.203L79.9999 183.258L81.3565 181.788ZM81.3565 178.13L82.7707 179.544L81.3565 178.13ZM93.0744 175.464L94.0596 177.205L94.072 177.198L94.0842 177.19L93.0744 175.464ZM76.9545 165.42L77.6972 167.277L77.7479 167.257L77.7974 167.234L76.9545 165.42ZM74.2264 165.048L72.8122 166.462L72.8459 166.496L72.8811 166.528L74.2264 165.048ZM74.7844 161.266L73.8461 159.5L73.8333 159.507L73.8206 159.514L74.7844 161.266ZM98.0965 161.018L99.2924 159.415V159.415L98.0965 161.018ZM99.8325 176.022L98.3273 174.705L98.3249 174.708L99.8325 176.022ZM94.5005 179.618L93.8141 177.739L87.4558 180.063L94.0557 181.568L94.5005 179.618ZM100.762 183.028L99.3815 184.475L99.3983 184.491L99.4155 184.506L100.762 183.028ZM99.0265 199.52L100.167 201.163L100.172 201.16L99.0265 199.52ZM87.4944 200.62C83.1528 200.62 79.0914 199.839 75.2922 198.288L73.7807 201.992C78.0829 203.748 82.6601 204.62 87.4944 204.62V200.62ZM75.3057 198.294C75.083 198.201 74.9863 198.107 74.9372 198.044L71.7797 200.5C72.3093 201.181 72.9979 201.666 73.7672 201.986L75.3057 198.294ZM74.9969 198.125C74.9763 198.096 74.9244 198.015 74.9244 197.784H70.9244C70.9244 198.711 71.1619 199.622 71.72 200.419L74.9969 198.125ZM74.9244 197.784C74.9244 197.557 74.9803 197.447 75.0808 197.337L72.1321 194.635C71.3232 195.517 70.9244 196.605 70.9244 197.784H74.9244ZM75.0761 197.343C75.2109 197.197 75.2851 197.18 75.4044 197.18V193.18C74.1184 193.18 72.994 193.701 72.1368 194.629L75.0761 197.343ZM75.4044 197.18C75.4773 197.18 75.6172 197.196 75.8397 197.285L77.3252 193.571C76.7211 193.329 76.0756 193.18 75.4044 193.18V197.18ZM75.8352 197.283C79.0758 198.588 82.6192 199.226 86.4405 199.226V195.226C83.0696 195.226 80.0411 194.665 77.3297 193.573L75.8352 197.283ZM86.4405 199.226C89.8664 199.226 92.8852 198.679 95.4157 197.485L93.7092 193.867C91.8584 194.74 89.4625 195.226 86.4405 195.226V199.226ZM95.4301 197.478C96.8234 196.807 97.9752 195.862 98.7672 194.601C99.5592 193.339 99.9104 191.891 99.9104 190.344H95.9104C95.9104 191.277 95.7037 191.957 95.3797 192.473C95.0557 192.989 94.5335 193.47 93.6948 193.874L95.4301 197.478ZM99.9104 190.344C99.9104 187.013 98.3759 184.401 95.4755 182.748C92.7424 181.189 88.9003 180.532 84.2085 180.532V184.532C88.6513 184.532 91.6602 185.177 93.4944 186.222C95.1613 187.173 95.9104 188.467 95.9104 190.344H99.9104ZM84.2085 180.532H83.2164V184.532H84.2085V180.532ZM83.2164 180.532C83.0387 180.532 82.8975 180.489 82.713 180.318L79.9999 183.258C80.8901 184.079 81.9889 184.532 83.2164 184.532V180.532ZM82.8261 180.431C82.6558 180.247 82.6124 180.106 82.6124 179.928H78.6124C78.6124 181.156 79.0651 182.254 79.8868 183.145L82.8261 180.431ZM82.6124 179.928C82.6124 179.755 82.6505 179.664 82.7707 179.544L79.9422 176.716C79.0704 177.588 78.6124 178.696 78.6124 179.928H82.6124ZM82.7707 179.544C82.9667 179.348 83.0901 179.324 83.2164 179.324V175.324C81.9375 175.324 80.8209 175.837 79.9422 176.716L82.7707 179.544ZM83.2164 179.324H83.5884V175.324H83.2164V179.324ZM83.5884 179.324C87.8696 179.324 91.4338 178.691 94.0596 177.205L92.0892 173.723C90.3338 174.717 87.574 175.324 83.5884 175.324V179.324ZM94.0842 177.19C96.8705 175.561 98.3605 173.033 98.3605 169.822H94.3605C94.3605 171.571 93.6597 172.805 92.0647 173.738L94.0842 177.19ZM98.3605 169.822C98.3605 167.172 97.2044 164.995 95.0274 163.472L92.7335 166.748C93.8632 167.539 94.3605 168.504 94.3605 169.822H98.3605ZM95.0274 163.472C92.8912 161.976 89.9734 161.374 86.5645 161.374V165.374C89.6035 165.374 91.563 165.929 92.7335 166.748L95.0274 163.472ZM86.5645 161.374C82.8228 161.374 79.3291 162.111 76.1115 163.606L77.7974 167.234C80.4491 166.001 83.3621 165.374 86.5645 165.374V161.374ZM76.2117 163.563C76.089 163.612 75.9964 163.639 75.9316 163.654C75.867 163.668 75.8377 163.668 75.8384 163.668V167.668C76.495 167.668 77.1246 167.506 77.6972 167.277L76.2117 163.563ZM75.8384 163.668C75.711 163.668 75.6547 163.643 75.5718 163.568L72.8811 166.528C73.7076 167.279 74.7259 167.668 75.8384 167.668V163.668ZM75.6407 163.634C75.589 163.582 75.5736 163.55 75.5671 163.534C75.5602 163.517 75.5444 163.471 75.5444 163.374H71.5444C71.5444 164.549 71.9707 165.621 72.8122 166.462L75.6407 163.634ZM75.5444 163.374C75.5444 163.281 75.5545 163.224 75.5622 163.193C75.5696 163.163 75.5764 163.151 75.5783 163.148C75.5802 163.145 75.5866 163.134 75.6066 163.116C75.6278 163.096 75.6707 163.061 75.7483 163.018L73.8206 159.514C73.1425 159.887 72.5467 160.413 72.1306 161.12C71.715 161.826 71.5444 162.602 71.5444 163.374H75.5444ZM75.7228 163.032C79.4214 161.067 83.1931 160.104 87.0604 160.104V156.104C82.4958 156.104 78.0835 157.249 73.8461 159.5L75.7228 163.032ZM87.0604 160.104C91.5742 160.104 94.7691 161.031 96.9005 162.621L99.2924 159.415C96.2158 157.12 92.0533 156.104 87.0604 156.104V160.104ZM96.9005 162.621C98.9458 164.147 100.002 166.272 100.002 169.264H104.002C104.002 165.147 102.455 161.774 99.2924 159.415L96.9005 162.621ZM100.002 169.264C100.002 171.779 99.3695 173.514 98.3273 174.705L101.338 177.339C103.189 175.223 104.002 172.453 104.002 169.264H100.002ZM98.3249 174.708C97.1568 176.048 95.6693 177.062 93.8141 177.739L95.1868 181.497C97.6302 180.604 99.6974 179.22 101.34 177.336L98.3249 174.708ZM94.0557 181.568C96.0454 182.022 97.8128 182.977 99.3815 184.475L102.143 181.581C100.075 179.607 97.6675 178.289 94.9452 177.668L94.0557 181.568ZM99.4155 184.506C100.729 185.704 101.552 187.623 101.552 190.654H105.552C105.552 186.906 104.515 183.742 102.109 181.55L99.4155 184.506ZM101.552 190.654C101.552 193.829 100.342 196.161 97.881 197.88L100.172 201.16C103.745 198.663 105.552 195.084 105.552 190.654H101.552ZM97.8857 197.877C95.3323 199.65 91.9203 200.62 87.4944 200.62V204.62C92.4926 204.62 96.7686 203.523 100.167 201.163L97.8857 197.877ZM126.364 199.83L125.367 201.564L125.375 201.569L125.384 201.573L126.364 199.83ZM118.676 191.956L116.914 192.902L116.919 192.911L118.676 191.956ZM118.8 168.768L120.544 169.747V169.747L118.8 168.768ZM126.55 160.894L125.57 159.151L125.56 159.156L126.55 160.894ZM145.956 159.282L145.333 161.183L145.343 161.186L145.956 159.282ZM152.962 162.568L151.896 164.26L151.98 164.313L152.068 164.357L152.962 162.568ZM153.83 163.436L152.115 164.465V164.465L153.83 163.436ZM153.458 166.598L152.044 165.184L152.013 165.215L151.984 165.247L153.458 166.598ZM150.296 167.032L149.272 168.75L149.336 168.788L149.402 168.821L150.296 167.032ZM144.468 164.428L145.039 162.511L144.468 164.428ZM129.65 165.544L130.579 167.315L130.579 167.315L129.65 165.544ZM123.698 171.372L121.956 170.389L121.951 170.398L123.698 171.372ZM123.574 189.104L121.797 190.021L121.806 190.039L121.815 190.056L123.574 189.104ZM129.402 195.118L128.386 196.84L128.402 196.85L128.419 196.86L129.402 195.118ZM149.304 194.56L150.259 196.317L151.304 195.75V194.56H149.304ZM149.304 183.338H151.304V181.338H149.304V183.338ZM153.582 197.66L151.903 196.573L151.894 196.587L151.886 196.6L153.582 197.66ZM151.908 199.148L151.056 197.338L151.035 197.348L151.014 197.359L151.908 199.148ZM137.71 200.62C133.753 200.62 130.317 199.759 127.345 198.087L125.384 201.573C129.025 203.621 133.152 204.62 137.71 204.62V200.62ZM127.361 198.096C124.375 196.379 122.075 194.024 120.434 191.001L116.919 192.911C118.914 196.584 121.74 199.478 125.367 201.564L127.361 198.096ZM120.438 191.01C118.793 187.945 117.948 184.432 117.948 180.424H113.948C113.948 185.013 114.921 189.189 116.914 192.902L120.438 191.01ZM117.948 180.424C117.948 176.341 118.831 172.8 120.544 169.747L117.056 167.789C114.966 171.514 113.948 175.744 113.948 180.424H117.948ZM120.544 169.747C122.274 166.663 124.602 164.306 127.54 162.632L125.56 159.156C121.968 161.202 119.129 164.095 117.056 167.789L120.544 169.747ZM127.531 162.637C130.521 160.955 133.838 160.104 137.524 160.104V156.104C133.191 156.104 129.193 157.113 125.57 159.151L127.531 162.637ZM137.524 160.104C140.592 160.104 143.184 160.478 145.333 161.183L146.579 157.381C143.933 156.515 140.904 156.104 137.524 156.104V160.104ZM145.343 161.186C147.618 161.918 149.802 162.942 151.896 164.26L154.028 160.876C151.658 159.384 149.172 158.216 146.569 157.378L145.343 161.186ZM152.068 164.357C152.021 164.334 152.004 164.314 152.013 164.323C152.024 164.334 152.061 164.374 152.115 164.465L155.545 162.407C155.16 161.765 154.616 161.159 153.857 160.779L152.068 164.357ZM152.115 164.465C152.171 164.558 152.202 164.655 152.202 164.8H156.202C156.202 163.953 155.985 163.14 155.545 162.407L152.115 164.465ZM152.202 164.8C152.202 164.973 152.164 165.064 152.044 165.184L154.872 168.012C155.744 167.14 156.202 166.032 156.202 164.8H152.202ZM151.984 165.247C151.958 165.275 151.938 165.287 151.909 165.299C151.873 165.313 151.78 165.342 151.598 165.342V169.342C152.841 169.342 154.035 168.929 154.932 167.949L151.984 165.247ZM151.598 165.342C151.459 165.342 151.331 165.313 151.191 165.243L149.402 168.821C150.088 169.164 150.828 169.342 151.598 169.342V165.342ZM151.32 165.314C149.251 164.081 147.157 163.142 145.039 162.511L143.897 166.345C145.664 166.871 147.456 167.668 149.272 168.75L151.32 165.314ZM145.039 162.511C142.89 161.871 140.588 161.56 138.144 161.56V165.56C140.247 165.56 142.161 165.828 143.897 166.345L145.039 162.511ZM138.144 161.56C134.713 161.56 131.558 162.285 128.721 163.773L130.579 167.315C132.785 166.158 135.292 165.56 138.144 165.56V161.56ZM128.721 163.773C125.847 165.281 123.586 167.503 121.956 170.389L125.44 172.355C126.704 170.116 128.411 168.453 130.579 167.315L128.721 163.773ZM121.951 170.398C120.347 173.276 119.59 176.643 119.59 180.424H123.59C123.59 177.178 124.238 174.511 125.445 172.346L121.951 170.398ZM119.59 180.424C119.59 183.929 120.311 187.143 121.797 190.021L125.351 188.187C124.192 185.94 123.59 183.367 123.59 180.424H119.59ZM121.815 190.056C123.356 192.904 125.558 195.172 128.386 196.84L130.419 193.396C128.203 192.088 126.52 190.347 125.333 188.152L121.815 190.056ZM128.419 196.86C131.331 198.504 134.7 199.288 138.454 199.288V195.288C135.264 195.288 132.598 194.625 130.385 193.376L128.419 196.86ZM138.454 199.288C142.666 199.288 146.612 198.299 150.259 196.317L148.349 192.803C145.3 194.459 142.013 195.288 138.454 195.288V199.288ZM151.304 194.56V183.338H147.304V194.56H151.304ZM149.304 181.338H139.074V185.338H149.304V181.338ZM139.074 181.338C138.901 181.338 138.811 181.3 138.69 181.18L135.862 184.008C136.734 184.88 137.842 185.338 139.074 185.338V181.338ZM138.69 181.18C138.57 181.06 138.532 180.969 138.532 180.796H134.532C134.532 182.028 134.99 183.136 135.862 184.008L138.69 181.18ZM138.532 180.796C138.532 180.623 138.57 180.532 138.69 180.412L135.862 177.584C134.99 178.456 134.532 179.564 134.532 180.796H138.532ZM138.69 180.412C138.811 180.292 138.901 180.254 139.074 180.254V176.254C137.842 176.254 136.734 176.712 135.862 177.584L138.69 180.412ZM139.074 180.254H151.288V176.254H139.074V180.254ZM151.288 180.254C151.59 180.254 151.783 180.337 151.982 180.536L154.81 177.708C153.852 176.75 152.639 176.254 151.288 176.254V180.254ZM151.982 180.536C152.181 180.736 152.264 180.928 152.264 181.23H156.264C156.264 179.879 155.768 178.666 154.81 177.708L151.982 180.536ZM152.264 181.23V195.304H156.264V181.23H152.264ZM152.264 195.304C152.264 195.802 152.14 196.207 151.903 196.573L155.261 198.747C155.933 197.708 156.264 196.542 156.264 195.304H152.264ZM151.886 196.6C151.675 196.937 151.41 197.172 151.056 197.338L152.76 200.958C153.812 200.463 154.662 199.706 155.278 198.72L151.886 196.6ZM151.014 197.359C146.642 199.545 142.214 200.62 137.71 200.62V204.62C142.878 204.62 147.915 203.38 152.803 200.937L151.014 197.359ZM168.762 201.132L167.348 202.546L167.372 202.571L167.397 202.594L168.762 201.132ZM169.692 192.824L168.057 191.672L168.048 191.685L168.039 191.697L169.692 192.824ZM174.28 188.05L175.498 189.637L175.503 189.633L174.28 188.05ZM181.41 183.09L180.333 181.405L180.322 181.411L181.41 183.09ZM187.424 178.998L186.224 177.398L187.424 178.998ZM191.144 175.34L189.544 174.14L191.144 175.34ZM190.276 165.544L188.923 167.017L188.943 167.036L188.965 167.054L190.276 165.544ZM172.234 165.668L171.422 163.84L171.38 163.859L171.339 163.879L172.234 165.668ZM169.382 165.296L167.968 166.71V166.71L169.382 165.296ZM170.064 161.266L169.169 159.477L169.138 159.493L169.106 159.51L170.064 161.266ZM191.02 159.716L190.125 161.505L190.146 161.515L190.167 161.525L191.02 159.716ZM196.166 164.118L194.491 165.211L194.499 165.223L194.507 165.236L196.166 164.118ZM195.918 177.51L194.269 176.378L194.264 176.385L195.918 177.51ZM190.834 182.966L192.075 184.534L190.834 182.966ZM183.084 188.422L181.995 186.745L181.982 186.753L181.969 186.762L183.084 188.422ZM176.512 193.134L177.761 194.696L177.767 194.692L176.512 193.134ZM173.474 196.73L171.662 195.884L170.334 198.73H173.474V196.73ZM196.91 197.536L195.44 198.893L195.495 198.951L195.553 199.006L196.91 197.536ZM196.91 201.256L195.553 199.786L195.524 199.814L195.496 199.842L196.91 201.256ZM171.118 200C170.608 200 170.33 199.86 170.127 199.67L167.397 202.594C168.433 203.561 169.727 204 171.118 204V200ZM170.176 199.718C169.965 199.506 169.832 199.246 169.832 198.776H165.832C165.832 200.208 166.319 201.518 167.348 202.546L170.176 199.718ZM169.832 198.776C169.832 197.039 170.325 195.446 171.344 193.951L168.039 191.697C166.579 193.84 165.832 196.215 165.832 198.776H169.832ZM171.327 193.976C172.491 192.324 173.879 190.879 175.498 189.637L173.062 186.463C171.126 187.949 169.455 189.687 168.057 191.672L171.327 193.976ZM175.503 189.633C177.261 188.274 179.588 186.653 182.497 184.769L180.322 181.411C177.363 183.329 174.936 185.016 173.057 186.467L175.503 189.633ZM182.487 184.775C185.029 183.15 187.08 181.756 188.624 180.598L186.224 177.398C184.792 178.472 182.834 179.806 180.333 181.405L182.487 184.775ZM188.624 180.598C190.245 179.382 191.625 178.032 192.744 176.54L189.544 174.14C188.679 175.293 187.579 176.382 186.224 177.398L188.624 180.598ZM192.744 176.54C193.965 174.912 194.632 173.093 194.632 171.124H190.632C190.632 172.131 190.307 173.123 189.544 174.14L192.744 176.54ZM194.632 171.124C194.632 168.274 193.656 165.831 191.587 164.034L188.965 167.054C190.037 167.985 190.632 169.262 190.632 171.124H194.632ZM191.629 164.071C189.554 162.165 186.461 161.436 182.836 161.436V165.436C186.072 165.436 187.939 166.112 188.923 167.017L191.629 164.071ZM182.836 161.436C178.84 161.436 175.029 162.237 171.422 163.84L173.046 167.496C176.134 166.123 179.391 165.436 182.836 165.436V161.436ZM171.339 163.879C171.239 163.929 171.167 163.954 171.12 163.966C171.097 163.972 171.081 163.975 171.071 163.977C171.061 163.978 171.056 163.978 171.056 163.978V167.978C171.804 167.978 172.503 167.769 173.128 167.457L171.339 163.879ZM171.056 163.978C170.959 163.978 170.913 163.962 170.896 163.955C170.88 163.949 170.848 163.933 170.796 163.882L167.968 166.71C168.809 167.552 169.881 167.978 171.056 167.978V163.978ZM170.796 163.882C170.753 163.839 170.7 163.786 170.7 163.56H166.7C166.7 164.739 167.101 165.844 167.968 166.71L170.796 163.882ZM170.7 163.56C170.7 163.344 170.744 163.26 170.76 163.234C170.776 163.207 170.83 163.127 171.022 163.022L169.106 159.51C168.389 159.901 167.761 160.451 167.322 161.189C166.883 161.928 166.7 162.742 166.7 163.56H170.7ZM170.958 163.055C174.882 161.093 179.162 160.104 183.828 160.104V156.104C178.574 156.104 173.678 157.223 169.169 159.477L170.958 163.055ZM183.828 160.104C186.195 160.104 188.281 160.583 190.125 161.505L191.914 157.927C189.46 156.7 186.752 156.104 183.828 156.104V160.104ZM190.167 161.525C192.046 162.411 193.467 163.64 194.491 165.211L197.841 163.025C196.385 160.793 194.375 159.087 191.873 157.907L190.167 161.525ZM194.507 165.236C195.548 166.78 196.088 168.574 196.088 170.69H200.088C200.088 167.846 199.347 165.259 197.824 163L194.507 165.236ZM196.088 170.69C196.088 172.704 195.499 174.586 194.269 176.378L197.567 178.642C199.23 176.218 200.088 173.553 200.088 170.69H196.088ZM194.264 176.385C192.974 178.282 191.419 179.952 189.592 181.398L192.075 184.534C194.216 182.839 196.051 180.871 197.572 178.635L194.264 176.385ZM189.592 181.398C187.675 182.916 185.148 184.697 181.995 186.745L184.173 190.099C187.385 188.014 190.025 186.158 192.075 184.534L189.592 181.398ZM181.969 186.762C179.06 188.715 176.813 190.323 175.257 191.576L177.767 194.692C179.187 193.547 181.321 192.014 184.199 190.082L181.969 186.762ZM175.263 191.572C173.656 192.857 172.408 194.285 171.662 195.884L175.286 197.576C175.697 196.695 176.474 195.726 177.761 194.696L175.263 191.572ZM173.474 198.73H195.05V194.73H173.474V198.73ZM195.05 198.73C195.247 198.73 195.33 198.773 195.44 198.893L198.38 196.179C197.497 195.224 196.341 194.73 195.05 194.73V198.73ZM195.553 199.006C195.672 199.116 195.716 199.199 195.716 199.396H199.716C199.716 198.105 199.222 196.948 198.266 196.066L195.553 199.006ZM195.716 199.396C195.716 199.593 195.672 199.676 195.553 199.786L198.266 202.726C199.222 201.844 199.716 200.687 199.716 199.396H195.716ZM195.496 199.842C195.399 199.938 195.299 200 195.05 200V204C196.289 204 197.429 203.566 198.324 202.67L195.496 199.842ZM195.05 200H171.118V204H195.05V200Z" fill="white"/>
<g filter="url(#filter1_d_204_668)">
<path d="M272 102H192C179.85 102 170 92.1503 170 80V0L272 102Z" fill="url(#paint2_linear_204_668)"/>
</g>
</g>
<defs>
<filter id="filter0_f_204_668" x="9" y="110" width="256" height="162" filterUnits="userSpaceOnUse" color-interpolation-filters="sRGB">
<feFlood flood-opacity="0" result="BackgroundImageFix"/>
<feBlend mode="normal" in="SourceGraphic" in2="BackgroundImageFix" result="shape"/>
<feGaussianBlur stdDeviation="19.5" result="effect1_foregroundBlur_204_668"/>
</filter>
<filter id="filter1_d_204_668" x="147" y="-24" width="152" height="152" filterUnits="userSpaceOnUse" color-interpolation-filters="sRGB">
<feFlood flood-opacity="0" result="BackgroundImageFix"/>
<feColorMatrix in="SourceAlpha" type="matrix" values="0 0 0 0 0 0 0 0 0 0 0 0 0 0 0 0 0 0 127 0" result="hardAlpha"/>
<feOffset dx="2" dy="1"/>
<feGaussianBlur stdDeviation="12.5"/>
<feColorMatrix type="matrix" values="0 0 0 0 0 0 0 0 0 0 0 0 0 0 0 0 0 0 0.33 0"/>
<feBlend mode="normal" in2="BackgroundImageFix" result="effect1_dropShadow_204_668"/>
<feBlend mode="normal" in="SourceGraphic" in2="effect1_dropShadow_204_668" result="shape"/>
</filter>
<linearGradient id="paint0_linear_204_668" x1="136" y1="0" x2="136" y2="308" gradientUnits="userSpaceOnUse">
<stop stop-color="#FF7979"/>
<stop offset="1" stop-color="#E85555"/>
</linearGradient>
<linearGradient id="paint1_linear_204_668" x1="136" y1="0" x2="136" y2="308" gradientUnits="userSpaceOnUse">
<stop stop-color="#CB74F4"/>
<stop offset="0.942892" stop-color="#A849F3"/>
</linearGradient>
<linearGradient id="paint2_linear_204_668" x1="221" y1="0" x2="221" y2="102" gradientUnits="userSpaceOnUse">
<stop stop-color="#B051E0"/>
<stop offset="1" stop-color="#952BCB"/>
</linearGradient>
</defs>
</svg>
