<svg width="272" height="308" viewBox="0 0 272 308" fill="none" xmlns="http://www.w3.org/2000/svg">
<mask id="mask0_204_579" style="mask-type:alpha" maskUnits="userSpaceOnUse" x="0" y="0" width="272" height="308">
<path d="M250 308H22C9.84974 308 0 298.15 0 286V22C0 9.84974 9.84974 0 22 0H170L272 102V286C272 298.15 262.15 308 250 308Z" fill="url(#paint0_linear_204_579)"/>
</mask>
<g mask="url(#mask0_204_579)">
<path d="M250 308H22C9.84974 308 0 298.15 0 286V22C0 9.84974 9.84974 0 22 0H170L272 102V286C272 298.15 262.15 308 250 308Z" fill="url(#paint1_linear_204_579)"/>
<g opacity="0.26" filter="url(#filter0_f_204_579)">
<rect x="48" y="149" width="178" height="84" fill="#E66000" style="mix-blend-mode:darken"/>
</g>
<path d="M100.506 217.395C99.4523 217.395 98.5833 217.053 97.8986 216.368C97.2666 215.683 96.9506 214.841 96.9506 213.84C96.9506 213.419 97.0823 212.892 97.3456 212.26L117.491 164.702C117.912 163.754 118.491 162.99 119.229 162.411C120.019 161.779 120.967 161.463 122.073 161.463H122.863C123.969 161.463 124.89 161.779 125.628 162.411C126.418 162.99 127.023 163.754 127.445 164.702L147.59 212.26C147.853 212.892 147.985 213.419 147.985 213.84C147.985 214.841 147.642 215.683 146.958 216.368C146.326 217.053 145.483 217.395 144.43 217.395C143.692 217.395 143.008 217.211 142.376 216.842C141.796 216.421 141.349 215.868 141.033 215.183L135.898 202.859H109.038L103.903 215.183C103.587 215.868 103.113 216.421 102.481 216.842C101.901 217.211 101.243 217.395 100.506 217.395ZM111.803 196.302H133.133L122.468 170.627L111.803 196.302ZM168.69 217.395C167.689 217.395 166.847 217.053 166.162 216.368C165.477 215.683 165.135 214.841 165.135 213.84V165.097C165.135 164.096 165.477 163.254 166.162 162.569C166.847 161.832 167.689 161.463 168.69 161.463C169.691 161.463 170.533 161.832 171.218 162.569C171.955 163.254 172.324 164.096 172.324 165.097V213.84C172.324 214.841 171.955 215.683 171.218 216.368C170.533 217.053 169.691 217.395 168.69 217.395Z" fill="white"/>
<path d="M97.8986 216.368L96.429 217.725L96.4561 217.754L96.4844 217.782L97.8986 216.368ZM97.3456 212.26L95.504 211.48L95.4995 211.491L97.3456 212.26ZM117.491 164.702L115.663 163.89L115.656 163.906L115.649 163.922L117.491 164.702ZM119.229 162.411L120.464 163.984L120.471 163.978L120.478 163.973L119.229 162.411ZM125.628 162.411L124.326 163.93L124.384 163.979L124.445 164.024L125.628 162.411ZM127.445 164.702L129.286 163.922L129.279 163.906L129.272 163.89L127.445 164.702ZM147.59 212.26L149.436 211.491L149.431 211.48L147.59 212.26ZM146.958 216.368L145.543 214.954L145.515 214.982L145.488 215.011L146.958 216.368ZM142.376 216.842L141.199 218.459L141.281 218.519L141.368 218.57L142.376 216.842ZM141.033 215.183L139.186 215.952L139.201 215.987L139.217 216.021L141.033 215.183ZM135.898 202.859L137.744 202.09L137.231 200.859H135.898V202.859ZM109.038 202.859V200.859H107.704L107.191 202.09L109.038 202.859ZM103.903 215.183L105.719 216.021L105.734 215.987L105.749 215.952L103.903 215.183ZM102.481 216.842L103.554 218.529L103.572 218.518L103.59 218.506L102.481 216.842ZM111.803 196.302L109.956 195.535L108.806 198.302H111.803V196.302ZM133.133 196.302V198.302H136.129L134.98 195.535L133.133 196.302ZM122.468 170.627L124.315 169.86L122.468 165.413L120.621 169.86L122.468 170.627ZM100.506 215.395C99.9314 215.395 99.5876 215.229 99.3128 214.954L96.4844 217.782C97.579 218.877 98.9732 219.395 100.506 219.395V215.395ZM99.3682 215.011C99.1038 214.725 98.9506 214.379 98.9506 213.84H94.9506C94.9506 215.303 95.4294 216.642 96.429 217.725L99.3682 215.011ZM98.9506 213.84C98.9506 213.797 98.9743 213.551 99.1918 213.029L95.4995 211.491C95.1903 212.233 94.9506 213.041 94.9506 213.84H98.9506ZM99.1872 213.04L119.332 165.482L115.649 163.922L95.504 211.48L99.1872 213.04ZM119.318 165.514C119.622 164.832 120.01 164.341 120.464 163.984L117.993 160.838C116.973 161.64 116.202 162.676 115.663 163.89L119.318 165.514ZM120.478 163.973C120.88 163.651 121.376 163.463 122.073 163.463V159.463C120.558 159.463 119.158 159.907 117.979 160.849L120.478 163.973ZM122.073 163.463H122.863V159.463H122.073V163.463ZM122.863 163.463C123.562 163.463 124.001 163.651 124.326 163.93L126.929 160.892C125.779 159.907 124.376 159.463 122.863 159.463V163.463ZM124.445 164.024C124.937 164.385 125.329 164.865 125.617 165.514L129.272 163.89C128.718 162.643 127.898 161.596 126.81 160.798L124.445 164.024ZM125.603 165.482L145.748 213.04L149.431 211.48L129.286 163.922L125.603 165.482ZM145.743 213.029C145.961 213.551 145.985 213.797 145.985 213.84H149.985C149.985 213.041 149.745 212.233 149.436 211.491L145.743 213.029ZM145.985 213.84C145.985 214.33 145.839 214.658 145.543 214.954L148.372 217.782C149.445 216.709 149.985 215.351 149.985 213.84H145.985ZM145.488 215.011C145.286 215.23 145.005 215.395 144.43 215.395V219.395C145.961 219.395 147.365 218.875 148.427 217.725L145.488 215.011ZM144.43 215.395C144.044 215.395 143.707 215.303 143.383 215.114L141.368 218.57C142.308 219.118 143.341 219.395 144.43 219.395V215.395ZM143.552 215.225C143.264 215.015 143.029 214.736 142.849 214.345L139.217 216.021C139.668 216.999 140.329 217.827 141.199 218.459L143.552 215.225ZM142.879 214.414L137.744 202.09L134.051 203.628L139.186 215.952L142.879 214.414ZM135.898 200.859H109.038V204.859H135.898V200.859ZM107.191 202.09L102.056 214.414L105.749 215.952L110.884 203.628L107.191 202.09ZM102.087 214.345C101.927 214.692 101.698 214.96 101.371 215.178L103.59 218.506C104.527 217.882 105.247 217.044 105.719 216.021L102.087 214.345ZM101.407 215.155C101.172 215.304 100.892 215.395 100.506 215.395V219.395C101.594 219.395 102.63 219.117 103.554 218.529L101.407 215.155ZM111.803 198.302H133.133V194.302H111.803V198.302ZM134.98 195.535L124.315 169.86L120.621 171.394L131.286 197.069L134.98 195.535ZM120.621 169.86L109.956 195.535L113.65 197.069L124.315 171.394L120.621 169.86ZM166.162 216.368L167.576 214.954L166.162 216.368ZM166.162 162.569L167.576 163.983L167.602 163.957L167.628 163.93L166.162 162.569ZM171.218 162.569L169.752 163.93L169.803 163.984L169.857 164.035L171.218 162.569ZM171.218 216.368L169.857 214.902L169.83 214.928L169.804 214.954L171.218 216.368ZM168.69 215.395C168.2 215.395 167.872 215.25 167.576 214.954L164.748 217.782C165.821 218.856 167.179 219.395 168.69 219.395V215.395ZM167.576 214.954C167.28 214.658 167.135 214.33 167.135 213.84H163.135C163.135 215.351 163.674 216.709 164.748 217.782L167.576 214.954ZM167.135 213.84V165.097H163.135V213.84H167.135ZM167.135 165.097C167.135 164.607 167.28 164.279 167.576 163.983L164.748 161.155C163.674 162.228 163.135 163.586 163.135 165.097H167.135ZM167.628 163.93C167.936 163.598 168.249 163.463 168.69 163.463V159.463C167.13 159.463 165.757 160.066 164.696 161.208L167.628 163.93ZM168.69 163.463C169.131 163.463 169.444 163.598 169.752 163.93L172.684 161.208C171.623 160.066 170.25 159.463 168.69 159.463V163.463ZM169.857 164.035C170.189 164.343 170.324 164.656 170.324 165.097H174.324C174.324 163.537 173.721 162.164 172.579 161.103L169.857 164.035ZM170.324 165.097V213.84H174.324V165.097H170.324ZM170.324 213.84C170.324 214.281 170.189 214.594 169.857 214.902L172.579 217.834C173.721 216.773 174.324 215.4 174.324 213.84H170.324ZM169.804 214.954C169.508 215.25 169.18 215.395 168.69 215.395V219.395C170.201 219.395 171.559 218.856 172.632 217.782L169.804 214.954Z" fill="white"/>
<g filter="url(#filter1_d_204_579)">
<path d="M272 102H192C179.85 102 170 92.1503 170 80V0L272 102Z" fill="url(#paint2_linear_204_579)"/>
</g>
</g>
<mask id="mask1_204_579" style="mask-type:alpha" maskUnits="userSpaceOnUse" x="0" y="0" width="272" height="308">
<path d="M250 308H22C9.84974 308 0 298.15 0 286V22C0 9.84974 9.84974 0 22 0H170L272 102V286C272 298.15 262.15 308 250 308Z" fill="url(#paint3_linear_204_579)"/>
</mask>
<g mask="url(#mask1_204_579)">
<path d="M250 308H22C9.84974 308 0 298.15 0 286V22C0 9.84974 9.84974 0 22 0H170L272 102V286C272 298.15 262.15 308 250 308Z" fill="url(#paint4_linear_204_579)"/>
<g opacity="0.26" filter="url(#filter2_f_204_579)">
<rect x="48" y="149" width="178" height="84" fill="#E66000" style="mix-blend-mode:darken"/>
</g>
<path d="M108.856 202.31C108.07 202.31 107.409 202.041 106.872 201.504C106.334 200.967 106.066 200.305 106.066 199.52C106.066 199.024 106.19 198.528 106.438 198.032L123.488 164.118H100.982C100.238 164.118 99.597 163.87 99.0596 163.374C98.5636 162.837 98.3156 162.196 98.3156 161.452C98.3156 160.708 98.5636 160.067 99.0596 159.53C99.597 158.993 100.238 158.724 100.982 158.724H126.278C127.27 158.724 128.096 159.034 128.758 159.654C129.419 160.274 129.75 161.059 129.75 162.01C129.75 162.919 129.543 163.829 129.13 164.738L111.522 200.76C111.274 201.215 110.902 201.587 110.406 201.876C109.91 202.165 109.393 202.31 108.856 202.31ZM144.377 202C143.385 202 142.538 201.649 141.835 200.946C141.133 200.243 140.781 199.396 140.781 198.404C140.781 197.495 141.029 196.73 141.525 196.11L167.441 164.118H143.571C142.827 164.118 142.187 163.87 141.649 163.374C141.153 162.837 140.905 162.196 140.905 161.452C140.905 160.708 141.153 160.067 141.649 159.53C142.187 158.993 142.827 158.724 143.571 158.724H170.479C171.637 158.724 172.546 159.096 173.207 159.84C173.91 160.584 174.261 161.493 174.261 162.568C174.261 162.981 174.158 163.415 173.951 163.87C173.786 164.325 173.559 164.717 173.269 165.048L147.663 196.73H171.967C172.711 196.73 173.331 196.999 173.827 197.536C174.365 198.032 174.633 198.652 174.633 199.396C174.633 200.14 174.365 200.76 173.827 201.256C173.331 201.752 172.711 202 171.967 202H144.377Z" fill="white"/>
<path d="M106.872 201.504L108.286 200.09L106.872 201.504ZM106.438 198.032L104.651 197.134L104.649 197.138L106.438 198.032ZM123.488 164.118L125.275 165.016L126.732 162.118H123.488V164.118ZM99.0596 163.374L97.59 164.731L97.6443 164.789L97.7031 164.844L99.0596 163.374ZM99.0596 159.53L97.6454 158.116L97.6171 158.144L97.59 158.173L99.0596 159.53ZM128.758 159.654L127.39 161.113V161.113L128.758 159.654ZM129.13 164.738L130.926 165.616L130.939 165.591L130.95 165.566L129.13 164.738ZM111.522 200.76L113.277 201.718L113.299 201.678L113.318 201.638L111.522 200.76ZM110.406 201.876L111.413 203.604L110.406 201.876ZM108.856 200.31C108.581 200.31 108.434 200.238 108.286 200.09L105.457 202.918C106.384 203.844 107.56 204.31 108.856 204.31V200.31ZM108.286 200.09C108.137 199.941 108.066 199.795 108.066 199.52H104.066C104.066 200.816 104.531 201.992 105.457 202.918L108.286 200.09ZM108.066 199.52C108.066 199.37 108.101 199.178 108.226 198.926L104.649 197.138C104.278 197.878 104.066 198.678 104.066 199.52H108.066ZM108.225 198.93L125.275 165.016L121.701 163.22L104.651 197.134L108.225 198.93ZM123.488 162.118H100.982V166.118H123.488V162.118ZM100.982 162.118C100.731 162.118 100.577 162.053 100.416 161.904L97.7031 164.844C98.6169 165.687 99.7446 166.118 100.982 166.118V162.118ZM100.529 162.017C100.381 161.857 100.316 161.703 100.316 161.452H96.3156C96.3156 162.689 96.7465 163.817 97.59 164.731L100.529 162.017ZM100.316 161.452C100.316 161.201 100.381 161.047 100.529 160.887L97.59 158.173C96.7465 159.087 96.3156 160.215 96.3156 161.452H100.316ZM100.474 160.944C100.645 160.773 100.781 160.724 100.982 160.724V156.724C99.6946 156.724 98.5488 157.212 97.6454 158.116L100.474 160.944ZM100.982 160.724H126.278V156.724H100.982V160.724ZM126.278 160.724C126.814 160.724 127.136 160.875 127.39 161.113L130.126 158.195C129.057 157.193 127.726 156.724 126.278 156.724V160.724ZM127.39 161.113C127.626 161.335 127.75 161.582 127.75 162.01H131.75C131.75 160.537 131.212 159.213 130.126 158.195L127.39 161.113ZM127.75 162.01C127.75 162.607 127.616 163.235 127.309 163.91L130.95 165.566C131.47 164.422 131.75 163.232 131.75 162.01H127.75ZM127.333 163.86L109.725 199.882L113.318 201.638L130.926 165.616L127.333 163.86ZM109.766 199.802C109.711 199.903 109.614 200.022 109.398 200.148L111.413 203.604C112.189 203.151 112.836 202.526 113.277 201.718L109.766 199.802ZM109.398 200.148C109.186 200.272 109.014 200.31 108.856 200.31V204.31C109.771 204.31 110.633 204.059 111.413 203.604L109.398 200.148ZM141.835 200.946L143.249 199.532L141.835 200.946ZM141.525 196.11L139.971 194.851L139.964 194.861L141.525 196.11ZM167.441 164.118L168.995 165.377L171.635 162.118H167.441V164.118ZM141.649 163.374L140.18 164.731L140.234 164.789L140.293 164.844L141.649 163.374ZM141.649 159.53L140.235 158.116L140.207 158.144L140.18 158.173L141.649 159.53ZM173.207 159.84L171.712 161.169L171.733 161.191L171.753 161.213L173.207 159.84ZM173.951 163.87L172.131 163.042L172.098 163.113L172.072 163.187L173.951 163.87ZM173.269 165.048L171.764 163.731L171.738 163.76L171.714 163.791L173.269 165.048ZM147.663 196.73L146.108 195.473L143.475 198.73H147.663V196.73ZM173.827 197.536L172.358 198.893L172.412 198.951L172.471 199.006L173.827 197.536ZM173.827 201.256L172.471 199.786L172.441 199.814L172.413 199.842L173.827 201.256ZM144.377 200C143.917 200 143.578 199.86 143.249 199.532L140.421 202.36C141.498 203.437 142.854 204 144.377 204V200ZM143.249 199.532C142.921 199.203 142.781 198.865 142.781 198.404H138.781C138.781 199.927 139.344 201.283 140.421 202.36L143.249 199.532ZM142.781 198.404C142.781 197.879 142.915 197.574 143.087 197.359L139.964 194.861C139.143 195.886 138.781 197.11 138.781 198.404H142.781ZM143.079 197.369L168.995 165.377L165.887 162.859L139.971 194.851L143.079 197.369ZM167.441 162.118H143.571V166.118H167.441V162.118ZM143.571 162.118C143.32 162.118 143.167 162.053 143.006 161.904L140.293 164.844C141.207 165.687 142.334 166.118 143.571 166.118V162.118ZM143.119 162.017C142.97 161.857 142.905 161.703 142.905 161.452H138.905C138.905 162.689 139.336 163.817 140.18 164.731L143.119 162.017ZM142.905 161.452C142.905 161.201 142.97 161.047 143.119 160.887L140.18 158.173C139.336 159.087 138.905 160.215 138.905 161.452H142.905ZM143.063 160.944C143.235 160.773 143.37 160.724 143.571 160.724V156.724C142.284 156.724 141.138 157.212 140.235 158.116L143.063 160.944ZM143.571 160.724H170.479V156.724H143.571V160.724ZM170.479 160.724C171.168 160.724 171.494 160.923 171.712 161.169L174.702 158.511C173.598 157.269 172.105 156.724 170.479 156.724V160.724ZM171.753 161.213C172.086 161.566 172.261 161.976 172.261 162.568H176.261C176.261 161.011 175.734 159.602 174.661 158.467L171.753 161.213ZM172.261 162.568C172.261 162.643 172.243 162.795 172.131 163.042L175.772 164.698C176.073 164.036 176.261 163.32 176.261 162.568H172.261ZM172.072 163.187C171.982 163.432 171.875 163.604 171.764 163.731L174.774 166.365C175.242 165.83 175.59 165.217 175.831 164.553L172.072 163.187ZM171.714 163.791L146.108 195.473L149.219 197.987L174.825 166.305L171.714 163.791ZM147.663 198.73H171.967V194.73H147.663V198.73ZM171.967 198.73C172.164 198.73 172.248 198.773 172.358 198.893L175.297 196.179C174.415 195.224 173.258 194.73 171.967 194.73V198.73ZM172.471 199.006C172.59 199.116 172.633 199.199 172.633 199.396H176.633C176.633 198.105 176.139 196.948 175.184 196.066L172.471 199.006ZM172.633 199.396C172.633 199.593 172.59 199.676 172.471 199.786L175.184 202.726C176.139 201.844 176.633 200.687 176.633 199.396H172.633ZM172.413 199.842C172.317 199.938 172.217 200 171.967 200V204C173.206 204 174.346 203.566 175.241 202.67L172.413 199.842ZM171.967 200H144.377V204H171.967V200Z" fill="white"/>
<g filter="url(#filter3_d_204_579)">
<path d="M272 102H192C179.85 102 170 92.1503 170 80V0L272 102Z" fill="url(#paint5_linear_204_579)"/>
</g>
</g>
<defs>
<filter id="filter0_f_204_579" x="9" y="110" width="256" height="162" filterUnits="userSpaceOnUse" color-interpolation-filters="sRGB">
<feFlood flood-opacity="0" result="BackgroundImageFix"/>
<feBlend mode="normal" in="SourceGraphic" in2="BackgroundImageFix" result="shape"/>
<feGaussianBlur stdDeviation="19.5" result="effect1_foregroundBlur_204_579"/>
</filter>
<filter id="filter1_d_204_579" x="147" y="-24" width="152" height="152" filterUnits="userSpaceOnUse" color-interpolation-filters="sRGB">
<feFlood flood-opacity="0" result="BackgroundImageFix"/>
<feColorMatrix in="SourceAlpha" type="matrix" values="0 0 0 0 0 0 0 0 0 0 0 0 0 0 0 0 0 0 127 0" result="hardAlpha"/>
<feOffset dx="2" dy="1"/>
<feGaussianBlur stdDeviation="12.5"/>
<feColorMatrix type="matrix" values="0 0 0 0 0 0 0 0 0 0 0 0 0 0 0 0 0 0 0.33 0"/>
<feBlend mode="normal" in2="BackgroundImageFix" result="effect1_dropShadow_204_579"/>
<feBlend mode="normal" in="SourceGraphic" in2="effect1_dropShadow_204_579" result="shape"/>
</filter>
<filter id="filter2_f_204_579" x="9" y="110" width="256" height="162" filterUnits="userSpaceOnUse" color-interpolation-filters="sRGB">
<feFlood flood-opacity="0" result="BackgroundImageFix"/>
<feBlend mode="normal" in="SourceGraphic" in2="BackgroundImageFix" result="shape"/>
<feGaussianBlur stdDeviation="19.5" result="effect1_foregroundBlur_204_579"/>
</filter>
<filter id="filter3_d_204_579" x="147" y="-24" width="152" height="152" filterUnits="userSpaceOnUse" color-interpolation-filters="sRGB">
<feFlood flood-opacity="0" result="BackgroundImageFix"/>
<feColorMatrix in="SourceAlpha" type="matrix" values="0 0 0 0 0 0 0 0 0 0 0 0 0 0 0 0 0 0 127 0" result="hardAlpha"/>
<feOffset dx="2" dy="1"/>
<feGaussianBlur stdDeviation="12.5"/>
<feColorMatrix type="matrix" values="0 0 0 0 0 0 0 0 0 0 0 0 0 0 0 0 0 0 0.33 0"/>
<feBlend mode="normal" in2="BackgroundImageFix" result="effect1_dropShadow_204_579"/>
<feBlend mode="normal" in="SourceGraphic" in2="effect1_dropShadow_204_579" result="shape"/>
</filter>
<linearGradient id="paint0_linear_204_579" x1="136" y1="0" x2="136" y2="308" gradientUnits="userSpaceOnUse">
<stop stop-color="#FF7979"/>
<stop offset="1" stop-color="#E85555"/>
</linearGradient>
<linearGradient id="paint1_linear_204_579" x1="136" y1="0" x2="136" y2="308" gradientUnits="userSpaceOnUse">
<stop stop-color="#FFA216"/>
<stop offset="1" stop-color="#EF8100"/>
</linearGradient>
<linearGradient id="paint2_linear_204_579" x1="221" y1="0" x2="221" y2="102" gradientUnits="userSpaceOnUse">
<stop stop-color="#FF7A1B"/>
<stop offset="1" stop-color="#E86100"/>
</linearGradient>
<linearGradient id="paint3_linear_204_579" x1="136" y1="0" x2="136" y2="308" gradientUnits="userSpaceOnUse">
<stop stop-color="#FF7979"/>
<stop offset="1" stop-color="#E85555"/>
</linearGradient>
<linearGradient id="paint4_linear_204_579" x1="136" y1="0" x2="136" y2="308" gradientUnits="userSpaceOnUse">
<stop stop-color="#FFA216"/>
<stop offset="1" stop-color="#EF8100"/>
</linearGradient>
<linearGradient id="paint5_linear_204_579" x1="221" y1="0" x2="221" y2="102" gradientUnits="userSpaceOnUse">
<stop stop-color="#FF7A1B"/>
<stop offset="1" stop-color="#E86100"/>
</linearGradient>
</defs>
</svg>
