<svg width="272" height="308" viewBox="0 0 272 308" fill="none" xmlns="http://www.w3.org/2000/svg">
<mask id="mask0_204_488" style="mask-type:alpha" maskUnits="userSpaceOnUse" x="0" y="0" width="272" height="308">
<path d="M250 308H22C9.84974 308 0 298.15 0 286V22C0 9.84974 9.84974 0 22 0H170L272 102V286C272 298.15 262.15 308 250 308Z" fill="url(#paint0_linear_204_488)"/>
</mask>
<g mask="url(#mask0_204_488)">
<path d="M250 308H22C9.84974 308 0 298.15 0 286V22C0 9.84974 9.84974 0 22 0H170L272 102V286C272 298.15 262.15 308 250 308Z" fill="url(#paint1_linear_204_488)"/>
<g opacity="0.26" filter="url(#filter0_f_204_488)">
<rect x="48" y="149" width="178" height="84" fill="#E66000" style="mix-blend-mode:darken"/>
</g>
<path d="M100.506 217.395C99.4523 217.395 98.5833 217.053 97.8986 216.368C97.2666 215.683 96.9506 214.841 96.9506 213.84C96.9506 213.419 97.0823 212.892 97.3456 212.26L117.491 164.702C117.912 163.754 118.491 162.99 119.229 162.411C120.019 161.779 120.967 161.463 122.073 161.463H122.863C123.969 161.463 124.89 161.779 125.628 162.411C126.418 162.99 127.023 163.754 127.445 164.702L147.59 212.26C147.853 212.892 147.985 213.419 147.985 213.84C147.985 214.841 147.642 215.683 146.958 216.368C146.326 217.053 145.483 217.395 144.43 217.395C143.692 217.395 143.008 217.211 142.376 216.842C141.796 216.421 141.349 215.868 141.033 215.183L135.898 202.859H109.038L103.903 215.183C103.587 215.868 103.113 216.421 102.481 216.842C101.901 217.211 101.243 217.395 100.506 217.395ZM111.803 196.302H133.133L122.468 170.627L111.803 196.302ZM168.69 217.395C167.689 217.395 166.847 217.053 166.162 216.368C165.477 215.683 165.135 214.841 165.135 213.84V165.097C165.135 164.096 165.477 163.254 166.162 162.569C166.847 161.832 167.689 161.463 168.69 161.463C169.691 161.463 170.533 161.832 171.218 162.569C171.955 163.254 172.324 164.096 172.324 165.097V213.84C172.324 214.841 171.955 215.683 171.218 216.368C170.533 217.053 169.691 217.395 168.69 217.395Z" fill="white"/>
<path d="M97.8986 216.368L96.429 217.725L96.4561 217.754L96.4844 217.782L97.8986 216.368ZM97.3456 212.26L95.504 211.48L95.4995 211.491L97.3456 212.26ZM117.491 164.702L115.663 163.89L115.656 163.906L115.649 163.922L117.491 164.702ZM119.229 162.411L120.464 163.984L120.471 163.978L120.478 163.973L119.229 162.411ZM125.628 162.411L124.326 163.93L124.384 163.979L124.445 164.024L125.628 162.411ZM127.445 164.702L129.286 163.922L129.279 163.906L129.272 163.89L127.445 164.702ZM147.59 212.26L149.436 211.491L149.431 211.48L147.59 212.26ZM146.958 216.368L145.543 214.954L145.515 214.982L145.488 215.011L146.958 216.368ZM142.376 216.842L141.199 218.459L141.281 218.519L141.368 218.57L142.376 216.842ZM141.033 215.183L139.186 215.952L139.201 215.987L139.217 216.021L141.033 215.183ZM135.898 202.859L137.744 202.09L137.231 200.859H135.898V202.859ZM109.038 202.859V200.859H107.704L107.191 202.09L109.038 202.859ZM103.903 215.183L105.719 216.021L105.734 215.987L105.749 215.952L103.903 215.183ZM102.481 216.842L103.554 218.529L103.572 218.518L103.59 218.506L102.481 216.842ZM111.803 196.302L109.956 195.535L108.806 198.302H111.803V196.302ZM133.133 196.302V198.302H136.129L134.98 195.535L133.133 196.302ZM122.468 170.627L124.315 169.86L122.468 165.413L120.621 169.86L122.468 170.627ZM100.506 215.395C99.9314 215.395 99.5876 215.229 99.3128 214.954L96.4844 217.782C97.579 218.877 98.9732 219.395 100.506 219.395V215.395ZM99.3682 215.011C99.1038 214.725 98.9506 214.379 98.9506 213.84H94.9506C94.9506 215.303 95.4294 216.642 96.429 217.725L99.3682 215.011ZM98.9506 213.84C98.9506 213.797 98.9743 213.551 99.1918 213.029L95.4995 211.491C95.1903 212.233 94.9506 213.041 94.9506 213.84H98.9506ZM99.1872 213.04L119.332 165.482L115.649 163.922L95.504 211.48L99.1872 213.04ZM119.318 165.514C119.622 164.832 120.01 164.341 120.464 163.984L117.993 160.838C116.973 161.64 116.202 162.676 115.663 163.89L119.318 165.514ZM120.478 163.973C120.88 163.651 121.376 163.463 122.073 163.463V159.463C120.558 159.463 119.158 159.907 117.979 160.849L120.478 163.973ZM122.073 163.463H122.863V159.463H122.073V163.463ZM122.863 163.463C123.562 163.463 124.001 163.651 124.326 163.93L126.929 160.892C125.779 159.907 124.376 159.463 122.863 159.463V163.463ZM124.445 164.024C124.937 164.385 125.329 164.865 125.617 165.514L129.272 163.89C128.718 162.643 127.898 161.596 126.81 160.798L124.445 164.024ZM125.603 165.482L145.748 213.04L149.431 211.48L129.286 163.922L125.603 165.482ZM145.743 213.029C145.961 213.551 145.985 213.797 145.985 213.84H149.985C149.985 213.041 149.745 212.233 149.436 211.491L145.743 213.029ZM145.985 213.84C145.985 214.33 145.839 214.658 145.543 214.954L148.372 217.782C149.445 216.709 149.985 215.351 149.985 213.84H145.985ZM145.488 215.011C145.286 215.23 145.005 215.395 144.43 215.395V219.395C145.961 219.395 147.365 218.875 148.427 217.725L145.488 215.011ZM144.43 215.395C144.044 215.395 143.707 215.303 143.383 215.114L141.368 218.57C142.308 219.118 143.341 219.395 144.43 219.395V215.395ZM143.552 215.225C143.264 215.015 143.029 214.736 142.849 214.345L139.217 216.021C139.668 216.999 140.329 217.827 141.199 218.459L143.552 215.225ZM142.879 214.414L137.744 202.09L134.051 203.628L139.186 215.952L142.879 214.414ZM135.898 200.859H109.038V204.859H135.898V200.859ZM107.191 202.09L102.056 214.414L105.749 215.952L110.884 203.628L107.191 202.09ZM102.087 214.345C101.927 214.692 101.698 214.96 101.371 215.178L103.59 218.506C104.527 217.882 105.247 217.044 105.719 216.021L102.087 214.345ZM101.407 215.155C101.172 215.304 100.892 215.395 100.506 215.395V219.395C101.594 219.395 102.63 219.117 103.554 218.529L101.407 215.155ZM111.803 198.302H133.133V194.302H111.803V198.302ZM134.98 195.535L124.315 169.86L120.621 171.394L131.286 197.069L134.98 195.535ZM120.621 169.86L109.956 195.535L113.65 197.069L124.315 171.394L120.621 169.86ZM166.162 216.368L167.576 214.954L166.162 216.368ZM166.162 162.569L167.576 163.983L167.602 163.957L167.628 163.93L166.162 162.569ZM171.218 162.569L169.752 163.93L169.803 163.984L169.857 164.035L171.218 162.569ZM171.218 216.368L169.857 214.902L169.83 214.928L169.804 214.954L171.218 216.368ZM168.69 215.395C168.2 215.395 167.872 215.25 167.576 214.954L164.748 217.782C165.821 218.856 167.179 219.395 168.69 219.395V215.395ZM167.576 214.954C167.28 214.658 167.135 214.33 167.135 213.84H163.135C163.135 215.351 163.674 216.709 164.748 217.782L167.576 214.954ZM167.135 213.84V165.097H163.135V213.84H167.135ZM167.135 165.097C167.135 164.607 167.28 164.279 167.576 163.983L164.748 161.155C163.674 162.228 163.135 163.586 163.135 165.097H167.135ZM167.628 163.93C167.936 163.598 168.249 163.463 168.69 163.463V159.463C167.13 159.463 165.757 160.066 164.696 161.208L167.628 163.93ZM168.69 163.463C169.131 163.463 169.444 163.598 169.752 163.93L172.684 161.208C171.623 160.066 170.25 159.463 168.69 159.463V163.463ZM169.857 164.035C170.189 164.343 170.324 164.656 170.324 165.097H174.324C174.324 163.537 173.721 162.164 172.579 161.103L169.857 164.035ZM170.324 165.097V213.84H174.324V165.097H170.324ZM170.324 213.84C170.324 214.281 170.189 214.594 169.857 214.902L172.579 217.834C173.721 216.773 174.324 215.4 174.324 213.84H170.324ZM169.804 214.954C169.508 215.25 169.18 215.395 168.69 215.395V219.395C170.201 219.395 171.559 218.856 172.632 217.782L169.804 214.954Z" fill="white"/>
<g filter="url(#filter1_d_204_488)">
<path d="M272 102H192C179.85 102 170 92.1503 170 80V0L272 102Z" fill="url(#paint2_linear_204_488)"/>
</g>
</g>
<mask id="mask1_204_488" style="mask-type:alpha" maskUnits="userSpaceOnUse" x="0" y="0" width="272" height="308">
<path d="M250 308H22C9.84974 308 0 298.15 0 286V22C0 9.84974 9.84974 0 22 0H170L272 102V286C272 298.15 262.15 308 250 308Z" fill="url(#paint3_linear_204_488)"/>
</mask>
<g mask="url(#mask1_204_488)">
<path d="M250 308H22C9.84974 308 0 298.15 0 286V22C0 9.84974 9.84974 0 22 0H170L272 102V286C272 298.15 262.15 308 250 308Z" fill="url(#paint4_linear_204_488)"/>
<g opacity="0.26" filter="url(#filter2_f_204_488)">
<rect x="48" y="149" width="178" height="84" fill="#E66000" style="mix-blend-mode:darken"/>
</g>
<path d="M70.7971 202.31C69.9704 202.31 69.2884 202.041 68.7511 201.504C68.2551 200.967 68.0071 200.305 68.0071 199.52C68.0071 199.189 68.1104 198.776 68.3171 198.28L84.1271 160.956C84.4577 160.212 84.9124 159.613 85.4911 159.158C86.1111 158.662 86.8551 158.414 87.7231 158.414H88.3431C89.2111 158.414 89.9344 158.662 90.5131 159.158C91.1331 159.613 91.6084 160.212 91.9391 160.956L107.749 198.28C107.956 198.776 108.059 199.189 108.059 199.52C108.059 200.305 107.79 200.967 107.253 201.504C106.757 202.041 106.096 202.31 105.269 202.31C104.69 202.31 104.153 202.165 103.657 201.876C103.202 201.545 102.851 201.111 102.603 200.574L98.5731 190.902H77.4931L73.4631 200.574C73.2151 201.111 72.8431 201.545 72.3471 201.876C71.8924 202.165 71.3757 202.31 70.7971 202.31ZM79.6631 185.756H96.4031L88.0331 165.606L79.6631 185.756ZM124.309 202.31C123.524 202.31 122.862 202.041 122.325 201.504C121.788 200.967 121.519 200.305 121.519 199.52V161.576C121.519 160.791 121.788 160.129 122.325 159.592C122.862 159.013 123.524 158.724 124.309 158.724H138.755C144.376 158.724 148.592 159.881 151.403 162.196C154.214 164.511 155.619 167.549 155.619 171.31C155.619 173.79 154.916 176.063 153.511 178.13C152.147 180.155 150.142 181.623 147.497 182.532C150.473 183.317 152.498 185.177 153.573 188.112C154.689 191.005 155.247 193.857 155.247 196.668V199.52C155.247 200.305 154.978 200.967 154.441 201.504C153.904 202.041 153.242 202.31 152.457 202.31C151.589 202.31 150.886 202.062 150.349 201.566C149.853 201.029 149.605 200.347 149.605 199.52V197.66C149.605 195.593 149.419 193.692 149.047 191.956C148.675 190.179 147.786 188.608 146.381 187.244C144.976 185.839 142.847 185.136 139.995 185.136H127.161V199.52C127.161 200.305 126.872 200.967 126.293 201.504C125.756 202.041 125.094 202.31 124.309 202.31ZM138.383 179.804C141.938 179.804 144.748 179.101 146.815 177.696C148.923 176.291 149.977 174.307 149.977 171.744C149.977 169.264 149.068 167.363 147.249 166.04C145.472 164.717 142.413 164.056 138.073 164.056H127.161V179.804H138.383ZM189.094 202.62C184.96 202.62 181.24 201.731 177.934 199.954C174.668 198.135 172.085 195.552 170.184 192.204C168.324 188.815 167.394 184.867 167.394 180.362C167.394 175.857 168.324 171.93 170.184 168.582C172.085 165.193 174.668 162.609 177.934 160.832C181.24 159.013 184.96 158.104 189.094 158.104C191.904 158.104 194.405 158.435 196.596 159.096C198.828 159.757 201.039 160.708 203.23 161.948C204.139 162.444 204.594 163.229 204.594 164.304C204.594 164.924 204.366 165.482 203.912 165.978C203.457 166.433 202.858 166.66 202.114 166.66C201.7 166.66 201.328 166.577 200.998 166.412C199.179 165.461 197.402 164.738 195.666 164.242C193.93 163.746 191.925 163.498 189.652 163.498C186.097 163.498 183.059 164.242 180.538 165.73C178.058 167.177 176.177 169.181 174.896 171.744C173.656 174.265 173.036 177.138 173.036 180.362C173.036 183.586 173.656 186.479 174.896 189.042C176.177 191.563 178.058 193.568 180.538 195.056C183.059 196.503 186.097 197.226 189.652 197.226C191.925 197.226 193.93 196.978 195.666 196.482C197.402 195.986 199.179 195.263 200.998 194.312C201.328 194.147 201.7 194.064 202.114 194.064C202.858 194.064 203.457 194.291 203.912 194.746C204.366 195.201 204.594 195.759 204.594 196.42C204.594 197.495 204.139 198.28 203.23 198.776C201.039 200.016 198.828 200.967 196.596 201.628C194.405 202.289 191.904 202.62 189.094 202.62Z" fill="white"/>
<path d="M68.7511 201.504L67.2815 202.861L67.3086 202.89L67.3369 202.918L68.7511 201.504ZM68.3171 198.28L66.4754 197.5L66.4709 197.511L68.3171 198.28ZM84.1271 160.956L82.2995 160.144L82.2923 160.16L82.2855 160.176L84.1271 160.956ZM85.4911 159.158L86.7267 160.731L86.7336 160.725L86.7405 160.72L85.4911 159.158ZM90.5131 159.158L89.2115 160.677L89.2691 160.726L89.3303 160.771L90.5131 159.158ZM91.9391 160.956L93.7807 160.176L93.7738 160.16L93.7667 160.144L91.9391 160.956ZM107.749 198.28L109.595 197.511L109.591 197.5L107.749 198.28ZM107.253 201.504L105.839 200.09L105.811 200.118L105.783 200.147L107.253 201.504ZM103.657 201.876L102.481 203.493L102.562 203.553L102.649 203.604L103.657 201.876ZM102.603 200.574L100.757 201.343L100.771 201.378L100.787 201.412L102.603 200.574ZM98.5731 190.902L100.419 190.133L99.9064 188.902H98.5731V190.902ZM77.4931 190.902V188.902H76.1597L75.6469 190.133L77.4931 190.902ZM73.4631 200.574L75.279 201.412L75.2948 201.378L75.3092 201.343L73.4631 200.574ZM72.3471 201.876L73.4208 203.563L73.4388 203.552L73.4565 203.54L72.3471 201.876ZM79.6631 185.756L77.8161 184.989L76.6666 187.756H79.6631V185.756ZM96.4031 185.756V187.756H99.3995L98.2501 184.989L96.4031 185.756ZM88.0331 165.606L89.8801 164.839L88.0331 160.392L86.1861 164.839L88.0331 165.606ZM70.7971 200.31C70.4495 200.31 70.2927 200.217 70.1653 200.09L67.3369 202.918C68.2841 203.865 69.4913 204.31 70.7971 204.31V200.31ZM70.2207 200.147C70.0923 200.008 70.0071 199.843 70.0071 199.52H66.0071C66.0071 200.767 66.4179 201.925 67.2815 202.861L70.2207 200.147ZM70.0071 199.52C70.0071 199.557 70.0021 199.538 70.0249 199.447C70.047 199.359 70.0889 199.228 70.1632 199.049L66.4709 197.511C66.2184 198.117 66.0071 198.811 66.0071 199.52H70.0071ZM70.1587 199.06L85.9687 161.736L82.2855 160.176L66.4755 197.5L70.1587 199.06ZM85.9547 161.768C86.1673 161.29 86.4308 160.963 86.7267 160.731L84.2554 157.585C83.394 158.262 82.7482 159.134 82.2995 160.144L85.9547 161.768ZM86.7405 160.72C86.9721 160.534 87.2641 160.414 87.7231 160.414V156.414C86.4461 156.414 85.25 156.79 84.2417 157.596L86.7405 160.72ZM87.7231 160.414H88.3431V156.414H87.7231V160.414ZM88.3431 160.414C88.8041 160.414 89.0455 160.534 89.2115 160.677L91.8147 157.639C90.8233 156.79 89.618 156.414 88.3431 156.414V160.414ZM89.3303 160.771C89.6526 161.007 89.9137 161.323 90.1115 161.768L93.7667 160.144C93.3031 159.101 92.6135 158.218 91.6958 157.545L89.3303 160.771ZM90.0975 161.736L105.907 199.06L109.591 197.5L93.7807 160.176L90.0975 161.736ZM105.903 199.049C105.977 199.228 106.019 199.359 106.041 199.447C106.064 199.538 106.059 199.557 106.059 199.52H110.059C110.059 198.811 109.848 198.117 109.595 197.511L105.903 199.049ZM106.059 199.52C106.059 199.795 105.987 199.941 105.839 200.09L108.667 202.918C109.593 201.992 110.059 200.816 110.059 199.52H106.059ZM105.783 200.147C105.717 200.219 105.618 200.31 105.269 200.31V204.31C106.574 204.31 107.797 203.864 108.723 202.861L105.783 200.147ZM105.269 200.31C105.042 200.31 104.852 200.258 104.665 200.148L102.649 203.604C103.454 204.073 104.339 204.31 105.269 204.31V200.31ZM104.833 200.259C104.67 200.139 104.532 199.98 104.419 199.736L100.787 201.412C101.17 202.243 101.735 202.951 102.481 203.493L104.833 200.259ZM104.449 199.805L100.419 190.133L96.7269 191.671L100.757 201.343L104.449 199.805ZM98.5731 188.902H77.4931V192.902H98.5731V188.902ZM75.6469 190.133L71.6169 199.805L75.3092 201.343L79.3392 191.671L75.6469 190.133ZM71.6472 199.736C71.5551 199.935 71.4288 200.084 71.2377 200.212L73.4565 203.54C74.2573 203.006 74.8751 202.287 75.279 201.412L71.6472 199.736ZM71.2733 200.189C71.1634 200.259 71.0246 200.31 70.7971 200.31V204.31C71.7268 204.31 72.6214 204.072 73.4208 203.563L71.2733 200.189ZM79.6631 187.756H96.4031V183.756H79.6631V187.756ZM98.2501 184.989L89.8801 164.839L86.1861 166.373L94.5561 186.523L98.2501 184.989ZM86.1861 164.839L77.8161 184.989L81.5101 186.523L89.8801 166.373L86.1861 164.839ZM122.325 201.504L123.739 200.09L122.325 201.504ZM122.325 159.592L123.739 161.006L123.765 160.98L123.79 160.953L122.325 159.592ZM151.403 162.196L152.674 160.652V160.652L151.403 162.196ZM153.511 178.13L151.857 177.005L151.852 177.013L153.511 178.13ZM147.497 182.532L146.847 180.641L140.612 182.784L146.987 184.466L147.497 182.532ZM153.573 188.112L151.695 188.8L151.701 188.816L151.707 188.832L153.573 188.112ZM154.441 201.504L155.855 202.918L154.441 201.504ZM150.349 201.566L148.879 202.923L148.934 202.981L148.992 203.036L150.349 201.566ZM149.047 191.956L147.089 192.366L147.091 192.375L149.047 191.956ZM146.381 187.244L144.967 188.658L144.977 188.669L144.988 188.679L146.381 187.244ZM127.161 185.136V183.136H125.161V185.136H127.161ZM126.293 201.504L124.932 200.038L124.905 200.064L124.879 200.09L126.293 201.504ZM146.815 177.696L145.705 176.032L145.698 176.037L145.69 176.042L146.815 177.696ZM147.249 166.04L146.055 167.644L146.064 167.651L146.073 167.657L147.249 166.04ZM127.161 164.056V162.056H125.161V164.056H127.161ZM127.161 179.804H125.161V181.804H127.161V179.804ZM124.309 200.31C124.034 200.31 123.888 200.238 123.739 200.09L120.911 202.918C121.837 203.844 123.013 204.31 124.309 204.31V200.31ZM123.739 200.09C123.591 199.941 123.519 199.795 123.519 199.52H119.519C119.519 200.816 119.984 201.992 120.911 202.918L123.739 200.09ZM123.519 199.52V161.576H119.519V199.52H123.519ZM123.519 161.576C123.519 161.301 123.591 161.155 123.739 161.006L120.911 158.178C119.984 159.104 119.519 160.28 119.519 161.576H123.519ZM123.79 160.953C123.952 160.779 124.083 160.724 124.309 160.724V156.724C122.964 156.724 121.773 157.247 120.859 158.231L123.79 160.953ZM124.309 160.724H138.755V156.724H124.309V160.724ZM138.755 160.724C144.152 160.724 147.828 161.843 150.131 163.74L152.674 160.652C149.356 157.92 144.6 156.724 138.755 156.724V160.724ZM150.131 163.74C152.464 165.66 153.619 168.124 153.619 171.31H157.619C157.619 166.974 155.964 163.361 152.674 160.652L150.131 163.74ZM153.619 171.31C153.619 173.386 153.039 175.268 151.857 177.005L155.165 179.255C156.794 176.859 157.619 174.194 157.619 171.31H153.619ZM151.852 177.013C150.766 178.626 149.143 179.851 146.847 180.641L148.147 184.423C151.141 183.394 153.528 181.685 155.17 179.247L151.852 177.013ZM146.987 184.466C149.319 185.081 150.841 186.468 151.695 188.8L155.451 187.424C154.156 183.887 151.627 181.553 148.007 180.598L146.987 184.466ZM151.707 188.832C152.743 191.519 153.247 194.128 153.247 196.668H157.247C157.247 193.587 156.634 190.492 155.439 187.392L151.707 188.832ZM153.247 196.668V199.52H157.247V196.668H153.247ZM153.247 199.52C153.247 199.795 153.175 199.941 153.027 200.09L155.855 202.918C156.781 201.992 157.247 200.816 157.247 199.52H153.247ZM153.027 200.09C152.878 200.238 152.732 200.31 152.457 200.31V204.31C153.753 204.31 154.929 203.844 155.855 202.918L153.027 200.09ZM152.457 200.31C151.992 200.31 151.806 200.189 151.705 200.096L148.992 203.036C149.966 203.935 151.186 204.31 152.457 204.31V200.31ZM151.818 200.209C151.709 200.09 151.605 199.915 151.605 199.52H147.605C147.605 200.779 147.997 201.967 148.879 202.923L151.818 200.209ZM151.605 199.52V197.66H147.605V199.52H151.605ZM151.605 197.66C151.605 195.475 151.408 193.431 151.002 191.537L147.091 192.375C147.429 193.953 147.605 195.712 147.605 197.66H151.605ZM151.004 191.546C150.544 189.348 149.442 187.428 147.774 185.809L144.988 188.679C146.131 189.788 146.806 191.01 147.089 192.366L151.004 191.546ZM147.795 185.83C145.878 183.912 143.145 183.136 139.995 183.136V187.136C142.548 187.136 144.074 187.765 144.967 188.658L147.795 185.83ZM139.995 183.136H127.161V187.136H139.995V183.136ZM125.161 185.136V199.52H129.161V185.136H125.161ZM125.161 199.52C125.161 199.746 125.106 199.877 124.932 200.038L127.654 202.97C128.637 202.056 129.161 200.865 129.161 199.52H125.161ZM124.879 200.09C124.73 200.238 124.584 200.31 124.309 200.31V204.31C125.605 204.31 126.781 203.844 127.707 202.918L124.879 200.09ZM138.383 181.804C142.176 181.804 145.428 181.057 147.939 179.35L145.69 176.042C144.068 177.145 141.699 177.804 138.383 177.804V181.804ZM147.924 179.36C150.596 177.579 151.977 174.966 151.977 171.744H147.977C147.977 173.647 147.249 175.003 145.705 176.032L147.924 179.36ZM151.977 171.744C151.977 168.7 150.82 166.164 148.425 164.423L146.073 167.657C147.315 168.561 147.977 169.828 147.977 171.744H151.977ZM148.443 164.436C146.119 162.706 142.495 162.056 138.073 162.056V166.056C142.331 166.056 144.824 166.729 146.055 167.644L148.443 164.436ZM138.073 162.056H127.161V166.056H138.073V162.056ZM125.161 164.056V179.804H129.161V164.056H125.161ZM127.161 181.804H138.383V177.804H127.161V181.804ZM177.934 199.954L176.96 201.701L176.973 201.709L176.987 201.716L177.934 199.954ZM170.184 192.204L168.43 193.166L168.437 193.179L168.444 193.192L170.184 192.204ZM170.184 168.582L168.439 167.603L168.435 167.611L170.184 168.582ZM177.934 160.832L178.89 162.589L178.897 162.584L177.934 160.832ZM196.596 159.096L196.018 161.011L196.027 161.014L196.596 159.096ZM203.23 161.948L202.244 163.689L202.258 163.696L202.272 163.704L203.23 161.948ZM203.912 165.978L205.326 167.392L205.356 167.361L205.386 167.329L203.912 165.978ZM200.998 166.412L200.071 168.184L200.087 168.193L200.103 168.201L200.998 166.412ZM195.666 164.242L196.215 162.319L195.666 164.242ZM180.538 165.73L181.545 167.458L181.554 167.452L180.538 165.73ZM174.896 171.744L173.107 170.85L173.101 170.861L174.896 171.744ZM174.896 189.042L173.095 189.913L173.104 189.931L173.113 189.948L174.896 189.042ZM180.538 195.056L179.509 196.771L179.525 196.781L179.542 196.791L180.538 195.056ZM195.666 196.482L196.215 198.405L195.666 196.482ZM200.998 194.312L200.103 192.523L200.087 192.531L200.071 192.54L200.998 194.312ZM203.912 194.746L205.326 193.332L205.326 193.332L203.912 194.746ZM203.23 198.776L202.272 197.02L202.258 197.028L202.244 197.035L203.23 198.776ZM196.596 201.628L196.027 199.71L196.018 199.713L196.596 201.628ZM189.094 200.62C185.257 200.62 181.867 199.798 178.88 198.192L176.987 201.716C180.613 203.665 184.664 204.62 189.094 204.62V200.62ZM178.907 198.207C175.971 196.572 173.649 194.256 171.923 191.216L168.444 193.192C170.521 196.848 173.365 199.699 176.96 201.701L178.907 198.207ZM171.937 191.242C170.264 188.193 169.394 184.587 169.394 180.362H165.394C165.394 185.148 166.383 189.437 168.43 193.166L171.937 191.242ZM169.394 180.362C169.394 176.136 170.264 172.556 171.932 169.553L168.435 167.611C166.383 171.304 165.394 175.577 165.394 180.362H169.394ZM171.928 169.56C173.654 166.484 175.97 164.178 178.89 162.589L176.977 159.075C173.366 161.041 170.516 163.901 168.439 167.603L171.928 169.56ZM178.897 162.584C181.881 160.943 185.264 160.104 189.094 160.104V156.104C184.656 156.104 180.599 157.083 176.97 159.08L178.897 162.584ZM189.094 160.104C191.751 160.104 194.051 160.417 196.018 161.011L197.174 157.181C194.758 156.452 192.057 156.104 189.094 156.104V160.104ZM196.027 161.014C198.103 161.629 200.175 162.517 202.244 163.689L204.215 160.207C201.903 158.899 199.552 157.886 197.164 157.178L196.027 161.014ZM202.272 163.704C202.451 163.802 202.503 163.879 202.522 163.911C202.543 163.947 202.594 164.053 202.594 164.304H206.594C206.594 163.48 206.417 162.656 205.983 161.907C205.547 161.154 204.917 160.59 204.187 160.192L202.272 163.704ZM202.594 164.304C202.594 164.379 202.585 164.465 202.437 164.627L205.386 167.329C206.147 166.499 206.594 165.469 206.594 164.304H202.594ZM202.497 164.564C202.477 164.584 202.417 164.66 202.114 164.66V168.66C203.298 168.66 204.437 168.281 205.326 167.392L202.497 164.564ZM202.114 164.66C201.974 164.66 201.914 164.634 201.892 164.623L200.103 168.201C200.743 168.521 201.427 168.66 202.114 168.66V164.66ZM201.924 164.64C200.001 163.634 198.098 162.857 196.215 162.319L195.116 166.165C196.705 166.619 198.357 167.288 200.071 168.184L201.924 164.64ZM196.215 162.319C194.261 161.761 192.065 161.498 189.652 161.498V165.498C191.785 165.498 193.598 165.731 195.116 166.165L196.215 162.319ZM189.652 161.498C185.816 161.498 182.41 162.303 179.521 164.008L181.554 167.452C183.708 166.181 186.378 165.498 189.652 165.498V161.498ZM179.53 164.002C176.715 165.645 174.562 167.938 173.107 170.85L176.684 172.638C177.791 170.424 179.4 168.709 181.545 167.458L179.53 164.002ZM173.101 170.861C171.707 173.695 171.036 176.877 171.036 180.362H175.036C175.036 177.399 175.604 174.835 176.69 172.627L173.101 170.861ZM171.036 180.362C171.036 183.848 171.707 187.045 173.095 189.913L176.696 188.171C175.604 185.914 175.036 183.324 175.036 180.362H171.036ZM173.113 189.948C174.568 192.812 176.714 195.094 179.509 196.771L181.567 193.341C179.401 192.042 177.786 190.314 176.679 188.136L173.113 189.948ZM179.542 196.791C182.427 198.446 185.825 199.226 189.652 199.226V195.226C186.369 195.226 183.691 194.559 181.533 193.321L179.542 196.791ZM189.652 199.226C192.065 199.226 194.261 198.963 196.215 198.405L195.116 194.559C193.598 194.993 191.785 195.226 189.652 195.226V199.226ZM196.215 198.405C198.098 197.867 200.001 197.09 201.924 196.084L200.071 192.54C198.357 193.436 196.705 194.105 195.116 194.559L196.215 198.405ZM201.892 196.101C201.914 196.09 201.974 196.064 202.114 196.064V192.064C201.427 192.064 200.743 192.203 200.103 192.523L201.892 196.101ZM202.114 196.064C202.417 196.064 202.477 196.14 202.497 196.16L205.326 193.332C204.437 192.443 203.298 192.064 202.114 192.064V196.064ZM202.497 196.16C202.549 196.212 202.564 196.244 202.571 196.26C202.578 196.277 202.594 196.323 202.594 196.42H206.594C206.594 195.245 206.167 194.173 205.326 193.332L202.497 196.16ZM202.594 196.42C202.594 196.671 202.543 196.777 202.522 196.813C202.503 196.845 202.451 196.922 202.272 197.02L204.187 200.532C204.917 200.134 205.547 199.57 205.983 198.817C206.417 198.068 206.594 197.244 206.594 196.42H202.594ZM202.244 197.035C200.175 198.207 198.103 199.095 196.027 199.71L197.164 203.546C199.552 202.838 201.903 201.825 204.215 200.517L202.244 197.035ZM196.018 199.713C194.051 200.307 191.751 200.62 189.094 200.62V204.62C192.057 204.62 194.758 204.272 197.174 203.543L196.018 199.713Z" fill="white"/>
<g filter="url(#filter3_d_204_488)">
<path d="M272 102H192C179.85 102 170 92.1503 170 80V0L272 102Z" fill="url(#paint5_linear_204_488)"/>
</g>
</g>
<defs>
<filter id="filter0_f_204_488" x="9" y="110" width="256" height="162" filterUnits="userSpaceOnUse" color-interpolation-filters="sRGB">
<feFlood flood-opacity="0" result="BackgroundImageFix"/>
<feBlend mode="normal" in="SourceGraphic" in2="BackgroundImageFix" result="shape"/>
<feGaussianBlur stdDeviation="19.5" result="effect1_foregroundBlur_204_488"/>
</filter>
<filter id="filter1_d_204_488" x="147" y="-24" width="152" height="152" filterUnits="userSpaceOnUse" color-interpolation-filters="sRGB">
<feFlood flood-opacity="0" result="BackgroundImageFix"/>
<feColorMatrix in="SourceAlpha" type="matrix" values="0 0 0 0 0 0 0 0 0 0 0 0 0 0 0 0 0 0 127 0" result="hardAlpha"/>
<feOffset dx="2" dy="1"/>
<feGaussianBlur stdDeviation="12.5"/>
<feColorMatrix type="matrix" values="0 0 0 0 0 0 0 0 0 0 0 0 0 0 0 0 0 0 0.33 0"/>
<feBlend mode="normal" in2="BackgroundImageFix" result="effect1_dropShadow_204_488"/>
<feBlend mode="normal" in="SourceGraphic" in2="effect1_dropShadow_204_488" result="shape"/>
</filter>
<filter id="filter2_f_204_488" x="9" y="110" width="256" height="162" filterUnits="userSpaceOnUse" color-interpolation-filters="sRGB">
<feFlood flood-opacity="0" result="BackgroundImageFix"/>
<feBlend mode="normal" in="SourceGraphic" in2="BackgroundImageFix" result="shape"/>
<feGaussianBlur stdDeviation="19.5" result="effect1_foregroundBlur_204_488"/>
</filter>
<filter id="filter3_d_204_488" x="147" y="-24" width="152" height="152" filterUnits="userSpaceOnUse" color-interpolation-filters="sRGB">
<feFlood flood-opacity="0" result="BackgroundImageFix"/>
<feColorMatrix in="SourceAlpha" type="matrix" values="0 0 0 0 0 0 0 0 0 0 0 0 0 0 0 0 0 0 127 0" result="hardAlpha"/>
<feOffset dx="2" dy="1"/>
<feGaussianBlur stdDeviation="12.5"/>
<feColorMatrix type="matrix" values="0 0 0 0 0 0 0 0 0 0 0 0 0 0 0 0 0 0 0.33 0"/>
<feBlend mode="normal" in2="BackgroundImageFix" result="effect1_dropShadow_204_488"/>
<feBlend mode="normal" in="SourceGraphic" in2="effect1_dropShadow_204_488" result="shape"/>
</filter>
<linearGradient id="paint0_linear_204_488" x1="136" y1="0" x2="136" y2="308" gradientUnits="userSpaceOnUse">
<stop stop-color="#FF7979"/>
<stop offset="1" stop-color="#E85555"/>
</linearGradient>
<linearGradient id="paint1_linear_204_488" x1="136" y1="0" x2="136" y2="308" gradientUnits="userSpaceOnUse">
<stop stop-color="#FFA216"/>
<stop offset="1" stop-color="#EF8100"/>
</linearGradient>
<linearGradient id="paint2_linear_204_488" x1="221" y1="0" x2="221" y2="102" gradientUnits="userSpaceOnUse">
<stop stop-color="#FF7A1B"/>
<stop offset="1" stop-color="#E86100"/>
</linearGradient>
<linearGradient id="paint3_linear_204_488" x1="136" y1="0" x2="136" y2="308" gradientUnits="userSpaceOnUse">
<stop stop-color="#FF7979"/>
<stop offset="1" stop-color="#E85555"/>
</linearGradient>
<linearGradient id="paint4_linear_204_488" x1="136" y1="0" x2="136" y2="308" gradientUnits="userSpaceOnUse">
<stop stop-color="#FFA216"/>
<stop offset="1" stop-color="#EF8100"/>
</linearGradient>
<linearGradient id="paint5_linear_204_488" x1="221" y1="0" x2="221" y2="102" gradientUnits="userSpaceOnUse">
<stop stop-color="#FF7A1B"/>
<stop offset="1" stop-color="#E86100"/>
</linearGradient>
</defs>
</svg>
