<svg width="272" height="308" viewBox="0 0 272 308" fill="none" xmlns="http://www.w3.org/2000/svg">
<mask id="mask0_204_501" style="mask-type:alpha" maskUnits="userSpaceOnUse" x="0" y="0" width="272" height="308">
<path d="M250 308H22C9.84974 308 0 298.15 0 286V22C0 9.84974 9.84974 0 22 0H170L272 102V286C272 298.15 262.15 308 250 308Z" fill="url(#paint0_linear_204_501)"/>
</mask>
<g mask="url(#mask0_204_501)">
<path d="M250 308H22C9.84974 308 0 298.15 0 286V22C0 9.84974 9.84974 0 22 0H170L272 102V286C272 298.15 262.15 308 250 308Z" fill="url(#paint1_linear_204_501)"/>
<g opacity="0.26" filter="url(#filter0_f_204_501)">
<rect x="48" y="149" width="178" height="84" fill="#E66000" style="mix-blend-mode:darken"/>
</g>
<path d="M100.506 217.395C99.4523 217.395 98.5833 217.053 97.8986 216.368C97.2666 215.683 96.9506 214.841 96.9506 213.84C96.9506 213.419 97.0823 212.892 97.3456 212.26L117.491 164.702C117.912 163.754 118.491 162.99 119.229 162.411C120.019 161.779 120.967 161.463 122.073 161.463H122.863C123.969 161.463 124.89 161.779 125.628 162.411C126.418 162.99 127.023 163.754 127.445 164.702L147.59 212.26C147.853 212.892 147.985 213.419 147.985 213.84C147.985 214.841 147.642 215.683 146.958 216.368C146.326 217.053 145.483 217.395 144.43 217.395C143.692 217.395 143.008 217.211 142.376 216.842C141.796 216.421 141.349 215.868 141.033 215.183L135.898 202.859H109.038L103.903 215.183C103.587 215.868 103.113 216.421 102.481 216.842C101.901 217.211 101.243 217.395 100.506 217.395ZM111.803 196.302H133.133L122.468 170.627L111.803 196.302ZM168.69 217.395C167.689 217.395 166.847 217.053 166.162 216.368C165.477 215.683 165.135 214.841 165.135 213.84V165.097C165.135 164.096 165.477 163.254 166.162 162.569C166.847 161.832 167.689 161.463 168.69 161.463C169.691 161.463 170.533 161.832 171.218 162.569C171.955 163.254 172.324 164.096 172.324 165.097V213.84C172.324 214.841 171.955 215.683 171.218 216.368C170.533 217.053 169.691 217.395 168.69 217.395Z" fill="white"/>
<path d="M97.8986 216.368L96.429 217.725L96.4561 217.754L96.4844 217.782L97.8986 216.368ZM97.3456 212.26L95.504 211.48L95.4995 211.491L97.3456 212.26ZM117.491 164.702L115.663 163.89L115.656 163.906L115.649 163.922L117.491 164.702ZM119.229 162.411L120.464 163.984L120.471 163.978L120.478 163.973L119.229 162.411ZM125.628 162.411L124.326 163.93L124.384 163.979L124.445 164.024L125.628 162.411ZM127.445 164.702L129.286 163.922L129.279 163.906L129.272 163.89L127.445 164.702ZM147.59 212.26L149.436 211.491L149.431 211.48L147.59 212.26ZM146.958 216.368L145.543 214.954L145.515 214.982L145.488 215.011L146.958 216.368ZM142.376 216.842L141.199 218.459L141.281 218.519L141.368 218.57L142.376 216.842ZM141.033 215.183L139.186 215.952L139.201 215.987L139.217 216.021L141.033 215.183ZM135.898 202.859L137.744 202.09L137.231 200.859H135.898V202.859ZM109.038 202.859V200.859H107.704L107.191 202.09L109.038 202.859ZM103.903 215.183L105.719 216.021L105.734 215.987L105.749 215.952L103.903 215.183ZM102.481 216.842L103.554 218.529L103.572 218.518L103.59 218.506L102.481 216.842ZM111.803 196.302L109.956 195.535L108.806 198.302H111.803V196.302ZM133.133 196.302V198.302H136.129L134.98 195.535L133.133 196.302ZM122.468 170.627L124.315 169.86L122.468 165.413L120.621 169.86L122.468 170.627ZM100.506 215.395C99.9314 215.395 99.5876 215.229 99.3128 214.954L96.4844 217.782C97.579 218.877 98.9732 219.395 100.506 219.395V215.395ZM99.3682 215.011C99.1038 214.725 98.9506 214.379 98.9506 213.84H94.9506C94.9506 215.303 95.4294 216.642 96.429 217.725L99.3682 215.011ZM98.9506 213.84C98.9506 213.797 98.9743 213.551 99.1918 213.029L95.4995 211.491C95.1903 212.233 94.9506 213.041 94.9506 213.84H98.9506ZM99.1872 213.04L119.332 165.482L115.649 163.922L95.504 211.48L99.1872 213.04ZM119.318 165.514C119.622 164.832 120.01 164.341 120.464 163.984L117.993 160.838C116.973 161.64 116.202 162.676 115.663 163.89L119.318 165.514ZM120.478 163.973C120.88 163.651 121.376 163.463 122.073 163.463V159.463C120.558 159.463 119.158 159.907 117.979 160.849L120.478 163.973ZM122.073 163.463H122.863V159.463H122.073V163.463ZM122.863 163.463C123.562 163.463 124.001 163.651 124.326 163.93L126.929 160.892C125.779 159.907 124.376 159.463 122.863 159.463V163.463ZM124.445 164.024C124.937 164.385 125.329 164.865 125.617 165.514L129.272 163.89C128.718 162.643 127.898 161.596 126.81 160.798L124.445 164.024ZM125.603 165.482L145.748 213.04L149.431 211.48L129.286 163.922L125.603 165.482ZM145.743 213.029C145.961 213.551 145.985 213.797 145.985 213.84H149.985C149.985 213.041 149.745 212.233 149.436 211.491L145.743 213.029ZM145.985 213.84C145.985 214.33 145.839 214.658 145.543 214.954L148.372 217.782C149.445 216.709 149.985 215.351 149.985 213.84H145.985ZM145.488 215.011C145.286 215.23 145.005 215.395 144.43 215.395V219.395C145.961 219.395 147.365 218.875 148.427 217.725L145.488 215.011ZM144.43 215.395C144.044 215.395 143.707 215.303 143.383 215.114L141.368 218.57C142.308 219.118 143.341 219.395 144.43 219.395V215.395ZM143.552 215.225C143.264 215.015 143.029 214.736 142.849 214.345L139.217 216.021C139.668 216.999 140.329 217.827 141.199 218.459L143.552 215.225ZM142.879 214.414L137.744 202.09L134.051 203.628L139.186 215.952L142.879 214.414ZM135.898 200.859H109.038V204.859H135.898V200.859ZM107.191 202.09L102.056 214.414L105.749 215.952L110.884 203.628L107.191 202.09ZM102.087 214.345C101.927 214.692 101.698 214.96 101.371 215.178L103.59 218.506C104.527 217.882 105.247 217.044 105.719 216.021L102.087 214.345ZM101.407 215.155C101.172 215.304 100.892 215.395 100.506 215.395V219.395C101.594 219.395 102.63 219.117 103.554 218.529L101.407 215.155ZM111.803 198.302H133.133V194.302H111.803V198.302ZM134.98 195.535L124.315 169.86L120.621 171.394L131.286 197.069L134.98 195.535ZM120.621 169.86L109.956 195.535L113.65 197.069L124.315 171.394L120.621 169.86ZM166.162 216.368L167.576 214.954L166.162 216.368ZM166.162 162.569L167.576 163.983L167.602 163.957L167.628 163.93L166.162 162.569ZM171.218 162.569L169.752 163.93L169.803 163.984L169.857 164.035L171.218 162.569ZM171.218 216.368L169.857 214.902L169.83 214.928L169.804 214.954L171.218 216.368ZM168.69 215.395C168.2 215.395 167.872 215.25 167.576 214.954L164.748 217.782C165.821 218.856 167.179 219.395 168.69 219.395V215.395ZM167.576 214.954C167.28 214.658 167.135 214.33 167.135 213.84H163.135C163.135 215.351 163.674 216.709 164.748 217.782L167.576 214.954ZM167.135 213.84V165.097H163.135V213.84H167.135ZM167.135 165.097C167.135 164.607 167.28 164.279 167.576 163.983L164.748 161.155C163.674 162.228 163.135 163.586 163.135 165.097H167.135ZM167.628 163.93C167.936 163.598 168.249 163.463 168.69 163.463V159.463C167.13 159.463 165.757 160.066 164.696 161.208L167.628 163.93ZM168.69 163.463C169.131 163.463 169.444 163.598 169.752 163.93L172.684 161.208C171.623 160.066 170.25 159.463 168.69 159.463V163.463ZM169.857 164.035C170.189 164.343 170.324 164.656 170.324 165.097H174.324C174.324 163.537 173.721 162.164 172.579 161.103L169.857 164.035ZM170.324 165.097V213.84H174.324V165.097H170.324ZM170.324 213.84C170.324 214.281 170.189 214.594 169.857 214.902L172.579 217.834C173.721 216.773 174.324 215.4 174.324 213.84H170.324ZM169.804 214.954C169.508 215.25 169.18 215.395 168.69 215.395V219.395C170.201 219.395 171.559 218.856 172.632 217.782L169.804 214.954Z" fill="white"/>
<g filter="url(#filter1_d_204_501)">
<path d="M272 102H192C179.85 102 170 92.1503 170 80V0L272 102Z" fill="url(#paint2_linear_204_501)"/>
</g>
</g>
<mask id="mask1_204_501" style="mask-type:alpha" maskUnits="userSpaceOnUse" x="0" y="0" width="272" height="308">
<path d="M250 308H22C9.84974 308 0 298.15 0 286V22C0 9.84974 9.84974 0 22 0H170L272 102V286C272 298.15 262.15 308 250 308Z" fill="url(#paint3_linear_204_501)"/>
</mask>
<g mask="url(#mask1_204_501)">
<path d="M250 308H22C9.84974 308 0 298.15 0 286V22C0 9.84974 9.84974 0 22 0H170L272 102V286C272 298.15 262.15 308 250 308Z" fill="url(#paint4_linear_204_501)"/>
<g opacity="0.26" filter="url(#filter2_f_204_501)">
<rect x="48" y="149" width="178" height="84" fill="#E66000" style="mix-blend-mode:darken"/>
</g>
<path d="M101.371 202C100.586 202 99.9246 201.731 99.3873 201.194C98.85 200.657 98.5813 199.995 98.5813 199.21V161.576C98.5813 160.791 98.85 160.129 99.3873 159.592C99.9246 159.013 100.586 158.724 101.371 158.724H116.003C120.426 158.724 123.836 159.737 126.233 161.762C128.672 163.787 129.891 166.515 129.891 169.946C129.891 172.343 129.313 174.348 128.155 175.96C127.039 177.531 125.593 178.709 123.815 179.494C126.295 180.279 128.321 181.54 129.891 183.276C131.503 185.012 132.309 187.203 132.309 189.848C132.309 193.651 131.028 196.627 128.465 198.776C125.903 200.925 121.873 202 116.375 202H101.371ZM114.515 177.448C118.194 177.448 120.777 176.828 122.265 175.588C123.753 174.348 124.497 172.612 124.497 170.38C124.497 168.437 123.691 166.887 122.079 165.73C120.509 164.573 118.339 163.994 115.569 163.994H104.223V177.448H114.515ZM115.817 196.73C119.827 196.73 122.658 196.11 124.311 194.87C126.006 193.63 126.853 191.873 126.853 189.6C126.853 184.888 123.195 182.532 115.879 182.532H104.223V196.73H115.817ZM146.406 202C145.414 202 144.566 201.649 143.864 200.946C143.161 200.243 142.81 199.396 142.81 198.404C142.81 197.495 143.058 196.73 143.554 196.11L169.47 164.118H145.6C144.856 164.118 144.215 163.87 143.678 163.374C143.182 162.837 142.934 162.196 142.934 161.452C142.934 160.708 143.182 160.067 143.678 159.53C144.215 158.993 144.856 158.724 145.6 158.724H172.508C173.665 158.724 174.574 159.096 175.236 159.84C175.938 160.584 176.29 161.493 176.29 162.568C176.29 162.981 176.186 163.415 175.98 163.87C175.814 164.325 175.587 164.717 175.298 165.048L149.692 196.73H173.996C174.74 196.73 175.36 196.999 175.856 197.536C176.393 198.032 176.662 198.652 176.662 199.396C176.662 200.14 176.393 200.76 175.856 201.256C175.36 201.752 174.74 202 173.996 202H146.406Z" fill="white"/>
<path d="M99.3873 201.194L100.802 199.78L99.3873 201.194ZM99.3873 159.592L100.802 161.006L100.828 160.98L100.853 160.953L99.3873 159.592ZM126.233 161.762L124.943 163.29L124.949 163.295L124.956 163.301L126.233 161.762ZM128.155 175.96L126.531 174.794L126.525 174.802L128.155 175.96ZM123.815 179.494L123.007 177.665L118.167 179.803L123.212 181.401L123.815 179.494ZM129.891 183.276L128.408 184.618L128.417 184.627L128.426 184.637L129.891 183.276ZM128.465 198.776L129.751 200.308L128.465 198.776ZM122.265 175.588L120.985 174.052L122.265 175.588ZM122.079 165.73L120.893 167.34L120.903 167.347L120.913 167.355L122.079 165.73ZM104.223 163.994V161.994H102.223V163.994H104.223ZM104.223 177.448H102.223V179.448H104.223V177.448ZM124.311 194.87L123.13 193.256L123.121 193.263L123.111 193.27L124.311 194.87ZM104.223 182.532V180.532H102.223V182.532H104.223ZM104.223 196.73H102.223V198.73H104.223V196.73ZM101.371 200C101.097 200 100.95 199.928 100.802 199.78L97.9731 202.608C98.8993 203.534 100.075 204 101.371 204V200ZM100.802 199.78C100.653 199.631 100.581 199.485 100.581 199.21H96.5813C96.5813 200.506 97.0469 201.682 97.9731 202.608L100.802 199.78ZM100.581 199.21V161.576H96.5813V199.21H100.581ZM100.581 161.576C100.581 161.301 100.653 161.155 100.802 161.006L97.9731 158.178C97.0469 159.104 96.5813 160.28 96.5813 161.576H100.581ZM100.853 160.953C101.014 160.779 101.146 160.724 101.371 160.724V156.724C100.026 156.724 98.8351 157.247 97.9217 158.231L100.853 160.953ZM101.371 160.724H116.003V156.724H101.371V160.724ZM116.003 160.724C120.145 160.724 123.029 161.673 124.943 163.29L127.524 160.234C124.643 157.8 120.707 156.724 116.003 156.724V160.724ZM124.956 163.301C126.895 164.912 127.891 167.054 127.891 169.946H131.891C131.891 165.976 130.448 162.663 127.511 160.223L124.956 163.301ZM127.891 169.946C127.891 172.014 127.397 173.587 126.531 174.794L129.78 177.126C131.229 175.109 131.891 172.673 131.891 169.946H127.891ZM126.525 174.802C125.619 176.076 124.458 177.024 123.007 177.665L124.624 181.323C126.727 180.394 128.459 178.985 129.786 177.118L126.525 174.802ZM123.212 181.401C125.392 182.091 127.101 183.173 128.408 184.618L131.374 181.934C129.54 179.907 127.199 178.467 124.419 177.587L123.212 181.401ZM128.426 184.637C129.653 185.959 130.309 187.644 130.309 189.848H134.309C134.309 186.762 133.353 184.065 131.357 181.915L128.426 184.637ZM130.309 189.848C130.309 193.15 129.224 195.529 127.18 197.244L129.751 200.308C132.831 197.724 134.309 194.151 134.309 189.848H130.309ZM127.18 197.244C125.146 198.95 121.683 200 116.375 200V204C122.062 204 126.659 202.901 129.751 200.308L127.18 197.244ZM116.375 200H101.371V204H116.375V200ZM114.515 179.448C118.296 179.448 121.493 178.835 123.546 177.124L120.985 174.052C120.062 174.821 118.092 175.448 114.515 175.448V179.448ZM123.546 177.124C125.562 175.444 126.497 173.105 126.497 170.38H122.497C122.497 172.119 121.945 173.252 120.985 174.052L123.546 177.124ZM126.497 170.38C126.497 167.777 125.368 165.629 123.246 164.105L120.913 167.355C122.015 168.146 122.497 169.098 122.497 170.38H126.497ZM123.266 164.12C121.234 162.623 118.592 161.994 115.569 161.994V165.994C118.085 165.994 119.783 166.523 120.893 167.34L123.266 164.12ZM115.569 161.994H104.223V165.994H115.569V161.994ZM102.223 163.994V177.448H106.223V163.994H102.223ZM104.223 179.448H114.515V175.448H104.223V179.448ZM115.817 198.73C119.914 198.73 123.311 198.12 125.511 196.47L123.111 193.27C122.004 194.1 119.739 194.73 115.817 194.73V198.73ZM125.492 196.484C127.749 194.833 128.853 192.45 128.853 189.6H124.853C124.853 191.297 124.263 192.427 123.13 193.256L125.492 196.484ZM128.853 189.6C128.853 186.631 127.648 184.199 125.193 182.618C122.889 181.134 119.688 180.532 115.879 180.532V184.532C119.387 184.532 121.673 185.108 123.027 185.98C124.23 186.755 124.853 187.857 124.853 189.6H128.853ZM115.879 180.532H104.223V184.532H115.879V180.532ZM102.223 182.532V196.73H106.223V182.532H102.223ZM104.223 198.73H115.817V194.73H104.223V198.73ZM143.864 200.946L145.278 199.532L143.864 200.946ZM143.554 196.11L141.999 194.851L141.992 194.861L143.554 196.11ZM169.47 164.118L171.024 165.377L173.664 162.118H169.47V164.118ZM143.678 163.374L142.208 164.731L142.262 164.789L142.321 164.844L143.678 163.374ZM143.678 159.53L142.263 158.116L142.235 158.144L142.208 158.173L143.678 159.53ZM175.236 159.84L173.741 161.169L173.761 161.191L173.782 161.213L175.236 159.84ZM175.98 163.87L174.159 163.042L174.127 163.113L174.1 163.187L175.98 163.87ZM175.298 165.048L173.792 163.731L173.767 163.76L173.742 163.791L175.298 165.048ZM149.692 196.73L148.136 195.473L145.504 198.73H149.692V196.73ZM175.856 197.536L174.386 198.893L174.44 198.951L174.499 199.006L175.856 197.536ZM175.856 201.256L174.499 199.786L174.47 199.814L174.441 199.842L175.856 201.256ZM146.406 200C145.945 200 145.606 199.86 145.278 199.532L142.449 202.36C143.526 203.437 144.882 204 146.406 204V200ZM145.278 199.532C144.949 199.203 144.81 198.865 144.81 198.404H140.81C140.81 199.927 141.372 201.283 142.449 202.36L145.278 199.532ZM144.81 198.404C144.81 197.879 144.944 197.574 145.115 197.359L141.992 194.861C141.172 195.886 140.81 197.11 140.81 198.404H144.81ZM145.108 197.369L171.024 165.377L167.916 162.859L142 194.851L145.108 197.369ZM169.47 162.118H145.6V166.118H169.47V162.118ZM145.6 162.118C145.349 162.118 145.195 162.053 145.034 161.904L142.321 164.844C143.235 165.687 144.363 166.118 145.6 166.118V162.118ZM145.147 162.017C144.999 161.857 144.934 161.703 144.934 161.452H140.934C140.934 162.689 141.364 163.817 142.208 164.731L145.147 162.017ZM144.934 161.452C144.934 161.201 144.999 161.047 145.147 160.887L142.208 158.173C141.364 159.087 140.934 160.215 140.934 161.452H144.934ZM145.092 160.944C145.263 160.773 145.399 160.724 145.6 160.724V156.724C144.313 156.724 143.167 157.212 142.263 158.116L145.092 160.944ZM145.6 160.724H172.508V156.724H145.6V160.724ZM172.508 160.724C173.196 160.724 173.522 160.923 173.741 161.169L176.73 158.511C175.626 157.269 174.134 156.724 172.508 156.724V160.724ZM173.782 161.213C174.115 161.566 174.29 161.976 174.29 162.568H178.29C178.29 161.011 177.762 159.602 176.69 158.467L173.782 161.213ZM174.29 162.568C174.29 162.643 174.272 162.795 174.159 163.042L177.8 164.698C178.101 164.036 178.29 163.32 178.29 162.568H174.29ZM174.1 163.187C174.011 163.432 173.903 163.604 173.792 163.731L176.803 166.365C177.271 165.83 177.618 165.217 177.859 164.553L174.1 163.187ZM173.742 163.791L148.136 195.473L151.247 197.987L176.853 166.305L173.742 163.791ZM149.692 198.73H173.996V194.73H149.692V198.73ZM173.996 198.73C174.192 198.73 174.276 198.773 174.386 198.893L177.325 196.179C176.443 195.224 175.287 194.73 173.996 194.73V198.73ZM174.499 199.006C174.618 199.116 174.662 199.199 174.662 199.396H178.662C178.662 198.105 178.168 196.948 177.212 196.066L174.499 199.006ZM174.662 199.396C174.662 199.593 174.618 199.676 174.499 199.786L177.212 202.726C178.168 201.844 178.662 200.687 178.662 199.396H174.662ZM174.441 199.842C174.345 199.938 174.245 200 173.996 200V204C175.234 204 176.374 203.566 177.27 202.67L174.441 199.842ZM173.996 200H146.406V204H173.996V200Z" fill="white"/>
<g filter="url(#filter3_d_204_501)">
<path d="M272 102H192C179.85 102 170 92.1503 170 80V0L272 102Z" fill="url(#paint5_linear_204_501)"/>
</g>
</g>
<defs>
<filter id="filter0_f_204_501" x="9" y="110" width="256" height="162" filterUnits="userSpaceOnUse" color-interpolation-filters="sRGB">
<feFlood flood-opacity="0" result="BackgroundImageFix"/>
<feBlend mode="normal" in="SourceGraphic" in2="BackgroundImageFix" result="shape"/>
<feGaussianBlur stdDeviation="19.5" result="effect1_foregroundBlur_204_501"/>
</filter>
<filter id="filter1_d_204_501" x="147" y="-24" width="152" height="152" filterUnits="userSpaceOnUse" color-interpolation-filters="sRGB">
<feFlood flood-opacity="0" result="BackgroundImageFix"/>
<feColorMatrix in="SourceAlpha" type="matrix" values="0 0 0 0 0 0 0 0 0 0 0 0 0 0 0 0 0 0 127 0" result="hardAlpha"/>
<feOffset dx="2" dy="1"/>
<feGaussianBlur stdDeviation="12.5"/>
<feColorMatrix type="matrix" values="0 0 0 0 0 0 0 0 0 0 0 0 0 0 0 0 0 0 0.33 0"/>
<feBlend mode="normal" in2="BackgroundImageFix" result="effect1_dropShadow_204_501"/>
<feBlend mode="normal" in="SourceGraphic" in2="effect1_dropShadow_204_501" result="shape"/>
</filter>
<filter id="filter2_f_204_501" x="9" y="110" width="256" height="162" filterUnits="userSpaceOnUse" color-interpolation-filters="sRGB">
<feFlood flood-opacity="0" result="BackgroundImageFix"/>
<feBlend mode="normal" in="SourceGraphic" in2="BackgroundImageFix" result="shape"/>
<feGaussianBlur stdDeviation="19.5" result="effect1_foregroundBlur_204_501"/>
</filter>
<filter id="filter3_d_204_501" x="147" y="-24" width="152" height="152" filterUnits="userSpaceOnUse" color-interpolation-filters="sRGB">
<feFlood flood-opacity="0" result="BackgroundImageFix"/>
<feColorMatrix in="SourceAlpha" type="matrix" values="0 0 0 0 0 0 0 0 0 0 0 0 0 0 0 0 0 0 127 0" result="hardAlpha"/>
<feOffset dx="2" dy="1"/>
<feGaussianBlur stdDeviation="12.5"/>
<feColorMatrix type="matrix" values="0 0 0 0 0 0 0 0 0 0 0 0 0 0 0 0 0 0 0.33 0"/>
<feBlend mode="normal" in2="BackgroundImageFix" result="effect1_dropShadow_204_501"/>
<feBlend mode="normal" in="SourceGraphic" in2="effect1_dropShadow_204_501" result="shape"/>
</filter>
<linearGradient id="paint0_linear_204_501" x1="136" y1="0" x2="136" y2="308" gradientUnits="userSpaceOnUse">
<stop stop-color="#FF7979"/>
<stop offset="1" stop-color="#E85555"/>
</linearGradient>
<linearGradient id="paint1_linear_204_501" x1="136" y1="0" x2="136" y2="308" gradientUnits="userSpaceOnUse">
<stop stop-color="#FFA216"/>
<stop offset="1" stop-color="#EF8100"/>
</linearGradient>
<linearGradient id="paint2_linear_204_501" x1="221" y1="0" x2="221" y2="102" gradientUnits="userSpaceOnUse">
<stop stop-color="#FF7A1B"/>
<stop offset="1" stop-color="#E86100"/>
</linearGradient>
<linearGradient id="paint3_linear_204_501" x1="136" y1="0" x2="136" y2="308" gradientUnits="userSpaceOnUse">
<stop stop-color="#FF7979"/>
<stop offset="1" stop-color="#E85555"/>
</linearGradient>
<linearGradient id="paint4_linear_204_501" x1="136" y1="0" x2="136" y2="308" gradientUnits="userSpaceOnUse">
<stop stop-color="#FFA216"/>
<stop offset="1" stop-color="#EF8100"/>
</linearGradient>
<linearGradient id="paint5_linear_204_501" x1="221" y1="0" x2="221" y2="102" gradientUnits="userSpaceOnUse">
<stop stop-color="#FF7A1B"/>
<stop offset="1" stop-color="#E86100"/>
</linearGradient>
</defs>
</svg>
