<svg width="272" height="308" viewBox="0 0 272 308" fill="none" xmlns="http://www.w3.org/2000/svg">
<mask id="mask0_204_514" style="mask-type:alpha" maskUnits="userSpaceOnUse" x="0" y="0" width="272" height="308">
<path d="M250 308H22C9.84974 308 0 298.15 0 286V22C0 9.84974 9.84974 0 22 0H170L272 102V286C272 298.15 262.15 308 250 308Z" fill="url(#paint0_linear_204_514)"/>
</mask>
<g mask="url(#mask0_204_514)">
<path d="M250 308H22C9.84974 308 0 298.15 0 286V22C0 9.84974 9.84974 0 22 0H170L272 102V286C272 298.15 262.15 308 250 308Z" fill="url(#paint1_linear_204_514)"/>
<g opacity="0.26" filter="url(#filter0_f_204_514)">
<rect x="48" y="149" width="178" height="84" fill="#E66000" style="mix-blend-mode:darken"/>
</g>
<path d="M100.506 217.395C99.4523 217.395 98.5833 217.053 97.8986 216.368C97.2666 215.683 96.9506 214.841 96.9506 213.84C96.9506 213.419 97.0823 212.892 97.3456 212.26L117.491 164.702C117.912 163.754 118.491 162.99 119.229 162.411C120.019 161.779 120.967 161.463 122.073 161.463H122.863C123.969 161.463 124.89 161.779 125.628 162.411C126.418 162.99 127.023 163.754 127.445 164.702L147.59 212.26C147.853 212.892 147.985 213.419 147.985 213.84C147.985 214.841 147.642 215.683 146.958 216.368C146.326 217.053 145.483 217.395 144.43 217.395C143.692 217.395 143.008 217.211 142.376 216.842C141.796 216.421 141.349 215.868 141.033 215.183L135.898 202.859H109.038L103.903 215.183C103.587 215.868 103.113 216.421 102.481 216.842C101.901 217.211 101.243 217.395 100.506 217.395ZM111.803 196.302H133.133L122.468 170.627L111.803 196.302ZM168.69 217.395C167.689 217.395 166.847 217.053 166.162 216.368C165.477 215.683 165.135 214.841 165.135 213.84V165.097C165.135 164.096 165.477 163.254 166.162 162.569C166.847 161.832 167.689 161.463 168.69 161.463C169.691 161.463 170.533 161.832 171.218 162.569C171.955 163.254 172.324 164.096 172.324 165.097V213.84C172.324 214.841 171.955 215.683 171.218 216.368C170.533 217.053 169.691 217.395 168.69 217.395Z" fill="white"/>
<path d="M97.8986 216.368L96.429 217.725L96.4561 217.754L96.4844 217.782L97.8986 216.368ZM97.3456 212.26L95.504 211.48L95.4995 211.491L97.3456 212.26ZM117.491 164.702L115.663 163.89L115.656 163.906L115.649 163.922L117.491 164.702ZM119.229 162.411L120.464 163.984L120.471 163.978L120.478 163.973L119.229 162.411ZM125.628 162.411L124.326 163.93L124.384 163.979L124.445 164.024L125.628 162.411ZM127.445 164.702L129.286 163.922L129.279 163.906L129.272 163.89L127.445 164.702ZM147.59 212.26L149.436 211.491L149.431 211.48L147.59 212.26ZM146.958 216.368L145.543 214.954L145.515 214.982L145.488 215.011L146.958 216.368ZM142.376 216.842L141.199 218.459L141.281 218.519L141.368 218.57L142.376 216.842ZM141.033 215.183L139.186 215.952L139.201 215.987L139.217 216.021L141.033 215.183ZM135.898 202.859L137.744 202.09L137.231 200.859H135.898V202.859ZM109.038 202.859V200.859H107.704L107.191 202.09L109.038 202.859ZM103.903 215.183L105.719 216.021L105.734 215.987L105.749 215.952L103.903 215.183ZM102.481 216.842L103.554 218.529L103.572 218.518L103.59 218.506L102.481 216.842ZM111.803 196.302L109.956 195.535L108.806 198.302H111.803V196.302ZM133.133 196.302V198.302H136.129L134.98 195.535L133.133 196.302ZM122.468 170.627L124.315 169.86L122.468 165.413L120.621 169.86L122.468 170.627ZM100.506 215.395C99.9314 215.395 99.5876 215.229 99.3128 214.954L96.4844 217.782C97.579 218.877 98.9732 219.395 100.506 219.395V215.395ZM99.3682 215.011C99.1038 214.725 98.9506 214.379 98.9506 213.84H94.9506C94.9506 215.303 95.4294 216.642 96.429 217.725L99.3682 215.011ZM98.9506 213.84C98.9506 213.797 98.9743 213.551 99.1918 213.029L95.4995 211.491C95.1903 212.233 94.9506 213.041 94.9506 213.84H98.9506ZM99.1872 213.04L119.332 165.482L115.649 163.922L95.504 211.48L99.1872 213.04ZM119.318 165.514C119.622 164.832 120.01 164.341 120.464 163.984L117.993 160.838C116.973 161.64 116.202 162.676 115.663 163.89L119.318 165.514ZM120.478 163.973C120.88 163.651 121.376 163.463 122.073 163.463V159.463C120.558 159.463 119.158 159.907 117.979 160.849L120.478 163.973ZM122.073 163.463H122.863V159.463H122.073V163.463ZM122.863 163.463C123.562 163.463 124.001 163.651 124.326 163.93L126.929 160.892C125.779 159.907 124.376 159.463 122.863 159.463V163.463ZM124.445 164.024C124.937 164.385 125.329 164.865 125.617 165.514L129.272 163.89C128.718 162.643 127.898 161.596 126.81 160.798L124.445 164.024ZM125.603 165.482L145.748 213.04L149.431 211.48L129.286 163.922L125.603 165.482ZM145.743 213.029C145.961 213.551 145.985 213.797 145.985 213.84H149.985C149.985 213.041 149.745 212.233 149.436 211.491L145.743 213.029ZM145.985 213.84C145.985 214.33 145.839 214.658 145.543 214.954L148.372 217.782C149.445 216.709 149.985 215.351 149.985 213.84H145.985ZM145.488 215.011C145.286 215.23 145.005 215.395 144.43 215.395V219.395C145.961 219.395 147.365 218.875 148.427 217.725L145.488 215.011ZM144.43 215.395C144.044 215.395 143.707 215.303 143.383 215.114L141.368 218.57C142.308 219.118 143.341 219.395 144.43 219.395V215.395ZM143.552 215.225C143.264 215.015 143.029 214.736 142.849 214.345L139.217 216.021C139.668 216.999 140.329 217.827 141.199 218.459L143.552 215.225ZM142.879 214.414L137.744 202.09L134.051 203.628L139.186 215.952L142.879 214.414ZM135.898 200.859H109.038V204.859H135.898V200.859ZM107.191 202.09L102.056 214.414L105.749 215.952L110.884 203.628L107.191 202.09ZM102.087 214.345C101.927 214.692 101.698 214.96 101.371 215.178L103.59 218.506C104.527 217.882 105.247 217.044 105.719 216.021L102.087 214.345ZM101.407 215.155C101.172 215.304 100.892 215.395 100.506 215.395V219.395C101.594 219.395 102.63 219.117 103.554 218.529L101.407 215.155ZM111.803 198.302H133.133V194.302H111.803V198.302ZM134.98 195.535L124.315 169.86L120.621 171.394L131.286 197.069L134.98 195.535ZM120.621 169.86L109.956 195.535L113.65 197.069L124.315 171.394L120.621 169.86ZM166.162 216.368L167.576 214.954L166.162 216.368ZM166.162 162.569L167.576 163.983L167.602 163.957L167.628 163.93L166.162 162.569ZM171.218 162.569L169.752 163.93L169.803 163.984L169.857 164.035L171.218 162.569ZM171.218 216.368L169.857 214.902L169.83 214.928L169.804 214.954L171.218 216.368ZM168.69 215.395C168.2 215.395 167.872 215.25 167.576 214.954L164.748 217.782C165.821 218.856 167.179 219.395 168.69 219.395V215.395ZM167.576 214.954C167.28 214.658 167.135 214.33 167.135 213.84H163.135C163.135 215.351 163.674 216.709 164.748 217.782L167.576 214.954ZM167.135 213.84V165.097H163.135V213.84H167.135ZM167.135 165.097C167.135 164.607 167.28 164.279 167.576 163.983L164.748 161.155C163.674 162.228 163.135 163.586 163.135 165.097H167.135ZM167.628 163.93C167.936 163.598 168.249 163.463 168.69 163.463V159.463C167.13 159.463 165.757 160.066 164.696 161.208L167.628 163.93ZM168.69 163.463C169.131 163.463 169.444 163.598 169.752 163.93L172.684 161.208C171.623 160.066 170.25 159.463 168.69 159.463V163.463ZM169.857 164.035C170.189 164.343 170.324 164.656 170.324 165.097H174.324C174.324 163.537 173.721 162.164 172.579 161.103L169.857 164.035ZM170.324 165.097V213.84H174.324V165.097H170.324ZM170.324 213.84C170.324 214.281 170.189 214.594 169.857 214.902L172.579 217.834C173.721 216.773 174.324 215.4 174.324 213.84H170.324ZM169.804 214.954C169.508 215.25 169.18 215.395 168.69 215.395V219.395C170.201 219.395 171.559 218.856 172.632 217.782L169.804 214.954Z" fill="white"/>
<g filter="url(#filter1_d_204_514)">
<path d="M272 102H192C179.85 102 170 92.1503 170 80V0L272 102Z" fill="url(#paint2_linear_204_514)"/>
</g>
</g>
<mask id="mask1_204_514" style="mask-type:alpha" maskUnits="userSpaceOnUse" x="0" y="0" width="272" height="308">
<path d="M250 308H22C9.84974 308 0 298.15 0 286V22C0 9.84974 9.84974 0 22 0H170L272 102V286C272 298.15 262.15 308 250 308Z" fill="url(#paint3_linear_204_514)"/>
</mask>
<g mask="url(#mask1_204_514)">
<path d="M250 308H22C9.84974 308 0 298.15 0 286V22C0 9.84974 9.84974 0 22 0H170L272 102V286C272 298.15 262.15 308 250 308Z" fill="url(#paint4_linear_204_514)"/>
<g opacity="0.26" filter="url(#filter2_f_204_514)">
<rect x="48" y="149" width="178" height="84" fill="#E66000" style="mix-blend-mode:darken"/>
</g>
<path d="M79.7355 202C78.9502 202 78.2888 201.731 77.7515 201.194C77.2142 200.657 76.9455 199.995 76.9455 199.21V161.576C76.9455 160.791 77.2142 160.129 77.7515 159.592C78.2888 159.013 78.9502 158.724 79.7355 158.724H94.3675C98.7902 158.724 102.2 159.737 104.597 161.762C107.036 163.787 108.255 166.515 108.255 169.946C108.255 172.343 107.677 174.348 106.519 175.96C105.403 177.531 103.957 178.709 102.179 179.494C104.659 180.279 106.685 181.54 108.255 183.276C109.867 185.012 110.673 187.203 110.673 189.848C110.673 193.651 109.392 196.627 106.829 198.776C104.267 200.925 100.237 202 94.7395 202H79.7355ZM92.8795 177.448C96.5582 177.448 99.1415 176.828 100.629 175.588C102.117 174.348 102.861 172.612 102.861 170.38C102.861 168.437 102.055 166.887 100.443 165.73C98.8728 164.573 96.7028 163.994 93.9335 163.994H82.5875V177.448H92.8795ZM94.1815 196.73C98.1908 196.73 101.022 196.11 102.675 194.87C104.37 193.63 105.217 191.873 105.217 189.6C105.217 184.888 101.559 182.532 94.2435 182.532H82.5875V196.73H94.1815ZM124.77 202C123.778 202 122.93 201.649 122.228 200.946C121.525 200.243 121.174 199.396 121.174 198.404C121.174 197.495 121.422 196.73 121.918 196.11L147.834 164.118H123.964C123.22 164.118 122.579 163.87 122.042 163.374C121.546 162.837 121.298 162.196 121.298 161.452C121.298 160.708 121.546 160.067 122.042 159.53C122.579 158.993 123.22 158.724 123.964 158.724H150.872C152.029 158.724 152.938 159.096 153.6 159.84C154.302 160.584 154.654 161.493 154.654 162.568C154.654 162.981 154.55 163.415 154.344 163.87C154.178 164.325 153.951 164.717 153.662 165.048L128.056 196.73H152.36C153.104 196.73 153.724 196.999 154.22 197.536C154.757 198.032 155.026 198.652 155.026 199.396C155.026 200.14 154.757 200.76 154.22 201.256C153.724 201.752 153.104 202 152.36 202H124.77ZM169.453 202C168.502 202 167.717 201.711 167.097 201.132C166.477 200.512 166.167 199.727 166.167 198.776C166.167 196.627 166.787 194.643 168.027 192.824C169.308 191.005 170.838 189.414 172.615 188.05C174.434 186.645 176.81 184.991 179.745 183.09C182.266 181.478 184.271 180.114 185.759 178.998C187.247 177.882 188.487 176.663 189.479 175.34C190.471 174.017 190.967 172.612 190.967 171.124C190.967 168.768 190.182 166.908 188.611 165.544C187.082 164.139 184.602 163.436 181.171 163.436C177.451 163.436 173.917 164.18 170.569 165.668C170.156 165.875 169.763 165.978 169.391 165.978C168.73 165.978 168.172 165.751 167.717 165.296C167.262 164.841 167.035 164.263 167.035 163.56C167.035 162.527 167.49 161.762 168.399 161.266C172.615 159.158 177.203 158.104 182.163 158.104C184.808 158.104 187.206 158.641 189.355 159.716C191.546 160.749 193.261 162.217 194.501 164.118C195.782 166.019 196.423 168.21 196.423 170.69C196.423 173.129 195.7 175.402 194.253 177.51C192.848 179.577 191.153 181.395 189.169 182.966C187.185 184.537 184.602 186.355 181.419 188.422C178.526 190.365 176.335 191.935 174.847 193.134C173.4 194.291 172.388 195.49 171.809 196.73H193.385C194.129 196.73 194.749 196.999 195.245 197.536C195.782 198.032 196.051 198.652 196.051 199.396C196.051 200.14 195.782 200.76 195.245 201.256C194.749 201.752 194.129 202 193.385 202H169.453Z" fill="white"/>
<path d="M77.7515 201.194L79.1657 199.78L77.7515 201.194ZM77.7515 159.592L79.1657 161.006L79.1919 160.98L79.2171 160.953L77.7515 159.592ZM104.597 161.762L103.307 163.29L103.313 163.295L103.32 163.301L104.597 161.762ZM106.519 175.96L104.895 174.794L104.889 174.802L106.519 175.96ZM102.179 179.494L101.371 177.665L96.5311 179.803L101.576 181.401L102.179 179.494ZM108.255 183.276L106.772 184.618L106.781 184.627L106.79 184.637L108.255 183.276ZM106.829 198.776L108.115 200.308L106.829 198.776ZM100.629 175.588L99.3491 174.052L100.629 175.588ZM100.443 165.73L99.2571 167.34L99.267 167.347L99.2771 167.355L100.443 165.73ZM82.5875 163.994V161.994H80.5875V163.994H82.5875ZM82.5875 177.448H80.5875V179.448H82.5875V177.448ZM102.675 194.87L101.494 193.256L101.485 193.263L101.475 193.27L102.675 194.87ZM82.5875 182.532V180.532H80.5875V182.532H82.5875ZM82.5875 196.73H80.5875V198.73H82.5875V196.73ZM79.7355 200C79.4608 200 79.3142 199.928 79.1657 199.78L76.3373 202.608C77.2635 203.534 78.4396 204 79.7355 204V200ZM79.1657 199.78C79.0172 199.631 78.9455 199.485 78.9455 199.21H74.9455C74.9455 200.506 75.4111 201.682 76.3373 202.608L79.1657 199.78ZM78.9455 199.21V161.576H74.9455V199.21H78.9455ZM78.9455 161.576C78.9455 161.301 79.0172 161.155 79.1657 161.006L76.3373 158.178C75.4111 159.104 74.9455 160.28 74.9455 161.576H78.9455ZM79.2171 160.953C79.3784 160.779 79.5098 160.724 79.7355 160.724V156.724C78.3905 156.724 77.1993 157.247 76.2859 158.231L79.2171 160.953ZM79.7355 160.724H94.3675V156.724H79.7355V160.724ZM94.3675 160.724C98.5087 160.724 101.394 161.673 103.307 163.29L105.888 160.234C103.007 157.8 99.0716 156.724 94.3675 156.724V160.724ZM103.32 163.301C105.26 164.912 106.255 167.054 106.255 169.946H110.255C110.255 165.976 108.813 162.663 105.875 160.223L103.32 163.301ZM106.255 169.946C106.255 172.014 105.761 173.587 104.895 174.794L108.144 177.126C109.593 175.109 110.255 172.673 110.255 169.946H106.255ZM104.889 174.802C103.984 176.076 102.822 177.024 101.371 177.665L102.988 181.323C105.092 180.394 106.823 178.985 108.15 177.118L104.889 174.802ZM101.576 181.401C103.756 182.091 105.465 183.173 106.772 184.618L109.739 181.934C107.904 179.907 105.563 178.467 102.783 177.587L101.576 181.401ZM106.79 184.637C108.017 185.959 108.673 187.644 108.673 189.848H112.673C112.673 186.762 111.718 184.065 109.721 181.915L106.79 184.637ZM108.673 189.848C108.673 193.15 107.589 195.529 105.544 197.244L108.115 200.308C111.196 197.724 112.673 194.151 112.673 189.848H108.673ZM105.544 197.244C103.51 198.95 100.048 200 94.7395 200V204C100.426 204 105.023 202.901 108.115 200.308L105.544 197.244ZM94.7395 200H79.7355V204H94.7395V200ZM92.8795 179.448C96.6606 179.448 99.8569 178.835 101.91 177.124L99.3491 174.052C98.4261 174.821 96.4557 175.448 92.8795 175.448V179.448ZM101.91 177.124C103.926 175.444 104.861 173.105 104.861 170.38H100.861C100.861 172.119 100.309 173.252 99.3491 174.052L101.91 177.124ZM104.861 170.38C104.861 167.777 103.732 165.629 101.61 164.105L99.2771 167.355C100.379 168.146 100.861 169.098 100.861 170.38H104.861ZM101.63 164.12C99.5981 162.623 96.9563 161.994 93.9335 161.994V165.994C96.4494 165.994 98.1475 166.523 99.2571 167.34L101.63 164.12ZM93.9335 161.994H82.5875V165.994H93.9335V161.994ZM80.5875 163.994V177.448H84.5875V163.994H80.5875ZM82.5875 179.448H92.8795V175.448H82.5875V179.448ZM94.1815 198.73C98.2782 198.73 101.676 198.12 103.875 196.47L101.475 193.27C100.369 194.1 98.1035 194.73 94.1815 194.73V198.73ZM103.857 196.484C106.114 194.833 107.217 192.45 107.217 189.6H103.217C103.217 191.297 102.627 192.427 101.494 193.256L103.857 196.484ZM107.217 189.6C107.217 186.631 106.012 184.199 103.557 182.618C101.253 181.134 98.0521 180.532 94.2435 180.532V184.532C97.7509 184.532 100.037 185.108 101.391 185.98C102.594 186.755 103.217 187.857 103.217 189.6H107.217ZM94.2435 180.532H82.5875V184.532H94.2435V180.532ZM80.5875 182.532V196.73H84.5875V182.532H80.5875ZM82.5875 198.73H94.1815V194.73H82.5875V198.73ZM122.228 200.946L123.642 199.532L122.228 200.946ZM121.918 196.11L120.364 194.851L120.356 194.861L121.918 196.11ZM147.834 164.118L149.388 165.377L152.028 162.118H147.834V164.118ZM122.042 163.374L120.572 164.731L120.626 164.789L120.685 164.844L122.042 163.374ZM122.042 159.53L120.628 158.116L120.599 158.144L120.572 158.173L122.042 159.53ZM153.6 159.84L152.105 161.169L152.125 161.191L152.146 161.213L153.6 159.84ZM154.344 163.87L152.523 163.042L152.491 163.113L152.464 163.187L154.344 163.87ZM153.662 165.048L152.157 163.731L152.131 163.76L152.106 163.791L153.662 165.048ZM128.056 196.73L126.5 195.473L123.868 198.73H128.056V196.73ZM154.22 197.536L152.75 198.893L152.804 198.951L152.863 199.006L154.22 197.536ZM154.22 201.256L152.863 199.786L152.834 199.814L152.806 199.842L154.22 201.256ZM124.77 200C124.309 200 123.97 199.86 123.642 199.532L120.814 202.36C121.891 203.437 123.246 204 124.77 204V200ZM123.642 199.532C123.314 199.203 123.174 198.865 123.174 198.404H119.174C119.174 199.927 119.737 201.283 120.814 202.36L123.642 199.532ZM123.174 198.404C123.174 197.879 123.308 197.574 123.479 197.359L120.356 194.861C119.536 195.886 119.174 197.11 119.174 198.404H123.174ZM123.472 197.369L149.388 165.377L146.28 162.859L120.364 194.851L123.472 197.369ZM147.834 162.118H123.964V166.118H147.834V162.118ZM123.964 162.118C123.713 162.118 123.559 162.053 123.398 161.904L120.685 164.844C121.599 165.687 122.727 166.118 123.964 166.118V162.118ZM123.511 162.017C123.363 161.857 123.298 161.703 123.298 161.452H119.298C119.298 162.689 119.729 163.817 120.572 164.731L123.511 162.017ZM123.298 161.452C123.298 161.201 123.363 161.047 123.511 160.887L120.572 158.173C119.729 159.087 119.298 160.215 119.298 161.452H123.298ZM123.456 160.944C123.627 160.773 123.763 160.724 123.964 160.724V156.724C122.677 156.724 121.531 157.212 120.628 158.116L123.456 160.944ZM123.964 160.724H150.872V156.724H123.964V160.724ZM150.872 160.724C151.56 160.724 151.886 160.923 152.105 161.169L155.095 158.511C153.991 157.269 152.498 156.724 150.872 156.724V160.724ZM152.146 161.213C152.479 161.566 152.654 161.976 152.654 162.568H156.654C156.654 161.011 156.126 159.602 155.054 158.467L152.146 161.213ZM152.654 162.568C152.654 162.643 152.636 162.795 152.523 163.042L156.165 164.698C156.465 164.036 156.654 163.32 156.654 162.568H152.654ZM152.464 163.187C152.375 163.432 152.267 163.604 152.157 163.731L155.167 166.365C155.635 165.83 155.982 165.217 156.223 164.553L152.464 163.187ZM152.106 163.791L126.5 195.473L129.611 197.987L155.217 166.305L152.106 163.791ZM128.056 198.73H152.36V194.73H128.056V198.73ZM152.36 198.73C152.557 198.73 152.64 198.773 152.75 198.893L155.689 196.179C154.807 195.224 153.651 194.73 152.36 194.73V198.73ZM152.863 199.006C152.982 199.116 153.026 199.199 153.026 199.396H157.026C157.026 198.105 156.532 196.948 155.576 196.066L152.863 199.006ZM153.026 199.396C153.026 199.593 152.982 199.676 152.863 199.786L155.576 202.726C156.532 201.844 157.026 200.687 157.026 199.396H153.026ZM152.806 199.842C152.709 199.938 152.609 200 152.36 200V204C153.598 204 154.738 203.566 155.634 202.67L152.806 199.842ZM152.36 200H124.77V204H152.36V200ZM167.097 201.132L165.683 202.546L165.707 202.571L165.732 202.594L167.097 201.132ZM168.027 192.824L166.392 191.672L166.383 191.685L166.374 191.697L168.027 192.824ZM172.615 188.05L173.833 189.637L173.838 189.633L172.615 188.05ZM179.745 183.09L178.668 181.405L178.657 181.411L179.745 183.09ZM185.759 178.998L184.559 177.398L185.759 178.998ZM189.479 175.34L187.879 174.14L189.479 175.34ZM188.611 165.544L187.258 167.017L187.278 167.036L187.299 167.054L188.611 165.544ZM170.569 165.668L169.757 163.84L169.715 163.859L169.674 163.879L170.569 165.668ZM167.717 165.296L166.303 166.71V166.71L167.717 165.296ZM168.399 161.266L167.504 159.477L167.473 159.493L167.441 159.51L168.399 161.266ZM189.355 159.716L188.46 161.505L188.481 161.515L188.502 161.525L189.355 159.716ZM194.501 164.118L192.826 165.211L192.834 165.223L192.842 165.236L194.501 164.118ZM194.253 177.51L192.604 176.378L192.599 176.385L194.253 177.51ZM189.169 182.966L190.41 184.534L189.169 182.966ZM181.419 188.422L180.33 186.745L180.317 186.753L180.304 186.762L181.419 188.422ZM174.847 193.134L176.096 194.696L176.102 194.692L174.847 193.134ZM171.809 196.73L169.997 195.884L168.668 198.73H171.809V196.73ZM195.245 197.536L193.775 198.893L193.83 198.951L193.888 199.006L195.245 197.536ZM195.245 201.256L193.888 199.786L193.859 199.814L193.831 199.842L195.245 201.256ZM169.453 200C168.943 200 168.665 199.86 168.462 199.67L165.732 202.594C166.768 203.561 168.062 204 169.453 204V200ZM168.511 199.718C168.3 199.506 168.167 199.246 168.167 198.776H164.167C164.167 200.208 164.654 201.518 165.683 202.546L168.511 199.718ZM168.167 198.776C168.167 197.039 168.66 195.446 169.679 193.951L166.374 191.697C164.914 193.84 164.167 196.215 164.167 198.776H168.167ZM169.662 193.976C170.826 192.324 172.214 190.879 173.833 189.637L171.397 186.463C169.461 187.949 167.79 189.687 166.392 191.672L169.662 193.976ZM173.838 189.633C175.596 188.274 177.923 186.653 180.832 184.769L178.657 181.411C175.697 183.329 173.271 185.016 171.392 186.467L173.838 189.633ZM180.822 184.775C183.364 183.15 185.415 181.756 186.959 180.598L184.559 177.398C183.127 178.472 181.169 179.806 178.668 181.405L180.822 184.775ZM186.959 180.598C188.58 179.382 189.96 178.032 191.079 176.54L187.879 174.14C187.014 175.293 185.914 176.382 184.559 177.398L186.959 180.598ZM191.079 176.54C192.3 174.912 192.967 173.093 192.967 171.124H188.967C188.967 172.131 188.642 173.123 187.879 174.14L191.079 176.54ZM192.967 171.124C192.967 168.274 191.991 165.831 189.922 164.034L187.299 167.054C188.372 167.985 188.967 169.262 188.967 171.124H192.967ZM189.964 164.071C187.889 162.165 184.796 161.436 181.171 161.436V165.436C184.407 165.436 186.274 166.112 187.258 167.017L189.964 164.071ZM181.171 161.436C177.175 161.436 173.364 162.237 169.757 163.84L171.381 167.496C174.469 166.123 177.726 165.436 181.171 165.436V161.436ZM169.674 163.879C169.574 163.929 169.502 163.954 169.455 163.966C169.432 163.972 169.416 163.975 169.406 163.977C169.396 163.978 169.391 163.978 169.391 163.978V167.978C170.139 167.978 170.838 167.769 171.463 167.457L169.674 163.879ZM169.391 163.978C169.294 163.978 169.248 163.962 169.231 163.955C169.215 163.949 169.183 163.933 169.131 163.882L166.303 166.71C167.144 167.552 168.216 167.978 169.391 167.978V163.978ZM169.131 163.882C169.088 163.839 169.035 163.786 169.035 163.56H165.035C165.035 164.739 165.436 165.844 166.303 166.71L169.131 163.882ZM169.035 163.56C169.035 163.344 169.079 163.26 169.095 163.234C169.111 163.207 169.164 163.127 169.357 163.022L167.441 159.51C166.724 159.901 166.096 160.451 165.657 161.189C165.218 161.928 165.035 162.742 165.035 163.56H169.035ZM169.293 163.055C173.217 161.093 177.497 160.104 182.163 160.104V156.104C176.909 156.104 172.013 157.223 167.504 159.477L169.293 163.055ZM182.163 160.104C184.53 160.104 186.616 160.583 188.46 161.505L190.249 157.927C187.795 156.7 185.087 156.104 182.163 156.104V160.104ZM188.502 161.525C190.381 162.411 191.802 163.64 192.826 165.211L196.176 163.025C194.72 160.793 192.71 159.087 190.208 157.907L188.502 161.525ZM192.842 165.236C193.883 166.78 194.423 168.574 194.423 170.69H198.423C198.423 167.846 197.682 165.259 196.159 163L192.842 165.236ZM194.423 170.69C194.423 172.704 193.834 174.586 192.604 176.378L195.902 178.642C197.565 176.218 198.423 173.553 198.423 170.69H194.423ZM192.599 176.385C191.309 178.282 189.754 179.952 187.927 181.398L190.41 184.534C192.551 182.839 194.386 180.871 195.907 178.635L192.599 176.385ZM187.927 181.398C186.01 182.916 183.483 184.697 180.33 186.745L182.508 190.099C185.72 188.014 188.36 186.158 190.41 184.534L187.927 181.398ZM180.304 186.762C177.395 188.715 175.148 190.323 173.592 191.576L176.102 194.692C177.522 193.547 179.656 192.014 182.534 190.082L180.304 186.762ZM173.597 191.572C171.991 192.857 170.743 194.285 169.997 195.884L173.621 197.576C174.032 196.695 174.809 195.726 176.096 194.696L173.597 191.572ZM171.809 198.73H193.385V194.73H171.809V198.73ZM193.385 198.73C193.582 198.73 193.665 198.773 193.775 198.893L196.714 196.179C195.832 195.224 194.676 194.73 193.385 194.73V198.73ZM193.888 199.006C194.007 199.116 194.051 199.199 194.051 199.396H198.051C198.051 198.105 197.557 196.948 196.601 196.066L193.888 199.006ZM194.051 199.396C194.051 199.593 194.007 199.676 193.888 199.786L196.601 202.726C197.557 201.844 198.051 200.687 198.051 199.396H194.051ZM193.831 199.842C193.734 199.938 193.634 200 193.385 200V204C194.624 204 195.763 203.566 196.659 202.67L193.831 199.842ZM193.385 200H169.453V204H193.385V200Z" fill="white"/>
<g filter="url(#filter3_d_204_514)">
<path d="M272 102H192C179.85 102 170 92.1503 170 80V0L272 102Z" fill="url(#paint5_linear_204_514)"/>
</g>
</g>
<defs>
<filter id="filter0_f_204_514" x="9" y="110" width="256" height="162" filterUnits="userSpaceOnUse" color-interpolation-filters="sRGB">
<feFlood flood-opacity="0" result="BackgroundImageFix"/>
<feBlend mode="normal" in="SourceGraphic" in2="BackgroundImageFix" result="shape"/>
<feGaussianBlur stdDeviation="19.5" result="effect1_foregroundBlur_204_514"/>
</filter>
<filter id="filter1_d_204_514" x="147" y="-24" width="152" height="152" filterUnits="userSpaceOnUse" color-interpolation-filters="sRGB">
<feFlood flood-opacity="0" result="BackgroundImageFix"/>
<feColorMatrix in="SourceAlpha" type="matrix" values="0 0 0 0 0 0 0 0 0 0 0 0 0 0 0 0 0 0 127 0" result="hardAlpha"/>
<feOffset dx="2" dy="1"/>
<feGaussianBlur stdDeviation="12.5"/>
<feColorMatrix type="matrix" values="0 0 0 0 0 0 0 0 0 0 0 0 0 0 0 0 0 0 0.33 0"/>
<feBlend mode="normal" in2="BackgroundImageFix" result="effect1_dropShadow_204_514"/>
<feBlend mode="normal" in="SourceGraphic" in2="effect1_dropShadow_204_514" result="shape"/>
</filter>
<filter id="filter2_f_204_514" x="9" y="110" width="256" height="162" filterUnits="userSpaceOnUse" color-interpolation-filters="sRGB">
<feFlood flood-opacity="0" result="BackgroundImageFix"/>
<feBlend mode="normal" in="SourceGraphic" in2="BackgroundImageFix" result="shape"/>
<feGaussianBlur stdDeviation="19.5" result="effect1_foregroundBlur_204_514"/>
</filter>
<filter id="filter3_d_204_514" x="147" y="-24" width="152" height="152" filterUnits="userSpaceOnUse" color-interpolation-filters="sRGB">
<feFlood flood-opacity="0" result="BackgroundImageFix"/>
<feColorMatrix in="SourceAlpha" type="matrix" values="0 0 0 0 0 0 0 0 0 0 0 0 0 0 0 0 0 0 127 0" result="hardAlpha"/>
<feOffset dx="2" dy="1"/>
<feGaussianBlur stdDeviation="12.5"/>
<feColorMatrix type="matrix" values="0 0 0 0 0 0 0 0 0 0 0 0 0 0 0 0 0 0 0.33 0"/>
<feBlend mode="normal" in2="BackgroundImageFix" result="effect1_dropShadow_204_514"/>
<feBlend mode="normal" in="SourceGraphic" in2="effect1_dropShadow_204_514" result="shape"/>
</filter>
<linearGradient id="paint0_linear_204_514" x1="136" y1="0" x2="136" y2="308" gradientUnits="userSpaceOnUse">
<stop stop-color="#FF7979"/>
<stop offset="1" stop-color="#E85555"/>
</linearGradient>
<linearGradient id="paint1_linear_204_514" x1="136" y1="0" x2="136" y2="308" gradientUnits="userSpaceOnUse">
<stop stop-color="#FFA216"/>
<stop offset="1" stop-color="#EF8100"/>
</linearGradient>
<linearGradient id="paint2_linear_204_514" x1="221" y1="0" x2="221" y2="102" gradientUnits="userSpaceOnUse">
<stop stop-color="#FF7A1B"/>
<stop offset="1" stop-color="#E86100"/>
</linearGradient>
<linearGradient id="paint3_linear_204_514" x1="136" y1="0" x2="136" y2="308" gradientUnits="userSpaceOnUse">
<stop stop-color="#FF7979"/>
<stop offset="1" stop-color="#E85555"/>
</linearGradient>
<linearGradient id="paint4_linear_204_514" x1="136" y1="0" x2="136" y2="308" gradientUnits="userSpaceOnUse">
<stop stop-color="#FFA216"/>
<stop offset="1" stop-color="#EF8100"/>
</linearGradient>
<linearGradient id="paint5_linear_204_514" x1="221" y1="0" x2="221" y2="102" gradientUnits="userSpaceOnUse">
<stop stop-color="#FF7A1B"/>
<stop offset="1" stop-color="#E86100"/>
</linearGradient>
</defs>
</svg>
