<svg width="272" height="308" viewBox="0 0 272 308" fill="none" xmlns="http://www.w3.org/2000/svg">
<mask id="mask0_304_69" style="mask-type:alpha" maskUnits="userSpaceOnUse" x="0" y="0" width="272" height="308">
<path d="M250 308H22C9.84974 308 0 298.15 0 286V22C0 9.84974 9.84974 0 22 0H170L272 102V286C272 298.15 262.15 308 250 308Z" fill="url(#paint0_linear_304_69)"/>
</mask>
<g mask="url(#mask0_304_69)">
<path d="M250 308H22C9.84974 308 0 298.15 0 286V22C0 9.84974 9.84974 0 22 0H170L272 102V286C272 298.15 262.15 308 250 308Z" fill="url(#paint1_linear_304_69)"/>
<g opacity="0.23" filter="url(#filter0_f_304_69)">
<rect x="15" y="149" width="244" height="84" fill="#E32E06" style="mix-blend-mode:darken"/>
</g>
<mask id="path-4-outside-1_304_69" maskUnits="userSpaceOnUse" x="39" y="156" width="195" height="49" fill="black">
<rect fill="white" x="39" y="156" width="195" height="49"/>
<path d="M44.2344 202.31C43.4491 202.31 42.7878 202.041 42.2504 201.504C41.7131 200.967 41.4444 200.305 41.4444 199.52V162.506C41.4444 161.39 41.8371 160.439 42.6224 159.654C43.4078 158.827 44.3584 158.414 45.4744 158.414H47.5204C48.3471 158.414 49.0911 158.662 49.7524 159.158C50.4551 159.654 50.9718 160.274 51.3024 161.018L65.3764 196.11L79.4504 161.018C79.7811 160.274 80.2771 159.654 80.9384 159.158C81.6411 158.662 82.4058 158.414 83.2324 158.414H85.2784C86.3944 158.414 87.3451 158.827 88.1304 159.654C88.9158 160.439 89.3084 161.39 89.3084 162.506V199.52C89.3084 200.305 89.0398 200.967 88.5024 201.504C87.9651 202.041 87.3038 202.31 86.5184 202.31C85.7331 202.31 85.0511 202.041 84.4724 201.504C83.9351 200.967 83.6664 200.305 83.6664 199.52V164.304L69.3444 199.706C69.0138 200.491 68.4764 201.132 67.7324 201.628C67.0298 202.083 66.2444 202.31 65.3764 202.31C64.5084 202.31 63.7024 202.083 62.9584 201.628C62.2558 201.132 61.7391 200.491 61.4084 199.706L47.0864 164.304V199.52C47.0864 200.305 46.7971 200.967 46.2184 201.504C45.6811 202.041 45.0198 202.31 44.2344 202.31ZM108.455 202.31C107.67 202.31 107.009 202.041 106.471 201.504C105.934 200.967 105.665 200.305 105.665 199.52V161.576C105.665 160.791 105.934 160.129 106.471 159.592C107.009 159.013 107.67 158.724 108.455 158.724H122.591C126.518 158.724 129.721 159.385 132.201 160.708C134.681 162.031 136.459 163.725 137.533 165.792C138.608 167.859 139.145 170.091 139.145 172.488C139.145 174.885 138.608 177.117 137.533 179.184C136.459 181.251 134.681 182.945 132.201 184.268C129.721 185.591 126.518 186.252 122.591 186.252H111.307V199.52C111.307 200.305 111.018 200.967 110.439 201.504C109.902 202.041 109.241 202.31 108.455 202.31ZM122.033 180.92C126.249 180.92 129.205 180.114 130.899 178.502C132.635 176.89 133.503 174.885 133.503 172.488C133.503 170.091 132.635 168.086 130.899 166.474C129.205 164.862 126.249 164.056 122.033 164.056H111.307V180.92H122.033ZM154.452 202.31C153.666 202.31 153.005 202.041 152.468 201.504C151.93 200.967 151.662 200.305 151.662 199.52V161.266C151.662 160.481 151.93 159.819 152.468 159.282C153.005 158.703 153.666 158.414 154.452 158.414C155.237 158.414 155.898 158.703 156.436 159.282C157.014 159.819 157.304 160.481 157.304 161.266V180.982L178.508 159.406C179.086 158.745 179.789 158.414 180.616 158.414C181.318 158.414 181.918 158.662 182.414 159.158C182.951 159.613 183.22 160.191 183.22 160.894C183.22 161.721 182.992 162.361 182.538 162.816L168.216 177.076L184.646 197.784C185.1 198.363 185.328 198.962 185.328 199.582C185.369 200.326 185.121 200.967 184.584 201.504C184.046 202.041 183.385 202.31 182.6 202.31C181.649 202.31 180.905 201.938 180.368 201.194L164.372 180.796L157.304 187.926V199.52C157.304 200.305 157.014 200.967 156.436 201.504C155.898 202.041 155.237 202.31 154.452 202.31ZM214.818 202.62C210.56 202.62 206.778 201.69 203.472 199.83C200.165 197.929 197.602 195.304 195.784 191.956C193.965 188.567 193.056 184.723 193.056 180.424C193.056 176.043 194.006 172.157 195.908 168.768C197.809 165.379 200.392 162.754 203.658 160.894C206.964 159.034 210.622 158.104 214.632 158.104C217.856 158.104 220.666 158.497 223.064 159.282C225.502 160.067 227.838 161.163 230.07 162.568C230.4 162.733 230.69 163.023 230.938 163.436C231.186 163.849 231.31 164.304 231.31 164.8C231.31 165.503 231.062 166.102 230.566 166.598C230.111 167.094 229.491 167.342 228.706 167.342C228.251 167.342 227.817 167.239 227.404 167.032C225.461 165.875 223.518 165.007 221.576 164.428C219.633 163.849 217.525 163.56 215.252 163.56C212.11 163.56 209.279 164.221 206.758 165.544C204.236 166.867 202.252 168.809 200.806 171.372C199.4 173.893 198.698 176.911 198.698 180.424C198.698 183.648 199.359 186.541 200.682 189.104C202.046 191.625 203.988 193.63 206.51 195.118C209.072 196.565 212.09 197.288 215.562 197.288C219.447 197.288 223.064 196.379 226.412 194.56V183.338H216.182C215.479 183.338 214.88 183.09 214.384 182.594C213.888 182.098 213.64 181.499 213.64 180.796C213.64 180.093 213.888 179.494 214.384 178.998C214.88 178.502 215.479 178.254 216.182 178.254H228.396C229.222 178.254 229.925 178.543 230.504 179.122C231.082 179.701 231.372 180.403 231.372 181.23V195.304C231.372 196.172 231.144 196.957 230.69 197.66C230.276 198.321 229.718 198.817 229.016 199.148C224.386 201.463 219.654 202.62 214.818 202.62Z"/>
</mask>
<path d="M44.2344 202.31C43.4491 202.31 42.7878 202.041 42.2504 201.504C41.7131 200.967 41.4444 200.305 41.4444 199.52V162.506C41.4444 161.39 41.8371 160.439 42.6224 159.654C43.4078 158.827 44.3584 158.414 45.4744 158.414H47.5204C48.3471 158.414 49.0911 158.662 49.7524 159.158C50.4551 159.654 50.9718 160.274 51.3024 161.018L65.3764 196.11L79.4504 161.018C79.7811 160.274 80.2771 159.654 80.9384 159.158C81.6411 158.662 82.4058 158.414 83.2324 158.414H85.2784C86.3944 158.414 87.3451 158.827 88.1304 159.654C88.9158 160.439 89.3084 161.39 89.3084 162.506V199.52C89.3084 200.305 89.0398 200.967 88.5024 201.504C87.9651 202.041 87.3038 202.31 86.5184 202.31C85.7331 202.31 85.0511 202.041 84.4724 201.504C83.9351 200.967 83.6664 200.305 83.6664 199.52V164.304L69.3444 199.706C69.0138 200.491 68.4764 201.132 67.7324 201.628C67.0298 202.083 66.2444 202.31 65.3764 202.31C64.5084 202.31 63.7024 202.083 62.9584 201.628C62.2558 201.132 61.7391 200.491 61.4084 199.706L47.0864 164.304V199.52C47.0864 200.305 46.7971 200.967 46.2184 201.504C45.6811 202.041 45.0198 202.31 44.2344 202.31ZM108.455 202.31C107.67 202.31 107.009 202.041 106.471 201.504C105.934 200.967 105.665 200.305 105.665 199.52V161.576C105.665 160.791 105.934 160.129 106.471 159.592C107.009 159.013 107.67 158.724 108.455 158.724H122.591C126.518 158.724 129.721 159.385 132.201 160.708C134.681 162.031 136.459 163.725 137.533 165.792C138.608 167.859 139.145 170.091 139.145 172.488C139.145 174.885 138.608 177.117 137.533 179.184C136.459 181.251 134.681 182.945 132.201 184.268C129.721 185.591 126.518 186.252 122.591 186.252H111.307V199.52C111.307 200.305 111.018 200.967 110.439 201.504C109.902 202.041 109.241 202.31 108.455 202.31ZM122.033 180.92C126.249 180.92 129.205 180.114 130.899 178.502C132.635 176.89 133.503 174.885 133.503 172.488C133.503 170.091 132.635 168.086 130.899 166.474C129.205 164.862 126.249 164.056 122.033 164.056H111.307V180.92H122.033ZM154.452 202.31C153.666 202.31 153.005 202.041 152.468 201.504C151.93 200.967 151.662 200.305 151.662 199.52V161.266C151.662 160.481 151.93 159.819 152.468 159.282C153.005 158.703 153.666 158.414 154.452 158.414C155.237 158.414 155.898 158.703 156.436 159.282C157.014 159.819 157.304 160.481 157.304 161.266V180.982L178.508 159.406C179.086 158.745 179.789 158.414 180.616 158.414C181.318 158.414 181.918 158.662 182.414 159.158C182.951 159.613 183.22 160.191 183.22 160.894C183.22 161.721 182.992 162.361 182.538 162.816L168.216 177.076L184.646 197.784C185.1 198.363 185.328 198.962 185.328 199.582C185.369 200.326 185.121 200.967 184.584 201.504C184.046 202.041 183.385 202.31 182.6 202.31C181.649 202.31 180.905 201.938 180.368 201.194L164.372 180.796L157.304 187.926V199.52C157.304 200.305 157.014 200.967 156.436 201.504C155.898 202.041 155.237 202.31 154.452 202.31ZM214.818 202.62C210.56 202.62 206.778 201.69 203.472 199.83C200.165 197.929 197.602 195.304 195.784 191.956C193.965 188.567 193.056 184.723 193.056 180.424C193.056 176.043 194.006 172.157 195.908 168.768C197.809 165.379 200.392 162.754 203.658 160.894C206.964 159.034 210.622 158.104 214.632 158.104C217.856 158.104 220.666 158.497 223.064 159.282C225.502 160.067 227.838 161.163 230.07 162.568C230.4 162.733 230.69 163.023 230.938 163.436C231.186 163.849 231.31 164.304 231.31 164.8C231.31 165.503 231.062 166.102 230.566 166.598C230.111 167.094 229.491 167.342 228.706 167.342C228.251 167.342 227.817 167.239 227.404 167.032C225.461 165.875 223.518 165.007 221.576 164.428C219.633 163.849 217.525 163.56 215.252 163.56C212.11 163.56 209.279 164.221 206.758 165.544C204.236 166.867 202.252 168.809 200.806 171.372C199.4 173.893 198.698 176.911 198.698 180.424C198.698 183.648 199.359 186.541 200.682 189.104C202.046 191.625 203.988 193.63 206.51 195.118C209.072 196.565 212.09 197.288 215.562 197.288C219.447 197.288 223.064 196.379 226.412 194.56V183.338H216.182C215.479 183.338 214.88 183.09 214.384 182.594C213.888 182.098 213.64 181.499 213.64 180.796C213.64 180.093 213.888 179.494 214.384 178.998C214.88 178.502 215.479 178.254 216.182 178.254H228.396C229.222 178.254 229.925 178.543 230.504 179.122C231.082 179.701 231.372 180.403 231.372 181.23V195.304C231.372 196.172 231.144 196.957 230.69 197.66C230.276 198.321 229.718 198.817 229.016 199.148C224.386 201.463 219.654 202.62 214.818 202.62Z" fill="white"/>
<path d="M42.2504 201.504L43.6646 200.09L42.2504 201.504ZM42.6224 159.654L44.0366 161.068L44.0548 161.05L44.0724 161.031L42.6224 159.654ZM49.7524 159.158L48.5524 160.758L48.5755 160.775L48.5991 160.792L49.7524 159.158ZM51.3024 161.018L53.1587 160.274L53.145 160.239L53.1301 160.206L51.3024 161.018ZM65.3764 196.11L63.5202 196.854L65.3764 201.483L67.2327 196.854L65.3764 196.11ZM79.4504 161.018L77.6228 160.206L77.6079 160.239L77.5942 160.274L79.4504 161.018ZM80.9384 159.158L79.7851 157.524L79.7615 157.541L79.7384 157.558L80.9384 159.158ZM88.1304 159.654L86.6804 161.031L86.6981 161.05L86.7162 161.068L88.1304 159.654ZM88.5024 201.504L89.9166 202.918L89.9166 202.918L88.5024 201.504ZM84.4724 201.504L83.0582 202.918L83.0844 202.944L83.1115 202.97L84.4724 201.504ZM83.6664 164.304H85.6664L81.8124 163.554L83.6664 164.304ZM69.3444 199.706L71.1877 200.482L71.1932 200.469L71.1985 200.456L69.3444 199.706ZM67.7324 201.628L68.8189 203.307L68.8304 203.3L68.8418 203.292L67.7324 201.628ZM62.9584 201.628L61.8051 203.262L61.8591 203.3L61.9155 203.335L62.9584 201.628ZM61.4084 199.706L59.5544 200.456L59.5597 200.469L59.5652 200.482L61.4084 199.706ZM47.0864 164.304L48.9405 163.554L45.0864 164.304H47.0864ZM46.2184 201.504L44.8575 200.038L44.8304 200.064L44.8042 200.09L46.2184 201.504ZM44.2344 200.31C43.9597 200.31 43.8131 200.238 43.6646 200.09L40.8362 202.918C41.7624 203.844 42.9385 204.31 44.2344 204.31V200.31ZM43.6646 200.09C43.5162 199.941 43.4444 199.795 43.4444 199.52H39.4444C39.4444 200.816 39.91 201.992 40.8362 202.918L43.6646 200.09ZM43.4444 199.52V162.506H39.4444V199.52H43.4444ZM43.4444 162.506C43.4444 161.918 43.6284 161.476 44.0366 161.068L41.2082 158.24C40.0458 159.402 39.4444 160.862 39.4444 162.506H43.4444ZM44.0724 161.031C44.4894 160.593 44.92 160.414 45.4744 160.414V156.414C43.7969 156.414 42.3261 157.062 41.1724 158.276L44.0724 161.031ZM45.4744 160.414H47.5204V156.414H45.4744V160.414ZM47.5204 160.414C47.9144 160.414 48.2373 160.522 48.5524 160.758L50.9524 157.558C49.9449 156.802 48.7798 156.414 47.5204 156.414V160.414ZM48.5991 160.792C49.0243 161.092 49.299 161.435 49.4748 161.83L53.1301 160.206C52.6445 159.113 51.8859 158.216 50.9058 157.524L48.5991 160.792ZM49.4462 161.762L63.5202 196.854L67.2327 195.366L53.1587 160.274L49.4462 161.762ZM67.2327 196.854L81.3067 161.762L77.5942 160.274L63.5202 195.366L67.2327 196.854ZM81.2781 161.83C81.4679 161.403 81.7457 161.053 82.1384 160.758L79.7384 157.558C78.8085 158.255 78.0943 159.145 77.6228 160.206L81.2781 161.83ZM82.0918 160.792C82.4715 160.524 82.8362 160.414 83.2324 160.414V156.414C81.9753 156.414 80.8106 156.8 79.7851 157.524L82.0918 160.792ZM83.2324 160.414H85.2784V156.414H83.2324V160.414ZM85.2784 160.414C85.8329 160.414 86.2634 160.593 86.6804 161.031L89.5804 158.276C88.4268 157.062 86.956 156.414 85.2784 156.414V160.414ZM86.7162 161.068C87.1244 161.476 87.3084 161.918 87.3084 162.506H91.3084C91.3084 160.862 90.7071 159.402 89.5446 158.24L86.7162 161.068ZM87.3084 162.506V199.52H91.3084V162.506H87.3084ZM87.3084 199.52C87.3084 199.795 87.2367 199.941 87.0882 200.09L89.9166 202.918C90.8428 201.992 91.3084 200.816 91.3084 199.52H87.3084ZM87.0882 200.09C86.9398 200.238 86.7932 200.31 86.5184 200.31V204.31C87.8144 204.31 88.9904 203.844 89.9166 202.918L87.0882 200.09ZM86.5184 200.31C86.241 200.31 86.0443 200.234 85.8333 200.038L83.1115 202.97C84.0579 203.848 85.2252 204.31 86.5184 204.31V200.31ZM85.8866 200.09C85.7382 199.941 85.6664 199.795 85.6664 199.52H81.6664C81.6664 200.816 82.132 201.992 83.0582 202.918L85.8866 200.09ZM85.6664 199.52V164.304H81.6664V199.52H85.6664ZM81.8124 163.554L67.4904 198.956L71.1985 200.456L85.5205 165.054L81.8124 163.554ZM67.5012 198.93C67.3305 199.335 67.0576 199.674 66.623 199.964L68.8418 203.292C69.8953 202.59 70.6971 201.647 71.1877 200.482L67.5012 198.93ZM66.6459 199.949C66.2794 200.186 65.874 200.31 65.3764 200.31V204.31C66.6149 204.31 67.7801 203.979 68.8189 203.307L66.6459 199.949ZM65.3764 200.31C64.8782 200.31 64.4328 200.185 64.0013 199.921L61.9155 203.335C62.972 203.98 64.1387 204.31 65.3764 204.31V200.31ZM64.1118 199.994C63.7118 199.712 63.4357 199.367 63.2517 198.93L59.5652 200.482C60.0425 201.616 60.7997 202.552 61.8051 203.262L64.1118 199.994ZM63.2625 198.956L48.9405 163.554L45.2324 165.054L59.5544 200.456L63.2625 198.956ZM45.0864 164.304V199.52H49.0864V164.304H45.0864ZM45.0864 199.52C45.0864 199.746 45.0312 199.877 44.8575 200.038L47.5793 202.97C48.563 202.056 49.0864 200.865 49.0864 199.52H45.0864ZM44.8042 200.09C44.6558 200.238 44.5092 200.31 44.2344 200.31V204.31C45.5304 204.31 46.7064 203.844 47.6326 202.918L44.8042 200.09ZM106.471 201.504L107.885 200.09L106.471 201.504ZM106.471 159.592L107.885 161.006L107.912 160.98L107.937 160.953L106.471 159.592ZM132.201 160.708L133.142 158.943L132.201 160.708ZM137.533 165.792L135.759 166.715L137.533 165.792ZM137.533 179.184L135.759 178.261V178.261L137.533 179.184ZM132.201 184.268L133.142 186.033L132.201 184.268ZM111.307 186.252V184.252H109.307V186.252H111.307ZM110.439 201.504L109.078 200.038L109.051 200.064L109.025 200.09L110.439 201.504ZM130.899 178.502L129.538 177.036L129.53 177.045L129.521 177.053L130.899 178.502ZM130.899 166.474L129.521 167.923L129.53 167.931L129.538 167.94L130.899 166.474ZM111.307 164.056V162.056H109.307V164.056H111.307ZM111.307 180.92H109.307V182.92H111.307V180.92ZM108.455 200.31C108.181 200.31 108.034 200.238 107.885 200.09L105.057 202.918C105.983 203.844 107.159 204.31 108.455 204.31V200.31ZM107.885 200.09C107.737 199.941 107.665 199.795 107.665 199.52H103.665C103.665 200.816 104.131 201.992 105.057 202.918L107.885 200.09ZM107.665 199.52V161.576H103.665V199.52H107.665ZM107.665 161.576C107.665 161.301 107.737 161.155 107.885 161.006L105.057 158.178C104.131 159.104 103.665 160.28 103.665 161.576H107.665ZM107.937 160.953C108.098 160.779 108.23 160.724 108.455 160.724V156.724C107.11 156.724 105.919 157.247 105.006 158.231L107.937 160.953ZM108.455 160.724H122.591V156.724H108.455V160.724ZM122.591 160.724C126.313 160.724 129.162 161.354 131.26 162.473L133.142 158.943C130.281 157.417 126.723 156.724 122.591 156.724V160.724ZM131.26 162.473C133.459 163.645 134.906 165.075 135.759 166.715L139.308 164.869C138.011 162.376 135.904 160.416 133.142 158.943L131.26 162.473ZM135.759 166.715C136.681 168.488 137.145 170.402 137.145 172.488H141.145C141.145 169.779 140.535 167.229 139.308 164.869L135.759 166.715ZM137.145 172.488C137.145 174.574 136.681 176.488 135.759 178.261L139.308 180.107C140.535 177.747 141.145 175.197 141.145 172.488H137.145ZM135.759 178.261C134.906 179.901 133.459 181.331 131.26 182.503L133.142 186.033C135.904 184.56 138.011 182.6 139.308 180.107L135.759 178.261ZM131.26 182.503C129.162 183.622 126.313 184.252 122.591 184.252V188.252C126.723 188.252 130.281 187.559 133.142 186.033L131.26 182.503ZM122.591 184.252H111.307V188.252H122.591V184.252ZM109.307 186.252V199.52H113.307V186.252H109.307ZM109.307 199.52C109.307 199.746 109.252 199.877 109.078 200.038L111.8 202.97C112.784 202.056 113.307 200.865 113.307 199.52H109.307ZM109.025 200.09C108.877 200.238 108.73 200.31 108.455 200.31V204.31C109.751 204.31 110.927 203.844 111.854 202.918L109.025 200.09ZM122.033 182.92C126.389 182.92 130.008 182.11 132.278 179.951L129.521 177.053C128.401 178.118 126.109 178.92 122.033 178.92V182.92ZM132.26 179.968C134.409 177.972 135.503 175.434 135.503 172.488H131.503C131.503 174.337 130.861 175.808 129.538 177.036L132.26 179.968ZM135.503 172.488C135.503 169.542 134.409 167.004 132.26 165.008L129.538 167.94C130.861 169.168 131.503 170.639 131.503 172.488H135.503ZM132.278 165.025C130.008 162.866 126.389 162.056 122.033 162.056V166.056C126.109 166.056 128.401 166.858 129.521 167.923L132.278 165.025ZM122.033 162.056H111.307V166.056H122.033V162.056ZM109.307 164.056V180.92H113.307V164.056H109.307ZM111.307 182.92H122.033V178.92H111.307V182.92ZM152.468 201.504L153.882 200.09L152.468 201.504ZM152.468 159.282L153.882 160.696L153.908 160.67L153.933 160.643L152.468 159.282ZM156.436 159.282L154.97 160.643L155.02 160.697L155.075 160.748L156.436 159.282ZM157.304 180.982H155.304V185.87L158.73 182.384L157.304 180.982ZM178.508 159.406L179.934 160.808L179.975 160.767L180.013 160.723L178.508 159.406ZM182.414 159.158L180.999 160.572L181.058 160.631L181.122 160.685L182.414 159.158ZM182.538 162.816L183.949 164.233L183.952 164.23L182.538 162.816ZM168.216 177.076L166.804 175.659L165.538 176.919L166.649 178.319L168.216 177.076ZM184.646 197.784L186.218 196.548L186.212 196.541L184.646 197.784ZM185.328 199.582H183.328V199.638L183.331 199.693L185.328 199.582ZM184.584 201.504L185.998 202.918L184.584 201.504ZM180.368 201.194L181.989 200.023L181.966 199.991L181.941 199.96L180.368 201.194ZM164.372 180.796L165.945 179.562L164.547 177.778L162.951 179.388L164.372 180.796ZM157.304 187.926L155.883 186.518L155.304 187.103V187.926H157.304ZM156.436 201.504L155.075 200.038L155.048 200.064L155.021 200.09L156.436 201.504ZM154.452 200.31C154.177 200.31 154.03 200.238 153.882 200.09L151.053 202.918C151.98 203.844 153.156 204.31 154.452 204.31V200.31ZM153.882 200.09C153.733 199.941 153.662 199.795 153.662 199.52H149.662C149.662 200.816 150.127 201.992 151.053 202.918L153.882 200.09ZM153.662 199.52V161.266H149.662V199.52H153.662ZM153.662 161.266C153.662 160.991 153.733 160.845 153.882 160.696L151.053 157.868C150.127 158.794 149.662 159.97 149.662 161.266H153.662ZM153.933 160.643C154.094 160.469 154.226 160.414 154.452 160.414V156.414C153.107 156.414 151.915 156.937 151.002 157.921L153.933 160.643ZM154.452 160.414C154.677 160.414 154.809 160.469 154.97 160.643L157.901 157.921C156.988 156.937 155.796 156.414 154.452 156.414V160.414ZM155.075 160.748C155.248 160.909 155.304 161.04 155.304 161.266H159.304C159.304 159.921 158.78 158.73 157.796 157.816L155.075 160.748ZM155.304 161.266V180.982H159.304V161.266H155.304ZM158.73 182.384L179.934 160.808L177.081 158.004L155.877 179.58L158.73 182.384ZM180.013 160.723C180.239 160.465 180.406 160.414 180.616 160.414V156.414C179.172 156.414 177.934 157.025 177.002 158.089L180.013 160.723ZM180.616 160.414C180.789 160.414 180.879 160.452 180.999 160.572L183.828 157.744C182.956 156.872 181.848 156.414 180.616 156.414V160.414ZM181.122 160.685C181.159 160.716 181.179 160.739 181.189 160.752C181.199 160.765 181.203 160.772 181.204 160.775C181.205 160.778 181.209 160.786 181.212 160.801C181.215 160.816 181.22 160.846 181.22 160.894H185.22C185.22 159.602 184.691 158.465 183.705 157.631L181.122 160.685ZM181.22 160.894C181.22 161.127 181.187 161.261 181.164 161.326C181.144 161.382 181.128 161.397 181.123 161.402L183.952 164.23C184.88 163.302 185.22 162.093 185.22 160.894H181.22ZM181.126 161.399L166.804 175.659L169.627 178.493L183.949 164.233L181.126 161.399ZM166.649 178.319L183.079 199.027L186.212 196.541L169.782 175.833L166.649 178.319ZM183.073 199.02C183.304 199.314 183.328 199.49 183.328 199.582H187.328C187.328 198.434 186.896 197.411 186.218 196.548L183.073 199.02ZM183.331 199.693C183.34 199.856 183.313 199.946 183.169 200.09L185.998 202.918C186.928 201.988 187.398 200.796 187.324 199.471L183.331 199.693ZM183.169 200.09C183.021 200.238 182.874 200.31 182.6 200.31V204.31C183.895 204.31 185.072 203.844 185.998 202.918L183.169 200.09ZM182.6 200.31C182.264 200.31 182.135 200.225 181.989 200.023L178.746 202.365C179.675 203.651 181.034 204.31 182.6 204.31V200.31ZM181.941 199.96L165.945 179.562L162.798 182.03L178.794 202.428L181.941 199.96ZM162.951 179.388L155.883 186.518L158.724 189.334L165.792 182.204L162.951 179.388ZM155.304 187.926V199.52H159.304V187.926H155.304ZM155.304 199.52C155.304 199.746 155.248 199.877 155.075 200.038L157.796 202.97C158.78 202.056 159.304 200.865 159.304 199.52H155.304ZM155.021 200.09C154.873 200.238 154.726 200.31 154.452 200.31V204.31C155.747 204.31 156.924 203.844 157.85 202.918L155.021 200.09ZM203.472 199.83L202.475 201.564L202.483 201.569L202.491 201.573L203.472 199.83ZM195.784 191.956L194.021 192.902L194.026 192.911L195.784 191.956ZM195.908 168.768L197.652 169.747V169.747L195.908 168.768ZM203.658 160.894L202.677 159.151L202.668 159.156L203.658 160.894ZM223.064 159.282L222.441 161.183L222.451 161.186L223.064 159.282ZM230.07 162.568L229.004 164.26L229.087 164.313L229.175 164.357L230.07 162.568ZM230.938 163.436L229.223 164.465V164.465L230.938 163.436ZM230.566 166.598L229.152 165.184L229.121 165.215L229.091 165.247L230.566 166.598ZM227.404 167.032L226.38 168.75L226.443 168.788L226.509 168.821L227.404 167.032ZM221.576 164.428L222.147 162.511L221.576 164.428ZM206.758 165.544L207.687 167.315L207.687 167.315L206.758 165.544ZM200.806 171.372L199.064 170.389L199.059 170.398L200.806 171.372ZM200.682 189.104L198.905 190.021L198.913 190.039L198.923 190.056L200.682 189.104ZM206.51 195.118L205.493 196.84L205.51 196.85L205.527 196.86L206.51 195.118ZM226.412 194.56L227.366 196.317L228.412 195.75V194.56H226.412ZM226.412 183.338H228.412V181.338H226.412V183.338ZM230.69 197.66L229.011 196.573L229.002 196.587L228.994 196.6L230.69 197.66ZM229.016 199.148L228.164 197.338L228.143 197.348L228.121 197.359L229.016 199.148ZM214.818 200.62C210.861 200.62 207.424 199.759 204.452 198.087L202.491 201.573C206.132 203.621 210.26 204.62 214.818 204.62V200.62ZM204.469 198.096C201.482 196.379 199.183 194.024 197.541 191.001L194.026 192.911C196.022 196.584 198.848 199.478 202.475 201.564L204.469 198.096ZM197.546 191.01C195.901 187.945 195.056 184.432 195.056 180.424H191.056C191.056 185.013 192.029 189.189 194.021 192.902L197.546 191.01ZM195.056 180.424C195.056 176.341 195.939 172.8 197.652 169.747L194.163 167.789C192.074 171.514 191.056 175.744 191.056 180.424H195.056ZM197.652 169.747C199.382 166.663 201.709 164.306 204.648 162.632L202.668 159.156C199.076 161.202 196.236 164.095 194.163 167.789L197.652 169.747ZM204.638 162.637C207.628 160.955 210.946 160.104 214.632 160.104V156.104C210.299 156.104 206.3 157.113 202.677 159.151L204.638 162.637ZM214.632 160.104C217.7 160.104 220.292 160.478 222.441 161.183L223.686 157.381C221.041 156.515 218.011 156.104 214.632 156.104V160.104ZM222.451 161.186C224.726 161.918 226.909 162.942 229.004 164.26L231.135 160.876C228.766 159.384 226.279 158.216 223.677 157.378L222.451 161.186ZM229.175 164.357C229.129 164.334 229.112 164.314 229.121 164.323C229.131 164.334 229.168 164.374 229.223 164.465L232.653 162.407C232.268 161.765 231.724 161.159 230.964 160.779L229.175 164.357ZM229.223 164.465C229.279 164.558 229.31 164.655 229.31 164.8H233.31C233.31 163.953 233.093 163.14 232.653 162.407L229.223 164.465ZM229.31 164.8C229.31 164.973 229.272 165.064 229.152 165.184L231.98 168.012C232.852 167.14 233.31 166.032 233.31 164.8H229.31ZM229.091 165.247C229.065 165.275 229.046 165.287 229.017 165.299C228.981 165.313 228.888 165.342 228.706 165.342V169.342C229.949 169.342 231.142 168.929 232.04 167.949L229.091 165.247ZM228.706 165.342C228.567 165.342 228.439 165.313 228.298 165.243L226.509 168.821C227.196 169.164 227.935 169.342 228.706 169.342V165.342ZM228.427 165.314C226.359 164.081 224.265 163.142 222.147 162.511L221.005 166.345C222.772 166.871 224.563 167.668 226.38 168.75L228.427 165.314ZM222.147 162.511C219.998 161.871 217.695 161.56 215.252 161.56V165.56C217.355 165.56 219.268 165.828 221.005 166.345L222.147 162.511ZM215.252 161.56C211.821 161.56 208.665 162.285 205.829 163.773L207.687 167.315C209.893 166.158 212.4 165.56 215.252 165.56V161.56ZM205.829 163.773C202.954 165.281 200.693 167.503 199.064 170.389L202.547 172.355C203.811 170.116 205.518 168.453 207.687 167.315L205.829 163.773ZM199.059 170.398C197.455 173.276 196.698 176.643 196.698 180.424H200.698C200.698 177.178 201.346 174.511 202.553 172.346L199.059 170.398ZM196.698 180.424C196.698 183.929 197.419 187.143 198.905 190.021L202.459 188.187C201.299 185.94 200.698 183.367 200.698 180.424H196.698ZM198.923 190.056C200.463 192.904 202.666 195.172 205.493 196.84L207.526 193.396C205.311 192.088 203.628 190.347 202.441 188.152L198.923 190.056ZM205.527 196.86C208.439 198.504 211.807 199.288 215.562 199.288V195.288C212.372 195.288 209.706 194.625 207.493 193.376L205.527 196.86ZM215.562 199.288C219.774 199.288 223.719 198.299 227.366 196.317L225.457 192.803C222.408 194.459 219.12 195.288 215.562 195.288V199.288ZM228.412 194.56V183.338H224.412V194.56H228.412ZM226.412 181.338H216.182V185.338H226.412V181.338ZM216.182 181.338C216.008 181.338 215.918 181.3 215.798 181.18L212.97 184.008C213.841 184.88 214.95 185.338 216.182 185.338V181.338ZM215.798 181.18C215.678 181.06 215.64 180.969 215.64 180.796H211.64C211.64 182.028 212.098 183.136 212.97 184.008L215.798 181.18ZM215.64 180.796C215.64 180.623 215.678 180.532 215.798 180.412L212.97 177.584C212.098 178.456 211.64 179.564 211.64 180.796H215.64ZM215.798 180.412C215.918 180.292 216.008 180.254 216.182 180.254V176.254C214.95 176.254 213.841 176.712 212.97 177.584L215.798 180.412ZM216.182 180.254H228.396V176.254H216.182V180.254ZM228.396 180.254C228.698 180.254 228.89 180.337 229.09 180.536L231.918 177.708C230.96 176.75 229.747 176.254 228.396 176.254V180.254ZM229.09 180.536C229.289 180.736 229.372 180.928 229.372 181.23H233.372C233.372 179.879 232.876 178.666 231.918 177.708L229.09 180.536ZM229.372 181.23V195.304H233.372V181.23H229.372ZM229.372 195.304C229.372 195.802 229.248 196.207 229.011 196.573L232.369 198.747C233.041 197.708 233.372 196.542 233.372 195.304H229.372ZM228.994 196.6C228.783 196.937 228.518 197.172 228.164 197.338L229.867 200.958C230.919 200.463 231.77 199.706 232.386 198.72L228.994 196.6ZM228.121 197.359C223.75 199.545 219.322 200.62 214.818 200.62V204.62C219.986 204.62 225.023 203.38 229.91 200.937L228.121 197.359Z" fill="white" mask="url(#path-4-outside-1_304_69)"/>
<g filter="url(#filter1_d_304_69)">
<path d="M272 102H192C179.85 102 170 92.1503 170 80V0L272 102Z" fill="url(#paint2_linear_304_69)"/>
</g>
</g>
<mask id="mask1_304_69" style="mask-type:alpha" maskUnits="userSpaceOnUse" x="0" y="0" width="272" height="308">
<path d="M250 308H22C9.84974 308 0 298.15 0 286V22C0 9.84974 9.84974 0 22 0H170L272 102V286C272 298.15 262.15 308 250 308Z" fill="url(#paint3_linear_304_69)"/>
</mask>
<g mask="url(#mask1_304_69)">
<path d="M250 308H22C9.84974 308 0 298.15 0 286V22C0 9.84974 9.84974 0 22 0H170L272 102V286C272 298.15 262.15 308 250 308Z" fill="url(#paint4_linear_304_69)"/>
<g opacity="0.23" filter="url(#filter2_f_304_69)">
<rect x="15" y="149" width="244" height="84" fill="#E32E06" style="mix-blend-mode:darken"/>
</g>
<mask id="path-10-outside-2_304_69" maskUnits="userSpaceOnUse" x="66" y="156" width="140" height="49" fill="black">
<rect fill="white" x="66" y="156" width="140" height="49"/>
<path d="M89.8657 202.62C85.7324 202.62 82.0124 201.731 78.7057 199.954C75.4404 198.135 72.857 195.552 70.9557 192.204C69.0957 188.815 68.1657 184.867 68.1657 180.362C68.1657 175.857 69.0957 171.93 70.9557 168.582C72.857 165.193 75.4404 162.609 78.7057 160.832C82.0124 159.013 85.7324 158.104 89.8657 158.104C92.6764 158.104 95.177 158.435 97.3677 159.096C99.5997 159.757 101.811 160.708 104.002 161.948C104.911 162.444 105.366 163.229 105.366 164.304C105.366 164.924 105.138 165.482 104.684 165.978C104.229 166.433 103.63 166.66 102.886 166.66C102.472 166.66 102.1 166.577 101.77 166.412C99.951 165.461 98.1737 164.738 96.4377 164.242C94.7017 163.746 92.697 163.498 90.4237 163.498C86.869 163.498 83.831 164.242 81.3097 165.73C78.8297 167.177 76.949 169.181 75.6677 171.744C74.4277 174.265 73.8077 177.138 73.8077 180.362C73.8077 183.586 74.4277 186.479 75.6677 189.042C76.949 191.563 78.8297 193.568 81.3097 195.056C83.831 196.503 86.869 197.226 90.4237 197.226C92.697 197.226 94.7017 196.978 96.4377 196.482C98.1737 195.986 99.951 195.263 101.77 194.312C102.1 194.147 102.472 194.064 102.886 194.064C103.63 194.064 104.229 194.291 104.684 194.746C105.138 195.201 105.366 195.759 105.366 196.42C105.366 197.495 104.911 198.28 104.002 198.776C101.811 200.016 99.5997 200.967 97.3677 201.628C95.177 202.289 92.6764 202.62 89.8657 202.62ZM121.009 202C120.224 202 119.562 201.731 119.025 201.194C118.488 200.657 118.219 199.995 118.219 199.21V161.576C118.219 160.791 118.488 160.129 119.025 159.592C119.562 159.013 120.224 158.724 121.009 158.724H133.471C138.183 158.724 142.172 159.778 145.437 161.886C148.744 163.953 151.224 166.639 152.877 169.946C154.53 173.253 155.357 176.725 155.357 180.362C155.357 183.999 154.53 187.471 152.877 190.778C151.224 194.085 148.744 196.792 145.437 198.9C142.172 200.967 138.183 202 133.471 202H121.009ZM132.789 196.73C136.178 196.73 139.154 196.048 141.717 194.684C144.28 193.279 146.264 191.357 147.669 188.918C149.074 186.438 149.777 183.586 149.777 180.362C149.777 177.138 149.074 174.307 147.669 171.868C146.264 169.388 144.28 167.466 141.717 166.102C139.154 164.697 136.178 163.994 132.789 163.994H123.861V196.73H132.789ZM171.91 202.31C171.124 202.31 170.463 202.041 169.926 201.504C169.388 200.967 169.12 200.305 169.12 199.52V161.576C169.12 160.791 169.388 160.129 169.926 159.592C170.463 159.013 171.124 158.724 171.91 158.724H186.356C191.977 158.724 196.193 159.881 199.004 162.196C201.814 164.511 203.22 167.549 203.22 171.31C203.22 173.79 202.517 176.063 201.112 178.13C199.748 180.155 197.743 181.623 195.098 182.532C198.074 183.317 200.099 185.177 201.174 188.112C202.29 191.005 202.848 193.857 202.848 196.668V199.52C202.848 200.305 202.579 200.967 202.042 201.504C201.504 202.041 200.843 202.31 200.058 202.31C199.19 202.31 198.487 202.062 197.95 201.566C197.454 201.029 197.206 200.347 197.206 199.52V197.66C197.206 195.593 197.02 193.692 196.648 191.956C196.276 190.179 195.387 188.608 193.982 187.244C192.576 185.839 190.448 185.136 187.596 185.136H174.762V199.52C174.762 200.305 174.472 200.967 173.894 201.504C173.356 202.041 172.695 202.31 171.91 202.31ZM185.984 179.804C189.538 179.804 192.349 179.101 194.416 177.696C196.524 176.291 197.578 174.307 197.578 171.744C197.578 169.264 196.668 167.363 194.85 166.04C193.072 164.717 190.014 164.056 185.674 164.056H174.762V179.804H185.984Z"/>
</mask>
<path d="M89.8657 202.62C85.7324 202.62 82.0124 201.731 78.7057 199.954C75.4404 198.135 72.857 195.552 70.9557 192.204C69.0957 188.815 68.1657 184.867 68.1657 180.362C68.1657 175.857 69.0957 171.93 70.9557 168.582C72.857 165.193 75.4404 162.609 78.7057 160.832C82.0124 159.013 85.7324 158.104 89.8657 158.104C92.6764 158.104 95.177 158.435 97.3677 159.096C99.5997 159.757 101.811 160.708 104.002 161.948C104.911 162.444 105.366 163.229 105.366 164.304C105.366 164.924 105.138 165.482 104.684 165.978C104.229 166.433 103.63 166.66 102.886 166.66C102.472 166.66 102.1 166.577 101.77 166.412C99.951 165.461 98.1737 164.738 96.4377 164.242C94.7017 163.746 92.697 163.498 90.4237 163.498C86.869 163.498 83.831 164.242 81.3097 165.73C78.8297 167.177 76.949 169.181 75.6677 171.744C74.4277 174.265 73.8077 177.138 73.8077 180.362C73.8077 183.586 74.4277 186.479 75.6677 189.042C76.949 191.563 78.8297 193.568 81.3097 195.056C83.831 196.503 86.869 197.226 90.4237 197.226C92.697 197.226 94.7017 196.978 96.4377 196.482C98.1737 195.986 99.951 195.263 101.77 194.312C102.1 194.147 102.472 194.064 102.886 194.064C103.63 194.064 104.229 194.291 104.684 194.746C105.138 195.201 105.366 195.759 105.366 196.42C105.366 197.495 104.911 198.28 104.002 198.776C101.811 200.016 99.5997 200.967 97.3677 201.628C95.177 202.289 92.6764 202.62 89.8657 202.62ZM121.009 202C120.224 202 119.562 201.731 119.025 201.194C118.488 200.657 118.219 199.995 118.219 199.21V161.576C118.219 160.791 118.488 160.129 119.025 159.592C119.562 159.013 120.224 158.724 121.009 158.724H133.471C138.183 158.724 142.172 159.778 145.437 161.886C148.744 163.953 151.224 166.639 152.877 169.946C154.53 173.253 155.357 176.725 155.357 180.362C155.357 183.999 154.53 187.471 152.877 190.778C151.224 194.085 148.744 196.792 145.437 198.9C142.172 200.967 138.183 202 133.471 202H121.009ZM132.789 196.73C136.178 196.73 139.154 196.048 141.717 194.684C144.28 193.279 146.264 191.357 147.669 188.918C149.074 186.438 149.777 183.586 149.777 180.362C149.777 177.138 149.074 174.307 147.669 171.868C146.264 169.388 144.28 167.466 141.717 166.102C139.154 164.697 136.178 163.994 132.789 163.994H123.861V196.73H132.789ZM171.91 202.31C171.124 202.31 170.463 202.041 169.926 201.504C169.388 200.967 169.12 200.305 169.12 199.52V161.576C169.12 160.791 169.388 160.129 169.926 159.592C170.463 159.013 171.124 158.724 171.91 158.724H186.356C191.977 158.724 196.193 159.881 199.004 162.196C201.814 164.511 203.22 167.549 203.22 171.31C203.22 173.79 202.517 176.063 201.112 178.13C199.748 180.155 197.743 181.623 195.098 182.532C198.074 183.317 200.099 185.177 201.174 188.112C202.29 191.005 202.848 193.857 202.848 196.668V199.52C202.848 200.305 202.579 200.967 202.042 201.504C201.504 202.041 200.843 202.31 200.058 202.31C199.19 202.31 198.487 202.062 197.95 201.566C197.454 201.029 197.206 200.347 197.206 199.52V197.66C197.206 195.593 197.02 193.692 196.648 191.956C196.276 190.179 195.387 188.608 193.982 187.244C192.576 185.839 190.448 185.136 187.596 185.136H174.762V199.52C174.762 200.305 174.472 200.967 173.894 201.504C173.356 202.041 172.695 202.31 171.91 202.31ZM185.984 179.804C189.538 179.804 192.349 179.101 194.416 177.696C196.524 176.291 197.578 174.307 197.578 171.744C197.578 169.264 196.668 167.363 194.85 166.04C193.072 164.717 190.014 164.056 185.674 164.056H174.762V179.804H185.984Z" fill="white"/>
<path d="M78.7057 199.954L77.7325 201.701L77.7456 201.709L77.7588 201.716L78.7057 199.954ZM70.9557 192.204L69.2024 193.166L69.2094 193.179L69.2166 193.192L70.9557 192.204ZM70.9557 168.582L69.2114 167.603L69.2074 167.611L70.9557 168.582ZM78.7057 160.832L79.6619 162.589L79.6695 162.584L78.7057 160.832ZM97.3677 159.096L96.7897 161.011L96.7995 161.014L97.3677 159.096ZM104.002 161.948L103.017 163.689L103.03 163.696L103.044 163.704L104.002 161.948ZM104.684 165.978L106.098 167.392L106.129 167.361L106.158 167.329L104.684 165.978ZM101.77 166.412L100.843 168.184L100.859 168.193L100.875 168.201L101.77 166.412ZM96.4377 164.242L96.9872 162.319L96.4377 164.242ZM81.3097 165.73L82.3175 167.458L82.3262 167.452L81.3097 165.73ZM75.6677 171.744L73.8788 170.85L73.873 170.861L75.6677 171.744ZM75.6677 189.042L73.8674 189.913L73.8759 189.931L73.8847 189.948L75.6677 189.042ZM81.3097 195.056L80.2807 196.771L80.2974 196.781L80.3144 196.791L81.3097 195.056ZM96.4377 196.482L96.9872 198.405L96.4377 196.482ZM101.77 194.312L100.875 192.523L100.859 192.531L100.843 192.54L101.77 194.312ZM104.684 194.746L106.098 193.332V193.332L104.684 194.746ZM104.002 198.776L103.044 197.02L103.03 197.028L103.017 197.035L104.002 198.776ZM97.3677 201.628L96.7995 199.71L96.7897 199.713L97.3677 201.628ZM89.8657 200.62C86.0288 200.62 82.6396 199.798 79.6526 198.192L77.7588 201.716C81.3852 203.665 85.436 204.62 89.8657 204.62V200.62ZM79.6789 198.207C76.7436 196.572 74.421 194.256 72.6948 191.216L69.2166 193.192C71.2931 196.848 74.1372 199.699 77.7325 201.701L79.6789 198.207ZM72.709 191.242C71.0358 188.193 70.1657 184.587 70.1657 180.362H66.1657C66.1657 185.148 67.1556 189.437 69.2024 193.166L72.709 191.242ZM70.1657 180.362C70.1657 176.136 71.036 172.556 72.704 169.553L69.2074 167.611C67.1554 171.304 66.1657 175.577 66.1657 180.362H70.1657ZM72.7 169.56C74.4259 166.484 76.7426 164.178 79.6618 162.589L77.7496 159.075C74.1381 161.041 71.2882 163.901 69.2114 167.603L72.7 169.56ZM79.6695 162.584C82.6534 160.943 86.0365 160.104 89.8657 160.104V156.104C85.4283 156.104 81.3714 157.083 77.7419 159.08L79.6695 162.584ZM89.8657 160.104C92.5234 160.104 94.8235 160.417 96.7897 161.011L97.9457 157.181C95.5306 156.452 92.8293 156.104 89.8657 156.104V160.104ZM96.7995 161.014C98.875 161.629 100.947 162.517 103.017 163.689L104.987 160.207C102.675 158.899 100.324 157.886 97.9359 157.178L96.7995 161.014ZM103.044 163.704C103.223 163.802 103.275 163.879 103.294 163.911C103.315 163.947 103.366 164.053 103.366 164.304H107.366C107.366 163.48 107.189 162.656 106.756 161.907C106.32 161.154 105.69 160.59 104.959 160.192L103.044 163.704ZM103.366 164.304C103.366 164.379 103.357 164.465 103.209 164.627L106.158 167.329C106.919 166.499 107.366 165.469 107.366 164.304H103.366ZM103.27 164.564C103.249 164.584 103.189 164.66 102.886 164.66V168.66C104.07 168.66 105.209 168.281 106.098 167.392L103.27 164.564ZM102.886 164.66C102.746 164.66 102.686 164.634 102.664 164.623L100.875 168.201C101.515 168.521 102.199 168.66 102.886 168.66V164.66ZM102.696 164.64C100.773 163.634 98.8699 162.857 96.9872 162.319L95.8883 166.165C97.4775 166.619 99.1288 167.288 100.843 168.184L102.696 164.64ZM96.9872 162.319C95.0333 161.761 92.8371 161.498 90.4237 161.498V165.498C92.5569 165.498 94.3702 165.731 95.8883 166.165L96.9872 162.319ZM90.4237 161.498C86.588 161.498 83.1823 162.303 80.2932 164.008L82.3262 167.452C84.4798 166.181 87.1501 165.498 90.4237 165.498V161.498ZM80.302 164.002C77.4869 165.645 75.3344 167.938 73.8789 170.85L77.4566 172.638C78.5636 170.424 80.1725 168.709 82.3175 167.458L80.302 164.002ZM73.873 170.861C72.4793 173.695 71.8077 176.877 71.8077 180.362H75.8077C75.8077 177.399 76.3761 174.835 77.4624 172.627L73.873 170.861ZM71.8077 180.362C71.8077 183.848 72.4795 187.045 73.8674 189.913L77.468 188.171C76.3759 185.914 75.8077 183.324 75.8077 180.362H71.8077ZM73.8847 189.948C75.3404 192.812 77.4861 195.094 80.2807 196.771L82.3387 193.341C80.1734 192.042 78.5577 190.314 77.4507 188.136L73.8847 189.948ZM80.3144 196.791C83.1994 198.446 86.5972 199.226 90.4237 199.226V195.226C87.1409 195.226 84.4627 194.559 82.305 193.321L80.3144 196.791ZM90.4237 199.226C92.8371 199.226 95.0333 198.963 96.9872 198.405L95.8883 194.559C94.3702 194.993 92.5569 195.226 90.4237 195.226V199.226ZM96.9872 198.405C98.8699 197.867 100.773 197.09 102.696 196.084L100.843 192.54C99.1288 193.436 97.4775 194.105 95.8883 194.559L96.9872 198.405ZM102.664 196.101C102.686 196.09 102.746 196.064 102.886 196.064V192.064C102.199 192.064 101.515 192.203 100.875 192.523L102.664 196.101ZM102.886 196.064C103.189 196.064 103.249 196.14 103.27 196.16L106.098 193.332C105.209 192.443 104.07 192.064 102.886 192.064V196.064ZM103.269 196.16C103.321 196.212 103.337 196.244 103.343 196.26C103.35 196.277 103.366 196.323 103.366 196.42H107.366C107.366 195.245 106.939 194.173 106.098 193.332L103.269 196.16ZM103.366 196.42C103.366 196.671 103.315 196.777 103.294 196.813C103.275 196.845 103.223 196.922 103.044 197.02L104.959 200.532C105.69 200.134 106.32 199.57 106.756 198.817C107.189 198.068 107.366 197.244 107.366 196.42H103.366ZM103.017 197.035C100.947 198.207 98.875 199.095 96.7995 199.71L97.9359 203.546C100.324 202.838 102.675 201.825 104.987 200.517L103.017 197.035ZM96.7897 199.713C94.8235 200.307 92.5234 200.62 89.8657 200.62V204.62C92.8293 204.62 95.5306 204.272 97.9457 203.543L96.7897 199.713ZM119.025 201.194L120.439 199.78L119.025 201.194ZM119.025 159.592L120.439 161.006L120.465 160.98L120.491 160.953L119.025 159.592ZM145.437 161.886L144.352 163.566L144.365 163.574L144.377 163.582L145.437 161.886ZM152.877 169.946L151.088 170.84L152.877 169.946ZM152.877 190.778L151.088 189.884L152.877 190.778ZM145.437 198.9L146.507 200.59L146.512 200.586L145.437 198.9ZM141.717 194.684L142.657 196.449L142.668 196.444L142.679 196.438L141.717 194.684ZM147.669 188.918L149.402 189.917L149.406 189.91L149.409 189.904L147.669 188.918ZM147.669 171.868L145.929 172.854L145.933 172.86L145.936 172.867L147.669 171.868ZM141.717 166.102L140.755 167.856L140.766 167.862L140.777 167.867L141.717 166.102ZM123.861 163.994V161.994H121.861V163.994H123.861ZM123.861 196.73H121.861V198.73H123.861V196.73ZM121.009 200C120.734 200 120.588 199.928 120.439 199.78L117.611 202.608C118.537 203.534 119.713 204 121.009 204V200ZM120.439 199.78C120.291 199.631 120.219 199.485 120.219 199.21H116.219C116.219 200.506 116.685 201.682 117.611 202.608L120.439 199.78ZM120.219 199.21V161.576H116.219V199.21H120.219ZM120.219 161.576C120.219 161.301 120.291 161.155 120.439 161.006L117.611 158.178C116.685 159.104 116.219 160.28 116.219 161.576H120.219ZM120.491 160.953C120.652 160.779 120.783 160.724 121.009 160.724V156.724C119.664 156.724 118.473 157.247 117.559 158.231L120.491 160.953ZM121.009 160.724H133.471V156.724H121.009V160.724ZM133.471 160.724C137.881 160.724 141.473 161.708 144.352 163.566L146.522 160.206C142.87 157.848 138.485 156.724 133.471 156.724V160.724ZM144.377 163.582C147.39 165.465 149.609 167.881 151.088 170.84L154.666 169.052C152.839 165.397 150.098 162.441 146.497 160.19L144.377 163.582ZM151.088 170.84C152.605 173.874 153.357 177.04 153.357 180.362H157.357C157.357 176.409 156.456 172.631 154.666 169.052L151.088 170.84ZM153.357 180.362C153.357 183.684 152.605 186.85 151.088 189.884L154.666 191.672C156.456 188.093 157.357 184.315 157.357 180.362H153.357ZM151.088 189.884C149.607 192.847 147.383 195.288 144.362 197.214L146.512 200.586C150.105 198.296 152.841 195.323 154.666 191.672L151.088 189.884ZM144.367 197.21C141.486 199.034 137.888 200 133.471 200V204C138.478 204 142.857 202.9 146.507 200.59L144.367 197.21ZM133.471 200H121.009V204H133.471V200ZM132.789 198.73C136.451 198.73 139.76 197.991 142.657 196.449L140.777 192.919C138.549 194.105 135.906 194.73 132.789 194.73V198.73ZM142.679 196.438C145.55 194.863 147.806 192.685 149.402 189.917L145.936 187.919C144.721 190.028 143.01 191.694 140.755 192.93L142.679 196.438ZM149.409 189.904C151.006 187.086 151.777 183.886 151.777 180.362H147.777C147.777 183.286 147.143 185.79 145.929 187.932L149.409 189.904ZM151.777 180.362C151.777 176.839 151.006 173.654 149.402 170.869L145.936 172.867C147.142 174.96 147.777 177.437 147.777 180.362H151.777ZM149.409 170.882C147.813 168.065 145.548 165.876 142.657 164.337L140.777 167.867C143.011 169.056 144.715 170.711 145.929 172.854L149.409 170.882ZM142.679 164.348C139.777 162.757 136.461 161.994 132.789 161.994V165.994C135.896 165.994 138.532 166.636 140.755 167.856L142.679 164.348ZM132.789 161.994H123.861V165.994H132.789V161.994ZM121.861 163.994V196.73H125.861V163.994H121.861ZM123.861 198.73H132.789V194.73H123.861V198.73ZM169.926 201.504L171.34 200.09L169.926 201.504ZM169.926 159.592L171.34 161.006L171.366 160.98L171.391 160.953L169.926 159.592ZM199.004 162.196L200.275 160.652V160.652L199.004 162.196ZM201.112 178.13L199.458 177.005L199.453 177.013L201.112 178.13ZM195.098 182.532L194.447 180.641L188.213 182.784L194.587 184.466L195.098 182.532ZM201.174 188.112L199.296 188.8L199.301 188.816L199.308 188.832L201.174 188.112ZM202.042 201.504L203.456 202.918L202.042 201.504ZM197.95 201.566L196.48 202.923L196.534 202.981L196.593 203.036L197.95 201.566ZM196.648 191.956L194.69 192.366L194.692 192.375L196.648 191.956ZM193.982 187.244L192.567 188.658L192.578 188.669L192.589 188.679L193.982 187.244ZM174.762 185.136V183.136H172.762V185.136H174.762ZM173.894 201.504L172.533 200.038L172.506 200.064L172.479 200.09L173.894 201.504ZM194.416 177.696L193.306 176.032L193.299 176.037L193.291 176.042L194.416 177.696ZM194.85 166.04L193.656 167.644L193.664 167.651L193.673 167.657L194.85 166.04ZM174.762 164.056V162.056H172.762V164.056H174.762ZM174.762 179.804H172.762V181.804H174.762V179.804ZM171.91 200.31C171.635 200.31 171.488 200.238 171.34 200.09L168.511 202.918C169.438 203.844 170.614 204.31 171.91 204.31V200.31ZM171.34 200.09C171.191 199.941 171.12 199.795 171.12 199.52H167.12C167.12 200.816 167.585 201.992 168.511 202.918L171.34 200.09ZM171.12 199.52V161.576H167.12V199.52H171.12ZM171.12 161.576C171.12 161.301 171.191 161.155 171.34 161.006L168.511 158.178C167.585 159.104 167.12 160.28 167.12 161.576H171.12ZM171.391 160.953C171.553 160.779 171.684 160.724 171.91 160.724V156.724C170.565 156.724 169.373 157.247 168.46 158.231L171.391 160.953ZM171.91 160.724H186.356V156.724H171.91V160.724ZM186.356 160.724C191.753 160.724 195.429 161.843 197.732 163.74L200.275 160.652C196.957 157.92 192.201 156.724 186.356 156.724V160.724ZM197.732 163.74C200.064 165.66 201.22 168.124 201.22 171.31H205.22C205.22 166.974 203.564 163.361 200.275 160.652L197.732 163.74ZM201.22 171.31C201.22 173.386 200.639 175.268 199.458 177.005L202.765 179.255C204.394 176.859 205.22 174.194 205.22 171.31H201.22ZM199.453 177.013C198.366 178.626 196.744 179.851 194.447 180.641L195.748 184.423C198.742 183.394 201.129 181.685 202.77 179.247L199.453 177.013ZM194.587 184.466C196.92 185.081 198.442 186.468 199.296 188.8L203.052 187.424C201.756 183.887 199.228 181.553 195.608 180.598L194.587 184.466ZM199.308 188.832C200.344 191.519 200.848 194.128 200.848 196.668H204.848C204.848 193.587 204.235 190.492 203.04 187.392L199.308 188.832ZM200.848 196.668V199.52H204.848V196.668H200.848ZM200.848 199.52C200.848 199.795 200.776 199.941 200.627 200.09L203.456 202.918C204.382 201.992 204.848 200.816 204.848 199.52H200.848ZM200.627 200.09C200.479 200.238 200.332 200.31 200.058 200.31V204.31C201.354 204.31 202.53 203.844 203.456 202.918L200.627 200.09ZM200.058 200.31C199.593 200.31 199.407 200.189 199.306 200.096L196.593 203.036C197.567 203.935 198.787 204.31 200.058 204.31V200.31ZM199.419 200.209C199.309 200.09 199.206 199.915 199.206 199.52H195.206C195.206 200.779 195.598 201.967 196.48 202.923L199.419 200.209ZM199.206 199.52V197.66H195.206V199.52H199.206ZM199.206 197.66C199.206 195.475 199.009 193.431 198.603 191.537L194.692 192.375C195.03 193.953 195.206 195.712 195.206 197.66H199.206ZM198.605 191.546C198.145 189.348 197.043 187.428 195.375 185.809L192.589 188.679C193.731 189.788 194.406 191.01 194.69 192.366L198.605 191.546ZM195.396 185.83C193.478 183.912 190.746 183.136 187.596 183.136V187.136C190.149 187.136 191.674 187.765 192.567 188.658L195.396 185.83ZM187.596 183.136H174.762V187.136H187.596V183.136ZM172.762 185.136V199.52H176.762V185.136H172.762ZM172.762 199.52C172.762 199.746 172.706 199.877 172.533 200.038L175.255 202.97C176.238 202.056 176.762 200.865 176.762 199.52H172.762ZM172.479 200.09C172.331 200.238 172.184 200.31 171.91 200.31V204.31C173.206 204.31 174.382 203.844 175.308 202.918L172.479 200.09ZM185.984 181.804C189.777 181.804 193.029 181.057 195.54 179.35L193.291 176.042C191.669 177.145 189.3 177.804 185.984 177.804V181.804ZM195.525 179.36C198.197 177.579 199.578 174.966 199.578 171.744H195.578C195.578 173.647 194.85 175.003 193.306 176.032L195.525 179.36ZM199.578 171.744C199.578 168.7 198.421 166.164 196.026 164.423L193.673 167.657C194.916 168.561 195.578 169.828 195.578 171.744H199.578ZM196.044 164.436C193.72 162.706 190.096 162.056 185.674 162.056V166.056C189.932 166.056 192.425 166.729 193.656 167.644L196.044 164.436ZM185.674 162.056H174.762V166.056H185.674V162.056ZM172.762 164.056V179.804H176.762V164.056H172.762ZM174.762 181.804H185.984V177.804H174.762V181.804Z" fill="white" mask="url(#path-10-outside-2_304_69)"/>
<g filter="url(#filter3_d_304_69)">
<path d="M272 102H192C179.85 102 170 92.1503 170 80V0L272 102Z" fill="url(#paint5_linear_304_69)"/>
</g>
</g>
<defs>
<filter id="filter0_f_304_69" x="-24" y="110" width="322" height="162" filterUnits="userSpaceOnUse" color-interpolation-filters="sRGB">
<feFlood flood-opacity="0" result="BackgroundImageFix"/>
<feBlend mode="normal" in="SourceGraphic" in2="BackgroundImageFix" result="shape"/>
<feGaussianBlur stdDeviation="19.5" result="effect1_foregroundBlur_304_69"/>
</filter>
<filter id="filter1_d_304_69" x="147" y="-24" width="152" height="152" filterUnits="userSpaceOnUse" color-interpolation-filters="sRGB">
<feFlood flood-opacity="0" result="BackgroundImageFix"/>
<feColorMatrix in="SourceAlpha" type="matrix" values="0 0 0 0 0 0 0 0 0 0 0 0 0 0 0 0 0 0 127 0" result="hardAlpha"/>
<feOffset dx="2" dy="1"/>
<feGaussianBlur stdDeviation="12.5"/>
<feColorMatrix type="matrix" values="0 0 0 0 0 0 0 0 0 0 0 0 0 0 0 0 0 0 0.33 0"/>
<feBlend mode="normal" in2="BackgroundImageFix" result="effect1_dropShadow_304_69"/>
<feBlend mode="normal" in="SourceGraphic" in2="effect1_dropShadow_304_69" result="shape"/>
</filter>
<filter id="filter2_f_304_69" x="-24" y="110" width="322" height="162" filterUnits="userSpaceOnUse" color-interpolation-filters="sRGB">
<feFlood flood-opacity="0" result="BackgroundImageFix"/>
<feBlend mode="normal" in="SourceGraphic" in2="BackgroundImageFix" result="shape"/>
<feGaussianBlur stdDeviation="19.5" result="effect1_foregroundBlur_304_69"/>
</filter>
<filter id="filter3_d_304_69" x="147" y="-24" width="152" height="152" filterUnits="userSpaceOnUse" color-interpolation-filters="sRGB">
<feFlood flood-opacity="0" result="BackgroundImageFix"/>
<feColorMatrix in="SourceAlpha" type="matrix" values="0 0 0 0 0 0 0 0 0 0 0 0 0 0 0 0 0 0 127 0" result="hardAlpha"/>
<feOffset dx="2" dy="1"/>
<feGaussianBlur stdDeviation="12.5"/>
<feColorMatrix type="matrix" values="0 0 0 0 0 0 0 0 0 0 0 0 0 0 0 0 0 0 0.33 0"/>
<feBlend mode="normal" in2="BackgroundImageFix" result="effect1_dropShadow_304_69"/>
<feBlend mode="normal" in="SourceGraphic" in2="effect1_dropShadow_304_69" result="shape"/>
</filter>
<linearGradient id="paint0_linear_304_69" x1="136" y1="0" x2="136" y2="308" gradientUnits="userSpaceOnUse">
<stop stop-color="#FF7979"/>
<stop offset="1" stop-color="#E85555"/>
</linearGradient>
<linearGradient id="paint1_linear_304_69" x1="136" y1="0" x2="136" y2="308" gradientUnits="userSpaceOnUse">
<stop stop-color="#FF8777"/>
<stop offset="1" stop-color="#F0695F"/>
</linearGradient>
<linearGradient id="paint2_linear_304_69" x1="221" y1="0" x2="221" y2="102" gradientUnits="userSpaceOnUse">
<stop stop-color="#DA5D4C"/>
<stop offset="1" stop-color="#E32900"/>
</linearGradient>
<linearGradient id="paint3_linear_304_69" x1="136" y1="0" x2="136" y2="308" gradientUnits="userSpaceOnUse">
<stop stop-color="#FF7979"/>
<stop offset="1" stop-color="#E85555"/>
</linearGradient>
<linearGradient id="paint4_linear_304_69" x1="136" y1="0" x2="136" y2="308" gradientUnits="userSpaceOnUse">
<stop stop-color="#FF8777"/>
<stop offset="1" stop-color="#F0695F"/>
</linearGradient>
<linearGradient id="paint5_linear_304_69" x1="221" y1="0" x2="221" y2="102" gradientUnits="userSpaceOnUse">
<stop stop-color="#DA5D4C"/>
<stop offset="1" stop-color="#E32900"/>
</linearGradient>
</defs>
</svg>
