<svg width="272" height="308" viewBox="0 0 272 308" fill="none" xmlns="http://www.w3.org/2000/svg">
<mask id="mask0_204_985" style="mask-type:alpha" maskUnits="userSpaceOnUse" x="0" y="0" width="272" height="308">
<path d="M250 308H22C9.84974 308 0 298.15 0 286V22C0 9.84974 9.84974 0 22 0H170L272 102V286C272 298.15 262.15 308 250 308Z" fill="url(#paint0_linear_204_985)"/>
</mask>
<g mask="url(#mask0_204_985)">
<path d="M250 308H22C9.84974 308 0 298.15 0 286V22C0 9.84974 9.84974 0 22 0H170L272 102V286C272 298.15 262.15 308 250 308Z" fill="url(#paint1_linear_204_985)"/>
<path d="M70.4718 202C69.6865 202 69.0251 201.731 68.4878 201.194C67.9505 200.657 67.6818 199.995 67.6818 199.21V161.576C67.6818 160.791 67.9505 160.129 68.4878 159.592C69.0251 159.013 69.6865 158.724 70.4718 158.724H82.9338C87.6458 158.724 91.6345 159.778 94.8998 161.886C98.2065 163.953 100.686 166.639 102.34 169.946C103.993 173.253 104.82 176.725 104.82 180.362C104.82 183.999 103.993 187.471 102.34 190.778C100.686 194.085 98.2065 196.792 94.8998 198.9C91.6345 200.967 87.6458 202 82.9338 202H70.4718ZM82.2518 196.73C85.6412 196.73 88.6172 196.048 91.1798 194.684C93.7425 193.279 95.7265 191.357 97.1318 188.918C98.5372 186.438 99.2398 183.586 99.2398 180.362C99.2398 177.138 98.5372 174.307 97.1318 171.868C95.7265 169.388 93.7425 167.466 91.1798 166.102C88.6172 164.697 85.6412 163.994 82.2518 163.994H73.3238V196.73H82.2518ZM137.74 202.62C133.4 202.62 129.598 201.669 126.332 199.768C123.067 197.867 120.546 195.242 118.768 191.894C116.991 188.546 116.061 184.702 115.978 180.362C116.061 176.022 116.991 172.178 118.768 168.83C120.546 165.482 123.067 162.857 126.332 160.956C129.598 159.055 133.4 158.104 137.74 158.104C142.08 158.104 145.862 159.055 149.086 160.956C152.352 162.857 154.873 165.503 156.65 168.892C158.469 172.24 159.42 176.063 159.502 180.362C159.42 184.661 158.469 188.505 156.65 191.894C154.873 195.242 152.352 197.867 149.086 199.768C145.862 201.669 142.08 202.62 137.74 202.62ZM137.74 197.35C141.047 197.35 143.92 196.606 146.358 195.118C148.797 193.63 150.657 191.605 151.938 189.042C153.22 186.479 153.86 183.586 153.86 180.362C153.86 177.138 153.22 174.245 151.938 171.682C150.657 169.119 148.797 167.094 146.358 165.606C143.92 164.118 141.047 163.374 137.74 163.374C134.392 163.374 131.499 164.118 129.06 165.606C126.663 167.094 124.824 169.119 123.542 171.682C122.261 174.245 121.62 177.138 121.62 180.362C121.62 183.586 122.261 186.479 123.542 189.042C124.824 191.605 126.663 193.63 129.06 195.118C131.499 196.606 134.392 197.35 137.74 197.35ZM192.333 202.62C188.199 202.62 184.479 201.731 181.173 199.954C177.907 198.135 175.324 195.552 173.423 192.204C171.563 188.815 170.633 184.867 170.633 180.362C170.633 175.857 171.563 171.93 173.423 168.582C175.324 165.193 177.907 162.609 181.173 160.832C184.479 159.013 188.199 158.104 192.333 158.104C195.143 158.104 197.644 158.435 199.835 159.096C202.067 159.757 204.278 160.708 206.469 161.948C207.378 162.444 207.833 163.229 207.833 164.304C207.833 164.924 207.605 165.482 207.151 165.978C206.696 166.433 206.097 166.66 205.353 166.66C204.939 166.66 204.567 166.577 204.237 166.412C202.418 165.461 200.641 164.738 198.905 164.242C197.169 163.746 195.164 163.498 192.891 163.498C189.336 163.498 186.298 164.242 183.777 165.73C181.297 167.177 179.416 169.181 178.135 171.744C176.895 174.265 176.275 177.138 176.275 180.362C176.275 183.586 176.895 186.479 178.135 189.042C179.416 191.563 181.297 193.568 183.777 195.056C186.298 196.503 189.336 197.226 192.891 197.226C195.164 197.226 197.169 196.978 198.905 196.482C200.641 195.986 202.418 195.263 204.237 194.312C204.567 194.147 204.939 194.064 205.353 194.064C206.097 194.064 206.696 194.291 207.151 194.746C207.605 195.201 207.833 195.759 207.833 196.42C207.833 197.495 207.378 198.28 206.469 198.776C204.278 200.016 202.067 200.967 199.835 201.628C197.644 202.289 195.143 202.62 192.333 202.62Z" fill="white"/>
<path d="M68.4878 201.194L69.902 199.78L68.4878 201.194ZM68.4878 159.592L69.902 161.006L69.9282 160.98L69.9534 160.953L68.4878 159.592ZM94.8998 161.886L93.8151 163.566L93.8274 163.574L93.8398 163.582L94.8998 161.886ZM102.34 169.946L100.551 170.84L102.34 169.946ZM102.34 190.778L100.551 189.884L102.34 190.778ZM94.8998 198.9L95.9694 200.59L95.9749 200.586L94.8998 198.9ZM91.1798 194.684L92.1195 196.449L92.1305 196.444L92.1415 196.438L91.1798 194.684ZM97.1318 188.918L98.8647 189.917L98.8683 189.91L98.8719 189.904L97.1318 188.918ZM97.1318 171.868L95.3918 172.854L95.3953 172.86L95.399 172.867L97.1318 171.868ZM91.1798 166.102L90.2182 167.856L90.2291 167.862L90.2401 167.867L91.1798 166.102ZM73.3238 163.994V161.994H71.3238V163.994H73.3238ZM73.3238 196.73H71.3238V198.73H73.3238V196.73ZM70.4718 200C70.1971 200 70.0505 199.928 69.902 199.78L67.0736 202.608C67.9998 203.534 69.1759 204 70.4718 204V200ZM69.902 199.78C69.7536 199.631 69.6818 199.485 69.6818 199.21H65.6818C65.6818 200.506 66.1474 201.682 67.0736 202.608L69.902 199.78ZM69.6818 199.21V161.576H65.6818V199.21H69.6818ZM69.6818 161.576C69.6818 161.301 69.7536 161.155 69.902 161.006L67.0736 158.178C66.1474 159.104 65.6818 160.28 65.6818 161.576H69.6818ZM69.9534 160.953C70.1147 160.779 70.2461 160.724 70.4718 160.724V156.724C69.1269 156.724 67.9356 157.247 67.0222 158.231L69.9534 160.953ZM70.4718 160.724H82.9338V156.724H70.4718V160.724ZM82.9338 160.724C87.3434 160.724 90.9359 161.708 93.8151 163.566L95.9846 160.206C92.333 157.848 87.9482 156.724 82.9338 156.724V160.724ZM93.8398 163.582C96.8523 165.465 99.0714 167.881 100.551 170.84L104.129 169.052C102.302 165.397 99.5607 162.441 95.9598 160.19L93.8398 163.582ZM100.551 170.84C102.068 173.874 102.82 177.04 102.82 180.362H106.82C106.82 176.409 105.919 172.631 104.129 169.052L100.551 170.84ZM102.82 180.362C102.82 183.684 102.068 186.85 100.551 189.884L104.129 191.672C105.919 188.093 106.82 184.315 106.82 180.362H102.82ZM100.551 189.884C99.0694 192.847 96.8455 195.288 93.8247 197.214L95.9749 200.586C99.5675 198.296 102.304 195.323 104.129 191.672L100.551 189.884ZM93.8302 197.21C90.9487 199.034 87.3506 200 82.9338 200V204C87.9411 204 92.3202 202.9 95.9694 200.59L93.8302 197.21ZM82.9338 200H70.4718V204H82.9338V200ZM82.2518 198.73C85.9138 198.73 89.2226 197.991 92.1195 196.449L90.2401 192.919C88.0117 194.105 85.3685 194.73 82.2518 194.73V198.73ZM92.1415 196.438C95.0126 194.863 97.2691 192.685 98.8647 189.917L95.399 187.919C94.1839 190.028 92.4724 191.694 90.2182 192.93L92.1415 196.438ZM98.8719 189.904C100.469 187.086 101.24 183.886 101.24 180.362H97.2398C97.2398 183.286 96.6054 185.79 95.3918 187.932L98.8719 189.904ZM101.24 180.362C101.24 176.839 100.469 173.654 98.8647 170.869L95.399 172.867C96.6051 174.96 97.2398 177.437 97.2398 180.362H101.24ZM98.8719 170.882C97.2756 168.065 95.011 165.876 92.1195 164.337L90.2401 167.867C92.4739 169.056 94.1774 170.711 95.3918 172.854L98.8719 170.882ZM92.1415 164.348C89.24 162.757 85.9233 161.994 82.2518 161.994V165.994C85.359 165.994 87.9943 166.636 90.2182 167.856L92.1415 164.348ZM82.2518 161.994H73.3238V165.994H82.2518V161.994ZM71.3238 163.994V196.73H75.3238V163.994H71.3238ZM73.3238 198.73H82.2518V194.73H73.3238V198.73ZM126.332 199.768L127.339 198.04L126.332 199.768ZM118.768 191.894L117.002 192.832L118.768 191.894ZM115.978 180.362L113.979 180.324L113.978 180.362L113.979 180.4L115.978 180.362ZM118.768 168.83L120.535 169.768L118.768 168.83ZM126.332 160.956L125.326 159.228V159.228L126.332 160.956ZM149.086 160.956L148.07 162.679L148.08 162.684L149.086 160.956ZM156.65 168.892L154.879 169.821L154.886 169.834L154.893 169.847L156.65 168.892ZM159.502 180.362L161.502 180.4L161.503 180.362L161.502 180.324L159.502 180.362ZM156.65 191.894L154.888 190.948L154.884 190.956L156.65 191.894ZM149.086 199.768L148.08 198.04L148.07 198.045L149.086 199.768ZM146.358 195.118L145.317 193.411L146.358 195.118ZM151.938 189.042L153.727 189.936V189.936L151.938 189.042ZM151.938 171.682L153.727 170.788V170.788L151.938 171.682ZM146.358 165.606L145.317 167.313L146.358 165.606ZM129.06 165.606L128.019 163.899L128.012 163.903L128.006 163.907L129.06 165.606ZM123.542 171.682L121.754 170.788L123.542 171.682ZM123.542 189.042L121.754 189.936L123.542 189.042ZM129.06 195.118L128.006 196.817L128.012 196.821L128.019 196.825L129.06 195.118ZM137.74 200.62C133.701 200.62 130.256 199.738 127.339 198.04L125.326 201.496C128.94 203.601 133.1 204.62 137.74 204.62V200.62ZM127.339 198.04C124.397 196.326 122.138 193.976 120.535 190.956L117.002 192.832C118.953 196.508 121.737 199.407 125.326 201.496L127.339 198.04ZM120.535 190.956C118.925 187.923 118.056 184.396 117.978 180.324L113.979 180.4C114.066 185.008 115.057 189.169 117.002 192.832L120.535 190.956ZM117.978 180.4C118.056 176.328 118.925 172.801 120.535 169.768L117.002 167.892C115.057 171.555 114.066 175.716 113.979 180.324L117.978 180.4ZM120.535 169.768C122.138 166.748 124.397 164.398 127.339 162.684L125.326 159.228C121.737 161.317 118.953 164.216 117.002 167.892L120.535 169.768ZM127.339 162.684C130.256 160.986 133.701 160.104 137.74 160.104V156.104C133.1 156.104 128.94 157.123 125.326 159.228L127.339 162.684ZM137.74 160.104C141.781 160.104 145.2 160.986 148.07 162.679L150.102 159.233C146.524 157.123 142.38 156.104 137.74 156.104V160.104ZM148.08 162.684C151.016 164.394 153.274 166.76 154.879 169.821L158.422 167.963C156.472 164.245 153.688 161.321 150.093 159.228L148.08 162.684ZM154.893 169.847C156.54 172.879 157.425 176.381 157.503 180.4L161.502 180.324C161.414 175.746 160.398 171.601 158.408 167.937L154.893 169.847ZM157.503 180.324C157.425 184.343 156.54 187.87 154.888 190.948L158.413 192.84C160.398 189.139 161.414 184.978 161.502 180.4L157.503 180.324ZM154.884 190.956C153.281 193.976 151.022 196.326 148.08 198.04L150.093 201.496C153.681 199.407 156.465 196.508 158.417 192.832L154.884 190.956ZM148.07 198.045C145.2 199.738 141.781 200.62 137.74 200.62V204.62C142.38 204.62 146.524 203.601 150.102 201.491L148.07 198.045ZM137.74 199.35C141.356 199.35 144.601 198.533 147.4 196.825L145.317 193.411C143.238 194.679 140.738 195.35 137.74 195.35V199.35ZM147.4 196.825C150.16 195.141 152.279 192.834 153.727 189.936L150.15 188.148C149.035 190.376 147.434 192.119 145.317 193.411L147.4 196.825ZM153.727 189.936C155.164 187.063 155.86 183.857 155.86 180.362H151.86C151.86 183.315 151.275 185.896 150.15 188.148L153.727 189.936ZM155.86 180.362C155.86 176.867 155.164 173.661 153.727 170.788L150.15 172.576C151.275 174.828 151.86 177.409 151.86 180.362H155.86ZM153.727 170.788C152.279 167.89 150.16 165.583 147.4 163.899L145.317 167.313C147.434 168.605 149.035 170.348 150.15 172.576L153.727 170.788ZM147.4 163.899C144.601 162.191 141.356 161.374 137.74 161.374V165.374C140.738 165.374 143.238 166.045 145.317 167.313L147.4 163.899ZM137.74 161.374C134.089 161.374 130.822 162.188 128.019 163.899L130.102 167.313C132.176 166.048 134.696 165.374 137.74 165.374V161.374ZM128.006 163.907C125.289 165.593 123.198 167.899 121.754 170.788L125.331 172.576C126.45 170.339 128.037 168.595 130.115 167.305L128.006 163.907ZM121.754 170.788C120.317 173.661 119.62 176.867 119.62 180.362H123.62C123.62 177.409 124.205 174.828 125.331 172.576L121.754 170.788ZM119.62 180.362C119.62 183.857 120.317 187.063 121.754 189.936L125.331 188.148C124.205 185.896 123.62 183.315 123.62 180.362H119.62ZM121.754 189.936C123.198 192.825 125.289 195.131 128.006 196.817L130.115 193.419C128.037 192.129 126.45 190.385 125.331 188.148L121.754 189.936ZM128.019 196.825C130.822 198.536 134.089 199.35 137.74 199.35V195.35C134.696 195.35 132.176 194.676 130.102 193.411L128.019 196.825ZM181.173 199.954L180.2 201.701L180.213 201.709L180.226 201.716L181.173 199.954ZM173.423 192.204L171.669 193.166L171.676 193.179L171.684 193.192L173.423 192.204ZM173.423 168.582L171.679 167.603L171.674 167.611L173.423 168.582ZM181.173 160.832L182.129 162.589L182.137 162.584L181.173 160.832ZM199.835 159.096L199.257 161.011L199.267 161.014L199.835 159.096ZM206.469 161.948L205.484 163.689L205.497 163.696L205.511 163.704L206.469 161.948ZM207.151 165.978L208.565 167.392L208.596 167.361L208.625 167.329L207.151 165.978ZM204.237 166.412L203.31 168.184L203.326 168.193L203.342 168.201L204.237 166.412ZM198.905 164.242L199.454 162.319L198.905 164.242ZM183.777 165.73L184.785 167.458L184.793 167.452L183.777 165.73ZM178.135 171.744L176.346 170.85L176.34 170.861L178.135 171.744ZM178.135 189.042L176.334 189.913L176.343 189.931L176.352 189.948L178.135 189.042ZM183.777 195.056L182.748 196.771L182.765 196.781L182.781 196.791L183.777 195.056ZM198.905 196.482L199.454 198.405L198.905 196.482ZM204.237 194.312L203.342 192.523L203.326 192.531L203.31 192.54L204.237 194.312ZM207.151 194.746L208.565 193.332L208.565 193.332L207.151 194.746ZM206.469 198.776L205.511 197.02L205.497 197.028L205.484 197.035L206.469 198.776ZM199.835 201.628L199.267 199.71L199.257 199.713L199.835 201.628ZM192.333 200.62C188.496 200.62 185.107 199.798 182.12 198.192L180.226 201.716C183.852 203.665 187.903 204.62 192.333 204.62V200.62ZM182.146 198.207C179.211 196.572 176.888 194.256 175.162 191.216L171.684 193.192C173.76 196.848 176.604 199.699 180.2 201.701L182.146 198.207ZM175.176 191.242C173.503 188.193 172.633 184.587 172.633 180.362H168.633C168.633 185.148 169.623 189.437 171.669 193.166L175.176 191.242ZM172.633 180.362C172.633 176.136 173.503 172.556 175.171 169.553L171.674 167.611C169.622 171.304 168.633 175.577 168.633 180.362H172.633ZM175.167 169.56C176.893 166.484 179.21 164.178 182.129 162.589L180.217 159.075C176.605 161.041 173.755 163.901 171.679 167.603L175.167 169.56ZM182.137 162.584C185.12 160.943 188.504 160.104 192.333 160.104V156.104C187.895 156.104 183.838 157.083 180.209 159.08L182.137 162.584ZM192.333 160.104C194.991 160.104 197.291 160.417 199.257 161.011L200.413 157.181C197.998 156.452 195.296 156.104 192.333 156.104V160.104ZM199.267 161.014C201.342 161.629 203.414 162.517 205.484 163.689L207.454 160.207C205.142 158.899 202.791 157.886 200.403 157.178L199.267 161.014ZM205.511 163.704C205.69 163.802 205.742 163.879 205.761 163.911C205.782 163.947 205.833 164.053 205.833 164.304H209.833C209.833 163.48 209.656 162.656 209.223 161.907C208.787 161.154 208.157 160.59 207.427 160.192L205.511 163.704ZM205.833 164.304C205.833 164.379 205.824 164.465 205.676 164.627L208.625 167.329C209.387 166.499 209.833 165.469 209.833 164.304H205.833ZM205.737 164.564C205.716 164.584 205.657 164.66 205.353 164.66V168.66C206.537 168.66 207.676 168.281 208.565 167.392L205.737 164.564ZM205.353 164.66C205.213 164.66 205.153 164.634 205.131 164.623L203.342 168.201C203.982 168.521 204.666 168.66 205.353 168.66V164.66ZM205.163 164.64C203.24 163.634 201.337 162.857 199.454 162.319L198.355 166.165C199.945 166.619 201.596 167.288 203.31 168.184L205.163 164.64ZM199.454 162.319C197.5 161.761 195.304 161.498 192.891 161.498V165.498C195.024 165.498 196.837 165.731 198.355 166.165L199.454 162.319ZM192.891 161.498C189.055 161.498 185.649 162.303 182.76 164.008L184.793 167.452C186.947 166.181 189.617 165.498 192.891 165.498V161.498ZM182.769 164.002C179.954 165.645 177.802 167.938 176.346 170.85L179.924 172.638C181.031 170.424 182.64 168.709 184.785 167.458L182.769 164.002ZM176.34 170.861C174.946 173.695 174.275 176.877 174.275 180.362H178.275C178.275 177.399 178.843 174.835 179.93 172.627L176.34 170.861ZM174.275 180.362C174.275 183.848 174.947 187.045 176.334 189.913L179.935 188.171C178.843 185.914 178.275 183.324 178.275 180.362H174.275ZM176.352 189.948C177.807 192.812 179.953 195.094 182.748 196.771L184.806 193.341C182.64 192.042 181.025 190.314 179.918 188.136L176.352 189.948ZM182.781 196.791C185.666 198.446 189.064 199.226 192.891 199.226V195.226C189.608 195.226 186.93 194.559 184.772 193.321L182.781 196.791ZM192.891 199.226C195.304 199.226 197.5 198.963 199.454 198.405L198.355 194.559C196.837 194.993 195.024 195.226 192.891 195.226V199.226ZM199.454 198.405C201.337 197.867 203.24 197.09 205.163 196.084L203.31 192.54C201.596 193.436 199.945 194.105 198.355 194.559L199.454 198.405ZM205.131 196.101C205.153 196.09 205.213 196.064 205.353 196.064V192.064C204.666 192.064 203.982 192.203 203.342 192.523L205.131 196.101ZM205.353 196.064C205.657 196.064 205.716 196.14 205.737 196.16L208.565 193.332C207.676 192.443 206.537 192.064 205.353 192.064V196.064ZM205.737 196.16C205.788 196.212 205.804 196.244 205.81 196.26C205.817 196.277 205.833 196.323 205.833 196.42H209.833C209.833 195.245 209.407 194.173 208.565 193.332L205.737 196.16ZM205.833 196.42C205.833 196.671 205.782 196.777 205.761 196.813C205.742 196.845 205.69 196.922 205.511 197.02L207.427 200.532C208.157 200.134 208.787 199.57 209.223 198.817C209.656 198.068 209.833 197.244 209.833 196.42H205.833ZM205.484 197.035C203.414 198.207 201.342 199.095 199.267 199.71L200.403 203.546C202.791 202.838 205.142 201.825 207.454 200.517L205.484 197.035ZM199.257 199.713C197.291 200.307 194.991 200.62 192.333 200.62V204.62C195.296 204.62 197.998 204.272 200.413 203.543L199.257 199.713Z" fill="white"/>
<g filter="url(#filter0_d_204_985)">
<path d="M272 102H192C179.85 102 170 92.1503 170 80V0L272 102Z" fill="url(#paint2_linear_204_985)"/>
</g>
</g>
<defs>
<filter id="filter0_d_204_985" x="147" y="-24" width="152" height="152" filterUnits="userSpaceOnUse" color-interpolation-filters="sRGB">
<feFlood flood-opacity="0" result="BackgroundImageFix"/>
<feColorMatrix in="SourceAlpha" type="matrix" values="0 0 0 0 0 0 0 0 0 0 0 0 0 0 0 0 0 0 127 0" result="hardAlpha"/>
<feOffset dx="2" dy="1"/>
<feGaussianBlur stdDeviation="12.5"/>
<feColorMatrix type="matrix" values="0 0 0 0 0 0 0 0 0 0 0 0 0 0 0 0 0 0 0.33 0"/>
<feBlend mode="normal" in2="BackgroundImageFix" result="effect1_dropShadow_204_985"/>
<feBlend mode="normal" in="SourceGraphic" in2="effect1_dropShadow_204_985" result="shape"/>
</filter>
<linearGradient id="paint0_linear_204_985" x1="136" y1="0" x2="136" y2="308" gradientUnits="userSpaceOnUse">
<stop stop-color="#FF7979"/>
<stop offset="1" stop-color="#E85555"/>
</linearGradient>
<linearGradient id="paint1_linear_204_985" x1="136" y1="0" x2="136" y2="308" gradientUnits="userSpaceOnUse">
<stop stop-color="#FF7981"/>
<stop offset="1" stop-color="#E85567"/>
</linearGradient>
<linearGradient id="paint2_linear_204_985" x1="221" y1="0" x2="221" y2="102" gradientUnits="userSpaceOnUse">
<stop stop-color="#D03954"/>
<stop offset="1" stop-color="#C02A3C"/>
</linearGradient>
</defs>
</svg>
