<svg width="272" height="308" viewBox="0 0 272 308" fill="none" xmlns="http://www.w3.org/2000/svg">
<mask id="mask0_304_29" style="mask-type:alpha" maskUnits="userSpaceOnUse" x="0" y="0" width="272" height="308">
<path d="M250 308H22C9.84974 308 0 298.15 0 286V22C0 9.84974 9.84974 0 22 0H170L272 102V286C272 298.15 262.15 308 250 308Z" fill="url(#paint0_linear_304_29)"/>
</mask>
<g mask="url(#mask0_304_29)">
<path d="M250 308H22C9.84974 308 0 298.15 0 286V22C0 9.84974 9.84974 0 22 0H170L272 102V286C272 298.15 262.15 308 250 308Z" fill="url(#paint1_linear_304_29)"/>
<g opacity="0.23" filter="url(#filter0_f_304_29)">
<rect x="15" y="149" width="244" height="84" fill="#E32E06" style="mix-blend-mode:darken"/>
</g>
<mask id="path-4-outside-1_304_29" maskUnits="userSpaceOnUse" x="39" y="156" width="195" height="49" fill="black">
<rect fill="white" x="39" y="156" width="195" height="49"/>
<path d="M44.2344 202.31C43.4491 202.31 42.7878 202.041 42.2504 201.504C41.7131 200.967 41.4444 200.305 41.4444 199.52V162.506C41.4444 161.39 41.8371 160.439 42.6224 159.654C43.4078 158.827 44.3584 158.414 45.4744 158.414H47.5204C48.3471 158.414 49.0911 158.662 49.7524 159.158C50.4551 159.654 50.9718 160.274 51.3024 161.018L65.3764 196.11L79.4504 161.018C79.7811 160.274 80.2771 159.654 80.9384 159.158C81.6411 158.662 82.4058 158.414 83.2324 158.414H85.2784C86.3944 158.414 87.3451 158.827 88.1304 159.654C88.9158 160.439 89.3084 161.39 89.3084 162.506V199.52C89.3084 200.305 89.0398 200.967 88.5024 201.504C87.9651 202.041 87.3038 202.31 86.5184 202.31C85.7331 202.31 85.0511 202.041 84.4724 201.504C83.9351 200.967 83.6664 200.305 83.6664 199.52V164.304L69.3444 199.706C69.0138 200.491 68.4764 201.132 67.7324 201.628C67.0298 202.083 66.2444 202.31 65.3764 202.31C64.5084 202.31 63.7024 202.083 62.9584 201.628C62.2558 201.132 61.7391 200.491 61.4084 199.706L47.0864 164.304V199.52C47.0864 200.305 46.7971 200.967 46.2184 201.504C45.6811 202.041 45.0198 202.31 44.2344 202.31ZM108.455 202.31C107.67 202.31 107.009 202.041 106.471 201.504C105.934 200.967 105.665 200.305 105.665 199.52V161.576C105.665 160.791 105.934 160.129 106.471 159.592C107.009 159.013 107.67 158.724 108.455 158.724H122.591C126.518 158.724 129.721 159.385 132.201 160.708C134.681 162.031 136.459 163.725 137.533 165.792C138.608 167.859 139.145 170.091 139.145 172.488C139.145 174.885 138.608 177.117 137.533 179.184C136.459 181.251 134.681 182.945 132.201 184.268C129.721 185.591 126.518 186.252 122.591 186.252H111.307V199.52C111.307 200.305 111.018 200.967 110.439 201.504C109.902 202.041 109.241 202.31 108.455 202.31ZM122.033 180.92C126.249 180.92 129.205 180.114 130.899 178.502C132.635 176.89 133.503 174.885 133.503 172.488C133.503 170.091 132.635 168.086 130.899 166.474C129.205 164.862 126.249 164.056 122.033 164.056H111.307V180.92H122.033ZM154.452 202.31C153.666 202.31 153.005 202.041 152.468 201.504C151.93 200.967 151.662 200.305 151.662 199.52V161.266C151.662 160.481 151.93 159.819 152.468 159.282C153.005 158.703 153.666 158.414 154.452 158.414C155.237 158.414 155.898 158.703 156.436 159.282C157.014 159.819 157.304 160.481 157.304 161.266V180.982L178.508 159.406C179.086 158.745 179.789 158.414 180.616 158.414C181.318 158.414 181.918 158.662 182.414 159.158C182.951 159.613 183.22 160.191 183.22 160.894C183.22 161.721 182.992 162.361 182.538 162.816L168.216 177.076L184.646 197.784C185.1 198.363 185.328 198.962 185.328 199.582C185.369 200.326 185.121 200.967 184.584 201.504C184.046 202.041 183.385 202.31 182.6 202.31C181.649 202.31 180.905 201.938 180.368 201.194L164.372 180.796L157.304 187.926V199.52C157.304 200.305 157.014 200.967 156.436 201.504C155.898 202.041 155.237 202.31 154.452 202.31ZM214.818 202.62C210.56 202.62 206.778 201.69 203.472 199.83C200.165 197.929 197.602 195.304 195.784 191.956C193.965 188.567 193.056 184.723 193.056 180.424C193.056 176.043 194.006 172.157 195.908 168.768C197.809 165.379 200.392 162.754 203.658 160.894C206.964 159.034 210.622 158.104 214.632 158.104C217.856 158.104 220.666 158.497 223.064 159.282C225.502 160.067 227.838 161.163 230.07 162.568C230.4 162.733 230.69 163.023 230.938 163.436C231.186 163.849 231.31 164.304 231.31 164.8C231.31 165.503 231.062 166.102 230.566 166.598C230.111 167.094 229.491 167.342 228.706 167.342C228.251 167.342 227.817 167.239 227.404 167.032C225.461 165.875 223.518 165.007 221.576 164.428C219.633 163.849 217.525 163.56 215.252 163.56C212.11 163.56 209.279 164.221 206.758 165.544C204.236 166.867 202.252 168.809 200.806 171.372C199.4 173.893 198.698 176.911 198.698 180.424C198.698 183.648 199.359 186.541 200.682 189.104C202.046 191.625 203.988 193.63 206.51 195.118C209.072 196.565 212.09 197.288 215.562 197.288C219.447 197.288 223.064 196.379 226.412 194.56V183.338H216.182C215.479 183.338 214.88 183.09 214.384 182.594C213.888 182.098 213.64 181.499 213.64 180.796C213.64 180.093 213.888 179.494 214.384 178.998C214.88 178.502 215.479 178.254 216.182 178.254H228.396C229.222 178.254 229.925 178.543 230.504 179.122C231.082 179.701 231.372 180.403 231.372 181.23V195.304C231.372 196.172 231.144 196.957 230.69 197.66C230.276 198.321 229.718 198.817 229.016 199.148C224.386 201.463 219.654 202.62 214.818 202.62Z"/>
</mask>
<path d="M44.2344 202.31C43.4491 202.31 42.7878 202.041 42.2504 201.504C41.7131 200.967 41.4444 200.305 41.4444 199.52V162.506C41.4444 161.39 41.8371 160.439 42.6224 159.654C43.4078 158.827 44.3584 158.414 45.4744 158.414H47.5204C48.3471 158.414 49.0911 158.662 49.7524 159.158C50.4551 159.654 50.9718 160.274 51.3024 161.018L65.3764 196.11L79.4504 161.018C79.7811 160.274 80.2771 159.654 80.9384 159.158C81.6411 158.662 82.4058 158.414 83.2324 158.414H85.2784C86.3944 158.414 87.3451 158.827 88.1304 159.654C88.9158 160.439 89.3084 161.39 89.3084 162.506V199.52C89.3084 200.305 89.0398 200.967 88.5024 201.504C87.9651 202.041 87.3038 202.31 86.5184 202.31C85.7331 202.31 85.0511 202.041 84.4724 201.504C83.9351 200.967 83.6664 200.305 83.6664 199.52V164.304L69.3444 199.706C69.0138 200.491 68.4764 201.132 67.7324 201.628C67.0298 202.083 66.2444 202.31 65.3764 202.31C64.5084 202.31 63.7024 202.083 62.9584 201.628C62.2558 201.132 61.7391 200.491 61.4084 199.706L47.0864 164.304V199.52C47.0864 200.305 46.7971 200.967 46.2184 201.504C45.6811 202.041 45.0198 202.31 44.2344 202.31ZM108.455 202.31C107.67 202.31 107.009 202.041 106.471 201.504C105.934 200.967 105.665 200.305 105.665 199.52V161.576C105.665 160.791 105.934 160.129 106.471 159.592C107.009 159.013 107.67 158.724 108.455 158.724H122.591C126.518 158.724 129.721 159.385 132.201 160.708C134.681 162.031 136.459 163.725 137.533 165.792C138.608 167.859 139.145 170.091 139.145 172.488C139.145 174.885 138.608 177.117 137.533 179.184C136.459 181.251 134.681 182.945 132.201 184.268C129.721 185.591 126.518 186.252 122.591 186.252H111.307V199.52C111.307 200.305 111.018 200.967 110.439 201.504C109.902 202.041 109.241 202.31 108.455 202.31ZM122.033 180.92C126.249 180.92 129.205 180.114 130.899 178.502C132.635 176.89 133.503 174.885 133.503 172.488C133.503 170.091 132.635 168.086 130.899 166.474C129.205 164.862 126.249 164.056 122.033 164.056H111.307V180.92H122.033ZM154.452 202.31C153.666 202.31 153.005 202.041 152.468 201.504C151.93 200.967 151.662 200.305 151.662 199.52V161.266C151.662 160.481 151.93 159.819 152.468 159.282C153.005 158.703 153.666 158.414 154.452 158.414C155.237 158.414 155.898 158.703 156.436 159.282C157.014 159.819 157.304 160.481 157.304 161.266V180.982L178.508 159.406C179.086 158.745 179.789 158.414 180.616 158.414C181.318 158.414 181.918 158.662 182.414 159.158C182.951 159.613 183.22 160.191 183.22 160.894C183.22 161.721 182.992 162.361 182.538 162.816L168.216 177.076L184.646 197.784C185.1 198.363 185.328 198.962 185.328 199.582C185.369 200.326 185.121 200.967 184.584 201.504C184.046 202.041 183.385 202.31 182.6 202.31C181.649 202.31 180.905 201.938 180.368 201.194L164.372 180.796L157.304 187.926V199.52C157.304 200.305 157.014 200.967 156.436 201.504C155.898 202.041 155.237 202.31 154.452 202.31ZM214.818 202.62C210.56 202.62 206.778 201.69 203.472 199.83C200.165 197.929 197.602 195.304 195.784 191.956C193.965 188.567 193.056 184.723 193.056 180.424C193.056 176.043 194.006 172.157 195.908 168.768C197.809 165.379 200.392 162.754 203.658 160.894C206.964 159.034 210.622 158.104 214.632 158.104C217.856 158.104 220.666 158.497 223.064 159.282C225.502 160.067 227.838 161.163 230.07 162.568C230.4 162.733 230.69 163.023 230.938 163.436C231.186 163.849 231.31 164.304 231.31 164.8C231.31 165.503 231.062 166.102 230.566 166.598C230.111 167.094 229.491 167.342 228.706 167.342C228.251 167.342 227.817 167.239 227.404 167.032C225.461 165.875 223.518 165.007 221.576 164.428C219.633 163.849 217.525 163.56 215.252 163.56C212.11 163.56 209.279 164.221 206.758 165.544C204.236 166.867 202.252 168.809 200.806 171.372C199.4 173.893 198.698 176.911 198.698 180.424C198.698 183.648 199.359 186.541 200.682 189.104C202.046 191.625 203.988 193.63 206.51 195.118C209.072 196.565 212.09 197.288 215.562 197.288C219.447 197.288 223.064 196.379 226.412 194.56V183.338H216.182C215.479 183.338 214.88 183.09 214.384 182.594C213.888 182.098 213.64 181.499 213.64 180.796C213.64 180.093 213.888 179.494 214.384 178.998C214.88 178.502 215.479 178.254 216.182 178.254H228.396C229.222 178.254 229.925 178.543 230.504 179.122C231.082 179.701 231.372 180.403 231.372 181.23V195.304C231.372 196.172 231.144 196.957 230.69 197.66C230.276 198.321 229.718 198.817 229.016 199.148C224.386 201.463 219.654 202.62 214.818 202.62Z" fill="white"/>
<path d="M42.2504 201.504L43.6646 200.09L42.2504 201.504ZM42.6224 159.654L44.0366 161.068L44.0548 161.05L44.0724 161.031L42.6224 159.654ZM49.7524 159.158L48.5524 160.758L48.5755 160.775L48.5991 160.792L49.7524 159.158ZM51.3024 161.018L53.1587 160.274L53.145 160.239L53.1301 160.206L51.3024 161.018ZM65.3764 196.11L63.5202 196.854L65.3764 201.483L67.2327 196.854L65.3764 196.11ZM79.4504 161.018L77.6228 160.206L77.6079 160.239L77.5942 160.274L79.4504 161.018ZM80.9384 159.158L79.7851 157.524L79.7615 157.541L79.7384 157.558L80.9384 159.158ZM88.1304 159.654L86.6804 161.031L86.6981 161.05L86.7162 161.068L88.1304 159.654ZM88.5024 201.504L89.9166 202.918L89.9166 202.918L88.5024 201.504ZM84.4724 201.504L83.0582 202.918L83.0844 202.944L83.1115 202.97L84.4724 201.504ZM83.6664 164.304H85.6664L81.8124 163.554L83.6664 164.304ZM69.3444 199.706L71.1877 200.482L71.1932 200.469L71.1985 200.456L69.3444 199.706ZM67.7324 201.628L68.8189 203.307L68.8304 203.3L68.8418 203.292L67.7324 201.628ZM62.9584 201.628L61.8051 203.262L61.8591 203.3L61.9155 203.335L62.9584 201.628ZM61.4084 199.706L59.5544 200.456L59.5597 200.469L59.5652 200.482L61.4084 199.706ZM47.0864 164.304L48.9405 163.554L45.0864 164.304H47.0864ZM46.2184 201.504L44.8575 200.038L44.8304 200.064L44.8042 200.09L46.2184 201.504ZM44.2344 200.31C43.9597 200.31 43.8131 200.238 43.6646 200.09L40.8362 202.918C41.7624 203.844 42.9385 204.31 44.2344 204.31V200.31ZM43.6646 200.09C43.5162 199.941 43.4444 199.795 43.4444 199.52H39.4444C39.4444 200.816 39.91 201.992 40.8362 202.918L43.6646 200.09ZM43.4444 199.52V162.506H39.4444V199.52H43.4444ZM43.4444 162.506C43.4444 161.918 43.6284 161.476 44.0366 161.068L41.2082 158.24C40.0458 159.402 39.4444 160.862 39.4444 162.506H43.4444ZM44.0724 161.031C44.4894 160.593 44.92 160.414 45.4744 160.414V156.414C43.7969 156.414 42.3261 157.062 41.1724 158.276L44.0724 161.031ZM45.4744 160.414H47.5204V156.414H45.4744V160.414ZM47.5204 160.414C47.9144 160.414 48.2373 160.522 48.5524 160.758L50.9524 157.558C49.9449 156.802 48.7798 156.414 47.5204 156.414V160.414ZM48.5991 160.792C49.0243 161.092 49.299 161.435 49.4748 161.83L53.1301 160.206C52.6445 159.113 51.8859 158.216 50.9058 157.524L48.5991 160.792ZM49.4462 161.762L63.5202 196.854L67.2327 195.366L53.1587 160.274L49.4462 161.762ZM67.2327 196.854L81.3067 161.762L77.5942 160.274L63.5202 195.366L67.2327 196.854ZM81.2781 161.83C81.4679 161.403 81.7457 161.053 82.1384 160.758L79.7384 157.558C78.8085 158.255 78.0943 159.145 77.6228 160.206L81.2781 161.83ZM82.0918 160.792C82.4715 160.524 82.8362 160.414 83.2324 160.414V156.414C81.9753 156.414 80.8106 156.8 79.7851 157.524L82.0918 160.792ZM83.2324 160.414H85.2784V156.414H83.2324V160.414ZM85.2784 160.414C85.8329 160.414 86.2634 160.593 86.6804 161.031L89.5804 158.276C88.4268 157.062 86.956 156.414 85.2784 156.414V160.414ZM86.7162 161.068C87.1244 161.476 87.3084 161.918 87.3084 162.506H91.3084C91.3084 160.862 90.7071 159.402 89.5446 158.24L86.7162 161.068ZM87.3084 162.506V199.52H91.3084V162.506H87.3084ZM87.3084 199.52C87.3084 199.795 87.2367 199.941 87.0882 200.09L89.9166 202.918C90.8428 201.992 91.3084 200.816 91.3084 199.52H87.3084ZM87.0882 200.09C86.9398 200.238 86.7932 200.31 86.5184 200.31V204.31C87.8144 204.31 88.9904 203.844 89.9166 202.918L87.0882 200.09ZM86.5184 200.31C86.241 200.31 86.0443 200.234 85.8333 200.038L83.1115 202.97C84.0579 203.848 85.2252 204.31 86.5184 204.31V200.31ZM85.8866 200.09C85.7382 199.941 85.6664 199.795 85.6664 199.52H81.6664C81.6664 200.816 82.132 201.992 83.0582 202.918L85.8866 200.09ZM85.6664 199.52V164.304H81.6664V199.52H85.6664ZM81.8124 163.554L67.4904 198.956L71.1985 200.456L85.5205 165.054L81.8124 163.554ZM67.5012 198.93C67.3305 199.335 67.0576 199.674 66.623 199.964L68.8418 203.292C69.8953 202.59 70.6971 201.647 71.1877 200.482L67.5012 198.93ZM66.6459 199.949C66.2794 200.186 65.874 200.31 65.3764 200.31V204.31C66.6149 204.31 67.7801 203.979 68.8189 203.307L66.6459 199.949ZM65.3764 200.31C64.8782 200.31 64.4328 200.185 64.0013 199.921L61.9155 203.335C62.972 203.98 64.1387 204.31 65.3764 204.31V200.31ZM64.1118 199.994C63.7118 199.712 63.4357 199.367 63.2517 198.93L59.5652 200.482C60.0425 201.616 60.7997 202.552 61.8051 203.262L64.1118 199.994ZM63.2625 198.956L48.9405 163.554L45.2324 165.054L59.5544 200.456L63.2625 198.956ZM45.0864 164.304V199.52H49.0864V164.304H45.0864ZM45.0864 199.52C45.0864 199.746 45.0312 199.877 44.8575 200.038L47.5793 202.97C48.563 202.056 49.0864 200.865 49.0864 199.52H45.0864ZM44.8042 200.09C44.6558 200.238 44.5092 200.31 44.2344 200.31V204.31C45.5304 204.31 46.7064 203.844 47.6326 202.918L44.8042 200.09ZM106.471 201.504L107.885 200.09L106.471 201.504ZM106.471 159.592L107.885 161.006L107.912 160.98L107.937 160.953L106.471 159.592ZM132.201 160.708L133.142 158.943L132.201 160.708ZM137.533 165.792L135.759 166.715L137.533 165.792ZM137.533 179.184L135.759 178.261V178.261L137.533 179.184ZM132.201 184.268L133.142 186.033L132.201 184.268ZM111.307 186.252V184.252H109.307V186.252H111.307ZM110.439 201.504L109.078 200.038L109.051 200.064L109.025 200.09L110.439 201.504ZM130.899 178.502L129.538 177.036L129.53 177.045L129.521 177.053L130.899 178.502ZM130.899 166.474L129.521 167.923L129.53 167.931L129.538 167.94L130.899 166.474ZM111.307 164.056V162.056H109.307V164.056H111.307ZM111.307 180.92H109.307V182.92H111.307V180.92ZM108.455 200.31C108.181 200.31 108.034 200.238 107.885 200.09L105.057 202.918C105.983 203.844 107.159 204.31 108.455 204.31V200.31ZM107.885 200.09C107.737 199.941 107.665 199.795 107.665 199.52H103.665C103.665 200.816 104.131 201.992 105.057 202.918L107.885 200.09ZM107.665 199.52V161.576H103.665V199.52H107.665ZM107.665 161.576C107.665 161.301 107.737 161.155 107.885 161.006L105.057 158.178C104.131 159.104 103.665 160.28 103.665 161.576H107.665ZM107.937 160.953C108.098 160.779 108.23 160.724 108.455 160.724V156.724C107.11 156.724 105.919 157.247 105.006 158.231L107.937 160.953ZM108.455 160.724H122.591V156.724H108.455V160.724ZM122.591 160.724C126.313 160.724 129.162 161.354 131.26 162.473L133.142 158.943C130.281 157.417 126.723 156.724 122.591 156.724V160.724ZM131.26 162.473C133.459 163.645 134.906 165.075 135.759 166.715L139.308 164.869C138.011 162.376 135.904 160.416 133.142 158.943L131.26 162.473ZM135.759 166.715C136.681 168.488 137.145 170.402 137.145 172.488H141.145C141.145 169.779 140.535 167.229 139.308 164.869L135.759 166.715ZM137.145 172.488C137.145 174.574 136.681 176.488 135.759 178.261L139.308 180.107C140.535 177.747 141.145 175.197 141.145 172.488H137.145ZM135.759 178.261C134.906 179.901 133.459 181.331 131.26 182.503L133.142 186.033C135.904 184.56 138.011 182.6 139.308 180.107L135.759 178.261ZM131.26 182.503C129.162 183.622 126.313 184.252 122.591 184.252V188.252C126.723 188.252 130.281 187.559 133.142 186.033L131.26 182.503ZM122.591 184.252H111.307V188.252H122.591V184.252ZM109.307 186.252V199.52H113.307V186.252H109.307ZM109.307 199.52C109.307 199.746 109.252 199.877 109.078 200.038L111.8 202.97C112.784 202.056 113.307 200.865 113.307 199.52H109.307ZM109.025 200.09C108.877 200.238 108.73 200.31 108.455 200.31V204.31C109.751 204.31 110.927 203.844 111.854 202.918L109.025 200.09ZM122.033 182.92C126.389 182.92 130.008 182.11 132.278 179.951L129.521 177.053C128.401 178.118 126.109 178.92 122.033 178.92V182.92ZM132.26 179.968C134.409 177.972 135.503 175.434 135.503 172.488H131.503C131.503 174.337 130.861 175.808 129.538 177.036L132.26 179.968ZM135.503 172.488C135.503 169.542 134.409 167.004 132.26 165.008L129.538 167.94C130.861 169.168 131.503 170.639 131.503 172.488H135.503ZM132.278 165.025C130.008 162.866 126.389 162.056 122.033 162.056V166.056C126.109 166.056 128.401 166.858 129.521 167.923L132.278 165.025ZM122.033 162.056H111.307V166.056H122.033V162.056ZM109.307 164.056V180.92H113.307V164.056H109.307ZM111.307 182.92H122.033V178.92H111.307V182.92ZM152.468 201.504L153.882 200.09L152.468 201.504ZM152.468 159.282L153.882 160.696L153.908 160.67L153.933 160.643L152.468 159.282ZM156.436 159.282L154.97 160.643L155.02 160.697L155.075 160.748L156.436 159.282ZM157.304 180.982H155.304V185.87L158.73 182.384L157.304 180.982ZM178.508 159.406L179.934 160.808L179.975 160.767L180.013 160.723L178.508 159.406ZM182.414 159.158L180.999 160.572L181.058 160.631L181.122 160.685L182.414 159.158ZM182.538 162.816L183.949 164.233L183.952 164.23L182.538 162.816ZM168.216 177.076L166.804 175.659L165.538 176.919L166.649 178.319L168.216 177.076ZM184.646 197.784L186.218 196.548L186.212 196.541L184.646 197.784ZM185.328 199.582H183.328V199.638L183.331 199.693L185.328 199.582ZM184.584 201.504L185.998 202.918L184.584 201.504ZM180.368 201.194L181.989 200.023L181.966 199.991L181.941 199.96L180.368 201.194ZM164.372 180.796L165.945 179.562L164.547 177.778L162.951 179.388L164.372 180.796ZM157.304 187.926L155.883 186.518L155.304 187.103V187.926H157.304ZM156.436 201.504L155.075 200.038L155.048 200.064L155.021 200.09L156.436 201.504ZM154.452 200.31C154.177 200.31 154.03 200.238 153.882 200.09L151.053 202.918C151.98 203.844 153.156 204.31 154.452 204.31V200.31ZM153.882 200.09C153.733 199.941 153.662 199.795 153.662 199.52H149.662C149.662 200.816 150.127 201.992 151.053 202.918L153.882 200.09ZM153.662 199.52V161.266H149.662V199.52H153.662ZM153.662 161.266C153.662 160.991 153.733 160.845 153.882 160.696L151.053 157.868C150.127 158.794 149.662 159.97 149.662 161.266H153.662ZM153.933 160.643C154.094 160.469 154.226 160.414 154.452 160.414V156.414C153.107 156.414 151.915 156.937 151.002 157.921L153.933 160.643ZM154.452 160.414C154.677 160.414 154.809 160.469 154.97 160.643L157.901 157.921C156.988 156.937 155.796 156.414 154.452 156.414V160.414ZM155.075 160.748C155.248 160.909 155.304 161.04 155.304 161.266H159.304C159.304 159.921 158.78 158.73 157.796 157.816L155.075 160.748ZM155.304 161.266V180.982H159.304V161.266H155.304ZM158.73 182.384L179.934 160.808L177.081 158.004L155.877 179.58L158.73 182.384ZM180.013 160.723C180.239 160.465 180.406 160.414 180.616 160.414V156.414C179.172 156.414 177.934 157.025 177.002 158.089L180.013 160.723ZM180.616 160.414C180.789 160.414 180.879 160.452 180.999 160.572L183.828 157.744C182.956 156.872 181.848 156.414 180.616 156.414V160.414ZM181.122 160.685C181.159 160.716 181.179 160.739 181.189 160.752C181.199 160.765 181.203 160.772 181.204 160.775C181.205 160.778 181.209 160.786 181.212 160.801C181.215 160.816 181.22 160.846 181.22 160.894H185.22C185.22 159.602 184.691 158.465 183.705 157.631L181.122 160.685ZM181.22 160.894C181.22 161.127 181.187 161.261 181.164 161.326C181.144 161.382 181.128 161.397 181.123 161.402L183.952 164.23C184.88 163.302 185.22 162.093 185.22 160.894H181.22ZM181.126 161.399L166.804 175.659L169.627 178.493L183.949 164.233L181.126 161.399ZM166.649 178.319L183.079 199.027L186.212 196.541L169.782 175.833L166.649 178.319ZM183.073 199.02C183.304 199.314 183.328 199.49 183.328 199.582H187.328C187.328 198.434 186.896 197.411 186.218 196.548L183.073 199.02ZM183.331 199.693C183.34 199.856 183.313 199.946 183.169 200.09L185.998 202.918C186.928 201.988 187.398 200.796 187.324 199.471L183.331 199.693ZM183.169 200.09C183.021 200.238 182.874 200.31 182.6 200.31V204.31C183.895 204.31 185.072 203.844 185.998 202.918L183.169 200.09ZM182.6 200.31C182.264 200.31 182.135 200.225 181.989 200.023L178.746 202.365C179.675 203.651 181.034 204.31 182.6 204.31V200.31ZM181.941 199.96L165.945 179.562L162.798 182.03L178.794 202.428L181.941 199.96ZM162.951 179.388L155.883 186.518L158.724 189.334L165.792 182.204L162.951 179.388ZM155.304 187.926V199.52H159.304V187.926H155.304ZM155.304 199.52C155.304 199.746 155.248 199.877 155.075 200.038L157.796 202.97C158.78 202.056 159.304 200.865 159.304 199.52H155.304ZM155.021 200.09C154.873 200.238 154.726 200.31 154.452 200.31V204.31C155.747 204.31 156.924 203.844 157.85 202.918L155.021 200.09ZM203.472 199.83L202.475 201.564L202.483 201.569L202.491 201.573L203.472 199.83ZM195.784 191.956L194.021 192.902L194.026 192.911L195.784 191.956ZM195.908 168.768L197.652 169.747V169.747L195.908 168.768ZM203.658 160.894L202.677 159.151L202.668 159.156L203.658 160.894ZM223.064 159.282L222.441 161.183L222.451 161.186L223.064 159.282ZM230.07 162.568L229.004 164.26L229.087 164.313L229.175 164.357L230.07 162.568ZM230.938 163.436L229.223 164.465V164.465L230.938 163.436ZM230.566 166.598L229.152 165.184L229.121 165.215L229.091 165.247L230.566 166.598ZM227.404 167.032L226.38 168.75L226.443 168.788L226.509 168.821L227.404 167.032ZM221.576 164.428L222.147 162.511L221.576 164.428ZM206.758 165.544L207.687 167.315L207.687 167.315L206.758 165.544ZM200.806 171.372L199.064 170.389L199.059 170.398L200.806 171.372ZM200.682 189.104L198.905 190.021L198.913 190.039L198.923 190.056L200.682 189.104ZM206.51 195.118L205.493 196.84L205.51 196.85L205.527 196.86L206.51 195.118ZM226.412 194.56L227.366 196.317L228.412 195.75V194.56H226.412ZM226.412 183.338H228.412V181.338H226.412V183.338ZM230.69 197.66L229.011 196.573L229.002 196.587L228.994 196.6L230.69 197.66ZM229.016 199.148L228.164 197.338L228.143 197.348L228.121 197.359L229.016 199.148ZM214.818 200.62C210.861 200.62 207.424 199.759 204.452 198.087L202.491 201.573C206.132 203.621 210.26 204.62 214.818 204.62V200.62ZM204.469 198.096C201.482 196.379 199.183 194.024 197.541 191.001L194.026 192.911C196.022 196.584 198.848 199.478 202.475 201.564L204.469 198.096ZM197.546 191.01C195.901 187.945 195.056 184.432 195.056 180.424H191.056C191.056 185.013 192.029 189.189 194.021 192.902L197.546 191.01ZM195.056 180.424C195.056 176.341 195.939 172.8 197.652 169.747L194.163 167.789C192.074 171.514 191.056 175.744 191.056 180.424H195.056ZM197.652 169.747C199.382 166.663 201.709 164.306 204.648 162.632L202.668 159.156C199.076 161.202 196.236 164.095 194.163 167.789L197.652 169.747ZM204.638 162.637C207.628 160.955 210.946 160.104 214.632 160.104V156.104C210.299 156.104 206.3 157.113 202.677 159.151L204.638 162.637ZM214.632 160.104C217.7 160.104 220.292 160.478 222.441 161.183L223.686 157.381C221.041 156.515 218.011 156.104 214.632 156.104V160.104ZM222.451 161.186C224.726 161.918 226.909 162.942 229.004 164.26L231.135 160.876C228.766 159.384 226.279 158.216 223.677 157.378L222.451 161.186ZM229.175 164.357C229.129 164.334 229.112 164.314 229.121 164.323C229.131 164.334 229.168 164.374 229.223 164.465L232.653 162.407C232.268 161.765 231.724 161.159 230.964 160.779L229.175 164.357ZM229.223 164.465C229.279 164.558 229.31 164.655 229.31 164.8H233.31C233.31 163.953 233.093 163.14 232.653 162.407L229.223 164.465ZM229.31 164.8C229.31 164.973 229.272 165.064 229.152 165.184L231.98 168.012C232.852 167.14 233.31 166.032 233.31 164.8H229.31ZM229.091 165.247C229.065 165.275 229.046 165.287 229.017 165.299C228.981 165.313 228.888 165.342 228.706 165.342V169.342C229.949 169.342 231.142 168.929 232.04 167.949L229.091 165.247ZM228.706 165.342C228.567 165.342 228.439 165.313 228.298 165.243L226.509 168.821C227.196 169.164 227.935 169.342 228.706 169.342V165.342ZM228.427 165.314C226.359 164.081 224.265 163.142 222.147 162.511L221.005 166.345C222.772 166.871 224.563 167.668 226.38 168.75L228.427 165.314ZM222.147 162.511C219.998 161.871 217.695 161.56 215.252 161.56V165.56C217.355 165.56 219.268 165.828 221.005 166.345L222.147 162.511ZM215.252 161.56C211.821 161.56 208.665 162.285 205.829 163.773L207.687 167.315C209.893 166.158 212.4 165.56 215.252 165.56V161.56ZM205.829 163.773C202.954 165.281 200.693 167.503 199.064 170.389L202.547 172.355C203.811 170.116 205.518 168.453 207.687 167.315L205.829 163.773ZM199.059 170.398C197.455 173.276 196.698 176.643 196.698 180.424H200.698C200.698 177.178 201.346 174.511 202.553 172.346L199.059 170.398ZM196.698 180.424C196.698 183.929 197.419 187.143 198.905 190.021L202.459 188.187C201.299 185.94 200.698 183.367 200.698 180.424H196.698ZM198.923 190.056C200.463 192.904 202.666 195.172 205.493 196.84L207.526 193.396C205.311 192.088 203.628 190.347 202.441 188.152L198.923 190.056ZM205.527 196.86C208.439 198.504 211.807 199.288 215.562 199.288V195.288C212.372 195.288 209.706 194.625 207.493 193.376L205.527 196.86ZM215.562 199.288C219.774 199.288 223.719 198.299 227.366 196.317L225.457 192.803C222.408 194.459 219.12 195.288 215.562 195.288V199.288ZM228.412 194.56V183.338H224.412V194.56H228.412ZM226.412 181.338H216.182V185.338H226.412V181.338ZM216.182 181.338C216.008 181.338 215.918 181.3 215.798 181.18L212.97 184.008C213.841 184.88 214.95 185.338 216.182 185.338V181.338ZM215.798 181.18C215.678 181.06 215.64 180.969 215.64 180.796H211.64C211.64 182.028 212.098 183.136 212.97 184.008L215.798 181.18ZM215.64 180.796C215.64 180.623 215.678 180.532 215.798 180.412L212.97 177.584C212.098 178.456 211.64 179.564 211.64 180.796H215.64ZM215.798 180.412C215.918 180.292 216.008 180.254 216.182 180.254V176.254C214.95 176.254 213.841 176.712 212.97 177.584L215.798 180.412ZM216.182 180.254H228.396V176.254H216.182V180.254ZM228.396 180.254C228.698 180.254 228.89 180.337 229.09 180.536L231.918 177.708C230.96 176.75 229.747 176.254 228.396 176.254V180.254ZM229.09 180.536C229.289 180.736 229.372 180.928 229.372 181.23H233.372C233.372 179.879 232.876 178.666 231.918 177.708L229.09 180.536ZM229.372 181.23V195.304H233.372V181.23H229.372ZM229.372 195.304C229.372 195.802 229.248 196.207 229.011 196.573L232.369 198.747C233.041 197.708 233.372 196.542 233.372 195.304H229.372ZM228.994 196.6C228.783 196.937 228.518 197.172 228.164 197.338L229.867 200.958C230.919 200.463 231.77 199.706 232.386 198.72L228.994 196.6ZM228.121 197.359C223.75 199.545 219.322 200.62 214.818 200.62V204.62C219.986 204.62 225.023 203.38 229.91 200.937L228.121 197.359Z" fill="white" mask="url(#path-4-outside-1_304_29)"/>
<g filter="url(#filter1_d_304_29)">
<path d="M272 102H192C179.85 102 170 92.1503 170 80V0L272 102Z" fill="url(#paint2_linear_304_29)"/>
</g>
</g>
<mask id="mask1_304_29" style="mask-type:alpha" maskUnits="userSpaceOnUse" x="0" y="0" width="272" height="308">
<path d="M250 308H22C9.84974 308 0 298.15 0 286V22C0 9.84974 9.84974 0 22 0H170L272 102V286C272 298.15 262.15 308 250 308Z" fill="url(#paint3_linear_304_29)"/>
</mask>
<g mask="url(#mask1_304_29)">
<path d="M250 308H22C9.84974 308 0 298.15 0 286V22C0 9.84974 9.84974 0 22 0H170L272 102V286C272 298.15 262.15 308 250 308Z" fill="url(#paint4_linear_304_29)"/>
<g opacity="0.23" filter="url(#filter2_f_304_29)">
<rect x="15" y="149" width="244" height="84" fill="#E32E06" style="mix-blend-mode:darken"/>
</g>
<mask id="path-10-outside-2_304_29" maskUnits="userSpaceOnUse" x="57" y="156" width="159" height="49" fill="black">
<rect fill="white" x="57" y="156" width="159" height="49"/>
<path d="M62.3888 202C61.6035 202 60.9421 201.731 60.4048 201.194C59.8675 200.657 59.5988 199.995 59.5988 199.21V161.576C59.5988 160.791 59.8675 160.129 60.4048 159.592C60.9421 159.013 61.6035 158.724 62.3888 158.724H74.8508C79.5628 158.724 83.5515 159.778 86.8168 161.886C90.1235 163.953 92.6035 166.639 94.2568 169.946C95.9101 173.253 96.7368 176.725 96.7368 180.362C96.7368 183.999 95.9101 187.471 94.2568 190.778C92.6035 194.085 90.1235 196.792 86.8168 198.9C83.5515 200.967 79.5628 202 74.8508 202H62.3888ZM74.1688 196.73C77.5581 196.73 80.5341 196.048 83.0968 194.684C85.6595 193.279 87.6435 191.357 89.0488 188.918C90.4541 186.438 91.1568 183.586 91.1568 180.362C91.1568 177.138 90.4541 174.307 89.0488 171.868C87.6435 169.388 85.6595 167.466 83.0968 166.102C80.5341 164.697 77.5581 163.994 74.1688 163.994H65.2408V196.73H74.1688ZM122.217 202.31C121.391 202.31 120.647 202.083 119.985 201.628C119.365 201.132 118.89 200.429 118.559 199.52L106.407 162.196C106.283 161.741 106.221 161.39 106.221 161.142C106.18 160.357 106.407 159.716 106.903 159.22C107.441 158.683 108.123 158.414 108.949 158.414C109.611 158.414 110.189 158.621 110.685 159.034C111.181 159.447 111.533 159.985 111.739 160.646L122.155 194.87L132.633 160.77C132.84 160.067 133.233 159.509 133.811 159.096C134.431 158.641 135.113 158.414 135.857 158.414C136.601 158.414 137.263 158.641 137.841 159.096C138.461 159.509 138.875 160.067 139.081 160.77L149.559 194.87L159.975 160.646C160.182 159.985 160.533 159.447 161.029 159.034C161.525 158.621 162.104 158.414 162.765 158.414C163.592 158.414 164.253 158.683 164.749 159.22C165.287 159.716 165.535 160.357 165.493 161.142C165.493 161.39 165.431 161.741 165.307 162.196L153.155 199.52C152.825 200.429 152.329 201.132 151.667 201.628C151.047 202.083 150.324 202.31 149.497 202.31C148.671 202.31 147.906 202.062 147.203 201.566C146.542 201.029 146.087 200.347 145.839 199.52L135.857 167.9L125.875 199.52C125.627 200.347 125.152 201.029 124.449 201.566C123.788 202.062 123.044 202.31 122.217 202.31ZM196.663 202.62C192.406 202.62 188.624 201.69 185.317 199.83C182.011 197.929 179.448 195.304 177.629 191.956C175.811 188.567 174.901 184.723 174.901 180.424C174.901 176.043 175.852 172.157 177.753 168.768C179.655 165.379 182.238 162.754 185.503 160.894C188.81 159.034 192.468 158.104 196.477 158.104C199.701 158.104 202.512 158.497 204.909 159.282C207.348 160.067 209.683 161.163 211.915 162.568C212.246 162.733 212.535 163.023 212.783 163.436C213.031 163.849 213.155 164.304 213.155 164.8C213.155 165.503 212.907 166.102 212.411 166.598C211.957 167.094 211.337 167.342 210.551 167.342C210.097 167.342 209.663 167.239 209.249 167.032C207.307 165.875 205.364 165.007 203.421 164.428C201.479 163.849 199.371 163.56 197.097 163.56C193.956 163.56 191.125 164.221 188.603 165.544C186.082 166.867 184.098 168.809 182.651 171.372C181.246 173.893 180.543 176.911 180.543 180.424C180.543 183.648 181.205 186.541 182.527 189.104C183.891 191.625 185.834 193.63 188.355 195.118C190.918 196.565 193.935 197.288 197.407 197.288C201.293 197.288 204.909 196.379 208.257 194.56V183.338H198.027C197.325 183.338 196.725 183.09 196.229 182.594C195.733 182.098 195.485 181.499 195.485 180.796C195.485 180.093 195.733 179.494 196.229 178.998C196.725 178.502 197.325 178.254 198.027 178.254H210.241C211.068 178.254 211.771 178.543 212.349 179.122C212.928 179.701 213.217 180.403 213.217 181.23V195.304C213.217 196.172 212.99 196.957 212.535 197.66C212.122 198.321 211.564 198.817 210.861 199.148C206.232 201.463 201.499 202.62 196.663 202.62Z"/>
</mask>
<path d="M62.3888 202C61.6035 202 60.9421 201.731 60.4048 201.194C59.8675 200.657 59.5988 199.995 59.5988 199.21V161.576C59.5988 160.791 59.8675 160.129 60.4048 159.592C60.9421 159.013 61.6035 158.724 62.3888 158.724H74.8508C79.5628 158.724 83.5515 159.778 86.8168 161.886C90.1235 163.953 92.6035 166.639 94.2568 169.946C95.9101 173.253 96.7368 176.725 96.7368 180.362C96.7368 183.999 95.9101 187.471 94.2568 190.778C92.6035 194.085 90.1235 196.792 86.8168 198.9C83.5515 200.967 79.5628 202 74.8508 202H62.3888ZM74.1688 196.73C77.5581 196.73 80.5341 196.048 83.0968 194.684C85.6595 193.279 87.6435 191.357 89.0488 188.918C90.4541 186.438 91.1568 183.586 91.1568 180.362C91.1568 177.138 90.4541 174.307 89.0488 171.868C87.6435 169.388 85.6595 167.466 83.0968 166.102C80.5341 164.697 77.5581 163.994 74.1688 163.994H65.2408V196.73H74.1688ZM122.217 202.31C121.391 202.31 120.647 202.083 119.985 201.628C119.365 201.132 118.89 200.429 118.559 199.52L106.407 162.196C106.283 161.741 106.221 161.39 106.221 161.142C106.18 160.357 106.407 159.716 106.903 159.22C107.441 158.683 108.123 158.414 108.949 158.414C109.611 158.414 110.189 158.621 110.685 159.034C111.181 159.447 111.533 159.985 111.739 160.646L122.155 194.87L132.633 160.77C132.84 160.067 133.233 159.509 133.811 159.096C134.431 158.641 135.113 158.414 135.857 158.414C136.601 158.414 137.263 158.641 137.841 159.096C138.461 159.509 138.875 160.067 139.081 160.77L149.559 194.87L159.975 160.646C160.182 159.985 160.533 159.447 161.029 159.034C161.525 158.621 162.104 158.414 162.765 158.414C163.592 158.414 164.253 158.683 164.749 159.22C165.287 159.716 165.535 160.357 165.493 161.142C165.493 161.39 165.431 161.741 165.307 162.196L153.155 199.52C152.825 200.429 152.329 201.132 151.667 201.628C151.047 202.083 150.324 202.31 149.497 202.31C148.671 202.31 147.906 202.062 147.203 201.566C146.542 201.029 146.087 200.347 145.839 199.52L135.857 167.9L125.875 199.52C125.627 200.347 125.152 201.029 124.449 201.566C123.788 202.062 123.044 202.31 122.217 202.31ZM196.663 202.62C192.406 202.62 188.624 201.69 185.317 199.83C182.011 197.929 179.448 195.304 177.629 191.956C175.811 188.567 174.901 184.723 174.901 180.424C174.901 176.043 175.852 172.157 177.753 168.768C179.655 165.379 182.238 162.754 185.503 160.894C188.81 159.034 192.468 158.104 196.477 158.104C199.701 158.104 202.512 158.497 204.909 159.282C207.348 160.067 209.683 161.163 211.915 162.568C212.246 162.733 212.535 163.023 212.783 163.436C213.031 163.849 213.155 164.304 213.155 164.8C213.155 165.503 212.907 166.102 212.411 166.598C211.957 167.094 211.337 167.342 210.551 167.342C210.097 167.342 209.663 167.239 209.249 167.032C207.307 165.875 205.364 165.007 203.421 164.428C201.479 163.849 199.371 163.56 197.097 163.56C193.956 163.56 191.125 164.221 188.603 165.544C186.082 166.867 184.098 168.809 182.651 171.372C181.246 173.893 180.543 176.911 180.543 180.424C180.543 183.648 181.205 186.541 182.527 189.104C183.891 191.625 185.834 193.63 188.355 195.118C190.918 196.565 193.935 197.288 197.407 197.288C201.293 197.288 204.909 196.379 208.257 194.56V183.338H198.027C197.325 183.338 196.725 183.09 196.229 182.594C195.733 182.098 195.485 181.499 195.485 180.796C195.485 180.093 195.733 179.494 196.229 178.998C196.725 178.502 197.325 178.254 198.027 178.254H210.241C211.068 178.254 211.771 178.543 212.349 179.122C212.928 179.701 213.217 180.403 213.217 181.23V195.304C213.217 196.172 212.99 196.957 212.535 197.66C212.122 198.321 211.564 198.817 210.861 199.148C206.232 201.463 201.499 202.62 196.663 202.62Z" fill="white"/>
<path d="M60.4048 201.194L61.819 199.78L60.4048 201.194ZM60.4048 159.592L61.819 161.006L61.8452 160.98L61.8704 160.953L60.4048 159.592ZM86.8168 161.886L85.7321 163.566L85.7444 163.574L85.7568 163.582L86.8168 161.886ZM94.2568 169.946L92.468 170.84L94.2568 169.946ZM94.2568 190.778L92.468 189.884L94.2568 190.778ZM86.8168 198.9L87.8864 200.59L87.8919 200.586L86.8168 198.9ZM83.0968 194.684L84.0365 196.449L84.0475 196.444L84.0585 196.438L83.0968 194.684ZM89.0488 188.918L90.7817 189.917L90.7853 189.91L90.7889 189.904L89.0488 188.918ZM89.0488 171.868L87.3088 172.854L87.3123 172.86L87.3159 172.867L89.0488 171.868ZM83.0968 166.102L82.1351 167.856L82.1461 167.862L82.1571 167.867L83.0968 166.102ZM65.2408 163.994V161.994H63.2408V163.994H65.2408ZM65.2408 196.73H63.2408V198.73H65.2408V196.73ZM62.3888 200C62.1141 200 61.9675 199.928 61.819 199.78L58.9906 202.608C59.9168 203.534 61.0929 204 62.3888 204V200ZM61.819 199.78C61.6706 199.631 61.5988 199.485 61.5988 199.21H57.5988C57.5988 200.506 58.0644 201.682 58.9906 202.608L61.819 199.78ZM61.5988 199.21V161.576H57.5988V199.21H61.5988ZM61.5988 161.576C61.5988 161.301 61.6706 161.155 61.819 161.006L58.9906 158.178C58.0644 159.104 57.5988 160.28 57.5988 161.576H61.5988ZM61.8704 160.953C62.0317 160.779 62.1631 160.724 62.3888 160.724V156.724C61.0438 156.724 59.8526 157.247 58.9392 158.231L61.8704 160.953ZM62.3888 160.724H74.8508V156.724H62.3888V160.724ZM74.8508 160.724C79.2604 160.724 82.8529 161.708 85.7321 163.566L87.9016 160.206C84.25 157.848 79.8652 156.724 74.8508 156.724V160.724ZM85.7568 163.582C88.7693 165.465 90.9884 167.881 92.468 170.84L96.0457 169.052C94.2186 165.397 91.4777 162.441 87.8768 160.19L85.7568 163.582ZM92.468 170.84C93.9848 173.874 94.7368 177.04 94.7368 180.362H98.7368C98.7368 176.409 97.8355 172.631 96.0457 169.052L92.468 170.84ZM94.7368 180.362C94.7368 183.684 93.9848 186.85 92.468 189.884L96.0457 191.672C97.8355 188.093 98.7368 184.315 98.7368 180.362H94.7368ZM92.468 189.884C90.9864 192.847 88.7625 195.288 85.7417 197.214L87.8919 200.586C91.4845 198.296 94.2205 195.323 96.0457 191.672L92.468 189.884ZM85.7472 197.21C82.8657 199.034 79.2675 200 74.8508 200V204C79.8581 204 84.2372 202.9 87.8864 200.59L85.7472 197.21ZM74.8508 200H62.3888V204H74.8508V200ZM74.1688 198.73C77.8308 198.73 81.1396 197.991 84.0365 196.449L82.1571 192.919C79.9287 194.105 77.2855 194.73 74.1688 194.73V198.73ZM84.0585 196.438C86.9296 194.863 89.1861 192.685 90.7817 189.917L87.3159 187.919C86.1009 190.028 84.3894 191.694 82.1351 192.93L84.0585 196.438ZM90.7889 189.904C92.3859 187.086 93.1568 183.886 93.1568 180.362H89.1568C89.1568 183.286 88.5223 185.79 87.3088 187.932L90.7889 189.904ZM93.1568 180.362C93.1568 176.839 92.3862 173.654 90.7817 170.869L87.3159 172.867C88.5221 174.96 89.1568 177.437 89.1568 180.362H93.1568ZM90.7889 170.882C89.1926 168.065 86.928 165.876 84.0365 164.337L82.1571 167.867C84.3909 169.056 86.0944 170.711 87.3088 172.854L90.7889 170.882ZM84.0585 164.348C81.157 162.757 77.8403 161.994 74.1688 161.994V165.994C77.276 165.994 79.9112 166.636 82.1351 167.856L84.0585 164.348ZM74.1688 161.994H65.2408V165.994H74.1688V161.994ZM63.2408 163.994V196.73H67.2408V163.994H63.2408ZM65.2408 198.73H74.1688V194.73H65.2408V198.73ZM119.985 201.628L118.736 203.19L118.793 203.235L118.852 203.276L119.985 201.628ZM118.559 199.52L116.658 200.139L116.668 200.172L116.68 200.203L118.559 199.52ZM106.407 162.196L104.478 162.722L104.491 162.769L104.506 162.815L106.407 162.196ZM106.221 161.142H108.221V161.089L108.219 161.037L106.221 161.142ZM106.903 159.22L105.489 157.806L105.489 157.806L106.903 159.22ZM110.685 159.034L109.405 160.57V160.57L110.685 159.034ZM111.739 160.646L113.653 160.064L113.651 160.057L113.648 160.049L111.739 160.646ZM122.155 194.87L120.242 195.452L122.146 201.709L124.067 195.457L122.155 194.87ZM132.633 160.77L134.545 161.357L134.549 161.346L134.552 161.334L132.633 160.77ZM133.811 159.096L134.974 160.723L134.984 160.716L134.994 160.709L133.811 159.096ZM137.841 159.096L136.606 160.669L136.667 160.717L136.732 160.76L137.841 159.096ZM139.081 160.77L137.163 161.334L137.166 161.346L137.17 161.357L139.081 160.77ZM149.559 194.87L147.648 195.457L149.568 201.709L151.473 195.452L149.559 194.87ZM159.975 160.646L158.066 160.049L158.064 160.057L158.062 160.064L159.975 160.646ZM161.029 159.034L162.31 160.57V160.57L161.029 159.034ZM164.749 159.22L163.28 160.577L163.334 160.635L163.393 160.69L164.749 159.22ZM165.493 161.142L163.496 161.037L163.493 161.089V161.142H165.493ZM165.307 162.196L167.209 162.815L167.224 162.769L167.237 162.722L165.307 162.196ZM153.155 199.52L155.035 200.203L155.047 200.172L155.057 200.139L153.155 199.52ZM151.667 201.628L152.85 203.241L152.859 203.234L152.867 203.228L151.667 201.628ZM147.203 201.566L145.942 203.118L145.995 203.161L146.05 203.2L147.203 201.566ZM145.839 199.52L147.755 198.945L147.751 198.932L147.747 198.918L145.839 199.52ZM135.857 167.9L137.765 167.298L135.857 161.256L133.95 167.298L135.857 167.9ZM125.875 199.52L123.968 198.918L123.964 198.932L123.96 198.945L125.875 199.52ZM124.449 201.566L125.649 203.166L125.657 203.16L125.664 203.155L124.449 201.566ZM122.217 200.31C121.782 200.31 121.436 200.198 121.118 199.98L118.852 203.276C119.858 203.967 120.999 204.31 122.217 204.31V200.31ZM121.235 200.066C120.958 199.845 120.672 199.476 120.439 198.837L116.68 200.203C117.108 201.382 117.772 202.419 118.736 203.19L121.235 200.066ZM120.461 198.901L108.309 161.577L104.506 162.815L116.658 200.139L120.461 198.901ZM108.337 161.67C108.286 161.484 108.255 161.344 108.237 161.244C108.219 161.138 108.221 161.111 108.221 161.142H104.221C104.221 161.662 104.341 162.221 104.478 162.722L108.337 161.67ZM108.219 161.037C108.203 160.742 108.273 160.678 108.318 160.634L105.489 157.806C104.541 158.754 104.157 159.972 104.224 161.247L108.219 161.037ZM108.318 160.634C108.445 160.507 108.602 160.414 108.949 160.414V156.414C107.644 156.414 106.436 156.859 105.489 157.806L108.318 160.634ZM108.949 160.414C109.155 160.414 109.278 160.464 109.405 160.57L111.966 157.498C111.101 156.777 110.066 156.414 108.949 156.414V160.414ZM109.405 160.57C109.584 160.719 109.73 160.92 109.83 161.243L113.648 160.049C113.336 159.049 112.779 158.175 111.966 157.498L109.405 160.57ZM109.826 161.228L120.242 195.452L124.069 194.288L113.653 160.064L109.826 161.228ZM124.067 195.457L134.545 161.357L130.722 160.183L120.244 194.283L124.067 195.457ZM134.552 161.334C134.637 161.047 134.771 160.869 134.974 160.723L132.649 157.469C131.695 158.15 131.043 159.088 130.715 160.206L134.552 161.334ZM134.994 160.709C135.283 160.497 135.554 160.414 135.857 160.414V156.414C134.673 156.414 133.579 156.786 132.629 157.483L134.994 160.709ZM135.857 160.414C136.159 160.414 136.384 160.494 136.606 160.669L139.077 157.523C138.142 156.789 137.044 156.414 135.857 156.414V160.414ZM136.732 160.76C136.969 160.918 137.091 161.09 137.163 161.334L141 160.206C140.659 159.044 139.954 158.101 138.951 157.432L136.732 160.76ZM137.17 161.357L147.648 195.457L151.471 194.283L140.993 160.183L137.17 161.357ZM151.473 195.452L161.889 161.228L158.062 160.064L147.646 194.288L151.473 195.452ZM161.884 161.243C161.985 160.92 162.131 160.719 162.31 160.57L159.749 157.498C158.936 158.175 158.379 159.049 158.066 160.049L161.884 161.243ZM162.31 160.57C162.437 160.464 162.559 160.414 162.765 160.414V156.414C161.649 156.414 160.614 156.777 159.749 157.498L162.31 160.57ZM162.765 160.414C163.114 160.414 163.214 160.505 163.28 160.577L166.219 157.863C165.293 156.86 164.07 156.414 162.765 156.414V160.414ZM163.393 160.69C163.452 160.744 163.466 160.777 163.473 160.794C163.482 160.816 163.504 160.885 163.496 161.037L167.491 161.247C167.561 159.919 167.117 158.683 166.106 157.75L163.393 160.69ZM163.493 161.142C163.493 161.111 163.496 161.138 163.477 161.244C163.46 161.344 163.429 161.484 163.378 161.67L167.237 162.722C167.374 162.221 167.493 161.662 167.493 161.142H163.493ZM163.406 161.577L151.254 198.901L155.057 200.139L167.209 162.815L163.406 161.577ZM151.276 198.837C151.055 199.444 150.768 199.803 150.467 200.028L152.867 203.228C153.889 202.461 154.595 201.414 155.035 200.203L151.276 198.837ZM150.485 200.015C150.234 200.199 149.933 200.31 149.497 200.31V204.31C150.716 204.31 151.861 203.966 152.85 203.241L150.485 200.015ZM149.497 200.31C149.101 200.31 148.736 200.2 148.357 199.932L146.05 203.2C147.076 203.924 148.24 204.31 149.497 204.31V200.31ZM148.465 200.014C148.119 199.733 147.889 199.393 147.755 198.945L143.924 200.095C144.285 201.3 144.965 202.325 145.942 203.118L148.465 200.014ZM147.747 198.918L137.765 167.298L133.95 168.502L143.932 200.122L147.747 198.918ZM133.95 167.298L123.968 198.918L127.783 200.122L137.765 168.502L133.95 167.298ZM123.96 198.945C123.836 199.358 123.612 199.689 123.234 199.977L125.664 203.155C126.693 202.368 127.419 201.335 127.791 200.095L123.96 198.945ZM123.249 199.966C122.934 200.202 122.611 200.31 122.217 200.31V204.31C123.477 204.31 124.642 203.922 125.649 203.166L123.249 199.966ZM185.317 199.83L184.32 201.564L184.329 201.569L184.337 201.573L185.317 199.83ZM177.629 191.956L175.867 192.902L175.872 192.911L177.629 191.956ZM177.753 168.768L179.498 169.747V169.747L177.753 168.768ZM185.503 160.894L184.523 159.151L184.513 159.156L185.503 160.894ZM204.909 159.282L204.287 161.183L204.296 161.186L204.909 159.282ZM211.915 162.568L210.85 164.26L210.933 164.313L211.021 164.357L211.915 162.568ZM212.783 163.436L211.068 164.465V164.465L212.783 163.436ZM212.411 166.598L210.997 165.184L210.966 165.215L210.937 165.247L212.411 166.598ZM209.249 167.032L208.226 168.75L208.289 168.788L208.355 168.821L209.249 167.032ZM203.421 164.428L203.992 162.511L203.421 164.428ZM188.603 165.544L189.532 167.315L189.532 167.315L188.603 165.544ZM182.651 171.372L180.91 170.389L180.904 170.398L182.651 171.372ZM182.527 189.104L180.75 190.021L180.759 190.039L180.768 190.056L182.527 189.104ZM188.355 195.118L187.339 196.84L187.355 196.85L187.372 196.86L188.355 195.118ZM208.257 194.56L209.212 196.317L210.257 195.75V194.56H208.257ZM208.257 183.338H210.257V181.338H208.257V183.338ZM212.535 197.66L210.856 196.573L210.848 196.587L210.839 196.6L212.535 197.66ZM210.861 199.148L210.01 197.338L209.988 197.348L209.967 197.359L210.861 199.148ZM196.663 200.62C192.707 200.62 189.27 199.759 186.298 198.087L184.337 201.573C187.978 203.621 192.105 204.62 196.663 204.62V200.62ZM186.314 198.096C183.328 196.379 181.029 194.024 179.387 191.001L175.872 192.911C177.867 196.584 180.693 199.478 184.32 201.564L186.314 198.096ZM179.392 191.01C177.747 187.945 176.901 184.432 176.901 180.424H172.901C172.901 185.013 173.875 189.189 175.867 192.902L179.392 191.01ZM176.901 180.424C176.901 176.341 177.784 172.8 179.498 169.747L176.009 167.789C173.92 171.514 172.901 175.744 172.901 180.424H176.901ZM179.498 169.747C181.228 166.663 183.555 164.306 186.493 162.632L184.513 159.156C180.921 161.202 178.082 164.095 176.009 167.789L179.498 169.747ZM186.484 162.637C189.474 160.955 192.791 160.104 196.477 160.104V156.104C192.145 156.104 188.146 157.113 184.523 159.151L186.484 162.637ZM196.477 160.104C199.546 160.104 202.137 160.478 204.287 161.183L205.532 157.381C202.887 156.515 199.857 156.104 196.477 156.104V160.104ZM204.296 161.186C206.571 161.918 208.755 162.942 210.85 164.26L212.981 160.876C210.612 159.384 208.125 158.216 205.522 157.378L204.296 161.186ZM211.021 164.357C210.975 164.334 210.957 164.314 210.966 164.323C210.977 164.334 211.014 164.374 211.068 164.465L214.498 162.407C214.113 161.765 213.57 161.159 212.81 160.779L211.021 164.357ZM211.068 164.465C211.124 164.558 211.155 164.655 211.155 164.8H215.155C215.155 163.953 214.938 163.14 214.498 162.407L211.068 164.465ZM211.155 164.8C211.155 164.973 211.117 165.064 210.997 165.184L213.826 168.012C214.697 167.14 215.155 166.032 215.155 164.8H211.155ZM210.937 165.247C210.911 165.275 210.892 165.287 210.863 165.299C210.827 165.313 210.734 165.342 210.551 165.342V169.342C211.795 169.342 212.988 168.929 213.886 167.949L210.937 165.247ZM210.551 165.342C210.412 165.342 210.284 165.313 210.144 165.243L208.355 168.821C209.041 169.164 209.781 169.342 210.551 169.342V165.342ZM210.273 165.314C208.204 164.081 206.111 163.142 203.992 162.511L202.85 166.345C204.618 166.871 206.409 167.668 208.226 168.75L210.273 165.314ZM203.992 162.511C201.843 161.871 199.541 161.56 197.097 161.56V165.56C199.201 165.56 201.114 165.828 202.85 166.345L203.992 162.511ZM197.097 161.56C193.666 161.56 190.511 162.285 187.674 163.773L189.532 167.315C191.738 166.158 194.246 165.56 197.097 165.56V161.56ZM187.674 163.773C184.8 165.281 182.539 167.503 180.91 170.389L184.393 172.355C185.657 170.116 187.364 168.453 189.532 167.315L187.674 163.773ZM180.904 170.398C179.301 173.276 178.543 176.643 178.543 180.424H182.543C182.543 177.178 183.191 174.511 184.398 172.346L180.904 170.398ZM178.543 180.424C178.543 183.929 179.265 187.143 180.75 190.021L184.305 188.187C183.145 185.94 182.543 183.367 182.543 180.424H178.543ZM180.768 190.056C182.309 192.904 184.512 195.172 187.339 196.84L189.372 193.396C187.156 192.088 185.474 190.347 184.286 188.152L180.768 190.056ZM187.372 196.86C190.285 198.504 193.653 199.288 197.407 199.288V195.288C194.218 195.288 191.551 194.625 189.339 193.376L187.372 196.86ZM197.407 199.288C201.619 199.288 205.565 198.299 209.212 196.317L207.303 192.803C204.254 194.459 200.966 195.288 197.407 195.288V199.288ZM210.257 194.56V183.338H206.257V194.56H210.257ZM208.257 181.338H198.027V185.338H208.257V181.338ZM198.027 181.338C197.854 181.338 197.764 181.3 197.644 181.18L194.815 184.008C195.687 184.88 196.795 185.338 198.027 185.338V181.338ZM197.644 181.18C197.523 181.06 197.485 180.969 197.485 180.796H193.485C193.485 182.028 193.943 183.136 194.815 184.008L197.644 181.18ZM197.485 180.796C197.485 180.623 197.523 180.532 197.644 180.412L194.815 177.584C193.943 178.456 193.485 179.564 193.485 180.796H197.485ZM197.644 180.412C197.764 180.292 197.854 180.254 198.027 180.254V176.254C196.795 176.254 195.687 176.712 194.815 177.584L197.644 180.412ZM198.027 180.254H210.241V176.254H198.027V180.254ZM210.241 180.254C210.544 180.254 210.736 180.337 210.935 180.536L213.764 177.708C212.806 176.75 211.592 176.254 210.241 176.254V180.254ZM210.935 180.536C211.134 180.736 211.217 180.928 211.217 181.23H215.217C215.217 179.879 214.722 178.666 213.764 177.708L210.935 180.536ZM211.217 181.23V195.304H215.217V181.23H211.217ZM211.217 195.304C211.217 195.802 211.093 196.207 210.856 196.573L214.215 198.747C214.887 197.708 215.217 196.542 215.217 195.304H211.217ZM210.839 196.6C210.629 196.937 210.363 197.172 210.01 197.338L211.713 200.958C212.765 200.463 213.615 199.706 214.231 198.72L210.839 196.6ZM209.967 197.359C205.595 199.545 201.167 200.62 196.663 200.62V204.62C201.831 204.62 206.869 203.38 211.756 200.937L209.967 197.359Z" fill="white" mask="url(#path-10-outside-2_304_29)"/>
<g filter="url(#filter3_d_304_29)">
<path d="M272 102H192C179.85 102 170 92.1503 170 80V0L272 102Z" fill="url(#paint5_linear_304_29)"/>
</g>
</g>
<defs>
<filter id="filter0_f_304_29" x="-24" y="110" width="322" height="162" filterUnits="userSpaceOnUse" color-interpolation-filters="sRGB">
<feFlood flood-opacity="0" result="BackgroundImageFix"/>
<feBlend mode="normal" in="SourceGraphic" in2="BackgroundImageFix" result="shape"/>
<feGaussianBlur stdDeviation="19.5" result="effect1_foregroundBlur_304_29"/>
</filter>
<filter id="filter1_d_304_29" x="147" y="-24" width="152" height="152" filterUnits="userSpaceOnUse" color-interpolation-filters="sRGB">
<feFlood flood-opacity="0" result="BackgroundImageFix"/>
<feColorMatrix in="SourceAlpha" type="matrix" values="0 0 0 0 0 0 0 0 0 0 0 0 0 0 0 0 0 0 127 0" result="hardAlpha"/>
<feOffset dx="2" dy="1"/>
<feGaussianBlur stdDeviation="12.5"/>
<feColorMatrix type="matrix" values="0 0 0 0 0 0 0 0 0 0 0 0 0 0 0 0 0 0 0.33 0"/>
<feBlend mode="normal" in2="BackgroundImageFix" result="effect1_dropShadow_304_29"/>
<feBlend mode="normal" in="SourceGraphic" in2="effect1_dropShadow_304_29" result="shape"/>
</filter>
<filter id="filter2_f_304_29" x="-24" y="110" width="322" height="162" filterUnits="userSpaceOnUse" color-interpolation-filters="sRGB">
<feFlood flood-opacity="0" result="BackgroundImageFix"/>
<feBlend mode="normal" in="SourceGraphic" in2="BackgroundImageFix" result="shape"/>
<feGaussianBlur stdDeviation="19.5" result="effect1_foregroundBlur_304_29"/>
</filter>
<filter id="filter3_d_304_29" x="147" y="-24" width="152" height="152" filterUnits="userSpaceOnUse" color-interpolation-filters="sRGB">
<feFlood flood-opacity="0" result="BackgroundImageFix"/>
<feColorMatrix in="SourceAlpha" type="matrix" values="0 0 0 0 0 0 0 0 0 0 0 0 0 0 0 0 0 0 127 0" result="hardAlpha"/>
<feOffset dx="2" dy="1"/>
<feGaussianBlur stdDeviation="12.5"/>
<feColorMatrix type="matrix" values="0 0 0 0 0 0 0 0 0 0 0 0 0 0 0 0 0 0 0.33 0"/>
<feBlend mode="normal" in2="BackgroundImageFix" result="effect1_dropShadow_304_29"/>
<feBlend mode="normal" in="SourceGraphic" in2="effect1_dropShadow_304_29" result="shape"/>
</filter>
<linearGradient id="paint0_linear_304_29" x1="136" y1="0" x2="136" y2="308" gradientUnits="userSpaceOnUse">
<stop stop-color="#FF7979"/>
<stop offset="1" stop-color="#E85555"/>
</linearGradient>
<linearGradient id="paint1_linear_304_29" x1="136" y1="0" x2="136" y2="308" gradientUnits="userSpaceOnUse">
<stop stop-color="#FF8777"/>
<stop offset="1" stop-color="#F0695F"/>
</linearGradient>
<linearGradient id="paint2_linear_304_29" x1="221" y1="0" x2="221" y2="102" gradientUnits="userSpaceOnUse">
<stop stop-color="#DA5D4C"/>
<stop offset="1" stop-color="#E32900"/>
</linearGradient>
<linearGradient id="paint3_linear_304_29" x1="136" y1="0" x2="136" y2="308" gradientUnits="userSpaceOnUse">
<stop stop-color="#FF7979"/>
<stop offset="1" stop-color="#E85555"/>
</linearGradient>
<linearGradient id="paint4_linear_304_29" x1="136" y1="0" x2="136" y2="308" gradientUnits="userSpaceOnUse">
<stop stop-color="#FF8777"/>
<stop offset="1" stop-color="#F0695F"/>
</linearGradient>
<linearGradient id="paint5_linear_304_29" x1="221" y1="0" x2="221" y2="102" gradientUnits="userSpaceOnUse">
<stop stop-color="#DA5D4C"/>
<stop offset="1" stop-color="#E32900"/>
</linearGradient>
</defs>
</svg>
