<svg width="272" height="308" viewBox="0 0 272 308" fill="none" xmlns="http://www.w3.org/2000/svg">
<mask id="mask0_204_950" style="mask-type:alpha" maskUnits="userSpaceOnUse" x="0" y="0" width="272" height="308">
<path d="M250 308H22C9.84974 308 0 298.15 0 286V22C0 9.84974 9.84974 0 22 0H170L272 102V286C272 298.15 262.15 308 250 308Z" fill="url(#paint0_linear_204_950)"/>
</mask>
<g mask="url(#mask0_204_950)">
<path d="M250 308H22C9.84974 308 0 298.15 0 286V22C0 9.84974 9.84974 0 22 0H170L272 102V286C272 298.15 262.15 308 250 308Z" fill="url(#paint1_linear_204_950)"/>
<g filter="url(#filter0_f_204_950)">
<rect x="47" y="144" width="178" height="84" fill="#0F7D56" fill-opacity="0.27" style="mix-blend-mode:darken"/>
</g>
<path d="M77.7374 202C76.9521 202 76.2908 201.731 75.7534 201.194C75.2161 200.657 74.9474 199.995 74.9474 199.21V161.576C74.9474 160.791 75.2161 160.129 75.7534 159.592C76.2908 159.013 76.9521 158.724 77.7374 158.724H102.599C103.343 158.724 103.963 158.993 104.459 159.53C104.997 160.026 105.265 160.646 105.265 161.39C105.265 162.134 104.997 162.754 104.459 163.25C103.963 163.746 103.343 163.994 102.599 163.994H80.5894V177.696H100.367C101.111 177.696 101.731 177.965 102.227 178.502C102.765 178.998 103.033 179.618 103.033 180.362C103.033 181.106 102.765 181.726 102.227 182.222C101.731 182.718 101.111 182.966 100.367 182.966H80.5894V196.73H102.599C103.343 196.73 103.963 196.999 104.459 197.536C104.997 198.032 105.265 198.652 105.265 199.396C105.265 200.14 104.997 200.76 104.459 201.256C103.963 201.752 103.343 202 102.599 202H77.7374ZM137.559 202.62C133.219 202.62 129.416 201.669 126.151 199.768C122.885 197.867 120.364 195.242 118.587 191.894C116.809 188.546 115.879 184.702 115.797 180.362C115.879 176.022 116.809 172.178 118.587 168.83C120.364 165.482 122.885 162.857 126.151 160.956C129.416 159.055 133.219 158.104 137.559 158.104C141.899 158.104 145.681 159.055 148.905 160.956C152.17 162.857 154.691 165.503 156.469 168.892C158.287 172.24 159.238 176.063 159.321 180.362C159.238 184.661 158.287 188.505 156.469 191.894C154.691 195.242 152.17 197.867 148.905 199.768C145.681 201.669 141.899 202.62 137.559 202.62ZM137.559 197.35C140.865 197.35 143.738 196.606 146.177 195.118C148.615 193.63 150.475 191.605 151.757 189.042C153.038 186.479 153.679 183.586 153.679 180.362C153.679 177.138 153.038 174.245 151.757 171.682C150.475 169.119 148.615 167.094 146.177 165.606C143.738 164.118 140.865 163.374 137.559 163.374C134.211 163.374 131.317 164.118 128.879 165.606C126.481 167.094 124.642 169.119 123.361 171.682C122.079 174.245 121.439 177.138 121.439 180.362C121.439 183.586 122.079 186.479 123.361 189.042C124.642 191.605 126.481 193.63 128.879 195.118C131.317 196.606 134.211 197.35 137.559 197.35ZM184.133 202.31C183.348 202.31 182.687 202.041 182.149 201.504C181.612 200.967 181.343 200.305 181.343 199.52V163.994H168.695C167.951 163.994 167.331 163.746 166.835 163.25C166.339 162.754 166.091 162.134 166.091 161.39C166.091 160.646 166.339 160.026 166.835 159.53C167.331 158.993 167.951 158.724 168.695 158.724H199.571C200.315 158.724 200.935 158.993 201.431 159.53C201.969 160.026 202.237 160.646 202.237 161.39C202.237 162.134 201.969 162.754 201.431 163.25C200.935 163.746 200.315 163.994 199.571 163.994H186.985V199.52C186.985 200.305 186.696 200.967 186.117 201.504C185.58 202.041 184.919 202.31 184.133 202.31Z" fill="white"/>
<path d="M75.7534 201.194L77.1677 199.78L75.7534 201.194ZM75.7534 159.592L77.1677 161.006L77.1938 160.98L77.219 160.953L75.7534 159.592ZM104.459 159.53L102.99 160.887L103.044 160.945L103.103 161L104.459 159.53ZM104.459 163.25L103.103 161.78L103.074 161.808L103.045 161.836L104.459 163.25ZM80.5894 163.994V161.994H78.5894V163.994H80.5894ZM80.5894 177.696H78.5894V179.696H80.5894V177.696ZM102.227 178.502L100.758 179.859L100.812 179.917L100.871 179.972L102.227 178.502ZM102.227 182.222L100.871 180.752L100.841 180.78L100.813 180.808L102.227 182.222ZM80.5894 182.966V180.966H78.5894V182.966H80.5894ZM80.5894 196.73H78.5894V198.73H80.5894V196.73ZM104.459 197.536L102.99 198.893L103.044 198.951L103.103 199.006L104.459 197.536ZM104.459 201.256L103.103 199.786L103.074 199.814L103.045 199.842L104.459 201.256ZM77.7374 200C77.4627 200 77.3161 199.928 77.1677 199.78L74.3392 202.608C75.2654 203.534 76.4415 204 77.7374 204V200ZM77.1677 199.78C77.0192 199.631 76.9474 199.485 76.9474 199.21H72.9474C72.9474 200.506 73.413 201.682 74.3392 202.608L77.1677 199.78ZM76.9474 199.21V161.576H72.9474V199.21H76.9474ZM76.9474 161.576C76.9474 161.301 77.0192 161.155 77.1677 161.006L74.3392 158.178C73.413 159.104 72.9474 160.28 72.9474 161.576H76.9474ZM77.219 160.953C77.3803 160.779 77.5117 160.724 77.7374 160.724V156.724C76.3925 156.724 75.2012 157.247 74.2879 158.231L77.219 160.953ZM77.7374 160.724H102.599V156.724H77.7374V160.724ZM102.599 160.724C102.796 160.724 102.88 160.767 102.99 160.887L105.929 158.173C105.047 157.218 103.891 156.724 102.599 156.724V160.724ZM103.103 161C103.222 161.11 103.265 161.193 103.265 161.39H107.265C107.265 160.099 106.772 158.942 105.816 158.06L103.103 161ZM103.265 161.39C103.265 161.587 103.222 161.67 103.103 161.78L105.816 164.72C106.772 163.838 107.265 162.681 107.265 161.39H103.265ZM103.045 161.836C102.949 161.932 102.849 161.994 102.599 161.994V165.994C103.838 165.994 104.978 165.56 105.874 164.664L103.045 161.836ZM102.599 161.994H80.5894V165.994H102.599V161.994ZM78.5894 163.994V177.696H82.5894V163.994H78.5894ZM80.5894 179.696H100.367V175.696H80.5894V179.696ZM100.367 179.696C100.564 179.696 100.648 179.739 100.758 179.859L103.697 177.145C102.815 176.19 101.659 175.696 100.367 175.696V179.696ZM100.871 179.972C100.99 180.082 101.033 180.165 101.033 180.362H105.033C105.033 179.071 104.54 177.914 103.584 177.032L100.871 179.972ZM101.033 180.362C101.033 180.559 100.99 180.642 100.871 180.752L103.584 183.692C104.54 182.81 105.033 181.653 105.033 180.362H101.033ZM100.813 180.808C100.717 180.904 100.617 180.966 100.367 180.966V184.966C101.606 184.966 102.746 184.532 103.642 183.636L100.813 180.808ZM100.367 180.966H80.5894V184.966H100.367V180.966ZM78.5894 182.966V196.73H82.5894V182.966H78.5894ZM80.5894 198.73H102.599V194.73H80.5894V198.73ZM102.599 198.73C102.796 198.73 102.88 198.773 102.99 198.893L105.929 196.179C105.047 195.224 103.891 194.73 102.599 194.73V198.73ZM103.103 199.006C103.222 199.116 103.265 199.199 103.265 199.396H107.265C107.265 198.105 106.772 196.948 105.816 196.066L103.103 199.006ZM103.265 199.396C103.265 199.593 103.222 199.676 103.103 199.786L105.816 202.726C106.772 201.844 107.265 200.687 107.265 199.396H103.265ZM103.045 199.842C102.949 199.938 102.849 200 102.599 200V204C103.838 204 104.978 203.566 105.874 202.67L103.045 199.842ZM102.599 200H77.7374V204H102.599V200ZM126.151 199.768L127.157 198.04L126.151 199.768ZM118.587 191.894L116.82 192.832L118.587 191.894ZM115.797 180.362L113.797 180.324L113.796 180.362L113.797 180.4L115.797 180.362ZM118.587 168.83L120.353 169.768L118.587 168.83ZM126.151 160.956L125.144 159.228V159.228L126.151 160.956ZM148.905 160.956L147.889 162.679L147.898 162.684L148.905 160.956ZM156.469 168.892L154.697 169.821L154.704 169.834L154.711 169.847L156.469 168.892ZM159.321 180.362L161.32 180.4L161.321 180.362L161.32 180.324L159.321 180.362ZM156.469 191.894L154.706 190.948L154.702 190.956L156.469 191.894ZM148.905 199.768L147.898 198.04L147.889 198.045L148.905 199.768ZM146.177 195.118L145.135 193.411L146.177 195.118ZM151.757 189.042L153.546 189.936V189.936L151.757 189.042ZM151.757 171.682L153.546 170.788V170.788L151.757 171.682ZM146.177 165.606L145.135 167.313L146.177 165.606ZM128.879 165.606L127.837 163.899L127.83 163.903L127.824 163.907L128.879 165.606ZM123.361 171.682L121.572 170.788L123.361 171.682ZM123.361 189.042L121.572 189.936L123.361 189.042ZM128.879 195.118L127.824 196.817L127.83 196.821L127.837 196.825L128.879 195.118ZM137.559 200.62C133.519 200.62 130.074 199.738 127.157 198.04L125.144 201.496C128.758 203.601 132.918 204.62 137.559 204.62V200.62ZM127.157 198.04C124.215 196.326 121.956 193.976 120.353 190.956L116.82 192.832C118.772 196.508 121.556 199.407 125.144 201.496L127.157 198.04ZM120.353 190.956C118.743 187.923 117.874 184.396 117.796 180.324L113.797 180.4C113.885 185.008 114.876 189.169 116.82 192.832L120.353 190.956ZM117.796 180.4C117.874 176.328 118.743 172.801 120.353 169.768L116.82 167.892C114.876 171.555 113.885 175.716 113.797 180.324L117.796 180.4ZM120.353 169.768C121.956 166.748 124.215 164.398 127.157 162.684L125.144 159.228C121.556 161.317 118.772 164.216 116.82 167.892L120.353 169.768ZM127.157 162.684C130.074 160.986 133.519 160.104 137.559 160.104V156.104C132.918 156.104 128.758 157.123 125.144 159.228L127.157 162.684ZM137.559 160.104C141.599 160.104 145.019 160.986 147.889 162.679L149.921 159.233C146.343 157.123 142.198 156.104 137.559 156.104V160.104ZM147.898 162.684C150.834 164.394 153.092 166.76 154.697 169.821L158.24 167.963C156.29 164.245 153.506 161.321 149.911 159.228L147.898 162.684ZM154.711 169.847C156.358 172.879 157.244 176.381 157.321 180.4L161.32 180.324C161.232 175.746 160.216 171.601 158.226 167.937L154.711 169.847ZM157.321 180.324C157.244 184.343 156.358 187.87 154.706 190.948L158.231 192.84C160.216 189.139 161.232 184.978 161.32 180.4L157.321 180.324ZM154.702 190.956C153.099 193.976 150.84 196.326 147.898 198.04L149.911 201.496C153.5 199.407 156.284 196.508 158.235 192.832L154.702 190.956ZM147.889 198.045C145.019 199.738 141.599 200.62 137.559 200.62V204.62C142.198 204.62 146.343 203.601 149.921 201.491L147.889 198.045ZM137.559 199.35C141.174 199.35 144.419 198.533 147.218 196.825L145.135 193.411C143.057 194.679 140.557 195.35 137.559 195.35V199.35ZM147.218 196.825C149.978 195.141 152.097 192.834 153.546 189.936L149.968 188.148C148.854 190.376 147.252 192.119 145.135 193.411L147.218 196.825ZM153.546 189.936C154.982 187.063 155.679 183.857 155.679 180.362H151.679C151.679 183.315 151.094 185.896 149.968 188.148L153.546 189.936ZM155.679 180.362C155.679 176.867 154.982 173.661 153.546 170.788L149.968 172.576C151.094 174.828 151.679 177.409 151.679 180.362H155.679ZM153.546 170.788C152.097 167.89 149.978 165.583 147.218 163.899L145.135 167.313C147.252 168.605 148.854 170.348 149.968 172.576L153.546 170.788ZM147.218 163.899C144.419 162.191 141.174 161.374 137.559 161.374V165.374C140.557 165.374 143.057 166.045 145.135 167.313L147.218 163.899ZM137.559 161.374C133.907 161.374 130.64 162.188 127.837 163.899L129.92 167.313C131.995 166.048 134.514 165.374 137.559 165.374V161.374ZM127.824 163.907C125.107 165.593 123.016 167.899 121.572 170.788L125.15 172.576C126.268 170.339 127.856 168.595 129.933 167.305L127.824 163.907ZM121.572 170.788C120.135 173.661 119.439 176.867 119.439 180.362H123.439C123.439 177.409 124.024 174.828 125.15 172.576L121.572 170.788ZM119.439 180.362C119.439 183.857 120.135 187.063 121.572 189.936L125.15 188.148C124.024 185.896 123.439 183.315 123.439 180.362H119.439ZM121.572 189.936C123.016 192.825 125.107 195.131 127.824 196.817L129.933 193.419C127.856 192.129 126.268 190.385 125.15 188.148L121.572 189.936ZM127.837 196.825C130.64 198.536 133.907 199.35 137.559 199.35V195.35C134.514 195.35 131.995 194.676 129.92 193.411L127.837 196.825ZM182.149 201.504L180.735 202.918L182.149 201.504ZM181.343 163.994H183.343V161.994H181.343V163.994ZM166.835 163.25L165.421 164.664V164.664L166.835 163.25ZM166.835 159.53L168.25 160.944L168.278 160.916L168.305 160.887L166.835 159.53ZM201.431 159.53L199.962 160.887L200.016 160.945L200.075 161L201.431 159.53ZM201.431 163.25L200.075 161.78L200.045 161.808L200.017 161.836L201.431 163.25ZM186.985 163.994V161.994H184.985V163.994H186.985ZM186.117 201.504L184.756 200.038L184.729 200.064L184.703 200.09L186.117 201.504ZM184.133 200.31C183.859 200.31 183.712 200.238 183.564 200.09L180.735 202.918C181.661 203.844 182.837 204.31 184.133 204.31V200.31ZM183.564 200.09C183.415 199.941 183.343 199.795 183.343 199.52H179.343C179.343 200.816 179.809 201.992 180.735 202.918L183.564 200.09ZM183.343 199.52V163.994H179.343V199.52H183.343ZM181.343 161.994H168.695V165.994H181.343V161.994ZM168.695 161.994C168.446 161.994 168.346 161.932 168.25 161.836L165.421 164.664C166.317 165.56 167.457 165.994 168.695 165.994V161.994ZM168.25 161.836C168.153 161.739 168.091 161.639 168.091 161.39H164.091C164.091 162.629 164.525 163.769 165.421 164.664L168.25 161.836ZM168.091 161.39C168.091 161.141 168.153 161.041 168.25 160.944L165.421 158.116C164.525 159.011 164.091 160.151 164.091 161.39H168.091ZM168.305 160.887C168.415 160.767 168.498 160.724 168.695 160.724V156.724C167.404 156.724 166.248 157.218 165.366 158.173L168.305 160.887ZM168.695 160.724H199.571V156.724H168.695V160.724ZM199.571 160.724C199.768 160.724 199.852 160.767 199.962 160.887L202.901 158.173C202.019 157.218 200.862 156.724 199.571 156.724V160.724ZM200.075 161C200.194 161.11 200.237 161.193 200.237 161.39H204.237C204.237 160.099 203.743 158.942 202.788 158.06L200.075 161ZM200.237 161.39C200.237 161.587 200.194 161.67 200.075 161.78L202.788 164.72C203.743 163.838 204.237 162.681 204.237 161.39H200.237ZM200.017 161.836C199.921 161.932 199.821 161.994 199.571 161.994V165.994C200.81 165.994 201.95 165.56 202.846 164.664L200.017 161.836ZM199.571 161.994H186.985V165.994H199.571V161.994ZM184.985 163.994V199.52H188.985V163.994H184.985ZM184.985 199.52C184.985 199.746 184.93 199.877 184.756 200.038L187.478 202.97C188.462 202.056 188.985 200.865 188.985 199.52H184.985ZM184.703 200.09C184.555 200.238 184.408 200.31 184.133 200.31V204.31C185.429 204.31 186.605 203.844 187.532 202.918L184.703 200.09Z" fill="white"/>
<g filter="url(#filter1_d_204_950)">
<path d="M272 102H192C179.85 102 170 92.1503 170 80V0L272 102Z" fill="url(#paint2_linear_204_950)"/>
</g>
</g>
<defs>
<filter id="filter0_f_204_950" x="8" y="105" width="256" height="162" filterUnits="userSpaceOnUse" color-interpolation-filters="sRGB">
<feFlood flood-opacity="0" result="BackgroundImageFix"/>
<feBlend mode="normal" in="SourceGraphic" in2="BackgroundImageFix" result="shape"/>
<feGaussianBlur stdDeviation="19.5" result="effect1_foregroundBlur_204_950"/>
</filter>
<filter id="filter1_d_204_950" x="147" y="-24" width="152" height="152" filterUnits="userSpaceOnUse" color-interpolation-filters="sRGB">
<feFlood flood-opacity="0" result="BackgroundImageFix"/>
<feColorMatrix in="SourceAlpha" type="matrix" values="0 0 0 0 0 0 0 0 0 0 0 0 0 0 0 0 0 0 127 0" result="hardAlpha"/>
<feOffset dx="2" dy="1"/>
<feGaussianBlur stdDeviation="12.5"/>
<feColorMatrix type="matrix" values="0 0 0 0 0 0 0 0 0 0 0 0 0 0 0 0 0 0 0.33 0"/>
<feBlend mode="normal" in2="BackgroundImageFix" result="effect1_dropShadow_204_950"/>
<feBlend mode="normal" in="SourceGraphic" in2="effect1_dropShadow_204_950" result="shape"/>
</filter>
<linearGradient id="paint0_linear_204_950" x1="136" y1="0" x2="136" y2="308" gradientUnits="userSpaceOnUse">
<stop stop-color="#FF7979"/>
<stop offset="1" stop-color="#E85555"/>
</linearGradient>
<linearGradient id="paint1_linear_204_950" x1="136" y1="0" x2="136" y2="308" gradientUnits="userSpaceOnUse">
<stop stop-color="#2EBC89"/>
<stop offset="1" stop-color="#1DA473"/>
</linearGradient>
<linearGradient id="paint2_linear_204_950" x1="221" y1="0" x2="221" y2="102" gradientUnits="userSpaceOnUse">
<stop stop-color="#23A476"/>
<stop offset="1" stop-color="#11835A"/>
</linearGradient>
</defs>
</svg>
