<svg width="272" height="308" viewBox="0 0 272 308" fill="none" xmlns="http://www.w3.org/2000/svg">
<rect width="272" height="308" fill="#E5E5E5"/>
<mask id="mask0_204_689" style="mask-type:alpha" maskUnits="userSpaceOnUse" x="0" y="0" width="272" height="308">
<path d="M250 308H22C9.84974 308 0 298.15 0 286V22C0 9.84974 9.84974 0 22 0H170L272 102V286C272 298.15 262.15 308 250 308Z" fill="url(#paint0_linear_204_689)"/>
</mask>
<g mask="url(#mask0_204_689)">
<path d="M250 308H22C9.84974 308 0 298.15 0 286V22C0 9.84974 9.84974 0 22 0H170L272 102V286C272 298.15 262.15 308 250 308Z" fill="url(#paint1_linear_204_689)"/>
<g opacity="0.2" filter="url(#filter0_f_204_689)">
<rect x="48" y="149" width="178" height="84" fill="#780AAF" style="mix-blend-mode:darken"/>
</g>
<path d="M83.7619 202.31C82.9765 202.31 82.3152 202.041 81.7779 201.504C81.2405 200.967 80.9719 200.305 80.9719 199.52V161.576C80.9719 160.791 81.2405 160.129 81.7779 159.592C82.3152 159.013 82.9765 158.724 83.7619 158.724H107.88C108.624 158.724 109.244 158.993 109.74 159.53C110.277 160.026 110.546 160.646 110.546 161.39C110.546 162.134 110.277 162.754 109.74 163.25C109.244 163.746 108.624 163.994 107.88 163.994H86.6139V177.696H105.71C106.454 177.696 107.074 177.965 107.57 178.502C108.107 178.998 108.376 179.618 108.376 180.362C108.376 181.106 108.107 181.726 107.57 182.222C107.074 182.718 106.454 182.966 105.71 182.966H86.6139V199.52C86.6139 200.305 86.3245 200.967 85.7459 201.504C85.2085 202.041 84.5472 202.31 83.7619 202.31ZM126.939 202C125.864 202 124.934 201.628 124.149 200.884C123.405 200.099 123.033 199.169 123.033 198.094V161.266C123.033 160.481 123.301 159.819 123.839 159.282C124.376 158.703 125.037 158.414 125.823 158.414C126.608 158.414 127.269 158.703 127.807 159.282C128.385 159.819 128.675 160.481 128.675 161.266V196.358H148.949C149.734 196.358 150.395 196.647 150.933 197.226C151.511 197.763 151.801 198.425 151.801 199.21C151.801 199.995 151.511 200.657 150.933 201.194C150.395 201.731 149.734 202 148.949 202H126.939ZM174.825 202.31C173.131 202.31 171.849 201.359 170.981 199.458L155.667 162.32C155.543 161.989 155.481 161.638 155.481 161.266C155.481 160.398 155.729 159.716 156.225 159.22C156.721 158.683 157.403 158.414 158.271 158.414C158.85 158.414 159.367 158.6 159.821 158.972C160.317 159.303 160.689 159.757 160.937 160.336L175.507 196.668L190.077 160.336C190.325 159.757 190.677 159.303 191.131 158.972C191.627 158.6 192.165 158.414 192.743 158.414C193.611 158.414 194.293 158.683 194.789 159.22C195.285 159.716 195.533 160.398 195.533 161.266C195.533 161.638 195.471 161.989 195.347 162.32L180.033 199.458C179.165 201.359 177.884 202.31 176.189 202.31H174.825Z" fill="white"/>
<path d="M81.7779 201.504L83.1921 200.09L81.7779 201.504ZM81.7779 159.592L83.1921 161.006L83.2182 160.98L83.2434 160.953L81.7779 159.592ZM109.74 159.53L108.27 160.887L108.325 160.945L108.383 161L109.74 159.53ZM109.74 163.25L108.383 161.78L108.354 161.808L108.326 161.836L109.74 163.25ZM86.6139 163.994V161.994H84.6139V163.994H86.6139ZM86.6139 177.696H84.6139V179.696H86.6139V177.696ZM107.57 178.502L106.1 179.859L106.155 179.917L106.213 179.972L107.57 178.502ZM107.57 182.222L106.213 180.752L106.184 180.78L106.156 180.808L107.57 182.222ZM86.6139 182.966V180.966H84.6139V182.966H86.6139ZM85.7459 201.504L84.385 200.038L84.3578 200.064L84.3316 200.09L85.7459 201.504ZM83.7619 200.31C83.4871 200.31 83.3405 200.238 83.1921 200.09L80.3636 202.918C81.2898 203.844 82.4659 204.31 83.7619 204.31V200.31ZM83.1921 200.09C83.0436 199.941 82.9719 199.795 82.9719 199.52H78.9719C78.9719 200.816 79.4374 201.992 80.3636 202.918L83.1921 200.09ZM82.9719 199.52V161.576H78.9719V199.52H82.9719ZM82.9719 161.576C82.9719 161.301 83.0436 161.155 83.1921 161.006L80.3636 158.178C79.4374 159.104 78.9719 160.28 78.9719 161.576H82.9719ZM83.2434 160.953C83.4047 160.779 83.5361 160.724 83.7619 160.724V156.724C82.4169 156.724 81.2256 157.247 80.3123 158.231L83.2434 160.953ZM83.7619 160.724H107.88V156.724H83.7619V160.724ZM107.88 160.724C108.077 160.724 108.16 160.767 108.27 160.887L111.209 158.173C110.327 157.218 109.171 156.724 107.88 156.724V160.724ZM108.383 161C108.502 161.11 108.546 161.193 108.546 161.39H112.546C112.546 160.099 112.052 158.942 111.096 158.06L108.383 161ZM108.546 161.39C108.546 161.587 108.502 161.67 108.383 161.78L111.096 164.72C112.052 163.838 112.546 162.681 112.546 161.39H108.546ZM108.326 161.836C108.229 161.932 108.129 161.994 107.88 161.994V165.994C109.119 165.994 110.258 165.56 111.154 164.664L108.326 161.836ZM107.88 161.994H86.6139V165.994H107.88V161.994ZM84.6139 163.994V177.696H88.6139V163.994H84.6139ZM86.6139 179.696H105.71V175.696H86.6139V179.696ZM105.71 179.696C105.907 179.696 105.99 179.739 106.1 179.859L109.039 177.145C108.157 176.19 107.001 175.696 105.71 175.696V179.696ZM106.213 179.972C106.332 180.082 106.376 180.165 106.376 180.362H110.376C110.376 179.071 109.882 177.914 108.926 177.032L106.213 179.972ZM106.376 180.362C106.376 180.559 106.332 180.642 106.213 180.752L108.926 183.692C109.882 182.81 110.376 181.653 110.376 180.362H106.376ZM106.156 180.808C106.059 180.904 105.959 180.966 105.71 180.966V184.966C106.949 184.966 108.088 184.532 108.984 183.636L106.156 180.808ZM105.71 180.966H86.6139V184.966H105.71V180.966ZM84.6139 182.966V199.52H88.6139V182.966H84.6139ZM84.6139 199.52C84.6139 199.746 84.5586 199.877 84.385 200.038L87.1068 202.97C88.0904 202.056 88.6139 200.865 88.6139 199.52H84.6139ZM84.3316 200.09C84.1832 200.238 84.0366 200.31 83.7619 200.31V204.31C85.0578 204.31 86.2339 203.844 87.1601 202.918L84.3316 200.09ZM124.149 200.884L122.697 202.259L122.734 202.299L122.773 202.336L124.149 200.884ZM123.839 159.282L125.253 160.696L125.279 160.67L125.304 160.643L123.839 159.282ZM127.807 159.282L126.341 160.643L126.391 160.697L126.446 160.748L127.807 159.282ZM128.675 196.358H126.675V198.358H128.675V196.358ZM150.933 197.226L149.467 198.587L149.517 198.641L149.572 198.692L150.933 197.226ZM150.933 201.194L149.572 199.728L149.545 199.754L149.518 199.78L150.933 201.194ZM126.939 200C126.379 200 125.941 199.827 125.524 199.432L122.773 202.336C123.927 203.429 125.348 204 126.939 204V200ZM125.6 199.509C125.206 199.092 125.033 198.653 125.033 198.094H121.033C121.033 199.684 121.603 201.105 122.697 202.259L125.6 199.509ZM125.033 198.094V161.266H121.033V198.094H125.033ZM125.033 161.266C125.033 160.991 125.104 160.845 125.253 160.696L122.424 157.868C121.498 158.794 121.033 159.97 121.033 161.266H125.033ZM125.304 160.643C125.465 160.469 125.597 160.414 125.823 160.414V156.414C124.478 156.414 123.286 156.937 122.373 157.921L125.304 160.643ZM125.823 160.414C126.048 160.414 126.18 160.469 126.341 160.643L129.272 157.921C128.359 156.937 127.168 156.414 125.823 156.414V160.414ZM126.446 160.748C126.619 160.909 126.675 161.04 126.675 161.266H130.675C130.675 159.921 130.151 158.73 129.167 157.816L126.446 160.748ZM126.675 161.266V196.358H130.675V161.266H126.675ZM128.675 198.358H148.949V194.358H128.675V198.358ZM148.949 198.358C149.174 198.358 149.306 198.413 149.467 198.587L152.398 195.865C151.485 194.881 150.294 194.358 148.949 194.358V198.358ZM149.572 198.692C149.745 198.853 149.801 198.984 149.801 199.21H153.801C153.801 197.865 153.277 196.674 152.293 195.76L149.572 198.692ZM149.801 199.21C149.801 199.436 149.745 199.567 149.572 199.728L152.293 202.66C153.277 201.746 153.801 200.555 153.801 199.21H149.801ZM149.518 199.78C149.37 199.928 149.223 200 148.949 200V204C150.244 204 151.421 203.534 152.347 202.608L149.518 199.78ZM148.949 200H126.939V204H148.949V200ZM170.981 199.458L169.132 200.22L169.147 200.255L169.162 200.289L170.981 199.458ZM155.667 162.32L153.795 163.022L153.806 163.053L153.818 163.082L155.667 162.32ZM156.225 159.22L157.64 160.634L157.668 160.606L157.695 160.577L156.225 159.22ZM159.821 158.972L158.555 160.52L158.631 160.582L158.712 160.636L159.821 158.972ZM160.937 160.336L162.794 159.592L162.785 159.57L162.776 159.548L160.937 160.336ZM175.507 196.668L173.651 197.412L175.507 202.041L177.364 197.412L175.507 196.668ZM190.077 160.336L188.239 159.548L188.23 159.57L188.221 159.592L190.077 160.336ZM191.131 158.972L192.308 160.589L192.32 160.581L192.331 160.572L191.131 158.972ZM194.789 159.22L193.32 160.577L193.347 160.606L193.375 160.634L194.789 159.22ZM195.347 162.32L197.196 163.082L197.209 163.053L197.22 163.022L195.347 162.32ZM180.033 199.458L181.853 200.289L181.868 200.255L181.882 200.22L180.033 199.458ZM174.825 200.31C174.379 200.31 174.059 200.194 173.785 199.991C173.487 199.77 173.137 199.363 172.801 198.627L169.162 200.289C169.694 201.454 170.418 202.474 171.402 203.203C172.409 203.951 173.577 204.31 174.825 204.31V200.31ZM172.83 198.696L157.516 161.558L153.818 163.082L169.132 200.22L172.83 198.696ZM157.54 161.618C157.505 161.523 157.481 161.411 157.481 161.266H153.481C153.481 161.865 153.582 162.455 153.795 163.022L157.54 161.618ZM157.481 161.266C157.481 160.795 157.603 160.67 157.64 160.634L154.811 157.806C153.855 158.762 153.481 160.001 153.481 161.266H157.481ZM157.695 160.577C157.742 160.526 157.848 160.414 158.271 160.414V156.414C156.959 156.414 155.701 156.839 154.756 157.863L157.695 160.577ZM158.271 160.414C158.381 160.414 158.452 160.435 158.555 160.52L161.088 157.424C160.282 156.765 159.319 156.414 158.271 156.414V160.414ZM158.712 160.636C158.867 160.739 158.995 160.881 159.099 161.124L162.776 159.548C162.384 158.634 161.768 157.866 160.931 157.308L158.712 160.636ZM159.081 161.08L173.651 197.412L177.364 195.924L162.794 159.592L159.081 161.08ZM177.364 197.412L191.934 161.08L188.221 159.592L173.651 195.924L177.364 197.412ZM191.916 161.124C192.039 160.836 192.178 160.684 192.308 160.589L189.955 157.355C189.175 157.922 188.612 158.679 188.239 159.548L191.916 161.124ZM192.331 160.572C192.507 160.44 192.629 160.414 192.743 160.414V156.414C191.7 156.414 190.747 156.76 189.931 157.372L192.331 160.572ZM192.743 160.414C193.167 160.414 193.273 160.526 193.32 160.577L196.259 157.863C195.314 156.839 194.056 156.414 192.743 156.414V160.414ZM193.375 160.634C193.411 160.67 193.533 160.795 193.533 161.266H197.533C197.533 160.001 197.159 158.762 196.204 157.806L193.375 160.634ZM193.533 161.266C193.533 161.411 193.51 161.523 193.475 161.618L197.22 163.022C197.433 162.455 197.533 161.865 197.533 161.266H193.533ZM193.498 161.558L178.184 198.696L181.882 200.22L197.196 163.082L193.498 161.558ZM178.214 198.627C177.878 199.363 177.528 199.77 177.23 199.991C176.956 200.194 176.636 200.31 176.189 200.31V204.31C177.437 204.31 178.606 203.951 179.613 203.203C180.596 202.474 181.321 201.454 181.853 200.289L178.214 198.627ZM176.189 200.31H174.825V204.31H176.189V200.31Z" fill="white"/>
<g filter="url(#filter1_d_204_689)">
<path d="M272 102H192C179.85 102 170 92.1503 170 80V0L272 102Z" fill="url(#paint2_linear_204_689)"/>
</g>
</g>
<defs>
<filter id="filter0_f_204_689" x="9" y="110" width="256" height="162" filterUnits="userSpaceOnUse" color-interpolation-filters="sRGB">
<feFlood flood-opacity="0" result="BackgroundImageFix"/>
<feBlend mode="normal" in="SourceGraphic" in2="BackgroundImageFix" result="shape"/>
<feGaussianBlur stdDeviation="19.5" result="effect1_foregroundBlur_204_689"/>
</filter>
<filter id="filter1_d_204_689" x="147" y="-24" width="152" height="152" filterUnits="userSpaceOnUse" color-interpolation-filters="sRGB">
<feFlood flood-opacity="0" result="BackgroundImageFix"/>
<feColorMatrix in="SourceAlpha" type="matrix" values="0 0 0 0 0 0 0 0 0 0 0 0 0 0 0 0 0 0 127 0" result="hardAlpha"/>
<feOffset dx="2" dy="1"/>
<feGaussianBlur stdDeviation="12.5"/>
<feColorMatrix type="matrix" values="0 0 0 0 0 0 0 0 0 0 0 0 0 0 0 0 0 0 0.33 0"/>
<feBlend mode="normal" in2="BackgroundImageFix" result="effect1_dropShadow_204_689"/>
<feBlend mode="normal" in="SourceGraphic" in2="effect1_dropShadow_204_689" result="shape"/>
</filter>
<linearGradient id="paint0_linear_204_689" x1="136" y1="0" x2="136" y2="308" gradientUnits="userSpaceOnUse">
<stop stop-color="#FF7979"/>
<stop offset="1" stop-color="#E85555"/>
</linearGradient>
<linearGradient id="paint1_linear_204_689" x1="136" y1="0" x2="136" y2="308" gradientUnits="userSpaceOnUse">
<stop stop-color="#CB74F4"/>
<stop offset="0.942892" stop-color="#A849F3"/>
</linearGradient>
<linearGradient id="paint2_linear_204_689" x1="221" y1="0" x2="221" y2="102" gradientUnits="userSpaceOnUse">
<stop stop-color="#B051E0"/>
<stop offset="1" stop-color="#952BCB"/>
</linearGradient>
</defs>
</svg>
