<svg width="272" height="308" viewBox="0 0 272 308" fill="none" xmlns="http://www.w3.org/2000/svg">
<mask id="mask0_204_754" style="mask-type:alpha" maskUnits="userSpaceOnUse" x="0" y="0" width="272" height="308">
<path d="M250 308H22C9.84974 308 0 298.15 0 286V22C0 9.84974 9.84974 0 22 0H170L272 102V286C272 298.15 262.15 308 250 308Z" fill="url(#paint0_linear_204_754)"/>
</mask>
<g mask="url(#mask0_204_754)">
<path d="M250 308H22C9.84974 308 0 298.15 0 286V22C0 9.84974 9.84974 0 22 0H170L272 102V286C272 298.15 262.15 308 250 308Z" fill="url(#paint1_linear_204_754)"/>
<g filter="url(#filter0_f_204_754)">
<rect x="48" y="149" width="178" height="84" fill="#5552E9" fill-opacity="0.39" style="mix-blend-mode:darken"/>
</g>
<path d="M105.67 202.62C101.413 202.62 97.6306 201.69 94.3239 199.83C91.0172 197.929 88.4546 195.304 86.6359 191.956C84.8172 188.567 83.9079 184.723 83.9079 180.424C83.9079 176.043 84.8586 172.157 86.7599 168.768C88.6612 165.379 91.2446 162.754 94.5099 160.894C97.8166 159.034 101.475 158.104 105.484 158.104C108.708 158.104 111.519 158.497 113.916 159.282C116.355 160.067 118.69 161.163 120.922 162.568C121.253 162.733 121.542 163.023 121.79 163.436C122.038 163.849 122.162 164.304 122.162 164.8C122.162 165.503 121.914 166.102 121.418 166.598C120.963 167.094 120.343 167.342 119.558 167.342C119.103 167.342 118.669 167.239 118.256 167.032C116.313 165.875 114.371 165.007 112.428 164.428C110.485 163.849 108.377 163.56 106.104 163.56C102.963 163.56 100.131 164.221 97.6099 165.544C95.0886 166.867 93.1046 168.809 91.6579 171.372C90.2526 173.893 89.5499 176.911 89.5499 180.424C89.5499 183.648 90.2112 186.541 91.5339 189.104C92.8979 191.625 94.8406 193.63 97.3619 195.118C99.9246 196.565 102.942 197.288 106.414 197.288C110.299 197.288 113.916 196.379 117.264 194.56V183.338H107.034C106.331 183.338 105.732 183.09 105.236 182.594C104.74 182.098 104.492 181.499 104.492 180.796C104.492 180.093 104.74 179.494 105.236 178.998C105.732 178.502 106.331 178.254 107.034 178.254H119.248C120.075 178.254 120.777 178.543 121.356 179.122C121.935 179.701 122.224 180.403 122.224 181.23V195.304C122.224 196.172 121.997 196.957 121.542 197.66C121.129 198.321 120.571 198.817 119.868 199.148C115.239 201.463 110.506 202.62 105.67 202.62ZM140.566 202.31C139.78 202.31 139.119 202.041 138.582 201.504C138.044 200.967 137.776 200.305 137.776 199.52V161.266C137.776 160.481 138.044 159.819 138.582 159.282C139.119 158.703 139.78 158.414 140.566 158.414C141.351 158.414 142.012 158.703 142.55 159.282C143.128 159.819 143.418 160.481 143.418 161.266V199.52C143.418 200.305 143.128 200.967 142.55 201.504C142.012 202.041 141.351 202.31 140.566 202.31ZM162.585 202.31C161.8 202.31 161.139 202.041 160.601 201.504C160.064 200.967 159.795 200.305 159.795 199.52V161.576C159.795 160.791 160.064 160.129 160.601 159.592C161.139 159.013 161.8 158.724 162.585 158.724H186.703C187.447 158.724 188.067 158.993 188.563 159.53C189.101 160.026 189.369 160.646 189.369 161.39C189.369 162.134 189.101 162.754 188.563 163.25C188.067 163.746 187.447 163.994 186.703 163.994H165.437V177.696H184.533C185.277 177.696 185.897 177.965 186.393 178.502C186.931 178.998 187.199 179.618 187.199 180.362C187.199 181.106 186.931 181.726 186.393 182.222C185.897 182.718 185.277 182.966 184.533 182.966H165.437V199.52C165.437 200.305 165.148 200.967 164.569 201.504C164.032 202.041 163.371 202.31 162.585 202.31Z" fill="white"/>
<path d="M94.3239 199.83L93.327 201.564L93.3351 201.569L93.3434 201.573L94.3239 199.83ZM86.6359 191.956L84.8736 192.902L84.8784 192.911L86.6359 191.956ZM86.7599 168.768L88.5042 169.747V169.747L86.7599 168.768ZM94.5099 160.894L93.5294 159.151L93.52 159.156L94.5099 160.894ZM113.916 159.282L113.293 161.183L113.303 161.186L113.916 159.282ZM120.922 162.568L119.856 164.26L119.939 164.313L120.027 164.357L120.922 162.568ZM121.79 163.436L120.075 164.465L120.075 164.465L121.79 163.436ZM121.418 166.598L120.004 165.184L119.973 165.215L119.944 165.247L121.418 166.598ZM118.256 167.032L117.232 168.75L117.296 168.788L117.361 168.821L118.256 167.032ZM112.428 164.428L112.999 162.511L112.428 164.428ZM97.6099 165.544L98.539 167.315V167.315L97.6099 165.544ZM91.6579 171.372L89.9162 170.389L89.9109 170.398L91.6579 171.372ZM91.5339 189.104L89.7567 190.021L89.7656 190.039L89.7748 190.056L91.5339 189.104ZM97.3619 195.118L96.3454 196.84L96.362 196.85L96.3787 196.86L97.3619 195.118ZM117.264 194.56L118.219 196.317L119.264 195.75V194.56H117.264ZM117.264 183.338H119.264V181.338H117.264V183.338ZM121.542 197.66L119.863 196.573L119.854 196.587L119.846 196.6L121.542 197.66ZM119.868 199.148L119.016 197.338L118.995 197.348L118.973 197.359L119.868 199.148ZM105.67 200.62C101.713 200.62 98.2765 199.759 95.3044 198.087L93.3434 201.573C96.9846 203.621 101.112 204.62 105.67 204.62V200.62ZM95.3208 198.096C92.3345 196.379 90.0352 194.024 88.3933 191.001L84.8784 192.911C86.8739 196.584 89.7 199.478 93.327 201.564L95.3208 198.096ZM88.3982 191.01C86.7532 187.945 85.9079 184.432 85.9079 180.424H81.9079C81.9079 185.013 82.8812 189.189 84.8736 192.902L88.3982 191.01ZM85.9079 180.424C85.9079 176.341 86.791 172.8 88.5042 169.747L85.0156 167.789C82.9261 171.514 81.9079 175.744 81.9079 180.424H85.9079ZM88.5042 169.747C90.2341 166.663 92.5614 164.306 95.4998 162.632L93.52 159.156C89.9278 161.202 87.0884 164.095 85.0156 167.789L88.5042 169.747ZM95.4904 162.637C98.4806 160.955 101.798 160.104 105.484 160.104V156.104C101.151 156.104 97.1525 157.113 93.5294 159.151L95.4904 162.637ZM105.484 160.104C108.552 160.104 111.144 160.478 113.293 161.183L114.539 157.381C111.893 156.515 108.864 156.104 105.484 156.104V160.104ZM113.303 161.186C115.578 161.918 117.762 162.942 119.856 164.26L121.988 160.876C119.618 159.384 117.131 158.216 114.529 157.378L113.303 161.186ZM120.027 164.357C119.981 164.334 119.964 164.314 119.973 164.323C119.983 164.334 120.021 164.374 120.075 164.465L123.505 162.407C123.12 161.765 122.576 161.159 121.816 160.779L120.027 164.357ZM120.075 164.465C120.131 164.558 120.162 164.655 120.162 164.8H124.162C124.162 163.953 123.945 163.14 123.505 162.407L120.075 164.465ZM120.162 164.8C120.162 164.973 120.124 165.064 120.004 165.184L122.832 168.012C123.704 167.14 124.162 166.032 124.162 164.8H120.162ZM119.944 165.247C119.917 165.275 119.898 165.287 119.869 165.299C119.833 165.313 119.74 165.342 119.558 165.342V169.342C120.801 169.342 121.995 168.929 122.892 167.949L119.944 165.247ZM119.558 165.342C119.419 165.342 119.291 165.313 119.15 165.243L117.361 168.821C118.048 169.164 118.788 169.342 119.558 169.342V165.342ZM119.28 165.314C117.211 164.081 115.117 163.142 112.999 162.511L111.857 166.345C113.624 166.871 115.416 167.668 117.232 168.75L119.28 165.314ZM112.999 162.511C110.85 161.871 108.547 161.56 106.104 161.56V165.56C108.207 165.56 110.121 165.828 111.857 166.345L112.999 162.511ZM106.104 161.56C102.673 161.56 99.5174 162.285 96.6808 163.773L98.539 167.315C100.745 166.158 103.252 165.56 106.104 165.56V161.56ZM96.6808 163.773C93.8065 165.281 91.5455 167.503 89.9162 170.389L93.3995 172.355C94.6636 170.116 96.3706 168.453 98.539 167.315L96.6808 163.773ZM89.9109 170.398C88.3072 173.276 87.5499 176.643 87.5499 180.424H91.5499C91.5499 177.178 92.1979 174.511 93.4049 172.346L89.9109 170.398ZM87.5499 180.424C87.5499 183.929 88.2711 187.143 89.7567 190.021L93.3111 188.187C92.1514 185.94 91.5499 183.367 91.5499 180.424H87.5499ZM89.7748 190.056C91.3155 192.904 93.5181 195.172 96.3454 196.84L98.3784 193.396C96.163 192.088 94.4802 190.347 93.293 188.152L89.7748 190.056ZM96.3787 196.86C99.2913 198.504 102.66 199.288 106.414 199.288V195.288C103.224 195.288 100.558 194.625 98.3451 193.376L96.3787 196.86ZM106.414 199.288C110.626 199.288 114.572 198.299 118.219 196.317L116.309 192.803C113.26 194.459 109.973 195.288 106.414 195.288V199.288ZM119.264 194.56V183.338H115.264V194.56H119.264ZM117.264 181.338H107.034V185.338H117.264V181.338ZM107.034 181.338C106.861 181.338 106.77 181.3 106.65 181.18L103.822 184.008C104.693 184.88 105.802 185.338 107.034 185.338V181.338ZM106.65 181.18C106.53 181.06 106.492 180.969 106.492 180.796H102.492C102.492 182.028 102.95 183.136 103.822 184.008L106.65 181.18ZM106.492 180.796C106.492 180.623 106.53 180.532 106.65 180.412L103.822 177.584C102.95 178.456 102.492 179.564 102.492 180.796H106.492ZM106.65 180.412C106.77 180.292 106.861 180.254 107.034 180.254V176.254C105.802 176.254 104.693 176.712 103.822 177.584L106.65 180.412ZM107.034 180.254H119.248V176.254H107.034V180.254ZM119.248 180.254C119.55 180.254 119.742 180.337 119.942 180.536L122.77 177.708C121.812 176.75 120.599 176.254 119.248 176.254V180.254ZM119.942 180.536C120.141 180.736 120.224 180.928 120.224 181.23H124.224C124.224 179.879 123.728 178.666 122.77 177.708L119.942 180.536ZM120.224 181.23V195.304H124.224V181.23H120.224ZM120.224 195.304C120.224 195.802 120.1 196.207 119.863 196.573L123.221 198.747C123.893 197.708 124.224 196.542 124.224 195.304H120.224ZM119.846 196.6C119.635 196.937 119.37 197.172 119.016 197.338L120.719 200.958C121.771 200.463 122.622 199.706 123.238 198.72L119.846 196.6ZM118.973 197.359C114.602 199.545 110.174 200.62 105.67 200.62V204.62C110.838 204.62 115.875 203.38 120.762 200.937L118.973 197.359ZM138.582 201.504L139.996 200.09L138.582 201.504ZM138.582 159.282L139.996 160.696L140.022 160.67L140.047 160.643L138.582 159.282ZM142.55 159.282L141.084 160.643L141.135 160.697L141.189 160.748L142.55 159.282ZM142.55 201.504L141.189 200.038L141.162 200.064L141.135 200.09L142.55 201.504ZM140.566 200.31C140.291 200.31 140.144 200.238 139.996 200.09L137.168 202.918C138.094 203.844 139.27 204.31 140.566 204.31V200.31ZM139.996 200.09C139.847 199.941 139.776 199.795 139.776 199.52H135.776C135.776 200.816 136.241 201.992 137.168 202.918L139.996 200.09ZM139.776 199.52V161.266H135.776V199.52H139.776ZM139.776 161.266C139.776 160.991 139.847 160.845 139.996 160.696L137.168 157.868C136.241 158.794 135.776 159.97 135.776 161.266H139.776ZM140.047 160.643C140.209 160.469 140.34 160.414 140.566 160.414V156.414C139.221 156.414 138.03 156.937 137.116 157.921L140.047 160.643ZM140.566 160.414C140.791 160.414 140.923 160.469 141.084 160.643L144.015 157.921C143.102 156.937 141.911 156.414 140.566 156.414V160.414ZM141.189 160.748C141.363 160.909 141.418 161.04 141.418 161.266H145.418C145.418 159.921 144.894 158.73 143.911 157.816L141.189 160.748ZM141.418 161.266V199.52H145.418V161.266H141.418ZM141.418 199.52C141.418 199.746 141.363 199.877 141.189 200.038L143.911 202.97C144.894 202.056 145.418 200.865 145.418 199.52H141.418ZM141.135 200.09C140.987 200.238 140.84 200.31 140.566 200.31V204.31C141.862 204.31 143.038 203.844 143.964 202.918L141.135 200.09ZM160.601 201.504L162.016 200.09L160.601 201.504ZM160.601 159.592L162.016 161.006L162.042 160.98L162.067 160.953L160.601 159.592ZM188.563 159.53L187.094 160.887L187.148 160.945L187.207 161L188.563 159.53ZM188.563 163.25L187.207 161.78L187.177 161.808L187.149 161.836L188.563 163.25ZM165.437 163.994V161.994H163.437V163.994H165.437ZM165.437 177.696H163.437V179.696H165.437V177.696ZM186.393 178.502L184.924 179.859L184.978 179.917L185.037 179.972L186.393 178.502ZM186.393 182.222L185.037 180.752L185.007 180.78L184.979 180.808L186.393 182.222ZM165.437 182.966V180.966H163.437V182.966H165.437ZM164.569 201.504L163.208 200.038L163.181 200.064L163.155 200.09L164.569 201.504ZM162.585 200.31C162.311 200.31 162.164 200.238 162.016 200.09L159.187 202.918C160.113 203.844 161.289 204.31 162.585 204.31V200.31ZM162.016 200.09C161.867 199.941 161.795 199.795 161.795 199.52H157.795C157.795 200.816 158.261 201.992 159.187 202.918L162.016 200.09ZM161.795 199.52V161.576H157.795V199.52H161.795ZM161.795 161.576C161.795 161.301 161.867 161.155 162.016 161.006L159.187 158.178C158.261 159.104 157.795 160.28 157.795 161.576H161.795ZM162.067 160.953C162.228 160.779 162.36 160.724 162.585 160.724V156.724C161.24 156.724 160.049 157.247 159.136 158.231L162.067 160.953ZM162.585 160.724H186.703V156.724H162.585V160.724ZM186.703 160.724C186.9 160.724 186.984 160.767 187.094 160.887L190.033 158.173C189.151 157.218 187.995 156.724 186.703 156.724V160.724ZM187.207 161C187.326 161.11 187.369 161.193 187.369 161.39H191.369C191.369 160.099 190.876 158.942 189.92 158.06L187.207 161ZM187.369 161.39C187.369 161.587 187.326 161.67 187.207 161.78L189.92 164.72C190.876 163.838 191.369 162.681 191.369 161.39H187.369ZM187.149 161.836C187.053 161.932 186.953 161.994 186.703 161.994V165.994C187.942 165.994 189.082 165.56 189.978 164.664L187.149 161.836ZM186.703 161.994H165.437V165.994H186.703V161.994ZM163.437 163.994V177.696H167.437V163.994H163.437ZM165.437 179.696H184.533V175.696H165.437V179.696ZM184.533 179.696C184.73 179.696 184.814 179.739 184.924 179.859L187.863 177.145C186.981 176.19 185.825 175.696 184.533 175.696V179.696ZM185.037 179.972C185.156 180.082 185.199 180.165 185.199 180.362H189.199C189.199 179.071 188.706 177.914 187.75 177.032L185.037 179.972ZM185.199 180.362C185.199 180.559 185.156 180.642 185.037 180.752L187.75 183.692C188.706 182.81 189.199 181.653 189.199 180.362H185.199ZM184.979 180.808C184.883 180.904 184.783 180.966 184.533 180.966V184.966C185.772 184.966 186.912 184.532 187.808 183.636L184.979 180.808ZM184.533 180.966H165.437V184.966H184.533V180.966ZM163.437 182.966V199.52H167.437V182.966H163.437ZM163.437 199.52C163.437 199.746 163.382 199.877 163.208 200.038L165.93 202.97C166.914 202.056 167.437 200.865 167.437 199.52H163.437ZM163.155 200.09C163.007 200.238 162.86 200.31 162.585 200.31V204.31C163.881 204.31 165.057 203.844 165.984 202.918L163.155 200.09Z" fill="white"/>
<g filter="url(#filter1_d_204_754)">
<path d="M272 102H192C179.85 102 170 92.1503 170 80V0L272 102Z" fill="url(#paint2_linear_204_754)"/>
</g>
</g>
<defs>
<filter id="filter0_f_204_754" x="9" y="110" width="256" height="162" filterUnits="userSpaceOnUse" color-interpolation-filters="sRGB">
<feFlood flood-opacity="0" result="BackgroundImageFix"/>
<feBlend mode="normal" in="SourceGraphic" in2="BackgroundImageFix" result="shape"/>
<feGaussianBlur stdDeviation="19.5" result="effect1_foregroundBlur_204_754"/>
</filter>
<filter id="filter1_d_204_754" x="147" y="-24" width="152" height="152" filterUnits="userSpaceOnUse" color-interpolation-filters="sRGB">
<feFlood flood-opacity="0" result="BackgroundImageFix"/>
<feColorMatrix in="SourceAlpha" type="matrix" values="0 0 0 0 0 0 0 0 0 0 0 0 0 0 0 0 0 0 127 0" result="hardAlpha"/>
<feOffset dx="2" dy="1"/>
<feGaussianBlur stdDeviation="12.5"/>
<feColorMatrix type="matrix" values="0 0 0 0 0 0 0 0 0 0 0 0 0 0 0 0 0 0 0.33 0"/>
<feBlend mode="normal" in2="BackgroundImageFix" result="effect1_dropShadow_204_754"/>
<feBlend mode="normal" in="SourceGraphic" in2="effect1_dropShadow_204_754" result="shape"/>
</filter>
<linearGradient id="paint0_linear_204_754" x1="136" y1="0" x2="136" y2="308" gradientUnits="userSpaceOnUse">
<stop stop-color="#FF7979"/>
<stop offset="1" stop-color="#E85555"/>
</linearGradient>
<linearGradient id="paint1_linear_204_754" x1="136" y1="0" x2="136" y2="308" gradientUnits="userSpaceOnUse">
<stop stop-color="#A28AFF"/>
<stop offset="1" stop-color="#7655FB"/>
</linearGradient>
<linearGradient id="paint2_linear_204_754" x1="221" y1="0" x2="221" y2="102" gradientUnits="userSpaceOnUse">
<stop stop-color="#8A71F1"/>
<stop offset="1" stop-color="#5C39E9"/>
</linearGradient>
</defs>
</svg>
