<svg width="272" height="308" viewBox="0 0 272 308" fill="none" xmlns="http://www.w3.org/2000/svg">
<mask id="mask0_204_325" style="mask-type:alpha" maskUnits="userSpaceOnUse" x="0" y="0" width="272" height="308">
<path d="M250 308H22C9.84974 308 0 298.15 0 286V22C0 9.84974 9.84974 0 22 0H170L272 102V286C272 298.15 262.15 308 250 308Z" fill="url(#paint0_linear_204_325)"/>
</mask>
<g mask="url(#mask0_204_325)">
<path d="M250 308H22C9.84974 308 0 298.15 0 286V22C0 9.84974 9.84974 0 22 0H170L272 102V286C272 298.15 262.15 308 250 308Z" fill="url(#paint1_linear_204_325)"/>
<g filter="url(#filter0_f_204_325)">
<rect x="48" y="149" width="178" height="84" fill="#0B07C6" fill-opacity="0.16" style="mix-blend-mode:darken"/>
</g>
<path d="M67.9035 202.31C67.1181 202.31 66.4568 202.041 65.9195 201.504C65.3821 200.967 65.1135 200.305 65.1135 199.52V162.506C65.1135 161.39 65.5061 160.439 66.2915 159.654C67.0768 158.827 68.0275 158.414 69.1435 158.414H71.1895C72.0161 158.414 72.7601 158.662 73.4215 159.158C74.1241 159.654 74.6408 160.274 74.9715 161.018L89.0455 196.11L103.119 161.018C103.45 160.274 103.946 159.654 104.607 159.158C105.31 158.662 106.075 158.414 106.901 158.414H108.947C110.063 158.414 111.014 158.827 111.799 159.654C112.585 160.439 112.977 161.39 112.977 162.506V199.52C112.977 200.305 112.709 200.967 112.171 201.504C111.634 202.041 110.973 202.31 110.187 202.31C109.402 202.31 108.72 202.041 108.141 201.504C107.604 200.967 107.335 200.305 107.335 199.52V164.304L93.0135 199.706C92.6828 200.491 92.1455 201.132 91.4015 201.628C90.6988 202.083 89.9135 202.31 89.0455 202.31C88.1775 202.31 87.3715 202.083 86.6275 201.628C85.9248 201.132 85.4081 200.491 85.0775 199.706L70.7555 164.304V199.52C70.7555 200.305 70.4661 200.967 69.8875 201.504C69.3501 202.041 68.6888 202.31 67.9035 202.31ZM132.124 202.31C131.339 202.31 130.678 202.041 130.14 201.504C129.603 200.967 129.334 200.305 129.334 199.52V161.266C129.334 160.481 129.603 159.819 130.14 159.282C130.678 158.703 131.339 158.414 132.124 158.414C132.91 158.414 133.571 158.703 134.108 159.282C134.687 159.819 134.976 160.481 134.976 161.266V199.52C134.976 200.305 134.687 200.967 134.108 201.504C133.571 202.041 132.91 202.31 132.124 202.31ZM154.144 202C153.359 202 152.697 201.731 152.16 201.194C151.623 200.657 151.354 199.995 151.354 199.21V161.576C151.354 160.791 151.623 160.129 152.16 159.592C152.697 159.013 153.359 158.724 154.144 158.724H166.606C171.318 158.724 175.307 159.778 178.572 161.886C181.879 163.953 184.359 166.639 186.012 169.946C187.665 173.253 188.492 176.725 188.492 180.362C188.492 183.999 187.665 187.471 186.012 190.778C184.359 194.085 181.879 196.792 178.572 198.9C175.307 200.967 171.318 202 166.606 202H154.144ZM165.924 196.73C169.313 196.73 172.289 196.048 174.852 194.684C177.415 193.279 179.399 191.357 180.804 188.918C182.209 186.438 182.912 183.586 182.912 180.362C182.912 177.138 182.209 174.307 180.804 171.868C179.399 169.388 177.415 167.466 174.852 166.102C172.289 164.697 169.313 163.994 165.924 163.994H156.996V196.73H165.924Z" fill="white"/>
<path d="M65.9195 201.504L67.3337 200.09L65.9195 201.504ZM66.2915 159.654L67.7057 161.068L67.7238 161.05L67.7415 161.031L66.2915 159.654ZM73.4215 159.158L72.2215 160.758L72.2445 160.775L72.2681 160.792L73.4215 159.158ZM74.9715 161.018L76.8277 160.274L76.814 160.239L76.7991 160.206L74.9715 161.018ZM89.0455 196.11L87.1892 196.854L89.0455 201.483L90.9017 196.854L89.0455 196.11ZM103.119 161.018L101.292 160.206L101.277 160.239L101.263 160.274L103.119 161.018ZM104.607 159.158L103.454 157.524L103.431 157.541L103.407 157.558L104.607 159.158ZM111.799 159.654L110.349 161.031L110.367 161.05L110.385 161.068L111.799 159.654ZM112.171 201.504L113.586 202.918L113.586 202.918L112.171 201.504ZM108.141 201.504L106.727 202.918L106.753 202.944L106.781 202.97L108.141 201.504ZM107.335 164.304H109.335L105.481 163.554L107.335 164.304ZM93.0135 199.706L94.8567 200.482L94.8622 200.469L94.8675 200.456L93.0135 199.706ZM91.4015 201.628L92.488 203.307L92.4995 203.3L92.5109 203.292L91.4015 201.628ZM86.6275 201.628L85.4741 203.262L85.5281 203.3L85.5846 203.335L86.6275 201.628ZM85.0775 199.706L83.2234 200.456L83.2287 200.469L83.2342 200.482L85.0775 199.706ZM70.7555 164.304L72.6095 163.554L68.7555 164.304H70.7555ZM69.8875 201.504L68.5266 200.038L68.4994 200.064L68.4732 200.09L69.8875 201.504ZM67.9035 200.31C67.6287 200.31 67.4821 200.238 67.3337 200.09L64.5052 202.918C65.4314 203.844 66.6075 204.31 67.9035 204.31V200.31ZM67.3337 200.09C67.1852 199.941 67.1135 199.795 67.1135 199.52H63.1135C63.1135 200.816 63.579 201.992 64.5052 202.918L67.3337 200.09ZM67.1135 199.52V162.506H63.1135V199.52H67.1135ZM67.1135 162.506C67.1135 161.918 67.2974 161.476 67.7057 161.068L64.8772 158.24C63.7148 159.402 63.1135 160.862 63.1135 162.506H67.1135ZM67.7415 161.031C68.1585 160.593 68.589 160.414 69.1435 160.414V156.414C67.4659 156.414 65.9951 157.062 64.8415 158.276L67.7415 161.031ZM69.1435 160.414H71.1895V156.414H69.1435V160.414ZM71.1895 160.414C71.5834 160.414 71.9063 160.522 72.2215 160.758L74.6215 157.558C73.6139 156.802 72.4489 156.414 71.1895 156.414V160.414ZM72.2681 160.792C72.6933 161.092 72.9681 161.435 73.1438 161.83L76.7991 160.206C76.3135 159.113 75.5549 158.216 74.5748 157.524L72.2681 160.792ZM73.1152 161.762L87.1892 196.854L90.9017 195.366L76.8277 160.274L73.1152 161.762ZM90.9017 196.854L104.976 161.762L101.263 160.274L87.1892 195.366L90.9017 196.854ZM104.947 161.83C105.137 161.403 105.415 161.053 105.807 160.758L103.407 157.558C102.478 158.255 101.763 159.145 101.292 160.206L104.947 161.83ZM105.761 160.792C106.141 160.524 106.505 160.414 106.901 160.414V156.414C105.644 156.414 104.48 156.8 103.454 157.524L105.761 160.792ZM106.901 160.414H108.947V156.414H106.901V160.414ZM108.947 160.414C109.502 160.414 109.932 160.593 110.349 161.031L113.249 158.276C112.096 157.062 110.625 156.414 108.947 156.414V160.414ZM110.385 161.068C110.793 161.476 110.977 161.918 110.977 162.506H114.977C114.977 160.862 114.376 159.402 113.214 158.24L110.385 161.068ZM110.977 162.506V199.52H114.977V162.506H110.977ZM110.977 199.52C110.977 199.795 110.906 199.941 110.757 200.09L113.586 202.918C114.512 201.992 114.977 200.816 114.977 199.52H110.977ZM110.757 200.09C110.609 200.238 110.462 200.31 110.187 200.31V204.31C111.483 204.31 112.659 203.844 113.586 202.918L110.757 200.09ZM110.187 200.31C109.91 200.31 109.713 200.234 109.502 200.038L106.781 202.97C107.727 203.848 108.894 204.31 110.187 204.31V200.31ZM109.556 200.09C109.407 199.941 109.335 199.795 109.335 199.52H105.335C105.335 200.816 105.801 201.992 106.727 202.918L109.556 200.09ZM109.335 199.52V164.304H105.335V199.52H109.335ZM105.481 163.554L91.1594 198.956L94.8675 200.456L109.189 165.054L105.481 163.554ZM91.1702 198.93C90.9995 199.335 90.7266 199.674 90.2921 199.964L92.5109 203.292C93.5643 202.59 94.3661 201.647 94.8567 200.482L91.1702 198.93ZM90.315 199.949C89.9484 200.186 89.543 200.31 89.0455 200.31V204.31C90.2839 204.31 91.4492 203.979 92.488 203.307L90.315 199.949ZM89.0455 200.31C88.5472 200.31 88.1018 200.185 87.6704 199.921L85.5846 203.335C86.6411 203.98 87.8077 204.31 89.0455 204.31V200.31ZM87.7808 199.994C87.3808 199.712 87.1048 199.367 86.9207 198.93L83.2342 200.482C83.7115 201.616 84.4688 202.552 85.4741 203.262L87.7808 199.994ZM86.9315 198.956L72.6095 163.554L68.9014 165.054L83.2234 200.456L86.9315 198.956ZM68.7555 164.304V199.52H72.7555V164.304H68.7555ZM68.7555 199.52C68.7555 199.746 68.7002 199.877 68.5266 200.038L71.2484 202.97C72.232 202.056 72.7555 200.865 72.7555 199.52H68.7555ZM68.4732 200.09C68.3248 200.238 68.1782 200.31 67.9035 200.31V204.31C69.1994 204.31 70.3755 203.844 71.3017 202.918L68.4732 200.09ZM130.14 201.504L131.555 200.09L130.14 201.504ZM130.14 159.282L131.555 160.696L131.581 160.67L131.606 160.643L130.14 159.282ZM134.108 159.282L132.643 160.643L132.693 160.697L132.747 160.748L134.108 159.282ZM134.108 201.504L132.747 200.038L132.72 200.064L132.694 200.09L134.108 201.504ZM132.124 200.31C131.85 200.31 131.703 200.238 131.555 200.09L128.726 202.918C129.652 203.844 130.828 204.31 132.124 204.31V200.31ZM131.555 200.09C131.406 199.941 131.334 199.795 131.334 199.52H127.334C127.334 200.816 127.8 201.992 128.726 202.918L131.555 200.09ZM131.334 199.52V161.266H127.334V199.52H131.334ZM131.334 161.266C131.334 160.991 131.406 160.845 131.555 160.696L128.726 157.868C127.8 158.794 127.334 159.97 127.334 161.266H131.334ZM131.606 160.643C131.767 160.469 131.899 160.414 132.124 160.414V156.414C130.779 156.414 129.588 156.937 128.675 157.921L131.606 160.643ZM132.124 160.414C132.35 160.414 132.481 160.469 132.643 160.643L135.574 157.921C134.661 156.937 133.469 156.414 132.124 156.414V160.414ZM132.747 160.748C132.921 160.909 132.976 161.04 132.976 161.266H136.976C136.976 159.921 136.453 158.73 135.469 157.816L132.747 160.748ZM132.976 161.266V199.52H136.976V161.266H132.976ZM132.976 199.52C132.976 199.746 132.921 199.877 132.747 200.038L135.469 202.97C136.453 202.056 136.976 200.865 136.976 199.52H132.976ZM132.694 200.09C132.546 200.238 132.399 200.31 132.124 200.31V204.31C133.42 204.31 134.596 203.844 135.523 202.918L132.694 200.09ZM152.16 201.194L153.574 199.78L152.16 201.194ZM152.16 159.592L153.574 161.006L153.6 160.98L153.626 160.953L152.16 159.592ZM178.572 161.886L177.487 163.566L177.5 163.574L177.512 163.582L178.572 161.886ZM186.012 169.946L184.223 170.84L186.012 169.946ZM186.012 190.778L184.223 189.884L186.012 190.778ZM178.572 198.9L179.642 200.59L179.647 200.586L178.572 198.9ZM174.852 194.684L175.792 196.449L175.803 196.444L175.814 196.438L174.852 194.684ZM180.804 188.918L182.537 189.917L182.54 189.91L182.544 189.904L180.804 188.918ZM180.804 171.868L179.064 172.854L179.068 172.86L179.071 172.867L180.804 171.868ZM174.852 166.102L173.89 167.856L173.901 167.862L173.912 167.867L174.852 166.102ZM156.996 163.994V161.994H154.996V163.994H156.996ZM156.996 196.73H154.996V198.73H156.996V196.73ZM154.144 200C153.869 200 153.723 199.928 153.574 199.78L150.746 202.608C151.672 203.534 152.848 204 154.144 204V200ZM153.574 199.78C153.426 199.631 153.354 199.485 153.354 199.21H149.354C149.354 200.506 149.82 201.682 150.746 202.608L153.574 199.78ZM153.354 199.21V161.576H149.354V199.21H153.354ZM153.354 161.576C153.354 161.301 153.426 161.155 153.574 161.006L150.746 158.178C149.82 159.104 149.354 160.28 149.354 161.576H153.354ZM153.626 160.953C153.787 160.779 153.918 160.724 154.144 160.724V156.724C152.799 156.724 151.608 157.247 150.694 158.231L153.626 160.953ZM154.144 160.724H166.606V156.724H154.144V160.724ZM166.606 160.724C171.016 160.724 174.608 161.708 177.487 163.566L179.657 160.206C176.005 157.848 171.62 156.724 166.606 156.724V160.724ZM177.512 163.582C180.524 165.465 182.744 167.881 184.223 170.84L187.801 169.052C185.974 165.397 183.233 162.441 179.632 160.19L177.512 163.582ZM184.223 170.84C185.74 173.874 186.492 177.04 186.492 180.362H190.492C190.492 176.409 189.591 172.631 187.801 169.052L184.223 170.84ZM186.492 180.362C186.492 183.684 185.74 186.85 184.223 189.884L187.801 191.672C189.591 188.093 190.492 184.315 190.492 180.362H186.492ZM184.223 189.884C182.742 192.847 180.518 195.288 177.497 197.214L179.647 200.586C183.24 198.296 185.976 195.323 187.801 191.672L184.223 189.884ZM177.502 197.21C174.621 199.034 171.023 200 166.606 200V204C171.613 204 175.992 202.9 179.642 200.59L177.502 197.21ZM166.606 200H154.144V204H166.606V200ZM165.924 198.73C169.586 198.73 172.895 197.991 175.792 196.449L173.912 192.919C171.684 194.105 169.041 194.73 165.924 194.73V198.73ZM175.814 196.438C178.685 194.863 180.941 192.685 182.537 189.917L179.071 187.919C177.856 190.028 176.145 191.694 173.89 192.93L175.814 196.438ZM182.544 189.904C184.141 187.086 184.912 183.886 184.912 180.362H180.912C180.912 183.286 180.278 185.79 179.064 187.932L182.544 189.904ZM184.912 180.362C184.912 176.839 184.141 173.654 182.537 170.869L179.071 172.867C180.277 174.96 180.912 177.437 180.912 180.362H184.912ZM182.544 170.882C180.948 168.065 178.683 165.876 175.792 164.337L173.912 167.867C176.146 169.056 177.85 170.711 179.064 172.854L182.544 170.882ZM175.814 164.348C172.912 162.757 169.595 161.994 165.924 161.994V165.994C169.031 165.994 171.666 166.636 173.89 167.856L175.814 164.348ZM165.924 161.994H156.996V165.994H165.924V161.994ZM154.996 163.994V196.73H158.996V163.994H154.996ZM156.996 198.73H165.924V194.73H156.996V198.73Z" fill="white"/>
<g filter="url(#filter1_d_204_325)">
<path d="M272 102H192C179.85 102 170 92.1503 170 80V0L272 102Z" fill="url(#paint2_linear_204_325)"/>
</g>
</g>
<defs>
<filter id="filter0_f_204_325" x="9" y="110" width="256" height="162" filterUnits="userSpaceOnUse" color-interpolation-filters="sRGB">
<feFlood flood-opacity="0" result="BackgroundImageFix"/>
<feBlend mode="normal" in="SourceGraphic" in2="BackgroundImageFix" result="shape"/>
<feGaussianBlur stdDeviation="19.5" result="effect1_foregroundBlur_204_325"/>
</filter>
<filter id="filter1_d_204_325" x="147" y="-24" width="152" height="152" filterUnits="userSpaceOnUse" color-interpolation-filters="sRGB">
<feFlood flood-opacity="0" result="BackgroundImageFix"/>
<feColorMatrix in="SourceAlpha" type="matrix" values="0 0 0 0 0 0 0 0 0 0 0 0 0 0 0 0 0 0 127 0" result="hardAlpha"/>
<feOffset dx="2" dy="1"/>
<feGaussianBlur stdDeviation="12.5"/>
<feColorMatrix type="matrix" values="0 0 0 0 0 0 0 0 0 0 0 0 0 0 0 0 0 0 0.33 0"/>
<feBlend mode="normal" in2="BackgroundImageFix" result="effect1_dropShadow_204_325"/>
<feBlend mode="normal" in="SourceGraphic" in2="effect1_dropShadow_204_325" result="shape"/>
</filter>
<linearGradient id="paint0_linear_204_325" x1="136" y1="0" x2="136" y2="308" gradientUnits="userSpaceOnUse">
<stop stop-color="#FF7979"/>
<stop offset="1" stop-color="#E85555"/>
</linearGradient>
<linearGradient id="paint1_linear_204_325" x1="136" y1="0" x2="136" y2="308" gradientUnits="userSpaceOnUse">
<stop stop-color="#7CA9FF"/>
<stop offset="1" stop-color="#4377DC"/>
</linearGradient>
<linearGradient id="paint2_linear_204_325" x1="221" y1="0" x2="221" y2="102" gradientUnits="userSpaceOnUse">
<stop stop-color="#4B7BF7"/>
<stop offset="1" stop-color="#1A4DD1"/>
</linearGradient>
</defs>
</svg>
