<svg width="272" height="308" viewBox="0 0 272 308" fill="none" xmlns="http://www.w3.org/2000/svg">
<rect width="272" height="308" fill="#E5E5E5"/>
<mask id="mask0_204_696" style="mask-type:alpha" maskUnits="userSpaceOnUse" x="0" y="0" width="272" height="308">
<path d="M250 308H22C9.84974 308 0 298.15 0 286V22C0 9.84974 9.84974 0 22 0H170L272 102V286C272 298.15 262.15 308 250 308Z" fill="url(#paint0_linear_204_696)"/>
</mask>
<g mask="url(#mask0_204_696)">
<path d="M250 308H22C9.84974 308 0 298.15 0 286V22C0 9.84974 9.84974 0 22 0H170L272 102V286C272 298.15 262.15 308 250 308Z" fill="url(#paint1_linear_204_696)"/>
<g opacity="0.2" filter="url(#filter0_f_204_696)">
<rect x="48" y="149" width="178" height="84" fill="#780AAF" style="mix-blend-mode:darken"/>
</g>
<path d="M49.169 202.31C48.3837 202.31 47.7223 202.041 47.185 201.504C46.6477 200.967 46.379 200.305 46.379 199.52V162.506C46.379 161.39 46.7717 160.439 47.557 159.654C48.3423 158.827 49.293 158.414 50.409 158.414H52.455C53.2817 158.414 54.0257 158.662 54.687 159.158C55.3897 159.654 55.9063 160.274 56.237 161.018L70.311 196.11L84.385 161.018C84.7157 160.274 85.2117 159.654 85.873 159.158C86.5757 158.662 87.3403 158.414 88.167 158.414H90.213C91.329 158.414 92.2797 158.827 93.065 159.654C93.8503 160.439 94.243 161.39 94.243 162.506V199.52C94.243 200.305 93.9743 200.967 93.437 201.504C92.8997 202.041 92.2383 202.31 91.453 202.31C90.6677 202.31 89.9857 202.041 89.407 201.504C88.8697 200.967 88.601 200.305 88.601 199.52V164.304L74.279 199.706C73.9483 200.491 73.411 201.132 72.667 201.628C71.9643 202.083 71.179 202.31 70.311 202.31C69.443 202.31 68.637 202.083 67.893 201.628C67.1903 201.132 66.6737 200.491 66.343 199.706L52.021 164.304V199.52C52.021 200.305 51.7317 200.967 51.153 201.504C50.6157 202.041 49.9543 202.31 49.169 202.31ZM113.39 202.31C112.605 202.31 111.943 202.041 111.406 201.504C110.869 200.967 110.6 200.305 110.6 199.52V161.576C110.6 160.791 110.869 160.129 111.406 159.592C111.943 159.013 112.605 158.724 113.39 158.724H127.526C131.453 158.724 134.656 159.385 137.136 160.708C139.616 162.031 141.393 163.725 142.468 165.792C143.543 167.859 144.08 170.091 144.08 172.488C144.08 174.885 143.543 177.117 142.468 179.184C141.393 181.251 139.616 182.945 137.136 184.268C134.656 185.591 131.453 186.252 127.526 186.252H116.242V199.52C116.242 200.305 115.953 200.967 115.374 201.504C114.837 202.041 114.175 202.31 113.39 202.31ZM126.968 180.92C131.184 180.92 134.139 180.114 135.834 178.502C137.57 176.89 138.438 174.885 138.438 172.488C138.438 170.091 137.57 168.086 135.834 166.474C134.139 164.862 131.184 164.056 126.968 164.056H116.242V180.92H126.968ZM157.898 202C156.947 202 156.162 201.711 155.542 201.132C154.922 200.512 154.612 199.727 154.612 198.776C154.612 196.627 155.232 194.643 156.472 192.824C157.753 191.005 159.283 189.414 161.06 188.05C162.879 186.645 165.255 184.991 168.19 183.09C170.711 181.478 172.716 180.114 174.204 178.998C175.692 177.882 176.932 176.663 177.924 175.34C178.916 174.017 179.412 172.612 179.412 171.124C179.412 168.768 178.627 166.908 177.056 165.544C175.527 164.139 173.047 163.436 169.616 163.436C165.896 163.436 162.362 164.18 159.014 165.668C158.601 165.875 158.208 165.978 157.836 165.978C157.175 165.978 156.617 165.751 156.162 165.296C155.707 164.841 155.48 164.263 155.48 163.56C155.48 162.527 155.935 161.762 156.844 161.266C161.06 159.158 165.648 158.104 170.608 158.104C173.253 158.104 175.651 158.641 177.8 159.716C179.991 160.749 181.706 162.217 182.946 164.118C184.227 166.019 184.868 168.21 184.868 170.69C184.868 173.129 184.145 175.402 182.698 177.51C181.293 179.577 179.598 181.395 177.614 182.966C175.63 184.537 173.047 186.355 169.864 188.422C166.971 190.365 164.78 191.935 163.292 193.134C161.845 194.291 160.833 195.49 160.254 196.73H181.83C182.574 196.73 183.194 196.999 183.69 197.536C184.227 198.032 184.496 198.652 184.496 199.396C184.496 200.14 184.227 200.76 183.69 201.256C183.194 201.752 182.574 202 181.83 202H157.898ZM212.702 202.31C211.916 202.31 211.255 202.041 210.718 201.504C210.18 200.967 209.912 200.305 209.912 199.52V163.994H197.264C196.52 163.994 195.9 163.746 195.404 163.25C194.908 162.754 194.66 162.134 194.66 161.39C194.66 160.646 194.908 160.026 195.404 159.53C195.9 158.993 196.52 158.724 197.264 158.724H228.14C228.884 158.724 229.504 158.993 230 159.53C230.537 160.026 230.806 160.646 230.806 161.39C230.806 162.134 230.537 162.754 230 163.25C229.504 163.746 228.884 163.994 228.14 163.994H215.554V199.52C215.554 200.305 215.264 200.967 214.686 201.504C214.148 202.041 213.487 202.31 212.702 202.31Z" fill="white"/>
<path d="M47.185 201.504L48.5992 200.09L47.185 201.504ZM47.557 159.654L48.9712 161.068L48.9893 161.05L49.007 161.031L47.557 159.654ZM54.687 159.158L53.487 160.758L53.5101 160.775L53.5336 160.792L54.687 159.158ZM56.237 161.018L58.0933 160.274L58.0796 160.239L58.0646 160.206L56.237 161.018ZM70.311 196.11L68.4547 196.854L70.311 201.483L72.1673 196.854L70.311 196.11ZM84.385 161.018L82.5574 160.206L82.5424 160.239L82.5287 160.274L84.385 161.018ZM85.873 159.158L84.7196 157.524L84.6961 157.541L84.673 157.558L85.873 159.158ZM93.065 159.654L91.615 161.031L91.6327 161.05L91.6508 161.068L93.065 159.654ZM93.437 201.504L94.8512 202.918L94.8512 202.918L93.437 201.504ZM89.407 201.504L87.9928 202.918L88.019 202.944L88.0461 202.97L89.407 201.504ZM88.601 164.304H90.601L86.747 163.554L88.601 164.304ZM74.279 199.706L76.1223 200.482L76.1277 200.469L76.133 200.456L74.279 199.706ZM72.667 201.628L73.7535 203.307L73.765 203.3L73.7764 203.292L72.667 201.628ZM67.893 201.628L66.7396 203.262L66.7937 203.3L66.8501 203.335L67.893 201.628ZM66.343 199.706L64.489 200.456L64.4943 200.469L64.4997 200.482L66.343 199.706ZM52.021 164.304L53.875 163.554L50.021 164.304H52.021ZM51.153 201.504L49.7921 200.038L49.765 200.064L49.7388 200.09L51.153 201.504ZM49.169 200.31C48.8943 200.31 48.7477 200.238 48.5992 200.09L45.7708 202.918C46.697 203.844 47.8731 204.31 49.169 204.31V200.31ZM48.5992 200.09C48.4507 199.941 48.379 199.795 48.379 199.52H44.379C44.379 200.816 44.8446 201.992 45.7708 202.918L48.5992 200.09ZM48.379 199.52V162.506H44.379V199.52H48.379ZM48.379 162.506C48.379 161.918 48.563 161.476 48.9712 161.068L46.1428 158.24C44.9803 159.402 44.379 160.862 44.379 162.506H48.379ZM49.007 161.031C49.424 160.593 49.8545 160.414 50.409 160.414V156.414C48.7315 156.414 47.2607 157.062 46.107 158.276L49.007 161.031ZM50.409 160.414H52.455V156.414H50.409V160.414ZM52.455 160.414C52.8489 160.414 53.1719 160.522 53.487 160.758L55.887 157.558C54.8795 156.802 53.7144 156.414 52.455 156.414V160.414ZM53.5336 160.792C53.9589 161.092 54.2336 161.435 54.4094 161.83L58.0646 160.206C57.5791 159.113 56.8205 158.216 55.8404 157.524L53.5336 160.792ZM54.3807 161.762L68.4547 196.854L72.1673 195.366L58.0933 160.274L54.3807 161.762ZM72.1673 196.854L86.2413 161.762L82.5287 160.274L68.4547 195.366L72.1673 196.854ZM86.2126 161.83C86.4025 161.403 86.6803 161.053 87.073 160.758L84.673 157.558C83.7431 158.255 83.0288 159.145 82.5574 160.206L86.2126 161.83ZM87.0264 160.792C87.4061 160.524 87.7708 160.414 88.167 160.414V156.414C86.9099 156.414 85.7452 156.8 84.7196 157.524L87.0264 160.792ZM88.167 160.414H90.213V156.414H88.167V160.414ZM90.213 160.414C90.7675 160.414 91.198 160.593 91.615 161.031L94.515 158.276C93.3613 157.062 91.8905 156.414 90.213 156.414V160.414ZM91.6508 161.068C92.059 161.476 92.243 161.918 92.243 162.506H96.243C96.243 160.862 95.6417 159.402 94.4792 158.24L91.6508 161.068ZM92.243 162.506V199.52H96.243V162.506H92.243ZM92.243 199.52C92.243 199.795 92.1712 199.941 92.0228 200.09L94.8512 202.918C95.7774 201.992 96.243 200.816 96.243 199.52H92.243ZM92.0228 200.09C91.8743 200.238 91.7277 200.31 91.453 200.31V204.31C92.7489 204.31 93.925 203.844 94.8512 202.918L92.0228 200.09ZM91.453 200.31C91.1756 200.31 90.9789 200.234 90.7679 200.038L88.0461 202.97C88.9924 203.848 90.1598 204.31 91.453 204.31V200.31ZM90.8212 200.09C90.6728 199.941 90.601 199.795 90.601 199.52H86.601C86.601 200.816 87.0666 201.992 87.9928 202.918L90.8212 200.09ZM90.601 199.52V164.304H86.601V199.52H90.601ZM86.747 163.554L72.425 198.956L76.133 200.456L90.455 165.054L86.747 163.554ZM72.4357 198.93C72.265 199.335 71.9922 199.674 71.5576 199.964L73.7764 203.292C74.8298 202.59 75.6316 201.647 76.1223 200.482L72.4357 198.93ZM71.5805 199.949C71.214 200.186 70.8086 200.31 70.311 200.31V204.31C71.5494 204.31 72.7147 203.979 73.7535 203.307L71.5805 199.949ZM70.311 200.31C69.8128 200.31 69.3674 200.185 68.9359 199.921L66.8501 203.335C67.9066 203.98 69.0732 204.31 70.311 204.31V200.31ZM69.0464 199.994C68.6463 199.712 68.3703 199.367 68.1863 198.93L64.4997 200.482C64.977 201.616 65.7343 202.552 66.7396 203.262L69.0464 199.994ZM68.197 198.956L53.875 163.554L50.167 165.054L64.489 200.456L68.197 198.956ZM50.021 164.304V199.52H54.021V164.304H50.021ZM50.021 199.52C50.021 199.746 49.9658 199.877 49.7921 200.038L52.5139 202.97C53.4975 202.056 54.021 200.865 54.021 199.52H50.021ZM49.7388 200.09C49.5903 200.238 49.4437 200.31 49.169 200.31V204.31C50.4649 204.31 51.641 203.844 52.5672 202.918L49.7388 200.09ZM111.406 201.504L112.82 200.09L111.406 201.504ZM111.406 159.592L112.82 161.006L112.846 160.98L112.871 160.953L111.406 159.592ZM137.136 160.708L138.077 158.943L137.136 160.708ZM142.468 165.792L140.693 166.715L142.468 165.792ZM142.468 179.184L140.693 178.261V178.261L142.468 179.184ZM137.136 184.268L138.077 186.033L137.136 184.268ZM116.242 186.252V184.252H114.242V186.252H116.242ZM115.374 201.504L114.013 200.038L113.986 200.064L113.96 200.09L115.374 201.504ZM135.834 178.502L134.473 177.036L134.464 177.045L134.455 177.053L135.834 178.502ZM135.834 166.474L134.455 167.923L134.464 167.931L134.473 167.94L135.834 166.474ZM116.242 164.056V162.056H114.242V164.056H116.242ZM116.242 180.92H114.242V182.92H116.242V180.92ZM113.39 200.31C113.115 200.31 112.969 200.238 112.82 200.09L109.992 202.918C110.918 203.844 112.094 204.31 113.39 204.31V200.31ZM112.82 200.09C112.672 199.941 112.6 199.795 112.6 199.52H108.6C108.6 200.816 109.065 201.992 109.992 202.918L112.82 200.09ZM112.6 199.52V161.576H108.6V199.52H112.6ZM112.6 161.576C112.6 161.301 112.672 161.155 112.82 161.006L109.992 158.178C109.065 159.104 108.6 160.28 108.6 161.576H112.6ZM112.871 160.953C113.033 160.779 113.164 160.724 113.39 160.724V156.724C112.045 156.724 110.854 157.247 109.94 158.231L112.871 160.953ZM113.39 160.724H127.526V156.724H113.39V160.724ZM127.526 160.724C131.247 160.724 134.096 161.354 136.195 162.473L138.077 158.943C135.215 157.417 131.658 156.724 127.526 156.724V160.724ZM136.195 162.473C138.393 163.645 139.841 165.075 140.693 166.715L144.242 164.869C142.946 162.376 140.839 160.416 138.077 158.943L136.195 162.473ZM140.693 166.715C141.615 168.488 142.08 170.402 142.08 172.488H146.08C146.08 169.779 145.47 167.229 144.242 164.869L140.693 166.715ZM142.08 172.488C142.08 174.574 141.615 176.488 140.693 178.261L144.242 180.107C145.47 177.747 146.08 175.197 146.08 172.488H142.08ZM140.693 178.261C139.841 179.901 138.393 181.331 136.195 182.503L138.077 186.033C140.839 184.56 142.946 182.6 144.242 180.107L140.693 178.261ZM136.195 182.503C134.096 183.622 131.247 184.252 127.526 184.252V188.252C131.658 188.252 135.215 187.559 138.077 186.033L136.195 182.503ZM127.526 184.252H116.242V188.252H127.526V184.252ZM114.242 186.252V199.52H118.242V186.252H114.242ZM114.242 199.52C114.242 199.746 114.187 199.877 114.013 200.038L116.735 202.97C117.718 202.056 118.242 200.865 118.242 199.52H114.242ZM113.96 200.09C113.811 200.238 113.665 200.31 113.39 200.31V204.31C114.686 204.31 115.862 203.844 116.788 202.918L113.96 200.09ZM126.968 182.92C131.324 182.92 134.943 182.11 137.212 179.951L134.455 177.053C133.335 178.118 131.044 178.92 126.968 178.92V182.92ZM137.195 179.968C139.344 177.972 140.438 175.434 140.438 172.488H136.438C136.438 174.337 135.796 175.808 134.473 177.036L137.195 179.968ZM140.438 172.488C140.438 169.542 139.344 167.004 137.195 165.008L134.473 167.94C135.796 169.168 136.438 170.639 136.438 172.488H140.438ZM137.212 165.025C134.943 162.866 131.324 162.056 126.968 162.056V166.056C131.044 166.056 133.335 166.858 134.455 167.923L137.212 165.025ZM126.968 162.056H116.242V166.056H126.968V162.056ZM114.242 164.056V180.92H118.242V164.056H114.242ZM116.242 182.92H126.968V178.92H116.242V182.92ZM155.542 201.132L154.128 202.546L154.152 202.571L154.177 202.594L155.542 201.132ZM156.472 192.824L154.837 191.672L154.828 191.685L154.82 191.697L156.472 192.824ZM161.06 188.05L162.278 189.637L162.283 189.633L161.06 188.05ZM168.19 183.09L167.113 181.405L167.103 181.411L168.19 183.09ZM174.204 178.998L173.004 177.398L174.204 178.998ZM177.924 175.34L176.324 174.14L177.924 175.34ZM177.056 165.544L175.703 167.017L175.724 167.036L175.745 167.054L177.056 165.544ZM159.014 165.668L158.202 163.84L158.16 163.859L158.12 163.879L159.014 165.668ZM156.162 165.296L154.748 166.71V166.71L156.162 165.296ZM156.844 161.266L155.95 159.477L155.918 159.493L155.886 159.51L156.844 161.266ZM177.8 159.716L176.906 161.505L176.926 161.515L176.947 161.525L177.8 159.716ZM182.946 164.118L181.271 165.211L181.279 165.223L181.288 165.236L182.946 164.118ZM182.698 177.51L181.049 176.378L181.044 176.385L182.698 177.51ZM177.614 182.966L178.856 184.534L177.614 182.966ZM169.864 188.422L168.775 186.745L168.762 186.753L168.749 186.762L169.864 188.422ZM163.292 193.134L164.542 194.696L164.547 194.692L163.292 193.134ZM160.254 196.73L158.442 195.884L157.114 198.73H160.254V196.73ZM183.69 197.536L182.221 198.893L182.275 198.951L182.334 199.006L183.69 197.536ZM183.69 201.256L182.334 199.786L182.304 199.814L182.276 199.842L183.69 201.256ZM157.898 200C157.388 200 157.111 199.86 156.907 199.67L154.177 202.594C155.214 203.561 156.507 204 157.898 204V200ZM156.956 199.718C156.745 199.506 156.612 199.246 156.612 198.776H152.612C152.612 200.208 153.099 201.518 154.128 202.546L156.956 199.718ZM156.612 198.776C156.612 197.039 157.105 195.446 158.125 193.951L154.82 191.697C153.359 193.84 152.612 196.215 152.612 198.776H156.612ZM158.107 193.976C159.271 192.324 160.66 190.879 162.278 189.637L159.842 186.463C157.906 187.949 156.236 189.687 154.837 191.672L158.107 193.976ZM162.283 189.633C164.042 188.274 166.368 186.653 169.278 184.769L167.103 181.411C164.143 183.329 161.716 185.016 159.837 186.467L162.283 189.633ZM169.267 184.775C171.809 183.15 173.86 181.756 175.404 180.598L173.004 177.398C171.572 178.472 169.614 179.806 167.113 181.405L169.267 184.775ZM175.404 180.598C177.025 179.382 178.405 178.032 179.524 176.54L176.324 174.14C175.459 175.293 174.359 176.382 173.004 177.398L175.404 180.598ZM179.524 176.54C180.745 174.912 181.412 173.093 181.412 171.124H177.412C177.412 172.131 177.087 173.123 176.324 174.14L179.524 176.54ZM181.412 171.124C181.412 168.274 180.436 165.831 178.367 164.034L175.745 167.054C176.817 167.985 177.412 169.262 177.412 171.124H181.412ZM178.409 164.071C176.335 162.165 173.242 161.436 169.616 161.436V165.436C172.852 165.436 174.719 166.112 175.703 167.017L178.409 164.071ZM169.616 161.436C165.621 161.436 161.81 162.237 158.202 163.84L159.826 167.496C162.915 166.123 166.172 165.436 169.616 165.436V161.436ZM158.12 163.879C158.02 163.929 157.947 163.954 157.901 163.966C157.878 163.972 157.861 163.975 157.851 163.977C157.841 163.978 157.836 163.978 157.836 163.978V167.978C158.585 167.978 159.283 167.769 159.909 167.457L158.12 163.879ZM157.836 163.978C157.739 163.978 157.693 163.962 157.676 163.955C157.66 163.949 157.628 163.933 157.576 163.882L154.748 166.71C155.589 167.552 156.661 167.978 157.836 167.978V163.978ZM157.576 163.882C157.533 163.839 157.48 163.786 157.48 163.56H153.48C153.48 164.739 153.882 165.844 154.748 166.71L157.576 163.882ZM157.48 163.56C157.48 163.344 157.525 163.26 157.54 163.234C157.556 163.207 157.61 163.127 157.802 163.022L155.886 159.51C155.169 159.901 154.541 160.451 154.102 161.189C153.663 161.928 153.48 162.742 153.48 163.56H157.48ZM157.739 163.055C161.662 161.093 165.942 160.104 170.608 160.104V156.104C165.354 156.104 160.458 157.223 155.95 159.477L157.739 163.055ZM170.608 160.104C172.975 160.104 175.061 160.583 176.906 161.505L178.695 157.927C176.24 156.7 173.532 156.104 170.608 156.104V160.104ZM176.947 161.525C178.826 162.411 180.247 163.64 181.271 165.211L184.621 163.025C183.165 160.793 181.156 159.087 178.653 157.907L176.947 161.525ZM181.288 165.236C182.328 166.78 182.868 168.574 182.868 170.69H186.868C186.868 167.846 186.127 165.259 184.605 163L181.288 165.236ZM182.868 170.69C182.868 172.704 182.279 174.586 181.049 176.378L184.347 178.642C186.011 176.218 186.868 173.553 186.868 170.69H182.868ZM181.044 176.385C179.755 178.282 178.2 179.952 176.373 181.398L178.856 184.534C180.997 182.839 182.831 180.871 184.352 178.635L181.044 176.385ZM176.373 181.398C174.455 182.916 171.928 184.697 168.775 186.745L170.953 190.099C174.165 188.014 176.805 186.158 178.856 184.534L176.373 181.398ZM168.749 186.762C165.84 188.715 163.593 190.323 162.037 191.576L164.547 194.692C165.967 193.547 168.102 192.014 170.979 190.082L168.749 186.762ZM162.043 191.572C160.437 192.857 159.188 194.285 158.442 195.884L162.066 197.576C162.477 196.695 163.254 195.726 164.542 194.696L162.043 191.572ZM160.254 198.73H181.83V194.73H160.254V198.73ZM181.83 198.73C182.027 198.73 182.111 198.773 182.221 198.893L185.16 196.179C184.278 195.224 183.121 194.73 181.83 194.73V198.73ZM182.334 199.006C182.453 199.116 182.496 199.199 182.496 199.396H186.496C186.496 198.105 186.002 196.948 185.047 196.066L182.334 199.006ZM182.496 199.396C182.496 199.593 182.453 199.676 182.334 199.786L185.047 202.726C186.002 201.844 186.496 200.687 186.496 199.396H182.496ZM182.276 199.842C182.179 199.938 182.079 200 181.83 200V204C183.069 204 184.209 203.566 185.104 202.67L182.276 199.842ZM181.83 200H157.898V204H181.83V200ZM210.718 201.504L209.304 202.918L210.718 201.504ZM209.912 163.994H211.912V161.994H209.912V163.994ZM195.404 163.25L193.99 164.664V164.664L195.404 163.25ZM195.404 159.53L196.818 160.944L196.846 160.916L196.873 160.887L195.404 159.53ZM230 159.53L228.53 160.887L228.584 160.945L228.643 161L230 159.53ZM230 163.25L228.643 161.78L228.614 161.808L228.586 161.836L230 163.25ZM215.554 163.994V161.994H213.554V163.994H215.554ZM214.686 201.504L213.325 200.038L213.298 200.064L213.272 200.09L214.686 201.504ZM212.702 200.31C212.427 200.31 212.28 200.238 212.132 200.09L209.304 202.918C210.23 203.844 211.406 204.31 212.702 204.31V200.31ZM212.132 200.09C211.984 199.941 211.912 199.795 211.912 199.52H207.912C207.912 200.816 208.377 201.992 209.304 202.918L212.132 200.09ZM211.912 199.52V163.994H207.912V199.52H211.912ZM209.912 161.994H197.264V165.994H209.912V161.994ZM197.264 161.994C197.014 161.994 196.914 161.932 196.818 161.836L193.99 164.664C194.885 165.56 196.025 165.994 197.264 165.994V161.994ZM196.818 161.836C196.722 161.739 196.66 161.639 196.66 161.39H192.66C192.66 162.629 193.094 163.769 193.99 164.664L196.818 161.836ZM196.66 161.39C196.66 161.141 196.722 161.041 196.818 160.944L193.99 158.116C193.094 159.011 192.66 160.151 192.66 161.39H196.66ZM196.873 160.887C196.983 160.767 197.067 160.724 197.264 160.724V156.724C195.973 156.724 194.816 157.218 193.934 158.173L196.873 160.887ZM197.264 160.724H228.14V156.724H197.264V160.724ZM228.14 160.724C228.337 160.724 228.42 160.767 228.53 160.887L231.469 158.173C230.587 157.218 229.431 156.724 228.14 156.724V160.724ZM228.643 161C228.762 161.11 228.806 161.193 228.806 161.39H232.806C232.806 160.099 232.312 158.942 231.356 158.06L228.643 161ZM228.806 161.39C228.806 161.587 228.762 161.67 228.643 161.78L231.356 164.72C232.312 163.838 232.806 162.681 232.806 161.39H228.806ZM228.586 161.836C228.489 161.932 228.389 161.994 228.14 161.994V165.994C229.378 165.994 230.518 165.56 231.414 164.664L228.586 161.836ZM228.14 161.994H215.554V165.994H228.14V161.994ZM213.554 163.994V199.52H217.554V163.994H213.554ZM213.554 199.52C213.554 199.746 213.499 199.877 213.325 200.038L216.047 202.97C217.03 202.056 217.554 200.865 217.554 199.52H213.554ZM213.272 200.09C213.123 200.238 212.977 200.31 212.702 200.31V204.31C213.998 204.31 215.174 203.844 216.1 202.918L213.272 200.09Z" fill="white"/>
<g filter="url(#filter1_d_204_696)">
<path d="M272 102H192C179.85 102 170 92.1503 170 80V0L272 102Z" fill="url(#paint2_linear_204_696)"/>
</g>
</g>
<defs>
<filter id="filter0_f_204_696" x="9" y="110" width="256" height="162" filterUnits="userSpaceOnUse" color-interpolation-filters="sRGB">
<feFlood flood-opacity="0" result="BackgroundImageFix"/>
<feBlend mode="normal" in="SourceGraphic" in2="BackgroundImageFix" result="shape"/>
<feGaussianBlur stdDeviation="19.5" result="effect1_foregroundBlur_204_696"/>
</filter>
<filter id="filter1_d_204_696" x="147" y="-24" width="152" height="152" filterUnits="userSpaceOnUse" color-interpolation-filters="sRGB">
<feFlood flood-opacity="0" result="BackgroundImageFix"/>
<feColorMatrix in="SourceAlpha" type="matrix" values="0 0 0 0 0 0 0 0 0 0 0 0 0 0 0 0 0 0 127 0" result="hardAlpha"/>
<feOffset dx="2" dy="1"/>
<feGaussianBlur stdDeviation="12.5"/>
<feColorMatrix type="matrix" values="0 0 0 0 0 0 0 0 0 0 0 0 0 0 0 0 0 0 0.33 0"/>
<feBlend mode="normal" in2="BackgroundImageFix" result="effect1_dropShadow_204_696"/>
<feBlend mode="normal" in="SourceGraphic" in2="effect1_dropShadow_204_696" result="shape"/>
</filter>
<linearGradient id="paint0_linear_204_696" x1="136" y1="0" x2="136" y2="308" gradientUnits="userSpaceOnUse">
<stop stop-color="#FF7979"/>
<stop offset="1" stop-color="#E85555"/>
</linearGradient>
<linearGradient id="paint1_linear_204_696" x1="136" y1="0" x2="136" y2="308" gradientUnits="userSpaceOnUse">
<stop stop-color="#CB74F4"/>
<stop offset="0.942892" stop-color="#A849F3"/>
</linearGradient>
<linearGradient id="paint2_linear_204_696" x1="221" y1="0" x2="221" y2="102" gradientUnits="userSpaceOnUse">
<stop stop-color="#B051E0"/>
<stop offset="1" stop-color="#952BCB"/>
</linearGradient>
</defs>
</svg>
