<svg width="272" height="308" viewBox="0 0 272 308" fill="none" xmlns="http://www.w3.org/2000/svg">
<mask id="mask0_204_332" style="mask-type:alpha" maskUnits="userSpaceOnUse" x="0" y="0" width="272" height="308">
<path d="M250 308H22C9.84974 308 0 298.15 0 286V22C0 9.84974 9.84974 0 22 0H170L272 102V286C272 298.15 262.15 308 250 308Z" fill="url(#paint0_linear_204_332)"/>
</mask>
<g mask="url(#mask0_204_332)">
<path d="M250 308H22C9.84974 308 0 298.15 0 286V22C0 9.84974 9.84974 0 22 0H170L272 102V286C272 298.15 262.15 308 250 308Z" fill="url(#paint1_linear_204_332)"/>
<g filter="url(#filter0_f_204_332)">
<rect x="48" y="149" width="178" height="84" fill="#0B07C6" fill-opacity="0.16" style="mix-blend-mode:darken"/>
</g>
<path d="M59.7296 202.31C58.9443 202.31 58.283 202.041 57.7456 201.504C57.2083 200.967 56.9396 200.305 56.9396 199.52V162.506C56.9396 161.39 57.3323 160.439 58.1176 159.654C58.903 158.827 59.8536 158.414 60.9696 158.414H63.0156C63.8423 158.414 64.5863 158.662 65.2476 159.158C65.9503 159.654 66.467 160.274 66.7976 161.018L80.8716 196.11L94.9456 161.018C95.2763 160.274 95.7723 159.654 96.4336 159.158C97.1363 158.662 97.901 158.414 98.7276 158.414H100.774C101.89 158.414 102.84 158.827 103.626 159.654C104.411 160.439 104.804 161.39 104.804 162.506V199.52C104.804 200.305 104.535 200.967 103.998 201.504C103.46 202.041 102.799 202.31 102.014 202.31C101.228 202.31 100.546 202.041 99.9676 201.504C99.4303 200.967 99.1616 200.305 99.1616 199.52V164.304L84.8396 199.706C84.509 200.491 83.9716 201.132 83.2276 201.628C82.525 202.083 81.7396 202.31 80.8716 202.31C80.0036 202.31 79.1976 202.083 78.4536 201.628C77.751 201.132 77.2343 200.491 76.9036 199.706L62.5816 164.304V199.52C62.5816 200.305 62.2923 200.967 61.7136 201.504C61.1763 202.041 60.515 202.31 59.7296 202.31ZM123.95 202.31C123.165 202.31 122.504 202.041 121.966 201.504C121.429 200.967 121.16 200.305 121.16 199.52V161.576C121.16 160.791 121.429 160.129 121.966 159.592C122.504 159.013 123.165 158.724 123.95 158.724H138.086C142.013 158.724 145.216 159.385 147.696 160.708C150.176 162.031 151.954 163.725 153.028 165.792C154.103 167.859 154.64 170.091 154.64 172.488C154.64 174.885 154.103 177.117 153.028 179.184C151.954 181.251 150.176 182.945 147.696 184.268C145.216 185.591 142.013 186.252 138.086 186.252H126.802V199.52C126.802 200.305 126.513 200.967 125.934 201.504C125.397 202.041 124.736 202.31 123.95 202.31ZM137.528 180.92C141.744 180.92 144.7 180.114 146.394 178.502C148.13 176.89 148.998 174.885 148.998 172.488C148.998 170.091 148.13 168.086 146.394 166.474C144.7 164.862 141.744 164.056 137.528 164.056H126.802V180.92H137.528ZM179.371 202.62C174.783 202.62 170.463 201.793 166.413 200.14C165.917 199.933 165.524 199.644 165.235 199.272C164.945 198.859 164.801 198.363 164.801 197.784C164.801 197.081 165.028 196.482 165.483 195.986C165.979 195.449 166.578 195.18 167.281 195.18C167.653 195.18 168.045 195.263 168.459 195.428C171.435 196.627 174.721 197.226 178.317 197.226C181.541 197.226 184.248 196.709 186.439 195.676C188.671 194.601 189.787 192.824 189.787 190.344C189.787 185.136 185.219 182.532 176.085 182.532H175.093C174.39 182.532 173.77 182.284 173.233 181.788C172.737 181.251 172.489 180.631 172.489 179.928C172.489 179.225 172.737 178.626 173.233 178.13C173.77 177.593 174.39 177.324 175.093 177.324H175.465C179.598 177.324 182.76 176.704 184.951 175.464C187.141 174.183 188.237 172.302 188.237 169.822C188.237 167.838 187.41 166.267 185.757 165.11C184.103 163.953 181.665 163.374 178.441 163.374C174.969 163.374 171.765 164.056 168.831 165.42C168.417 165.585 168.045 165.668 167.715 165.668C167.095 165.668 166.557 165.461 166.103 165.048C165.648 164.593 165.421 164.035 165.421 163.374C165.421 162.423 165.834 161.721 166.661 161.266C170.629 159.158 174.721 158.104 178.937 158.104C183.69 158.104 187.369 159.075 189.973 161.018C192.577 162.961 193.879 165.709 193.879 169.264C193.879 172.116 193.155 174.369 191.709 176.022C190.303 177.634 188.526 178.833 186.377 179.618C188.733 180.155 190.82 181.292 192.639 183.028C194.499 184.723 195.429 187.265 195.429 190.654C195.429 194.457 193.92 197.412 190.903 199.52C187.927 201.587 184.083 202.62 179.371 202.62Z" fill="white"/>
<path d="M57.7456 201.504L59.1598 200.09L57.7456 201.504ZM58.1176 159.654L59.5318 161.068L59.55 161.05L59.5676 161.031L58.1176 159.654ZM65.2476 159.158L64.0476 160.758L64.0707 160.775L64.0943 160.792L65.2476 159.158ZM66.7976 161.018L68.6539 160.274L68.6402 160.239L68.6253 160.206L66.7976 161.018ZM80.8716 196.11L79.0154 196.854L80.8716 201.483L82.7279 196.854L80.8716 196.11ZM94.9456 161.018L93.118 160.206L93.1031 160.239L93.0894 160.274L94.9456 161.018ZM96.4336 159.158L95.2803 157.524L95.2567 157.541L95.2336 157.558L96.4336 159.158ZM103.626 159.654L102.176 161.031L102.193 161.05L102.211 161.068L103.626 159.654ZM103.998 201.504L105.412 202.918L105.412 202.918L103.998 201.504ZM99.9676 201.504L98.5534 202.918L98.5796 202.944L98.6067 202.97L99.9676 201.504ZM99.1616 164.304H101.162L97.3076 163.554L99.1616 164.304ZM84.8396 199.706L86.6829 200.482L86.6884 200.469L86.6937 200.456L84.8396 199.706ZM83.2276 201.628L84.3141 203.307L84.3256 203.3L84.337 203.292L83.2276 201.628ZM78.4536 201.628L77.3003 203.262L77.3543 203.3L77.4107 203.335L78.4536 201.628ZM76.9036 199.706L75.0496 200.456L75.0549 200.469L75.0604 200.482L76.9036 199.706ZM62.5816 164.304L64.4357 163.554L60.5816 164.304H62.5816ZM61.7136 201.504L60.3527 200.038L60.3256 200.064L60.2994 200.09L61.7136 201.504ZM59.7296 200.31C59.4549 200.31 59.3083 200.238 59.1598 200.09L56.3314 202.918C57.2576 203.844 58.4337 204.31 59.7296 204.31V200.31ZM59.1598 200.09C59.0114 199.941 58.9396 199.795 58.9396 199.52H54.9396C54.9396 200.816 55.4052 201.992 56.3314 202.918L59.1598 200.09ZM58.9396 199.52V162.506H54.9396V199.52H58.9396ZM58.9396 162.506C58.9396 161.918 59.1236 161.476 59.5318 161.068L56.7034 158.24C55.541 159.402 54.9396 160.862 54.9396 162.506H58.9396ZM59.5676 161.031C59.9846 160.593 60.4152 160.414 60.9696 160.414V156.414C59.2921 156.414 57.8213 157.062 56.6676 158.276L59.5676 161.031ZM60.9696 160.414H63.0156V156.414H60.9696V160.414ZM63.0156 160.414C63.4096 160.414 63.7325 160.522 64.0476 160.758L66.4476 157.558C65.4401 156.802 64.275 156.414 63.0156 156.414V160.414ZM64.0943 160.792C64.5195 161.092 64.7942 161.435 64.97 161.83L68.6253 160.206C68.1397 159.113 67.3811 158.216 66.401 157.524L64.0943 160.792ZM64.9414 161.762L79.0154 196.854L82.7279 195.366L68.6539 160.274L64.9414 161.762ZM82.7279 196.854L96.8019 161.762L93.0894 160.274L79.0154 195.366L82.7279 196.854ZM96.7733 161.83C96.9631 161.403 97.2409 161.053 97.6336 160.758L95.2336 157.558C94.3037 158.255 93.5895 159.145 93.118 160.206L96.7733 161.83ZM97.587 160.792C97.9667 160.524 98.3314 160.414 98.7276 160.414V156.414C97.4705 156.414 96.3058 156.8 95.2803 157.524L97.587 160.792ZM98.7276 160.414H100.774V156.414H98.7276V160.414ZM100.774 160.414C101.328 160.414 101.759 160.593 102.176 161.031L105.076 158.276C103.922 157.062 102.451 156.414 100.774 156.414V160.414ZM102.211 161.068C102.62 161.476 102.804 161.918 102.804 162.506H106.804C106.804 160.862 106.202 159.402 105.04 158.24L102.211 161.068ZM102.804 162.506V199.52H106.804V162.506H102.804ZM102.804 199.52C102.804 199.795 102.732 199.941 102.583 200.09L105.412 202.918C106.338 201.992 106.804 200.816 106.804 199.52H102.804ZM102.583 200.09C102.435 200.238 102.288 200.31 102.014 200.31V204.31C103.31 204.31 104.486 203.844 105.412 202.918L102.583 200.09ZM102.014 200.31C101.736 200.31 101.54 200.234 101.329 200.038L98.6067 202.97C99.5531 203.848 100.72 204.31 102.014 204.31V200.31ZM101.382 200.09C101.233 199.941 101.162 199.795 101.162 199.52H97.1616C97.1616 200.816 97.6272 201.992 98.5534 202.918L101.382 200.09ZM101.162 199.52V164.304H97.1616V199.52H101.162ZM97.3076 163.554L82.9856 198.956L86.6937 200.456L101.016 165.054L97.3076 163.554ZM82.9964 198.93C82.8257 199.335 82.5528 199.674 82.1182 199.964L84.337 203.292C85.3905 202.59 86.1923 201.647 86.6829 200.482L82.9964 198.93ZM82.1411 199.949C81.7746 200.186 81.3692 200.31 80.8716 200.31V204.31C82.1101 204.31 83.2753 203.979 84.3141 203.307L82.1411 199.949ZM80.8716 200.31C80.3734 200.31 79.928 200.185 79.4965 199.921L77.4107 203.335C78.4672 203.98 79.6339 204.31 80.8716 204.31V200.31ZM79.607 199.994C79.207 199.712 78.9309 199.367 78.7469 198.93L75.0604 200.482C75.5377 201.616 76.2949 202.552 77.3003 203.262L79.607 199.994ZM78.7577 198.956L64.4357 163.554L60.7276 165.054L75.0496 200.456L78.7577 198.956ZM60.5816 164.304V199.52H64.5816V164.304H60.5816ZM60.5816 199.52C60.5816 199.746 60.5264 199.877 60.3527 200.038L63.0745 202.97C64.0582 202.056 64.5816 200.865 64.5816 199.52H60.5816ZM60.2994 200.09C60.151 200.238 60.0044 200.31 59.7296 200.31V204.31C61.0256 204.31 62.2016 203.844 63.1278 202.918L60.2994 200.09ZM121.966 201.504L123.381 200.09L121.966 201.504ZM121.966 159.592L123.381 161.006L123.407 160.98L123.432 160.953L121.966 159.592ZM147.696 160.708L148.638 158.943L147.696 160.708ZM153.028 165.792L151.254 166.715L153.028 165.792ZM153.028 179.184L151.254 178.261L151.254 178.261L153.028 179.184ZM147.696 184.268L148.638 186.033L147.696 184.268ZM126.802 186.252V184.252H124.802V186.252H126.802ZM125.934 201.504L124.574 200.038L124.546 200.064L124.52 200.09L125.934 201.504ZM146.394 178.502L145.034 177.036L145.025 177.045L145.016 177.053L146.394 178.502ZM146.394 166.474L145.016 167.923L145.025 167.931L145.034 167.94L146.394 166.474ZM126.802 164.056V162.056H124.802V164.056H126.802ZM126.802 180.92H124.802V182.92H126.802V180.92ZM123.95 200.31C123.676 200.31 123.529 200.238 123.381 200.09L120.552 202.918C121.478 203.844 122.655 204.31 123.95 204.31V200.31ZM123.381 200.09C123.232 199.941 123.16 199.795 123.16 199.52H119.16C119.16 200.816 119.626 201.992 120.552 202.918L123.381 200.09ZM123.16 199.52V161.576H119.16V199.52H123.16ZM123.16 161.576C123.16 161.301 123.232 161.155 123.381 161.006L120.552 158.178C119.626 159.104 119.16 160.28 119.16 161.576H123.16ZM123.432 160.953C123.593 160.779 123.725 160.724 123.95 160.724V156.724C122.606 156.724 121.414 157.247 120.501 158.231L123.432 160.953ZM123.95 160.724H138.086V156.724H123.95V160.724ZM138.086 160.724C141.808 160.724 144.657 161.354 146.755 162.473L148.638 158.943C145.776 157.417 142.218 156.724 138.086 156.724V160.724ZM146.755 162.473C148.954 163.645 150.401 165.075 151.254 166.715L154.803 164.869C153.506 162.376 151.399 160.416 148.638 158.943L146.755 162.473ZM151.254 166.715C152.176 168.488 152.64 170.402 152.64 172.488H156.64C156.64 169.779 156.03 167.229 154.803 164.869L151.254 166.715ZM152.64 172.488C152.64 174.574 152.176 176.488 151.254 178.261L154.803 180.107C156.03 177.747 156.64 175.197 156.64 172.488H152.64ZM151.254 178.261C150.401 179.901 148.954 181.331 146.755 182.503L148.638 186.033C151.399 184.56 153.506 182.6 154.803 180.107L151.254 178.261ZM146.755 182.503C144.657 183.622 141.808 184.252 138.086 184.252V188.252C142.218 188.252 145.776 187.559 148.638 186.033L146.755 182.503ZM138.086 184.252H126.802V188.252H138.086V184.252ZM124.802 186.252V199.52H128.802V186.252H124.802ZM124.802 199.52C124.802 199.746 124.747 199.877 124.574 200.038L127.295 202.97C128.279 202.056 128.802 200.865 128.802 199.52H124.802ZM124.52 200.09C124.372 200.238 124.225 200.31 123.95 200.31V204.31C125.246 204.31 126.422 203.844 127.349 202.918L124.52 200.09ZM137.528 182.92C141.884 182.92 145.504 182.11 147.773 179.951L145.016 177.053C143.896 178.118 141.604 178.92 137.528 178.92V182.92ZM147.755 179.968C149.904 177.972 150.998 175.434 150.998 172.488H146.998C146.998 174.337 146.357 175.808 145.034 177.036L147.755 179.968ZM150.998 172.488C150.998 169.542 149.904 167.004 147.755 165.008L145.034 167.94C146.357 169.168 146.998 170.639 146.998 172.488H150.998ZM147.773 165.025C145.504 162.866 141.884 162.056 137.528 162.056V166.056C141.604 166.056 143.896 166.858 145.016 167.923L147.773 165.025ZM137.528 162.056H126.802V166.056H137.528V162.056ZM124.802 164.056V180.92H128.802V164.056H124.802ZM126.802 182.92H137.528V178.92H126.802V182.92ZM166.413 200.14L165.643 201.986L165.65 201.989L165.657 201.992L166.413 200.14ZM165.235 199.272L163.596 200.419L163.625 200.46L163.656 200.5L165.235 199.272ZM165.483 195.986L164.013 194.629L164.008 194.635L165.483 195.986ZM168.459 195.428L169.206 193.573L169.202 193.571L168.459 195.428ZM186.439 195.676L187.292 197.485L187.299 197.481L187.306 197.478L186.439 195.676ZM173.233 181.788L171.763 183.145L171.817 183.203L171.876 183.258L173.233 181.788ZM173.233 178.13L174.647 179.544L173.233 178.13ZM184.951 175.464L185.936 177.205L185.948 177.198L185.96 177.19L184.951 175.464ZM168.831 165.42L169.574 167.277L169.624 167.257L169.674 167.234L168.831 165.42ZM166.103 165.048L164.689 166.462L164.722 166.496L164.757 166.528L166.103 165.048ZM166.661 161.266L165.722 159.5L165.71 159.507L165.697 159.514L166.661 161.266ZM189.973 161.018L191.169 159.415V159.415L189.973 161.018ZM191.709 176.022L190.204 174.705L190.201 174.708L191.709 176.022ZM186.377 179.618L185.69 177.739L179.332 180.063L185.932 181.568L186.377 179.618ZM192.639 183.028L191.258 184.475L191.275 184.491L191.292 184.506L192.639 183.028ZM190.903 199.52L192.044 201.163L192.048 201.16L190.903 199.52ZM179.371 200.62C175.029 200.62 170.968 199.839 167.169 198.288L165.657 201.992C169.959 203.748 174.536 204.62 179.371 204.62V200.62ZM167.182 198.294C166.959 198.201 166.863 198.107 166.813 198.044L163.656 200.5C164.186 201.181 164.874 201.666 165.643 201.986L167.182 198.294ZM166.873 198.125C166.853 198.096 166.801 198.015 166.801 197.784H162.801C162.801 198.711 163.038 199.622 163.596 200.419L166.873 198.125ZM166.801 197.784C166.801 197.557 166.857 197.447 166.957 197.337L164.008 194.635C163.2 195.517 162.801 196.605 162.801 197.784H166.801ZM166.952 197.343C167.087 197.197 167.161 197.18 167.281 197.18V193.18C165.995 193.18 164.87 193.701 164.013 194.629L166.952 197.343ZM167.281 197.18C167.354 197.18 167.493 197.196 167.716 197.285L169.202 193.571C168.597 193.329 167.952 193.18 167.281 193.18V197.18ZM167.712 197.283C170.952 198.588 174.496 199.226 178.317 199.226V195.226C174.946 195.226 171.917 194.665 169.206 193.573L167.712 197.283ZM178.317 199.226C181.743 199.226 184.761 198.679 187.292 197.485L185.585 193.867C183.735 194.74 181.339 195.226 178.317 195.226V199.226ZM187.306 197.478C188.7 196.807 189.851 195.862 190.644 194.601C191.436 193.339 191.787 191.891 191.787 190.344H187.787C187.787 191.277 187.58 191.957 187.256 192.473C186.932 192.989 186.41 193.47 185.571 193.874L187.306 197.478ZM191.787 190.344C191.787 187.013 190.252 184.401 187.352 182.748C184.619 181.189 180.777 180.532 176.085 180.532V184.532C180.528 184.532 183.536 185.177 185.371 186.222C187.038 187.173 187.787 188.467 187.787 190.344H191.787ZM176.085 180.532H175.093V184.532H176.085V180.532ZM175.093 180.532C174.915 180.532 174.774 180.489 174.589 180.318L171.876 183.258C172.766 184.079 173.865 184.532 175.093 184.532V180.532ZM174.702 180.431C174.532 180.247 174.489 180.106 174.489 179.928H170.489C170.489 181.156 170.941 182.254 171.763 183.145L174.702 180.431ZM174.489 179.928C174.489 179.755 174.527 179.664 174.647 179.544L171.819 176.716C170.947 177.588 170.489 178.696 170.489 179.928H174.489ZM174.647 179.544C174.843 179.348 174.966 179.324 175.093 179.324V175.324C173.814 175.324 172.697 175.837 171.819 176.716L174.647 179.544ZM175.093 179.324H175.465V175.324H175.093V179.324ZM175.465 179.324C179.746 179.324 183.31 178.691 185.936 177.205L183.966 173.723C182.21 174.717 179.45 175.324 175.465 175.324V179.324ZM185.96 177.19C188.747 175.561 190.237 173.033 190.237 169.822H186.237C186.237 171.571 185.536 172.805 183.941 173.738L185.96 177.19ZM190.237 169.822C190.237 167.172 189.081 164.995 186.904 163.472L184.61 166.748C185.739 167.539 186.237 168.504 186.237 169.822H190.237ZM186.904 163.472C184.768 161.976 181.85 161.374 178.441 161.374V165.374C181.48 165.374 183.439 165.929 184.61 166.748L186.904 163.472ZM178.441 161.374C174.699 161.374 171.205 162.111 167.988 163.606L169.674 167.234C172.325 166.001 175.238 165.374 178.441 165.374V161.374ZM168.088 163.563C167.965 163.612 167.873 163.639 167.808 163.654C167.743 163.668 167.714 163.668 167.715 163.668V167.668C168.371 167.668 169.001 167.506 169.574 167.277L168.088 163.563ZM167.715 163.668C167.587 163.668 167.531 163.643 167.448 163.568L164.757 166.528C165.584 167.279 166.602 167.668 167.715 167.668V163.668ZM167.517 163.634C167.465 163.582 167.45 163.55 167.443 163.534C167.436 163.517 167.421 163.471 167.421 163.374H163.421C163.421 164.549 163.847 165.621 164.689 166.462L167.517 163.634ZM167.421 163.374C167.421 163.281 167.431 163.224 167.439 163.193C167.446 163.163 167.453 163.151 167.455 163.148C167.456 163.145 167.463 163.134 167.483 163.116C167.504 163.096 167.547 163.061 167.625 163.018L165.697 159.514C165.019 159.887 164.423 160.413 164.007 161.12C163.591 161.826 163.421 162.602 163.421 163.374H167.421ZM167.599 163.032C171.298 161.067 175.069 160.104 178.937 160.104V156.104C174.372 156.104 169.96 157.249 165.722 159.5L167.599 163.032ZM178.937 160.104C183.451 160.104 186.645 161.031 188.777 162.621L191.169 159.415C188.092 157.12 183.93 156.104 178.937 156.104V160.104ZM188.777 162.621C190.822 164.147 191.879 166.272 191.879 169.264H195.879C195.879 165.147 194.331 161.774 191.169 159.415L188.777 162.621ZM191.879 169.264C191.879 171.779 191.246 173.514 190.204 174.705L193.214 177.339C195.065 175.223 195.879 172.453 195.879 169.264H191.879ZM190.201 174.708C189.033 176.048 187.546 177.062 185.69 177.739L187.063 181.497C189.507 180.604 191.574 179.22 193.216 177.336L190.201 174.708ZM185.932 181.568C187.922 182.022 189.689 182.977 191.258 184.475L194.02 181.581C191.951 179.607 189.544 178.289 186.821 177.668L185.932 181.568ZM191.292 184.506C192.606 185.704 193.429 187.623 193.429 190.654H197.429C197.429 186.906 196.392 183.742 193.986 181.55L191.292 184.506ZM193.429 190.654C193.429 193.829 192.218 196.161 189.757 197.88L192.048 201.16C195.622 198.663 197.429 195.084 197.429 190.654H193.429ZM189.762 197.877C187.209 199.65 183.797 200.62 179.371 200.62V204.62C184.369 204.62 188.645 203.523 192.044 201.163L189.762 197.877Z" fill="white"/>
<g filter="url(#filter1_d_204_332)">
<path d="M272 102H192C179.85 102 170 92.1503 170 80V0L272 102Z" fill="url(#paint2_linear_204_332)"/>
</g>
</g>
<defs>
<filter id="filter0_f_204_332" x="9" y="110" width="256" height="162" filterUnits="userSpaceOnUse" color-interpolation-filters="sRGB">
<feFlood flood-opacity="0" result="BackgroundImageFix"/>
<feBlend mode="normal" in="SourceGraphic" in2="BackgroundImageFix" result="shape"/>
<feGaussianBlur stdDeviation="19.5" result="effect1_foregroundBlur_204_332"/>
</filter>
<filter id="filter1_d_204_332" x="147" y="-24" width="152" height="152" filterUnits="userSpaceOnUse" color-interpolation-filters="sRGB">
<feFlood flood-opacity="0" result="BackgroundImageFix"/>
<feColorMatrix in="SourceAlpha" type="matrix" values="0 0 0 0 0 0 0 0 0 0 0 0 0 0 0 0 0 0 127 0" result="hardAlpha"/>
<feOffset dx="2" dy="1"/>
<feGaussianBlur stdDeviation="12.5"/>
<feColorMatrix type="matrix" values="0 0 0 0 0 0 0 0 0 0 0 0 0 0 0 0 0 0 0.33 0"/>
<feBlend mode="normal" in2="BackgroundImageFix" result="effect1_dropShadow_204_332"/>
<feBlend mode="normal" in="SourceGraphic" in2="effect1_dropShadow_204_332" result="shape"/>
</filter>
<linearGradient id="paint0_linear_204_332" x1="136" y1="0" x2="136" y2="308" gradientUnits="userSpaceOnUse">
<stop stop-color="#FF7979"/>
<stop offset="1" stop-color="#E85555"/>
</linearGradient>
<linearGradient id="paint1_linear_204_332" x1="136" y1="0" x2="136" y2="308" gradientUnits="userSpaceOnUse">
<stop stop-color="#7CA9FF"/>
<stop offset="1" stop-color="#4377DC"/>
</linearGradient>
<linearGradient id="paint2_linear_204_332" x1="221" y1="0" x2="221" y2="102" gradientUnits="userSpaceOnUse">
<stop stop-color="#4B7BF7"/>
<stop offset="1" stop-color="#1A4DD1"/>
</linearGradient>
</defs>
</svg>
