<svg width="272" height="308" viewBox="0 0 272 308" fill="none" xmlns="http://www.w3.org/2000/svg">
<rect width="272" height="308" fill="#E5E5E5"/>
<mask id="mask0_204_626" style="mask-type:alpha" maskUnits="userSpaceOnUse" x="0" y="0" width="272" height="308">
<path d="M250 308H22C9.84974 308 0 298.15 0 286V22C0 9.84974 9.84974 0 22 0H170L272 102V286C272 298.15 262.15 308 250 308Z" fill="url(#paint0_linear_204_626)"/>
</mask>
<g mask="url(#mask0_204_626)">
<path d="M250 308H22C9.84974 308 0 298.15 0 286V22C0 9.84974 9.84974 0 22 0H170L272 102V286C272 298.15 262.15 308 250 308Z" fill="url(#paint1_linear_204_626)"/>
<g opacity="0.2" filter="url(#filter0_f_204_626)">
<rect x="48" y="149" width="178" height="84" fill="#780AAF" style="mix-blend-mode:darken"/>
</g>
<path d="M44.5069 202.31C43.7216 202.31 43.0602 202.041 42.5229 201.504C41.9856 200.967 41.7169 200.305 41.7169 199.52V162.506C41.7169 161.39 42.1096 160.439 42.8949 159.654C43.6802 158.827 44.6309 158.414 45.7469 158.414H47.7929C48.6196 158.414 49.3636 158.662 50.0249 159.158C50.7276 159.654 51.2442 160.274 51.5749 161.018L65.6489 196.11L79.7229 161.018C80.0536 160.274 80.5496 159.654 81.2109 159.158C81.9136 158.662 82.6782 158.414 83.5049 158.414H85.5509C86.6669 158.414 87.6176 158.827 88.4029 159.654C89.1882 160.439 89.5809 161.39 89.5809 162.506V199.52C89.5809 200.305 89.3122 200.967 88.7749 201.504C88.2376 202.041 87.5762 202.31 86.7909 202.31C86.0056 202.31 85.3236 202.041 84.7449 201.504C84.2076 200.967 83.9389 200.305 83.9389 199.52V164.304L69.6169 199.706C69.2862 200.491 68.7489 201.132 68.0049 201.628C67.3022 202.083 66.5169 202.31 65.6489 202.31C64.7809 202.31 63.9749 202.083 63.2309 201.628C62.5282 201.132 62.0116 200.491 61.6809 199.706L47.3589 164.304V199.52C47.3589 200.305 47.0696 200.967 46.4909 201.504C45.9536 202.041 45.2922 202.31 44.5069 202.31ZM108.728 202.31C107.942 202.31 107.281 202.041 106.744 201.504C106.206 200.967 105.938 200.305 105.938 199.52V161.576C105.938 160.791 106.206 160.129 106.744 159.592C107.281 159.013 107.942 158.724 108.728 158.724H122.864C126.79 158.724 129.994 159.385 132.474 160.708C134.954 162.031 136.731 163.725 137.806 165.792C138.88 167.859 139.418 170.091 139.418 172.488C139.418 174.885 138.88 177.117 137.806 179.184C136.731 181.251 134.954 182.945 132.474 184.268C129.994 185.591 126.79 186.252 122.864 186.252H111.58V199.52C111.58 200.305 111.29 200.967 110.712 201.504C110.174 202.041 109.513 202.31 108.728 202.31ZM122.306 180.92C126.522 180.92 129.477 180.114 131.172 178.502C132.908 176.89 133.776 174.885 133.776 172.488C133.776 170.091 132.908 168.086 131.172 166.474C129.477 164.862 126.522 164.056 122.306 164.056H111.58V180.92H122.306ZM154.724 202C153.939 202 153.277 201.731 152.74 201.194C152.203 200.657 151.934 199.995 151.934 199.21V161.576C151.934 160.791 152.203 160.129 152.74 159.592C153.277 159.013 153.939 158.724 154.724 158.724H179.586C180.33 158.724 180.95 158.993 181.446 159.53C181.983 160.026 182.252 160.646 182.252 161.39C182.252 162.134 181.983 162.754 181.446 163.25C180.95 163.746 180.33 163.994 179.586 163.994H157.576V177.696H177.354C178.098 177.696 178.718 177.965 179.214 178.502C179.751 178.998 180.02 179.618 180.02 180.362C180.02 181.106 179.751 181.726 179.214 182.222C178.718 182.718 178.098 182.966 177.354 182.966H157.576V196.73H179.586C180.33 196.73 180.95 196.999 181.446 197.536C181.983 198.032 182.252 198.652 182.252 199.396C182.252 200.14 181.983 200.76 181.446 201.256C180.95 201.752 180.33 202 179.586 202H154.724ZM214.545 202.62C210.288 202.62 206.506 201.69 203.199 199.83C199.893 197.929 197.33 195.304 195.511 191.956C193.693 188.567 192.783 184.723 192.783 180.424C192.783 176.043 193.734 172.157 195.635 168.768C197.537 165.379 200.12 162.754 203.385 160.894C206.692 159.034 210.35 158.104 214.359 158.104C217.583 158.104 220.394 158.497 222.791 159.282C225.23 160.067 227.565 161.163 229.797 162.568C230.128 162.733 230.417 163.023 230.665 163.436C230.913 163.849 231.037 164.304 231.037 164.8C231.037 165.503 230.789 166.102 230.293 166.598C229.839 167.094 229.219 167.342 228.433 167.342C227.979 167.342 227.545 167.239 227.131 167.032C225.189 165.875 223.246 165.007 221.303 164.428C219.361 163.849 217.253 163.56 214.979 163.56C211.838 163.56 209.007 164.221 206.485 165.544C203.964 166.867 201.98 168.809 200.533 171.372C199.128 173.893 198.425 176.911 198.425 180.424C198.425 183.648 199.087 186.541 200.409 189.104C201.773 191.625 203.716 193.63 206.237 195.118C208.8 196.565 211.817 197.288 215.289 197.288C219.175 197.288 222.791 196.379 226.139 194.56V183.338H215.909C215.207 183.338 214.607 183.09 214.111 182.594C213.615 182.098 213.367 181.499 213.367 180.796C213.367 180.093 213.615 179.494 214.111 178.998C214.607 178.502 215.207 178.254 215.909 178.254H228.123C228.95 178.254 229.653 178.543 230.231 179.122C230.81 179.701 231.099 180.403 231.099 181.23V195.304C231.099 196.172 230.872 196.957 230.417 197.66C230.004 198.321 229.446 198.817 228.743 199.148C224.114 201.463 219.381 202.62 214.545 202.62Z" fill="white"/>
<path d="M42.5229 201.504L43.9371 200.09L42.5229 201.504ZM42.8949 159.654L44.3091 161.068L44.3272 161.05L44.3449 161.031L42.8949 159.654ZM50.0249 159.158L48.8249 160.758L48.848 160.775L48.8715 160.792L50.0249 159.158ZM51.5749 161.018L53.4312 160.274L53.4175 160.239L53.4025 160.206L51.5749 161.018ZM65.6489 196.11L63.7926 196.854L65.6489 201.483L67.5052 196.854L65.6489 196.11ZM79.7229 161.018L77.8953 160.206L77.8803 160.239L77.8666 160.274L79.7229 161.018ZM81.2109 159.158L80.0575 157.524L80.034 157.541L80.0109 157.558L81.2109 159.158ZM88.4029 159.654L86.9529 161.031L86.9706 161.05L86.9887 161.068L88.4029 159.654ZM88.7749 201.504L90.1891 202.918L90.1891 202.918L88.7749 201.504ZM84.7449 201.504L83.3307 202.918L83.3569 202.944L83.384 202.97L84.7449 201.504ZM83.9389 164.304H85.9389L82.0849 163.554L83.9389 164.304ZM69.6169 199.706L71.4602 200.482L71.4656 200.469L71.4709 200.456L69.6169 199.706ZM68.0049 201.628L69.0914 203.307L69.1029 203.3L69.1143 203.292L68.0049 201.628ZM63.2309 201.628L62.0775 203.262L62.1316 203.3L62.188 203.335L63.2309 201.628ZM61.6809 199.706L59.8269 200.456L59.8321 200.469L59.8376 200.482L61.6809 199.706ZM47.3589 164.304L49.2129 163.554L45.3589 164.304H47.3589ZM46.4909 201.504L45.13 200.038L45.1029 200.064L45.0767 200.09L46.4909 201.504ZM44.5069 200.31C44.2322 200.31 44.0856 200.238 43.9371 200.09L41.1087 202.918C42.0349 203.844 43.211 204.31 44.5069 204.31V200.31ZM43.9371 200.09C43.7886 199.941 43.7169 199.795 43.7169 199.52H39.7169C39.7169 200.816 40.1825 201.992 41.1087 202.918L43.9371 200.09ZM43.7169 199.52V162.506H39.7169V199.52H43.7169ZM43.7169 162.506C43.7169 161.918 43.9009 161.476 44.3091 161.068L41.4807 158.24C40.3182 159.402 39.7169 160.862 39.7169 162.506H43.7169ZM44.3449 161.031C44.7619 160.593 45.1924 160.414 45.7469 160.414V156.414C44.0694 156.414 42.5985 157.062 41.4449 158.276L44.3449 161.031ZM45.7469 160.414H47.7929V156.414H45.7469V160.414ZM47.7929 160.414C48.1868 160.414 48.5098 160.522 48.8249 160.758L51.2249 157.558C50.2174 156.802 49.0523 156.414 47.7929 156.414V160.414ZM48.8715 160.792C49.2968 161.092 49.5715 161.435 49.7473 161.83L53.4025 160.206C52.9169 159.113 52.1584 158.216 51.1783 157.524L48.8715 160.792ZM49.7186 161.762L63.7926 196.854L67.5052 195.366L53.4312 160.274L49.7186 161.762ZM67.5052 196.854L81.5792 161.762L77.8666 160.274L63.7926 195.366L67.5052 196.854ZM81.5505 161.83C81.7404 161.403 82.0182 161.053 82.4109 160.758L80.0109 157.558C79.081 158.255 78.3667 159.145 77.8953 160.206L81.5505 161.83ZM82.3643 160.792C82.744 160.524 83.1087 160.414 83.5049 160.414V156.414C82.2478 156.414 81.0831 156.8 80.0575 157.524L82.3643 160.792ZM83.5049 160.414H85.5509V156.414H83.5049V160.414ZM85.5509 160.414C86.1054 160.414 86.5359 160.593 86.9529 161.031L89.8529 158.276C88.6992 157.062 87.2284 156.414 85.5509 156.414V160.414ZM86.9887 161.068C87.3969 161.476 87.5809 161.918 87.5809 162.506H91.5809C91.5809 160.862 90.9795 159.402 89.8171 158.24L86.9887 161.068ZM87.5809 162.506V199.52H91.5809V162.506H87.5809ZM87.5809 199.52C87.5809 199.795 87.5091 199.941 87.3607 200.09L90.1891 202.918C91.1153 201.992 91.5809 200.816 91.5809 199.52H87.5809ZM87.3607 200.09C87.2122 200.238 87.0656 200.31 86.7909 200.31V204.31C88.0868 204.31 89.2629 203.844 90.1891 202.918L87.3607 200.09ZM86.7909 200.31C86.5135 200.31 86.3168 200.234 86.1058 200.038L83.384 202.97C84.3303 203.848 85.4976 204.31 86.7909 204.31V200.31ZM86.1591 200.09C86.0106 199.941 85.9389 199.795 85.9389 199.52H81.9389C81.9389 200.816 82.4045 201.992 83.3307 202.918L86.1591 200.09ZM85.9389 199.52V164.304H81.9389V199.52H85.9389ZM82.0849 163.554L67.7629 198.956L71.4709 200.456L85.7929 165.054L82.0849 163.554ZM67.7736 198.93C67.6029 199.335 67.3301 199.674 66.8955 199.964L69.1143 203.292C70.1677 202.59 70.9695 201.647 71.4602 200.482L67.7736 198.93ZM66.9184 199.949C66.5518 200.186 66.1465 200.31 65.6489 200.31V204.31C66.8873 204.31 68.0526 203.979 69.0914 203.307L66.9184 199.949ZM65.6489 200.31C65.1507 200.31 64.7053 200.185 64.2738 199.921L62.188 203.335C63.2445 203.98 64.4111 204.31 65.6489 204.31V200.31ZM64.3843 199.994C63.9842 199.712 63.7082 199.367 63.5242 198.93L59.8376 200.482C60.3149 201.616 61.0722 202.552 62.0775 203.262L64.3843 199.994ZM63.5349 198.956L49.2129 163.554L45.5049 165.054L59.8269 200.456L63.5349 198.956ZM45.3589 164.304V199.52H49.3589V164.304H45.3589ZM45.3589 199.52C45.3589 199.746 45.3037 199.877 45.13 200.038L47.8518 202.97C48.8354 202.056 49.3589 200.865 49.3589 199.52H45.3589ZM45.0767 200.09C44.9282 200.238 44.7816 200.31 44.5069 200.31V204.31C45.8028 204.31 46.9789 203.844 47.9051 202.918L45.0767 200.09ZM106.744 201.504L108.158 200.09L106.744 201.504ZM106.744 159.592L108.158 161.006L108.184 160.98L108.209 160.953L106.744 159.592ZM132.474 160.708L133.415 158.943L132.474 160.708ZM137.806 165.792L136.031 166.715L137.806 165.792ZM137.806 179.184L136.031 178.261V178.261L137.806 179.184ZM132.474 184.268L133.415 186.033L132.474 184.268ZM111.58 186.252V184.252H109.58V186.252H111.58ZM110.712 201.504L109.351 200.038L109.324 200.064L109.298 200.09L110.712 201.504ZM131.172 178.502L129.811 177.036L129.802 177.045L129.793 177.053L131.172 178.502ZM131.172 166.474L129.793 167.923L129.802 167.931L129.811 167.94L131.172 166.474ZM111.58 164.056V162.056H109.58V164.056H111.58ZM111.58 180.92H109.58V182.92H111.58V180.92ZM108.728 200.31C108.453 200.31 108.306 200.238 108.158 200.09L105.33 202.918C106.256 203.844 107.432 204.31 108.728 204.31V200.31ZM108.158 200.09C108.009 199.941 107.938 199.795 107.938 199.52H103.938C103.938 200.816 104.403 201.992 105.33 202.918L108.158 200.09ZM107.938 199.52V161.576H103.938V199.52H107.938ZM107.938 161.576C107.938 161.301 108.009 161.155 108.158 161.006L105.33 158.178C104.403 159.104 103.938 160.28 103.938 161.576H107.938ZM108.209 160.953C108.371 160.779 108.502 160.724 108.728 160.724V156.724C107.383 156.724 106.192 157.247 105.278 158.231L108.209 160.953ZM108.728 160.724H122.864V156.724H108.728V160.724ZM122.864 160.724C126.585 160.724 129.434 161.354 131.533 162.473L133.415 158.943C130.553 157.417 126.996 156.724 122.864 156.724V160.724ZM131.533 162.473C133.731 163.645 135.179 165.075 136.031 166.715L139.58 164.869C138.284 162.376 136.176 160.416 133.415 158.943L131.533 162.473ZM136.031 166.715C136.953 168.488 137.418 170.402 137.418 172.488H141.418C141.418 169.779 140.807 167.229 139.58 164.869L136.031 166.715ZM137.418 172.488C137.418 174.574 136.953 176.488 136.031 178.261L139.58 180.107C140.807 177.747 141.418 175.197 141.418 172.488H137.418ZM136.031 178.261C135.179 179.901 133.731 181.331 131.533 182.503L133.415 186.033C136.176 184.56 138.284 182.6 139.58 180.107L136.031 178.261ZM131.533 182.503C129.434 183.622 126.585 184.252 122.864 184.252V188.252C126.996 188.252 130.553 187.559 133.415 186.033L131.533 182.503ZM122.864 184.252H111.58V188.252H122.864V184.252ZM109.58 186.252V199.52H113.58V186.252H109.58ZM109.58 199.52C109.58 199.746 109.525 199.877 109.351 200.038L112.073 202.97C113.056 202.056 113.58 200.865 113.58 199.52H109.58ZM109.298 200.09C109.149 200.238 109.002 200.31 108.728 200.31V204.31C110.024 204.31 111.2 203.844 112.126 202.918L109.298 200.09ZM122.306 182.92C126.662 182.92 130.281 182.11 132.55 179.951L129.793 177.053C128.673 178.118 126.382 178.92 122.306 178.92V182.92ZM132.533 179.968C134.682 177.972 135.776 175.434 135.776 172.488H131.776C131.776 174.337 131.134 175.808 129.811 177.036L132.533 179.968ZM135.776 172.488C135.776 169.542 134.682 167.004 132.533 165.008L129.811 167.94C131.134 169.168 131.776 170.639 131.776 172.488H135.776ZM132.55 165.025C130.281 162.866 126.662 162.056 122.306 162.056V166.056C126.382 166.056 128.673 166.858 129.793 167.923L132.55 165.025ZM122.306 162.056H111.58V166.056H122.306V162.056ZM109.58 164.056V180.92H113.58V164.056H109.58ZM111.58 182.92H122.306V178.92H111.58V182.92ZM152.74 201.194L154.154 199.78L152.74 201.194ZM152.74 159.592L154.154 161.006L154.18 160.98L154.206 160.953L152.74 159.592ZM181.446 159.53L179.976 160.887L180.031 160.945L180.089 161L181.446 159.53ZM181.446 163.25L180.089 161.78L180.06 161.808L180.032 161.836L181.446 163.25ZM157.576 163.994V161.994H155.576V163.994H157.576ZM157.576 177.696H155.576V179.696H157.576V177.696ZM179.214 178.502L177.744 179.859L177.799 179.917L177.857 179.972L179.214 178.502ZM179.214 182.222L177.857 180.752L177.828 180.78L177.8 180.808L179.214 182.222ZM157.576 182.966V180.966H155.576V182.966H157.576ZM157.576 196.73H155.576V198.73H157.576V196.73ZM181.446 197.536L179.976 198.893L180.031 198.951L180.089 199.006L181.446 197.536ZM181.446 201.256L180.089 199.786L180.06 199.814L180.032 199.842L181.446 201.256ZM154.724 200C154.449 200 154.303 199.928 154.154 199.78L151.326 202.608C152.252 203.534 153.428 204 154.724 204V200ZM154.154 199.78C154.006 199.631 153.934 199.485 153.934 199.21H149.934C149.934 200.506 150.4 201.682 151.326 202.608L154.154 199.78ZM153.934 199.21V161.576H149.934V199.21H153.934ZM153.934 161.576C153.934 161.301 154.006 161.155 154.154 161.006L151.326 158.178C150.4 159.104 149.934 160.28 149.934 161.576H153.934ZM154.206 160.953C154.367 160.779 154.498 160.724 154.724 160.724V156.724C153.379 156.724 152.188 157.247 151.274 158.231L154.206 160.953ZM154.724 160.724H179.586V156.724H154.724V160.724ZM179.586 160.724C179.783 160.724 179.866 160.767 179.976 160.887L182.916 158.173C182.034 157.218 180.877 156.724 179.586 156.724V160.724ZM180.089 161C180.209 161.11 180.252 161.193 180.252 161.39H184.252C184.252 160.099 183.758 158.942 182.803 158.06L180.089 161ZM180.252 161.39C180.252 161.587 180.209 161.67 180.089 161.78L182.803 164.72C183.758 163.838 184.252 162.681 184.252 161.39H180.252ZM180.032 161.836C179.935 161.932 179.835 161.994 179.586 161.994V165.994C180.825 165.994 181.965 165.56 182.86 164.664L180.032 161.836ZM179.586 161.994H157.576V165.994H179.586V161.994ZM155.576 163.994V177.696H159.576V163.994H155.576ZM157.576 179.696H177.354V175.696H157.576V179.696ZM177.354 179.696C177.551 179.696 177.634 179.739 177.744 179.859L180.684 177.145C179.802 176.19 178.645 175.696 177.354 175.696V179.696ZM177.857 179.972C177.977 180.082 178.02 180.165 178.02 180.362H182.02C182.02 179.071 181.526 177.914 180.571 177.032L177.857 179.972ZM178.02 180.362C178.02 180.559 177.977 180.642 177.857 180.752L180.571 183.692C181.526 182.81 182.02 181.653 182.02 180.362H178.02ZM177.8 180.808C177.703 180.904 177.603 180.966 177.354 180.966V184.966C178.593 184.966 179.733 184.532 180.628 183.636L177.8 180.808ZM177.354 180.966H157.576V184.966H177.354V180.966ZM155.576 182.966V196.73H159.576V182.966H155.576ZM157.576 198.73H179.586V194.73H157.576V198.73ZM179.586 198.73C179.783 198.73 179.866 198.773 179.976 198.893L182.916 196.179C182.034 195.224 180.877 194.73 179.586 194.73V198.73ZM180.089 199.006C180.209 199.116 180.252 199.199 180.252 199.396H184.252C184.252 198.105 183.758 196.948 182.803 196.066L180.089 199.006ZM180.252 199.396C180.252 199.593 180.209 199.676 180.089 199.786L182.803 202.726C183.758 201.844 184.252 200.687 184.252 199.396H180.252ZM180.032 199.842C179.935 199.938 179.835 200 179.586 200V204C180.825 204 181.965 203.566 182.86 202.67L180.032 199.842ZM179.586 200H154.724V204H179.586V200ZM203.199 199.83L202.202 201.564L202.211 201.569L202.219 201.573L203.199 199.83ZM195.511 191.956L193.749 192.902L193.754 192.911L195.511 191.956ZM195.635 168.768L197.38 169.747V169.747L195.635 168.768ZM203.385 160.894L202.405 159.151L202.395 159.156L203.385 160.894ZM222.791 159.282L222.169 161.183L222.178 161.186L222.791 159.282ZM229.797 162.568L228.732 164.26L228.815 164.313L228.903 164.357L229.797 162.568ZM230.665 163.436L228.95 164.465V164.465L230.665 163.436ZM230.293 166.598L228.879 165.184L228.848 165.215L228.819 165.247L230.293 166.598ZM227.131 167.032L226.108 168.75L226.171 168.788L226.237 168.821L227.131 167.032ZM221.303 164.428L221.874 162.511L221.303 164.428ZM206.485 165.544L207.414 167.315L207.414 167.315L206.485 165.544ZM200.533 171.372L198.792 170.389L198.786 170.398L200.533 171.372ZM200.409 189.104L198.632 190.021L198.641 190.039L198.65 190.056L200.409 189.104ZM206.237 195.118L205.221 196.84L205.237 196.85L205.254 196.86L206.237 195.118ZM226.139 194.56L227.094 196.317L228.139 195.75V194.56H226.139ZM226.139 183.338H228.139V181.338H226.139V183.338ZM230.417 197.66L228.738 196.573L228.73 196.587L228.721 196.6L230.417 197.66ZM228.743 199.148L227.892 197.338L227.87 197.348L227.849 197.359L228.743 199.148ZM214.545 200.62C210.589 200.62 207.152 199.759 204.18 198.087L202.219 201.573C205.86 203.621 209.987 204.62 214.545 204.62V200.62ZM204.196 198.096C201.21 196.379 198.911 194.024 197.269 191.001L193.754 192.911C195.749 196.584 198.575 199.478 202.202 201.564L204.196 198.096ZM197.274 191.01C195.629 187.945 194.783 184.432 194.783 180.424H190.783C190.783 185.013 191.757 189.189 193.749 192.902L197.274 191.01ZM194.783 180.424C194.783 176.341 195.666 172.8 197.38 169.747L193.891 167.789C191.802 171.514 190.783 175.744 190.783 180.424H194.783ZM197.38 169.747C199.109 166.663 201.437 164.306 204.375 162.632L202.395 159.156C198.803 161.202 195.964 164.095 193.891 167.789L197.38 169.747ZM204.366 162.637C207.356 160.955 210.673 160.104 214.359 160.104V156.104C210.027 156.104 206.028 157.113 202.405 159.151L204.366 162.637ZM214.359 160.104C217.428 160.104 220.019 160.478 222.169 161.183L223.414 157.381C220.769 156.515 217.739 156.104 214.359 156.104V160.104ZM222.178 161.186C224.453 161.918 226.637 162.942 228.732 164.26L230.863 160.876C228.494 159.384 226.007 158.216 223.404 157.378L222.178 161.186ZM228.903 164.357C228.857 164.334 228.839 164.314 228.848 164.323C228.859 164.334 228.896 164.374 228.95 164.465L232.38 162.407C231.995 161.765 231.452 161.159 230.692 160.779L228.903 164.357ZM228.95 164.465C229.006 164.558 229.037 164.655 229.037 164.8H233.037C233.037 163.953 232.82 163.14 232.38 162.407L228.95 164.465ZM229.037 164.8C229.037 164.973 228.999 165.064 228.879 165.184L231.708 168.012C232.579 167.14 233.037 166.032 233.037 164.8H229.037ZM228.819 165.247C228.793 165.275 228.774 165.287 228.745 165.299C228.708 165.313 228.616 165.342 228.433 165.342V169.342C229.677 169.342 230.87 168.929 231.768 167.949L228.819 165.247ZM228.433 165.342C228.294 165.342 228.166 165.313 228.026 165.243L226.237 168.821C226.923 169.164 227.663 169.342 228.433 169.342V165.342ZM228.155 165.314C226.086 164.081 223.992 163.142 221.874 162.511L220.732 166.345C222.499 166.871 224.291 167.668 226.108 168.75L228.155 165.314ZM221.874 162.511C219.725 161.871 217.423 161.56 214.979 161.56V165.56C217.082 165.56 218.996 165.828 220.732 166.345L221.874 162.511ZM214.979 161.56C211.548 161.56 208.393 162.285 205.556 163.773L207.414 167.315C209.62 166.158 212.128 165.56 214.979 165.56V161.56ZM205.556 163.773C202.682 165.281 200.421 167.503 198.792 170.389L202.275 172.355C203.539 170.116 205.246 168.453 207.414 167.315L205.556 163.773ZM198.786 170.398C197.183 173.276 196.425 176.643 196.425 180.424H200.425C200.425 177.178 201.073 174.511 202.28 172.346L198.786 170.398ZM196.425 180.424C196.425 183.929 197.146 187.143 198.632 190.021L202.187 188.187C201.027 185.94 200.425 183.367 200.425 180.424H196.425ZM198.65 190.056C200.191 192.904 202.394 195.172 205.221 196.84L207.254 193.396C205.038 192.088 203.356 190.347 202.168 188.152L198.65 190.056ZM205.254 196.86C208.167 198.504 211.535 199.288 215.289 199.288V195.288C212.1 195.288 209.433 194.625 207.22 193.376L205.254 196.86ZM215.289 199.288C219.501 199.288 223.447 198.299 227.094 196.317L225.185 192.803C222.136 194.459 218.848 195.288 215.289 195.288V199.288ZM228.139 194.56V183.338H224.139V194.56H228.139ZM226.139 181.338H215.909V185.338H226.139V181.338ZM215.909 181.338C215.736 181.338 215.646 181.3 215.526 181.18L212.697 184.008C213.569 184.88 214.677 185.338 215.909 185.338V181.338ZM215.526 181.18C215.405 181.06 215.367 180.969 215.367 180.796H211.367C211.367 182.028 211.825 183.136 212.697 184.008L215.526 181.18ZM215.367 180.796C215.367 180.623 215.405 180.532 215.526 180.412L212.697 177.584C211.825 178.456 211.367 179.564 211.367 180.796H215.367ZM215.526 180.412C215.646 180.292 215.736 180.254 215.909 180.254V176.254C214.677 176.254 213.569 176.712 212.697 177.584L215.526 180.412ZM215.909 180.254H228.123V176.254H215.909V180.254ZM228.123 180.254C228.426 180.254 228.618 180.337 228.817 180.536L231.646 177.708C230.688 176.75 229.474 176.254 228.123 176.254V180.254ZM228.817 180.536C229.016 180.736 229.099 180.928 229.099 181.23H233.099C233.099 179.879 232.604 178.666 231.646 177.708L228.817 180.536ZM229.099 181.23V195.304H233.099V181.23H229.099ZM229.099 195.304C229.099 195.802 228.975 196.207 228.738 196.573L232.096 198.747C232.769 197.708 233.099 196.542 233.099 195.304H229.099ZM228.721 196.6C228.511 196.937 228.245 197.172 227.892 197.338L229.595 200.958C230.647 200.463 231.497 199.706 232.113 198.72L228.721 196.6ZM227.849 197.359C223.477 199.545 219.049 200.62 214.545 200.62V204.62C219.713 204.62 224.751 203.38 229.638 200.937L227.849 197.359Z" fill="white"/>
<g filter="url(#filter1_d_204_626)">
<path d="M272 102H192C179.85 102 170 92.1503 170 80V0L272 102Z" fill="url(#paint2_linear_204_626)"/>
</g>
</g>
<defs>
<filter id="filter0_f_204_626" x="9" y="110" width="256" height="162" filterUnits="userSpaceOnUse" color-interpolation-filters="sRGB">
<feFlood flood-opacity="0" result="BackgroundImageFix"/>
<feBlend mode="normal" in="SourceGraphic" in2="BackgroundImageFix" result="shape"/>
<feGaussianBlur stdDeviation="19.5" result="effect1_foregroundBlur_204_626"/>
</filter>
<filter id="filter1_d_204_626" x="147" y="-24" width="152" height="152" filterUnits="userSpaceOnUse" color-interpolation-filters="sRGB">
<feFlood flood-opacity="0" result="BackgroundImageFix"/>
<feColorMatrix in="SourceAlpha" type="matrix" values="0 0 0 0 0 0 0 0 0 0 0 0 0 0 0 0 0 0 127 0" result="hardAlpha"/>
<feOffset dx="2" dy="1"/>
<feGaussianBlur stdDeviation="12.5"/>
<feColorMatrix type="matrix" values="0 0 0 0 0 0 0 0 0 0 0 0 0 0 0 0 0 0 0.33 0"/>
<feBlend mode="normal" in2="BackgroundImageFix" result="effect1_dropShadow_204_626"/>
<feBlend mode="normal" in="SourceGraphic" in2="effect1_dropShadow_204_626" result="shape"/>
</filter>
<linearGradient id="paint0_linear_204_626" x1="136" y1="0" x2="136" y2="308" gradientUnits="userSpaceOnUse">
<stop stop-color="#FF7979"/>
<stop offset="1" stop-color="#E85555"/>
</linearGradient>
<linearGradient id="paint1_linear_204_626" x1="136" y1="0" x2="136" y2="308" gradientUnits="userSpaceOnUse">
<stop stop-color="#CB74F4"/>
<stop offset="0.942892" stop-color="#A849F3"/>
</linearGradient>
<linearGradient id="paint2_linear_204_626" x1="221" y1="0" x2="221" y2="102" gradientUnits="userSpaceOnUse">
<stop stop-color="#B051E0"/>
<stop offset="1" stop-color="#952BCB"/>
</linearGradient>
</defs>
</svg>
