<svg width="272" height="308" viewBox="0 0 272 308" fill="none" xmlns="http://www.w3.org/2000/svg">
<mask id="mask0_204_411" style="mask-type:alpha" maskUnits="userSpaceOnUse" x="0" y="0" width="272" height="308">
<path d="M250 308H22C9.84974 308 0 298.15 0 286V22C0 9.84974 9.84974 0 22 0H170L272 102V286C272 298.15 262.15 308 250 308Z" fill="url(#paint0_linear_204_411)"/>
</mask>
<g mask="url(#mask0_204_411)">
<path d="M250 308H22C9.84974 308 0 298.15 0 286V22C0 9.84974 9.84974 0 22 0H170L272 102V286C272 298.15 262.15 308 250 308Z" fill="url(#paint1_linear_204_411)"/>
<g opacity="0.27" filter="url(#filter0_f_204_411)">
<rect x="48" y="149" width="178" height="84" fill="#0072A2" style="mix-blend-mode:darken"/>
</g>
<path d="M87.5664 202.62C83.2264 202.62 79.4237 201.669 76.1584 199.768C72.893 197.867 70.3717 195.242 68.5944 191.894C66.817 188.546 65.887 184.702 65.8044 180.362C65.887 176.022 66.817 172.178 68.5944 168.83C70.3717 165.482 72.893 162.857 76.1584 160.956C79.4237 159.055 83.2264 158.104 87.5664 158.104C91.9064 158.104 95.6884 159.055 98.9124 160.956C102.178 162.857 104.699 165.503 106.476 168.892C108.295 172.24 109.246 176.063 109.328 180.362C109.246 184.661 108.295 188.505 106.476 191.894C104.699 195.242 102.178 197.867 98.9124 199.768C95.6884 201.669 91.9064 202.62 87.5664 202.62ZM87.5664 197.35C90.873 197.35 93.7457 196.606 96.1844 195.118C98.623 193.63 100.483 191.605 101.764 189.042C103.046 186.479 103.686 183.586 103.686 180.362C103.686 177.138 103.046 174.245 101.764 171.682C100.483 169.119 98.623 167.094 96.1844 165.606C93.7457 164.118 90.873 163.374 87.5664 163.374C84.2184 163.374 81.325 164.118 78.8864 165.606C76.489 167.094 74.6497 169.119 73.3684 171.682C72.087 174.245 71.4464 177.138 71.4464 180.362C71.4464 183.586 72.087 186.479 73.3684 189.042C74.6497 191.605 76.489 193.63 78.8864 195.118C81.325 196.606 84.2184 197.35 87.5664 197.35ZM125.853 202C125.067 202 124.406 201.731 123.869 201.194C123.331 200.657 123.063 199.995 123.063 199.21V161.576C123.063 160.791 123.331 160.129 123.869 159.592C124.406 159.013 125.067 158.724 125.853 158.724H138.315C143.027 158.724 147.015 159.778 150.281 161.886C153.587 163.953 156.067 166.639 157.721 169.946C159.374 173.253 160.201 176.725 160.201 180.362C160.201 183.999 159.374 187.471 157.721 190.778C156.067 194.085 153.587 196.792 150.281 198.9C147.015 200.967 143.027 202 138.315 202H125.853ZM137.633 196.73C141.022 196.73 143.998 196.048 146.561 194.684C149.123 193.279 151.107 191.357 152.513 188.918C153.918 186.438 154.621 183.586 154.621 180.362C154.621 177.138 153.918 174.307 152.513 171.868C151.107 169.388 149.123 167.466 146.561 166.102C143.998 164.697 141.022 163.994 137.633 163.994H128.705V196.73H137.633ZM176.753 202.31C175.968 202.31 175.307 202.041 174.769 201.504C174.232 200.967 173.963 200.305 173.963 199.52V161.576C173.963 160.791 174.232 160.129 174.769 159.592C175.307 159.013 175.968 158.724 176.753 158.724H190.889C194.816 158.724 198.019 159.385 200.499 160.708C202.979 162.031 204.757 163.725 205.831 165.792C206.906 167.859 207.443 170.091 207.443 172.488C207.443 174.885 206.906 177.117 205.831 179.184C204.757 181.251 202.979 182.945 200.499 184.268C198.019 185.591 194.816 186.252 190.889 186.252H179.605V199.52C179.605 200.305 179.316 200.967 178.737 201.504C178.2 202.041 177.539 202.31 176.753 202.31ZM190.331 180.92C194.547 180.92 197.503 180.114 199.197 178.502C200.933 176.89 201.801 174.885 201.801 172.488C201.801 170.091 200.933 168.086 199.197 166.474C197.503 164.862 194.547 164.056 190.331 164.056H179.605V180.92H190.331Z" fill="white"/>
<path d="M76.1584 199.768L77.1648 198.04L76.1584 199.768ZM68.5944 191.894L66.8279 192.832L68.5944 191.894ZM65.8044 180.362L63.8047 180.324L63.804 180.362L63.8047 180.4L65.8044 180.362ZM68.5944 168.83L70.3609 169.768L68.5944 168.83ZM76.1584 160.956L75.152 159.228V159.228L76.1584 160.956ZM98.9124 160.956L97.8964 162.679L97.906 162.684L98.9124 160.956ZM106.476 168.892L104.705 169.821L104.712 169.834L104.719 169.847L106.476 168.892ZM109.328 180.362L111.328 180.4L111.329 180.362L111.328 180.324L109.328 180.362ZM106.476 191.894L104.714 190.948L104.71 190.956L106.476 191.894ZM98.9124 199.768L97.906 198.04L97.8964 198.045L98.9124 199.768ZM96.1844 195.118L95.1427 193.411H95.1426L96.1844 195.118ZM101.764 189.042L103.553 189.936V189.936L101.764 189.042ZM101.764 171.682L103.553 170.788V170.788L101.764 171.682ZM96.1844 165.606L95.1426 167.313L96.1844 165.606ZM78.8864 165.606L77.8447 163.899L77.8381 163.903L77.8316 163.907L78.8864 165.606ZM73.3684 171.682L71.5795 170.788L73.3684 171.682ZM73.3684 189.042L71.5795 189.936L73.3684 189.042ZM78.8864 195.118L77.8316 196.817L77.8381 196.821L77.8447 196.825L78.8864 195.118ZM87.5664 200.62C83.5266 200.62 80.0815 199.738 77.1648 198.04L75.152 201.496C78.7659 203.601 82.9261 204.62 87.5664 204.62V200.62ZM77.1648 198.04C74.2226 196.326 71.9641 193.976 70.3609 190.956L66.8279 192.832C68.7794 196.508 71.5635 199.407 75.152 201.496L77.1648 198.04ZM70.3609 190.956C68.7509 187.923 67.8816 184.396 67.804 180.324L63.8047 180.4C63.8925 185.008 64.8832 189.169 66.8279 192.832L70.3609 190.956ZM67.804 180.4C67.8816 176.328 68.7509 172.801 70.3609 169.768L66.8279 167.892C64.8832 171.555 63.8925 175.716 63.8047 180.324L67.804 180.4ZM70.3609 169.768C71.9641 166.748 74.2226 164.398 77.1648 162.684L75.152 159.228C71.5635 161.317 68.7794 164.216 66.8279 167.892L70.3609 169.768ZM77.1648 162.684C80.0815 160.986 83.5266 160.104 87.5664 160.104V156.104C82.9261 156.104 78.7659 157.123 75.152 159.228L77.1648 162.684ZM87.5664 160.104C91.6068 160.104 95.0264 160.986 97.8964 162.679L99.9284 159.233C96.3503 157.123 92.2059 156.104 87.5664 156.104V160.104ZM97.906 162.684C100.842 164.394 103.1 166.76 104.705 169.821L108.248 167.963C106.298 164.245 103.514 161.321 99.9188 159.228L97.906 162.684ZM104.719 169.847C106.366 172.879 107.251 176.381 107.329 180.4L111.328 180.324C111.24 175.746 110.224 171.601 108.234 167.937L104.719 169.847ZM107.329 180.324C107.251 184.343 106.366 187.87 104.714 190.948L108.239 192.84C110.224 189.139 111.24 184.978 111.328 180.4L107.329 180.324ZM104.71 190.956C103.107 193.976 100.848 196.326 97.906 198.04L99.9188 201.496C103.507 199.407 106.291 196.508 108.243 192.832L104.71 190.956ZM97.8964 198.045C95.0264 199.738 91.6068 200.62 87.5664 200.62V204.62C92.2059 204.62 96.3503 203.601 99.9284 201.491L97.8964 198.045ZM87.5664 199.35C91.1817 199.35 94.427 198.533 97.2261 196.825L95.1426 193.411C93.0645 194.679 90.5644 195.35 87.5664 195.35V199.35ZM97.2261 196.825C99.9861 195.141 102.105 192.834 103.553 189.936L99.9755 188.148C98.8615 190.376 97.2599 192.119 95.1427 193.411L97.2261 196.825ZM103.553 189.936C104.99 187.063 105.686 183.857 105.686 180.362H101.686C101.686 183.315 101.101 185.896 99.9755 188.148L103.553 189.936ZM105.686 180.362C105.686 176.867 104.99 173.661 103.553 170.788L99.9755 172.576C101.101 174.828 101.686 177.409 101.686 180.362H105.686ZM103.553 170.788C102.105 167.89 99.9861 165.583 97.2261 163.899L95.1426 167.313C97.2599 168.605 98.8615 170.348 99.9755 172.576L103.553 170.788ZM97.2261 163.899C94.427 162.191 91.1817 161.374 87.5664 161.374V165.374C90.5644 165.374 93.0645 166.045 95.1426 167.313L97.2261 163.899ZM87.5664 161.374C83.9149 161.374 80.6476 162.188 77.8447 163.899L79.9281 167.313C82.0025 166.048 84.5219 165.374 87.5664 165.374V161.374ZM77.8316 163.907C75.1148 165.593 73.0237 167.899 71.5795 170.788L75.1572 172.576C76.2757 170.339 77.8633 168.595 79.9411 167.305L77.8316 163.907ZM71.5795 170.788C70.1428 173.661 69.4464 176.867 69.4464 180.362H73.4464C73.4464 177.409 74.0313 174.828 75.1572 172.576L71.5795 170.788ZM69.4464 180.362C69.4464 183.857 70.1428 187.063 71.5795 189.936L75.1572 188.148C74.0313 185.896 73.4464 183.315 73.4464 180.362H69.4464ZM71.5795 189.936C73.0237 192.825 75.1148 195.131 77.8316 196.817L79.9411 193.419C77.8633 192.129 76.2757 190.385 75.1572 188.148L71.5795 189.936ZM77.8447 196.825C80.6476 198.536 83.9149 199.35 87.5664 199.35V195.35C84.5219 195.35 82.0025 194.676 79.9281 193.411L77.8447 196.825ZM123.869 201.194L125.283 199.78L123.869 201.194ZM123.869 159.592L125.283 161.006L125.309 160.98L125.334 160.953L123.869 159.592ZM150.281 161.886L149.196 163.566L149.208 163.574L149.221 163.582L150.281 161.886ZM157.721 169.946L155.932 170.84L157.721 169.946ZM157.721 190.778L155.932 189.884L157.721 190.778ZM150.281 198.9L151.35 200.59L151.356 200.586L150.281 198.9ZM146.561 194.684L147.501 196.449L147.512 196.444L147.522 196.438L146.561 194.684ZM152.513 188.918L154.246 189.917L154.249 189.91L154.253 189.904L152.513 188.918ZM152.513 171.868L150.773 172.854L150.776 172.86L150.78 172.867L152.513 171.868ZM146.561 166.102L145.599 167.856L145.61 167.862L145.621 167.867L146.561 166.102ZM128.705 163.994V161.994H126.705V163.994H128.705ZM128.705 196.73H126.705V198.73H128.705V196.73ZM125.853 200C125.578 200 125.432 199.928 125.283 199.78L122.455 202.608C123.381 203.534 124.557 204 125.853 204V200ZM125.283 199.78C125.135 199.631 125.063 199.485 125.063 199.21H121.063C121.063 200.506 121.528 201.682 122.455 202.608L125.283 199.78ZM125.063 199.21V161.576H121.063V199.21H125.063ZM125.063 161.576C125.063 161.301 125.135 161.155 125.283 161.006L122.455 158.178C121.528 159.104 121.063 160.28 121.063 161.576H125.063ZM125.334 160.953C125.496 160.779 125.627 160.724 125.853 160.724V156.724C124.508 156.724 123.317 157.247 122.403 158.231L125.334 160.953ZM125.853 160.724H138.315V156.724H125.853V160.724ZM138.315 160.724C142.724 160.724 146.317 161.708 149.196 163.566L151.366 160.206C147.714 157.848 143.329 156.724 138.315 156.724V160.724ZM149.221 163.582C152.233 165.465 154.452 167.881 155.932 170.84L159.51 169.052C157.683 165.397 154.942 162.441 151.341 160.19L149.221 163.582ZM155.932 170.84C157.449 173.874 158.201 177.04 158.201 180.362H162.201C162.201 176.409 161.3 172.631 159.51 169.052L155.932 170.84ZM158.201 180.362C158.201 183.684 157.449 186.85 155.932 189.884L159.51 191.672C161.3 188.093 162.201 184.315 162.201 180.362H158.201ZM155.932 189.884C154.45 192.847 152.226 195.288 149.206 197.214L151.356 200.586C154.949 198.296 157.685 195.323 159.51 191.672L155.932 189.884ZM149.211 197.21C146.33 199.034 142.732 200 138.315 200V204C143.322 204 147.701 202.9 151.35 200.59L149.211 197.21ZM138.315 200H125.853V204H138.315V200ZM137.633 198.73C141.295 198.73 144.604 197.991 147.501 196.449L145.621 192.919C143.393 194.105 140.749 194.73 137.633 194.73V198.73ZM147.522 196.438C150.394 194.863 152.65 192.685 154.246 189.917L150.78 187.919C149.565 190.028 147.853 191.694 145.599 192.93L147.522 196.438ZM154.253 189.904C155.85 187.086 156.621 183.886 156.621 180.362H152.621C152.621 183.286 151.986 185.79 150.773 187.932L154.253 189.904ZM156.621 180.362C156.621 176.839 155.85 173.654 154.246 170.869L150.78 172.867C151.986 174.96 152.621 177.437 152.621 180.362H156.621ZM154.253 170.882C152.657 168.065 150.392 165.876 147.501 164.337L145.621 167.867C147.855 169.056 149.558 170.711 150.773 172.854L154.253 170.882ZM147.522 164.348C144.621 162.757 141.304 161.994 137.633 161.994V165.994C140.74 165.994 143.375 166.636 145.599 167.856L147.522 164.348ZM137.633 161.994H128.705V165.994H137.633V161.994ZM126.705 163.994V196.73H130.705V163.994H126.705ZM128.705 198.73H137.633V194.73H128.705V198.73ZM174.769 201.504L176.184 200.09L174.769 201.504ZM174.769 159.592L176.184 161.006L176.21 160.98L176.235 160.953L174.769 159.592ZM200.499 160.708L201.441 158.943L200.499 160.708ZM205.831 165.792L204.057 166.715L205.831 165.792ZM205.831 179.184L204.057 178.261L204.057 178.261L205.831 179.184ZM200.499 184.268L201.441 186.033L200.499 184.268ZM179.605 186.252V184.252H177.605V186.252H179.605ZM178.737 201.504L177.376 200.038L177.349 200.064L177.323 200.09L178.737 201.504ZM199.197 178.502L197.836 177.036L197.828 177.045L197.819 177.053L199.197 178.502ZM199.197 166.474L197.819 167.923L197.828 167.931L197.836 167.94L199.197 166.474ZM179.605 164.056V162.056H177.605V164.056H179.605ZM179.605 180.92H177.605V182.92H179.605V180.92ZM176.753 200.31C176.479 200.31 176.332 200.238 176.184 200.09L173.355 202.918C174.281 203.844 175.457 204.31 176.753 204.31V200.31ZM176.184 200.09C176.035 199.941 175.963 199.795 175.963 199.52H171.963C171.963 200.816 172.429 201.992 173.355 202.918L176.184 200.09ZM175.963 199.52V161.576H171.963V199.52H175.963ZM175.963 161.576C175.963 161.301 176.035 161.155 176.184 161.006L173.355 158.178C172.429 159.104 171.963 160.28 171.963 161.576H175.963ZM176.235 160.953C176.396 160.779 176.528 160.724 176.753 160.724V156.724C175.408 156.724 174.217 157.247 173.304 158.231L176.235 160.953ZM176.753 160.724H190.889V156.724H176.753V160.724ZM190.889 160.724C194.611 160.724 197.46 161.354 199.558 162.473L201.441 158.943C198.579 157.417 195.021 156.724 190.889 156.724V160.724ZM199.558 162.473C201.757 163.645 203.204 165.075 204.057 166.715L207.606 164.869C206.309 162.376 204.202 160.416 201.441 158.943L199.558 162.473ZM204.057 166.715C204.979 168.488 205.443 170.402 205.443 172.488H209.443C209.443 169.779 208.833 167.229 207.606 164.869L204.057 166.715ZM205.443 172.488C205.443 174.574 204.979 176.488 204.057 178.261L207.606 180.107C208.833 177.747 209.443 175.197 209.443 172.488H205.443ZM204.057 178.261C203.204 179.901 201.757 181.331 199.558 182.503L201.441 186.033C204.202 184.56 206.309 182.6 207.606 180.107L204.057 178.261ZM199.558 182.503C197.46 183.622 194.611 184.252 190.889 184.252V188.252C195.021 188.252 198.579 187.559 201.441 186.033L199.558 182.503ZM190.889 184.252H179.605V188.252H190.889V184.252ZM177.605 186.252V199.52H181.605V186.252H177.605ZM177.605 199.52C177.605 199.746 177.55 199.877 177.376 200.038L180.098 202.97C181.082 202.056 181.605 200.865 181.605 199.52H177.605ZM177.323 200.09C177.175 200.238 177.028 200.31 176.753 200.31V204.31C178.049 204.31 179.225 203.844 180.152 202.918L177.323 200.09ZM190.331 182.92C194.687 182.92 198.307 182.11 200.576 179.951L197.819 177.053C196.699 178.118 194.407 178.92 190.331 178.92V182.92ZM200.558 179.968C202.707 177.972 203.801 175.434 203.801 172.488H199.801C199.801 174.337 199.159 175.808 197.836 177.036L200.558 179.968ZM203.801 172.488C203.801 169.542 202.707 167.004 200.558 165.008L197.836 167.94C199.159 169.168 199.801 170.639 199.801 172.488H203.801ZM200.576 165.025C198.307 162.866 194.687 162.056 190.331 162.056V166.056C194.407 166.056 196.699 166.858 197.819 167.923L200.576 165.025ZM190.331 162.056H179.605V166.056H190.331V162.056ZM177.605 164.056V180.92H181.605V164.056H177.605ZM179.605 182.92H190.331V178.92H179.605V182.92Z" fill="white"/>
<ellipse opacity="0.05" cx="-14.5" cy="-12.5" rx="223.5" ry="214.5" fill="url(#paint2_linear_204_411)"/>
<ellipse opacity="0.07" cx="-14.5" cy="-12.5" rx="140.5" ry="134.5" fill="url(#paint3_linear_204_411)"/>
<g filter="url(#filter1_d_204_411)">
<path d="M272 102H192C179.85 102 170 92.1503 170 80V0L272 102Z" fill="url(#paint4_linear_204_411)"/>
</g>
</g>
<defs>
<filter id="filter0_f_204_411" x="9" y="110" width="256" height="162" filterUnits="userSpaceOnUse" color-interpolation-filters="sRGB">
<feFlood flood-opacity="0" result="BackgroundImageFix"/>
<feBlend mode="normal" in="SourceGraphic" in2="BackgroundImageFix" result="shape"/>
<feGaussianBlur stdDeviation="19.5" result="effect1_foregroundBlur_204_411"/>
</filter>
<filter id="filter1_d_204_411" x="147" y="-24" width="152" height="152" filterUnits="userSpaceOnUse" color-interpolation-filters="sRGB">
<feFlood flood-opacity="0" result="BackgroundImageFix"/>
<feColorMatrix in="SourceAlpha" type="matrix" values="0 0 0 0 0 0 0 0 0 0 0 0 0 0 0 0 0 0 127 0" result="hardAlpha"/>
<feOffset dx="2" dy="1"/>
<feGaussianBlur stdDeviation="12.5"/>
<feColorMatrix type="matrix" values="0 0 0 0 0 0 0 0 0 0 0 0 0 0 0 0 0 0 0.33 0"/>
<feBlend mode="normal" in2="BackgroundImageFix" result="effect1_dropShadow_204_411"/>
<feBlend mode="normal" in="SourceGraphic" in2="effect1_dropShadow_204_411" result="shape"/>
</filter>
<linearGradient id="paint0_linear_204_411" x1="136" y1="0" x2="136" y2="308" gradientUnits="userSpaceOnUse">
<stop stop-color="#FF7979"/>
<stop offset="1" stop-color="#E85555"/>
</linearGradient>
<linearGradient id="paint1_linear_204_411" x1="136" y1="0" x2="136" y2="308" gradientUnits="userSpaceOnUse">
<stop stop-color="#6ABDF8"/>
<stop offset="1" stop-color="#008BD6"/>
</linearGradient>
<linearGradient id="paint2_linear_204_411" x1="1.72772" y1="-5.12887" x2="69.5069" y2="174.758" gradientUnits="userSpaceOnUse">
<stop stop-color="white" stop-opacity="0"/>
<stop offset="1" stop-color="white"/>
</linearGradient>
<linearGradient id="paint3_linear_204_411" x1="-4.29868" y1="-7.87801" x2="38.1204" y2="104.989" gradientUnits="userSpaceOnUse">
<stop stop-color="white" stop-opacity="0"/>
<stop offset="1" stop-color="white"/>
</linearGradient>
<linearGradient id="paint4_linear_204_411" x1="221" y1="0" x2="221" y2="102" gradientUnits="userSpaceOnUse">
<stop stop-color="#009FE3"/>
<stop offset="1" stop-color="#0087C1"/>
</linearGradient>
</defs>
</svg>
