<svg width="272" height="308" viewBox="0 0 272 308" fill="none" xmlns="http://www.w3.org/2000/svg">
<mask id="mask0_204_431" style="mask-type:alpha" maskUnits="userSpaceOnUse" x="0" y="0" width="272" height="308">
<path d="M250 308H22C9.84974 308 0 298.15 0 286V22C0 9.84974 9.84974 0 22 0H170L272 102V286C272 298.15 262.15 308 250 308Z" fill="url(#paint0_linear_204_431)"/>
</mask>
<g mask="url(#mask0_204_431)">
<path d="M250 308H22C9.84974 308 0 298.15 0 286V22C0 9.84974 9.84974 0 22 0H170L272 102V286C272 298.15 262.15 308 250 308Z" fill="url(#paint1_linear_204_431)"/>
<g opacity="0.27" filter="url(#filter0_f_204_431)">
<rect x="48" y="149" width="178" height="84" fill="#0072A2" style="mix-blend-mode:darken"/>
</g>
<path d="M90.3818 202.62C86.0418 202.62 82.2391 201.669 78.9738 199.768C75.7085 197.867 73.1871 195.242 71.4098 191.894C69.6325 188.546 68.7025 184.702 68.6198 180.362C68.7025 176.022 69.6325 172.178 71.4098 168.83C73.1871 165.482 75.7085 162.857 78.9738 160.956C82.2391 159.055 86.0418 158.104 90.3818 158.104C94.7218 158.104 98.5038 159.055 101.728 160.956C104.993 162.857 107.514 165.503 109.292 168.892C111.11 172.24 112.061 176.063 112.144 180.362C112.061 184.661 111.11 188.505 109.292 191.894C107.514 195.242 104.993 197.867 101.728 199.768C98.5038 201.669 94.7218 202.62 90.3818 202.62ZM90.3818 197.35C93.6885 197.35 96.5611 196.606 98.9998 195.118C101.438 193.63 103.298 191.605 104.58 189.042C105.861 186.479 106.502 183.586 106.502 180.362C106.502 177.138 105.861 174.245 104.58 171.682C103.298 169.119 101.438 167.094 98.9998 165.606C96.5611 164.118 93.6885 163.374 90.3818 163.374C87.0338 163.374 84.1405 164.118 81.7018 165.606C79.3045 167.094 77.4651 169.119 76.1838 171.682C74.9025 174.245 74.2618 177.138 74.2618 180.362C74.2618 183.586 74.9025 186.479 76.1838 189.042C77.4651 191.605 79.3045 193.63 81.7018 195.118C84.1405 196.606 87.0338 197.35 90.3818 197.35ZM128.668 202C127.883 202 127.222 201.731 126.684 201.194C126.147 200.657 125.878 199.995 125.878 199.21V161.576C125.878 160.791 126.147 160.129 126.684 159.592C127.222 159.013 127.883 158.724 128.668 158.724H141.13C145.842 158.724 149.831 159.778 153.096 161.886C156.403 163.953 158.883 166.639 160.536 169.946C162.19 173.253 163.016 176.725 163.016 180.362C163.016 183.999 162.19 187.471 160.536 190.778C158.883 194.085 156.403 196.792 153.096 198.9C149.831 200.967 145.842 202 141.13 202H128.668ZM140.448 196.73C143.838 196.73 146.814 196.048 149.376 194.684C151.939 193.279 153.923 191.357 155.328 188.918C156.734 186.438 157.436 183.586 157.436 180.362C157.436 177.138 156.734 174.307 155.328 171.868C153.923 169.388 151.939 167.466 149.376 166.102C146.814 164.697 143.838 163.994 140.448 163.994H131.52V196.73H140.448ZM187.857 202.31C187.072 202.31 186.41 202.041 185.873 201.504C185.336 200.967 185.067 200.305 185.067 199.52V163.994H172.419C171.675 163.994 171.055 163.746 170.559 163.25C170.063 162.754 169.815 162.134 169.815 161.39C169.815 160.646 170.063 160.026 170.559 159.53C171.055 158.993 171.675 158.724 172.419 158.724H203.295C204.039 158.724 204.659 158.993 205.155 159.53C205.692 160.026 205.961 160.646 205.961 161.39C205.961 162.134 205.692 162.754 205.155 163.25C204.659 163.746 204.039 163.994 203.295 163.994H190.709V199.52C190.709 200.305 190.42 200.967 189.841 201.504C189.304 202.041 188.642 202.31 187.857 202.31Z" fill="white"/>
<path d="M78.9738 199.768L79.9802 198.04L78.9738 199.768ZM71.4098 191.894L69.6433 192.832L71.4098 191.894ZM68.6198 180.362L66.6202 180.324L66.6194 180.362L66.6202 180.4L68.6198 180.362ZM71.4098 168.83L73.1763 169.768L71.4098 168.83ZM78.9738 160.956L77.9674 159.228V159.228L78.9738 160.956ZM101.728 160.956L100.712 162.679L100.721 162.684L101.728 160.956ZM109.292 168.892L107.521 169.821L107.527 169.834L107.534 169.847L109.292 168.892ZM112.144 180.362L114.143 180.4L114.144 180.362L114.143 180.324L112.144 180.362ZM109.292 191.894L107.529 190.948L107.525 190.956L109.292 191.894ZM101.728 199.768L100.721 198.04L100.712 198.045L101.728 199.768ZM98.9998 195.118L97.9581 193.411H97.9581L98.9998 195.118ZM104.58 189.042L106.369 189.936V189.936L104.58 189.042ZM104.58 171.682L106.369 170.788V170.788L104.58 171.682ZM98.9998 165.606L97.9581 167.313L98.9998 165.606ZM81.7018 165.606L80.6601 163.899L80.6536 163.903L80.6471 163.907L81.7018 165.606ZM76.1838 171.682L74.395 170.788L76.1838 171.682ZM76.1838 189.042L74.395 189.936L76.1838 189.042ZM81.7018 195.118L80.6471 196.817L80.6536 196.821L80.6601 196.825L81.7018 195.118ZM90.3818 200.62C86.342 200.62 82.897 199.738 79.9802 198.04L77.9674 201.496C81.5813 203.601 85.7416 204.62 90.3818 204.62V200.62ZM79.9802 198.04C77.038 196.326 74.7795 193.976 73.1763 190.956L69.6433 192.832C71.5948 196.508 74.3789 199.407 77.9674 201.496L79.9802 198.04ZM73.1763 190.956C71.5663 187.923 70.697 184.396 70.6194 180.324L66.6202 180.4C66.7079 185.008 67.6986 189.169 69.6433 192.832L73.1763 190.956ZM70.6194 180.4C70.697 176.328 71.5663 172.801 73.1763 169.768L69.6433 167.892C67.6986 171.555 66.7079 175.716 66.6202 180.324L70.6194 180.4ZM73.1763 169.768C74.7795 166.748 77.038 164.398 79.9802 162.684L77.9674 159.228C74.3789 161.317 71.5948 164.216 69.6433 167.892L73.1763 169.768ZM79.9802 162.684C82.897 160.986 86.342 160.104 90.3818 160.104V156.104C85.7416 156.104 81.5813 157.123 77.9674 159.228L79.9802 162.684ZM90.3818 160.104C94.4222 160.104 97.8419 160.986 100.712 162.679L102.744 159.233C99.1658 157.123 95.0214 156.104 90.3818 156.104V160.104ZM100.721 162.684C103.657 164.394 105.916 166.76 107.521 169.821L111.063 167.963C109.113 164.245 106.329 161.321 102.734 159.228L100.721 162.684ZM107.534 169.847C109.181 172.879 110.067 176.381 110.144 180.4L114.143 180.324C114.055 175.746 113.04 171.601 111.049 167.937L107.534 169.847ZM110.144 180.324C110.067 184.343 109.181 187.87 107.529 190.948L111.054 192.84C113.04 189.139 114.055 184.978 114.143 180.4L110.144 180.324ZM107.525 190.956C105.922 193.976 103.664 196.326 100.721 198.04L102.734 201.496C106.323 199.407 109.107 196.508 111.058 192.832L107.525 190.956ZM100.712 198.045C97.8419 199.738 94.4222 200.62 90.3818 200.62V204.62C95.0214 204.62 99.1658 203.601 102.744 201.491L100.712 198.045ZM90.3818 199.35C93.9971 199.35 97.2424 198.533 100.042 196.825L97.9581 193.411C95.8799 194.679 93.3798 195.35 90.3818 195.35V199.35ZM100.042 196.825C102.802 195.141 104.92 192.834 106.369 189.936L102.791 188.148C101.677 190.376 100.075 192.119 97.9581 193.411L100.042 196.825ZM106.369 189.936C107.805 187.063 108.502 183.857 108.502 180.362H104.502C104.502 183.315 103.917 185.896 102.791 188.148L106.369 189.936ZM108.502 180.362C108.502 176.867 107.805 173.661 106.369 170.788L102.791 172.576C103.917 174.828 104.502 177.409 104.502 180.362H108.502ZM106.369 170.788C104.92 167.89 102.802 165.583 100.042 163.899L97.9581 167.313C100.075 168.605 101.677 170.348 102.791 172.576L106.369 170.788ZM100.042 163.899C97.2424 162.191 93.9971 161.374 90.3818 161.374V165.374C93.3798 165.374 95.8799 166.045 97.9581 167.313L100.042 163.899ZM90.3818 161.374C86.7303 161.374 83.463 162.188 80.6601 163.899L82.7435 167.313C84.8179 166.048 87.3373 165.374 90.3818 165.374V161.374ZM80.6471 163.907C77.9302 165.593 75.8391 167.899 74.395 170.788L77.9727 172.576C79.0912 170.339 80.6788 168.595 82.7565 167.305L80.6471 163.907ZM74.395 170.788C72.9582 173.661 72.2618 176.867 72.2618 180.362H76.2618C76.2618 177.409 76.8467 174.828 77.9727 172.576L74.395 170.788ZM72.2618 180.362C72.2618 183.857 72.9582 187.063 74.395 189.936L77.9727 188.148C76.8467 185.896 76.2618 183.315 76.2618 180.362H72.2618ZM74.395 189.936C75.8391 192.825 77.9302 195.131 80.6471 196.817L82.7565 193.419C80.6788 192.129 79.0912 190.385 77.9727 188.148L74.395 189.936ZM80.6601 196.825C83.463 198.536 86.7303 199.35 90.3818 199.35V195.35C87.3373 195.35 84.8179 194.676 82.7435 193.411L80.6601 196.825ZM126.684 201.194L128.098 199.78L126.684 201.194ZM126.684 159.592L128.098 161.006L128.125 160.98L128.15 160.953L126.684 159.592ZM153.096 161.886L152.012 163.566L152.024 163.574L152.036 163.582L153.096 161.886ZM160.536 169.946L158.747 170.84L160.536 169.946ZM160.536 190.778L158.747 189.884L160.536 190.778ZM153.096 198.9L154.166 200.59L154.171 200.586L153.096 198.9ZM149.376 194.684L150.316 196.449L150.327 196.444L150.338 196.438L149.376 194.684ZM155.328 188.918L157.061 189.917L157.065 189.91L157.068 189.904L155.328 188.918ZM155.328 171.868L153.588 172.854L153.592 172.86L153.595 172.867L155.328 171.868ZM149.376 166.102L148.415 167.856L148.426 167.862L148.437 167.867L149.376 166.102ZM131.52 163.994V161.994H129.52V163.994H131.52ZM131.52 196.73H129.52V198.73H131.52V196.73ZM128.668 200C128.394 200 128.247 199.928 128.098 199.78L125.27 202.608C126.196 203.534 127.372 204 128.668 204V200ZM128.098 199.78C127.95 199.631 127.878 199.485 127.878 199.21H123.878C123.878 200.506 124.344 201.682 125.27 202.608L128.098 199.78ZM127.878 199.21V161.576H123.878V199.21H127.878ZM127.878 161.576C127.878 161.301 127.95 161.155 128.098 161.006L125.27 158.178C124.344 159.104 123.878 160.28 123.878 161.576H127.878ZM128.15 160.953C128.311 160.779 128.443 160.724 128.668 160.724V156.724C127.323 156.724 126.132 157.247 125.219 158.231L128.15 160.953ZM128.668 160.724H141.13V156.724H128.668V160.724ZM141.13 160.724C145.54 160.724 149.132 161.708 152.012 163.566L154.181 160.206C150.529 157.848 146.145 156.724 141.13 156.724V160.724ZM152.036 163.582C155.049 165.465 157.268 167.881 158.747 170.84L162.325 169.052C160.498 165.397 157.757 162.441 154.156 160.19L152.036 163.582ZM158.747 170.84C160.264 173.874 161.016 177.04 161.016 180.362H165.016C165.016 176.409 164.115 172.631 162.325 169.052L158.747 170.84ZM161.016 180.362C161.016 183.684 160.264 186.85 158.747 189.884L162.325 191.672C164.115 188.093 165.016 184.315 165.016 180.362H161.016ZM158.747 189.884C157.266 192.847 155.042 195.288 152.021 197.214L154.171 200.586C157.764 198.296 160.5 195.323 162.325 191.672L158.747 189.884ZM152.027 197.21C149.145 199.034 145.547 200 141.13 200V204C146.138 204 150.517 202.9 154.166 200.59L152.027 197.21ZM141.13 200H128.668V204H141.13V200ZM140.448 198.73C144.11 198.73 147.419 197.991 150.316 196.449L148.437 192.919C146.208 194.105 143.565 194.73 140.448 194.73V198.73ZM150.338 196.438C153.209 194.863 155.466 192.685 157.061 189.917L153.595 187.919C152.38 190.028 150.669 191.694 148.415 192.93L150.338 196.438ZM157.068 189.904C158.665 187.086 159.436 183.886 159.436 180.362H155.436C155.436 183.286 154.802 185.79 153.588 187.932L157.068 189.904ZM159.436 180.362C159.436 176.839 158.666 173.654 157.061 170.869L153.595 172.867C154.802 174.96 155.436 177.437 155.436 180.362H159.436ZM157.068 170.882C155.472 168.065 153.207 165.876 150.316 164.337L148.437 167.867C150.67 169.056 152.374 170.711 153.588 172.854L157.068 170.882ZM150.338 164.348C147.436 162.757 144.12 161.994 140.448 161.994V165.994C143.555 165.994 146.191 166.636 148.415 167.856L150.338 164.348ZM140.448 161.994H131.52V165.994H140.448V161.994ZM129.52 163.994V196.73H133.52V163.994H129.52ZM131.52 198.73H140.448V194.73H131.52V198.73ZM185.873 201.504L184.459 202.918L185.873 201.504ZM185.067 163.994H187.067V161.994H185.067V163.994ZM170.559 163.25L169.145 164.664V164.664L170.559 163.25ZM170.559 159.53L171.973 160.944L172.001 160.916L172.029 160.887L170.559 159.53ZM205.155 159.53L203.685 160.887L203.74 160.945L203.798 161L205.155 159.53ZM205.155 163.25L203.798 161.78L203.769 161.808L203.741 161.836L205.155 163.25ZM190.709 163.994V161.994H188.709V163.994H190.709ZM189.841 201.504L188.48 200.038L188.453 200.064L188.427 200.09L189.841 201.504ZM187.857 200.31C187.582 200.31 187.436 200.238 187.287 200.09L184.459 202.918C185.385 203.844 186.561 204.31 187.857 204.31V200.31ZM187.287 200.09C187.139 199.941 187.067 199.795 187.067 199.52H183.067C183.067 200.816 183.533 201.992 184.459 202.918L187.287 200.09ZM187.067 199.52V163.994H183.067V199.52H187.067ZM185.067 161.994H172.419V165.994H185.067V161.994ZM172.419 161.994C172.17 161.994 172.07 161.932 171.973 161.836L169.145 164.664C170.04 165.56 171.18 165.994 172.419 165.994V161.994ZM171.973 161.836C171.877 161.739 171.815 161.639 171.815 161.39H167.815C167.815 162.629 168.249 163.769 169.145 164.664L171.973 161.836ZM171.815 161.39C171.815 161.141 171.877 161.041 171.973 160.944L169.145 158.116C168.249 159.011 167.815 160.151 167.815 161.39H171.815ZM172.029 160.887C172.139 160.767 172.222 160.724 172.419 160.724V156.724C171.128 156.724 169.971 157.218 169.089 158.173L172.029 160.887ZM172.419 160.724H203.295V156.724H172.419V160.724ZM203.295 160.724C203.492 160.724 203.575 160.767 203.685 160.887L206.625 158.173C205.743 157.218 204.586 156.724 203.295 156.724V160.724ZM203.798 161C203.917 161.11 203.961 161.193 203.961 161.39H207.961C207.961 160.099 207.467 158.942 206.512 158.06L203.798 161ZM203.961 161.39C203.961 161.587 203.917 161.67 203.798 161.78L206.512 164.72C207.467 163.838 207.961 162.681 207.961 161.39H203.961ZM203.741 161.836C203.644 161.932 203.544 161.994 203.295 161.994V165.994C204.534 165.994 205.674 165.56 206.569 164.664L203.741 161.836ZM203.295 161.994H190.709V165.994H203.295V161.994ZM188.709 163.994V199.52H192.709V163.994H188.709ZM188.709 199.52C188.709 199.746 188.654 199.877 188.48 200.038L191.202 202.97C192.185 202.056 192.709 200.865 192.709 199.52H188.709ZM188.427 200.09C188.278 200.238 188.132 200.31 187.857 200.31V204.31C189.153 204.31 190.329 203.844 191.255 202.918L188.427 200.09Z" fill="white"/>
<ellipse opacity="0.05" cx="-14.5" cy="-12.5" rx="223.5" ry="214.5" fill="url(#paint2_linear_204_431)"/>
<ellipse opacity="0.07" cx="-14.5" cy="-12.5" rx="140.5" ry="134.5" fill="url(#paint3_linear_204_431)"/>
<g filter="url(#filter1_d_204_431)">
<path d="M272 102H192C179.85 102 170 92.1503 170 80V0L272 102Z" fill="url(#paint4_linear_204_431)"/>
</g>
</g>
<defs>
<filter id="filter0_f_204_431" x="9" y="110" width="256" height="162" filterUnits="userSpaceOnUse" color-interpolation-filters="sRGB">
<feFlood flood-opacity="0" result="BackgroundImageFix"/>
<feBlend mode="normal" in="SourceGraphic" in2="BackgroundImageFix" result="shape"/>
<feGaussianBlur stdDeviation="19.5" result="effect1_foregroundBlur_204_431"/>
</filter>
<filter id="filter1_d_204_431" x="147" y="-24" width="152" height="152" filterUnits="userSpaceOnUse" color-interpolation-filters="sRGB">
<feFlood flood-opacity="0" result="BackgroundImageFix"/>
<feColorMatrix in="SourceAlpha" type="matrix" values="0 0 0 0 0 0 0 0 0 0 0 0 0 0 0 0 0 0 127 0" result="hardAlpha"/>
<feOffset dx="2" dy="1"/>
<feGaussianBlur stdDeviation="12.5"/>
<feColorMatrix type="matrix" values="0 0 0 0 0 0 0 0 0 0 0 0 0 0 0 0 0 0 0.33 0"/>
<feBlend mode="normal" in2="BackgroundImageFix" result="effect1_dropShadow_204_431"/>
<feBlend mode="normal" in="SourceGraphic" in2="effect1_dropShadow_204_431" result="shape"/>
</filter>
<linearGradient id="paint0_linear_204_431" x1="136" y1="0" x2="136" y2="308" gradientUnits="userSpaceOnUse">
<stop stop-color="#FF7979"/>
<stop offset="1" stop-color="#E85555"/>
</linearGradient>
<linearGradient id="paint1_linear_204_431" x1="136" y1="0" x2="136" y2="308" gradientUnits="userSpaceOnUse">
<stop stop-color="#6ABDF8"/>
<stop offset="1" stop-color="#008BD6"/>
</linearGradient>
<linearGradient id="paint2_linear_204_431" x1="1.72772" y1="-5.12887" x2="69.5069" y2="174.758" gradientUnits="userSpaceOnUse">
<stop stop-color="white" stop-opacity="0"/>
<stop offset="1" stop-color="white"/>
</linearGradient>
<linearGradient id="paint3_linear_204_431" x1="-4.29868" y1="-7.87801" x2="38.1204" y2="104.989" gradientUnits="userSpaceOnUse">
<stop stop-color="white" stop-opacity="0"/>
<stop offset="1" stop-color="white"/>
</linearGradient>
<linearGradient id="paint4_linear_204_431" x1="221" y1="0" x2="221" y2="102" gradientUnits="userSpaceOnUse">
<stop stop-color="#009FE3"/>
<stop offset="1" stop-color="#0087C1"/>
</linearGradient>
</defs>
</svg>
