<svg width="272" height="308" viewBox="0 0 272 308" fill="none" xmlns="http://www.w3.org/2000/svg">
<mask id="mask0_304_119" style="mask-type:alpha" maskUnits="userSpaceOnUse" x="0" y="0" width="272" height="308">
<path d="M250 308H22C9.84974 308 0 298.15 0 286V22C0 9.84974 9.84974 0 22 0H170L272 102V286C272 298.15 262.15 308 250 308Z" fill="url(#paint0_linear_304_119)"/>
</mask>
<g mask="url(#mask0_304_119)">
<path d="M250 308H22C9.84974 308 0 298.15 0 286V22C0 9.84974 9.84974 0 22 0H170L272 102V286C272 298.15 262.15 308 250 308Z" fill="url(#paint1_linear_304_119)"/>
<g filter="url(#filter0_f_304_119)">
<rect x="48" y="149" width="178" height="84" fill="#0B07C6" fill-opacity="0.16" style="mix-blend-mode:darken"/>
</g>
<mask id="path-4-outside-1_304_119" maskUnits="userSpaceOnUse" x="50" y="156" width="149" height="49" fill="black">
<rect fill="white" x="50" y="156" width="149" height="49"/>
<path d="M74.251 202.62C69.911 202.62 66.1083 201.669 62.843 199.768C59.5776 197.867 57.0563 195.242 55.2789 191.894C53.5016 188.546 52.5716 184.702 52.4889 180.362C52.5716 176.022 53.5016 172.178 55.2789 168.83C57.0563 165.482 59.5776 162.857 62.843 160.956C66.1083 159.055 69.911 158.104 74.251 158.104C78.591 158.104 82.373 159.055 85.597 160.956C88.8623 162.857 91.3836 165.503 93.161 168.892C94.9796 172.24 95.9303 176.063 96.013 180.362C95.9303 184.661 94.9796 188.505 93.161 191.894C91.3836 195.242 88.8623 197.867 85.597 199.768C82.373 201.669 78.591 202.62 74.251 202.62ZM74.251 197.35C77.5576 197.35 80.4303 196.606 82.869 195.118C85.3076 193.63 87.1676 191.605 88.449 189.042C89.7303 186.479 90.3709 183.586 90.3709 180.362C90.3709 177.138 89.7303 174.245 88.449 171.682C87.1676 169.119 85.3076 167.094 82.869 165.606C80.4303 164.118 77.5576 163.374 74.251 163.374C70.903 163.374 68.0096 164.118 65.5709 165.606C63.1736 167.094 61.3343 169.119 60.0529 171.682C58.7716 174.245 58.1309 177.138 58.1309 180.362C58.1309 183.586 58.7716 186.479 60.0529 189.042C61.3343 191.605 63.1736 193.63 65.5709 195.118C68.0096 196.606 70.903 197.35 74.251 197.35ZM128.905 202.62C124.648 202.62 120.866 201.69 117.559 199.83C114.253 197.929 111.69 195.304 109.871 191.956C108.053 188.567 107.143 184.723 107.143 180.424C107.143 176.043 108.094 172.157 109.995 168.768C111.897 165.379 114.48 162.754 117.745 160.894C121.052 159.034 124.71 158.104 128.719 158.104C131.943 158.104 134.754 158.497 137.151 159.282C139.59 160.067 141.925 161.163 144.157 162.568C144.488 162.733 144.777 163.023 145.025 163.436C145.273 163.849 145.397 164.304 145.397 164.8C145.397 165.503 145.149 166.102 144.653 166.598C144.199 167.094 143.579 167.342 142.793 167.342C142.339 167.342 141.905 167.239 141.491 167.032C139.549 165.875 137.606 165.007 135.663 164.428C133.721 163.849 131.613 163.56 129.339 163.56C126.198 163.56 123.367 164.221 120.845 165.544C118.324 166.867 116.34 168.809 114.893 171.372C113.488 173.893 112.785 176.911 112.785 180.424C112.785 183.648 113.447 186.541 114.769 189.104C116.133 191.625 118.076 193.63 120.597 195.118C123.16 196.565 126.177 197.288 129.649 197.288C133.535 197.288 137.151 196.379 140.499 194.56V183.338H130.269C129.567 183.338 128.967 183.09 128.471 182.594C127.975 182.098 127.727 181.499 127.727 180.796C127.727 180.093 127.975 179.494 128.471 178.998C128.967 178.502 129.567 178.254 130.269 178.254H142.483C143.31 178.254 144.013 178.543 144.591 179.122C145.17 179.701 145.459 180.403 145.459 181.23V195.304C145.459 196.172 145.232 196.957 144.777 197.66C144.364 198.321 143.806 198.817 143.103 199.148C138.474 201.463 133.741 202.62 128.905 202.62ZM180.169 202.62C175.912 202.62 172.13 201.69 168.823 199.83C165.517 197.929 162.954 195.304 161.135 191.956C159.317 188.567 158.407 184.723 158.407 180.424C158.407 176.043 159.358 172.157 161.259 168.768C163.161 165.379 165.744 162.754 169.009 160.894C172.316 159.034 175.974 158.104 179.983 158.104C183.207 158.104 186.018 158.497 188.415 159.282C190.854 160.067 193.189 161.163 195.421 162.568C195.752 162.733 196.041 163.023 196.289 163.436C196.537 163.849 196.661 164.304 196.661 164.8C196.661 165.503 196.413 166.102 195.917 166.598C195.463 167.094 194.843 167.342 194.057 167.342C193.603 167.342 193.169 167.239 192.755 167.032C190.813 165.875 188.87 165.007 186.927 164.428C184.985 163.849 182.877 163.56 180.603 163.56C177.462 163.56 174.631 164.221 172.109 165.544C169.588 166.867 167.604 168.809 166.157 171.372C164.752 173.893 164.049 176.911 164.049 180.424C164.049 183.648 164.711 186.541 166.033 189.104C167.397 191.625 169.34 193.63 171.861 195.118C174.424 196.565 177.441 197.288 180.913 197.288C184.799 197.288 188.415 196.379 191.763 194.56V183.338H181.533C180.831 183.338 180.231 183.09 179.735 182.594C179.239 182.098 178.991 181.499 178.991 180.796C178.991 180.093 179.239 179.494 179.735 178.998C180.231 178.502 180.831 178.254 181.533 178.254H193.747C194.574 178.254 195.277 178.543 195.855 179.122C196.434 179.701 196.723 180.403 196.723 181.23V195.304C196.723 196.172 196.496 196.957 196.041 197.66C195.628 198.321 195.07 198.817 194.367 199.148C189.738 201.463 185.005 202.62 180.169 202.62Z"/>
</mask>
<path d="M74.251 202.62C69.911 202.62 66.1083 201.669 62.843 199.768C59.5776 197.867 57.0563 195.242 55.2789 191.894C53.5016 188.546 52.5716 184.702 52.4889 180.362C52.5716 176.022 53.5016 172.178 55.2789 168.83C57.0563 165.482 59.5776 162.857 62.843 160.956C66.1083 159.055 69.911 158.104 74.251 158.104C78.591 158.104 82.373 159.055 85.597 160.956C88.8623 162.857 91.3836 165.503 93.161 168.892C94.9796 172.24 95.9303 176.063 96.013 180.362C95.9303 184.661 94.9796 188.505 93.161 191.894C91.3836 195.242 88.8623 197.867 85.597 199.768C82.373 201.669 78.591 202.62 74.251 202.62ZM74.251 197.35C77.5576 197.35 80.4303 196.606 82.869 195.118C85.3076 193.63 87.1676 191.605 88.449 189.042C89.7303 186.479 90.3709 183.586 90.3709 180.362C90.3709 177.138 89.7303 174.245 88.449 171.682C87.1676 169.119 85.3076 167.094 82.869 165.606C80.4303 164.118 77.5576 163.374 74.251 163.374C70.903 163.374 68.0096 164.118 65.5709 165.606C63.1736 167.094 61.3343 169.119 60.0529 171.682C58.7716 174.245 58.1309 177.138 58.1309 180.362C58.1309 183.586 58.7716 186.479 60.0529 189.042C61.3343 191.605 63.1736 193.63 65.5709 195.118C68.0096 196.606 70.903 197.35 74.251 197.35ZM128.905 202.62C124.648 202.62 120.866 201.69 117.559 199.83C114.253 197.929 111.69 195.304 109.871 191.956C108.053 188.567 107.143 184.723 107.143 180.424C107.143 176.043 108.094 172.157 109.995 168.768C111.897 165.379 114.48 162.754 117.745 160.894C121.052 159.034 124.71 158.104 128.719 158.104C131.943 158.104 134.754 158.497 137.151 159.282C139.59 160.067 141.925 161.163 144.157 162.568C144.488 162.733 144.777 163.023 145.025 163.436C145.273 163.849 145.397 164.304 145.397 164.8C145.397 165.503 145.149 166.102 144.653 166.598C144.199 167.094 143.579 167.342 142.793 167.342C142.339 167.342 141.905 167.239 141.491 167.032C139.549 165.875 137.606 165.007 135.663 164.428C133.721 163.849 131.613 163.56 129.339 163.56C126.198 163.56 123.367 164.221 120.845 165.544C118.324 166.867 116.34 168.809 114.893 171.372C113.488 173.893 112.785 176.911 112.785 180.424C112.785 183.648 113.447 186.541 114.769 189.104C116.133 191.625 118.076 193.63 120.597 195.118C123.16 196.565 126.177 197.288 129.649 197.288C133.535 197.288 137.151 196.379 140.499 194.56V183.338H130.269C129.567 183.338 128.967 183.09 128.471 182.594C127.975 182.098 127.727 181.499 127.727 180.796C127.727 180.093 127.975 179.494 128.471 178.998C128.967 178.502 129.567 178.254 130.269 178.254H142.483C143.31 178.254 144.013 178.543 144.591 179.122C145.17 179.701 145.459 180.403 145.459 181.23V195.304C145.459 196.172 145.232 196.957 144.777 197.66C144.364 198.321 143.806 198.817 143.103 199.148C138.474 201.463 133.741 202.62 128.905 202.62ZM180.169 202.62C175.912 202.62 172.13 201.69 168.823 199.83C165.517 197.929 162.954 195.304 161.135 191.956C159.317 188.567 158.407 184.723 158.407 180.424C158.407 176.043 159.358 172.157 161.259 168.768C163.161 165.379 165.744 162.754 169.009 160.894C172.316 159.034 175.974 158.104 179.983 158.104C183.207 158.104 186.018 158.497 188.415 159.282C190.854 160.067 193.189 161.163 195.421 162.568C195.752 162.733 196.041 163.023 196.289 163.436C196.537 163.849 196.661 164.304 196.661 164.8C196.661 165.503 196.413 166.102 195.917 166.598C195.463 167.094 194.843 167.342 194.057 167.342C193.603 167.342 193.169 167.239 192.755 167.032C190.813 165.875 188.87 165.007 186.927 164.428C184.985 163.849 182.877 163.56 180.603 163.56C177.462 163.56 174.631 164.221 172.109 165.544C169.588 166.867 167.604 168.809 166.157 171.372C164.752 173.893 164.049 176.911 164.049 180.424C164.049 183.648 164.711 186.541 166.033 189.104C167.397 191.625 169.34 193.63 171.861 195.118C174.424 196.565 177.441 197.288 180.913 197.288C184.799 197.288 188.415 196.379 191.763 194.56V183.338H181.533C180.831 183.338 180.231 183.09 179.735 182.594C179.239 182.098 178.991 181.499 178.991 180.796C178.991 180.093 179.239 179.494 179.735 178.998C180.231 178.502 180.831 178.254 181.533 178.254H193.747C194.574 178.254 195.277 178.543 195.855 179.122C196.434 179.701 196.723 180.403 196.723 181.23V195.304C196.723 196.172 196.496 196.957 196.041 197.66C195.628 198.321 195.07 198.817 194.367 199.148C189.738 201.463 185.005 202.62 180.169 202.62Z" fill="white"/>
<path d="M62.8429 199.768L63.8493 198.04L62.8429 199.768ZM55.2789 191.894L53.5124 192.832L55.2789 191.894ZM52.4889 180.362L50.4893 180.324L50.4886 180.362L50.4893 180.4L52.4889 180.362ZM55.2789 168.83L57.0455 169.768L55.2789 168.83ZM62.8429 160.956L61.8366 159.228L61.8366 159.228L62.8429 160.956ZM85.597 160.956L84.581 162.679L84.5906 162.684L85.597 160.956ZM93.1609 168.892L91.3897 169.821L91.3965 169.834L91.4035 169.847L93.1609 168.892ZM96.0129 180.362L98.0126 180.4L98.0133 180.362L98.0126 180.324L96.0129 180.362ZM93.1609 191.894L91.3986 190.948L91.3944 190.956L93.1609 191.894ZM85.597 199.768L84.5906 198.04L84.581 198.045L85.597 199.768ZM82.8689 195.118L81.8272 193.411H81.8272L82.8689 195.118ZM88.449 189.042L90.2378 189.936V189.936L88.449 189.042ZM88.449 171.682L90.2378 170.788V170.788L88.449 171.682ZM82.8689 165.606L81.8272 167.313L82.8689 165.606ZM65.5709 165.606L64.5292 163.899L64.5227 163.903L64.5162 163.907L65.5709 165.606ZM60.0529 171.682L58.2641 170.788L60.0529 171.682ZM60.0529 189.042L58.2641 189.936L60.0529 189.042ZM65.5709 195.118L64.5162 196.817L64.5227 196.821L64.5292 196.825L65.5709 195.118ZM74.251 200.62C70.2112 200.62 66.7661 199.738 63.8493 198.04L61.8366 201.496C65.4505 203.601 69.6107 204.62 74.251 204.62V200.62ZM63.8493 198.04C60.9072 196.326 58.6486 193.976 57.0455 190.956L53.5124 192.832C55.4639 196.508 58.2481 199.407 61.8366 201.496L63.8493 198.04ZM57.0455 190.956C55.4355 187.923 54.5661 184.396 54.4886 180.324L50.4893 180.4C50.5771 185.008 51.5677 189.169 53.5124 192.832L57.0455 190.956ZM54.4886 180.4C54.5661 176.328 55.4355 172.801 57.0455 169.768L53.5124 167.892C51.5677 171.555 50.5771 175.716 50.4893 180.324L54.4886 180.4ZM57.0455 169.768C58.6486 166.748 60.9072 164.398 63.8493 162.684L61.8366 159.228C58.2481 161.317 55.4639 164.216 53.5124 167.892L57.0455 169.768ZM63.8493 162.684C66.7661 160.986 70.2112 160.104 74.251 160.104V156.104C69.6107 156.104 65.4505 157.123 61.8366 159.228L63.8493 162.684ZM74.251 160.104C78.2914 160.104 81.711 160.986 84.581 162.679L86.6129 159.233C83.0349 157.123 78.8905 156.104 74.251 156.104V160.104ZM84.5906 162.684C87.5264 164.394 89.7847 166.76 91.3897 169.821L94.9322 167.963C92.9825 164.245 90.1981 161.321 86.6033 159.228L84.5906 162.684ZM91.4035 169.847C93.0505 172.879 93.936 176.381 94.0133 180.4L98.0126 180.324C97.9246 175.746 96.9087 171.601 94.9184 167.937L91.4035 169.847ZM94.0133 180.324C93.936 184.343 93.0505 187.87 91.3986 190.948L94.9233 192.84C96.9087 189.139 97.9245 184.978 98.0126 180.4L94.0133 180.324ZM91.3944 190.956C89.7913 193.976 87.5327 196.326 84.5906 198.04L86.6033 201.496C90.1918 199.407 92.976 196.508 94.9275 192.832L91.3944 190.956ZM84.581 198.045C81.711 199.738 78.2914 200.62 74.251 200.62V204.62C78.8905 204.62 83.0349 203.601 86.6129 201.491L84.581 198.045ZM74.251 199.35C77.8663 199.35 81.1115 198.533 83.9107 196.825L81.8272 193.411C79.749 194.679 77.2489 195.35 74.251 195.35V199.35ZM83.9107 196.825C86.6707 195.141 88.7892 192.834 90.2378 189.936L86.6601 188.148C85.5461 190.376 83.9445 192.119 81.8272 193.411L83.9107 196.825ZM90.2378 189.936C91.6745 187.063 92.3709 183.857 92.3709 180.362H88.3709C88.3709 183.315 87.786 185.896 86.6601 188.148L90.2378 189.936ZM92.3709 180.362C92.3709 176.867 91.6745 173.661 90.2378 170.788L86.6601 172.576C87.786 174.828 88.3709 177.409 88.3709 180.362H92.3709ZM90.2378 170.788C88.7892 167.89 86.6707 165.583 83.9107 163.899L81.8272 167.313C83.9445 168.605 85.5461 170.348 86.6601 172.576L90.2378 170.788ZM83.9107 163.899C81.1115 162.191 77.8663 161.374 74.251 161.374V165.374C77.2489 165.374 79.749 166.045 81.8272 167.313L83.9107 163.899ZM74.251 161.374C70.5994 161.374 67.3321 162.188 64.5292 163.899L66.6127 167.313C68.6871 166.048 71.2065 165.374 74.251 165.374V161.374ZM64.5162 163.907C61.7993 165.593 59.7083 167.899 58.2641 170.788L61.8418 172.576C62.9603 170.339 64.5479 168.595 66.6257 167.305L64.5162 163.907ZM58.2641 170.788C56.8274 173.661 56.131 176.867 56.131 180.362H60.131C60.131 177.409 60.7159 174.828 61.8418 172.576L58.2641 170.788ZM56.131 180.362C56.131 183.857 56.8274 187.063 58.2641 189.936L61.8418 188.148C60.7159 185.896 60.131 183.315 60.131 180.362H56.131ZM58.2641 189.936C59.7083 192.825 61.7993 195.131 64.5162 196.817L66.6257 193.419C64.5479 192.129 62.9603 190.385 61.8418 188.148L58.2641 189.936ZM64.5292 196.825C67.3321 198.536 70.5994 199.35 74.251 199.35V195.35C71.2065 195.35 68.6871 194.676 66.6127 193.411L64.5292 196.825ZM117.559 199.83L116.562 201.564L116.571 201.569L116.579 201.573L117.559 199.83ZM109.871 191.956L108.109 192.902L108.114 192.911L109.871 191.956ZM109.995 168.768L111.74 169.747V169.747L109.995 168.768ZM117.745 160.894L116.765 159.151L116.755 159.156L117.745 160.894ZM137.151 159.282L136.529 161.183L136.538 161.186L137.151 159.282ZM144.157 162.568L143.092 164.26L143.175 164.313L143.263 164.357L144.157 162.568ZM145.025 163.436L143.31 164.465V164.465L145.025 163.436ZM144.653 166.598L143.239 165.184L143.208 165.215L143.179 165.247L144.653 166.598ZM141.491 167.032L140.468 168.75L140.531 168.788L140.597 168.821L141.491 167.032ZM135.663 164.428L136.234 162.511L135.663 164.428ZM120.845 165.544L121.774 167.315V167.315L120.845 165.544ZM114.893 171.372L113.152 170.389L113.146 170.398L114.893 171.372ZM114.769 189.104L112.992 190.021L113.001 190.039L113.01 190.056L114.769 189.104ZM120.597 195.118L119.581 196.84L119.597 196.85L119.614 196.86L120.597 195.118ZM140.499 194.56L141.454 196.317L142.499 195.75V194.56H140.499ZM140.499 183.338H142.499V181.338H140.499V183.338ZM144.777 197.66L143.098 196.573L143.09 196.587L143.081 196.6L144.777 197.66ZM143.103 199.148L142.252 197.338L142.23 197.348L142.209 197.359L143.103 199.148ZM128.905 200.62C124.949 200.62 121.512 199.759 118.54 198.087L116.579 201.573C120.22 203.621 124.347 204.62 128.905 204.62V200.62ZM118.556 198.096C115.57 196.379 113.271 194.024 111.629 191.001L108.114 192.911C110.109 196.584 112.935 199.478 116.562 201.564L118.556 198.096ZM111.634 191.01C109.989 187.945 109.143 184.432 109.143 180.424H105.143C105.143 185.013 106.117 189.189 108.109 192.902L111.634 191.01ZM109.143 180.424C109.143 176.341 110.026 172.8 111.74 169.747L108.251 167.789C106.162 171.514 105.143 175.744 105.143 180.424H109.143ZM111.74 169.747C113.47 166.663 115.797 164.306 118.735 162.632L116.755 159.156C113.163 161.202 110.324 164.095 108.251 167.789L111.74 169.747ZM118.726 162.637C121.716 160.955 125.033 160.104 128.719 160.104V156.104C124.387 156.104 120.388 157.113 116.765 159.151L118.726 162.637ZM128.719 160.104C131.788 160.104 134.379 160.478 136.529 161.183L137.774 157.381C135.129 156.515 132.099 156.104 128.719 156.104V160.104ZM136.538 161.186C138.813 161.918 140.997 162.942 143.092 164.26L145.223 160.876C142.854 159.384 140.367 158.216 137.764 157.378L136.538 161.186ZM143.263 164.357C143.217 164.334 143.199 164.314 143.208 164.323C143.219 164.334 143.256 164.374 143.31 164.465L146.74 162.407C146.355 161.765 145.812 161.159 145.052 160.779L143.263 164.357ZM143.31 164.465C143.366 164.558 143.397 164.655 143.397 164.8H147.397C147.397 163.953 147.18 163.14 146.74 162.407L143.31 164.465ZM143.397 164.8C143.397 164.973 143.359 165.064 143.239 165.184L146.068 168.012C146.939 167.14 147.397 166.032 147.397 164.8H143.397ZM143.179 165.247C143.153 165.275 143.134 165.287 143.105 165.299C143.069 165.313 142.976 165.342 142.793 165.342V169.342C144.037 169.342 145.23 168.929 146.128 167.949L143.179 165.247ZM142.793 165.342C142.654 165.342 142.526 165.313 142.386 165.243L140.597 168.821C141.283 169.164 142.023 169.342 142.793 169.342V165.342ZM142.515 165.314C140.446 164.081 138.353 163.142 136.234 162.511L135.092 166.345C136.86 166.871 138.651 167.668 140.468 168.75L142.515 165.314ZM136.234 162.511C134.085 161.871 131.783 161.56 129.339 161.56V165.56C131.443 165.56 133.356 165.828 135.092 166.345L136.234 162.511ZM129.339 161.56C125.908 161.56 122.753 162.285 119.916 163.773L121.774 167.315C123.981 166.158 126.488 165.56 129.339 165.56V161.56ZM119.916 163.773C117.042 165.281 114.781 167.503 113.152 170.389L116.635 172.355C117.899 170.116 119.606 168.453 121.774 167.315L119.916 163.773ZM113.146 170.398C111.543 173.276 110.785 176.643 110.785 180.424H114.785C114.785 177.178 115.433 174.511 116.64 172.346L113.146 170.398ZM110.785 180.424C110.785 183.929 111.507 187.143 112.992 190.021L116.547 188.187C115.387 185.94 114.785 183.367 114.785 180.424H110.785ZM113.01 190.056C114.551 192.904 116.754 195.172 119.581 196.84L121.614 193.396C119.399 192.088 117.716 190.347 116.528 188.152L113.01 190.056ZM119.614 196.86C122.527 198.504 125.895 199.288 129.649 199.288V195.288C126.46 195.288 123.793 194.625 121.581 193.376L119.614 196.86ZM129.649 199.288C133.861 199.288 137.807 198.299 141.454 196.317L139.545 192.803C136.496 194.459 133.208 195.288 129.649 195.288V199.288ZM142.499 194.56V183.338H138.499V194.56H142.499ZM140.499 181.338H130.269V185.338H140.499V181.338ZM130.269 181.338C130.096 181.338 130.006 181.3 129.886 181.18L127.057 184.008C127.929 184.88 129.037 185.338 130.269 185.338V181.338ZM129.886 181.18C129.765 181.06 129.727 180.969 129.727 180.796H125.727C125.727 182.028 126.185 183.136 127.057 184.008L129.886 181.18ZM129.727 180.796C129.727 180.623 129.765 180.532 129.886 180.412L127.057 177.584C126.185 178.456 125.727 179.564 125.727 180.796H129.727ZM129.886 180.412C130.006 180.292 130.096 180.254 130.269 180.254V176.254C129.037 176.254 127.929 176.712 127.057 177.584L129.886 180.412ZM130.269 180.254H142.483V176.254H130.269V180.254ZM142.483 180.254C142.786 180.254 142.978 180.337 143.177 180.536L146.006 177.708C145.048 176.75 143.834 176.254 142.483 176.254V180.254ZM143.177 180.536C143.377 180.736 143.459 180.928 143.459 181.23H147.459C147.459 179.879 146.964 178.666 146.006 177.708L143.177 180.536ZM143.459 181.23V195.304H147.459V181.23H143.459ZM143.459 195.304C143.459 195.802 143.335 196.207 143.098 196.573L146.457 198.747C147.129 197.708 147.459 196.542 147.459 195.304H143.459ZM143.081 196.6C142.871 196.937 142.605 197.172 142.252 197.338L143.955 200.958C145.007 200.463 145.857 199.706 146.473 198.72L143.081 196.6ZM142.209 197.359C137.837 199.545 133.409 200.62 128.905 200.62V204.62C134.073 204.62 139.111 203.38 143.998 200.937L142.209 197.359ZM168.823 199.83L167.826 201.564L167.834 201.569L167.843 201.573L168.823 199.83ZM161.135 191.956L159.373 192.902L159.378 192.911L161.135 191.956ZM161.259 168.768L163.004 169.747V169.747L161.259 168.768ZM169.009 160.894L168.029 159.151L168.019 159.156L169.009 160.894ZM188.415 159.282L187.793 161.183L187.802 161.186L188.415 159.282ZM195.421 162.568L194.356 164.26L194.439 164.313L194.527 164.357L195.421 162.568ZM196.289 163.436L194.574 164.465V164.465L196.289 163.436ZM195.917 166.598L194.503 165.184L194.472 165.215L194.443 165.247L195.917 166.598ZM192.755 167.032L191.732 168.75L191.795 168.788L191.861 168.821L192.755 167.032ZM186.927 164.428L187.498 162.511L186.927 164.428ZM172.109 165.544L173.038 167.315L173.038 167.315L172.109 165.544ZM166.157 171.372L164.416 170.389L164.41 170.398L166.157 171.372ZM166.033 189.104L164.256 190.021L164.265 190.039L164.274 190.056L166.033 189.104ZM171.861 195.118L170.845 196.84L170.861 196.85L170.878 196.86L171.861 195.118ZM191.763 194.56L192.718 196.317L193.763 195.75V194.56H191.763ZM191.763 183.338H193.763V181.338H191.763V183.338ZM196.041 197.66L194.362 196.573L194.354 196.587L194.345 196.6L196.041 197.66ZM194.367 199.148L193.516 197.338L193.494 197.348L193.473 197.359L194.367 199.148ZM180.169 200.62C176.213 200.62 172.776 199.759 169.804 198.087L167.843 201.573C171.484 203.621 175.611 204.62 180.169 204.62V200.62ZM169.82 198.096C166.834 196.379 164.535 194.024 162.893 191.001L159.378 192.911C161.373 196.584 164.199 199.478 167.826 201.564L169.82 198.096ZM162.898 191.01C161.253 187.945 160.407 184.432 160.407 180.424H156.407C156.407 185.013 157.381 189.189 159.373 192.902L162.898 191.01ZM160.407 180.424C160.407 176.341 161.29 172.8 163.004 169.747L159.515 167.789C157.425 171.514 156.407 175.744 156.407 180.424H160.407ZM163.004 169.747C164.733 166.663 167.061 164.306 169.999 162.632L168.019 159.156C164.427 161.202 161.588 164.095 159.515 167.789L163.004 169.747ZM169.99 162.637C172.98 160.955 176.297 160.104 179.983 160.104V156.104C175.651 156.104 171.652 157.113 168.029 159.151L169.99 162.637ZM179.983 160.104C183.052 160.104 185.643 160.478 187.793 161.183L189.038 157.381C186.393 156.515 183.363 156.104 179.983 156.104V160.104ZM187.802 161.186C190.077 161.918 192.261 162.942 194.356 164.26L196.487 160.876C194.118 159.384 191.631 158.216 189.028 157.378L187.802 161.186ZM194.527 164.357C194.48 164.334 194.463 164.314 194.472 164.323C194.483 164.334 194.52 164.374 194.574 164.465L198.004 162.407C197.619 161.765 197.076 161.159 196.316 160.779L194.527 164.357ZM194.574 164.465C194.63 164.558 194.661 164.655 194.661 164.8H198.661C198.661 163.953 198.444 163.14 198.004 162.407L194.574 164.465ZM194.661 164.8C194.661 164.973 194.623 165.064 194.503 165.184L197.331 168.012C198.203 167.14 198.661 166.032 198.661 164.8H194.661ZM194.443 165.247C194.417 165.275 194.398 165.287 194.368 165.299C194.332 165.313 194.239 165.342 194.057 165.342V169.342C195.301 169.342 196.494 168.929 197.392 167.949L194.443 165.247ZM194.057 165.342C193.918 165.342 193.79 165.313 193.65 165.243L191.861 168.821C192.547 169.164 193.287 169.342 194.057 169.342V165.342ZM193.779 165.314C191.71 164.081 189.616 163.142 187.498 162.511L186.356 166.345C188.123 166.871 189.915 167.668 191.732 168.75L193.779 165.314ZM187.498 162.511C185.349 161.871 183.047 161.56 180.603 161.56V165.56C182.706 165.56 184.62 165.828 186.356 166.345L187.498 162.511ZM180.603 161.56C177.172 161.56 174.017 162.285 171.18 163.773L173.038 167.315C175.244 166.158 177.751 165.56 180.603 165.56V161.56ZM171.18 163.773C168.306 165.281 166.045 167.503 164.416 170.389L167.899 172.355C169.163 170.116 170.87 168.453 173.038 167.315L171.18 163.773ZM164.41 170.398C162.807 173.276 162.049 176.643 162.049 180.424H166.049C166.049 177.178 166.697 174.511 167.904 172.346L164.41 170.398ZM162.049 180.424C162.049 183.929 162.77 187.143 164.256 190.021L167.81 188.187C166.651 185.94 166.049 183.367 166.049 180.424H162.049ZM164.274 190.056C165.815 192.904 168.017 195.172 170.845 196.84L172.878 193.396C170.662 192.088 168.98 190.347 167.792 188.152L164.274 190.056ZM170.878 196.86C173.791 198.504 177.159 199.288 180.913 199.288V195.288C177.724 195.288 175.057 194.625 172.844 193.376L170.878 196.86ZM180.913 199.288C185.125 199.288 189.071 198.299 192.718 196.317L190.809 192.803C187.76 194.459 184.472 195.288 180.913 195.288V199.288ZM193.763 194.56V183.338H189.763V194.56H193.763ZM191.763 181.338H181.533V185.338H191.763V181.338ZM181.533 181.338C181.36 181.338 181.27 181.3 181.149 181.18L178.321 184.008C179.193 184.88 180.301 185.338 181.533 185.338V181.338ZM181.149 181.18C181.029 181.06 180.991 180.969 180.991 180.796H176.991C176.991 182.028 177.449 183.136 178.321 184.008L181.149 181.18ZM180.991 180.796C180.991 180.623 181.029 180.532 181.149 180.412L178.321 177.584C177.449 178.456 176.991 179.564 176.991 180.796H180.991ZM181.149 180.412C181.27 180.292 181.36 180.254 181.533 180.254V176.254C180.301 176.254 179.193 176.712 178.321 177.584L181.149 180.412ZM181.533 180.254H193.747V176.254H181.533V180.254ZM193.747 180.254C194.05 180.254 194.242 180.337 194.441 180.536L197.269 177.708C196.311 176.75 195.098 176.254 193.747 176.254V180.254ZM194.441 180.536C194.64 180.736 194.723 180.928 194.723 181.23H198.723C198.723 179.879 198.227 178.666 197.269 177.708L194.441 180.536ZM194.723 181.23V195.304H198.723V181.23H194.723ZM194.723 195.304C194.723 195.802 194.599 196.207 194.362 196.573L197.72 198.747C198.393 197.708 198.723 196.542 198.723 195.304H194.723ZM194.345 196.6C194.135 196.937 193.869 197.172 193.516 197.338L195.219 200.958C196.271 200.463 197.121 199.706 197.737 198.72L194.345 196.6ZM193.473 197.359C189.101 199.545 184.673 200.62 180.169 200.62V204.62C185.337 204.62 190.375 203.38 195.262 200.937L193.473 197.359Z" fill="white" mask="url(#path-4-outside-1_304_119)"/>
<g filter="url(#filter1_d_304_119)">
<path d="M272 102H192C179.85 102 170 92.1503 170 80V0L272 102Z" fill="url(#paint2_linear_304_119)"/>
</g>
</g>
<defs>
<filter id="filter0_f_304_119" x="9" y="110" width="256" height="162" filterUnits="userSpaceOnUse" color-interpolation-filters="sRGB">
<feFlood flood-opacity="0" result="BackgroundImageFix"/>
<feBlend mode="normal" in="SourceGraphic" in2="BackgroundImageFix" result="shape"/>
<feGaussianBlur stdDeviation="19.5" result="effect1_foregroundBlur_304_119"/>
</filter>
<filter id="filter1_d_304_119" x="147" y="-24" width="152" height="152" filterUnits="userSpaceOnUse" color-interpolation-filters="sRGB">
<feFlood flood-opacity="0" result="BackgroundImageFix"/>
<feColorMatrix in="SourceAlpha" type="matrix" values="0 0 0 0 0 0 0 0 0 0 0 0 0 0 0 0 0 0 127 0" result="hardAlpha"/>
<feOffset dx="2" dy="1"/>
<feGaussianBlur stdDeviation="12.5"/>
<feColorMatrix type="matrix" values="0 0 0 0 0 0 0 0 0 0 0 0 0 0 0 0 0 0 0.33 0"/>
<feBlend mode="normal" in2="BackgroundImageFix" result="effect1_dropShadow_304_119"/>
<feBlend mode="normal" in="SourceGraphic" in2="effect1_dropShadow_304_119" result="shape"/>
</filter>
<linearGradient id="paint0_linear_304_119" x1="136" y1="0" x2="136" y2="308" gradientUnits="userSpaceOnUse">
<stop stop-color="#FF7979"/>
<stop offset="1" stop-color="#E85555"/>
</linearGradient>
<linearGradient id="paint1_linear_304_119" x1="136" y1="0" x2="136" y2="308" gradientUnits="userSpaceOnUse">
<stop stop-color="#7CA9FF"/>
<stop offset="1" stop-color="#4377DC"/>
</linearGradient>
<linearGradient id="paint2_linear_304_119" x1="221" y1="0" x2="221" y2="102" gradientUnits="userSpaceOnUse">
<stop stop-color="#4B7BF7"/>
<stop offset="1" stop-color="#1A4DD1"/>
</linearGradient>
</defs>
</svg>
