<svg width="272" height="308" viewBox="0 0 272 308" fill="none" xmlns="http://www.w3.org/2000/svg">
<rect width="272" height="308" fill="#E5E5E5"/>
<mask id="mask0_204_633" style="mask-type:alpha" maskUnits="userSpaceOnUse" x="0" y="0" width="272" height="308">
<path d="M250 308H22C9.84974 308 0 298.15 0 286V22C0 9.84974 9.84974 0 22 0H170L272 102V286C272 298.15 262.15 308 250 308Z" fill="url(#paint0_linear_204_633)"/>
</mask>
<g mask="url(#mask0_204_633)">
<path d="M250 308H22C9.84974 308 0 298.15 0 286V22C0 9.84974 9.84974 0 22 0H170L272 102V286C272 298.15 262.15 308 250 308Z" fill="url(#paint1_linear_204_633)"/>
<g opacity="0.2" filter="url(#filter0_f_204_633)">
<rect x="48" y="149" width="178" height="84" fill="#780AAF" style="mix-blend-mode:darken"/>
</g>
<path d="M86.6885 202.62C82.3485 202.62 78.5458 201.669 75.2805 199.768C72.0151 197.867 69.4938 195.242 67.7164 191.894C65.9391 188.546 65.0091 184.702 64.9264 180.362C65.0091 176.022 65.9391 172.178 67.7164 168.83C69.4938 165.482 72.0151 162.857 75.2805 160.956C78.5458 159.055 82.3485 158.104 86.6885 158.104C91.0285 158.104 94.8105 159.055 98.0345 160.956C101.3 162.857 103.821 165.503 105.598 168.892C107.417 172.24 108.368 176.063 108.45 180.362C108.368 184.661 107.417 188.505 105.598 191.894C103.821 195.242 101.3 197.867 98.0345 199.768C94.8105 201.669 91.0285 202.62 86.6885 202.62ZM86.6885 197.35C89.9951 197.35 92.8678 196.606 95.3065 195.118C97.7451 193.63 99.6051 191.605 100.886 189.042C102.168 186.479 102.808 183.586 102.808 180.362C102.808 177.138 102.168 174.245 100.886 171.682C99.6051 169.119 97.7451 167.094 95.3065 165.606C92.8678 164.118 89.9951 163.374 86.6885 163.374C83.3405 163.374 80.4471 164.118 78.0084 165.606C75.6111 167.094 73.7718 169.119 72.4904 171.682C71.2091 174.245 70.5684 177.138 70.5684 180.362C70.5684 183.586 71.2091 186.479 72.4904 189.042C73.7718 191.605 75.6111 193.63 78.0084 195.118C80.4471 196.606 83.3405 197.35 86.6885 197.35ZM141.343 202.62C137.086 202.62 133.304 201.69 129.997 199.83C126.69 197.929 124.128 195.304 122.309 191.956C120.49 188.567 119.581 184.723 119.581 180.424C119.581 176.043 120.532 172.157 122.433 168.768C124.334 165.379 126.918 162.754 130.183 160.894C133.49 159.034 137.148 158.104 141.157 158.104C144.381 158.104 147.192 158.497 149.589 159.282C152.028 160.067 154.363 161.163 156.595 162.568C156.926 162.733 157.215 163.023 157.463 163.436C157.711 163.849 157.835 164.304 157.835 164.8C157.835 165.503 157.587 166.102 157.091 166.598C156.636 167.094 156.016 167.342 155.231 167.342C154.776 167.342 154.342 167.239 153.929 167.032C151.986 165.875 150.044 165.007 148.101 164.428C146.158 163.849 144.05 163.56 141.777 163.56C138.636 163.56 135.804 164.221 133.283 165.544C130.762 166.867 128.778 168.809 127.331 171.372C125.926 173.893 125.223 176.911 125.223 180.424C125.223 183.648 125.884 186.541 127.207 189.104C128.571 191.625 130.514 193.63 133.035 195.118C135.598 196.565 138.615 197.288 142.087 197.288C145.972 197.288 149.589 196.379 152.937 194.56V183.338H142.707C142.004 183.338 141.405 183.09 140.909 182.594C140.413 182.098 140.165 181.499 140.165 180.796C140.165 180.093 140.413 179.494 140.909 178.998C141.405 178.502 142.004 178.254 142.707 178.254H154.921C155.748 178.254 156.45 178.543 157.029 179.122C157.608 179.701 157.897 180.403 157.897 181.23V195.304C157.897 196.172 157.67 196.957 157.215 197.66C156.802 198.321 156.244 198.817 155.541 199.148C150.912 201.463 146.179 202.62 141.343 202.62ZM188.267 202.31C186.572 202.31 185.291 201.359 184.423 199.458L169.109 162.32C168.985 161.989 168.923 161.638 168.923 161.266C168.923 160.398 169.171 159.716 169.667 159.22C170.163 158.683 170.845 158.414 171.713 158.414C172.291 158.414 172.808 158.6 173.263 158.972C173.759 159.303 174.131 159.757 174.379 160.336L188.949 196.668L203.519 160.336C203.767 159.757 204.118 159.303 204.573 158.972C205.069 158.6 205.606 158.414 206.185 158.414C207.053 158.414 207.735 158.683 208.231 159.22C208.727 159.716 208.975 160.398 208.975 161.266C208.975 161.638 208.913 161.989 208.789 162.32L193.475 199.458C192.607 201.359 191.325 202.31 189.631 202.31H188.267Z" fill="white"/>
<path d="M75.2804 199.768L76.2868 198.04L75.2804 199.768ZM67.7164 191.894L65.9499 192.832L67.7164 191.894ZM64.9265 180.362L62.9268 180.324L62.9261 180.362L62.9268 180.4L64.9265 180.362ZM67.7164 168.83L69.483 169.768L67.7164 168.83ZM75.2804 160.956L74.2741 159.228V159.228L75.2804 160.956ZM98.0345 160.956L97.0185 162.679L97.0281 162.684L98.0345 160.956ZM105.598 168.892L103.827 169.821L103.834 169.834L103.841 169.847L105.598 168.892ZM108.45 180.362L110.45 180.4L110.451 180.362L110.45 180.324L108.45 180.362ZM105.598 191.894L103.836 190.948L103.832 190.956L105.598 191.894ZM98.0345 199.768L97.0281 198.04L97.0185 198.045L98.0345 199.768ZM95.3064 195.118L94.2647 193.411H94.2647L95.3064 195.118ZM100.886 189.042L102.675 189.936V189.936L100.886 189.042ZM100.886 171.682L102.675 170.788V170.788L100.886 171.682ZM95.3064 165.606L94.2647 167.313L95.3064 165.606ZM78.0084 165.606L76.9667 163.899L76.9602 163.903L76.9537 163.907L78.0084 165.606ZM72.4904 171.682L70.7016 170.788L72.4904 171.682ZM72.4904 189.042L70.7016 189.936L72.4904 189.042ZM78.0084 195.118L76.9537 196.817L76.9602 196.821L76.9667 196.825L78.0084 195.118ZM86.6885 200.62C82.6487 200.62 79.2036 199.738 76.2868 198.04L74.2741 201.496C77.888 203.601 82.0482 204.62 86.6885 204.62V200.62ZM76.2868 198.04C73.3447 196.326 71.0861 193.976 69.483 190.956L65.9499 192.832C67.9014 196.508 70.6856 199.407 74.2741 201.496L76.2868 198.04ZM69.483 190.956C67.873 187.923 67.0036 184.396 66.9261 180.324L62.9268 180.4C63.0146 185.008 64.0052 189.169 65.9499 192.832L69.483 190.956ZM66.9261 180.4C67.0036 176.328 67.873 172.801 69.483 169.768L65.9499 167.892C64.0052 171.555 63.0146 175.716 62.9268 180.324L66.9261 180.4ZM69.483 169.768C71.0861 166.748 73.3447 164.398 76.2868 162.684L74.2741 159.228C70.6856 161.317 67.9014 164.216 65.9499 167.892L69.483 169.768ZM76.2868 162.684C79.2036 160.986 82.6487 160.104 86.6885 160.104V156.104C82.0482 156.104 77.888 157.123 74.2741 159.228L76.2868 162.684ZM86.6885 160.104C90.7289 160.104 94.1485 160.986 97.0185 162.679L99.0504 159.233C95.4724 157.123 91.328 156.104 86.6885 156.104V160.104ZM97.0281 162.684C99.9639 164.394 102.222 166.76 103.827 169.821L107.37 167.963C105.42 164.245 102.636 161.321 99.0408 159.228L97.0281 162.684ZM103.841 169.847C105.488 172.879 106.374 176.381 106.451 180.4L110.45 180.324C110.362 175.746 109.346 171.601 107.356 167.937L103.841 169.847ZM106.451 180.324C106.374 184.343 105.488 187.87 103.836 190.948L107.361 192.84C109.346 189.139 110.362 184.978 110.45 180.4L106.451 180.324ZM103.832 190.956C102.229 193.976 99.9702 196.326 97.0281 198.04L99.0408 201.496C102.629 199.407 105.413 196.508 107.365 192.832L103.832 190.956ZM97.0185 198.045C94.1485 199.738 90.7289 200.62 86.6885 200.62V204.62C91.328 204.62 95.4724 203.601 99.0504 201.491L97.0185 198.045ZM86.6885 199.35C90.3038 199.35 93.549 198.533 96.3482 196.825L94.2647 193.411C92.1865 194.679 89.6864 195.35 86.6885 195.35V199.35ZM96.3482 196.825C99.1082 195.141 101.227 192.834 102.675 189.936L99.0976 188.148C97.9836 190.376 96.382 192.119 94.2647 193.411L96.3482 196.825ZM102.675 189.936C104.112 187.063 104.808 183.857 104.808 180.362H100.808C100.808 183.315 100.224 185.896 99.0976 188.148L102.675 189.936ZM104.808 180.362C104.808 176.867 104.112 173.661 102.675 170.788L99.0976 172.576C100.224 174.828 100.808 177.409 100.808 180.362H104.808ZM102.675 170.788C101.227 167.89 99.1082 165.583 96.3482 163.899L94.2647 167.313C96.382 168.605 97.9836 170.348 99.0976 172.576L102.675 170.788ZM96.3482 163.899C93.549 162.191 90.3038 161.374 86.6885 161.374V165.374C89.6864 165.374 92.1865 166.045 94.2647 167.313L96.3482 163.899ZM86.6885 161.374C83.0369 161.374 79.7696 162.188 76.9667 163.899L79.0502 167.313C81.1246 166.048 83.644 165.374 86.6885 165.374V161.374ZM76.9537 163.907C74.2368 165.593 72.1458 167.899 70.7016 170.788L74.2793 172.576C75.3978 170.339 76.9854 168.595 79.0632 167.305L76.9537 163.907ZM70.7016 170.788C69.2649 173.661 68.5685 176.867 68.5685 180.362H72.5685C72.5685 177.409 73.1534 174.828 74.2793 172.576L70.7016 170.788ZM68.5685 180.362C68.5685 183.857 69.2649 187.063 70.7016 189.936L74.2793 188.148C73.1534 185.896 72.5685 183.315 72.5685 180.362H68.5685ZM70.7016 189.936C72.1458 192.825 74.2368 195.131 76.9537 196.817L79.0632 193.419C76.9854 192.129 75.3978 190.385 74.2793 188.148L70.7016 189.936ZM76.9667 196.825C79.7696 198.536 83.0369 199.35 86.6885 199.35V195.35C83.644 195.35 81.1246 194.676 79.0502 193.411L76.9667 196.825ZM129.997 199.83L129 201.564L129.008 201.569L129.016 201.573L129.997 199.83ZM122.309 191.956L120.547 192.902L120.551 192.911L122.309 191.956ZM122.433 168.768L124.177 169.747V169.747L122.433 168.768ZM130.183 160.894L129.202 159.151L129.193 159.156L130.183 160.894ZM149.589 159.282L148.966 161.183L148.976 161.186L149.589 159.282ZM156.595 162.568L155.529 164.26L155.613 164.313L155.7 164.357L156.595 162.568ZM157.463 163.436L155.748 164.465V164.465L157.463 163.436ZM157.091 166.598L155.677 165.184L155.646 165.215L155.617 165.247L157.091 166.598ZM153.929 167.032L152.905 168.75L152.969 168.788L153.034 168.821L153.929 167.032ZM148.101 164.428L148.672 162.511L148.101 164.428ZM133.283 165.544L134.212 167.315L134.212 167.315L133.283 165.544ZM127.331 171.372L125.589 170.389L125.584 170.398L127.331 171.372ZM127.207 189.104L125.43 190.021L125.439 190.039L125.448 190.056L127.207 189.104ZM133.035 195.118L132.018 196.84L132.035 196.85L132.052 196.86L133.035 195.118ZM152.937 194.56L153.892 196.317L154.937 195.75V194.56H152.937ZM152.937 183.338H154.937V181.338H152.937V183.338ZM157.215 197.66L155.536 196.573L155.527 196.587L155.519 196.6L157.215 197.66ZM155.541 199.148L154.689 197.338L154.668 197.348L154.646 197.359L155.541 199.148ZM141.343 200.62C137.386 200.62 133.95 199.759 130.977 198.087L129.016 201.573C132.658 203.621 136.785 204.62 141.343 204.62V200.62ZM130.994 198.096C128.007 196.379 125.708 194.024 124.066 191.001L120.551 192.911C122.547 196.584 125.373 199.478 129 201.564L130.994 198.096ZM124.071 191.01C122.426 187.945 121.581 184.432 121.581 180.424H117.581C117.581 185.013 118.554 189.189 120.547 192.902L124.071 191.01ZM121.581 180.424C121.581 176.341 122.464 172.8 124.177 169.747L120.689 167.789C118.599 171.514 117.581 175.744 117.581 180.424H121.581ZM124.177 169.747C125.907 166.663 128.234 164.306 131.173 162.632L129.193 159.156C125.601 161.202 122.761 164.095 120.689 167.789L124.177 169.747ZM131.163 162.637C134.154 160.955 137.471 160.104 141.157 160.104V156.104C136.824 156.104 132.826 157.113 129.202 159.151L131.163 162.637ZM141.157 160.104C144.225 160.104 146.817 160.478 148.966 161.183L150.212 157.381C147.566 156.515 144.537 156.104 141.157 156.104V160.104ZM148.976 161.186C151.251 161.918 153.435 162.942 155.529 164.26L157.661 160.876C155.291 159.384 152.804 158.216 150.202 157.378L148.976 161.186ZM155.7 164.357C155.654 164.334 155.637 164.314 155.646 164.323C155.656 164.334 155.694 164.374 155.748 164.465L159.178 162.407C158.793 161.765 158.249 161.159 157.489 160.779L155.7 164.357ZM155.748 164.465C155.804 164.558 155.835 164.655 155.835 164.8H159.835C159.835 163.953 159.618 163.14 159.178 162.407L155.748 164.465ZM155.835 164.8C155.835 164.973 155.797 165.064 155.677 165.184L158.505 168.012C159.377 167.14 159.835 166.032 159.835 164.8H155.835ZM155.617 165.247C155.59 165.275 155.571 165.287 155.542 165.299C155.506 165.313 155.413 165.342 155.231 165.342V169.342C156.474 169.342 157.668 168.929 158.565 167.949L155.617 165.247ZM155.231 165.342C155.092 165.342 154.964 165.313 154.823 165.243L153.034 168.821C153.721 169.164 154.461 169.342 155.231 169.342V165.342ZM154.953 165.314C152.884 164.081 150.79 163.142 148.672 162.511L147.53 166.345C149.297 166.871 151.089 167.668 152.905 168.75L154.953 165.314ZM148.672 162.511C146.523 161.871 144.22 161.56 141.777 161.56V165.56C143.88 165.56 145.794 165.828 147.53 166.345L148.672 162.511ZM141.777 161.56C138.346 161.56 135.19 162.285 132.354 163.773L134.212 167.315C136.418 166.158 138.925 165.56 141.777 165.56V161.56ZM132.354 163.773C129.48 165.281 127.219 167.503 125.589 170.389L129.073 172.355C130.337 170.116 132.044 168.453 134.212 167.315L132.354 163.773ZM125.584 170.398C123.98 173.276 123.223 176.643 123.223 180.424H127.223C127.223 177.178 127.871 174.511 129.078 172.346L125.584 170.398ZM123.223 180.424C123.223 183.929 123.944 187.143 125.43 190.021L128.984 188.187C127.824 185.94 127.223 183.367 127.223 180.424H123.223ZM125.448 190.056C126.989 192.904 129.191 195.172 132.018 196.84L134.051 193.396C131.836 192.088 130.153 190.347 128.966 188.152L125.448 190.056ZM132.052 196.86C134.964 198.504 138.333 199.288 142.087 199.288V195.288C138.897 195.288 136.231 194.625 134.018 193.376L132.052 196.86ZM142.087 199.288C146.299 199.288 150.245 198.299 153.892 196.317L151.982 192.803C148.933 194.459 145.646 195.288 142.087 195.288V199.288ZM154.937 194.56V183.338H150.937V194.56H154.937ZM152.937 181.338H142.707V185.338H152.937V181.338ZM142.707 181.338C142.534 181.338 142.443 181.3 142.323 181.18L139.495 184.008C140.366 184.88 141.475 185.338 142.707 185.338V181.338ZM142.323 181.18C142.203 181.06 142.165 180.969 142.165 180.796H138.165C138.165 182.028 138.623 183.136 139.495 184.008L142.323 181.18ZM142.165 180.796C142.165 180.623 142.203 180.532 142.323 180.412L139.495 177.584C138.623 178.456 138.165 179.564 138.165 180.796H142.165ZM142.323 180.412C142.443 180.292 142.534 180.254 142.707 180.254V176.254C141.475 176.254 140.366 176.712 139.495 177.584L142.323 180.412ZM142.707 180.254H154.921V176.254H142.707V180.254ZM154.921 180.254C155.223 180.254 155.415 180.337 155.615 180.536L158.443 177.708C157.485 176.75 156.272 176.254 154.921 176.254V180.254ZM155.615 180.536C155.814 180.736 155.897 180.928 155.897 181.23H159.897C159.897 179.879 159.401 178.666 158.443 177.708L155.615 180.536ZM155.897 181.23V195.304H159.897V181.23H155.897ZM155.897 195.304C155.897 195.802 155.773 196.207 155.536 196.573L158.894 198.747C159.566 197.708 159.897 196.542 159.897 195.304H155.897ZM155.519 196.6C155.308 196.937 155.043 197.172 154.689 197.338L156.393 200.958C157.444 200.463 158.295 199.706 158.911 198.72L155.519 196.6ZM154.646 197.359C150.275 199.545 145.847 200.62 141.343 200.62V204.62C146.511 204.62 151.548 203.38 156.435 200.937L154.646 197.359ZM184.423 199.458L182.574 200.22L182.588 200.255L182.603 200.289L184.423 199.458ZM169.109 162.32L167.236 163.022L167.247 163.053L167.26 163.082L169.109 162.32ZM169.667 159.22L171.081 160.634L171.109 160.606L171.136 160.577L169.667 159.22ZM173.263 158.972L171.996 160.52L172.072 160.582L172.153 160.636L173.263 158.972ZM174.379 160.336L176.235 159.592L176.226 159.57L176.217 159.548L174.379 160.336ZM188.949 196.668L187.092 197.412L188.949 202.041L190.805 197.412L188.949 196.668ZM203.519 160.336L201.68 159.548L201.671 159.57L201.662 159.592L203.519 160.336ZM204.573 158.972L205.749 160.589L205.761 160.581L205.773 160.572L204.573 158.972ZM208.231 159.22L206.761 160.577L206.788 160.606L206.817 160.634L208.231 159.22ZM208.789 162.32L210.638 163.082L210.65 163.053L210.661 163.022L208.789 162.32ZM193.475 199.458L195.294 200.289L195.31 200.255L195.324 200.22L193.475 199.458ZM188.267 200.31C187.82 200.31 187.5 200.194 187.226 199.991C186.928 199.77 186.578 199.363 186.242 198.627L182.603 200.289C183.136 201.454 183.86 202.474 184.843 203.203C185.851 203.951 187.019 204.31 188.267 204.31V200.31ZM186.272 198.696L170.958 161.558L167.26 163.082L182.574 200.22L186.272 198.696ZM170.981 161.618C170.946 161.523 170.923 161.411 170.923 161.266H166.923C166.923 161.865 167.023 162.455 167.236 163.022L170.981 161.618ZM170.923 161.266C170.923 160.795 171.045 160.67 171.081 160.634L168.253 157.806C167.297 158.762 166.923 160.001 166.923 161.266H170.923ZM171.136 160.577C171.183 160.526 171.289 160.414 171.713 160.414V156.414C170.4 156.414 169.142 156.839 168.197 157.863L171.136 160.577ZM171.713 160.414C171.822 160.414 171.893 160.435 171.996 160.52L174.529 157.424C173.723 156.765 172.761 156.414 171.713 156.414V160.414ZM172.153 160.636C172.308 160.739 172.436 160.881 172.54 161.124L176.217 159.548C175.825 158.634 175.209 157.866 174.372 157.308L172.153 160.636ZM172.522 161.08L187.092 197.412L190.805 195.924L176.235 159.592L172.522 161.08ZM190.805 197.412L205.375 161.08L201.662 159.592L187.092 195.924L190.805 197.412ZM205.357 161.124C205.481 160.836 205.62 160.684 205.749 160.589L203.396 157.355C202.617 157.922 202.053 158.679 201.68 159.548L205.357 161.124ZM205.773 160.572C205.949 160.44 206.071 160.414 206.185 160.414V156.414C205.142 156.414 204.189 156.76 203.373 157.372L205.773 160.572ZM206.185 160.414C206.608 160.414 206.714 160.526 206.761 160.577L209.7 157.863C208.755 156.839 207.497 156.414 206.185 156.414V160.414ZM206.817 160.634C206.853 160.67 206.975 160.795 206.975 161.266H210.975C210.975 160.001 210.601 158.762 209.645 157.806L206.817 160.634ZM206.975 161.266C206.975 161.411 206.951 161.523 206.916 161.618L210.661 163.022C210.874 162.455 210.975 161.865 210.975 161.266H206.975ZM206.94 161.558L191.626 198.696L195.324 200.22L210.638 163.082L206.94 161.558ZM191.655 198.627C191.32 199.363 190.969 199.77 190.671 199.991C190.397 200.194 190.077 200.31 189.631 200.31V204.31C190.879 204.31 192.047 203.951 193.054 203.203C194.038 202.474 194.762 201.454 195.294 200.289L191.655 198.627ZM189.631 200.31H188.267V204.31H189.631V200.31Z" fill="white"/>
<g filter="url(#filter1_d_204_633)">
<path d="M272 102H192C179.85 102 170 92.1503 170 80V0L272 102Z" fill="url(#paint2_linear_204_633)"/>
</g>
</g>
<defs>
<filter id="filter0_f_204_633" x="9" y="110" width="256" height="162" filterUnits="userSpaceOnUse" color-interpolation-filters="sRGB">
<feFlood flood-opacity="0" result="BackgroundImageFix"/>
<feBlend mode="normal" in="SourceGraphic" in2="BackgroundImageFix" result="shape"/>
<feGaussianBlur stdDeviation="19.5" result="effect1_foregroundBlur_204_633"/>
</filter>
<filter id="filter1_d_204_633" x="147" y="-24" width="152" height="152" filterUnits="userSpaceOnUse" color-interpolation-filters="sRGB">
<feFlood flood-opacity="0" result="BackgroundImageFix"/>
<feColorMatrix in="SourceAlpha" type="matrix" values="0 0 0 0 0 0 0 0 0 0 0 0 0 0 0 0 0 0 127 0" result="hardAlpha"/>
<feOffset dx="2" dy="1"/>
<feGaussianBlur stdDeviation="12.5"/>
<feColorMatrix type="matrix" values="0 0 0 0 0 0 0 0 0 0 0 0 0 0 0 0 0 0 0.33 0"/>
<feBlend mode="normal" in2="BackgroundImageFix" result="effect1_dropShadow_204_633"/>
<feBlend mode="normal" in="SourceGraphic" in2="effect1_dropShadow_204_633" result="shape"/>
</filter>
<linearGradient id="paint0_linear_204_633" x1="136" y1="0" x2="136" y2="308" gradientUnits="userSpaceOnUse">
<stop stop-color="#FF7979"/>
<stop offset="1" stop-color="#E85555"/>
</linearGradient>
<linearGradient id="paint1_linear_204_633" x1="136" y1="0" x2="136" y2="308" gradientUnits="userSpaceOnUse">
<stop stop-color="#CB74F4"/>
<stop offset="0.942892" stop-color="#A849F3"/>
</linearGradient>
<linearGradient id="paint2_linear_204_633" x1="221" y1="0" x2="221" y2="102" gradientUnits="userSpaceOnUse">
<stop stop-color="#B051E0"/>
<stop offset="1" stop-color="#952BCB"/>
</linearGradient>
</defs>
</svg>
