<svg width="272" height="308" viewBox="0 0 272 308" fill="none" xmlns="http://www.w3.org/2000/svg">
<mask id="mask0_204_346" style="mask-type:alpha" maskUnits="userSpaceOnUse" x="0" y="0" width="272" height="308">
<path d="M250 308H22C9.84974 308 0 298.15 0 286V22C0 9.84974 9.84974 0 22 0H170L272 102V286C272 298.15 262.15 308 250 308Z" fill="url(#paint0_linear_204_346)"/>
</mask>
<g mask="url(#mask0_204_346)">
<path d="M250 308H22C9.84974 308 0 298.15 0 286V22C0 9.84974 9.84974 0 22 0H170L272 102V286C272 298.15 262.15 308 250 308Z" fill="url(#paint1_linear_204_346)"/>
<g filter="url(#filter0_f_204_346)">
<rect x="48" y="149" width="178" height="84" fill="#0B07C6" fill-opacity="0.16" style="mix-blend-mode:darken"/>
</g>
<path d="M55.5819 202.62C51.2419 202.62 47.4393 201.669 44.1739 199.768C40.9086 197.867 38.3873 195.242 36.6099 191.894C34.8326 188.546 33.9026 184.702 33.8199 180.362C33.9026 176.022 34.8326 172.178 36.6099 168.83C38.3873 165.482 40.9086 162.857 44.1739 160.956C47.4393 159.055 51.2419 158.104 55.5819 158.104C59.9219 158.104 63.7039 159.055 66.9279 160.956C70.1933 162.857 72.7146 165.503 74.4919 168.892C76.3106 172.24 77.2613 176.063 77.3439 180.362C77.2613 184.661 76.3106 188.505 74.4919 191.894C72.7146 195.242 70.1933 197.867 66.9279 199.768C63.7039 201.669 59.9219 202.62 55.5819 202.62ZM55.5819 197.35C58.8886 197.35 61.7613 196.606 64.1999 195.118C66.6386 193.63 68.4986 191.605 69.7799 189.042C71.0613 186.479 71.7019 183.586 71.7019 180.362C71.7019 177.138 71.0613 174.245 69.7799 171.682C68.4986 169.119 66.6386 167.094 64.1999 165.606C61.7613 164.118 58.8886 163.374 55.5819 163.374C52.2339 163.374 49.3406 164.118 46.9019 165.606C44.5046 167.094 42.6653 169.119 41.3839 171.682C40.1026 174.245 39.4619 177.138 39.4619 180.362C39.4619 183.586 40.1026 186.479 41.3839 189.042C42.6653 191.605 44.5046 193.63 46.9019 195.118C49.3406 196.606 52.2339 197.35 55.5819 197.35ZM93.8684 202.31C93.083 202.31 92.4217 202.041 91.8844 201.504C91.347 200.967 91.0784 200.305 91.0784 199.52V161.576C91.0784 160.791 91.347 160.129 91.8844 159.592C92.4217 159.013 93.083 158.724 93.8684 158.724H108.004C111.931 158.724 115.134 159.385 117.614 160.708C120.094 162.031 121.872 163.725 122.946 165.792C124.021 167.859 124.558 170.091 124.558 172.488C124.558 174.885 124.021 177.117 122.946 179.184C121.872 181.251 120.094 182.945 117.614 184.268C115.134 185.591 111.931 186.252 108.004 186.252H96.7204V199.52C96.7204 200.305 96.431 200.967 95.8524 201.504C95.315 202.041 94.6537 202.31 93.8684 202.31ZM107.446 180.92C111.662 180.92 114.618 180.114 116.312 178.502C118.048 176.89 118.916 174.885 118.916 172.488C118.916 170.091 118.048 168.086 116.312 166.474C114.618 164.862 111.662 164.056 107.446 164.056H96.7204V180.92H107.446ZM154.559 202.62C151.624 202.62 148.793 202 146.065 200.76C143.337 199.52 141.105 197.639 139.369 195.118C137.633 192.555 136.765 189.435 136.765 185.756V161.266C136.765 160.481 137.033 159.819 137.571 159.282C138.108 158.703 138.769 158.414 139.555 158.414C140.34 158.414 141.001 158.703 141.539 159.282C142.117 159.819 142.407 160.481 142.407 161.266V185.942C142.407 188.422 142.965 190.53 144.081 192.266C145.238 194.002 146.747 195.304 148.607 196.172C150.467 197.04 152.451 197.474 154.559 197.474C156.667 197.474 158.651 197.04 160.511 196.172C162.371 195.304 163.859 194.002 164.975 192.266C166.132 190.53 166.711 188.422 166.711 185.942V161.266C166.711 160.481 166.979 159.819 167.517 159.282C168.054 158.703 168.715 158.414 169.501 158.414C170.286 158.414 170.947 158.703 171.485 159.282C172.063 159.819 172.353 160.481 172.353 161.266V185.756C172.353 189.435 171.485 192.555 169.749 195.118C168.013 197.639 165.781 199.52 163.053 200.76C160.325 202 157.493 202.62 154.559 202.62ZM202.039 202.62C196.79 202.62 191.871 201.628 187.283 199.644C186.787 199.437 186.374 199.107 186.043 198.652C185.712 198.156 185.547 197.639 185.547 197.102C185.547 196.399 185.774 195.8 186.229 195.304C186.725 194.767 187.345 194.498 188.089 194.498C188.502 194.498 188.895 194.581 189.267 194.746C193.07 196.441 197.141 197.288 201.481 197.288C208.714 197.288 212.331 194.911 212.331 190.158C212.331 188.918 211.856 187.885 210.905 187.058C209.996 186.231 208.859 185.591 207.495 185.136C206.131 184.64 204.188 184.061 201.667 183.4C198.319 182.532 195.612 181.705 193.545 180.92C191.478 180.093 189.701 178.874 188.213 177.262C186.725 175.65 185.981 173.501 185.981 170.814C185.981 168.458 186.601 166.329 187.841 164.428C189.081 162.485 190.9 160.956 193.297 159.84C195.736 158.683 198.65 158.104 202.039 158.104C206.586 158.104 210.698 158.786 214.377 160.15C215.534 160.563 216.113 161.39 216.113 162.63C216.113 163.291 215.886 163.891 215.431 164.428C214.976 164.965 214.377 165.234 213.633 165.234C213.385 165.234 213.054 165.151 212.641 164.986C209.417 163.87 206.09 163.312 202.659 163.312C199.394 163.312 196.728 163.932 194.661 165.172C192.636 166.412 191.623 168.148 191.623 170.38C191.623 171.868 192.098 173.087 193.049 174.038C194.041 174.947 195.26 175.671 196.707 176.208C198.195 176.704 200.2 177.241 202.721 177.82C205.986 178.605 208.611 179.391 210.595 180.176C212.62 180.961 214.336 182.181 215.741 183.834C217.188 185.487 217.911 187.719 217.911 190.53C217.911 192.845 217.25 194.932 215.927 196.792C214.604 198.611 212.744 200.037 210.347 201.07C207.95 202.103 205.18 202.62 202.039 202.62Z" fill="white"/>
<path d="M44.1739 199.768L45.1803 198.04L44.1739 199.768ZM36.6099 191.894L34.8434 192.832L36.6099 191.894ZM33.8199 180.362L31.8203 180.324L31.8196 180.362L31.8203 180.4L33.8199 180.362ZM36.6099 168.83L38.3764 169.768L36.6099 168.83ZM44.1739 160.956L43.1675 159.228L43.1675 159.228L44.1739 160.956ZM66.9279 160.956L65.9119 162.679L65.9215 162.684L66.9279 160.956ZM74.4919 168.892L72.7207 169.821L72.7275 169.834L72.7345 169.847L74.4919 168.892ZM77.3439 180.362L79.3436 180.4L79.3443 180.362L79.3436 180.324L77.3439 180.362ZM74.4919 191.894L72.7296 190.948L72.7254 190.956L74.4919 191.894ZM66.9279 199.768L65.9215 198.04L65.9119 198.045L66.9279 199.768ZM64.1999 195.118L63.1582 193.411L64.1999 195.118ZM69.7799 189.042L71.5688 189.936V189.936L69.7799 189.042ZM69.7799 171.682L71.5688 170.788V170.788L69.7799 171.682ZM64.1999 165.606L63.1582 167.313L64.1999 165.606ZM46.9019 165.606L45.8602 163.899L45.8537 163.903L45.8472 163.907L46.9019 165.606ZM41.3839 171.682L39.5951 170.788L41.3839 171.682ZM41.3839 189.042L39.5951 189.936L41.3839 189.042ZM46.9019 195.118L45.8472 196.817L45.8537 196.821L45.8602 196.825L46.9019 195.118ZM55.5819 200.62C51.5422 200.62 48.0971 199.738 45.1803 198.04L43.1675 201.496C46.7814 203.601 50.9417 204.62 55.5819 204.62V200.62ZM45.1803 198.04C42.2381 196.326 39.9796 193.976 38.3764 190.956L34.8434 192.832C36.7949 196.508 39.579 199.407 43.1675 201.496L45.1803 198.04ZM38.3764 190.956C36.7665 187.923 35.8971 184.396 35.8196 180.324L31.8203 180.4C31.9081 185.008 32.8987 189.169 34.8434 192.832L38.3764 190.956ZM35.8196 180.4C35.8971 176.328 36.7665 172.801 38.3764 169.768L34.8434 167.892C32.8987 171.555 31.9081 175.716 31.8203 180.324L35.8196 180.4ZM38.3764 169.768C39.9796 166.748 42.2381 164.398 45.1803 162.684L43.1675 159.228C39.579 161.317 36.7949 164.216 34.8434 167.892L38.3764 169.768ZM45.1803 162.684C48.0971 160.986 51.5422 160.104 55.5819 160.104V156.104C50.9417 156.104 46.7814 157.123 43.1675 159.228L45.1803 162.684ZM55.5819 160.104C59.6224 160.104 63.042 160.986 65.912 162.679L67.9439 159.233C64.3659 157.123 60.2215 156.104 55.5819 156.104V160.104ZM65.9215 162.684C68.8574 164.394 71.1157 166.76 72.7207 169.821L76.2632 167.963C74.3135 164.245 71.5291 161.321 67.9343 159.228L65.9215 162.684ZM72.7345 169.847C74.3815 172.879 75.267 176.381 75.3443 180.4L79.3436 180.324C79.2555 175.746 78.2397 171.601 76.2494 167.937L72.7345 169.847ZM75.3443 180.324C75.267 184.343 74.3815 187.87 72.7296 190.948L76.2542 192.84C78.2397 189.139 79.2555 184.978 79.3436 180.4L75.3443 180.324ZM72.7254 190.956C71.1223 193.976 68.8637 196.326 65.9215 198.04L67.9343 201.496C71.5228 199.407 74.3069 196.508 76.2584 192.832L72.7254 190.956ZM65.9119 198.045C63.042 199.738 59.6223 200.62 55.5819 200.62V204.62C60.2215 204.62 64.3659 203.601 67.9439 201.491L65.9119 198.045ZM55.5819 199.35C59.1973 199.35 62.4425 198.533 65.2417 196.825L63.1582 193.411C61.08 194.679 58.5799 195.35 55.5819 195.35V199.35ZM65.2417 196.825C68.0017 195.141 70.1201 192.834 71.5688 189.936L67.9911 188.148C66.8771 190.376 65.2755 192.119 63.1582 193.411L65.2417 196.825ZM71.5688 189.936C73.0055 187.063 73.7019 183.857 73.7019 180.362H69.7019C69.7019 183.315 69.117 185.896 67.9911 188.148L71.5688 189.936ZM73.7019 180.362C73.7019 176.867 73.0055 173.661 71.5688 170.788L67.9911 172.576C69.117 174.828 69.7019 177.409 69.7019 180.362H73.7019ZM71.5688 170.788C70.1201 167.89 68.0017 165.583 65.2417 163.899L63.1582 167.313C65.2755 168.605 66.8771 170.348 67.9911 172.576L71.5688 170.788ZM65.2417 163.899C62.4425 162.191 59.1973 161.374 55.5819 161.374V165.374C58.5799 165.374 61.08 166.045 63.1582 167.313L65.2417 163.899ZM55.5819 161.374C51.9304 161.374 48.6631 162.188 45.8602 163.899L47.9436 167.313C50.0181 166.048 52.5374 165.374 55.5819 165.374V161.374ZM45.8472 163.907C43.1303 165.593 41.0392 167.899 39.5951 170.788L43.1728 172.576C44.2913 170.339 45.8789 168.595 47.9566 167.305L45.8472 163.907ZM39.5951 170.788C38.1583 173.661 37.4619 176.867 37.4619 180.362H41.4619C41.4619 177.409 42.0468 174.828 43.1728 172.576L39.5951 170.788ZM37.4619 180.362C37.4619 183.857 38.1583 187.063 39.5951 189.936L43.1728 188.148C42.0468 185.896 41.4619 183.315 41.4619 180.362H37.4619ZM39.5951 189.936C41.0392 192.825 43.1303 195.131 45.8472 196.817L47.9566 193.419C45.8789 192.129 44.2913 190.385 43.1728 188.148L39.5951 189.936ZM45.8602 196.825C48.6631 198.536 51.9304 199.35 55.5819 199.35V195.35C52.5374 195.35 50.0181 194.676 47.9436 193.411L45.8602 196.825ZM91.8844 201.504L93.2986 200.09L91.8844 201.504ZM91.8844 159.592L93.2986 161.006L93.3248 160.98L93.35 160.953L91.8844 159.592ZM117.614 160.708L118.556 158.943L117.614 160.708ZM122.946 165.792L121.172 166.715L122.946 165.792ZM122.946 179.184L121.172 178.261V178.261L122.946 179.184ZM117.614 184.268L118.556 186.033L117.614 184.268ZM96.7204 186.252V184.252H94.7204V186.252H96.7204ZM95.8524 201.504L94.4915 200.038L94.4643 200.064L94.4382 200.09L95.8524 201.504ZM116.312 178.502L114.951 177.036L114.943 177.045L114.934 177.053L116.312 178.502ZM116.312 166.474L114.934 167.923L114.943 167.931L114.951 167.94L116.312 166.474ZM96.7204 164.056V162.056H94.7204V164.056H96.7204ZM96.7204 180.92H94.7204V182.92H96.7204V180.92ZM93.8684 200.31C93.5936 200.31 93.4471 200.238 93.2986 200.09L90.4702 202.918C91.3964 203.844 92.5724 204.31 93.8684 204.31V200.31ZM93.2986 200.09C93.1501 199.941 93.0784 199.795 93.0784 199.52H89.0784C89.0784 200.816 89.544 201.992 90.4702 202.918L93.2986 200.09ZM93.0784 199.52V161.576H89.0784V199.52H93.0784ZM93.0784 161.576C93.0784 161.301 93.1501 161.155 93.2986 161.006L90.4702 158.178C89.544 159.104 89.0784 160.28 89.0784 161.576H93.0784ZM93.35 160.953C93.5113 160.779 93.6427 160.724 93.8684 160.724V156.724C92.5234 156.724 91.3322 157.247 90.4188 158.231L93.35 160.953ZM93.8684 160.724H108.004V156.724H93.8684V160.724ZM108.004 160.724C111.726 160.724 114.575 161.354 116.673 162.473L118.556 158.943C115.694 157.417 112.136 156.724 108.004 156.724V160.724ZM116.673 162.473C118.872 163.645 120.319 165.075 121.172 166.715L124.721 164.869C123.424 162.376 121.317 160.416 118.556 158.943L116.673 162.473ZM121.172 166.715C122.094 168.488 122.558 170.402 122.558 172.488H126.558C126.558 169.779 125.948 167.229 124.721 164.869L121.172 166.715ZM122.558 172.488C122.558 174.574 122.094 176.488 121.172 178.261L124.721 180.107C125.948 177.747 126.558 175.197 126.558 172.488H122.558ZM121.172 178.261C120.319 179.901 118.872 181.331 116.673 182.503L118.556 186.033C121.317 184.56 123.424 182.6 124.721 180.107L121.172 178.261ZM116.673 182.503C114.575 183.622 111.726 184.252 108.004 184.252V188.252C112.136 188.252 115.694 187.559 118.556 186.033L116.673 182.503ZM108.004 184.252H96.7204V188.252H108.004V184.252ZM94.7204 186.252V199.52H98.7204V186.252H94.7204ZM94.7204 199.52C94.7204 199.746 94.6652 199.877 94.4915 200.038L97.2133 202.97C98.1969 202.056 98.7204 200.865 98.7204 199.52H94.7204ZM94.4382 200.09C94.2897 200.238 94.1431 200.31 93.8684 200.31V204.31C95.1643 204.31 96.3404 203.844 97.2666 202.918L94.4382 200.09ZM107.446 182.92C111.802 182.92 115.422 182.11 117.691 179.951L114.934 177.053C113.814 178.118 111.522 178.92 107.446 178.92V182.92ZM117.673 179.968C119.822 177.972 120.916 175.434 120.916 172.488H116.916C116.916 174.337 116.274 175.808 114.951 177.036L117.673 179.968ZM120.916 172.488C120.916 169.542 119.822 167.004 117.673 165.008L114.951 167.94C116.274 169.168 116.916 170.639 116.916 172.488H120.916ZM117.691 165.025C115.422 162.866 111.802 162.056 107.446 162.056V166.056C111.522 166.056 113.814 166.858 114.934 167.923L117.691 165.025ZM107.446 162.056H96.7204V166.056H107.446V162.056ZM94.7204 164.056V180.92H98.7204V164.056H94.7204ZM96.7204 182.92H107.446V178.92H96.7204V182.92ZM146.065 200.76L145.237 202.581L146.065 200.76ZM139.369 195.118L137.713 196.24L137.717 196.246L137.721 196.252L139.369 195.118ZM137.571 159.282L138.985 160.696L139.011 160.67L139.036 160.643L137.571 159.282ZM141.539 159.282L140.073 160.643L140.123 160.697L140.178 160.748L141.539 159.282ZM144.081 192.266L142.398 193.348L142.407 193.362L142.417 193.375L144.081 192.266ZM148.607 196.172L149.452 194.36L148.607 196.172ZM160.511 196.172L161.356 197.984L160.511 196.172ZM164.975 192.266L163.311 191.157L163.301 191.17L163.292 191.184L164.975 192.266ZM167.517 159.282L168.931 160.696L168.957 160.67L168.982 160.643L167.517 159.282ZM171.485 159.282L170.019 160.643L170.069 160.697L170.124 160.748L171.485 159.282ZM169.749 195.118L171.396 196.252L171.4 196.246L171.404 196.24L169.749 195.118ZM163.053 200.76L163.88 202.581L163.053 200.76ZM154.559 200.62C151.916 200.62 149.366 200.064 146.892 198.939L145.237 202.581C148.219 203.936 151.332 204.62 154.559 204.62V200.62ZM146.892 198.939C144.502 197.853 142.551 196.213 141.016 193.984L137.721 196.252C139.659 199.066 142.171 201.187 145.237 202.581L146.892 198.939ZM141.024 193.996C139.552 191.823 138.765 189.112 138.765 185.756H134.765C134.765 189.758 135.713 193.288 137.713 196.24L141.024 193.996ZM138.765 185.756V161.266H134.765V185.756H138.765ZM138.765 161.266C138.765 160.991 138.836 160.845 138.985 160.696L136.156 157.868C135.23 158.794 134.765 159.97 134.765 161.266H138.765ZM139.036 160.643C139.197 160.469 139.329 160.414 139.555 160.414V156.414C138.21 156.414 137.018 156.937 136.105 157.921L139.036 160.643ZM139.555 160.414C139.78 160.414 139.912 160.469 140.073 160.643L143.004 157.921C142.091 156.937 140.9 156.414 139.555 156.414V160.414ZM140.178 160.748C140.351 160.909 140.407 161.04 140.407 161.266H144.407C144.407 159.921 143.883 158.73 142.9 157.816L140.178 160.748ZM140.407 161.266V185.942H144.407V161.266H140.407ZM140.407 185.942C140.407 188.727 141.036 191.229 142.398 193.348L145.763 191.184C144.893 189.831 144.407 188.117 144.407 185.942H140.407ZM142.417 193.375C143.774 195.411 145.563 196.959 147.761 197.984L149.452 194.36C147.93 193.649 146.702 192.593 145.745 191.157L142.417 193.375ZM147.761 197.984C149.893 198.979 152.167 199.474 154.559 199.474V195.474C152.735 195.474 151.04 195.101 149.452 194.36L147.761 197.984ZM154.559 199.474C156.951 199.474 159.224 198.979 161.356 197.984L159.665 194.36C158.077 195.101 156.383 195.474 154.559 195.474V199.474ZM161.356 197.984C163.561 196.956 165.338 195.399 166.657 193.348L163.292 191.184C162.379 192.605 161.181 193.652 159.665 194.36L161.356 197.984ZM166.639 193.375C168.054 191.253 168.711 188.741 168.711 185.942H164.711C164.711 188.103 164.21 189.807 163.311 191.157L166.639 193.375ZM168.711 185.942V161.266H164.711V185.942H168.711ZM168.711 161.266C168.711 160.991 168.782 160.845 168.931 160.696L166.102 157.868C165.176 158.794 164.711 159.97 164.711 161.266H168.711ZM168.982 160.643C169.143 160.469 169.275 160.414 169.501 160.414V156.414C168.156 156.414 166.964 156.937 166.051 157.921L168.982 160.643ZM169.501 160.414C169.726 160.414 169.858 160.469 170.019 160.643L172.95 157.921C172.037 156.937 170.846 156.414 169.501 156.414V160.414ZM170.124 160.748C170.297 160.909 170.353 161.04 170.353 161.266H174.353C174.353 159.921 173.829 158.73 172.846 157.816L170.124 160.748ZM170.353 161.266V185.756H174.353V161.266H170.353ZM170.353 185.756C170.353 189.112 169.565 191.823 168.093 193.996L171.404 196.24C173.404 193.288 174.353 189.758 174.353 185.756H170.353ZM168.101 193.984C166.567 196.213 164.615 197.853 162.225 198.939L163.88 202.581C166.946 201.187 169.459 199.066 171.396 196.252L168.101 193.984ZM162.225 198.939C159.751 200.064 157.202 200.62 154.559 200.62V204.62C157.785 204.62 160.898 203.936 163.88 202.581L162.225 198.939ZM187.283 199.644L188.077 197.808L188.065 197.803L188.052 197.798L187.283 199.644ZM186.043 198.652L184.379 199.761L184.402 199.795L184.426 199.828L186.043 198.652ZM186.229 195.304L184.759 193.947L184.755 193.953L186.229 195.304ZM189.267 194.746L190.081 192.919L190.079 192.918L189.267 194.746ZM210.905 187.058L209.56 188.538L209.576 188.553L209.593 188.567L210.905 187.058ZM207.495 185.136L206.812 187.016L206.837 187.025L206.863 187.033L207.495 185.136ZM201.667 183.4L202.174 181.465L202.169 181.464L201.667 183.4ZM193.545 180.92L192.802 182.777L192.818 182.783L192.835 182.79L193.545 180.92ZM188.213 177.262L186.743 178.619L188.213 177.262ZM187.841 164.428L189.516 165.521L189.522 165.512L189.527 165.504L187.841 164.428ZM193.297 159.84L194.141 161.653L194.148 161.65L194.154 161.647L193.297 159.84ZM214.377 160.15L213.682 162.025L213.693 162.029L213.704 162.033L214.377 160.15ZM215.431 164.428L216.958 165.72L216.958 165.72L215.431 164.428ZM212.641 164.986L213.384 163.129L213.34 163.111L213.295 163.096L212.641 164.986ZM194.661 165.172L193.632 163.457L193.624 163.462L193.617 163.466L194.661 165.172ZM193.049 174.038L191.635 175.452L191.666 175.483L191.698 175.512L193.049 174.038ZM196.707 176.208L196.011 178.083L196.042 178.095L196.075 178.105L196.707 176.208ZM202.721 177.82L203.189 175.875L203.179 175.873L203.168 175.871L202.721 177.82ZM210.595 180.176L209.859 182.036L209.872 182.041L210.595 180.176ZM215.741 183.834L214.217 185.129L214.226 185.14L214.236 185.151L215.741 183.834ZM215.927 196.792L217.544 197.968L217.551 197.96L217.557 197.951L215.927 196.792ZM210.347 201.07L211.139 202.907L210.347 201.07ZM202.039 200.62C197.049 200.62 192.402 199.679 188.077 197.808L186.489 201.48C191.34 203.577 196.531 204.62 202.039 204.62V200.62ZM188.052 197.798C187.911 197.739 187.786 197.648 187.66 197.476L184.426 199.828C184.962 200.566 185.663 201.136 186.514 201.49L188.052 197.798ZM187.707 197.543C187.571 197.338 187.547 197.202 187.547 197.102H183.547C183.547 198.077 183.854 198.974 184.379 199.761L187.707 197.543ZM187.547 197.102C187.547 196.875 187.603 196.765 187.703 196.655L184.755 193.953C183.946 194.835 183.547 195.923 183.547 197.102H187.547ZM187.699 196.661C187.809 196.541 187.892 196.498 188.089 196.498V192.498C186.798 192.498 185.641 192.992 184.759 193.947L187.699 196.661ZM188.089 196.498C188.227 196.498 188.342 196.524 188.455 196.574L190.079 192.918C189.448 192.638 188.778 192.498 188.089 192.498V196.498ZM188.453 196.573C192.523 198.387 196.873 199.288 201.481 199.288V195.288C197.409 195.288 193.617 194.495 190.081 192.919L188.453 196.573ZM201.481 199.288C205.253 199.288 208.43 198.68 210.717 197.177C213.15 195.578 214.331 193.13 214.331 190.158H210.331C210.331 191.94 209.703 193.057 208.52 193.834C207.191 194.708 204.942 195.288 201.481 195.288V199.288ZM214.331 190.158C214.331 188.329 213.597 186.748 212.217 185.549L209.593 188.567C210.115 189.021 210.331 189.507 210.331 190.158H214.331ZM212.25 185.578C211.103 184.535 209.711 183.767 208.127 183.239L206.863 187.033C208.007 187.415 208.888 187.928 209.56 188.538L212.25 185.578ZM208.178 183.256C206.728 182.729 204.717 182.132 202.174 181.465L201.16 185.335C203.66 185.99 205.534 186.551 206.812 187.016L208.178 183.256ZM202.169 181.464C198.857 180.605 196.227 179.8 194.255 179.05L192.835 182.79C194.996 183.611 197.781 184.459 201.165 185.336L202.169 181.464ZM194.288 179.063C192.493 178.345 190.966 177.295 189.683 175.905L186.743 178.619C188.436 180.453 190.463 181.841 192.802 182.777L194.288 179.063ZM189.683 175.905C188.608 174.742 187.981 173.117 187.981 170.814H183.981C183.981 173.885 184.842 176.558 186.743 178.619L189.683 175.905ZM187.981 170.814C187.981 168.83 188.496 167.084 189.516 165.521L186.166 163.335C184.706 165.575 183.981 168.086 183.981 170.814H187.981ZM189.527 165.504C190.533 163.927 192.037 162.633 194.141 161.653L192.453 158.027C189.763 159.279 187.629 161.043 186.155 163.352L189.527 165.504ZM194.154 161.647C196.266 160.645 198.873 160.104 202.039 160.104V156.104C198.427 156.104 195.206 156.72 192.44 158.033L194.154 161.647ZM202.039 160.104C206.385 160.104 210.258 160.756 213.682 162.025L215.072 158.275C211.139 156.816 206.786 156.104 202.039 156.104V160.104ZM213.704 162.033C213.979 162.132 214.037 162.222 214.041 162.227C214.045 162.234 214.113 162.325 214.113 162.63H218.113C218.113 161.695 217.891 160.753 217.317 159.933C216.743 159.112 215.932 158.582 215.05 158.267L213.704 162.033ZM214.113 162.63C214.113 162.786 214.075 162.935 213.904 163.136L216.958 165.72C217.697 164.847 218.113 163.796 218.113 162.63H214.113ZM213.904 163.136C213.856 163.193 213.83 163.204 213.822 163.207C213.812 163.212 213.76 163.234 213.633 163.234V167.234C214.927 167.234 216.099 166.735 216.958 165.72L213.904 163.136ZM213.633 163.234C213.721 163.234 213.745 163.247 213.684 163.232C213.628 163.218 213.53 163.188 213.384 163.129L211.898 166.843C212.39 167.04 213.003 167.234 213.633 167.234V163.234ZM213.295 163.096C209.86 161.907 206.311 161.312 202.659 161.312V165.312C205.868 165.312 208.974 165.833 211.987 166.876L213.295 163.096ZM202.659 161.312C199.155 161.312 196.101 161.976 193.632 163.457L195.69 166.887C197.354 165.888 199.632 165.312 202.659 165.312V161.312ZM193.617 163.466C191.044 165.042 189.623 167.4 189.623 170.38H193.623C193.623 168.896 194.228 167.782 195.705 166.878L193.617 163.466ZM189.623 170.38C189.623 172.336 190.267 174.085 191.635 175.452L194.463 172.624C193.929 172.09 193.623 171.4 193.623 170.38H189.623ZM191.698 175.512C192.906 176.62 194.357 177.469 196.011 178.083L197.403 174.333C196.164 173.873 195.176 173.275 194.4 172.564L191.698 175.512ZM196.075 178.105C197.65 178.63 199.724 179.184 202.274 179.769L203.168 175.871C200.675 175.298 198.74 174.778 197.339 174.311L196.075 178.105ZM202.253 179.765C205.473 180.539 207.997 181.299 209.859 182.036L211.331 178.316C209.225 177.483 206.5 176.672 203.189 175.875L202.253 179.765ZM209.872 182.041C211.587 182.706 213.027 183.73 214.217 185.129L217.265 182.539C215.644 180.632 213.653 179.217 211.318 178.311L209.872 182.041ZM214.236 185.151C215.283 186.347 215.911 188.065 215.911 190.53H219.911C219.911 187.374 219.093 184.627 217.246 182.517L214.236 185.151ZM215.911 190.53C215.911 192.436 215.375 194.117 214.297 195.633L217.557 197.951C219.124 195.747 219.911 193.254 219.911 190.53H215.911ZM214.31 195.616C213.23 197.1 211.677 198.319 209.555 199.233L211.139 202.907C213.812 201.754 215.979 200.121 217.544 197.968L214.31 195.616ZM209.555 199.233C207.453 200.139 204.962 200.62 202.039 200.62V204.62C205.398 204.62 208.446 204.067 211.139 202.907L209.555 199.233Z" fill="white"/>
<g filter="url(#filter1_d_204_346)">
<path d="M272 102H192C179.85 102 170 92.1503 170 80V0L272 102Z" fill="url(#paint2_linear_204_346)"/>
</g>
</g>
<defs>
<filter id="filter0_f_204_346" x="9" y="110" width="256" height="162" filterUnits="userSpaceOnUse" color-interpolation-filters="sRGB">
<feFlood flood-opacity="0" result="BackgroundImageFix"/>
<feBlend mode="normal" in="SourceGraphic" in2="BackgroundImageFix" result="shape"/>
<feGaussianBlur stdDeviation="19.5" result="effect1_foregroundBlur_204_346"/>
</filter>
<filter id="filter1_d_204_346" x="147" y="-24" width="152" height="152" filterUnits="userSpaceOnUse" color-interpolation-filters="sRGB">
<feFlood flood-opacity="0" result="BackgroundImageFix"/>
<feColorMatrix in="SourceAlpha" type="matrix" values="0 0 0 0 0 0 0 0 0 0 0 0 0 0 0 0 0 0 127 0" result="hardAlpha"/>
<feOffset dx="2" dy="1"/>
<feGaussianBlur stdDeviation="12.5"/>
<feColorMatrix type="matrix" values="0 0 0 0 0 0 0 0 0 0 0 0 0 0 0 0 0 0 0.33 0"/>
<feBlend mode="normal" in2="BackgroundImageFix" result="effect1_dropShadow_204_346"/>
<feBlend mode="normal" in="SourceGraphic" in2="effect1_dropShadow_204_346" result="shape"/>
</filter>
<linearGradient id="paint0_linear_204_346" x1="136" y1="0" x2="136" y2="308" gradientUnits="userSpaceOnUse">
<stop stop-color="#FF7979"/>
<stop offset="1" stop-color="#E85555"/>
</linearGradient>
<linearGradient id="paint1_linear_204_346" x1="136" y1="0" x2="136" y2="308" gradientUnits="userSpaceOnUse">
<stop stop-color="#7CA9FF"/>
<stop offset="1" stop-color="#4377DC"/>
</linearGradient>
<linearGradient id="paint2_linear_204_346" x1="221" y1="0" x2="221" y2="102" gradientUnits="userSpaceOnUse">
<stop stop-color="#4B7BF7"/>
<stop offset="1" stop-color="#1A4DD1"/>
</linearGradient>
</defs>
</svg>
