<svg width="272" height="308" viewBox="0 0 272 308" fill="none" xmlns="http://www.w3.org/2000/svg">
<mask id="mask0_204_553" style="mask-type:alpha" maskUnits="userSpaceOnUse" x="0" y="0" width="272" height="308">
<path d="M250 308H22C9.84974 308 0 298.15 0 286V22C0 9.84974 9.84974 0 22 0H170L272 102V286C272 298.15 262.15 308 250 308Z" fill="url(#paint0_linear_204_553)"/>
</mask>
<g mask="url(#mask0_204_553)">
<path d="M250 308H22C9.84974 308 0 298.15 0 286V22C0 9.84974 9.84974 0 22 0H170L272 102V286C272 298.15 262.15 308 250 308Z" fill="url(#paint1_linear_204_553)"/>
<g opacity="0.26" filter="url(#filter0_f_204_553)">
<rect x="48" y="149" width="178" height="84" fill="#E66000" style="mix-blend-mode:darken"/>
</g>
<path d="M100.506 217.395C99.4523 217.395 98.5833 217.053 97.8986 216.368C97.2666 215.683 96.9506 214.841 96.9506 213.84C96.9506 213.419 97.0823 212.892 97.3456 212.26L117.491 164.702C117.912 163.754 118.491 162.99 119.229 162.411C120.019 161.779 120.967 161.463 122.073 161.463H122.863C123.969 161.463 124.89 161.779 125.628 162.411C126.418 162.99 127.023 163.754 127.445 164.702L147.59 212.26C147.853 212.892 147.985 213.419 147.985 213.84C147.985 214.841 147.642 215.683 146.958 216.368C146.326 217.053 145.483 217.395 144.43 217.395C143.692 217.395 143.008 217.211 142.376 216.842C141.796 216.421 141.349 215.868 141.033 215.183L135.898 202.859H109.038L103.903 215.183C103.587 215.868 103.113 216.421 102.481 216.842C101.901 217.211 101.243 217.395 100.506 217.395ZM111.803 196.302H133.133L122.468 170.627L111.803 196.302ZM168.69 217.395C167.689 217.395 166.847 217.053 166.162 216.368C165.477 215.683 165.135 214.841 165.135 213.84V165.097C165.135 164.096 165.477 163.254 166.162 162.569C166.847 161.832 167.689 161.463 168.69 161.463C169.691 161.463 170.533 161.832 171.218 162.569C171.955 163.254 172.324 164.096 172.324 165.097V213.84C172.324 214.841 171.955 215.683 171.218 216.368C170.533 217.053 169.691 217.395 168.69 217.395Z" fill="white"/>
<path d="M97.8986 216.368L96.429 217.725L96.4561 217.754L96.4844 217.782L97.8986 216.368ZM97.3456 212.26L95.504 211.48L95.4995 211.491L97.3456 212.26ZM117.491 164.702L115.663 163.89L115.656 163.906L115.649 163.922L117.491 164.702ZM119.229 162.411L120.464 163.984L120.471 163.978L120.478 163.973L119.229 162.411ZM125.628 162.411L124.326 163.93L124.384 163.979L124.445 164.024L125.628 162.411ZM127.445 164.702L129.286 163.922L129.279 163.906L129.272 163.89L127.445 164.702ZM147.59 212.26L149.436 211.491L149.431 211.48L147.59 212.26ZM146.958 216.368L145.543 214.954L145.515 214.982L145.488 215.011L146.958 216.368ZM142.376 216.842L141.199 218.459L141.281 218.519L141.368 218.57L142.376 216.842ZM141.033 215.183L139.186 215.952L139.201 215.987L139.217 216.021L141.033 215.183ZM135.898 202.859L137.744 202.09L137.231 200.859H135.898V202.859ZM109.038 202.859V200.859H107.704L107.191 202.09L109.038 202.859ZM103.903 215.183L105.719 216.021L105.734 215.987L105.749 215.952L103.903 215.183ZM102.481 216.842L103.554 218.529L103.572 218.518L103.59 218.506L102.481 216.842ZM111.803 196.302L109.956 195.535L108.806 198.302H111.803V196.302ZM133.133 196.302V198.302H136.129L134.98 195.535L133.133 196.302ZM122.468 170.627L124.315 169.86L122.468 165.413L120.621 169.86L122.468 170.627ZM100.506 215.395C99.9314 215.395 99.5876 215.229 99.3128 214.954L96.4844 217.782C97.579 218.877 98.9732 219.395 100.506 219.395V215.395ZM99.3682 215.011C99.1038 214.725 98.9506 214.379 98.9506 213.84H94.9506C94.9506 215.303 95.4294 216.642 96.429 217.725L99.3682 215.011ZM98.9506 213.84C98.9506 213.797 98.9743 213.551 99.1918 213.029L95.4995 211.491C95.1903 212.233 94.9506 213.041 94.9506 213.84H98.9506ZM99.1872 213.04L119.332 165.482L115.649 163.922L95.504 211.48L99.1872 213.04ZM119.318 165.514C119.622 164.832 120.01 164.341 120.464 163.984L117.993 160.838C116.973 161.64 116.202 162.676 115.663 163.89L119.318 165.514ZM120.478 163.973C120.88 163.651 121.376 163.463 122.073 163.463V159.463C120.558 159.463 119.158 159.907 117.979 160.849L120.478 163.973ZM122.073 163.463H122.863V159.463H122.073V163.463ZM122.863 163.463C123.562 163.463 124.001 163.651 124.326 163.93L126.929 160.892C125.779 159.907 124.376 159.463 122.863 159.463V163.463ZM124.445 164.024C124.937 164.385 125.329 164.865 125.617 165.514L129.272 163.89C128.718 162.643 127.898 161.596 126.81 160.798L124.445 164.024ZM125.603 165.482L145.748 213.04L149.431 211.48L129.286 163.922L125.603 165.482ZM145.743 213.029C145.961 213.551 145.985 213.797 145.985 213.84H149.985C149.985 213.041 149.745 212.233 149.436 211.491L145.743 213.029ZM145.985 213.84C145.985 214.33 145.839 214.658 145.543 214.954L148.372 217.782C149.445 216.709 149.985 215.351 149.985 213.84H145.985ZM145.488 215.011C145.286 215.23 145.005 215.395 144.43 215.395V219.395C145.961 219.395 147.365 218.875 148.427 217.725L145.488 215.011ZM144.43 215.395C144.044 215.395 143.707 215.303 143.383 215.114L141.368 218.57C142.308 219.118 143.341 219.395 144.43 219.395V215.395ZM143.552 215.225C143.264 215.015 143.029 214.736 142.849 214.345L139.217 216.021C139.668 216.999 140.329 217.827 141.199 218.459L143.552 215.225ZM142.879 214.414L137.744 202.09L134.051 203.628L139.186 215.952L142.879 214.414ZM135.898 200.859H109.038V204.859H135.898V200.859ZM107.191 202.09L102.056 214.414L105.749 215.952L110.884 203.628L107.191 202.09ZM102.087 214.345C101.927 214.692 101.698 214.96 101.371 215.178L103.59 218.506C104.527 217.882 105.247 217.044 105.719 216.021L102.087 214.345ZM101.407 215.155C101.172 215.304 100.892 215.395 100.506 215.395V219.395C101.594 219.395 102.63 219.117 103.554 218.529L101.407 215.155ZM111.803 198.302H133.133V194.302H111.803V198.302ZM134.98 195.535L124.315 169.86L120.621 171.394L131.286 197.069L134.98 195.535ZM120.621 169.86L109.956 195.535L113.65 197.069L124.315 171.394L120.621 169.86ZM166.162 216.368L167.576 214.954L166.162 216.368ZM166.162 162.569L167.576 163.983L167.602 163.957L167.628 163.93L166.162 162.569ZM171.218 162.569L169.752 163.93L169.803 163.984L169.857 164.035L171.218 162.569ZM171.218 216.368L169.857 214.902L169.83 214.928L169.804 214.954L171.218 216.368ZM168.69 215.395C168.2 215.395 167.872 215.25 167.576 214.954L164.748 217.782C165.821 218.856 167.179 219.395 168.69 219.395V215.395ZM167.576 214.954C167.28 214.658 167.135 214.33 167.135 213.84H163.135C163.135 215.351 163.674 216.709 164.748 217.782L167.576 214.954ZM167.135 213.84V165.097H163.135V213.84H167.135ZM167.135 165.097C167.135 164.607 167.28 164.279 167.576 163.983L164.748 161.155C163.674 162.228 163.135 163.586 163.135 165.097H167.135ZM167.628 163.93C167.936 163.598 168.249 163.463 168.69 163.463V159.463C167.13 159.463 165.757 160.066 164.696 161.208L167.628 163.93ZM168.69 163.463C169.131 163.463 169.444 163.598 169.752 163.93L172.684 161.208C171.623 160.066 170.25 159.463 168.69 159.463V163.463ZM169.857 164.035C170.189 164.343 170.324 164.656 170.324 165.097H174.324C174.324 163.537 173.721 162.164 172.579 161.103L169.857 164.035ZM170.324 165.097V213.84H174.324V165.097H170.324ZM170.324 213.84C170.324 214.281 170.189 214.594 169.857 214.902L172.579 217.834C173.721 216.773 174.324 215.4 174.324 213.84H170.324ZM169.804 214.954C169.508 215.25 169.18 215.395 168.69 215.395V219.395C170.201 219.395 171.559 218.856 172.632 217.782L169.804 214.954Z" fill="white"/>
<g filter="url(#filter1_d_204_553)">
<path d="M272 102H192C179.85 102 170 92.1503 170 80V0L272 102Z" fill="url(#paint2_linear_204_553)"/>
</g>
</g>
<mask id="mask1_204_553" style="mask-type:alpha" maskUnits="userSpaceOnUse" x="0" y="0" width="272" height="308">
<path d="M250 308H22C9.84974 308 0 298.15 0 286V22C0 9.84974 9.84974 0 22 0H170L272 102V286C272 298.15 262.15 308 250 308Z" fill="url(#paint3_linear_204_553)"/>
</mask>
<g mask="url(#mask1_204_553)">
<path d="M250 308H22C9.84974 308 0 298.15 0 286V22C0 9.84974 9.84974 0 22 0H170L272 102V286C272 298.15 262.15 308 250 308Z" fill="url(#paint4_linear_204_553)"/>
<g opacity="0.26" filter="url(#filter2_f_204_553)">
<rect x="48" y="149" width="178" height="84" fill="#E66000" style="mix-blend-mode:darken"/>
</g>
<path d="M73.1964 202.31C72.4111 202.31 71.7498 202.041 71.2124 201.504C70.6751 200.967 70.4064 200.305 70.4064 199.52V161.576C70.4064 160.791 70.6751 160.129 71.2124 159.592C71.7498 159.013 72.4111 158.724 73.1964 158.724H87.6424C93.2638 158.724 97.4798 159.881 100.29 162.196C103.101 164.511 104.506 167.549 104.506 171.31C104.506 173.79 103.804 176.063 102.398 178.13C101.034 180.155 99.0298 181.623 96.3844 182.532C99.3604 183.317 101.386 185.177 102.46 188.112C103.576 191.005 104.134 193.857 104.134 196.668V199.52C104.134 200.305 103.866 200.967 103.328 201.504C102.791 202.041 102.13 202.31 101.344 202.31C100.476 202.31 99.7738 202.062 99.2364 201.566C98.7404 201.029 98.4924 200.347 98.4924 199.52V197.66C98.4924 195.593 98.3064 193.692 97.9344 191.956C97.5624 190.179 96.6738 188.608 95.2684 187.244C93.8631 185.839 91.7344 185.136 88.8824 185.136H76.0484V199.52C76.0484 200.305 75.7591 200.967 75.1804 201.504C74.6431 202.041 73.9818 202.31 73.1964 202.31ZM87.2704 179.804C90.8251 179.804 93.6358 179.101 95.7024 177.696C97.8104 176.291 98.8644 174.307 98.8644 171.744C98.8644 169.264 97.9551 167.363 96.1364 166.04C94.3591 164.717 91.3004 164.056 86.9604 164.056H76.0484V179.804H87.2704ZM118.761 202.31C117.934 202.31 117.252 202.041 116.715 201.504C116.219 200.967 115.971 200.305 115.971 199.52C115.971 199.189 116.074 198.776 116.281 198.28L132.091 160.956C132.422 160.212 132.876 159.613 133.455 159.158C134.075 158.662 134.819 158.414 135.687 158.414H136.307C137.175 158.414 137.898 158.662 138.477 159.158C139.097 159.613 139.572 160.212 139.903 160.956L155.713 198.28C155.92 198.776 156.023 199.189 156.023 199.52C156.023 200.305 155.754 200.967 155.217 201.504C154.721 202.041 154.06 202.31 153.233 202.31C152.654 202.31 152.117 202.165 151.621 201.876C151.166 201.545 150.815 201.111 150.567 200.574L146.537 190.902H125.457L121.427 200.574C121.179 201.111 120.807 201.545 120.311 201.876C119.856 202.165 119.34 202.31 118.761 202.31ZM127.627 185.756H144.367L135.997 165.606L127.627 185.756ZM172.273 202.31C171.488 202.31 170.826 202.041 170.289 201.504C169.752 200.967 169.483 200.305 169.483 199.52V161.576C169.483 160.791 169.752 160.129 170.289 159.592C170.826 159.013 171.488 158.724 172.273 158.724H186.719C192.34 158.724 196.556 159.881 199.367 162.196C202.178 164.511 203.583 167.549 203.583 171.31C203.583 173.79 202.88 176.063 201.475 178.13C200.111 180.155 198.106 181.623 195.461 182.532C198.437 183.317 200.462 185.177 201.537 188.112C202.653 191.005 203.211 193.857 203.211 196.668V199.52C203.211 200.305 202.942 200.967 202.405 201.504C201.868 202.041 201.206 202.31 200.421 202.31C199.553 202.31 198.85 202.062 198.313 201.566C197.817 201.029 197.569 200.347 197.569 199.52V197.66C197.569 195.593 197.383 193.692 197.011 191.956C196.639 190.179 195.75 188.608 194.345 187.244C192.94 185.839 190.811 185.136 187.959 185.136H175.125V199.52C175.125 200.305 174.836 200.967 174.257 201.504C173.72 202.041 173.058 202.31 172.273 202.31ZM186.347 179.804C189.902 179.804 192.712 179.101 194.779 177.696C196.887 176.291 197.941 174.307 197.941 171.744C197.941 169.264 197.032 167.363 195.213 166.04C193.436 164.717 190.377 164.056 186.037 164.056H175.125V179.804H186.347Z" fill="white"/>
<path d="M71.2124 201.504L72.6266 200.09L71.2124 201.504ZM71.2124 159.592L72.6266 161.006L72.6528 160.98L72.678 160.953L71.2124 159.592ZM100.29 162.196L101.562 160.652V160.652L100.29 162.196ZM102.398 178.13L100.745 177.005L100.74 177.013L102.398 178.13ZM96.3844 182.532L95.7343 180.641L89.4999 182.784L95.8741 184.466L96.3844 182.532ZM102.46 188.112L100.582 188.8L100.588 188.816L100.594 188.832L102.46 188.112ZM103.328 201.504L104.743 202.918L103.328 201.504ZM99.2364 201.566L97.7668 202.923L97.8211 202.981L97.8799 203.036L99.2364 201.566ZM97.9344 191.956L95.9768 192.366L95.9788 192.375L97.9344 191.956ZM95.2684 187.244L93.8542 188.658L93.8648 188.669L93.8755 188.679L95.2684 187.244ZM76.0484 185.136V183.136H74.0484V185.136H76.0484ZM75.1804 201.504L73.8195 200.038L73.7924 200.064L73.7662 200.09L75.1804 201.504ZM95.7024 177.696L94.593 176.032L94.5854 176.037L94.5778 176.042L95.7024 177.696ZM96.1364 166.04L94.9424 167.644L94.9512 167.651L94.9601 167.657L96.1364 166.04ZM76.0484 164.056V162.056H74.0484V164.056H76.0484ZM76.0484 179.804H74.0484V181.804H76.0484V179.804ZM73.1964 200.31C72.9217 200.31 72.7751 200.238 72.6266 200.09L69.7982 202.918C70.7244 203.844 71.9005 204.31 73.1964 204.31V200.31ZM72.6266 200.09C72.4782 199.941 72.4064 199.795 72.4064 199.52H68.4064C68.4064 200.816 68.872 201.992 69.7982 202.918L72.6266 200.09ZM72.4064 199.52V161.576H68.4064V199.52H72.4064ZM72.4064 161.576C72.4064 161.301 72.4782 161.155 72.6266 161.006L69.7982 158.178C68.872 159.104 68.4064 160.28 68.4064 161.576H72.4064ZM72.678 160.953C72.8393 160.779 72.9707 160.724 73.1964 160.724V156.724C71.8515 156.724 70.6602 157.247 69.7468 158.231L72.678 160.953ZM73.1964 160.724H87.6424V156.724H73.1964V160.724ZM87.6424 160.724C93.0397 160.724 96.7158 161.843 99.019 163.74L101.562 160.652C98.2437 157.92 93.4878 156.724 87.6424 156.724V160.724ZM99.019 163.74C101.351 165.66 102.506 168.124 102.506 171.31H106.506C106.506 166.974 104.851 163.361 101.562 160.652L99.019 163.74ZM102.506 171.31C102.506 173.386 101.926 175.268 100.745 177.005L104.052 179.255C105.681 176.859 106.506 174.194 106.506 171.31H102.506ZM100.74 177.013C99.6531 178.626 98.0306 179.851 95.7343 180.641L97.0346 184.423C100.029 183.394 102.416 181.685 104.057 179.247L100.74 177.013ZM95.8741 184.466C98.2064 185.081 99.7284 186.468 100.582 188.8L104.338 187.424C103.043 183.887 100.514 181.553 96.8947 180.598L95.8741 184.466ZM100.594 188.832C101.631 191.519 102.134 194.128 102.134 196.668H106.134C106.134 193.587 105.522 190.492 104.326 187.392L100.594 188.832ZM102.134 196.668V199.52H106.134V196.668H102.134ZM102.134 199.52C102.134 199.795 102.063 199.941 101.914 200.09L104.743 202.918C105.669 201.992 106.134 200.816 106.134 199.52H102.134ZM101.914 200.09C101.766 200.238 101.619 200.31 101.344 200.31V204.31C102.64 204.31 103.816 203.844 104.743 202.918L101.914 200.09ZM101.344 200.31C100.879 200.31 100.694 200.189 100.593 200.096L97.8799 203.036C98.8539 203.935 100.073 204.31 101.344 204.31V200.31ZM100.706 200.209C100.596 200.09 100.492 199.915 100.492 199.52H96.4924C96.4924 200.779 96.8847 201.967 97.7668 202.923L100.706 200.209ZM100.492 199.52V197.66H96.4924V199.52H100.492ZM100.492 197.66C100.492 195.475 100.296 193.431 99.89 191.537L95.9788 192.375C96.317 193.953 96.4924 195.712 96.4924 197.66H100.492ZM99.892 191.546C99.4318 189.348 98.3294 187.428 96.6614 185.809L93.8755 188.679C95.0181 189.788 95.6931 191.01 95.9768 192.366L99.892 191.546ZM96.6826 185.83C94.7651 183.912 92.0329 183.136 88.8824 183.136V187.136C91.436 187.136 92.9611 187.765 93.8542 188.658L96.6826 185.83ZM88.8824 183.136H76.0484V187.136H88.8824V183.136ZM74.0484 185.136V199.52H78.0484V185.136H74.0484ZM74.0484 199.52C74.0484 199.746 73.9932 199.877 73.8195 200.038L76.5413 202.97C77.525 202.056 78.0484 200.865 78.0484 199.52H74.0484ZM73.7662 200.09C73.6178 200.238 73.4712 200.31 73.1964 200.31V204.31C74.4924 204.31 75.6684 203.844 76.5946 202.918L73.7662 200.09ZM87.2704 181.804C91.0637 181.804 94.3158 181.057 96.827 179.35L94.5778 176.042C92.9557 177.145 90.5865 177.804 87.2704 177.804V181.804ZM96.8118 179.36C99.4839 177.579 100.864 174.966 100.864 171.744H96.8644C96.8644 173.647 96.1369 175.003 94.593 176.032L96.8118 179.36ZM100.864 171.744C100.864 168.7 99.7077 166.164 97.3128 164.423L94.9601 167.657C96.2025 168.561 96.8644 169.828 96.8644 171.744H100.864ZM97.3305 164.436C95.0063 162.706 91.3823 162.056 86.9604 162.056V166.056C91.2185 166.056 93.7119 166.729 94.9424 167.644L97.3305 164.436ZM86.9604 162.056H76.0484V166.056H86.9604V162.056ZM74.0484 164.056V179.804H78.0484V164.056H74.0484ZM76.0484 181.804H87.2704V177.804H76.0484V181.804ZM116.715 201.504L115.245 202.861L115.273 202.89L115.301 202.918L116.715 201.504ZM116.281 198.28L114.439 197.5L114.435 197.511L116.281 198.28ZM132.091 160.956L130.263 160.144L130.256 160.16L130.249 160.176L132.091 160.956ZM133.455 159.158L134.691 160.731L134.698 160.725L134.704 160.72L133.455 159.158ZM138.477 159.158L137.176 160.677L137.233 160.726L137.294 160.771L138.477 159.158ZM139.903 160.956L141.745 160.176L141.738 160.16L141.731 160.144L139.903 160.956ZM155.713 198.28L157.559 197.511L157.555 197.5L155.713 198.28ZM155.217 201.504L153.803 200.09L153.775 200.118L153.747 200.147L155.217 201.504ZM151.621 201.876L150.445 203.493L150.526 203.553L150.613 203.604L151.621 201.876ZM150.567 200.574L148.721 201.343L148.735 201.378L148.751 201.412L150.567 200.574ZM146.537 190.902L148.383 190.133L147.87 188.902H146.537V190.902ZM125.457 190.902V188.902H124.124L123.611 190.133L125.457 190.902ZM121.427 200.574L123.243 201.412L123.259 201.378L123.273 201.343L121.427 200.574ZM120.311 201.876L121.385 203.563L121.403 203.552L121.42 203.54L120.311 201.876ZM127.627 185.756L125.78 184.989L124.631 187.756H127.627V185.756ZM144.367 185.756V187.756H147.364L146.214 184.989L144.367 185.756ZM135.997 165.606L137.844 164.839L135.997 160.392L134.15 164.839L135.997 165.606ZM118.761 200.31C118.413 200.31 118.257 200.217 118.129 200.09L115.301 202.918C116.248 203.865 117.455 204.31 118.761 204.31V200.31ZM118.185 200.147C118.056 200.008 117.971 199.843 117.971 199.52H113.971C113.971 200.767 114.382 201.925 115.245 202.861L118.185 200.147ZM117.971 199.52C117.971 199.557 117.966 199.538 117.989 199.447C118.011 199.359 118.053 199.228 118.127 199.049L114.435 197.511C114.182 198.117 113.971 198.811 113.971 199.52H117.971ZM118.123 199.06L133.933 161.736L130.249 160.176L114.439 197.5L118.123 199.06ZM133.919 161.768C134.131 161.29 134.395 160.963 134.691 160.731L132.219 157.585C131.358 158.262 130.712 159.134 130.263 160.144L133.919 161.768ZM134.704 160.72C134.936 160.534 135.228 160.414 135.687 160.414V156.414C134.41 156.414 133.214 156.79 132.206 157.596L134.704 160.72ZM135.687 160.414H136.307V156.414H135.687V160.414ZM136.307 160.414C136.768 160.414 137.009 160.534 137.176 160.677L139.779 157.639C138.787 156.79 137.582 156.414 136.307 156.414V160.414ZM137.294 160.771C137.617 161.007 137.878 161.323 138.075 161.768L141.731 160.144C141.267 159.101 140.578 158.218 139.66 157.545L137.294 160.771ZM138.061 161.736L153.872 199.06L157.555 197.5L141.745 160.176L138.061 161.736ZM153.867 199.049C153.941 199.228 153.983 199.359 154.005 199.447C154.028 199.538 154.023 199.557 154.023 199.52H158.023C158.023 198.811 157.812 198.117 157.559 197.511L153.867 199.049ZM154.023 199.52C154.023 199.795 153.951 199.941 153.803 200.09L156.631 202.918C157.558 201.992 158.023 200.816 158.023 199.52H154.023ZM153.747 200.147C153.681 200.219 153.582 200.31 153.233 200.31V204.31C154.538 204.31 155.761 203.864 156.687 202.861L153.747 200.147ZM153.233 200.31C153.006 200.31 152.816 200.258 152.629 200.148L150.613 203.604C151.418 204.073 152.303 204.31 153.233 204.31V200.31ZM152.797 200.259C152.634 200.139 152.496 199.98 152.383 199.736L148.751 201.412C149.135 202.243 149.699 202.951 150.445 203.493L152.797 200.259ZM152.413 199.805L148.383 190.133L144.691 191.671L148.721 201.343L152.413 199.805ZM146.537 188.902H125.457V192.902H146.537V188.902ZM123.611 190.133L119.581 199.805L123.273 201.343L127.303 191.671L123.611 190.133ZM119.611 199.736C119.519 199.935 119.393 200.084 119.202 200.212L121.42 203.54C122.221 203.006 122.839 202.287 123.243 201.412L119.611 199.736ZM119.237 200.189C119.127 200.259 118.989 200.31 118.761 200.31V204.31C119.691 204.31 120.585 204.072 121.385 203.563L119.237 200.189ZM127.627 187.756H144.367V183.756H127.627V187.756ZM146.214 184.989L137.844 164.839L134.15 166.373L142.52 186.523L146.214 184.989ZM134.15 164.839L125.78 184.989L129.474 186.523L137.844 166.373L134.15 164.839ZM170.289 201.504L171.703 200.09L170.289 201.504ZM170.289 159.592L171.703 161.006L171.729 160.98L171.754 160.953L170.289 159.592ZM199.367 162.196L200.638 160.652V160.652L199.367 162.196ZM201.475 178.13L199.821 177.005L199.816 177.013L201.475 178.13ZM195.461 182.532L194.811 180.641L188.576 182.784L194.951 184.466L195.461 182.532ZM201.537 188.112L199.659 188.8L199.665 188.816L199.671 188.832L201.537 188.112ZM202.405 201.504L203.819 202.918L202.405 201.504ZM198.313 201.566L196.843 202.923L196.898 202.981L196.956 203.036L198.313 201.566ZM197.011 191.956L195.053 192.366L195.055 192.375L197.011 191.956ZM194.345 187.244L192.931 188.658L192.941 188.669L192.952 188.679L194.345 187.244ZM175.125 185.136V183.136H173.125V185.136H175.125ZM174.257 201.504L172.896 200.038L172.869 200.064L172.843 200.09L174.257 201.504ZM194.779 177.696L193.67 176.032L193.662 176.037L193.654 176.042L194.779 177.696ZM195.213 166.04L194.019 167.644L194.028 167.651L194.037 167.657L195.213 166.04ZM175.125 164.056V162.056H173.125V164.056H175.125ZM175.125 179.804H173.125V181.804H175.125V179.804ZM172.273 200.31C171.998 200.31 171.852 200.238 171.703 200.09L168.875 202.918C169.801 203.844 170.977 204.31 172.273 204.31V200.31ZM171.703 200.09C171.555 199.941 171.483 199.795 171.483 199.52H167.483C167.483 200.816 167.948 201.992 168.875 202.918L171.703 200.09ZM171.483 199.52V161.576H167.483V199.52H171.483ZM171.483 161.576C171.483 161.301 171.555 161.155 171.703 161.006L168.875 158.178C167.948 159.104 167.483 160.28 167.483 161.576H171.483ZM171.754 160.953C171.916 160.779 172.047 160.724 172.273 160.724V156.724C170.928 156.724 169.737 157.247 168.823 158.231L171.754 160.953ZM172.273 160.724H186.719V156.724H172.273V160.724ZM186.719 160.724C192.116 160.724 195.792 161.843 198.095 163.74L200.638 160.652C197.32 157.92 192.564 156.724 186.719 156.724V160.724ZM198.095 163.74C200.428 165.66 201.583 168.124 201.583 171.31H205.583C205.583 166.974 203.928 163.361 200.638 160.652L198.095 163.74ZM201.583 171.31C201.583 173.386 201.003 175.268 199.821 177.005L203.129 179.255C204.758 176.859 205.583 174.194 205.583 171.31H201.583ZM199.816 177.013C198.73 178.626 197.107 179.851 194.811 180.641L196.111 184.423C199.105 183.394 201.492 181.685 203.134 179.247L199.816 177.013ZM194.951 184.466C197.283 185.081 198.805 186.468 199.659 188.8L203.415 187.424C202.12 183.887 199.591 181.553 195.971 180.598L194.951 184.466ZM199.671 188.832C200.707 191.519 201.211 194.128 201.211 196.668H205.211C205.211 193.587 204.598 190.492 203.403 187.392L199.671 188.832ZM201.211 196.668V199.52H205.211V196.668H201.211ZM201.211 199.52C201.211 199.795 201.139 199.941 200.991 200.09L203.819 202.918C204.745 201.992 205.211 200.816 205.211 199.52H201.211ZM200.991 200.09C200.842 200.238 200.696 200.31 200.421 200.31V204.31C201.717 204.31 202.893 203.844 203.819 202.918L200.991 200.09ZM200.421 200.31C199.956 200.31 199.77 200.189 199.669 200.096L196.956 203.036C197.93 203.935 199.15 204.31 200.421 204.31V200.31ZM199.783 200.209C199.673 200.09 199.569 199.915 199.569 199.52H195.569C195.569 200.779 195.961 201.967 196.843 202.923L199.783 200.209ZM199.569 199.52V197.66H195.569V199.52H199.569ZM199.569 197.66C199.569 195.475 199.372 193.431 198.967 191.537L195.055 192.375C195.393 193.953 195.569 195.712 195.569 197.66H199.569ZM198.968 191.546C198.508 189.348 197.406 187.428 195.738 185.809L192.952 188.679C194.095 189.788 194.77 191.01 195.053 192.366L198.968 191.546ZM195.759 185.83C193.842 183.912 191.109 183.136 187.959 183.136V187.136C190.512 187.136 192.038 187.765 192.931 188.658L195.759 185.83ZM187.959 183.136H175.125V187.136H187.959V183.136ZM173.125 185.136V199.52H177.125V185.136H173.125ZM173.125 199.52C173.125 199.746 173.07 199.877 172.896 200.038L175.618 202.97C176.601 202.056 177.125 200.865 177.125 199.52H173.125ZM172.843 200.09C172.694 200.238 172.548 200.31 172.273 200.31V204.31C173.569 204.31 174.745 203.844 175.671 202.918L172.843 200.09ZM186.347 181.804C190.14 181.804 193.392 181.057 195.904 179.35L193.654 176.042C192.032 177.145 189.663 177.804 186.347 177.804V181.804ZM195.888 179.36C198.56 177.579 199.941 174.966 199.941 171.744H195.941C195.941 173.647 195.213 175.003 193.67 176.032L195.888 179.36ZM199.941 171.744C199.941 168.7 198.784 166.164 196.389 164.423L194.037 167.657C195.279 168.561 195.941 169.828 195.941 171.744H199.941ZM196.407 164.436C194.083 162.706 190.459 162.056 186.037 162.056V166.056C190.295 166.056 192.788 166.729 194.019 167.644L196.407 164.436ZM186.037 162.056H175.125V166.056H186.037V162.056ZM173.125 164.056V179.804H177.125V164.056H173.125ZM175.125 181.804H186.347V177.804H175.125V181.804Z" fill="white"/>
<g filter="url(#filter3_d_204_553)">
<path d="M272 102H192C179.85 102 170 92.1503 170 80V0L272 102Z" fill="url(#paint5_linear_204_553)"/>
</g>
</g>
<defs>
<filter id="filter0_f_204_553" x="9" y="110" width="256" height="162" filterUnits="userSpaceOnUse" color-interpolation-filters="sRGB">
<feFlood flood-opacity="0" result="BackgroundImageFix"/>
<feBlend mode="normal" in="SourceGraphic" in2="BackgroundImageFix" result="shape"/>
<feGaussianBlur stdDeviation="19.5" result="effect1_foregroundBlur_204_553"/>
</filter>
<filter id="filter1_d_204_553" x="147" y="-24" width="152" height="152" filterUnits="userSpaceOnUse" color-interpolation-filters="sRGB">
<feFlood flood-opacity="0" result="BackgroundImageFix"/>
<feColorMatrix in="SourceAlpha" type="matrix" values="0 0 0 0 0 0 0 0 0 0 0 0 0 0 0 0 0 0 127 0" result="hardAlpha"/>
<feOffset dx="2" dy="1"/>
<feGaussianBlur stdDeviation="12.5"/>
<feColorMatrix type="matrix" values="0 0 0 0 0 0 0 0 0 0 0 0 0 0 0 0 0 0 0.33 0"/>
<feBlend mode="normal" in2="BackgroundImageFix" result="effect1_dropShadow_204_553"/>
<feBlend mode="normal" in="SourceGraphic" in2="effect1_dropShadow_204_553" result="shape"/>
</filter>
<filter id="filter2_f_204_553" x="9" y="110" width="256" height="162" filterUnits="userSpaceOnUse" color-interpolation-filters="sRGB">
<feFlood flood-opacity="0" result="BackgroundImageFix"/>
<feBlend mode="normal" in="SourceGraphic" in2="BackgroundImageFix" result="shape"/>
<feGaussianBlur stdDeviation="19.5" result="effect1_foregroundBlur_204_553"/>
</filter>
<filter id="filter3_d_204_553" x="147" y="-24" width="152" height="152" filterUnits="userSpaceOnUse" color-interpolation-filters="sRGB">
<feFlood flood-opacity="0" result="BackgroundImageFix"/>
<feColorMatrix in="SourceAlpha" type="matrix" values="0 0 0 0 0 0 0 0 0 0 0 0 0 0 0 0 0 0 127 0" result="hardAlpha"/>
<feOffset dx="2" dy="1"/>
<feGaussianBlur stdDeviation="12.5"/>
<feColorMatrix type="matrix" values="0 0 0 0 0 0 0 0 0 0 0 0 0 0 0 0 0 0 0.33 0"/>
<feBlend mode="normal" in2="BackgroundImageFix" result="effect1_dropShadow_204_553"/>
<feBlend mode="normal" in="SourceGraphic" in2="effect1_dropShadow_204_553" result="shape"/>
</filter>
<linearGradient id="paint0_linear_204_553" x1="136" y1="0" x2="136" y2="308" gradientUnits="userSpaceOnUse">
<stop stop-color="#FF7979"/>
<stop offset="1" stop-color="#E85555"/>
</linearGradient>
<linearGradient id="paint1_linear_204_553" x1="136" y1="0" x2="136" y2="308" gradientUnits="userSpaceOnUse">
<stop stop-color="#FFA216"/>
<stop offset="1" stop-color="#EF8100"/>
</linearGradient>
<linearGradient id="paint2_linear_204_553" x1="221" y1="0" x2="221" y2="102" gradientUnits="userSpaceOnUse">
<stop stop-color="#FF7A1B"/>
<stop offset="1" stop-color="#E86100"/>
</linearGradient>
<linearGradient id="paint3_linear_204_553" x1="136" y1="0" x2="136" y2="308" gradientUnits="userSpaceOnUse">
<stop stop-color="#FF7979"/>
<stop offset="1" stop-color="#E85555"/>
</linearGradient>
<linearGradient id="paint4_linear_204_553" x1="136" y1="0" x2="136" y2="308" gradientUnits="userSpaceOnUse">
<stop stop-color="#FFA216"/>
<stop offset="1" stop-color="#EF8100"/>
</linearGradient>
<linearGradient id="paint5_linear_204_553" x1="221" y1="0" x2="221" y2="102" gradientUnits="userSpaceOnUse">
<stop stop-color="#FF7A1B"/>
<stop offset="1" stop-color="#E86100"/>
</linearGradient>
</defs>
</svg>
