<svg width="272" height="308" viewBox="0 0 272 308" fill="none" xmlns="http://www.w3.org/2000/svg">
<mask id="mask0_204_796" style="mask-type:alpha" maskUnits="userSpaceOnUse" x="0" y="0" width="272" height="308">
<path d="M250 308H22C9.84974 308 0 298.15 0 286V22C0 9.84974 9.84974 0 22 0H170L272 102V286C272 298.15 262.15 308 250 308Z" fill="url(#paint0_linear_204_796)"/>
</mask>
<g mask="url(#mask0_204_796)">
<path d="M250 308H22C9.84974 308 0 298.15 0 286V22C0 9.84974 9.84974 0 22 0H170L272 102V286C272 298.15 262.15 308 250 308Z" fill="url(#paint1_linear_204_796)"/>
<g filter="url(#filter0_f_204_796)">
<rect x="48" y="149" width="178" height="84" fill="#5552E9" fill-opacity="0.39" style="mix-blend-mode:darken"/>
</g>
<path d="M87.8003 202.62C82.551 202.62 77.6323 201.628 73.0443 199.644C72.5483 199.437 72.135 199.107 71.8043 198.652C71.4737 198.156 71.3083 197.639 71.3083 197.102C71.3083 196.399 71.5357 195.8 71.9903 195.304C72.4863 194.767 73.1063 194.498 73.8503 194.498C74.2637 194.498 74.6563 194.581 75.0283 194.746C78.831 196.441 82.9023 197.288 87.2423 197.288C94.4757 197.288 98.0923 194.911 98.0923 190.158C98.0923 188.918 97.617 187.885 96.6663 187.058C95.757 186.231 94.6203 185.591 93.2563 185.136C91.8923 184.64 89.9497 184.061 87.4283 183.4C84.0803 182.532 81.373 181.705 79.3063 180.92C77.2397 180.093 75.4623 178.874 73.9743 177.262C72.4863 175.65 71.7423 173.501 71.7423 170.814C71.7423 168.458 72.3623 166.329 73.6023 164.428C74.8423 162.485 76.661 160.956 79.0583 159.84C81.497 158.683 84.411 158.104 87.8003 158.104C92.347 158.104 96.4597 158.786 100.138 160.15C101.296 160.563 101.874 161.39 101.874 162.63C101.874 163.291 101.647 163.891 101.192 164.428C100.738 164.965 100.138 165.234 99.3943 165.234C99.1463 165.234 98.8157 165.151 98.4023 164.986C95.1783 163.87 91.851 163.312 88.4203 163.312C85.155 163.312 82.489 163.932 80.4223 165.172C78.397 166.412 77.3843 168.148 77.3843 170.38C77.3843 171.868 77.8597 173.087 78.8103 174.038C79.8023 174.947 81.0217 175.671 82.4683 176.208C83.9563 176.704 85.961 177.241 88.4823 177.82C91.7477 178.605 94.3723 179.391 96.3563 180.176C98.3817 180.961 100.097 182.181 101.502 183.834C102.949 185.487 103.672 187.719 103.672 190.53C103.672 192.845 103.011 194.932 101.688 196.792C100.366 198.611 98.5057 200.037 96.1083 201.07C93.711 202.103 90.9417 202.62 87.8003 202.62ZM131.16 202.31C129.465 202.31 128.184 201.359 127.316 199.458L112.002 162.32C111.878 161.989 111.816 161.638 111.816 161.266C111.816 160.398 112.064 159.716 112.56 159.22C113.056 158.683 113.738 158.414 114.606 158.414C115.185 158.414 115.701 158.6 116.156 158.972C116.652 159.303 117.024 159.757 117.272 160.336L131.842 196.668L146.412 160.336C146.66 159.757 147.011 159.303 147.466 158.972C147.962 158.6 148.499 158.414 149.078 158.414C149.946 158.414 150.628 158.683 151.124 159.22C151.62 159.716 151.868 160.398 151.868 161.266C151.868 161.638 151.806 161.989 151.682 162.32L136.368 199.458C135.5 201.359 134.219 202.31 132.524 202.31H131.16ZM182.102 202.62C177.845 202.62 174.063 201.69 170.756 199.83C167.449 197.929 164.887 195.304 163.068 191.956C161.249 188.567 160.34 184.723 160.34 180.424C160.34 176.043 161.291 172.157 163.192 168.768C165.093 165.379 167.677 162.754 170.942 160.894C174.249 159.034 177.907 158.104 181.916 158.104C185.14 158.104 187.951 158.497 190.348 159.282C192.787 160.067 195.122 161.163 197.354 162.568C197.685 162.733 197.974 163.023 198.222 163.436C198.47 163.849 198.594 164.304 198.594 164.8C198.594 165.503 198.346 166.102 197.85 166.598C197.395 167.094 196.775 167.342 195.99 167.342C195.535 167.342 195.101 167.239 194.688 167.032C192.745 165.875 190.803 165.007 188.86 164.428C186.917 163.849 184.809 163.56 182.536 163.56C179.395 163.56 176.563 164.221 174.042 165.544C171.521 166.867 169.537 168.809 168.09 171.372C166.685 173.893 165.982 176.911 165.982 180.424C165.982 183.648 166.643 186.541 167.966 189.104C169.33 191.625 171.273 193.63 173.794 195.118C176.357 196.565 179.374 197.288 182.846 197.288C186.731 197.288 190.348 196.379 193.696 194.56V183.338H183.466C182.763 183.338 182.164 183.09 181.668 182.594C181.172 182.098 180.924 181.499 180.924 180.796C180.924 180.093 181.172 179.494 181.668 178.998C182.164 178.502 182.763 178.254 183.466 178.254H195.68C196.507 178.254 197.209 178.543 197.788 179.122C198.367 179.701 198.656 180.403 198.656 181.23V195.304C198.656 196.172 198.429 196.957 197.974 197.66C197.561 198.321 197.003 198.817 196.3 199.148C191.671 201.463 186.938 202.62 182.102 202.62Z" fill="white"/>
<path d="M73.0443 199.644L73.8382 197.808L73.8259 197.803L73.8136 197.798L73.0443 199.644ZM71.8043 198.652L70.1402 199.761L70.1629 199.795L70.1869 199.828L71.8043 198.652ZM71.9903 195.304L70.5207 193.947L70.516 193.953L71.9903 195.304ZM75.0283 194.746L75.8425 192.919L75.8406 192.918L75.0283 194.746ZM96.6663 187.058L95.321 188.538L95.3373 188.553L95.354 188.567L96.6663 187.058ZM93.2563 185.136L92.5728 187.016L92.5982 187.025L92.6239 187.033L93.2563 185.136ZM87.4283 183.4L87.9358 181.465L87.9303 181.464L87.4283 183.4ZM79.3063 180.92L78.5636 182.777L78.5797 182.783L78.5959 182.79L79.3063 180.92ZM73.9743 177.262L72.5047 178.619L73.9743 177.262ZM73.6023 164.428L75.2775 165.521L75.2829 165.512L75.2882 165.504L73.6023 164.428ZM79.0583 159.84L79.9024 161.653L79.9091 161.65L79.9158 161.647L79.0583 159.84ZM100.138 160.15L99.443 162.025L99.4543 162.029L99.4657 162.033L100.138 160.15ZM101.192 164.428L102.719 165.72L102.719 165.72L101.192 164.428ZM98.4023 164.986L99.1451 163.129L99.1012 163.111L99.0566 163.096L98.4023 164.986ZM80.4223 165.172L79.3933 163.457L79.3857 163.462L79.378 163.466L80.4223 165.172ZM78.8103 174.038L77.3961 175.452L77.4268 175.483L77.4589 175.512L78.8103 174.038ZM82.4683 176.208L81.772 178.083L81.8037 178.095L81.8359 178.105L82.4683 176.208ZM88.4823 177.82L88.95 175.875L88.9399 175.873L88.9297 175.871L88.4823 177.82ZM96.3563 180.176L95.6202 182.036L95.6333 182.041L96.3563 180.176ZM101.502 183.834L99.9785 185.129L99.9877 185.14L99.9972 185.151L101.502 183.834ZM101.688 196.792L103.306 197.968L103.312 197.96L103.318 197.951L101.688 196.792ZM96.1083 201.07L96.9 202.907L96.1083 201.07ZM87.8003 200.62C82.8101 200.62 78.163 199.679 73.8382 197.808L72.2505 201.48C77.1016 203.577 82.2919 204.62 87.8003 204.62V200.62ZM73.8136 197.798C73.6725 197.739 73.547 197.648 73.4218 197.476L70.1869 199.828C70.723 200.566 71.4242 201.136 72.2751 201.49L73.8136 197.798ZM73.4684 197.543C73.3319 197.338 73.3083 197.202 73.3083 197.102H69.3083C69.3083 198.077 69.6154 198.974 70.1402 199.761L73.4684 197.543ZM73.3083 197.102C73.3083 196.875 73.3642 196.765 73.4646 196.655L70.516 193.953C69.7071 194.835 69.3083 195.923 69.3083 197.102H73.3083ZM73.4599 196.661C73.5699 196.541 73.6535 196.498 73.8503 196.498V192.498C72.5592 192.498 71.4028 192.992 70.5207 193.947L73.4599 196.661ZM73.8503 196.498C73.9883 196.498 74.1038 196.524 74.2161 196.574L75.8406 192.918C75.2089 192.638 74.5391 192.498 73.8503 192.498V196.498ZM74.2142 196.573C78.284 198.387 82.634 199.288 87.2423 199.288V195.288C83.1707 195.288 79.378 194.495 75.8425 192.919L74.2142 196.573ZM87.2423 199.288C91.0145 199.288 94.1911 198.68 96.4782 197.177C98.9118 195.578 100.092 193.13 100.092 190.158H96.0923C96.0923 191.94 95.4645 193.057 94.2815 193.834C92.9519 194.708 90.7035 195.288 87.2423 195.288V199.288ZM100.092 190.158C100.092 188.329 99.3582 186.748 97.9787 185.549L95.354 188.567C95.8758 189.021 96.0923 189.507 96.0923 190.158H100.092ZM98.0117 185.578C96.8643 184.535 95.4725 183.767 93.8888 183.239L92.6239 187.033C93.7682 187.415 94.6497 187.928 95.321 188.538L98.0117 185.578ZM93.9398 183.256C92.4897 182.729 90.4778 182.132 87.9358 181.465L86.9209 185.335C89.4215 185.99 91.2949 186.551 92.5728 187.016L93.9398 183.256ZM87.9303 181.464C84.6183 180.605 81.9884 179.8 80.0168 179.05L78.5959 182.79C80.7576 183.611 83.5424 184.459 86.9264 185.336L87.9303 181.464ZM80.0491 179.063C78.2548 178.345 76.7269 177.295 75.4439 175.905L72.5047 178.619C74.1978 180.453 76.2246 181.841 78.5636 182.777L80.0491 179.063ZM75.4439 175.905C74.3697 174.742 73.7423 173.117 73.7423 170.814H69.7423C69.7423 173.885 70.6029 176.558 72.5047 178.619L75.4439 175.905ZM73.7423 170.814C73.7423 168.83 74.2578 167.084 75.2775 165.521L71.9271 163.335C70.4669 165.575 69.7423 168.086 69.7423 170.814H73.7423ZM75.2882 165.504C76.2946 163.927 77.798 162.633 79.9024 161.653L78.2143 158.027C75.524 159.279 73.3901 161.043 71.9165 163.352L75.2882 165.504ZM79.9158 161.647C82.0271 160.645 84.6339 160.104 87.8003 160.104V156.104C84.1881 156.104 80.9669 156.72 78.2008 158.033L79.9158 161.647ZM87.8003 160.104C92.1467 160.104 96.0192 160.756 99.443 162.025L100.834 158.275C96.9001 156.816 92.5473 156.104 87.8003 156.104V160.104ZM99.4657 162.033C99.7404 162.132 99.7981 162.222 99.8019 162.227C99.8067 162.234 99.8743 162.325 99.8743 162.63H103.874C103.874 161.695 103.653 160.753 103.079 159.933C102.504 159.112 101.694 158.582 100.811 158.267L99.4657 162.033ZM99.8743 162.63C99.8743 162.786 99.8359 162.935 99.6656 163.136L102.719 165.72C103.458 164.847 103.874 163.796 103.874 162.63H99.8743ZM99.6656 163.136C99.6174 163.193 99.591 163.204 99.5837 163.207C99.5735 163.212 99.5218 163.234 99.3943 163.234V167.234C100.688 167.234 101.86 166.735 102.719 165.72L99.6656 163.136ZM99.3943 163.234C99.4819 163.234 99.5067 163.247 99.4454 163.232C99.3896 163.218 99.2917 163.188 99.1451 163.129L97.6596 166.843C98.1516 167.04 98.7645 167.234 99.3943 167.234V163.234ZM99.0566 163.096C95.6209 161.907 92.0724 161.312 88.4203 161.312V165.312C91.6296 165.312 94.7357 165.833 97.7481 166.876L99.0566 163.096ZM88.4203 161.312C84.9166 161.312 81.8623 161.976 79.3933 163.457L81.4513 166.887C83.1157 165.888 85.3934 165.312 88.4203 165.312V161.312ZM79.378 163.466C76.8049 165.042 75.3843 167.4 75.3843 170.38H79.3843C79.3843 168.896 79.9891 167.782 81.4666 166.878L79.378 163.466ZM75.3843 170.38C75.3843 172.336 76.0286 174.085 77.3961 175.452L80.2245 172.624C79.6907 172.09 79.3843 171.4 79.3843 170.38H75.3843ZM77.4589 175.512C78.6672 176.62 80.1183 177.469 81.772 178.083L83.1647 174.333C81.925 173.873 80.9375 173.275 80.1618 172.564L77.4589 175.512ZM81.8359 178.105C83.4109 178.63 85.4856 179.184 88.035 179.769L88.9297 175.871C86.4364 175.298 84.5018 174.778 83.1008 174.311L81.8359 178.105ZM88.0147 179.765C91.2341 180.539 93.7583 181.299 95.6202 182.036L97.0924 178.316C94.9863 177.483 92.2613 176.672 88.95 175.875L88.0147 179.765ZM95.6333 182.041C97.3488 182.706 98.7888 183.73 99.9785 185.129L103.026 182.539C101.405 180.632 99.4145 179.217 97.0794 178.311L95.6333 182.041ZM99.9972 185.151C101.044 186.347 101.672 188.065 101.672 190.53H105.672C105.672 187.374 104.854 184.627 103.007 182.517L99.9972 185.151ZM101.672 190.53C101.672 192.436 101.137 194.117 100.058 195.633L103.318 197.951C104.885 195.747 105.672 193.254 105.672 190.53H101.672ZM100.071 195.616C98.9912 197.1 97.4382 198.319 95.3167 199.233L96.9 202.907C99.5731 201.754 101.74 200.121 103.306 197.968L100.071 195.616ZM95.3167 199.233C93.2148 200.139 90.7236 200.62 87.8003 200.62V204.62C91.1597 204.62 94.2072 204.067 96.9 202.907L95.3167 199.233ZM127.316 199.458L125.467 200.22L125.481 200.255L125.497 200.289L127.316 199.458ZM112.002 162.32L110.129 163.022L110.141 163.053L110.153 163.082L112.002 162.32ZM112.56 159.22L113.974 160.634L114.003 160.606L114.03 160.577L112.56 159.22ZM116.156 158.972L114.89 160.52L114.965 160.582L115.047 160.636L116.156 158.972ZM117.272 160.336L119.128 159.592L119.12 159.57L119.11 159.548L117.272 160.336ZM131.842 196.668L129.986 197.412L131.842 202.041L133.698 197.412L131.842 196.668ZM146.412 160.336L144.574 159.548L144.565 159.57L144.556 159.592L146.412 160.336ZM147.466 158.972L148.642 160.589L148.654 160.581L148.666 160.572L147.466 158.972ZM151.124 159.22L149.655 160.577L149.682 160.606L149.71 160.634L151.124 159.22ZM151.682 162.32L153.531 163.082L153.543 163.053L153.555 163.022L151.682 162.32ZM136.368 199.458L138.188 200.289L138.203 200.255L138.217 200.22L136.368 199.458ZM131.16 200.31C130.714 200.31 130.394 200.194 130.12 199.991C129.822 199.77 129.471 199.363 129.135 198.627L125.497 200.289C126.029 201.454 126.753 202.474 127.736 203.203C128.744 203.951 129.912 204.31 131.16 204.31V200.31ZM129.165 198.696L113.851 161.558L110.153 163.082L125.467 200.22L129.165 198.696ZM113.875 161.618C113.839 161.523 113.816 161.411 113.816 161.266H109.816C109.816 161.865 109.917 162.455 110.129 163.022L113.875 161.618ZM113.816 161.266C113.816 160.795 113.938 160.67 113.974 160.634L111.146 157.806C110.19 158.762 109.816 160.001 109.816 161.266H113.816ZM114.03 160.577C114.076 160.526 114.183 160.414 114.606 160.414V156.414C113.293 156.414 112.036 156.839 111.091 157.863L114.03 160.577ZM114.606 160.414C114.716 160.414 114.786 160.435 114.89 160.52L117.423 157.424C116.617 156.765 115.654 156.414 114.606 156.414V160.414ZM115.047 160.636C115.201 160.739 115.33 160.881 115.434 161.124L119.11 159.548C118.719 158.634 118.103 157.866 117.266 157.308L115.047 160.636ZM115.416 161.08L129.986 197.412L133.698 195.924L119.128 159.592L115.416 161.08ZM133.698 197.412L148.268 161.08L144.556 159.592L129.986 195.924L133.698 197.412ZM148.25 161.124C148.374 160.836 148.513 160.684 148.642 160.589L146.29 157.355C145.51 157.922 144.946 158.679 144.574 159.548L148.25 161.124ZM148.666 160.572C148.842 160.44 148.964 160.414 149.078 160.414V156.414C148.035 156.414 147.082 156.76 146.266 157.372L148.666 160.572ZM149.078 160.414C149.501 160.414 149.608 160.526 149.655 160.577L152.594 157.863C151.648 156.839 150.391 156.414 149.078 156.414V160.414ZM149.71 160.634C149.746 160.67 149.868 160.795 149.868 161.266H153.868C153.868 160.001 153.494 158.762 152.538 157.806L149.71 160.634ZM149.868 161.266C149.868 161.411 149.845 161.523 149.809 161.618L153.555 163.022C153.767 162.455 153.868 161.865 153.868 161.266H149.868ZM149.833 161.558L134.519 198.696L138.217 200.22L153.531 163.082L149.833 161.558ZM134.549 198.627C134.213 199.363 133.862 199.77 133.564 199.991C133.291 200.194 132.971 200.31 132.524 200.31V204.31C133.772 204.31 134.94 203.951 135.948 203.203C136.931 202.474 137.655 201.454 138.188 200.289L134.549 198.627ZM132.524 200.31H131.16V204.31H132.524V200.31ZM170.756 199.83L169.759 201.564L169.767 201.569L169.775 201.573L170.756 199.83ZM163.068 191.956L161.305 192.902L161.31 192.911L163.068 191.956ZM163.192 168.768L164.936 169.747V169.747L163.192 168.768ZM170.942 160.894L169.961 159.151L169.952 159.156L170.942 160.894ZM190.348 159.282L189.725 161.183L189.735 161.186L190.348 159.282ZM197.354 162.568L196.288 164.26L196.371 164.313L196.459 164.357L197.354 162.568ZM198.222 163.436L196.507 164.465V164.465L198.222 163.436ZM197.85 166.598L196.436 165.184L196.405 165.215L196.376 165.247L197.85 166.598ZM194.688 167.032L193.664 168.75L193.728 168.788L193.793 168.821L194.688 167.032ZM188.86 164.428L189.431 162.511L188.86 164.428ZM174.042 165.544L174.971 167.315L174.971 167.315L174.042 165.544ZM168.09 171.372L166.348 170.389L166.343 170.398L168.09 171.372ZM167.966 189.104L166.189 190.021L166.198 190.039L166.207 190.056L167.966 189.104ZM173.794 195.118L172.777 196.84L172.794 196.85L172.811 196.86L173.794 195.118ZM193.696 194.56L194.651 196.317L195.696 195.75V194.56H193.696ZM193.696 183.338H195.696V181.338H193.696V183.338ZM197.974 197.66L196.295 196.573L196.286 196.587L196.278 196.6L197.974 197.66ZM196.3 199.148L195.448 197.338L195.427 197.348L195.405 197.359L196.3 199.148ZM182.102 200.62C178.145 200.62 174.708 199.759 171.736 198.087L169.775 201.573C173.417 203.621 177.544 204.62 182.102 204.62V200.62ZM171.753 198.096C168.766 196.379 166.467 194.024 164.825 191.001L161.31 192.911C163.306 196.584 166.132 199.478 169.759 201.564L171.753 198.096ZM164.83 191.01C163.185 187.945 162.34 184.432 162.34 180.424H158.34C158.34 185.013 159.313 189.189 161.306 192.902L164.83 191.01ZM162.34 180.424C162.34 176.341 163.223 172.8 164.936 169.747L161.448 167.789C159.358 171.514 158.34 175.744 158.34 180.424H162.34ZM164.936 169.747C166.666 166.663 168.993 164.306 171.932 162.632L169.952 159.156C166.36 161.202 163.52 164.095 161.448 167.789L164.936 169.747ZM171.922 162.637C174.913 160.955 178.23 160.104 181.916 160.104V156.104C177.583 156.104 173.584 157.113 169.961 159.151L171.922 162.637ZM181.916 160.104C184.984 160.104 187.576 160.478 189.725 161.183L190.97 157.381C188.325 156.515 185.296 156.104 181.916 156.104V160.104ZM189.735 161.186C192.01 161.918 194.193 162.942 196.288 164.26L198.419 160.876C196.05 159.384 193.563 158.216 190.961 157.378L189.735 161.186ZM196.459 164.357C196.413 164.334 196.396 164.314 196.405 164.323C196.415 164.334 196.453 164.374 196.507 164.465L199.937 162.407C199.552 161.765 199.008 161.159 198.248 160.779L196.459 164.357ZM196.507 164.465C196.563 164.558 196.594 164.655 196.594 164.8H200.594C200.594 163.953 200.377 163.14 199.937 162.407L196.507 164.465ZM196.594 164.8C196.594 164.973 196.556 165.064 196.436 165.184L199.264 168.012C200.136 167.14 200.594 166.032 200.594 164.8H196.594ZM196.376 165.247C196.349 165.275 196.33 165.287 196.301 165.299C196.265 165.313 196.172 165.342 195.99 165.342V169.342C197.233 169.342 198.426 168.929 199.324 167.949L196.376 165.247ZM195.99 165.342C195.851 165.342 195.723 165.313 195.582 165.243L193.793 168.821C194.48 169.164 195.219 169.342 195.99 169.342V165.342ZM195.711 165.314C193.643 164.081 191.549 163.142 189.431 162.511L188.289 166.345C190.056 166.871 191.848 167.668 193.664 168.75L195.711 165.314ZM189.431 162.511C187.282 161.871 184.979 161.56 182.536 161.56V165.56C184.639 165.56 186.552 165.828 188.289 166.345L189.431 162.511ZM182.536 161.56C179.105 161.56 175.949 162.285 173.113 163.773L174.971 167.315C177.177 166.158 179.684 165.56 182.536 165.56V161.56ZM173.113 163.773C170.238 165.281 167.977 167.503 166.348 170.389L169.831 172.355C171.096 170.116 172.803 168.453 174.971 167.315L173.113 163.773ZM166.343 170.398C164.739 173.276 163.982 176.643 163.982 180.424H167.982C167.982 177.178 168.63 174.511 169.837 172.346L166.343 170.398ZM163.982 180.424C163.982 183.929 164.703 187.143 166.189 190.021L169.743 188.187C168.583 185.94 167.982 183.367 167.982 180.424H163.982ZM166.207 190.056C167.747 192.904 169.95 195.172 172.777 196.84L174.81 193.396C172.595 192.088 170.912 190.347 169.725 188.152L166.207 190.056ZM172.811 196.86C175.723 198.504 179.092 199.288 182.846 199.288V195.288C179.656 195.288 176.99 194.625 174.777 193.376L172.811 196.86ZM182.846 199.288C187.058 199.288 191.004 198.299 194.651 196.317L192.741 192.803C189.692 194.459 186.405 195.288 182.846 195.288V199.288ZM195.696 194.56V183.338H191.696V194.56H195.696ZM193.696 181.338H183.466V185.338H193.696V181.338ZM183.466 181.338C183.293 181.338 183.202 181.3 183.082 181.18L180.254 184.008C181.125 184.88 182.234 185.338 183.466 185.338V181.338ZM183.082 181.18C182.962 181.06 182.924 180.969 182.924 180.796H178.924C178.924 182.028 179.382 183.136 180.254 184.008L183.082 181.18ZM182.924 180.796C182.924 180.623 182.962 180.532 183.082 180.412L180.254 177.584C179.382 178.456 178.924 179.564 178.924 180.796H182.924ZM183.082 180.412C183.202 180.292 183.293 180.254 183.466 180.254V176.254C182.234 176.254 181.125 176.712 180.254 177.584L183.082 180.412ZM183.466 180.254H195.68V176.254H183.466V180.254ZM195.68 180.254C195.982 180.254 196.174 180.337 196.374 180.536L199.202 177.708C198.244 176.75 197.031 176.254 195.68 176.254V180.254ZM196.374 180.536C196.573 180.736 196.656 180.928 196.656 181.23H200.656C200.656 179.879 200.16 178.666 199.202 177.708L196.374 180.536ZM196.656 181.23V195.304H200.656V181.23H196.656ZM196.656 195.304C196.656 195.802 196.532 196.207 196.295 196.573L199.653 198.747C200.325 197.708 200.656 196.542 200.656 195.304H196.656ZM196.278 196.6C196.067 196.937 195.802 197.172 195.448 197.338L197.151 200.958C198.203 200.463 199.054 199.706 199.67 198.72L196.278 196.6ZM195.405 197.359C191.034 199.545 186.606 200.62 182.102 200.62V204.62C187.27 204.62 192.307 203.38 197.194 200.937L195.405 197.359Z" fill="white"/>
<g filter="url(#filter1_d_204_796)">
<path d="M272 102H192C179.85 102 170 92.1503 170 80V0L272 102Z" fill="url(#paint2_linear_204_796)"/>
</g>
</g>
<defs>
<filter id="filter0_f_204_796" x="9" y="110" width="256" height="162" filterUnits="userSpaceOnUse" color-interpolation-filters="sRGB">
<feFlood flood-opacity="0" result="BackgroundImageFix"/>
<feBlend mode="normal" in="SourceGraphic" in2="BackgroundImageFix" result="shape"/>
<feGaussianBlur stdDeviation="19.5" result="effect1_foregroundBlur_204_796"/>
</filter>
<filter id="filter1_d_204_796" x="147" y="-24" width="152" height="152" filterUnits="userSpaceOnUse" color-interpolation-filters="sRGB">
<feFlood flood-opacity="0" result="BackgroundImageFix"/>
<feColorMatrix in="SourceAlpha" type="matrix" values="0 0 0 0 0 0 0 0 0 0 0 0 0 0 0 0 0 0 127 0" result="hardAlpha"/>
<feOffset dx="2" dy="1"/>
<feGaussianBlur stdDeviation="12.5"/>
<feColorMatrix type="matrix" values="0 0 0 0 0 0 0 0 0 0 0 0 0 0 0 0 0 0 0.33 0"/>
<feBlend mode="normal" in2="BackgroundImageFix" result="effect1_dropShadow_204_796"/>
<feBlend mode="normal" in="SourceGraphic" in2="effect1_dropShadow_204_796" result="shape"/>
</filter>
<linearGradient id="paint0_linear_204_796" x1="136" y1="0" x2="136" y2="308" gradientUnits="userSpaceOnUse">
<stop stop-color="#FF7979"/>
<stop offset="1" stop-color="#E85555"/>
</linearGradient>
<linearGradient id="paint1_linear_204_796" x1="136" y1="0" x2="136" y2="308" gradientUnits="userSpaceOnUse">
<stop stop-color="#A28AFF"/>
<stop offset="1" stop-color="#7655FB"/>
</linearGradient>
<linearGradient id="paint2_linear_204_796" x1="221" y1="0" x2="221" y2="102" gradientUnits="userSpaceOnUse">
<stop stop-color="#8A71F1"/>
<stop offset="1" stop-color="#5C39E9"/>
</linearGradient>
</defs>
</svg>
