<svg width="272" height="308" viewBox="0 0 272 308" fill="none" xmlns="http://www.w3.org/2000/svg">
<mask id="mask0_204_566" style="mask-type:alpha" maskUnits="userSpaceOnUse" x="0" y="0" width="272" height="308">
<path d="M250 308H22C9.84974 308 0 298.15 0 286V22C0 9.84974 9.84974 0 22 0H170L272 102V286C272 298.15 262.15 308 250 308Z" fill="url(#paint0_linear_204_566)"/>
</mask>
<g mask="url(#mask0_204_566)">
<path d="M250 308H22C9.84974 308 0 298.15 0 286V22C0 9.84974 9.84974 0 22 0H170L272 102V286C272 298.15 262.15 308 250 308Z" fill="url(#paint1_linear_204_566)"/>
<g opacity="0.26" filter="url(#filter0_f_204_566)">
<rect x="48" y="149" width="178" height="84" fill="#E66000" style="mix-blend-mode:darken"/>
</g>
<path d="M100.506 217.395C99.4523 217.395 98.5833 217.053 97.8986 216.368C97.2666 215.683 96.9506 214.841 96.9506 213.84C96.9506 213.419 97.0823 212.892 97.3456 212.26L117.491 164.702C117.912 163.754 118.491 162.99 119.229 162.411C120.019 161.779 120.967 161.463 122.073 161.463H122.863C123.969 161.463 124.89 161.779 125.628 162.411C126.418 162.99 127.023 163.754 127.445 164.702L147.59 212.26C147.853 212.892 147.985 213.419 147.985 213.84C147.985 214.841 147.642 215.683 146.958 216.368C146.326 217.053 145.483 217.395 144.43 217.395C143.692 217.395 143.008 217.211 142.376 216.842C141.796 216.421 141.349 215.868 141.033 215.183L135.898 202.859H109.038L103.903 215.183C103.587 215.868 103.113 216.421 102.481 216.842C101.901 217.211 101.243 217.395 100.506 217.395ZM111.803 196.302H133.133L122.468 170.627L111.803 196.302ZM168.69 217.395C167.689 217.395 166.847 217.053 166.162 216.368C165.477 215.683 165.135 214.841 165.135 213.84V165.097C165.135 164.096 165.477 163.254 166.162 162.569C166.847 161.832 167.689 161.463 168.69 161.463C169.691 161.463 170.533 161.832 171.218 162.569C171.955 163.254 172.324 164.096 172.324 165.097V213.84C172.324 214.841 171.955 215.683 171.218 216.368C170.533 217.053 169.691 217.395 168.69 217.395Z" fill="white"/>
<path d="M97.8986 216.368L96.429 217.725L96.4561 217.754L96.4844 217.782L97.8986 216.368ZM97.3456 212.26L95.504 211.48L95.4995 211.491L97.3456 212.26ZM117.491 164.702L115.663 163.89L115.656 163.906L115.649 163.922L117.491 164.702ZM119.229 162.411L120.464 163.984L120.471 163.978L120.478 163.973L119.229 162.411ZM125.628 162.411L124.326 163.93L124.384 163.979L124.445 164.024L125.628 162.411ZM127.445 164.702L129.286 163.922L129.279 163.906L129.272 163.89L127.445 164.702ZM147.59 212.26L149.436 211.491L149.431 211.48L147.59 212.26ZM146.958 216.368L145.543 214.954L145.515 214.982L145.488 215.011L146.958 216.368ZM142.376 216.842L141.199 218.459L141.281 218.519L141.368 218.57L142.376 216.842ZM141.033 215.183L139.186 215.952L139.201 215.987L139.217 216.021L141.033 215.183ZM135.898 202.859L137.744 202.09L137.231 200.859H135.898V202.859ZM109.038 202.859V200.859H107.704L107.191 202.09L109.038 202.859ZM103.903 215.183L105.719 216.021L105.734 215.987L105.749 215.952L103.903 215.183ZM102.481 216.842L103.554 218.529L103.572 218.518L103.59 218.506L102.481 216.842ZM111.803 196.302L109.956 195.535L108.806 198.302H111.803V196.302ZM133.133 196.302V198.302H136.129L134.98 195.535L133.133 196.302ZM122.468 170.627L124.315 169.86L122.468 165.413L120.621 169.86L122.468 170.627ZM100.506 215.395C99.9314 215.395 99.5876 215.229 99.3128 214.954L96.4844 217.782C97.579 218.877 98.9732 219.395 100.506 219.395V215.395ZM99.3682 215.011C99.1038 214.725 98.9506 214.379 98.9506 213.84H94.9506C94.9506 215.303 95.4294 216.642 96.429 217.725L99.3682 215.011ZM98.9506 213.84C98.9506 213.797 98.9743 213.551 99.1918 213.029L95.4995 211.491C95.1903 212.233 94.9506 213.041 94.9506 213.84H98.9506ZM99.1872 213.04L119.332 165.482L115.649 163.922L95.504 211.48L99.1872 213.04ZM119.318 165.514C119.622 164.832 120.01 164.341 120.464 163.984L117.993 160.838C116.973 161.64 116.202 162.676 115.663 163.89L119.318 165.514ZM120.478 163.973C120.88 163.651 121.376 163.463 122.073 163.463V159.463C120.558 159.463 119.158 159.907 117.979 160.849L120.478 163.973ZM122.073 163.463H122.863V159.463H122.073V163.463ZM122.863 163.463C123.562 163.463 124.001 163.651 124.326 163.93L126.929 160.892C125.779 159.907 124.376 159.463 122.863 159.463V163.463ZM124.445 164.024C124.937 164.385 125.329 164.865 125.617 165.514L129.272 163.89C128.718 162.643 127.898 161.596 126.81 160.798L124.445 164.024ZM125.603 165.482L145.748 213.04L149.431 211.48L129.286 163.922L125.603 165.482ZM145.743 213.029C145.961 213.551 145.985 213.797 145.985 213.84H149.985C149.985 213.041 149.745 212.233 149.436 211.491L145.743 213.029ZM145.985 213.84C145.985 214.33 145.839 214.658 145.543 214.954L148.372 217.782C149.445 216.709 149.985 215.351 149.985 213.84H145.985ZM145.488 215.011C145.286 215.23 145.005 215.395 144.43 215.395V219.395C145.961 219.395 147.365 218.875 148.427 217.725L145.488 215.011ZM144.43 215.395C144.044 215.395 143.707 215.303 143.383 215.114L141.368 218.57C142.308 219.118 143.341 219.395 144.43 219.395V215.395ZM143.552 215.225C143.264 215.015 143.029 214.736 142.849 214.345L139.217 216.021C139.668 216.999 140.329 217.827 141.199 218.459L143.552 215.225ZM142.879 214.414L137.744 202.09L134.051 203.628L139.186 215.952L142.879 214.414ZM135.898 200.859H109.038V204.859H135.898V200.859ZM107.191 202.09L102.056 214.414L105.749 215.952L110.884 203.628L107.191 202.09ZM102.087 214.345C101.927 214.692 101.698 214.96 101.371 215.178L103.59 218.506C104.527 217.882 105.247 217.044 105.719 216.021L102.087 214.345ZM101.407 215.155C101.172 215.304 100.892 215.395 100.506 215.395V219.395C101.594 219.395 102.63 219.117 103.554 218.529L101.407 215.155ZM111.803 198.302H133.133V194.302H111.803V198.302ZM134.98 195.535L124.315 169.86L120.621 171.394L131.286 197.069L134.98 195.535ZM120.621 169.86L109.956 195.535L113.65 197.069L124.315 171.394L120.621 169.86ZM166.162 216.368L167.576 214.954L166.162 216.368ZM166.162 162.569L167.576 163.983L167.602 163.957L167.628 163.93L166.162 162.569ZM171.218 162.569L169.752 163.93L169.803 163.984L169.857 164.035L171.218 162.569ZM171.218 216.368L169.857 214.902L169.83 214.928L169.804 214.954L171.218 216.368ZM168.69 215.395C168.2 215.395 167.872 215.25 167.576 214.954L164.748 217.782C165.821 218.856 167.179 219.395 168.69 219.395V215.395ZM167.576 214.954C167.28 214.658 167.135 214.33 167.135 213.84H163.135C163.135 215.351 163.674 216.709 164.748 217.782L167.576 214.954ZM167.135 213.84V165.097H163.135V213.84H167.135ZM167.135 165.097C167.135 164.607 167.28 164.279 167.576 163.983L164.748 161.155C163.674 162.228 163.135 163.586 163.135 165.097H167.135ZM167.628 163.93C167.936 163.598 168.249 163.463 168.69 163.463V159.463C167.13 159.463 165.757 160.066 164.696 161.208L167.628 163.93ZM168.69 163.463C169.131 163.463 169.444 163.598 169.752 163.93L172.684 161.208C171.623 160.066 170.25 159.463 168.69 159.463V163.463ZM169.857 164.035C170.189 164.343 170.324 164.656 170.324 165.097H174.324C174.324 163.537 173.721 162.164 172.579 161.103L169.857 164.035ZM170.324 165.097V213.84H174.324V165.097H170.324ZM170.324 213.84C170.324 214.281 170.189 214.594 169.857 214.902L172.579 217.834C173.721 216.773 174.324 215.4 174.324 213.84H170.324ZM169.804 214.954C169.508 215.25 169.18 215.395 168.69 215.395V219.395C170.201 219.395 171.559 218.856 172.632 217.782L169.804 214.954Z" fill="white"/>
<g filter="url(#filter1_d_204_566)">
<path d="M272 102H192C179.85 102 170 92.1503 170 80V0L272 102Z" fill="url(#paint2_linear_204_566)"/>
</g>
</g>
<mask id="mask1_204_566" style="mask-type:alpha" maskUnits="userSpaceOnUse" x="0" y="0" width="272" height="308">
<path d="M250 308H22C9.84974 308 0 298.15 0 286V22C0 9.84974 9.84974 0 22 0H170L272 102V286C272 298.15 262.15 308 250 308Z" fill="url(#paint3_linear_204_566)"/>
</mask>
<g mask="url(#mask1_204_566)">
<path d="M250 308H22C9.84974 308 0 298.15 0 286V22C0 9.84974 9.84974 0 22 0H170L272 102V286C272 298.15 262.15 308 250 308Z" fill="url(#paint4_linear_204_566)"/>
<g opacity="0.26" filter="url(#filter2_f_204_566)">
<rect x="48" y="149" width="178" height="84" fill="#E66000" style="mix-blend-mode:darken"/>
</g>
<path d="M88.3264 202.31C87.541 202.31 86.8797 202.041 86.3424 201.504C85.805 200.967 85.5364 200.305 85.5364 199.52V163.994H72.8884C72.1444 163.994 71.5244 163.746 71.0284 163.25C70.5324 162.754 70.2844 162.134 70.2844 161.39C70.2844 160.646 70.5324 160.026 71.0284 159.53C71.5244 158.993 72.1444 158.724 72.8884 158.724H103.764C104.508 158.724 105.128 158.993 105.624 159.53C106.162 160.026 106.43 160.646 106.43 161.39C106.43 162.134 106.162 162.754 105.624 163.25C105.128 163.746 104.508 163.994 103.764 163.994H91.1784V199.52C91.1784 200.305 90.889 200.967 90.3104 201.504C89.773 202.041 89.1117 202.31 88.3264 202.31ZM113.675 202.31C112.848 202.31 112.166 202.041 111.629 201.504C111.133 200.967 110.885 200.305 110.885 199.52C110.885 199.189 110.988 198.776 111.195 198.28L127.005 160.956C127.336 160.212 127.79 159.613 128.369 159.158C128.989 158.662 129.733 158.414 130.601 158.414H131.221C132.089 158.414 132.812 158.662 133.391 159.158C134.011 159.613 134.486 160.212 134.817 160.956L150.627 198.28C150.834 198.776 150.937 199.189 150.937 199.52C150.937 200.305 150.668 200.967 150.131 201.504C149.635 202.041 148.974 202.31 148.147 202.31C147.568 202.31 147.031 202.165 146.535 201.876C146.08 201.545 145.729 201.111 145.481 200.574L141.451 190.902H120.371L116.341 200.574C116.093 201.111 115.721 201.545 115.225 201.876C114.77 202.165 114.254 202.31 113.675 202.31ZM122.541 185.756H139.281L130.911 165.606L122.541 185.756ZM167.187 202.31C166.402 202.31 165.74 202.041 165.203 201.504C164.666 200.967 164.397 200.305 164.397 199.52V161.576C164.397 160.791 164.666 160.129 165.203 159.592C165.74 159.013 166.402 158.724 167.187 158.724H181.633C187.254 158.724 191.47 159.881 194.281 162.196C197.092 164.511 198.497 167.549 198.497 171.31C198.497 173.79 197.794 176.063 196.389 178.13C195.025 180.155 193.02 181.623 190.375 182.532C193.351 183.317 195.376 185.177 196.451 188.112C197.567 191.005 198.125 193.857 198.125 196.668V199.52C198.125 200.305 197.856 200.967 197.319 201.504C196.782 202.041 196.12 202.31 195.335 202.31C194.467 202.31 193.764 202.062 193.227 201.566C192.731 201.029 192.483 200.347 192.483 199.52V197.66C192.483 195.593 192.297 193.692 191.925 191.956C191.553 190.179 190.664 188.608 189.259 187.244C187.854 185.839 185.725 185.136 182.873 185.136H170.039V199.52C170.039 200.305 169.75 200.967 169.171 201.504C168.634 202.041 167.972 202.31 167.187 202.31ZM181.261 179.804C184.816 179.804 187.626 179.101 189.693 177.696C191.801 176.291 192.855 174.307 192.855 171.744C192.855 169.264 191.946 167.363 190.127 166.04C188.35 164.717 185.291 164.056 180.951 164.056H170.039V179.804H181.261Z" fill="white"/>
<path d="M86.3424 201.504L84.9282 202.918L86.3424 201.504ZM85.5364 163.994H87.5364V161.994H85.5364V163.994ZM71.0284 163.25L69.6142 164.664V164.664L71.0284 163.25ZM71.0284 159.53L72.4426 160.944L72.4708 160.916L72.498 160.887L71.0284 159.53ZM105.624 159.53L104.155 160.887L104.209 160.945L104.268 161L105.624 159.53ZM105.624 163.25L104.268 161.78L104.238 161.808L104.21 161.836L105.624 163.25ZM91.1784 163.994V161.994H89.1784V163.994H91.1784ZM90.3104 201.504L88.9495 200.038L88.9223 200.064L88.8961 200.09L90.3104 201.504ZM88.3264 200.31C88.0516 200.31 87.905 200.238 87.7566 200.09L84.9282 202.918C85.8544 203.844 87.0304 204.31 88.3264 204.31V200.31ZM87.7566 200.09C87.6081 199.941 87.5364 199.795 87.5364 199.52H83.5364C83.5364 200.816 84.0019 201.992 84.9282 202.918L87.7566 200.09ZM87.5364 199.52V163.994H83.5364V199.52H87.5364ZM85.5364 161.994H72.8884V165.994H85.5364V161.994ZM72.8884 161.994C72.6391 161.994 72.539 161.932 72.4426 161.836L69.6142 164.664C70.5097 165.56 71.6496 165.994 72.8884 165.994V161.994ZM72.4426 161.836C72.3462 161.739 72.2844 161.639 72.2844 161.39H68.2844C68.2844 162.629 68.7186 163.769 69.6142 164.664L72.4426 161.836ZM72.2844 161.39C72.2844 161.141 72.3462 161.041 72.4426 160.944L69.6142 158.116C68.7186 159.011 68.2844 160.151 68.2844 161.39H72.2844ZM72.498 160.887C72.6079 160.767 72.6915 160.724 72.8884 160.724V156.724C71.5972 156.724 70.4408 157.218 69.5588 158.173L72.498 160.887ZM72.8884 160.724H103.764V156.724H72.8884V160.724ZM103.764 160.724C103.961 160.724 104.045 160.767 104.155 160.887L107.094 158.173C106.212 157.218 105.056 156.724 103.764 156.724V160.724ZM104.268 161C104.387 161.11 104.43 161.193 104.43 161.39H108.43C108.43 160.099 107.936 158.942 106.981 158.06L104.268 161ZM104.43 161.39C104.43 161.587 104.387 161.67 104.268 161.78L106.981 164.72C107.936 163.838 108.43 162.681 108.43 161.39H104.43ZM104.21 161.836C104.114 161.932 104.014 161.994 103.764 161.994V165.994C105.003 165.994 106.143 165.56 107.039 164.664L104.21 161.836ZM103.764 161.994H91.1784V165.994H103.764V161.994ZM89.1784 163.994V199.52H93.1784V163.994H89.1784ZM89.1784 199.52C89.1784 199.746 89.1232 199.877 88.9495 200.038L91.6713 202.97C92.6549 202.056 93.1784 200.865 93.1784 199.52H89.1784ZM88.8961 200.09C88.7477 200.238 88.6011 200.31 88.3264 200.31V204.31C89.6223 204.31 90.7984 203.844 91.7246 202.918L88.8961 200.09ZM111.629 201.504L110.16 202.861L110.187 202.89L110.215 202.918L111.629 201.504ZM111.195 198.28L109.354 197.5L109.349 197.511L111.195 198.28ZM127.005 160.956L125.178 160.144L125.17 160.16L125.164 160.176L127.005 160.956ZM128.369 159.158L129.605 160.731L129.612 160.725L129.619 160.72L128.369 159.158ZM133.391 159.158L132.09 160.677L132.147 160.726L132.208 160.771L133.391 159.158ZM134.817 160.956L136.659 160.176L136.652 160.16L136.645 160.144L134.817 160.956ZM150.627 198.28L152.473 197.511L152.469 197.5L150.627 198.28ZM150.131 201.504L148.717 200.09L148.689 200.118L148.662 200.147L150.131 201.504ZM146.535 201.876L145.359 203.493L145.44 203.553L145.527 203.604L146.535 201.876ZM145.481 200.574L143.635 201.343L143.649 201.378L143.665 201.412L145.481 200.574ZM141.451 190.902L143.297 190.133L142.784 188.902H141.451V190.902ZM120.371 190.902V188.902H119.038L118.525 190.133L120.371 190.902ZM116.341 200.574L118.157 201.412L118.173 201.378L118.187 201.343L116.341 200.574ZM115.225 201.876L116.299 203.563L116.317 203.552L116.335 203.54L115.225 201.876ZM122.541 185.756L120.694 184.989L119.545 187.756H122.541V185.756ZM139.281 185.756V187.756H142.278L141.128 184.989L139.281 185.756ZM130.911 165.606L132.758 164.839L130.911 160.392L129.064 164.839L130.911 165.606ZM113.675 200.31C113.328 200.31 113.171 200.217 113.043 200.09L110.215 202.918C111.162 203.865 112.369 204.31 113.675 204.31V200.31ZM113.099 200.147C112.97 200.008 112.885 199.843 112.885 199.52H108.885C108.885 200.767 109.296 201.925 110.16 202.861L113.099 200.147ZM112.885 199.52C112.885 199.557 112.88 199.538 112.903 199.447C112.925 199.359 112.967 199.228 113.041 199.049L109.349 197.511C109.096 198.117 108.885 198.811 108.885 199.52H112.885ZM113.037 199.06L128.847 161.736L125.164 160.176L109.354 197.5L113.037 199.06ZM128.833 161.768C129.045 161.29 129.309 160.963 129.605 160.731L127.134 157.585C126.272 158.262 125.626 159.134 125.178 160.144L128.833 161.768ZM129.619 160.72C129.85 160.534 130.142 160.414 130.601 160.414V156.414C129.324 156.414 128.128 156.79 127.12 157.596L129.619 160.72ZM130.601 160.414H131.221V156.414H130.601V160.414ZM131.221 160.414C131.682 160.414 131.924 160.534 132.09 160.677L134.693 157.639C133.701 156.79 132.496 156.414 131.221 156.414V160.414ZM132.208 160.771C132.531 161.007 132.792 161.323 132.99 161.768L136.645 160.144C136.181 159.101 135.492 158.218 134.574 157.545L132.208 160.771ZM132.976 161.736L148.786 199.06L152.469 197.5L136.659 160.176L132.976 161.736ZM148.781 199.049C148.855 199.228 148.897 199.359 148.919 199.447C148.942 199.538 148.937 199.557 148.937 199.52H152.937C152.937 198.811 152.726 198.117 152.473 197.511L148.781 199.049ZM148.937 199.52C148.937 199.795 148.865 199.941 148.717 200.09L151.545 202.918C152.472 201.992 152.937 200.816 152.937 199.52H148.937ZM148.662 200.147C148.595 200.219 148.496 200.31 148.147 200.31V204.31C149.452 204.31 150.675 203.864 151.601 202.861L148.662 200.147ZM148.147 200.31C147.92 200.31 147.731 200.258 147.543 200.148L145.527 203.604C146.332 204.073 147.217 204.31 148.147 204.31V200.31ZM147.712 200.259C147.548 200.139 147.41 199.98 147.297 199.736L143.665 201.412C144.049 202.243 144.613 202.951 145.359 203.493L147.712 200.259ZM147.327 199.805L143.297 190.133L139.605 191.671L143.635 201.343L147.327 199.805ZM141.451 188.902H120.371V192.902H141.451V188.902ZM118.525 190.133L114.495 199.805L118.187 201.343L122.217 191.671L118.525 190.133ZM114.525 199.736C114.433 199.935 114.307 200.084 114.116 200.212L116.335 203.54C117.135 203.006 117.753 202.287 118.157 201.412L114.525 199.736ZM114.151 200.189C114.041 200.259 113.903 200.31 113.675 200.31V204.31C114.605 204.31 115.5 204.072 116.299 203.563L114.151 200.189ZM122.541 187.756H139.281V183.756H122.541V187.756ZM141.128 184.989L132.758 164.839L129.064 166.373L137.434 186.523L141.128 184.989ZM129.064 164.839L120.694 184.989L124.388 186.523L132.758 166.373L129.064 164.839ZM165.203 201.504L166.617 200.09L165.203 201.504ZM165.203 159.592L166.617 161.006L166.643 160.98L166.669 160.953L165.203 159.592ZM194.281 162.196L195.552 160.652V160.652L194.281 162.196ZM196.389 178.13L194.735 177.005L194.73 177.013L196.389 178.13ZM190.375 182.532L189.725 180.641L183.49 182.784L189.865 184.466L190.375 182.532ZM196.451 188.112L194.573 188.8L194.579 188.816L194.585 188.832L196.451 188.112ZM197.319 201.504L198.733 202.918L197.319 201.504ZM193.227 201.566L191.757 202.923L191.812 202.981L191.87 203.036L193.227 201.566ZM191.925 191.956L189.967 192.366L189.969 192.375L191.925 191.956ZM189.259 187.244L187.845 188.658L187.855 188.669L187.866 188.679L189.259 187.244ZM170.039 185.136V183.136H168.039V185.136H170.039ZM169.171 201.504L167.81 200.038L167.783 200.064L167.757 200.09L169.171 201.504ZM189.693 177.696L188.584 176.032L188.576 176.037L188.568 176.042L189.693 177.696ZM190.127 166.04L188.933 167.644L188.942 167.651L188.951 167.657L190.127 166.04ZM170.039 164.056V162.056H168.039V164.056H170.039ZM170.039 179.804H168.039V181.804H170.039V179.804ZM167.187 200.31C166.912 200.31 166.766 200.238 166.617 200.09L163.789 202.918C164.715 203.844 165.891 204.31 167.187 204.31V200.31ZM166.617 200.09C166.469 199.941 166.397 199.795 166.397 199.52H162.397C162.397 200.816 162.863 201.992 163.789 202.918L166.617 200.09ZM166.397 199.52V161.576H162.397V199.52H166.397ZM166.397 161.576C166.397 161.301 166.469 161.155 166.617 161.006L163.789 158.178C162.863 159.104 162.397 160.28 162.397 161.576H166.397ZM166.669 160.953C166.83 160.779 166.961 160.724 167.187 160.724V156.724C165.842 156.724 164.651 157.247 163.737 158.231L166.669 160.953ZM167.187 160.724H181.633V156.724H167.187V160.724ZM181.633 160.724C187.03 160.724 190.706 161.843 193.01 163.74L195.552 160.652C192.234 157.92 187.478 156.724 181.633 156.724V160.724ZM193.01 163.74C195.342 165.66 196.497 168.124 196.497 171.31H200.497C200.497 166.974 198.842 163.361 195.552 160.652L193.01 163.74ZM196.497 171.31C196.497 173.386 195.917 175.268 194.735 177.005L198.043 179.255C199.672 176.859 200.497 174.194 200.497 171.31H196.497ZM194.73 177.013C193.644 178.626 192.021 179.851 189.725 180.641L191.025 184.423C194.019 183.394 196.406 181.685 198.048 179.247L194.73 177.013ZM189.865 184.466C192.197 185.081 193.719 186.468 194.573 188.8L198.329 187.424C197.034 183.887 194.505 181.553 190.885 180.598L189.865 184.466ZM194.585 188.832C195.622 191.519 196.125 194.128 196.125 196.668H200.125C200.125 193.587 199.512 190.492 198.317 187.392L194.585 188.832ZM196.125 196.668V199.52H200.125V196.668H196.125ZM196.125 199.52C196.125 199.795 196.053 199.941 195.905 200.09L198.733 202.918C199.659 201.992 200.125 200.816 200.125 199.52H196.125ZM195.905 200.09C195.756 200.238 195.61 200.31 195.335 200.31V204.31C196.631 204.31 197.807 203.844 198.733 202.918L195.905 200.09ZM195.335 200.31C194.87 200.31 194.684 200.189 194.584 200.096L191.87 203.036C192.844 203.935 194.064 204.31 195.335 204.31V200.31ZM194.697 200.209C194.587 200.09 194.483 199.915 194.483 199.52H190.483C190.483 200.779 190.875 201.967 191.757 202.923L194.697 200.209ZM194.483 199.52V197.66H190.483V199.52H194.483ZM194.483 197.66C194.483 195.475 194.286 193.431 193.881 191.537L189.969 192.375C190.308 193.953 190.483 195.712 190.483 197.66H194.483ZM193.883 191.546C193.422 189.348 192.32 187.428 190.652 185.809L187.866 188.679C189.009 189.788 189.684 191.01 189.967 192.366L193.883 191.546ZM190.673 185.83C188.756 183.912 186.023 183.136 182.873 183.136V187.136C185.427 187.136 186.952 187.765 187.845 188.658L190.673 185.83ZM182.873 183.136H170.039V187.136H182.873V183.136ZM168.039 185.136V199.52H172.039V185.136H168.039ZM168.039 199.52C168.039 199.746 167.984 199.877 167.81 200.038L170.532 202.97C171.516 202.056 172.039 200.865 172.039 199.52H168.039ZM167.757 200.09C167.608 200.238 167.462 200.31 167.187 200.31V204.31C168.483 204.31 169.659 203.844 170.585 202.918L167.757 200.09ZM181.261 181.804C185.054 181.804 188.306 181.057 190.818 179.35L188.568 176.042C186.946 177.145 184.577 177.804 181.261 177.804V181.804ZM190.802 179.36C193.474 177.579 194.855 174.966 194.855 171.744H190.855C190.855 173.647 190.127 175.003 188.584 176.032L190.802 179.36ZM194.855 171.744C194.855 168.7 193.698 166.164 191.303 164.423L188.951 167.657C190.193 168.561 190.855 169.828 190.855 171.744H194.855ZM191.321 164.436C188.997 162.706 185.373 162.056 180.951 162.056V166.056C185.209 166.056 187.702 166.729 188.933 167.644L191.321 164.436ZM180.951 162.056H170.039V166.056H180.951V162.056ZM168.039 164.056V179.804H172.039V164.056H168.039ZM170.039 181.804H181.261V177.804H170.039V181.804Z" fill="white"/>
<g filter="url(#filter3_d_204_566)">
<path d="M272 102H192C179.85 102 170 92.1503 170 80V0L272 102Z" fill="url(#paint5_linear_204_566)"/>
</g>
</g>
<defs>
<filter id="filter0_f_204_566" x="9" y="110" width="256" height="162" filterUnits="userSpaceOnUse" color-interpolation-filters="sRGB">
<feFlood flood-opacity="0" result="BackgroundImageFix"/>
<feBlend mode="normal" in="SourceGraphic" in2="BackgroundImageFix" result="shape"/>
<feGaussianBlur stdDeviation="19.5" result="effect1_foregroundBlur_204_566"/>
</filter>
<filter id="filter1_d_204_566" x="147" y="-24" width="152" height="152" filterUnits="userSpaceOnUse" color-interpolation-filters="sRGB">
<feFlood flood-opacity="0" result="BackgroundImageFix"/>
<feColorMatrix in="SourceAlpha" type="matrix" values="0 0 0 0 0 0 0 0 0 0 0 0 0 0 0 0 0 0 127 0" result="hardAlpha"/>
<feOffset dx="2" dy="1"/>
<feGaussianBlur stdDeviation="12.5"/>
<feColorMatrix type="matrix" values="0 0 0 0 0 0 0 0 0 0 0 0 0 0 0 0 0 0 0.33 0"/>
<feBlend mode="normal" in2="BackgroundImageFix" result="effect1_dropShadow_204_566"/>
<feBlend mode="normal" in="SourceGraphic" in2="effect1_dropShadow_204_566" result="shape"/>
</filter>
<filter id="filter2_f_204_566" x="9" y="110" width="256" height="162" filterUnits="userSpaceOnUse" color-interpolation-filters="sRGB">
<feFlood flood-opacity="0" result="BackgroundImageFix"/>
<feBlend mode="normal" in="SourceGraphic" in2="BackgroundImageFix" result="shape"/>
<feGaussianBlur stdDeviation="19.5" result="effect1_foregroundBlur_204_566"/>
</filter>
<filter id="filter3_d_204_566" x="147" y="-24" width="152" height="152" filterUnits="userSpaceOnUse" color-interpolation-filters="sRGB">
<feFlood flood-opacity="0" result="BackgroundImageFix"/>
<feColorMatrix in="SourceAlpha" type="matrix" values="0 0 0 0 0 0 0 0 0 0 0 0 0 0 0 0 0 0 127 0" result="hardAlpha"/>
<feOffset dx="2" dy="1"/>
<feGaussianBlur stdDeviation="12.5"/>
<feColorMatrix type="matrix" values="0 0 0 0 0 0 0 0 0 0 0 0 0 0 0 0 0 0 0.33 0"/>
<feBlend mode="normal" in2="BackgroundImageFix" result="effect1_dropShadow_204_566"/>
<feBlend mode="normal" in="SourceGraphic" in2="effect1_dropShadow_204_566" result="shape"/>
</filter>
<linearGradient id="paint0_linear_204_566" x1="136" y1="0" x2="136" y2="308" gradientUnits="userSpaceOnUse">
<stop stop-color="#FF7979"/>
<stop offset="1" stop-color="#E85555"/>
</linearGradient>
<linearGradient id="paint1_linear_204_566" x1="136" y1="0" x2="136" y2="308" gradientUnits="userSpaceOnUse">
<stop stop-color="#FFA216"/>
<stop offset="1" stop-color="#EF8100"/>
</linearGradient>
<linearGradient id="paint2_linear_204_566" x1="221" y1="0" x2="221" y2="102" gradientUnits="userSpaceOnUse">
<stop stop-color="#FF7A1B"/>
<stop offset="1" stop-color="#E86100"/>
</linearGradient>
<linearGradient id="paint3_linear_204_566" x1="136" y1="0" x2="136" y2="308" gradientUnits="userSpaceOnUse">
<stop stop-color="#FF7979"/>
<stop offset="1" stop-color="#E85555"/>
</linearGradient>
<linearGradient id="paint4_linear_204_566" x1="136" y1="0" x2="136" y2="308" gradientUnits="userSpaceOnUse">
<stop stop-color="#FFA216"/>
<stop offset="1" stop-color="#EF8100"/>
</linearGradient>
<linearGradient id="paint5_linear_204_566" x1="221" y1="0" x2="221" y2="102" gradientUnits="userSpaceOnUse">
<stop stop-color="#FF7A1B"/>
<stop offset="1" stop-color="#E86100"/>
</linearGradient>
</defs>
</svg>
