<svg width="272" height="308" viewBox="0 0 272 308" fill="none" xmlns="http://www.w3.org/2000/svg">
<mask id="mask0_214_21" style="mask-type:alpha" maskUnits="userSpaceOnUse" x="0" y="0" width="272" height="308">
<path d="M250 308H22C9.84974 308 0 298.15 0 286V22C0 9.84974 9.84974 0 22 0H170L272 102V286C272 298.15 262.15 308 250 308Z" fill="url(#paint0_linear_214_21)"/>
</mask>
<g mask="url(#mask0_214_21)">
<path d="M250 308H22C9.84974 308 0 298.15 0 286V22C0 9.84974 9.84974 0 22 0H170L272 102V286C272 298.15 262.15 308 250 308Z" fill="url(#paint1_linear_214_21)"/>
<g opacity="0.26" filter="url(#filter0_f_214_21)">
<rect x="48" y="149" width="178" height="84" fill="#E66000" style="mix-blend-mode:darken"/>
</g>
<path d="M100.506 217.395C99.4523 217.395 98.5833 217.053 97.8986 216.368C97.2666 215.683 96.9506 214.841 96.9506 213.84C96.9506 213.419 97.0823 212.892 97.3456 212.26L117.491 164.702C117.912 163.754 118.491 162.99 119.229 162.411C120.019 161.779 120.967 161.463 122.073 161.463H122.863C123.969 161.463 124.89 161.779 125.628 162.411C126.418 162.99 127.023 163.754 127.445 164.702L147.59 212.26C147.853 212.892 147.985 213.419 147.985 213.84C147.985 214.841 147.642 215.683 146.958 216.368C146.326 217.053 145.483 217.395 144.43 217.395C143.692 217.395 143.008 217.211 142.376 216.842C141.796 216.421 141.349 215.868 141.033 215.183L135.898 202.859H109.038L103.903 215.183C103.587 215.868 103.113 216.421 102.481 216.842C101.901 217.211 101.243 217.395 100.506 217.395ZM111.803 196.302H133.133L122.468 170.627L111.803 196.302ZM168.69 217.395C167.689 217.395 166.847 217.053 166.162 216.368C165.477 215.683 165.135 214.841 165.135 213.84V165.097C165.135 164.096 165.477 163.254 166.162 162.569C166.847 161.832 167.689 161.463 168.69 161.463C169.691 161.463 170.533 161.832 171.218 162.569C171.955 163.254 172.324 164.096 172.324 165.097V213.84C172.324 214.841 171.955 215.683 171.218 216.368C170.533 217.053 169.691 217.395 168.69 217.395Z" fill="white"/>
<path d="M97.8986 216.368L96.429 217.725L96.4561 217.754L96.4844 217.782L97.8986 216.368ZM97.3456 212.26L95.504 211.48L95.4995 211.491L97.3456 212.26ZM117.491 164.702L115.663 163.89L115.656 163.906L115.649 163.922L117.491 164.702ZM119.229 162.411L120.464 163.984L120.471 163.978L120.478 163.973L119.229 162.411ZM125.628 162.411L124.326 163.93L124.384 163.979L124.445 164.024L125.628 162.411ZM127.445 164.702L129.286 163.922L129.279 163.906L129.272 163.89L127.445 164.702ZM147.59 212.26L149.436 211.491L149.431 211.48L147.59 212.26ZM146.958 216.368L145.543 214.954L145.515 214.982L145.488 215.011L146.958 216.368ZM142.376 216.842L141.199 218.459L141.281 218.519L141.368 218.57L142.376 216.842ZM141.033 215.183L139.186 215.952L139.201 215.987L139.217 216.021L141.033 215.183ZM135.898 202.859L137.744 202.09L137.231 200.859H135.898V202.859ZM109.038 202.859V200.859H107.704L107.191 202.09L109.038 202.859ZM103.903 215.183L105.719 216.021L105.734 215.987L105.749 215.952L103.903 215.183ZM102.481 216.842L103.554 218.529L103.572 218.518L103.59 218.506L102.481 216.842ZM111.803 196.302L109.956 195.535L108.806 198.302H111.803V196.302ZM133.133 196.302V198.302H136.129L134.98 195.535L133.133 196.302ZM122.468 170.627L124.315 169.86L122.468 165.413L120.621 169.86L122.468 170.627ZM100.506 215.395C99.9314 215.395 99.5876 215.229 99.3128 214.954L96.4844 217.782C97.579 218.877 98.9732 219.395 100.506 219.395V215.395ZM99.3682 215.011C99.1038 214.725 98.9506 214.379 98.9506 213.84H94.9506C94.9506 215.303 95.4294 216.642 96.429 217.725L99.3682 215.011ZM98.9506 213.84C98.9506 213.797 98.9743 213.551 99.1918 213.029L95.4995 211.491C95.1903 212.233 94.9506 213.041 94.9506 213.84H98.9506ZM99.1872 213.04L119.332 165.482L115.649 163.922L95.504 211.48L99.1872 213.04ZM119.318 165.514C119.622 164.832 120.01 164.341 120.464 163.984L117.993 160.838C116.973 161.64 116.202 162.676 115.663 163.89L119.318 165.514ZM120.478 163.973C120.88 163.651 121.376 163.463 122.073 163.463V159.463C120.558 159.463 119.158 159.907 117.979 160.849L120.478 163.973ZM122.073 163.463H122.863V159.463H122.073V163.463ZM122.863 163.463C123.562 163.463 124.001 163.651 124.326 163.93L126.929 160.892C125.779 159.907 124.376 159.463 122.863 159.463V163.463ZM124.445 164.024C124.937 164.385 125.329 164.865 125.617 165.514L129.272 163.89C128.718 162.643 127.898 161.596 126.81 160.798L124.445 164.024ZM125.603 165.482L145.748 213.04L149.431 211.48L129.286 163.922L125.603 165.482ZM145.743 213.029C145.961 213.551 145.985 213.797 145.985 213.84H149.985C149.985 213.041 149.745 212.233 149.436 211.491L145.743 213.029ZM145.985 213.84C145.985 214.33 145.839 214.658 145.543 214.954L148.372 217.782C149.445 216.709 149.985 215.351 149.985 213.84H145.985ZM145.488 215.011C145.286 215.23 145.005 215.395 144.43 215.395V219.395C145.961 219.395 147.365 218.875 148.427 217.725L145.488 215.011ZM144.43 215.395C144.044 215.395 143.707 215.303 143.383 215.114L141.368 218.57C142.308 219.118 143.341 219.395 144.43 219.395V215.395ZM143.552 215.225C143.264 215.015 143.029 214.736 142.849 214.345L139.217 216.021C139.668 216.999 140.329 217.827 141.199 218.459L143.552 215.225ZM142.879 214.414L137.744 202.09L134.051 203.628L139.186 215.952L142.879 214.414ZM135.898 200.859H109.038V204.859H135.898V200.859ZM107.191 202.09L102.056 214.414L105.749 215.952L110.884 203.628L107.191 202.09ZM102.087 214.345C101.927 214.692 101.698 214.96 101.371 215.178L103.59 218.506C104.527 217.882 105.247 217.044 105.719 216.021L102.087 214.345ZM101.407 215.155C101.172 215.304 100.892 215.395 100.506 215.395V219.395C101.594 219.395 102.63 219.117 103.554 218.529L101.407 215.155ZM111.803 198.302H133.133V194.302H111.803V198.302ZM134.98 195.535L124.315 169.86L120.621 171.394L131.286 197.069L134.98 195.535ZM120.621 169.86L109.956 195.535L113.65 197.069L124.315 171.394L120.621 169.86ZM166.162 216.368L167.576 214.954L167.576 214.954L166.162 216.368ZM166.162 162.569L167.576 163.983L167.602 163.957L167.628 163.93L166.162 162.569ZM171.218 162.569L169.752 163.93L169.803 163.984L169.857 164.035L171.218 162.569ZM171.218 216.368L169.857 214.902L169.83 214.928L169.804 214.954L171.218 216.368ZM168.69 215.395C168.2 215.395 167.872 215.25 167.576 214.954L164.748 217.782C165.821 218.856 167.179 219.395 168.69 219.395V215.395ZM167.576 214.954C167.28 214.658 167.135 214.33 167.135 213.84H163.135C163.135 215.351 163.674 216.709 164.748 217.782L167.576 214.954ZM167.135 213.84V165.097H163.135V213.84H167.135ZM167.135 165.097C167.135 164.607 167.28 164.279 167.576 163.983L164.748 161.155C163.674 162.228 163.135 163.586 163.135 165.097H167.135ZM167.628 163.93C167.936 163.598 168.249 163.463 168.69 163.463V159.463C167.13 159.463 165.757 160.066 164.696 161.208L167.628 163.93ZM168.69 163.463C169.131 163.463 169.444 163.598 169.752 163.93L172.684 161.208C171.623 160.066 170.25 159.463 168.69 159.463V163.463ZM169.857 164.035C170.189 164.343 170.324 164.656 170.324 165.097H174.324C174.324 163.537 173.721 162.164 172.579 161.103L169.857 164.035ZM170.324 165.097V213.84H174.324V165.097H170.324ZM170.324 213.84C170.324 214.281 170.189 214.594 169.857 214.902L172.579 217.834C173.721 216.773 174.324 215.4 174.324 213.84H170.324ZM169.804 214.954C169.508 215.25 169.18 215.395 168.69 215.395V219.395C170.201 219.395 171.559 218.856 172.632 217.782L169.804 214.954Z" fill="white"/>
<g filter="url(#filter1_d_214_21)">
<path d="M272 102H192C179.85 102 170 92.1503 170 80V0L272 102Z" fill="url(#paint2_linear_214_21)"/>
</g>
</g>
<mask id="mask1_214_21" style="mask-type:alpha" maskUnits="userSpaceOnUse" x="0" y="0" width="272" height="308">
<path d="M250 308H22C9.84974 308 0 298.15 0 286V22C0 9.84974 9.84974 0 22 0H170L272 102V286C272 298.15 262.15 308 250 308Z" fill="url(#paint3_linear_214_21)"/>
</mask>
<g mask="url(#mask1_214_21)">
<path d="M250 308H22C9.84974 308 0 298.15 0 286V22C0 9.84974 9.84974 0 22 0H170L272 102V286C272 298.15 262.15 308 250 308Z" fill="url(#paint4_linear_214_21)"/>
<g opacity="0.26" filter="url(#filter2_f_214_21)">
<rect x="48" y="149" width="178" height="84" fill="#E66000" style="mix-blend-mode:darken"/>
</g>
<path d="M89.1437 202.31C88.3584 202.31 87.6971 202.041 87.1597 201.504C86.6224 200.967 86.3537 200.305 86.3537 199.52V163.994H73.7057C72.9617 163.994 72.3417 163.746 71.8457 163.25C71.3497 162.754 71.1017 162.134 71.1017 161.39C71.1017 160.646 71.3497 160.026 71.8457 159.53C72.3417 158.993 72.9617 158.724 73.7057 158.724H104.582C105.326 158.724 105.946 158.993 106.442 159.53C106.979 160.026 107.248 160.646 107.248 161.39C107.248 162.134 106.979 162.754 106.442 163.25C105.946 163.746 105.326 163.994 104.582 163.994H91.9957V199.52C91.9957 200.305 91.7064 200.967 91.1277 201.504C90.5904 202.041 89.9291 202.31 89.1437 202.31ZM136.075 202.62C131.818 202.62 128.036 201.69 124.729 199.83C121.423 197.929 118.86 195.304 117.041 191.956C115.223 188.567 114.313 184.723 114.313 180.424C114.313 176.043 115.264 172.157 117.165 168.768C119.067 165.379 121.65 162.754 124.915 160.894C128.222 159.034 131.88 158.104 135.889 158.104C139.113 158.104 141.924 158.497 144.321 159.282C146.76 160.067 149.095 161.163 151.327 162.568C151.658 162.733 151.947 163.023 152.195 163.436C152.443 163.849 152.567 164.304 152.567 164.8C152.567 165.503 152.319 166.102 151.823 166.598C151.369 167.094 150.749 167.342 149.963 167.342C149.509 167.342 149.075 167.239 148.661 167.032C146.719 165.875 144.776 165.007 142.833 164.428C140.891 163.849 138.783 163.56 136.509 163.56C133.368 163.56 130.537 164.221 128.015 165.544C125.494 166.867 123.51 168.809 122.063 171.372C120.658 173.893 119.955 176.911 119.955 180.424C119.955 183.648 120.617 186.541 121.939 189.104C123.303 191.625 125.246 193.63 127.767 195.118C130.33 196.565 133.347 197.288 136.819 197.288C140.705 197.288 144.321 196.379 147.669 194.56V183.338H137.439C136.737 183.338 136.137 183.09 135.641 182.594C135.145 182.098 134.897 181.499 134.897 180.796C134.897 180.093 135.145 179.494 135.641 178.998C136.137 178.502 136.737 178.254 137.439 178.254H149.653C150.48 178.254 151.183 178.543 151.761 179.122C152.34 179.701 152.629 180.403 152.629 181.23V195.304C152.629 196.172 152.402 196.957 151.947 197.66C151.534 198.321 150.976 198.817 150.273 199.148C145.644 201.463 140.911 202.62 136.075 202.62ZM168.677 202C167.685 202 166.838 201.649 166.135 200.946C165.432 200.243 165.081 199.396 165.081 198.404C165.081 197.495 165.329 196.73 165.825 196.11L191.741 164.118H167.871C167.127 164.118 166.486 163.87 165.949 163.374C165.453 162.837 165.205 162.196 165.205 161.452C165.205 160.708 165.453 160.067 165.949 159.53C166.486 158.993 167.127 158.724 167.871 158.724H194.779C195.936 158.724 196.846 159.096 197.507 159.84C198.21 160.584 198.561 161.493 198.561 162.568C198.561 162.981 198.458 163.415 198.251 163.87C198.086 164.325 197.858 164.717 197.569 165.048L171.963 196.73H196.267C197.011 196.73 197.631 196.999 198.127 197.536C198.664 198.032 198.933 198.652 198.933 199.396C198.933 200.14 198.664 200.76 198.127 201.256C197.631 201.752 197.011 202 196.267 202H168.677Z" fill="white"/>
<path d="M87.1597 201.504L85.7455 202.918L87.1597 201.504ZM86.3537 163.994H88.3537V161.994H86.3537V163.994ZM71.8457 163.25L70.4315 164.664L70.4315 164.664L71.8457 163.25ZM71.8457 159.53L73.26 160.944L73.2882 160.916L73.3154 160.887L71.8457 159.53ZM106.442 159.53L104.972 160.887L105.026 160.945L105.085 161L106.442 159.53ZM106.442 163.25L105.085 161.78L105.056 161.808L105.028 161.836L106.442 163.25ZM91.9957 163.994V161.994H89.9957V163.994H91.9957ZM91.1277 201.504L89.7668 200.038L89.7397 200.064L89.7135 200.09L91.1277 201.504ZM89.1437 200.31C88.869 200.31 88.7224 200.238 88.574 200.09L85.7455 202.918C86.6717 203.844 87.8478 204.31 89.1437 204.31V200.31ZM88.574 200.09C88.4255 199.941 88.3537 199.795 88.3537 199.52H84.3537C84.3537 200.816 84.8193 201.992 85.7455 202.918L88.574 200.09ZM88.3537 199.52V163.994H84.3537V199.52H88.3537ZM86.3537 161.994H73.7057V165.994H86.3537V161.994ZM73.7057 161.994C73.4565 161.994 73.3564 161.932 73.26 161.836L70.4315 164.664C71.3271 165.56 72.467 165.994 73.7057 165.994V161.994ZM73.26 161.836C73.1636 161.739 73.1017 161.639 73.1017 161.39H69.1017C69.1017 162.629 69.5359 163.769 70.4315 164.664L73.26 161.836ZM73.1017 161.39C73.1017 161.141 73.1636 161.041 73.26 160.944L70.4315 158.116C69.5359 159.011 69.1017 160.151 69.1017 161.39H73.1017ZM73.3154 160.887C73.4253 160.767 73.5089 160.724 73.7057 160.724V156.724C72.4146 156.724 71.2582 157.218 70.3761 158.173L73.3154 160.887ZM73.7057 160.724H104.582V156.724H73.7057V160.724ZM104.582 160.724C104.779 160.724 104.862 160.767 104.972 160.887L107.911 158.173C107.029 157.218 105.873 156.724 104.582 156.724V160.724ZM105.085 161C105.204 161.11 105.248 161.193 105.248 161.39H109.248C109.248 160.099 108.754 158.942 107.798 158.06L105.085 161ZM105.248 161.39C105.248 161.587 105.204 161.67 105.085 161.78L107.798 164.72C108.754 163.838 109.248 162.681 109.248 161.39H105.248ZM105.028 161.836C104.931 161.932 104.831 161.994 104.582 161.994V165.994C105.82 165.994 106.96 165.56 107.856 164.664L105.028 161.836ZM104.582 161.994H91.9957V165.994H104.582V161.994ZM89.9957 163.994V199.52H93.9957V163.994H89.9957ZM89.9957 199.52C89.9957 199.746 89.9405 199.877 89.7668 200.038L92.4886 202.97C93.4723 202.056 93.9957 200.865 93.9957 199.52H89.9957ZM89.7135 200.09C89.5651 200.238 89.4185 200.31 89.1437 200.31V204.31C90.4397 204.31 91.6158 203.844 92.542 202.918L89.7135 200.09ZM124.729 199.83L123.732 201.564L123.741 201.569L123.749 201.573L124.729 199.83ZM117.041 191.956L115.279 192.902L115.284 192.911L117.041 191.956ZM117.165 168.768L118.91 169.747L118.91 169.747L117.165 168.768ZM124.915 160.894L123.935 159.151L123.925 159.156L124.915 160.894ZM144.321 159.282L143.699 161.183L143.708 161.186L144.321 159.282ZM151.327 162.568L150.262 164.26L150.345 164.313L150.433 164.357L151.327 162.568ZM152.195 163.436L150.48 164.465L150.48 164.465L152.195 163.436ZM151.823 166.598L150.409 165.184L150.378 165.215L150.349 165.247L151.823 166.598ZM148.661 167.032L147.638 168.75L147.701 168.788L147.767 168.821L148.661 167.032ZM142.833 164.428L143.404 162.511L143.404 162.511L142.833 164.428ZM128.015 165.544L128.944 167.315L128.944 167.315L128.015 165.544ZM122.063 171.372L120.322 170.389L120.316 170.398L122.063 171.372ZM121.939 189.104L120.162 190.021L120.171 190.039L120.18 190.056L121.939 189.104ZM127.767 195.118L126.751 196.84L126.767 196.85L126.784 196.86L127.767 195.118ZM147.669 194.56L148.624 196.317L149.669 195.75V194.56H147.669ZM147.669 183.338H149.669V181.338H147.669V183.338ZM151.947 197.66L150.268 196.573L150.26 196.587L150.251 196.6L151.947 197.66ZM150.273 199.148L149.422 197.338L149.4 197.348L149.379 197.359L150.273 199.148ZM136.075 200.62C132.119 200.62 128.682 199.759 125.71 198.087L123.749 201.573C127.39 203.621 131.517 204.62 136.075 204.62V200.62ZM125.726 198.096C122.74 196.379 120.441 194.024 118.799 191.001L115.284 192.911C117.279 196.584 120.105 199.478 123.732 201.564L125.726 198.096ZM118.804 191.01C117.159 187.945 116.313 184.432 116.313 180.424H112.313C112.313 185.013 113.287 189.189 115.279 192.902L118.804 191.01ZM116.313 180.424C116.313 176.341 117.196 172.8 118.91 169.747L115.421 167.789C113.332 171.514 112.313 175.744 112.313 180.424H116.313ZM118.91 169.747C120.64 166.663 122.967 164.306 125.905 162.632L123.925 159.156C120.333 161.202 117.494 164.095 115.421 167.789L118.91 169.747ZM125.896 162.637C128.886 160.955 132.203 160.104 135.889 160.104V156.104C131.557 156.104 127.558 157.113 123.935 159.151L125.896 162.637ZM135.889 160.104C138.958 160.104 141.549 160.478 143.699 161.183L144.944 157.381C142.299 156.515 139.269 156.104 135.889 156.104V160.104ZM143.708 161.186C145.983 161.918 148.167 162.942 150.262 164.26L152.393 160.876C150.024 159.384 147.537 158.216 144.934 157.378L143.708 161.186ZM150.433 164.357C150.387 164.334 150.369 164.314 150.378 164.323C150.389 164.334 150.426 164.374 150.48 164.465L153.91 162.407C153.525 161.765 152.982 161.159 152.222 160.779L150.433 164.357ZM150.48 164.465C150.536 164.558 150.567 164.655 150.567 164.8H154.567C154.567 163.953 154.35 163.14 153.91 162.407L150.48 164.465ZM150.567 164.8C150.567 164.973 150.529 165.064 150.409 165.184L153.238 168.012C154.109 167.14 154.567 166.032 154.567 164.8H150.567ZM150.349 165.247C150.323 165.275 150.304 165.287 150.275 165.299C150.238 165.313 150.146 165.342 149.963 165.342V169.342C151.207 169.342 152.4 168.929 153.298 167.949L150.349 165.247ZM149.963 165.342C149.824 165.342 149.696 165.313 149.556 165.243L147.767 168.821C148.453 169.164 149.193 169.342 149.963 169.342V165.342ZM149.685 165.314C147.616 164.081 145.522 163.142 143.404 162.511L142.262 166.345C144.029 166.871 145.821 167.668 147.638 168.75L149.685 165.314ZM143.404 162.511C141.255 161.871 138.953 161.56 136.509 161.56V165.56C138.612 165.56 140.526 165.828 142.262 166.345L143.404 162.511ZM136.509 161.56C133.078 161.56 129.923 162.285 127.086 163.773L128.944 167.315C131.15 166.158 133.658 165.56 136.509 165.56V161.56ZM127.086 163.773C124.212 165.281 121.951 167.503 120.322 170.389L123.805 172.355C125.069 170.116 126.776 168.453 128.944 167.315L127.086 163.773ZM120.316 170.398C118.713 173.276 117.955 176.643 117.955 180.424H121.955C121.955 177.178 122.603 174.511 123.81 172.346L120.316 170.398ZM117.955 180.424C117.955 183.929 118.676 187.143 120.162 190.021L123.717 188.187C122.557 185.94 121.955 183.367 121.955 180.424H117.955ZM120.18 190.056C121.721 192.904 123.924 195.172 126.751 196.84L128.784 193.396C126.568 192.088 124.886 190.347 123.698 188.152L120.18 190.056ZM126.784 196.86C129.697 198.504 133.065 199.288 136.819 199.288V195.288C133.63 195.288 130.963 194.625 128.751 193.376L126.784 196.86ZM136.819 199.288C141.031 199.288 144.977 198.299 148.624 196.317L146.715 192.803C143.666 194.459 140.378 195.288 136.819 195.288V199.288ZM149.669 194.56V183.338H145.669V194.56H149.669ZM147.669 181.338H137.439V185.338H147.669V181.338ZM137.439 181.338C137.266 181.338 137.176 181.3 137.056 181.18L134.227 184.008C135.099 184.88 136.207 185.338 137.439 185.338V181.338ZM137.056 181.18C136.935 181.06 136.897 180.969 136.897 180.796H132.897C132.897 182.028 133.355 183.136 134.227 184.008L137.056 181.18ZM136.897 180.796C136.897 180.623 136.935 180.532 137.056 180.412L134.227 177.584C133.355 178.456 132.897 179.564 132.897 180.796H136.897ZM137.056 180.412C137.176 180.292 137.266 180.254 137.439 180.254V176.254C136.207 176.254 135.099 176.712 134.227 177.584L137.056 180.412ZM137.439 180.254H149.653V176.254H137.439V180.254ZM149.653 180.254C149.956 180.254 150.148 180.337 150.347 180.536L153.176 177.708C152.218 176.75 151.004 176.254 149.653 176.254V180.254ZM150.347 180.536C150.546 180.736 150.629 180.928 150.629 181.23H154.629C154.629 179.879 154.134 178.666 153.176 177.708L150.347 180.536ZM150.629 181.23V195.304H154.629V181.23H150.629ZM150.629 195.304C150.629 195.802 150.505 196.207 150.268 196.573L153.626 198.747C154.299 197.708 154.629 196.542 154.629 195.304H150.629ZM150.251 196.6C150.041 196.937 149.775 197.172 149.422 197.338L151.125 200.958C152.177 200.463 153.027 199.706 153.643 198.72L150.251 196.6ZM149.379 197.359C145.007 199.545 140.579 200.62 136.075 200.62V204.62C141.243 204.62 146.281 203.38 151.168 200.937L149.379 197.359ZM166.135 200.946L167.549 199.532L167.549 199.532L166.135 200.946ZM165.825 196.11L164.271 194.851L164.263 194.861L165.825 196.11ZM191.741 164.118L193.295 165.377L195.935 162.118H191.741V164.118ZM165.949 163.374L164.48 164.731L164.534 164.789L164.593 164.844L165.949 163.374ZM165.949 159.53L164.535 158.116L164.507 158.144L164.48 158.173L165.949 159.53ZM197.507 159.84L196.012 161.169L196.032 161.191L196.053 161.213L197.507 159.84ZM198.251 163.87L196.43 163.042L196.398 163.113L196.372 163.187L198.251 163.87ZM197.569 165.048L196.064 163.731L196.038 163.76L196.014 163.791L197.569 165.048ZM171.963 196.73L170.408 195.473L167.775 198.73H171.963V196.73ZM198.127 197.536L196.658 198.893L196.712 198.951L196.771 199.006L198.127 197.536ZM198.127 201.256L196.771 199.786L196.741 199.814L196.713 199.842L198.127 201.256ZM168.677 200C168.217 200 167.878 199.86 167.549 199.532L164.721 202.36C165.798 203.437 167.154 204 168.677 204V200ZM167.549 199.532C167.221 199.203 167.081 198.865 167.081 198.404H163.081C163.081 199.927 163.644 201.283 164.721 202.36L167.549 199.532ZM167.081 198.404C167.081 197.879 167.215 197.574 167.387 197.359L164.263 194.861C163.443 195.886 163.081 197.11 163.081 198.404H167.081ZM167.379 197.369L193.295 165.377L190.187 162.859L164.271 194.851L167.379 197.369ZM191.741 162.118H167.871V166.118H191.741V162.118ZM167.871 162.118C167.62 162.118 167.467 162.053 167.306 161.904L164.593 164.844C165.506 165.687 166.634 166.118 167.871 166.118V162.118ZM167.419 162.017C167.27 161.857 167.205 161.703 167.205 161.452H163.205C163.205 162.689 163.636 163.817 164.48 164.731L167.419 162.017ZM167.205 161.452C167.205 161.201 167.27 161.047 167.419 160.887L164.48 158.173C163.636 159.087 163.205 160.215 163.205 161.452H167.205ZM167.363 160.944C167.535 160.773 167.67 160.724 167.871 160.724V156.724C166.584 156.724 165.438 157.212 164.535 158.116L167.363 160.944ZM167.871 160.724H194.779V156.724H167.871V160.724ZM194.779 160.724C195.468 160.724 195.794 160.923 196.012 161.169L199.002 158.511C197.898 157.269 196.405 156.724 194.779 156.724V160.724ZM196.053 161.213C196.386 161.566 196.561 161.976 196.561 162.568H200.561C200.561 161.011 200.033 159.602 198.961 158.467L196.053 161.213ZM196.561 162.568C196.561 162.643 196.543 162.795 196.43 163.042L200.072 164.698C200.373 164.036 200.561 163.32 200.561 162.568H196.561ZM196.372 163.187C196.282 163.432 196.175 163.604 196.064 163.731L199.074 166.365C199.542 165.83 199.889 165.217 200.131 164.553L196.372 163.187ZM196.014 163.791L170.408 195.473L173.519 197.987L199.125 166.305L196.014 163.791ZM171.963 198.73H196.267V194.73H171.963V198.73ZM196.267 198.73C196.464 198.73 196.548 198.773 196.658 198.893L199.597 196.179C198.715 195.224 197.558 194.73 196.267 194.73V198.73ZM196.771 199.006C196.89 199.116 196.933 199.199 196.933 199.396H200.933C200.933 198.105 200.439 196.948 199.484 196.066L196.771 199.006ZM196.933 199.396C196.933 199.593 196.89 199.676 196.771 199.786L199.484 202.726C200.439 201.844 200.933 200.687 200.933 199.396H196.933ZM196.713 199.842C196.617 199.938 196.516 200 196.267 200V204C197.506 204 198.646 203.566 199.541 202.67L196.713 199.842ZM196.267 200H168.677V204H196.267V200Z" fill="white"/>
<g filter="url(#filter3_d_214_21)">
<path d="M272 102H192C179.85 102 170 92.1503 170 80V0L272 102Z" fill="url(#paint5_linear_214_21)"/>
</g>
</g>
<defs>
<filter id="filter0_f_214_21" x="9" y="110" width="256" height="162" filterUnits="userSpaceOnUse" color-interpolation-filters="sRGB">
<feFlood flood-opacity="0" result="BackgroundImageFix"/>
<feBlend mode="normal" in="SourceGraphic" in2="BackgroundImageFix" result="shape"/>
<feGaussianBlur stdDeviation="19.5" result="effect1_foregroundBlur_214_21"/>
</filter>
<filter id="filter1_d_214_21" x="147" y="-24" width="152" height="152" filterUnits="userSpaceOnUse" color-interpolation-filters="sRGB">
<feFlood flood-opacity="0" result="BackgroundImageFix"/>
<feColorMatrix in="SourceAlpha" type="matrix" values="0 0 0 0 0 0 0 0 0 0 0 0 0 0 0 0 0 0 127 0" result="hardAlpha"/>
<feOffset dx="2" dy="1"/>
<feGaussianBlur stdDeviation="12.5"/>
<feColorMatrix type="matrix" values="0 0 0 0 0 0 0 0 0 0 0 0 0 0 0 0 0 0 0.33 0"/>
<feBlend mode="normal" in2="BackgroundImageFix" result="effect1_dropShadow_214_21"/>
<feBlend mode="normal" in="SourceGraphic" in2="effect1_dropShadow_214_21" result="shape"/>
</filter>
<filter id="filter2_f_214_21" x="9" y="110" width="256" height="162" filterUnits="userSpaceOnUse" color-interpolation-filters="sRGB">
<feFlood flood-opacity="0" result="BackgroundImageFix"/>
<feBlend mode="normal" in="SourceGraphic" in2="BackgroundImageFix" result="shape"/>
<feGaussianBlur stdDeviation="19.5" result="effect1_foregroundBlur_214_21"/>
</filter>
<filter id="filter3_d_214_21" x="147" y="-24" width="152" height="152" filterUnits="userSpaceOnUse" color-interpolation-filters="sRGB">
<feFlood flood-opacity="0" result="BackgroundImageFix"/>
<feColorMatrix in="SourceAlpha" type="matrix" values="0 0 0 0 0 0 0 0 0 0 0 0 0 0 0 0 0 0 127 0" result="hardAlpha"/>
<feOffset dx="2" dy="1"/>
<feGaussianBlur stdDeviation="12.5"/>
<feColorMatrix type="matrix" values="0 0 0 0 0 0 0 0 0 0 0 0 0 0 0 0 0 0 0.33 0"/>
<feBlend mode="normal" in2="BackgroundImageFix" result="effect1_dropShadow_214_21"/>
<feBlend mode="normal" in="SourceGraphic" in2="effect1_dropShadow_214_21" result="shape"/>
</filter>
<linearGradient id="paint0_linear_214_21" x1="136" y1="0" x2="136" y2="308" gradientUnits="userSpaceOnUse">
<stop stop-color="#FF7979"/>
<stop offset="1" stop-color="#E85555"/>
</linearGradient>
<linearGradient id="paint1_linear_214_21" x1="136" y1="0" x2="136" y2="308" gradientUnits="userSpaceOnUse">
<stop stop-color="#FFA216"/>
<stop offset="1" stop-color="#EF8100"/>
</linearGradient>
<linearGradient id="paint2_linear_214_21" x1="221" y1="0" x2="221" y2="102" gradientUnits="userSpaceOnUse">
<stop stop-color="#FF7A1B"/>
<stop offset="1" stop-color="#E86100"/>
</linearGradient>
<linearGradient id="paint3_linear_214_21" x1="136" y1="0" x2="136" y2="308" gradientUnits="userSpaceOnUse">
<stop stop-color="#FF7979"/>
<stop offset="1" stop-color="#E85555"/>
</linearGradient>
<linearGradient id="paint4_linear_214_21" x1="136" y1="0" x2="136" y2="308" gradientUnits="userSpaceOnUse">
<stop stop-color="#FFA216"/>
<stop offset="1" stop-color="#EF8100"/>
</linearGradient>
<linearGradient id="paint5_linear_214_21" x1="221" y1="0" x2="221" y2="102" gradientUnits="userSpaceOnUse">
<stop stop-color="#FF7A1B"/>
<stop offset="1" stop-color="#E86100"/>
</linearGradient>
</defs>
</svg>
