<svg width="272" height="308" viewBox="0 0 272 308" fill="none" xmlns="http://www.w3.org/2000/svg">
<rect width="272" height="308" fill="#E5E5E5"/>
<mask id="mask0_204_647" style="mask-type:alpha" maskUnits="userSpaceOnUse" x="0" y="0" width="272" height="308">
<path d="M250 308H22C9.84974 308 0 298.15 0 286V22C0 9.84974 9.84974 0 22 0H170L272 102V286C272 298.15 262.15 308 250 308Z" fill="url(#paint0_linear_204_647)"/>
</mask>
<g mask="url(#mask0_204_647)">
<path d="M250 308H22C9.84974 308 0 298.15 0 286V22C0 9.84974 9.84974 0 22 0H170L272 102V286C272 298.15 262.15 308 250 308Z" fill="url(#paint1_linear_204_647)"/>
<g opacity="0.2" filter="url(#filter0_f_204_647)">
<rect x="48" y="149" width="178" height="84" fill="#780AAF" style="mix-blend-mode:darken"/>
</g>
<path d="M114.685 202.31C113.9 202.31 113.238 202.041 112.701 201.504C112.164 200.967 111.895 200.305 111.895 199.52V163.994H99.2468C98.5028 163.994 97.8828 163.746 97.3868 163.25C96.8908 162.754 96.6428 162.134 96.6428 161.39C96.6428 160.646 96.8908 160.026 97.3868 159.53C97.8828 158.993 98.5028 158.724 99.2468 158.724H130.123C130.867 158.724 131.487 158.993 131.983 159.53C132.52 160.026 132.789 160.646 132.789 161.39C132.789 162.134 132.52 162.754 131.983 163.25C131.487 163.746 130.867 163.994 130.123 163.994H117.537V199.52C117.537 200.305 117.248 200.967 116.669 201.504C116.132 202.041 115.47 202.31 114.685 202.31ZM157.612 202.62C152.363 202.62 147.444 201.628 142.856 199.644C142.36 199.437 141.947 199.107 141.616 198.652C141.285 198.156 141.12 197.639 141.12 197.102C141.12 196.399 141.347 195.8 141.802 195.304C142.298 194.767 142.918 194.498 143.662 194.498C144.075 194.498 144.468 194.581 144.84 194.746C148.643 196.441 152.714 197.288 157.054 197.288C164.287 197.288 167.904 194.911 167.904 190.158C167.904 188.918 167.429 187.885 166.478 187.058C165.569 186.231 164.432 185.591 163.068 185.136C161.704 184.64 159.761 184.061 157.24 183.4C153.892 182.532 151.185 181.705 149.118 180.92C147.051 180.093 145.274 178.874 143.786 177.262C142.298 175.65 141.554 173.501 141.554 170.814C141.554 168.458 142.174 166.329 143.414 164.428C144.654 162.485 146.473 160.956 148.87 159.84C151.309 158.683 154.223 158.104 157.612 158.104C162.159 158.104 166.271 158.786 169.95 160.15C171.107 160.563 171.686 161.39 171.686 162.63C171.686 163.291 171.459 163.891 171.004 164.428C170.549 164.965 169.95 165.234 169.206 165.234C168.958 165.234 168.627 165.151 168.214 164.986C164.99 163.87 161.663 163.312 158.232 163.312C154.967 163.312 152.301 163.932 150.234 165.172C148.209 166.412 147.196 168.148 147.196 170.38C147.196 171.868 147.671 173.087 148.622 174.038C149.614 174.947 150.833 175.671 152.28 176.208C153.768 176.704 155.773 177.241 158.294 177.82C161.559 178.605 164.184 179.391 166.168 180.176C168.193 180.961 169.909 182.181 171.314 183.834C172.761 185.487 173.484 187.719 173.484 190.53C173.484 192.845 172.823 194.932 171.5 196.792C170.177 198.611 168.317 200.037 165.92 201.07C163.523 202.103 160.753 202.62 157.612 202.62Z" fill="white"/>
<path d="M112.701 201.504L111.287 202.918L112.701 201.504ZM111.895 163.994H113.895V161.994H111.895V163.994ZM97.3868 163.25L95.9726 164.664V164.664L97.3868 163.25ZM97.3868 159.53L98.8011 160.944L98.8293 160.916L98.8564 160.887L97.3868 159.53ZM131.983 159.53L130.513 160.887L130.567 160.945L130.626 161L131.983 159.53ZM131.983 163.25L130.626 161.78L130.597 161.808L130.569 161.836L131.983 163.25ZM117.537 163.994V161.994H115.537V163.994H117.537ZM116.669 201.504L115.308 200.038L115.281 200.064L115.255 200.09L116.669 201.504ZM114.685 200.31C114.41 200.31 114.264 200.238 114.115 200.09L111.287 202.918C112.213 203.844 113.389 204.31 114.685 204.31V200.31ZM114.115 200.09C113.967 199.941 113.895 199.795 113.895 199.52H109.895C109.895 200.816 110.36 201.992 111.287 202.918L114.115 200.09ZM113.895 199.52V163.994H109.895V199.52H113.895ZM111.895 161.994H99.2468V165.994H111.895V161.994ZM99.2468 161.994C98.9976 161.994 98.8975 161.932 98.801 161.836L95.9726 164.664C96.8682 165.56 98.0081 165.994 99.2468 165.994V161.994ZM98.8011 161.836C98.7046 161.739 98.6428 161.639 98.6428 161.39H94.6428C94.6428 162.629 95.077 163.769 95.9726 164.664L98.8011 161.836ZM98.6428 161.39C98.6428 161.141 98.7046 161.041 98.8011 160.944L95.9726 158.116C95.077 159.011 94.6428 160.151 94.6428 161.39H98.6428ZM98.8564 160.887C98.9664 160.767 99.05 160.724 99.2468 160.724V156.724C97.9557 156.724 96.7993 157.218 95.9172 158.173L98.8564 160.887ZM99.2468 160.724H130.123V156.724H99.2468V160.724ZM130.123 160.724C130.32 160.724 130.403 160.767 130.513 160.887L133.452 158.173C132.57 157.218 131.414 156.724 130.123 156.724V160.724ZM130.626 161C130.745 161.11 130.789 161.193 130.789 161.39H134.789C134.789 160.099 134.295 158.942 133.339 158.06L130.626 161ZM130.789 161.39C130.789 161.587 130.745 161.67 130.626 161.78L133.339 164.72C134.295 163.838 134.789 162.681 134.789 161.39H130.789ZM130.569 161.836C130.472 161.932 130.372 161.994 130.123 161.994V165.994C131.362 165.994 132.501 165.56 133.397 164.664L130.569 161.836ZM130.123 161.994H117.537V165.994H130.123V161.994ZM115.537 163.994V199.52H119.537V163.994H115.537ZM115.537 199.52C115.537 199.746 115.482 199.877 115.308 200.038L118.03 202.97C119.013 202.056 119.537 200.865 119.537 199.52H115.537ZM115.255 200.09C115.106 200.238 114.96 200.31 114.685 200.31V204.31C115.981 204.31 117.157 203.844 118.083 202.918L115.255 200.09ZM142.856 199.644L143.65 197.808L143.638 197.803L143.625 197.798L142.856 199.644ZM141.616 198.652L139.952 199.761L139.975 199.795L139.999 199.828L141.616 198.652ZM141.802 195.304L140.332 193.947L140.328 193.953L141.802 195.304ZM144.84 194.746L145.654 192.919L145.652 192.918L144.84 194.746ZM166.478 187.058L165.133 188.538L165.149 188.553L165.166 188.567L166.478 187.058ZM163.068 185.136L162.385 187.016L162.41 187.025L162.436 187.033L163.068 185.136ZM157.24 183.4L157.748 181.465L157.742 181.464L157.24 183.4ZM149.118 180.92L148.375 182.777L148.391 182.783L148.408 182.79L149.118 180.92ZM143.786 177.262L142.316 178.619L143.786 177.262ZM143.414 164.428L145.089 165.521L145.095 165.512L145.1 165.504L143.414 164.428ZM148.87 159.84L149.714 161.653L149.721 161.65L149.728 161.647L148.87 159.84ZM169.95 160.15L169.255 162.025L169.266 162.029L169.277 162.033L169.95 160.15ZM171.004 164.428L172.531 165.72L172.531 165.72L171.004 164.428ZM168.214 164.986L168.957 163.129L168.913 163.111L168.868 163.096L168.214 164.986ZM150.234 165.172L149.205 163.457L149.197 163.462L149.19 163.466L150.234 165.172ZM148.622 174.038L147.208 175.452L147.239 175.483L147.271 175.512L148.622 174.038ZM152.28 176.208L151.584 178.083L151.615 178.095L151.648 178.105L152.28 176.208ZM158.294 177.82L158.762 175.875L158.752 175.873L158.741 175.871L158.294 177.82ZM166.168 180.176L165.432 182.036L165.445 182.041L166.168 180.176ZM171.314 183.834L169.79 185.129L169.799 185.14L169.809 185.151L171.314 183.834ZM171.5 196.792L173.118 197.968L173.124 197.96L173.13 197.951L171.5 196.792ZM165.92 201.07L166.712 202.907L165.92 201.07ZM157.612 200.62C152.622 200.62 147.975 199.679 143.65 197.808L142.062 201.48C146.913 203.577 152.104 204.62 157.612 204.62V200.62ZM143.625 197.798C143.484 197.739 143.359 197.648 143.234 197.476L139.999 199.828C140.535 200.566 141.236 201.136 142.087 201.49L143.625 197.798ZM143.28 197.543C143.144 197.338 143.12 197.202 143.12 197.102H139.12C139.12 198.077 139.427 198.974 139.952 199.761L143.28 197.543ZM143.12 197.102C143.12 196.875 143.176 196.765 143.276 196.655L140.328 193.953C139.519 194.835 139.12 195.923 139.12 197.102H143.12ZM143.272 196.661C143.382 196.541 143.465 196.498 143.662 196.498V192.498C142.371 192.498 141.215 192.992 140.332 193.947L143.272 196.661ZM143.662 196.498C143.8 196.498 143.916 196.524 144.028 196.574L145.652 192.918C145.021 192.638 144.351 192.498 143.662 192.498V196.498ZM144.026 196.573C148.096 198.387 152.446 199.288 157.054 199.288V195.288C152.982 195.288 149.19 194.495 145.654 192.919L144.026 196.573ZM157.054 199.288C160.826 199.288 164.003 198.68 166.29 197.177C168.724 195.578 169.904 193.13 169.904 190.158H165.904C165.904 191.94 165.276 193.057 164.093 193.834C162.764 194.708 160.515 195.288 157.054 195.288V199.288ZM169.904 190.158C169.904 188.329 169.17 186.748 167.79 185.549L165.166 188.567C165.688 189.021 165.904 189.507 165.904 190.158H169.904ZM167.823 185.578C166.676 184.535 165.284 183.767 163.701 183.239L162.436 187.033C163.58 187.415 164.461 187.928 165.133 188.538L167.823 185.578ZM163.752 183.256C162.301 182.729 160.29 182.132 157.748 181.465L156.733 185.335C159.233 185.99 161.107 186.551 162.385 187.016L163.752 183.256ZM157.742 181.464C154.43 180.605 151.8 179.8 149.829 179.05L148.408 182.79C150.569 183.611 153.354 184.459 156.738 185.336L157.742 181.464ZM149.861 179.063C148.067 178.345 146.539 177.295 145.256 175.905L142.316 178.619C144.01 180.453 146.036 181.841 148.375 182.777L149.861 179.063ZM145.256 175.905C144.181 174.742 143.554 173.117 143.554 170.814H139.554C139.554 173.885 140.415 176.558 142.316 178.619L145.256 175.905ZM143.554 170.814C143.554 168.83 144.07 167.084 145.089 165.521L141.739 163.335C140.279 165.575 139.554 168.086 139.554 170.814H143.554ZM145.1 165.504C146.106 163.927 147.61 162.633 149.714 161.653L148.026 158.027C145.336 159.279 143.202 161.043 141.728 163.352L145.1 165.504ZM149.728 161.647C151.839 160.645 154.446 160.104 157.612 160.104V156.104C154 156.104 150.779 156.72 148.013 158.033L149.728 161.647ZM157.612 160.104C161.958 160.104 165.831 160.756 169.255 162.025L170.645 158.275C166.712 156.816 162.359 156.104 157.612 156.104V160.104ZM169.277 162.033C169.552 162.132 169.61 162.222 169.614 162.227C169.618 162.234 169.686 162.325 169.686 162.63H173.686C173.686 161.695 173.464 160.753 172.891 159.933C172.316 159.112 171.505 158.582 170.623 158.267L169.277 162.033ZM169.686 162.63C169.686 162.786 169.648 162.935 169.477 163.136L172.531 165.72C173.27 164.847 173.686 163.796 173.686 162.63H169.686ZM169.477 163.136C169.429 163.193 169.403 163.204 169.395 163.207C169.385 163.212 169.334 163.234 169.206 163.234V167.234C170.5 167.234 171.672 166.735 172.531 165.72L169.477 163.136ZM169.206 163.234C169.294 163.234 169.318 163.247 169.257 163.232C169.201 163.218 169.103 163.188 168.957 163.129L167.471 166.843C167.963 167.04 168.576 167.234 169.206 167.234V163.234ZM168.868 163.096C165.433 161.907 161.884 161.312 158.232 161.312V165.312C161.441 165.312 164.547 165.833 167.56 166.876L168.868 163.096ZM158.232 161.312C154.728 161.312 151.674 161.976 149.205 163.457L151.263 166.887C152.927 165.888 155.205 165.312 158.232 165.312V161.312ZM149.19 163.466C146.617 165.042 145.196 167.4 145.196 170.38H149.196C149.196 168.896 149.801 167.782 151.278 166.878L149.19 163.466ZM145.196 170.38C145.196 172.336 145.84 174.085 147.208 175.452L150.036 172.624C149.502 172.09 149.196 171.4 149.196 170.38H145.196ZM147.271 175.512C148.479 176.62 149.93 177.469 151.584 178.083L152.976 174.333C151.737 173.873 150.749 173.275 149.974 172.564L147.271 175.512ZM151.648 178.105C153.223 178.63 155.297 179.184 157.847 179.769L158.741 175.871C156.248 175.298 154.314 174.778 152.913 174.311L151.648 178.105ZM157.826 179.765C161.046 180.539 163.57 181.299 165.432 182.036L166.904 178.316C164.798 177.483 162.073 176.672 158.762 175.875L157.826 179.765ZM165.445 182.041C167.161 182.706 168.601 183.73 169.79 185.129L172.838 182.539C171.217 180.632 169.226 179.217 166.891 178.311L165.445 182.041ZM169.809 185.151C170.856 186.347 171.484 188.065 171.484 190.53H175.484C175.484 187.374 174.666 184.627 172.819 182.517L169.809 185.151ZM171.484 190.53C171.484 192.436 170.948 194.117 169.87 195.633L173.13 197.951C174.697 195.747 175.484 193.254 175.484 190.53H171.484ZM169.883 195.616C168.803 197.1 167.25 198.319 165.128 199.233L166.712 202.907C169.385 201.754 171.552 200.121 173.118 197.968L169.883 195.616ZM165.128 199.233C163.027 200.139 160.535 200.62 157.612 200.62V204.62C160.971 204.62 164.019 204.067 166.712 202.907L165.128 199.233Z" fill="white"/>
<g filter="url(#filter1_d_204_647)">
<path d="M272 102H192C179.85 102 170 92.1503 170 80V0L272 102Z" fill="url(#paint2_linear_204_647)"/>
</g>
</g>
<defs>
<filter id="filter0_f_204_647" x="9" y="110" width="256" height="162" filterUnits="userSpaceOnUse" color-interpolation-filters="sRGB">
<feFlood flood-opacity="0" result="BackgroundImageFix"/>
<feBlend mode="normal" in="SourceGraphic" in2="BackgroundImageFix" result="shape"/>
<feGaussianBlur stdDeviation="19.5" result="effect1_foregroundBlur_204_647"/>
</filter>
<filter id="filter1_d_204_647" x="147" y="-24" width="152" height="152" filterUnits="userSpaceOnUse" color-interpolation-filters="sRGB">
<feFlood flood-opacity="0" result="BackgroundImageFix"/>
<feColorMatrix in="SourceAlpha" type="matrix" values="0 0 0 0 0 0 0 0 0 0 0 0 0 0 0 0 0 0 127 0" result="hardAlpha"/>
<feOffset dx="2" dy="1"/>
<feGaussianBlur stdDeviation="12.5"/>
<feColorMatrix type="matrix" values="0 0 0 0 0 0 0 0 0 0 0 0 0 0 0 0 0 0 0.33 0"/>
<feBlend mode="normal" in2="BackgroundImageFix" result="effect1_dropShadow_204_647"/>
<feBlend mode="normal" in="SourceGraphic" in2="effect1_dropShadow_204_647" result="shape"/>
</filter>
<linearGradient id="paint0_linear_204_647" x1="136" y1="0" x2="136" y2="308" gradientUnits="userSpaceOnUse">
<stop stop-color="#FF7979"/>
<stop offset="1" stop-color="#E85555"/>
</linearGradient>
<linearGradient id="paint1_linear_204_647" x1="136" y1="0" x2="136" y2="308" gradientUnits="userSpaceOnUse">
<stop stop-color="#CB74F4"/>
<stop offset="0.942892" stop-color="#A849F3"/>
</linearGradient>
<linearGradient id="paint2_linear_204_647" x1="221" y1="0" x2="221" y2="102" gradientUnits="userSpaceOnUse">
<stop stop-color="#B051E0"/>
<stop offset="1" stop-color="#952BCB"/>
</linearGradient>
</defs>
</svg>
