<svg width="272" height="308" viewBox="0 0 272 308" fill="none" xmlns="http://www.w3.org/2000/svg">
<mask id="mask0_204_360" style="mask-type:alpha" maskUnits="userSpaceOnUse" x="0" y="0" width="272" height="308">
<path d="M250 308H22C9.84974 308 0 298.15 0 286V22C0 9.84974 9.84974 0 22 0H170L272 102V286C272 298.15 262.15 308 250 308Z" fill="url(#paint0_linear_204_360)"/>
</mask>
<g mask="url(#mask0_204_360)">
<path d="M250 308H22C9.84974 308 0 298.15 0 286V22C0 9.84974 9.84974 0 22 0H170L272 102V286C272 298.15 262.15 308 250 308Z" fill="url(#paint1_linear_204_360)"/>
<g filter="url(#filter0_f_204_360)">
<rect x="48" y="149" width="178" height="84" fill="#0B07C6" fill-opacity="0.16" style="mix-blend-mode:darken"/>
</g>
<path d="M40.9974 202.31C40.1707 202.31 39.4267 202.083 38.7654 201.628C38.1454 201.132 37.6701 200.429 37.3394 199.52L25.1874 162.196C25.0634 161.741 25.0014 161.39 25.0014 161.142C24.9601 160.357 25.1874 159.716 25.6834 159.22C26.2207 158.683 26.9027 158.414 27.7294 158.414C28.3907 158.414 28.9694 158.621 29.4654 159.034C29.9614 159.447 30.3127 159.985 30.5194 160.646L40.9354 194.87L51.4134 160.77C51.6201 160.067 52.0127 159.509 52.5914 159.096C53.2114 158.641 53.8934 158.414 54.6374 158.414C55.3814 158.414 56.0427 158.641 56.6214 159.096C57.2414 159.509 57.6547 160.067 57.8614 160.77L68.3394 194.87L78.7554 160.646C78.9621 159.985 79.3134 159.447 79.8094 159.034C80.3054 158.621 80.8841 158.414 81.5454 158.414C82.3721 158.414 83.0334 158.683 83.5294 159.22C84.0667 159.716 84.3147 160.357 84.2734 161.142C84.2734 161.39 84.2114 161.741 84.0874 162.196L71.9354 199.52C71.6047 200.429 71.1087 201.132 70.4474 201.628C69.8274 202.083 69.1041 202.31 68.2774 202.31C67.4507 202.31 66.6861 202.062 65.9834 201.566C65.3221 201.029 64.8674 200.347 64.6194 199.52L54.6374 167.9L44.6554 199.52C44.4074 200.347 43.9321 201.029 43.2294 201.566C42.5681 202.062 41.8241 202.31 40.9974 202.31ZM99.0754 202C98.2901 202 97.6287 201.731 97.0914 201.194C96.5541 200.657 96.2854 199.995 96.2854 199.21V161.576C96.2854 160.791 96.5541 160.129 97.0914 159.592C97.6287 159.013 98.2901 158.724 99.0754 158.724H123.937C124.681 158.724 125.301 158.993 125.797 159.53C126.335 160.026 126.603 160.646 126.603 161.39C126.603 162.134 126.335 162.754 125.797 163.25C125.301 163.746 124.681 163.994 123.937 163.994H101.927V177.696H121.705C122.449 177.696 123.069 177.965 123.565 178.502C124.103 178.998 124.371 179.618 124.371 180.362C124.371 181.106 124.103 181.726 123.565 182.222C123.069 182.718 122.449 182.966 121.705 182.966H101.927V196.73H123.937C124.681 196.73 125.301 196.999 125.797 197.536C126.335 198.032 126.603 198.652 126.603 199.396C126.603 200.14 126.335 200.76 125.797 201.256C125.301 201.752 124.681 202 123.937 202H99.0754ZM142.953 202C142.167 202 141.506 201.731 140.969 201.194C140.431 200.657 140.163 199.995 140.163 199.21V161.576C140.163 160.791 140.431 160.129 140.969 159.592C141.506 159.013 142.167 158.724 142.953 158.724H157.585C162.007 158.724 165.417 159.737 167.815 161.762C170.253 163.787 171.473 166.515 171.473 169.946C171.473 172.343 170.894 174.348 169.737 175.96C168.621 177.531 167.174 178.709 165.397 179.494C167.877 180.279 169.902 181.54 171.473 183.276C173.085 185.012 173.891 187.203 173.891 189.848C173.891 193.651 172.609 196.627 170.047 198.776C167.484 200.925 163.454 202 157.957 202H142.953ZM156.097 177.448C159.775 177.448 162.359 176.828 163.847 175.588C165.335 174.348 166.079 172.612 166.079 170.38C166.079 168.437 165.273 166.887 163.661 165.73C162.09 164.573 159.92 163.994 157.151 163.994H145.805V177.448H156.097ZM157.399 196.73C161.408 196.73 164.239 196.11 165.893 194.87C167.587 193.63 168.435 191.873 168.435 189.6C168.435 184.888 164.777 182.532 157.461 182.532H145.805V196.73H157.399ZM187.367 202.31C186.54 202.31 185.858 202.041 185.321 201.504C184.825 200.967 184.577 200.305 184.577 199.52C184.577 199.189 184.68 198.776 184.887 198.28L200.697 160.956C201.027 160.212 201.482 159.613 202.061 159.158C202.681 158.662 203.425 158.414 204.293 158.414H204.913C205.781 158.414 206.504 158.662 207.083 159.158C207.703 159.613 208.178 160.212 208.509 160.956L224.319 198.28C224.525 198.776 224.629 199.189 224.629 199.52C224.629 200.305 224.36 200.967 223.823 201.504C223.327 202.041 222.665 202.31 221.839 202.31C221.26 202.31 220.723 202.165 220.227 201.876C219.772 201.545 219.421 201.111 219.173 200.574L215.143 190.902H194.063L190.033 200.574C189.785 201.111 189.413 201.545 188.917 201.876C188.462 202.165 187.945 202.31 187.367 202.31ZM196.233 185.756H212.973L204.603 165.606L196.233 185.756Z" fill="white"/>
<path d="M38.7654 201.628L37.516 203.19L37.5726 203.235L37.6323 203.276L38.7654 201.628ZM37.3394 199.52L35.4376 200.139L35.4482 200.172L35.4598 200.203L37.3394 199.52ZM25.1874 162.196L23.2579 162.722L23.2706 162.769L23.2856 162.815L25.1874 162.196ZM25.0014 161.142H27.0014V161.089L26.9986 161.037L25.0014 161.142ZM25.6834 159.22L24.2692 157.806L24.2692 157.806L25.6834 159.22ZM29.4654 159.034L28.185 160.57V160.57L29.4654 159.034ZM30.5194 160.646L32.4327 160.064L32.4306 160.057L32.4283 160.049L30.5194 160.646ZM40.9354 194.87L39.022 195.452L40.9262 201.709L42.8472 195.457L40.9354 194.87ZM51.4134 160.77L53.3252 161.357L53.3287 161.346L53.3321 161.334L51.4134 160.77ZM52.5914 159.096L53.7539 160.723L53.764 160.716L53.7741 160.709L52.5914 159.096ZM56.6214 159.096L55.3857 160.669L55.4471 160.717L55.512 160.76L56.6214 159.096ZM57.8614 160.77L55.9427 161.334L55.9461 161.346L55.9496 161.357L57.8614 160.77ZM68.3394 194.87L66.4276 195.457L68.3485 201.709L70.2527 195.452L68.3394 194.87ZM78.7554 160.646L76.8464 160.049L76.8442 160.057L76.842 160.064L78.7554 160.646ZM79.8094 159.034L81.0898 160.57V160.57L79.8094 159.034ZM83.5294 159.22L82.0598 160.577L82.1141 160.635L82.1728 160.69L83.5294 159.22ZM84.2734 161.142L82.2762 161.037L82.2734 161.089V161.142H84.2734ZM84.0874 162.196L85.9891 162.815L86.0042 162.769L86.0169 162.722L84.0874 162.196ZM71.9354 199.52L73.815 200.203L73.8266 200.172L73.8371 200.139L71.9354 199.52ZM70.4474 201.628L71.6301 203.241L71.6388 203.234L71.6474 203.228L70.4474 201.628ZM65.9834 201.566L64.7222 203.118L64.7747 203.161L64.83 203.2L65.9834 201.566ZM64.6194 199.52L66.535 198.945L66.5309 198.932L66.5266 198.918L64.6194 199.52ZM54.6374 167.9L56.5446 167.298L54.6374 161.256L52.7302 167.298L54.6374 167.9ZM44.6554 199.52L42.7482 198.918L42.7439 198.932L42.7397 198.945L44.6554 199.52ZM43.2294 201.566L44.4294 203.166L44.4369 203.16L44.4443 203.155L43.2294 201.566ZM40.9974 200.31C40.5624 200.31 40.2159 200.198 39.8984 199.98L37.6323 203.276C38.6376 203.967 39.7791 204.31 40.9974 204.31V200.31ZM40.0148 200.066C39.7383 199.845 39.4516 199.476 39.219 198.837L35.4598 200.203C35.8885 201.382 36.5524 202.419 37.516 203.19L40.0148 200.066ZM39.2411 198.901L27.0891 161.577L23.2856 162.815L35.4376 200.139L39.2411 198.901ZM27.1169 161.67C27.0662 161.484 27.0351 161.344 27.0175 161.244C26.9987 161.138 27.0014 161.111 27.0014 161.142H23.0014C23.0014 161.662 23.1211 162.221 23.2579 162.722L27.1169 161.67ZM26.9986 161.037C26.9831 160.742 27.0535 160.678 27.0976 160.634L24.2692 157.806C23.3213 158.754 22.937 159.972 23.0042 161.247L26.9986 161.037ZM27.0976 160.634C27.225 160.507 27.3818 160.414 27.7294 160.414V156.414C26.4237 156.414 25.2164 156.859 24.2692 157.806L27.0976 160.634ZM27.7294 160.414C27.9352 160.414 28.0579 160.464 28.185 160.57L30.7458 157.498C29.8809 156.777 28.8462 156.414 27.7294 156.414V160.414ZM28.185 160.57C28.3636 160.719 28.5098 160.92 28.6104 161.243L32.4283 160.049C32.1157 159.049 31.5591 158.175 30.7458 157.498L28.185 160.57ZM28.606 161.228L39.022 195.452L42.8487 194.288L32.4327 160.064L28.606 161.228ZM42.8472 195.457L53.3252 161.357L49.5016 160.183L39.0236 194.283L42.8472 195.457ZM53.3321 161.334C53.4167 161.047 53.5506 160.869 53.7539 160.723L51.4289 157.469C50.4748 158.15 49.8234 159.088 49.4947 160.206L53.3321 161.334ZM53.7741 160.709C54.0633 160.497 54.3337 160.414 54.6374 160.414V156.414C53.453 156.414 52.3594 156.786 51.4087 157.483L53.7741 160.709ZM54.6374 160.414C54.9386 160.414 55.1636 160.494 55.3857 160.669L57.857 157.523C56.9218 156.789 55.8242 156.414 54.6374 156.414V160.414ZM55.512 160.76C55.749 160.918 55.8709 161.09 55.9427 161.334L59.7801 160.206C59.4386 159.044 58.7338 158.101 57.7308 157.432L55.512 160.76ZM55.9496 161.357L66.4276 195.457L70.2512 194.283L59.7732 160.183L55.9496 161.357ZM70.2527 195.452L80.6687 161.228L76.842 160.064L66.426 194.288L70.2527 195.452ZM80.6644 161.243C80.765 160.92 80.9111 160.719 81.0898 160.57L78.529 157.498C77.7156 158.175 77.1591 159.049 76.8464 160.049L80.6644 161.243ZM81.0898 160.57C81.2169 160.464 81.3395 160.414 81.5454 160.414V156.414C80.4286 156.414 79.3939 156.777 78.529 157.498L81.0898 160.57ZM81.5454 160.414C81.8943 160.414 81.9937 160.505 82.0598 160.577L84.999 157.863C84.0731 156.86 82.8498 156.414 81.5454 156.414V160.414ZM82.1728 160.69C82.2319 160.744 82.2465 160.777 82.2533 160.794C82.2616 160.816 82.2841 160.885 82.2762 161.037L86.2706 161.247C86.3405 159.919 85.8967 158.683 84.886 157.75L82.1728 160.69ZM82.2734 161.142C82.2734 161.111 82.2761 161.138 82.2573 161.244C82.2397 161.344 82.2086 161.484 82.1579 161.67L86.0169 162.722C86.1537 162.221 86.2734 161.662 86.2734 161.142H82.2734ZM82.1856 161.577L70.0336 198.901L73.8371 200.139L85.9891 162.815L82.1856 161.577ZM70.0558 198.837C69.8348 199.444 69.548 199.803 69.2474 200.028L71.6474 203.228C72.6694 202.461 73.3747 201.414 73.815 200.203L70.0558 198.837ZM69.2647 200.015C69.0141 200.199 68.7126 200.31 68.2774 200.31V204.31C69.4956 204.31 70.6407 203.966 71.6301 203.241L69.2647 200.015ZM68.2774 200.31C67.8812 200.31 67.5165 200.2 67.1368 199.932L64.83 203.2C65.8556 203.924 67.0203 204.31 68.2774 204.31V200.31ZM67.2446 200.014C66.8987 199.733 66.6694 199.393 66.535 198.945L62.7037 200.095C63.0654 201.3 63.7454 202.325 64.7222 203.118L67.2446 200.014ZM66.5266 198.918L56.5446 167.298L52.7302 168.502L62.7122 200.122L66.5266 198.918ZM52.7302 167.298L42.7482 198.918L46.5626 200.122L56.5446 168.502L52.7302 167.298ZM42.7397 198.945C42.6159 199.358 42.3916 199.689 42.0145 199.977L44.4443 203.155C45.4725 202.368 46.1988 201.335 46.571 200.095L42.7397 198.945ZM42.0294 199.966C41.7142 200.202 41.3913 200.31 40.9974 200.31V204.31C42.2568 204.31 43.4219 203.922 44.4294 203.166L42.0294 199.966ZM97.0914 201.194L98.5056 199.78L97.0914 201.194ZM97.0914 159.592L98.5056 161.006L98.5318 160.98L98.557 160.953L97.0914 159.592ZM125.797 159.53L124.328 160.887L124.382 160.945L124.441 161L125.797 159.53ZM125.797 163.25L124.441 161.78L124.411 161.808L124.383 161.836L125.797 163.25ZM101.927 163.994V161.994H99.9274V163.994H101.927ZM101.927 177.696H99.9274V179.696H101.927V177.696ZM123.565 178.502L122.096 179.859L122.15 179.917L122.209 179.972L123.565 178.502ZM123.565 182.222L122.209 180.752L122.179 180.78L122.151 180.808L123.565 182.222ZM101.927 182.966V180.966H99.9274V182.966H101.927ZM101.927 196.73H99.9274V198.73H101.927V196.73ZM125.797 197.536L124.328 198.893L124.382 198.951L124.441 199.006L125.797 197.536ZM125.797 201.256L124.441 199.786L124.411 199.814L124.383 199.842L125.797 201.256ZM99.0754 200C98.8007 200 98.6541 199.928 98.5056 199.78L95.6772 202.608C96.6034 203.534 97.7795 204 99.0754 204V200ZM98.5056 199.78C98.3572 199.631 98.2854 199.485 98.2854 199.21H94.2854C94.2854 200.506 94.751 201.682 95.6772 202.608L98.5056 199.78ZM98.2854 199.21V161.576H94.2854V199.21H98.2854ZM98.2854 161.576C98.2854 161.301 98.3572 161.155 98.5056 161.006L95.6772 158.178C94.751 159.104 94.2854 160.28 94.2854 161.576H98.2854ZM98.557 160.953C98.7183 160.779 98.8497 160.724 99.0754 160.724V156.724C97.7304 156.724 96.5392 157.247 95.6258 158.231L98.557 160.953ZM99.0754 160.724H123.937V156.724H99.0754V160.724ZM123.937 160.724C124.134 160.724 124.218 160.767 124.328 160.887L127.267 158.173C126.385 157.218 125.229 156.724 123.937 156.724V160.724ZM124.441 161C124.56 161.11 124.603 161.193 124.603 161.39H128.603C128.603 160.099 128.11 158.942 127.154 158.06L124.441 161ZM124.603 161.39C124.603 161.587 124.56 161.67 124.441 161.78L127.154 164.72C128.11 163.838 128.603 162.681 128.603 161.39H124.603ZM124.383 161.836C124.287 161.932 124.187 161.994 123.937 161.994V165.994C125.176 165.994 126.316 165.56 127.212 164.664L124.383 161.836ZM123.937 161.994H101.927V165.994H123.937V161.994ZM99.9274 163.994V177.696H103.927V163.994H99.9274ZM101.927 179.696H121.705V175.696H101.927V179.696ZM121.705 179.696C121.902 179.696 121.986 179.739 122.096 179.859L125.035 177.145C124.153 176.19 122.997 175.696 121.705 175.696V179.696ZM122.209 179.972C122.328 180.082 122.371 180.165 122.371 180.362H126.371C126.371 179.071 125.878 177.914 124.922 177.032L122.209 179.972ZM122.371 180.362C122.371 180.559 122.328 180.642 122.209 180.752L124.922 183.692C125.878 182.81 126.371 181.653 126.371 180.362H122.371ZM122.151 180.808C122.055 180.904 121.955 180.966 121.705 180.966V184.966C122.944 184.966 124.084 184.532 124.98 183.636L122.151 180.808ZM121.705 180.966H101.927V184.966H121.705V180.966ZM99.9274 182.966V196.73H103.927V182.966H99.9274ZM101.927 198.73H123.937V194.73H101.927V198.73ZM123.937 198.73C124.134 198.73 124.218 198.773 124.328 198.893L127.267 196.179C126.385 195.224 125.229 194.73 123.937 194.73V198.73ZM124.441 199.006C124.56 199.116 124.603 199.199 124.603 199.396H128.603C128.603 198.105 128.11 196.948 127.154 196.066L124.441 199.006ZM124.603 199.396C124.603 199.593 124.56 199.676 124.441 199.786L127.154 202.726C128.11 201.844 128.603 200.687 128.603 199.396H124.603ZM124.383 199.842C124.287 199.938 124.187 200 123.937 200V204C125.176 204 126.316 203.566 127.212 202.67L124.383 199.842ZM123.937 200H99.0754V204H123.937V200ZM140.969 201.194L142.383 199.78L140.969 201.194ZM140.969 159.592L142.383 161.006L142.409 160.98L142.434 160.953L140.969 159.592ZM167.815 161.762L166.524 163.29L166.53 163.295L166.537 163.301L167.815 161.762ZM169.737 175.96L168.112 174.794L168.106 174.802L169.737 175.96ZM165.397 179.494L164.588 177.665L159.748 179.803L164.793 181.401L165.397 179.494ZM171.473 183.276L169.989 184.618L169.998 184.627L170.007 184.637L171.473 183.276ZM170.047 198.776L171.332 200.308L170.047 198.776ZM163.847 175.588L162.566 174.052L163.847 175.588ZM163.661 165.73L162.474 167.34L162.484 167.347L162.494 167.355L163.661 165.73ZM145.805 163.994V161.994H143.805V163.994H145.805ZM145.805 177.448H143.805V179.448H145.805V177.448ZM165.893 194.87L164.712 193.256L164.702 193.263L164.693 193.27L165.893 194.87ZM145.805 182.532V180.532H143.805V182.532H145.805ZM145.805 196.73H143.805V198.73H145.805V196.73ZM142.953 200C142.678 200 142.531 199.928 142.383 199.78L139.554 202.608C140.48 203.534 141.657 204 142.953 204V200ZM142.383 199.78C142.234 199.631 142.163 199.485 142.163 199.21H138.163C138.163 200.506 138.628 201.682 139.554 202.608L142.383 199.78ZM142.163 199.21V161.576H138.163V199.21H142.163ZM142.163 161.576C142.163 161.301 142.234 161.155 142.383 161.006L139.554 158.178C138.628 159.104 138.163 160.28 138.163 161.576H142.163ZM142.434 160.953C142.595 160.779 142.727 160.724 142.953 160.724V156.724C141.608 156.724 140.416 157.247 139.503 158.231L142.434 160.953ZM142.953 160.724H157.585V156.724H142.953V160.724ZM157.585 160.724C161.726 160.724 164.611 161.673 166.524 163.29L169.105 160.234C166.224 157.8 162.289 156.724 157.585 156.724V160.724ZM166.537 163.301C168.477 164.912 169.473 167.054 169.473 169.946H173.473C173.473 165.976 172.03 162.663 169.092 160.223L166.537 163.301ZM169.473 169.946C169.473 172.014 168.978 173.587 168.112 174.794L171.361 177.126C172.81 175.109 173.473 172.673 173.473 169.946H169.473ZM168.106 174.802C167.201 176.076 166.039 177.024 164.588 177.665L166.205 181.323C168.309 180.394 170.04 178.985 171.367 177.118L168.106 174.802ZM164.793 181.401C166.973 182.091 168.682 183.173 169.989 184.618L172.956 181.934C171.121 179.907 168.78 178.467 166 177.587L164.793 181.401ZM170.007 184.637C171.234 185.959 171.891 187.644 171.891 189.848H175.891C175.891 186.762 174.935 184.065 172.938 181.915L170.007 184.637ZM171.891 189.848C171.891 193.15 170.806 195.529 168.761 197.244L171.332 200.308C174.413 197.724 175.891 194.151 175.891 189.848H171.891ZM168.761 197.244C166.727 198.95 163.265 200 157.957 200V204C163.643 204 168.24 202.901 171.332 200.308L168.761 197.244ZM157.957 200H142.953V204H157.957V200ZM156.097 179.448C159.878 179.448 163.074 178.835 165.127 177.124L162.566 174.052C161.643 174.821 159.673 175.448 156.097 175.448V179.448ZM165.127 177.124C167.143 175.444 168.079 173.105 168.079 170.38H164.079C164.079 172.119 163.526 173.252 162.566 174.052L165.127 177.124ZM168.079 170.38C168.079 167.777 166.949 165.629 164.827 164.105L162.494 167.355C163.596 168.146 164.079 169.098 164.079 170.38H168.079ZM164.847 164.12C162.815 162.623 160.173 161.994 157.151 161.994V165.994C159.666 165.994 161.365 166.523 162.474 167.34L164.847 164.12ZM157.151 161.994H145.805V165.994H157.151V161.994ZM143.805 163.994V177.448H147.805V163.994H143.805ZM145.805 179.448H156.097V175.448H145.805V179.448ZM157.399 198.73C161.495 198.73 164.893 198.12 167.093 196.47L164.693 193.27C163.586 194.1 161.32 194.73 157.399 194.73V198.73ZM167.074 196.484C169.331 194.833 170.435 192.45 170.435 189.6H166.435C166.435 191.297 165.844 192.427 164.712 193.256L167.074 196.484ZM170.435 189.6C170.435 186.631 169.229 184.199 166.774 182.618C164.47 181.134 161.269 180.532 157.461 180.532V184.532C160.968 184.532 163.254 185.108 164.608 185.98C165.811 186.755 166.435 187.857 166.435 189.6H170.435ZM157.461 180.532H145.805V184.532H157.461V180.532ZM143.805 182.532V196.73H147.805V182.532H143.805ZM145.805 198.73H157.399V194.73H145.805V198.73ZM185.321 201.504L183.851 202.861L183.878 202.89L183.907 202.918L185.321 201.504ZM184.887 198.28L183.045 197.5L183.041 197.511L184.887 198.28ZM200.697 160.956L198.869 160.144L198.862 160.16L198.855 160.176L200.697 160.956ZM202.061 159.158L203.296 160.731L203.303 160.725L203.31 160.72L202.061 159.158ZM207.083 159.158L205.781 160.677L205.839 160.726L205.9 160.771L207.083 159.158ZM208.509 160.956L210.35 160.176L210.344 160.16L210.336 160.144L208.509 160.956ZM224.319 198.28L226.165 197.511L226.16 197.5L224.319 198.28ZM223.823 201.504L222.409 200.09L222.38 200.118L222.353 200.147L223.823 201.504ZM220.227 201.876L219.05 203.493L219.132 203.553L219.219 203.604L220.227 201.876ZM219.173 200.574L217.327 201.343L217.341 201.378L217.357 201.412L219.173 200.574ZM215.143 190.902L216.989 190.133L216.476 188.902H215.143V190.902ZM194.063 190.902V188.902H192.729L192.217 190.133L194.063 190.902ZM190.033 200.574L191.849 201.412L191.864 201.378L191.879 201.343L190.033 200.574ZM188.917 201.876L189.991 203.563L190.008 203.552L190.026 203.54L188.917 201.876ZM196.233 185.756L194.386 184.989L193.236 187.756H196.233V185.756ZM212.973 185.756V187.756H215.969L214.82 184.989L212.973 185.756ZM204.603 165.606L206.45 164.839L204.603 160.392L202.756 164.839L204.603 165.606ZM187.367 200.31C187.019 200.31 186.862 200.217 186.735 200.09L183.907 202.918C184.854 203.865 186.061 204.31 187.367 204.31V200.31ZM186.79 200.147C186.662 200.008 186.577 199.843 186.577 199.52H182.577C182.577 200.767 182.988 201.925 183.851 202.861L186.79 200.147ZM186.577 199.52C186.577 199.557 186.572 199.538 186.595 199.447C186.617 199.359 186.659 199.228 186.733 199.049L183.041 197.511C182.788 198.117 182.577 198.811 182.577 199.52H186.577ZM186.728 199.06L202.538 161.736L198.855 160.176L183.045 197.5L186.728 199.06ZM202.524 161.768C202.737 161.29 203.001 160.963 203.296 160.731L200.825 157.585C199.964 158.262 199.318 159.134 198.869 160.144L202.524 161.768ZM203.31 160.72C203.542 160.534 203.834 160.414 204.293 160.414V156.414C203.016 156.414 201.82 156.79 200.811 157.596L203.31 160.72ZM204.293 160.414H204.913V156.414H204.293V160.414ZM204.913 160.414C205.374 160.414 205.615 160.534 205.781 160.677L208.384 157.639C207.393 156.79 206.188 156.414 204.913 156.414V160.414ZM205.9 160.771C206.222 161.007 206.483 161.323 206.681 161.768L210.336 160.144C209.873 159.101 209.183 158.218 208.266 157.545L205.9 160.771ZM206.667 161.736L222.477 199.06L226.16 197.5L210.35 160.176L206.667 161.736ZM222.473 199.049C222.547 199.228 222.589 199.359 222.611 199.447C222.634 199.538 222.629 199.557 222.629 199.52H226.629C226.629 198.811 226.418 198.117 226.165 197.511L222.473 199.049ZM222.629 199.52C222.629 199.795 222.557 199.941 222.409 200.09L225.237 202.918C226.163 201.992 226.629 200.816 226.629 199.52H222.629ZM222.353 200.147C222.287 200.219 222.188 200.31 221.839 200.31V204.31C223.143 204.31 224.367 203.864 225.292 202.861L222.353 200.147ZM221.839 200.31C221.611 200.31 221.422 200.258 221.235 200.148L219.219 203.604C220.023 204.073 220.909 204.31 221.839 204.31V200.31ZM221.403 200.259C221.239 200.139 221.101 199.98 220.989 199.736L217.357 201.412C217.74 202.243 218.305 202.951 219.05 203.493L221.403 200.259ZM221.019 199.805L216.989 190.133L213.297 191.671L217.327 201.343L221.019 199.805ZM215.143 188.902H194.063V192.902H215.143V188.902ZM192.217 190.133L188.187 199.805L191.879 201.343L195.909 191.671L192.217 190.133ZM188.217 199.736C188.125 199.935 187.999 200.084 187.807 200.212L190.026 203.54C190.827 203.006 191.445 202.287 191.849 201.412L188.217 199.736ZM187.843 200.189C187.733 200.259 187.594 200.31 187.367 200.31V204.31C188.297 204.31 189.191 204.072 189.991 203.563L187.843 200.189ZM196.233 187.756H212.973V183.756H196.233V187.756ZM214.82 184.989L206.45 164.839L202.756 166.373L211.126 186.523L214.82 184.989ZM202.756 164.839L194.386 184.989L198.08 186.523L206.45 166.373L202.756 164.839Z" fill="white"/>
<g filter="url(#filter1_d_204_360)">
<path d="M272 102H192C179.85 102 170 92.1503 170 80V0L272 102Z" fill="url(#paint2_linear_204_360)"/>
</g>
</g>
<defs>
<filter id="filter0_f_204_360" x="9" y="110" width="256" height="162" filterUnits="userSpaceOnUse" color-interpolation-filters="sRGB">
<feFlood flood-opacity="0" result="BackgroundImageFix"/>
<feBlend mode="normal" in="SourceGraphic" in2="BackgroundImageFix" result="shape"/>
<feGaussianBlur stdDeviation="19.5" result="effect1_foregroundBlur_204_360"/>
</filter>
<filter id="filter1_d_204_360" x="147" y="-24" width="152" height="152" filterUnits="userSpaceOnUse" color-interpolation-filters="sRGB">
<feFlood flood-opacity="0" result="BackgroundImageFix"/>
<feColorMatrix in="SourceAlpha" type="matrix" values="0 0 0 0 0 0 0 0 0 0 0 0 0 0 0 0 0 0 127 0" result="hardAlpha"/>
<feOffset dx="2" dy="1"/>
<feGaussianBlur stdDeviation="12.5"/>
<feColorMatrix type="matrix" values="0 0 0 0 0 0 0 0 0 0 0 0 0 0 0 0 0 0 0.33 0"/>
<feBlend mode="normal" in2="BackgroundImageFix" result="effect1_dropShadow_204_360"/>
<feBlend mode="normal" in="SourceGraphic" in2="effect1_dropShadow_204_360" result="shape"/>
</filter>
<linearGradient id="paint0_linear_204_360" x1="136" y1="0" x2="136" y2="308" gradientUnits="userSpaceOnUse">
<stop stop-color="#FF7979"/>
<stop offset="1" stop-color="#E85555"/>
</linearGradient>
<linearGradient id="paint1_linear_204_360" x1="136" y1="0" x2="136" y2="308" gradientUnits="userSpaceOnUse">
<stop stop-color="#7CA9FF"/>
<stop offset="1" stop-color="#4377DC"/>
</linearGradient>
<linearGradient id="paint2_linear_204_360" x1="221" y1="0" x2="221" y2="102" gradientUnits="userSpaceOnUse">
<stop stop-color="#4B7BF7"/>
<stop offset="1" stop-color="#1A4DD1"/>
</linearGradient>
</defs>
</svg>
