<svg width="272" height="308" viewBox="0 0 272 308" fill="none" xmlns="http://www.w3.org/2000/svg">
<rect width="272" height="308" fill="#E5E5E5"/>
<mask id="mask0_204_654" style="mask-type:alpha" maskUnits="userSpaceOnUse" x="0" y="0" width="272" height="308">
<path d="M250 308H22C9.84974 308 0 298.15 0 286V22C0 9.84974 9.84974 0 22 0H170L272 102V286C272 298.15 262.15 308 250 308Z" fill="url(#paint0_linear_204_654)"/>
</mask>
<g mask="url(#mask0_204_654)">
<path d="M250 308H22C9.84974 308 0 298.15 0 286V22C0 9.84974 9.84974 0 22 0H170L272 102V286C272 298.15 262.15 308 250 308Z" fill="url(#paint1_linear_204_654)"/>
<g opacity="0.2" filter="url(#filter0_f_204_654)">
<rect x="48" y="149" width="178" height="84" fill="#780AAF" style="mix-blend-mode:darken"/>
</g>
<path d="M44.6859 202.31C43.8592 202.31 43.1152 202.083 42.4539 201.628C41.8339 201.132 41.3585 200.429 41.0279 199.52L28.8759 162.196C28.7519 161.741 28.6899 161.39 28.6899 161.142C28.6485 160.357 28.8759 159.716 29.3719 159.22C29.9092 158.683 30.5912 158.414 31.4179 158.414C32.0792 158.414 32.6579 158.621 33.1539 159.034C33.6499 159.447 34.0012 159.985 34.2079 160.646L44.6239 194.87L55.1019 160.77C55.3085 160.067 55.7012 159.509 56.2799 159.096C56.8999 158.641 57.5819 158.414 58.3259 158.414C59.0699 158.414 59.7312 158.641 60.3099 159.096C60.9299 159.509 61.3432 160.067 61.5499 160.77L72.0279 194.87L82.4439 160.646C82.6505 159.985 83.0019 159.447 83.4979 159.034C83.9939 158.621 84.5725 158.414 85.2339 158.414C86.0605 158.414 86.7219 158.683 87.2179 159.22C87.7552 159.716 88.0032 160.357 87.9619 161.142C87.9619 161.39 87.8999 161.741 87.7759 162.196L75.6239 199.52C75.2932 200.429 74.7972 201.132 74.1359 201.628C73.5159 202.083 72.7925 202.31 71.9659 202.31C71.1392 202.31 70.3745 202.062 69.6719 201.566C69.0105 201.029 68.5559 200.347 68.3079 199.52L58.3259 167.9L48.3439 199.52C48.0959 200.347 47.6205 201.029 46.9179 201.566C46.2565 202.062 45.5125 202.31 44.6859 202.31ZM102.764 202C101.979 202 101.317 201.731 100.78 201.194C100.243 200.657 99.9739 199.995 99.9739 199.21V161.576C99.9739 160.791 100.243 160.129 100.78 159.592C101.317 159.013 101.979 158.724 102.764 158.724H127.626C128.37 158.724 128.99 158.993 129.486 159.53C130.023 160.026 130.292 160.646 130.292 161.39C130.292 162.134 130.023 162.754 129.486 163.25C128.99 163.746 128.37 163.994 127.626 163.994H105.616V177.696H125.394C126.138 177.696 126.758 177.965 127.254 178.502C127.791 178.998 128.06 179.618 128.06 180.362C128.06 181.106 127.791 181.726 127.254 182.222C126.758 182.718 126.138 182.966 125.394 182.966H105.616V196.73H127.626C128.37 196.73 128.99 196.999 129.486 197.536C130.023 198.032 130.292 198.652 130.292 199.396C130.292 200.14 130.023 200.76 129.486 201.256C128.99 201.752 128.37 202 127.626 202H102.764ZM146.641 202C145.856 202 145.194 201.731 144.657 201.194C144.12 200.657 143.851 199.995 143.851 199.21V161.576C143.851 160.791 144.12 160.129 144.657 159.592C145.194 159.013 145.856 158.724 146.641 158.724H161.273C165.696 158.724 169.106 159.737 171.503 161.762C173.942 163.787 175.161 166.515 175.161 169.946C175.161 172.343 174.582 174.348 173.425 175.96C172.309 177.531 170.862 178.709 169.085 179.494C171.565 180.279 173.59 181.54 175.161 183.276C176.773 185.012 177.579 187.203 177.579 189.848C177.579 193.651 176.298 196.627 173.735 198.776C171.172 200.925 167.142 202 161.645 202H146.641ZM159.785 177.448C163.464 177.448 166.047 176.828 167.535 175.588C169.023 174.348 169.767 172.612 169.767 170.38C169.767 168.437 168.961 166.887 167.349 165.73C165.778 164.573 163.608 163.994 160.839 163.994H149.493V177.448H159.785ZM161.087 196.73C165.096 196.73 167.928 196.11 169.581 194.87C171.276 193.63 172.123 191.873 172.123 189.6C172.123 184.888 168.465 182.532 161.149 182.532H149.493V196.73H161.087ZM193.969 202.31C193.184 202.31 192.523 202.041 191.985 201.504C191.448 200.967 191.179 200.305 191.179 199.52V162.506C191.179 161.39 191.572 160.439 192.357 159.654C193.143 158.827 194.093 158.414 195.209 158.414H197.255C198.082 158.414 198.826 158.662 199.487 159.158C200.19 159.654 200.707 160.274 201.037 161.018L215.111 196.11L229.185 161.018C229.516 160.274 230.012 159.654 230.673 159.158C231.376 158.662 232.141 158.414 232.967 158.414H235.013C236.129 158.414 237.08 158.827 237.865 159.654C238.651 160.439 239.043 161.39 239.043 162.506V199.52C239.043 200.305 238.775 200.967 238.237 201.504C237.7 202.041 237.039 202.31 236.253 202.31C235.468 202.31 234.786 202.041 234.207 201.504C233.67 200.967 233.401 200.305 233.401 199.52V164.304L219.079 199.706C218.749 200.491 218.211 201.132 217.467 201.628C216.765 202.083 215.979 202.31 215.111 202.31C214.243 202.31 213.437 202.083 212.693 201.628C211.991 201.132 211.474 200.491 211.143 199.706L196.821 164.304V199.52C196.821 200.305 196.532 200.967 195.953 201.504C195.416 202.041 194.755 202.31 193.969 202.31Z" fill="white"/>
<path d="M42.4539 201.628L41.2045 203.19L41.2611 203.235L41.3208 203.276L42.4539 201.628ZM41.0279 199.52L39.1261 200.139L39.1367 200.172L39.1483 200.203L41.0279 199.52ZM28.8759 162.196L26.9463 162.722L26.9591 162.769L26.9741 162.815L28.8759 162.196ZM28.6899 161.142H30.6899V161.089L30.6871 161.037L28.6899 161.142ZM29.3719 159.22L27.9577 157.806L27.9576 157.806L29.3719 159.22ZM33.1539 159.034L31.8735 160.57V160.57L33.1539 159.034ZM34.2079 160.646L36.1212 160.064L36.119 160.057L36.1168 160.049L34.2079 160.646ZM44.6239 194.87L42.7105 195.452L44.6147 201.709L46.5356 195.457L44.6239 194.87ZM55.1019 160.77L57.0136 161.357L57.0172 161.346L57.0206 161.334L55.1019 160.77ZM56.2799 159.096L57.4423 160.723L57.4525 160.716L57.4626 160.709L56.2799 159.096ZM60.3099 159.096L59.0742 160.669L59.1356 160.717L59.2005 160.76L60.3099 159.096ZM61.5499 160.77L59.6311 161.334L59.6345 161.346L59.6381 161.357L61.5499 160.77ZM72.0279 194.87L70.1161 195.457L72.037 201.709L73.9412 195.452L72.0279 194.87ZM82.4439 160.646L80.5349 160.049L80.5327 160.057L80.5305 160.064L82.4439 160.646ZM83.4979 159.034L84.7782 160.57V160.57L83.4979 159.034ZM87.2179 159.22L85.7483 160.577L85.8025 160.635L85.8613 160.69L87.2179 159.22ZM87.9619 161.142L85.9646 161.037L85.9619 161.089V161.142H87.9619ZM87.7759 162.196L89.6776 162.815L89.6926 162.769L89.7054 162.722L87.7759 162.196ZM75.6239 199.52L77.5035 200.203L77.5151 200.172L77.5256 200.139L75.6239 199.52ZM74.1359 201.628L75.3186 203.241L75.3273 203.234L75.3359 203.228L74.1359 201.628ZM69.6719 201.566L68.4107 203.118L68.4632 203.161L68.5185 203.2L69.6719 201.566ZM68.3079 199.52L70.2235 198.945L70.2194 198.932L70.2151 198.918L68.3079 199.52ZM58.3259 167.9L60.2331 167.298L58.3259 161.256L56.4186 167.298L58.3259 167.9ZM48.3439 199.52L46.4366 198.918L46.4323 198.932L46.4282 198.945L48.3439 199.52ZM46.9179 201.566L48.1179 203.166L48.1253 203.16L48.1328 203.155L46.9179 201.566ZM44.6859 200.31C44.2509 200.31 43.9044 200.198 43.5869 199.98L41.3208 203.276C42.326 203.967 43.4675 204.31 44.6859 204.31V200.31ZM43.7033 200.066C43.4268 199.845 43.1401 199.476 42.9075 198.837L39.1483 200.203C39.577 201.382 40.2409 202.419 41.2045 203.19L43.7033 200.066ZM42.9296 198.901L30.7776 161.577L26.9741 162.815L39.1261 200.139L42.9296 198.901ZM30.8054 161.67C30.7547 161.484 30.7236 161.344 30.7059 161.244C30.6872 161.138 30.6899 161.111 30.6899 161.142H26.6899C26.6899 161.662 26.8095 162.221 26.9463 162.722L30.8054 161.67ZM30.6871 161.037C30.6716 160.742 30.742 160.678 30.7861 160.634L27.9576 157.806C27.0098 158.754 26.6255 159.972 26.6926 161.247L30.6871 161.037ZM30.7861 160.634C30.9135 160.507 31.0703 160.414 31.4179 160.414V156.414C30.1121 156.414 28.9049 156.859 27.9577 157.806L30.7861 160.634ZM31.4179 160.414C31.6237 160.414 31.7463 160.464 31.8735 160.57L34.4342 157.498C33.5694 156.777 32.5347 156.414 31.4179 156.414V160.414ZM31.8735 160.57C32.0521 160.719 32.1982 160.92 32.2989 161.243L36.1168 160.049C35.8042 159.049 35.2476 158.175 34.4342 157.498L31.8735 160.57ZM32.2945 161.228L42.7105 195.452L46.5372 194.288L36.1212 160.064L32.2945 161.228ZM46.5356 195.457L57.0136 161.357L53.1901 160.183L42.7121 194.283L46.5356 195.457ZM57.0206 161.334C57.1052 161.047 57.2391 160.869 57.4423 160.723L55.1174 157.469C54.1633 158.15 53.5119 159.088 53.1831 160.206L57.0206 161.334ZM57.4626 160.709C57.7518 160.497 58.0222 160.414 58.3259 160.414V156.414C57.1415 156.414 56.0479 156.786 55.0971 157.483L57.4626 160.709ZM58.3259 160.414C58.6271 160.414 58.8521 160.494 59.0742 160.669L61.5455 157.523C60.6103 156.789 59.5126 156.414 58.3259 156.414V160.414ZM59.2005 160.76C59.4374 160.918 59.5594 161.09 59.6311 161.334L63.4686 160.206C63.127 159.044 62.4223 158.101 61.4193 157.432L59.2005 160.76ZM59.6381 161.357L70.1161 195.457L73.9397 194.283L63.4617 160.183L59.6381 161.357ZM73.9412 195.452L84.3572 161.228L80.5305 160.064L70.1145 194.288L73.9412 195.452ZM84.3528 161.243C84.4535 160.92 84.5996 160.719 84.7782 160.57L82.2175 157.498C81.4041 158.175 80.8476 159.049 80.5349 160.049L84.3528 161.243ZM84.7782 160.57C84.9054 160.464 85.028 160.414 85.2339 160.414V156.414C84.1171 156.414 83.0823 156.777 82.2175 157.498L84.7782 160.57ZM85.2339 160.414C85.5828 160.414 85.6822 160.505 85.7483 160.577L88.6875 157.863C87.7616 156.86 86.5383 156.414 85.2339 156.414V160.414ZM85.8613 160.69C85.9204 160.744 85.935 160.777 85.9417 160.794C85.9501 160.816 85.9726 160.885 85.9646 161.037L89.9591 161.247C90.029 159.919 89.5852 158.683 88.5744 157.75L85.8613 160.69ZM85.9619 161.142C85.9619 161.111 85.9645 161.138 85.9458 161.244C85.9281 161.344 85.897 161.484 85.8463 161.67L89.7054 162.722C89.8422 162.221 89.9619 161.662 89.9619 161.142H85.9619ZM85.8741 161.577L73.7221 198.901L77.5256 200.139L89.6776 162.815L85.8741 161.577ZM73.7443 198.837C73.5233 199.444 73.2365 199.803 72.9359 200.028L75.3359 203.228C76.3579 202.461 77.0631 201.414 77.5035 200.203L73.7443 198.837ZM72.9531 200.015C72.7025 200.199 72.401 200.31 71.9659 200.31V204.31C73.184 204.31 74.3292 203.966 75.3186 203.241L72.9531 200.015ZM71.9659 200.31C71.5697 200.31 71.205 200.2 70.8252 199.932L68.5185 203.2C69.5441 203.924 70.7087 204.31 71.9659 204.31V200.31ZM70.9331 200.014C70.5872 199.733 70.3579 199.393 70.2235 198.945L66.3922 200.095C66.7539 201.3 67.4339 202.325 68.4107 203.118L70.9331 200.014ZM70.2151 198.918L60.2331 167.298L56.4186 168.502L66.4007 200.122L70.2151 198.918ZM56.4186 167.298L46.4366 198.918L50.2511 200.122L60.2331 168.502L56.4186 167.298ZM46.4282 198.945C46.3044 199.358 46.0801 199.689 45.703 199.977L48.1328 203.155C49.161 202.368 49.8873 201.335 50.2595 200.095L46.4282 198.945ZM45.7179 199.966C45.4027 200.202 45.0798 200.31 44.6859 200.31V204.31C45.9453 204.31 47.1103 203.922 48.1179 203.166L45.7179 199.966ZM100.78 201.194L102.194 199.78L100.78 201.194ZM100.78 159.592L102.194 161.006L102.22 160.98L102.245 160.953L100.78 159.592ZM129.486 159.53L128.016 160.887L128.071 160.945L128.129 161L129.486 159.53ZM129.486 163.25L128.129 161.78L128.1 161.808L128.072 161.836L129.486 163.25ZM105.616 163.994V161.994H103.616V163.994H105.616ZM105.616 177.696H103.616V179.696H105.616V177.696ZM127.254 178.502L125.784 179.859L125.839 179.917L125.897 179.972L127.254 178.502ZM127.254 182.222L125.897 180.752L125.868 180.78L125.84 180.808L127.254 182.222ZM105.616 182.966V180.966H103.616V182.966H105.616ZM105.616 196.73H103.616V198.73H105.616V196.73ZM129.486 197.536L128.016 198.893L128.071 198.951L128.129 199.006L129.486 197.536ZM129.486 201.256L128.129 199.786L128.1 199.814L128.072 199.842L129.486 201.256ZM102.764 200C102.489 200 102.343 199.928 102.194 199.78L99.3657 202.608C100.292 203.534 101.468 204 102.764 204V200ZM102.194 199.78C102.046 199.631 101.974 199.485 101.974 199.21H97.9739C97.9739 200.506 98.4395 201.682 99.3657 202.608L102.194 199.78ZM101.974 199.21V161.576H97.9739V199.21H101.974ZM101.974 161.576C101.974 161.301 102.046 161.155 102.194 161.006L99.3657 158.178C98.4395 159.104 97.9739 160.28 97.9739 161.576H101.974ZM102.245 160.953C102.407 160.779 102.538 160.724 102.764 160.724V156.724C101.419 156.724 100.228 157.247 99.3143 158.231L102.245 160.953ZM102.764 160.724H127.626V156.724H102.764V160.724ZM127.626 160.724C127.823 160.724 127.906 160.767 128.016 160.887L130.955 158.173C130.073 157.218 128.917 156.724 127.626 156.724V160.724ZM128.129 161C128.248 161.11 128.292 161.193 128.292 161.39H132.292C132.292 160.099 131.798 158.942 130.842 158.06L128.129 161ZM128.292 161.39C128.292 161.587 128.248 161.67 128.129 161.78L130.842 164.72C131.798 163.838 132.292 162.681 132.292 161.39H128.292ZM128.072 161.836C127.975 161.932 127.875 161.994 127.626 161.994V165.994C128.865 165.994 130.005 165.56 130.9 164.664L128.072 161.836ZM127.626 161.994H105.616V165.994H127.626V161.994ZM103.616 163.994V177.696H107.616V163.994H103.616ZM105.616 179.696H125.394V175.696H105.616V179.696ZM125.394 179.696C125.591 179.696 125.674 179.739 125.784 179.859L128.723 177.145C127.841 176.19 126.685 175.696 125.394 175.696V179.696ZM125.897 179.972C126.016 180.082 126.06 180.165 126.06 180.362H130.06C130.06 179.071 129.566 177.914 128.61 177.032L125.897 179.972ZM126.06 180.362C126.06 180.559 126.016 180.642 125.897 180.752L128.61 183.692C129.566 182.81 130.06 181.653 130.06 180.362H126.06ZM125.84 180.808C125.743 180.904 125.643 180.966 125.394 180.966V184.966C126.633 184.966 127.772 184.532 128.668 183.636L125.84 180.808ZM125.394 180.966H105.616V184.966H125.394V180.966ZM103.616 182.966V196.73H107.616V182.966H103.616ZM105.616 198.73H127.626V194.73H105.616V198.73ZM127.626 198.73C127.823 198.73 127.906 198.773 128.016 198.893L130.955 196.179C130.073 195.224 128.917 194.73 127.626 194.73V198.73ZM128.129 199.006C128.248 199.116 128.292 199.199 128.292 199.396H132.292C132.292 198.105 131.798 196.948 130.842 196.066L128.129 199.006ZM128.292 199.396C128.292 199.593 128.248 199.676 128.129 199.786L130.842 202.726C131.798 201.844 132.292 200.687 132.292 199.396H128.292ZM128.072 199.842C127.975 199.938 127.875 200 127.626 200V204C128.865 204 130.005 203.566 130.9 202.67L128.072 199.842ZM127.626 200H102.764V204H127.626V200ZM144.657 201.194L146.071 199.78L144.657 201.194ZM144.657 159.592L146.071 161.006L146.097 160.98L146.123 160.953L144.657 159.592ZM171.503 161.762L170.212 163.29L170.219 163.295L170.225 163.301L171.503 161.762ZM173.425 175.96L171.8 174.794L171.795 174.802L173.425 175.96ZM169.085 179.494L168.277 177.665L163.437 179.803L168.481 181.401L169.085 179.494ZM175.161 183.276L173.678 184.618L173.687 184.627L173.695 184.637L175.161 183.276ZM173.735 198.776L175.02 200.308L173.735 198.776ZM167.535 175.588L166.255 174.052L167.535 175.588ZM167.349 165.73L166.163 167.34L166.173 167.347L166.183 167.355L167.349 165.73ZM149.493 163.994V161.994H147.493V163.994H149.493ZM149.493 177.448H147.493V179.448H149.493V177.448ZM169.581 194.87L168.4 193.256L168.39 193.263L168.381 193.27L169.581 194.87ZM149.493 182.532V180.532H147.493V182.532H149.493ZM149.493 196.73H147.493V198.73H149.493V196.73ZM146.641 200C146.366 200 146.22 199.928 146.071 199.78L143.243 202.608C144.169 203.534 145.345 204 146.641 204V200ZM146.071 199.78C145.923 199.631 145.851 199.485 145.851 199.21H141.851C141.851 200.506 142.317 201.682 143.243 202.608L146.071 199.78ZM145.851 199.21V161.576H141.851V199.21H145.851ZM145.851 161.576C145.851 161.301 145.923 161.155 146.071 161.006L143.243 158.178C142.317 159.104 141.851 160.28 141.851 161.576H145.851ZM146.123 160.953C146.284 160.779 146.415 160.724 146.641 160.724V156.724C145.296 156.724 144.105 157.247 143.191 158.231L146.123 160.953ZM146.641 160.724H161.273V156.724H146.641V160.724ZM161.273 160.724C165.414 160.724 168.299 161.673 170.212 163.29L172.794 160.234C169.912 157.8 165.977 156.724 161.273 156.724V160.724ZM170.225 163.301C172.165 164.912 173.161 167.054 173.161 169.946H177.161C177.161 165.976 175.718 162.663 172.781 160.223L170.225 163.301ZM173.161 169.946C173.161 172.014 172.666 173.587 171.8 174.794L175.05 177.126C176.498 175.109 177.161 172.673 177.161 169.946H173.161ZM171.795 174.802C170.889 176.076 169.728 177.024 168.277 177.665L169.893 181.323C171.997 180.394 173.729 178.985 175.055 177.118L171.795 174.802ZM168.481 181.401C170.662 182.091 172.371 183.173 173.678 184.618L176.644 181.934C174.81 179.907 172.468 178.467 169.689 177.587L168.481 181.401ZM173.695 184.637C174.923 185.959 175.579 187.644 175.579 189.848H179.579C179.579 186.762 178.623 184.065 176.627 181.915L173.695 184.637ZM175.579 189.848C175.579 193.15 174.494 195.529 172.45 197.244L175.02 200.308C178.101 197.724 179.579 194.151 179.579 189.848H175.579ZM172.45 197.244C170.416 198.95 166.953 200 161.645 200V204C167.332 204 171.929 202.901 175.02 200.308L172.45 197.244ZM161.645 200H146.641V204H161.645V200ZM159.785 179.448C163.566 179.448 166.762 178.835 168.815 177.124L166.255 174.052C165.332 174.821 163.361 175.448 159.785 175.448V179.448ZM168.815 177.124C170.832 175.444 171.767 173.105 171.767 170.38H167.767C167.767 172.119 167.214 173.252 166.255 174.052L168.815 177.124ZM171.767 170.38C171.767 167.777 170.637 165.629 168.515 164.105L166.183 167.355C167.285 168.146 167.767 169.098 167.767 170.38H171.767ZM168.535 164.12C166.504 162.623 163.862 161.994 160.839 161.994V165.994C163.355 165.994 165.053 166.523 166.163 167.34L168.535 164.12ZM160.839 161.994H149.493V165.994H160.839V161.994ZM147.493 163.994V177.448H151.493V163.994H147.493ZM149.493 179.448H159.785V175.448H149.493V179.448ZM161.087 198.73C165.184 198.73 168.581 198.12 170.781 196.47L168.381 193.27C167.274 194.1 165.009 194.73 161.087 194.73V198.73ZM170.762 196.484C173.019 194.833 174.123 192.45 174.123 189.6H170.123C170.123 191.297 169.532 192.427 168.4 193.256L170.762 196.484ZM174.123 189.6C174.123 186.631 172.917 184.199 170.462 182.618C168.158 181.134 164.958 180.532 161.149 180.532V184.532C164.656 184.532 166.943 185.108 168.297 185.98C169.5 186.755 170.123 187.857 170.123 189.6H174.123ZM161.149 180.532H149.493V184.532H161.149V180.532ZM147.493 182.532V196.73H151.493V182.532H147.493ZM149.493 198.73H161.087V194.73H149.493V198.73ZM191.985 201.504L193.399 200.09L191.985 201.504ZM192.357 159.654L193.771 161.068L193.79 161.05L193.807 161.031L192.357 159.654ZM199.487 159.158L198.287 160.758L198.31 160.775L198.334 160.792L199.487 159.158ZM201.037 161.018L202.894 160.274L202.88 160.239L202.865 160.206L201.037 161.018ZM215.111 196.11L213.255 196.854L215.111 201.483L216.968 196.854L215.111 196.11ZM229.185 161.018L227.358 160.206L227.343 160.239L227.329 160.274L229.185 161.018ZM230.673 159.158L229.52 157.524L229.496 157.541L229.473 157.558L230.673 159.158ZM237.865 159.654L236.415 161.031L236.433 161.05L236.451 161.068L237.865 159.654ZM238.237 201.504L239.652 202.918V202.918L238.237 201.504ZM234.207 201.504L232.793 202.918L232.819 202.944L232.846 202.97L234.207 201.504ZM233.401 164.304H235.401L231.547 163.554L233.401 164.304ZM219.079 199.706L220.923 200.482L220.928 200.469L220.933 200.456L219.079 199.706ZM217.467 201.628L218.554 203.307L218.565 203.3L218.577 203.292L217.467 201.628ZM212.693 201.628L211.54 203.262L211.594 203.3L211.65 203.335L212.693 201.628ZM211.143 199.706L209.289 200.456L209.295 200.469L209.3 200.482L211.143 199.706ZM196.821 164.304L198.675 163.554L194.821 164.304H196.821ZM195.953 201.504L194.592 200.038L194.565 200.064L194.539 200.09L195.953 201.504ZM193.969 200.31C193.695 200.31 193.548 200.238 193.399 200.09L190.571 202.918C191.497 203.844 192.673 204.31 193.969 204.31V200.31ZM193.399 200.09C193.251 199.941 193.179 199.795 193.179 199.52H189.179C189.179 200.816 189.645 201.992 190.571 202.918L193.399 200.09ZM193.179 199.52V162.506H189.179V199.52H193.179ZM193.179 162.506C193.179 161.918 193.363 161.476 193.771 161.068L190.943 158.24C189.781 159.402 189.179 160.862 189.179 162.506H193.179ZM193.807 161.031C194.224 160.593 194.655 160.414 195.209 160.414V156.414C193.532 156.414 192.061 157.062 190.907 158.276L193.807 161.031ZM195.209 160.414H197.255V156.414H195.209V160.414ZM197.255 160.414C197.649 160.414 197.972 160.522 198.287 160.758L200.687 157.558C199.68 156.802 198.515 156.414 197.255 156.414V160.414ZM198.334 160.792C198.759 161.092 199.034 161.435 199.21 161.83L202.865 160.206C202.379 159.113 201.621 158.216 200.641 157.524L198.334 160.792ZM199.181 161.762L213.255 196.854L216.968 195.366L202.894 160.274L199.181 161.762ZM216.968 196.854L231.042 161.762L227.329 160.274L213.255 195.366L216.968 196.854ZM231.013 161.83C231.203 161.403 231.481 161.053 231.873 160.758L229.473 157.558C228.543 158.255 227.829 159.145 227.358 160.206L231.013 161.83ZM231.827 160.792C232.206 160.524 232.571 160.414 232.967 160.414V156.414C231.71 156.414 230.546 156.8 229.52 157.524L231.827 160.792ZM232.967 160.414H235.013V156.414H232.967V160.414ZM235.013 160.414C235.568 160.414 235.998 160.593 236.415 161.031L239.315 158.276C238.162 157.062 236.691 156.414 235.013 156.414V160.414ZM236.451 161.068C236.859 161.476 237.043 161.918 237.043 162.506H241.043C241.043 160.862 240.442 159.402 239.279 158.24L236.451 161.068ZM237.043 162.506V199.52H241.043V162.506H237.043ZM237.043 199.52C237.043 199.795 236.972 199.941 236.823 200.09L239.652 202.918C240.578 201.992 241.043 200.816 241.043 199.52H237.043ZM236.823 200.09C236.675 200.238 236.528 200.31 236.253 200.31V204.31C237.549 204.31 238.725 203.844 239.652 202.918L236.823 200.09ZM236.253 200.31C235.976 200.31 235.779 200.234 235.568 200.038L232.846 202.97C233.793 203.848 234.96 204.31 236.253 204.31V200.31ZM235.622 200.09C235.473 199.941 235.401 199.795 235.401 199.52H231.401C231.401 200.816 231.867 201.992 232.793 202.918L235.622 200.09ZM235.401 199.52V164.304H231.401V199.52H235.401ZM231.547 163.554L217.225 198.956L220.933 200.456L235.255 165.054L231.547 163.554ZM217.236 198.93C217.065 199.335 216.792 199.674 216.358 199.964L218.577 203.292C219.63 202.59 220.432 201.647 220.923 200.482L217.236 198.93ZM216.381 199.949C216.014 200.186 215.609 200.31 215.111 200.31V204.31C216.35 204.31 217.515 203.979 218.554 203.307L216.381 199.949ZM215.111 200.31C214.613 200.31 214.168 200.185 213.736 199.921L211.65 203.335C212.707 203.98 213.874 204.31 215.111 204.31V200.31ZM213.847 199.994C213.447 199.712 213.171 199.367 212.987 198.93L209.3 200.482C209.777 201.616 210.535 202.552 211.54 203.262L213.847 199.994ZM212.997 198.956L198.675 163.554L194.967 165.054L209.289 200.456L212.997 198.956ZM194.821 164.304V199.52H198.821V164.304H194.821ZM194.821 199.52C194.821 199.746 194.766 199.877 194.592 200.038L197.314 202.97C198.298 202.056 198.821 200.865 198.821 199.52H194.821ZM194.539 200.09C194.391 200.238 194.244 200.31 193.969 200.31V204.31C195.265 204.31 196.441 203.844 197.367 202.918L194.539 200.09Z" fill="white"/>
<g filter="url(#filter1_d_204_654)">
<path d="M272 102H192C179.85 102 170 92.1503 170 80V0L272 102Z" fill="url(#paint2_linear_204_654)"/>
</g>
</g>
<defs>
<filter id="filter0_f_204_654" x="9" y="110" width="256" height="162" filterUnits="userSpaceOnUse" color-interpolation-filters="sRGB">
<feFlood flood-opacity="0" result="BackgroundImageFix"/>
<feBlend mode="normal" in="SourceGraphic" in2="BackgroundImageFix" result="shape"/>
<feGaussianBlur stdDeviation="19.5" result="effect1_foregroundBlur_204_654"/>
</filter>
<filter id="filter1_d_204_654" x="147" y="-24" width="152" height="152" filterUnits="userSpaceOnUse" color-interpolation-filters="sRGB">
<feFlood flood-opacity="0" result="BackgroundImageFix"/>
<feColorMatrix in="SourceAlpha" type="matrix" values="0 0 0 0 0 0 0 0 0 0 0 0 0 0 0 0 0 0 127 0" result="hardAlpha"/>
<feOffset dx="2" dy="1"/>
<feGaussianBlur stdDeviation="12.5"/>
<feColorMatrix type="matrix" values="0 0 0 0 0 0 0 0 0 0 0 0 0 0 0 0 0 0 0.33 0"/>
<feBlend mode="normal" in2="BackgroundImageFix" result="effect1_dropShadow_204_654"/>
<feBlend mode="normal" in="SourceGraphic" in2="effect1_dropShadow_204_654" result="shape"/>
</filter>
<linearGradient id="paint0_linear_204_654" x1="136" y1="0" x2="136" y2="308" gradientUnits="userSpaceOnUse">
<stop stop-color="#FF7979"/>
<stop offset="1" stop-color="#E85555"/>
</linearGradient>
<linearGradient id="paint1_linear_204_654" x1="136" y1="0" x2="136" y2="308" gradientUnits="userSpaceOnUse">
<stop stop-color="#CB74F4"/>
<stop offset="0.942892" stop-color="#A849F3"/>
</linearGradient>
<linearGradient id="paint2_linear_204_654" x1="221" y1="0" x2="221" y2="102" gradientUnits="userSpaceOnUse">
<stop stop-color="#B051E0"/>
<stop offset="1" stop-color="#952BCB"/>
</linearGradient>
</defs>
</svg>
