<svg width="272" height="308" viewBox="0 0 272 308" fill="none" xmlns="http://www.w3.org/2000/svg">
<rect width="272" height="308" fill="#E5E5E5"/>
<mask id="mask0_204_675" style="mask-type:alpha" maskUnits="userSpaceOnUse" x="0" y="0" width="272" height="308">
<path d="M250 308H22C9.84974 308 0 298.15 0 286V22C0 9.84974 9.84974 0 22 0H170L272 102V286C272 298.15 262.15 308 250 308Z" fill="url(#paint0_linear_204_675)"/>
</mask>
<g mask="url(#mask0_204_675)">
<path d="M250 308H22C9.84974 308 0 298.15 0 286V22C0 9.84974 9.84974 0 22 0H170L272 102V286C272 298.15 262.15 308 250 308Z" fill="url(#paint1_linear_204_675)"/>
<g opacity="0.2" filter="url(#filter0_f_204_675)">
<rect x="48" y="149" width="178" height="84" fill="#780AAF" style="mix-blend-mode:darken"/>
</g>
<path d="M66.5942 202.31C65.7675 202.31 65.0235 202.083 64.3622 201.628C63.7422 201.132 63.2668 200.429 62.9362 199.52L50.7842 162.196C50.6602 161.741 50.5982 161.39 50.5982 161.142C50.5568 160.357 50.7842 159.716 51.2802 159.22C51.8175 158.683 52.4995 158.414 53.3262 158.414C53.9875 158.414 54.5662 158.621 55.0622 159.034C55.5582 159.447 55.9095 159.985 56.1162 160.646L66.5322 194.87L77.0102 160.77C77.2168 160.067 77.6095 159.509 78.1882 159.096C78.8082 158.641 79.4902 158.414 80.2342 158.414C80.9782 158.414 81.6395 158.641 82.2182 159.096C82.8382 159.509 83.2515 160.067 83.4582 160.77L93.9362 194.87L104.352 160.646C104.559 159.985 104.91 159.447 105.406 159.034C105.902 158.621 106.481 158.414 107.142 158.414C107.969 158.414 108.63 158.683 109.126 159.22C109.663 159.716 109.911 160.357 109.87 161.142C109.87 161.39 109.808 161.741 109.684 162.196L97.5322 199.52C97.2015 200.429 96.7055 201.132 96.0442 201.628C95.4242 202.083 94.7008 202.31 93.8742 202.31C93.0475 202.31 92.2828 202.062 91.5802 201.566C90.9188 201.029 90.4642 200.347 90.2162 199.52L80.2342 167.9L70.2522 199.52C70.0042 200.347 69.5288 201.029 68.8262 201.566C68.1648 202.062 67.4208 202.31 66.5942 202.31ZM124.672 202.31C123.887 202.31 123.225 202.041 122.688 201.504C122.151 200.967 121.882 200.305 121.882 199.52V162.506C121.882 161.39 122.275 160.439 123.06 159.654C123.845 158.827 124.796 158.414 125.912 158.414H127.958C128.785 158.414 129.529 158.662 130.19 159.158C130.893 159.654 131.409 160.274 131.74 161.018L145.814 196.11L159.888 161.018C160.219 160.274 160.715 159.654 161.376 159.158C162.079 158.662 162.843 158.414 163.67 158.414H165.716C166.832 158.414 167.783 158.827 168.568 159.654C169.353 160.439 169.746 161.39 169.746 162.506V199.52C169.746 200.305 169.477 200.967 168.94 201.504C168.403 202.041 167.742 202.31 166.956 202.31C166.171 202.31 165.489 202.041 164.91 201.504C164.373 200.967 164.104 200.305 164.104 199.52V164.304L149.782 199.706C149.451 200.491 148.914 201.132 148.17 201.628C147.467 202.083 146.682 202.31 145.814 202.31C144.946 202.31 144.14 202.083 143.396 201.628C142.693 201.132 142.177 200.491 141.846 199.706L127.524 164.304V199.52C127.524 200.305 127.235 200.967 126.656 201.504C126.119 202.041 125.457 202.31 124.672 202.31ZM200.921 202.31C199.226 202.31 197.945 201.359 197.077 199.458L181.763 162.32C181.639 161.989 181.577 161.638 181.577 161.266C181.577 160.398 181.825 159.716 182.321 159.22C182.817 158.683 183.499 158.414 184.367 158.414C184.946 158.414 185.462 158.6 185.917 158.972C186.413 159.303 186.785 159.757 187.033 160.336L201.603 196.668L216.173 160.336C216.421 159.757 216.772 159.303 217.227 158.972C217.723 158.6 218.26 158.414 218.839 158.414C219.707 158.414 220.389 158.683 220.885 159.22C221.381 159.716 221.629 160.398 221.629 161.266C221.629 161.638 221.567 161.989 221.443 162.32L206.129 199.458C205.261 201.359 203.98 202.31 202.285 202.31H200.921Z" fill="white"/>
<path d="M64.3622 201.628L63.1128 203.19L63.1694 203.235L63.2291 203.276L64.3622 201.628ZM62.9362 199.52L61.0344 200.139L61.0449 200.172L61.0566 200.203L62.9362 199.52ZM50.7842 162.196L48.8546 162.722L48.8674 162.769L48.8824 162.815L50.7842 162.196ZM50.5982 161.142H52.5982V161.089L52.5954 161.037L50.5982 161.142ZM51.2802 159.22L49.8659 157.806L49.8659 157.806L51.2802 159.22ZM55.0622 159.034L53.7818 160.57V160.57L55.0622 159.034ZM56.1162 160.646L58.0295 160.064L58.0273 160.057L58.0251 160.049L56.1162 160.646ZM66.5322 194.87L64.6188 195.452L66.523 201.709L68.4439 195.457L66.5322 194.87ZM77.0102 160.77L78.9219 161.357L78.9255 161.346L78.9289 161.334L77.0102 160.77ZM78.1882 159.096L79.3506 160.723L79.3608 160.716L79.3709 160.709L78.1882 159.096ZM82.2182 159.096L80.9825 160.669L81.0439 160.717L81.1088 160.76L82.2182 159.096ZM83.4582 160.77L81.5394 161.334L81.5428 161.346L81.5464 161.357L83.4582 160.77ZM93.9362 194.87L92.0244 195.457L93.9453 201.709L95.8495 195.452L93.9362 194.87ZM104.352 160.646L102.443 160.049L102.441 160.057L102.439 160.064L104.352 160.646ZM105.406 159.034L106.687 160.57V160.57L105.406 159.034ZM109.126 159.22L107.657 160.577L107.711 160.635L107.77 160.69L109.126 159.22ZM109.87 161.142L107.873 161.037L107.87 161.089V161.142H109.87ZM109.684 162.196L111.586 162.815L111.601 162.769L111.614 162.722L109.684 162.196ZM97.5322 199.52L99.4117 200.203L99.4234 200.172L99.4339 200.139L97.5322 199.52ZM96.0442 201.628L97.2269 203.241L97.2355 203.234L97.2442 203.228L96.0442 201.628ZM91.5802 201.566L90.319 203.118L90.3715 203.161L90.4268 203.2L91.5802 201.566ZM90.2162 199.52L92.1318 198.945L92.1277 198.932L92.1234 198.918L90.2162 199.52ZM80.2342 167.9L82.1414 167.298L80.2342 161.256L78.3269 167.298L80.2342 167.9ZM70.2522 199.52L68.3449 198.918L68.3406 198.932L68.3365 198.945L70.2522 199.52ZM68.8262 201.566L70.0262 203.166L70.0336 203.16L70.0411 203.155L68.8262 201.566ZM66.5942 200.31C66.1591 200.31 65.8126 200.198 65.4952 199.98L63.2291 203.276C64.2343 203.967 65.3758 204.31 66.5942 204.31V200.31ZM65.6115 200.066C65.3351 199.845 65.0484 199.476 64.8157 198.837L61.0566 200.203C61.4852 201.382 62.1492 202.419 63.1128 203.19L65.6115 200.066ZM64.8379 198.901L52.6859 161.577L48.8824 162.815L61.0344 200.139L64.8379 198.901ZM52.7137 161.67C52.663 161.484 52.6319 161.344 52.6142 161.244C52.5955 161.138 52.5982 161.111 52.5982 161.142H48.5982C48.5982 161.662 48.7178 162.221 48.8546 162.722L52.7137 161.67ZM52.5954 161.037C52.5798 160.742 52.6503 160.678 52.6944 160.634L49.8659 157.806C48.918 158.754 48.5338 159.972 48.6009 161.247L52.5954 161.037ZM52.6944 160.634C52.8218 160.507 52.9786 160.414 53.3262 160.414V156.414C52.0204 156.414 50.8132 156.859 49.8659 157.806L52.6944 160.634ZM53.3262 160.414C53.532 160.414 53.6546 160.464 53.7818 160.57L56.3425 157.498C55.4777 156.777 54.443 156.414 53.3262 156.414V160.414ZM53.7818 160.57C53.9604 160.719 54.1065 160.92 54.2072 161.243L58.0251 160.049C57.7125 159.049 57.1559 158.175 56.3425 157.498L53.7818 160.57ZM54.2028 161.228L64.6188 195.452L68.4455 194.288L58.0295 160.064L54.2028 161.228ZM68.4439 195.457L78.9219 161.357L75.0984 160.183L64.6204 194.283L68.4439 195.457ZM78.9289 161.334C79.0135 161.047 79.1474 160.869 79.3506 160.723L77.0257 157.469C76.0716 158.15 75.4202 159.088 75.0914 160.206L78.9289 161.334ZM79.3709 160.709C79.6601 160.497 79.9305 160.414 80.2342 160.414V156.414C79.0498 156.414 77.9562 156.786 77.0054 157.483L79.3709 160.709ZM80.2342 160.414C80.5354 160.414 80.7604 160.494 80.9825 160.669L83.4538 157.523C82.5186 156.789 81.4209 156.414 80.2342 156.414V160.414ZM81.1088 160.76C81.3457 160.918 81.4677 161.09 81.5394 161.334L85.3769 160.206C85.0353 159.044 84.3306 158.101 83.3276 157.432L81.1088 160.76ZM81.5464 161.357L92.0244 195.457L95.8479 194.283L85.3699 160.183L81.5464 161.357ZM95.8495 195.452L106.266 161.228L102.439 160.064L92.0228 194.288L95.8495 195.452ZM106.261 161.243C106.362 160.92 106.508 160.719 106.687 160.57L104.126 157.498C103.312 158.175 102.756 159.049 102.443 160.049L106.261 161.243ZM106.687 160.57C106.814 160.464 106.936 160.414 107.142 160.414V156.414C106.025 156.414 104.991 156.777 104.126 157.498L106.687 160.57ZM107.142 160.414C107.491 160.414 107.59 160.505 107.657 160.577L110.596 157.863C109.67 156.86 108.447 156.414 107.142 156.414V160.414ZM107.77 160.69C107.829 160.744 107.843 160.777 107.85 160.794C107.858 160.816 107.881 160.885 107.873 161.037L111.867 161.247C111.937 159.919 111.493 158.683 110.483 157.75L107.77 160.69ZM107.87 161.142C107.87 161.111 107.873 161.138 107.854 161.244C107.836 161.344 107.805 161.484 107.755 161.67L111.614 162.722C111.75 162.221 111.87 161.662 111.87 161.142H107.87ZM107.782 161.577L95.6304 198.901L99.4339 200.139L111.586 162.815L107.782 161.577ZM95.6526 198.837C95.4315 199.444 95.1448 199.803 94.8442 200.028L97.2442 203.228C98.2662 202.461 98.9714 201.414 99.4117 200.203L95.6526 198.837ZM94.8614 200.015C94.6108 200.199 94.3093 200.31 93.8742 200.31V204.31C95.0923 204.31 96.2375 203.966 97.2269 203.241L94.8614 200.015ZM93.8742 200.31C93.4779 200.31 93.1133 200.2 92.7335 199.932L90.4268 203.2C91.4524 203.924 92.617 204.31 93.8742 204.31V200.31ZM92.8413 200.014C92.4955 199.733 92.2662 199.393 92.1318 198.945L88.3005 200.095C88.6621 201.3 89.3422 202.325 90.319 203.118L92.8413 200.014ZM92.1234 198.918L82.1414 167.298L78.3269 168.502L88.3089 200.122L92.1234 198.918ZM78.3269 167.298L68.3449 198.918L72.1594 200.122L82.1414 168.502L78.3269 167.298ZM68.3365 198.945C68.2127 199.358 67.9883 199.689 67.6113 199.977L70.0411 203.155C71.0693 202.368 71.7956 201.335 72.1678 200.095L68.3365 198.945ZM67.6262 199.966C67.311 200.202 66.9881 200.31 66.5942 200.31V204.31C67.8536 204.31 69.0186 203.922 70.0262 203.166L67.6262 199.966ZM122.688 201.504L124.102 200.09L122.688 201.504ZM123.06 159.654L124.474 161.068L124.493 161.05L124.51 161.031L123.06 159.654ZM130.19 159.158L128.99 160.758L129.013 160.775L129.037 160.792L130.19 159.158ZM131.74 161.018L133.596 160.274L133.583 160.239L133.568 160.206L131.74 161.018ZM145.814 196.11L143.958 196.854L145.814 201.483L147.67 196.854L145.814 196.11ZM159.888 161.018L158.061 160.206L158.046 160.239L158.032 160.274L159.888 161.018ZM161.376 159.158L160.223 157.524L160.199 157.541L160.176 157.558L161.376 159.158ZM168.568 159.654L167.118 161.031L167.136 161.05L167.154 161.068L168.568 159.654ZM168.94 201.504L170.354 202.918V202.918L168.94 201.504ZM164.91 201.504L163.496 202.918L163.522 202.944L163.549 202.97L164.91 201.504ZM164.104 164.304H166.104L162.25 163.554L164.104 164.304ZM149.782 199.706L151.625 200.482L151.631 200.469L151.636 200.456L149.782 199.706ZM148.17 201.628L149.257 203.307L149.268 203.3L149.28 203.292L148.17 201.628ZM143.396 201.628L142.243 203.262L142.297 203.3L142.353 203.335L143.396 201.628ZM141.846 199.706L139.992 200.456L139.997 200.469L140.003 200.482L141.846 199.706ZM127.524 164.304L129.378 163.554L125.524 164.304H127.524ZM126.656 201.504L125.295 200.038L125.268 200.064L125.242 200.09L126.656 201.504ZM124.672 200.31C124.397 200.31 124.251 200.238 124.102 200.09L121.274 202.918C122.2 203.844 123.376 204.31 124.672 204.31V200.31ZM124.102 200.09C123.954 199.941 123.882 199.795 123.882 199.52H119.882C119.882 200.816 120.348 201.992 121.274 202.918L124.102 200.09ZM123.882 199.52V162.506H119.882V199.52H123.882ZM123.882 162.506C123.882 161.918 124.066 161.476 124.474 161.068L121.646 158.24C120.484 159.402 119.882 160.862 119.882 162.506H123.882ZM124.51 161.031C124.927 160.593 125.358 160.414 125.912 160.414V156.414C124.235 156.414 122.764 157.062 121.61 158.276L124.51 161.031ZM125.912 160.414H127.958V156.414H125.912V160.414ZM127.958 160.414C128.352 160.414 128.675 160.522 128.99 160.758L131.39 157.558C130.383 156.802 129.218 156.414 127.958 156.414V160.414ZM129.037 160.792C129.462 161.092 129.737 161.435 129.913 161.83L133.568 160.206C133.082 159.113 132.324 158.216 131.344 157.524L129.037 160.792ZM129.884 161.762L143.958 196.854L147.67 195.366L133.596 160.274L129.884 161.762ZM147.67 196.854L161.744 161.762L158.032 160.274L143.958 195.366L147.67 196.854ZM161.716 161.83C161.906 161.403 162.183 161.053 162.576 160.758L160.176 157.558C159.246 158.255 158.532 159.145 158.061 160.206L161.716 161.83ZM162.53 160.792C162.909 160.524 163.274 160.414 163.67 160.414V156.414C162.413 156.414 161.248 156.8 160.223 157.524L162.53 160.792ZM163.67 160.414H165.716V156.414H163.67V160.414ZM165.716 160.414C166.271 160.414 166.701 160.593 167.118 161.031L170.018 158.276C168.865 157.062 167.394 156.414 165.716 156.414V160.414ZM167.154 161.068C167.562 161.476 167.746 161.918 167.746 162.506H171.746C171.746 160.862 171.145 159.402 169.982 158.24L167.154 161.068ZM167.746 162.506V199.52H171.746V162.506H167.746ZM167.746 199.52C167.746 199.795 167.674 199.941 167.526 200.09L170.354 202.918C171.281 201.992 171.746 200.816 171.746 199.52H167.746ZM167.526 200.09C167.377 200.238 167.231 200.31 166.956 200.31V204.31C168.252 204.31 169.428 203.844 170.354 202.918L167.526 200.09ZM166.956 200.31C166.679 200.31 166.482 200.234 166.271 200.038L163.549 202.97C164.496 203.848 165.663 204.31 166.956 204.31V200.31ZM166.324 200.09C166.176 199.941 166.104 199.795 166.104 199.52H162.104C162.104 200.816 162.57 201.992 163.496 202.918L166.324 200.09ZM166.104 199.52V164.304H162.104V199.52H166.104ZM162.25 163.554L147.928 198.956L151.636 200.456L165.958 165.054L162.25 163.554ZM147.939 198.93C147.768 199.335 147.495 199.674 147.061 199.964L149.28 203.292C150.333 202.59 151.135 201.647 151.625 200.482L147.939 198.93ZM147.084 199.949C146.717 200.186 146.312 200.31 145.814 200.31V204.31C147.053 204.31 148.218 203.979 149.257 203.307L147.084 199.949ZM145.814 200.31C145.316 200.31 144.871 200.185 144.439 199.921L142.353 203.335C143.41 203.98 144.576 204.31 145.814 204.31V200.31ZM144.55 199.994C144.15 199.712 143.873 199.367 143.689 198.93L140.003 200.482C140.48 201.616 141.237 202.552 142.243 203.262L144.55 199.994ZM143.7 198.956L129.378 163.554L125.67 165.054L139.992 200.456L143.7 198.956ZM125.524 164.304V199.52H129.524V164.304H125.524ZM125.524 199.52C125.524 199.746 125.469 199.877 125.295 200.038L128.017 202.97C129.001 202.056 129.524 200.865 129.524 199.52H125.524ZM125.242 200.09C125.093 200.238 124.947 200.31 124.672 200.31V204.31C125.968 204.31 127.144 203.844 128.07 202.918L125.242 200.09ZM197.077 199.458L195.228 200.22L195.242 200.255L195.258 200.289L197.077 199.458ZM181.763 162.32L179.89 163.022L179.902 163.053L179.914 163.082L181.763 162.32ZM182.321 159.22L183.735 160.634L183.764 160.606L183.791 160.577L182.321 159.22ZM185.917 158.972L184.651 160.52L184.726 160.582L184.808 160.636L185.917 158.972ZM187.033 160.336L188.889 159.592L188.881 159.57L188.871 159.548L187.033 160.336ZM201.603 196.668L199.747 197.412L201.603 202.041L203.459 197.412L201.603 196.668ZM216.173 160.336L214.335 159.548L214.325 159.57L214.317 159.592L216.173 160.336ZM217.227 158.972L218.403 160.589L218.415 160.581L218.427 160.572L217.227 158.972ZM220.885 159.22L219.415 160.577L219.443 160.606L219.471 160.634L220.885 159.22ZM221.443 162.32L223.292 163.082L223.304 163.053L223.316 163.022L221.443 162.32ZM206.129 199.458L207.948 200.289L207.964 200.255L207.978 200.22L206.129 199.458ZM200.921 200.31C200.474 200.31 200.155 200.194 199.881 199.991C199.583 199.77 199.232 199.363 198.896 198.627L195.258 200.289C195.79 201.454 196.514 202.474 197.497 203.203C198.505 203.951 199.673 204.31 200.921 204.31V200.31ZM198.926 198.696L183.612 161.558L179.914 163.082L195.228 200.22L198.926 198.696ZM183.636 161.618C183.6 161.523 183.577 161.411 183.577 161.266H179.577C179.577 161.865 179.678 162.455 179.89 163.022L183.636 161.618ZM183.577 161.266C183.577 160.795 183.699 160.67 183.735 160.634L180.907 157.806C179.951 158.762 179.577 160.001 179.577 161.266H183.577ZM183.791 160.577C183.837 160.526 183.944 160.414 184.367 160.414V156.414C183.054 156.414 181.797 156.839 180.851 157.863L183.791 160.577ZM184.367 160.414C184.476 160.414 184.547 160.435 184.651 160.52L187.184 157.424C186.377 156.765 185.415 156.414 184.367 156.414V160.414ZM184.808 160.636C184.962 160.739 185.091 160.881 185.195 161.124L188.871 159.548C188.479 158.634 187.864 157.866 187.026 157.308L184.808 160.636ZM185.177 161.08L199.747 197.412L203.459 195.924L188.889 159.592L185.177 161.08ZM203.459 197.412L218.029 161.08L214.317 159.592L199.747 195.924L203.459 197.412ZM218.011 161.124C218.135 160.836 218.274 160.684 218.403 160.589L216.051 157.355C215.271 157.922 214.707 158.679 214.335 159.548L218.011 161.124ZM218.427 160.572C218.603 160.44 218.725 160.414 218.839 160.414V156.414C217.796 156.414 216.843 156.76 216.027 157.372L218.427 160.572ZM218.839 160.414C219.262 160.414 219.369 160.526 219.415 160.577L222.355 157.863C221.409 156.839 220.152 156.414 218.839 156.414V160.414ZM219.471 160.634C219.507 160.67 219.629 160.795 219.629 161.266H223.629C223.629 160.001 223.255 158.762 222.299 157.806L219.471 160.634ZM219.629 161.266C219.629 161.411 219.606 161.523 219.57 161.618L223.316 163.022C223.528 162.455 223.629 161.865 223.629 161.266H219.629ZM219.594 161.558L204.28 198.696L207.978 200.22L223.292 163.082L219.594 161.558ZM204.31 198.627C203.974 199.363 203.623 199.77 203.325 199.991C203.051 200.194 202.732 200.31 202.285 200.31V204.31C203.533 204.31 204.701 203.951 205.709 203.203C206.692 202.474 207.416 201.454 207.948 200.289L204.31 198.627ZM202.285 200.31H200.921V204.31H202.285V200.31Z" fill="white"/>
<g filter="url(#filter1_d_204_675)">
<path d="M272 102H192C179.85 102 170 92.1503 170 80V0L272 102Z" fill="url(#paint2_linear_204_675)"/>
</g>
</g>
<defs>
<filter id="filter0_f_204_675" x="9" y="110" width="256" height="162" filterUnits="userSpaceOnUse" color-interpolation-filters="sRGB">
<feFlood flood-opacity="0" result="BackgroundImageFix"/>
<feBlend mode="normal" in="SourceGraphic" in2="BackgroundImageFix" result="shape"/>
<feGaussianBlur stdDeviation="19.5" result="effect1_foregroundBlur_204_675"/>
</filter>
<filter id="filter1_d_204_675" x="147" y="-24" width="152" height="152" filterUnits="userSpaceOnUse" color-interpolation-filters="sRGB">
<feFlood flood-opacity="0" result="BackgroundImageFix"/>
<feColorMatrix in="SourceAlpha" type="matrix" values="0 0 0 0 0 0 0 0 0 0 0 0 0 0 0 0 0 0 127 0" result="hardAlpha"/>
<feOffset dx="2" dy="1"/>
<feGaussianBlur stdDeviation="12.5"/>
<feColorMatrix type="matrix" values="0 0 0 0 0 0 0 0 0 0 0 0 0 0 0 0 0 0 0.33 0"/>
<feBlend mode="normal" in2="BackgroundImageFix" result="effect1_dropShadow_204_675"/>
<feBlend mode="normal" in="SourceGraphic" in2="effect1_dropShadow_204_675" result="shape"/>
</filter>
<linearGradient id="paint0_linear_204_675" x1="136" y1="0" x2="136" y2="308" gradientUnits="userSpaceOnUse">
<stop stop-color="#FF7979"/>
<stop offset="1" stop-color="#E85555"/>
</linearGradient>
<linearGradient id="paint1_linear_204_675" x1="136" y1="0" x2="136" y2="308" gradientUnits="userSpaceOnUse">
<stop stop-color="#CB74F4"/>
<stop offset="0.942892" stop-color="#A849F3"/>
</linearGradient>
<linearGradient id="paint2_linear_204_675" x1="221" y1="0" x2="221" y2="102" gradientUnits="userSpaceOnUse">
<stop stop-color="#B051E0"/>
<stop offset="1" stop-color="#952BCB"/>
</linearGradient>
</defs>
</svg>
