<svg width="272" height="308" viewBox="0 0 272 308" fill="none" xmlns="http://www.w3.org/2000/svg">
<mask id="mask0_204_914" style="mask-type:alpha" maskUnits="userSpaceOnUse" x="0" y="0" width="272" height="308">
<path d="M250 308H22C9.84974 308 0 298.15 0 286V22C0 9.84974 9.84974 0 22 0H170L272 102V286C272 298.15 262.15 308 250 308Z" fill="url(#paint0_linear_204_914)"/>
</mask>
<g mask="url(#mask0_204_914)">
<path d="M250 308H22C9.84974 308 0 298.15 0 286V22C0 9.84974 9.84974 0 22 0H170L272 102V286C272 298.15 262.15 308 250 308Z" fill="url(#paint1_linear_204_914)"/>
<g opacity="0.82" filter="url(#filter0_f_204_914)">
<rect x="48" y="149" width="178" height="84" fill="#0F7D56" fill-opacity="0.27" style="mix-blend-mode:darken"/>
</g>
<path d="M21.7604 202.31C21.0577 202.31 20.4377 202.062 19.9004 201.566C19.4044 201.029 19.1564 200.409 19.1564 199.706C19.1564 199.045 19.3424 198.466 19.7144 197.97L34.0364 180.362L19.8384 162.878C19.4664 162.382 19.2804 161.803 19.2804 161.142C19.2804 160.357 19.5284 159.716 20.0244 159.22C20.5617 158.683 21.2231 158.414 22.0084 158.414C22.4631 158.414 22.8971 158.517 23.3104 158.724C23.7237 158.931 24.0544 159.199 24.3024 159.53L37.3844 176.146L50.4664 159.406C50.9211 158.745 51.6031 158.414 52.5124 158.414C53.2564 158.414 53.8971 158.683 54.4344 159.22C54.9717 159.716 55.2404 160.336 55.2404 161.08C55.2404 161.659 55.0751 162.175 54.7444 162.63L40.4224 180.3L54.7444 197.908C55.1164 198.321 55.3024 198.859 55.3024 199.52C55.3024 200.305 55.0337 200.967 54.4964 201.504C54.0004 202.041 53.3391 202.31 52.5124 202.31C51.6031 202.31 50.8591 201.917 50.2804 201.132L37.0124 184.454L23.9304 201.194C23.3104 201.938 22.5871 202.31 21.7604 202.31ZM71.1681 202.31C70.3828 202.31 69.7214 202.041 69.1841 201.504C68.6468 200.967 68.3781 200.305 68.3781 199.52V161.266C68.3781 160.481 68.6468 159.819 69.1841 159.282C69.7214 158.703 70.3828 158.414 71.1681 158.414C71.9534 158.414 72.6148 158.703 73.1521 159.282C73.7308 159.819 74.0201 160.481 74.0201 161.266V177.758H97.5181V161.266C97.5181 160.481 97.7868 159.819 98.3241 159.282C98.8614 158.703 99.5228 158.414 100.308 158.414C101.093 158.414 101.755 158.703 102.292 159.282C102.871 159.819 103.16 160.481 103.16 161.266V199.52C103.16 200.305 102.871 200.967 102.292 201.504C101.755 202.041 101.093 202.31 100.308 202.31C99.5228 202.31 98.8614 202.041 98.3241 201.504C97.7868 200.967 97.5181 200.305 97.5181 199.52V183.028H74.0201V199.52C74.0201 200.305 73.7308 200.967 73.1521 201.504C72.6148 202.041 71.9534 202.31 71.1681 202.31ZM132.355 202.31C131.57 202.31 130.908 202.041 130.371 201.504C129.834 200.967 129.565 200.305 129.565 199.52V163.994H116.917C116.173 163.994 115.553 163.746 115.057 163.25C114.561 162.754 114.313 162.134 114.313 161.39C114.313 160.646 114.561 160.026 115.057 159.53C115.553 158.993 116.173 158.724 116.917 158.724H147.793C148.537 158.724 149.157 158.993 149.653 159.53C150.19 160.026 150.459 160.646 150.459 161.39C150.459 162.134 150.19 162.754 149.653 163.25C149.157 163.746 148.537 163.994 147.793 163.994H135.207V199.52C135.207 200.305 134.918 200.967 134.339 201.504C133.802 202.041 133.14 202.31 132.355 202.31ZM164.432 202.31C163.647 202.31 162.985 202.041 162.448 201.504C161.911 200.967 161.642 200.305 161.642 199.52V162.506C161.642 161.39 162.035 160.439 162.82 159.654C163.605 158.827 164.556 158.414 165.672 158.414H167.718C168.545 158.414 169.289 158.662 169.95 159.158C170.653 159.654 171.169 160.274 171.5 161.018L185.574 196.11L199.648 161.018C199.979 160.274 200.475 159.654 201.136 159.158C201.839 158.662 202.603 158.414 203.43 158.414H205.476C206.592 158.414 207.543 158.827 208.328 159.654C209.113 160.439 209.506 161.39 209.506 162.506V199.52C209.506 200.305 209.237 200.967 208.7 201.504C208.163 202.041 207.501 202.31 206.716 202.31C205.931 202.31 205.249 202.041 204.67 201.504C204.133 200.967 203.864 200.305 203.864 199.52V164.304L189.542 199.706C189.211 200.491 188.674 201.132 187.93 201.628C187.227 202.083 186.442 202.31 185.574 202.31C184.706 202.31 183.9 202.083 183.156 201.628C182.453 201.132 181.937 200.491 181.606 199.706L167.284 164.304V199.52C167.284 200.305 166.995 200.967 166.416 201.504C165.879 202.041 165.217 202.31 164.432 202.31ZM229.769 202C228.694 202 227.764 201.628 226.979 200.884C226.235 200.099 225.863 199.169 225.863 198.094V161.266C225.863 160.481 226.132 159.819 226.669 159.282C227.206 158.703 227.868 158.414 228.653 158.414C229.438 158.414 230.1 158.703 230.637 159.282C231.216 159.819 231.505 160.481 231.505 161.266V196.358H251.779C252.564 196.358 253.226 196.647 253.763 197.226C254.342 197.763 254.631 198.425 254.631 199.21C254.631 199.995 254.342 200.657 253.763 201.194C253.226 201.731 252.564 202 251.779 202H229.769Z" fill="white"/>
<path d="M19.9004 201.566L18.4308 202.923L18.4851 202.981L18.5438 203.036L19.9004 201.566ZM19.7144 197.97L18.1628 196.708L18.138 196.739L18.1144 196.77L19.7144 197.97ZM34.0364 180.362L35.588 181.624L36.6136 180.363L35.589 179.101L34.0364 180.362ZM19.8384 162.878L18.2384 164.078L18.2615 164.109L18.2858 164.139L19.8384 162.878ZM20.0244 159.22L18.6102 157.806L18.6102 157.806L20.0244 159.22ZM23.3104 158.724L24.2048 156.935L23.3104 158.724ZM24.3024 159.53L22.7024 160.73L22.7165 160.749L22.731 160.767L24.3024 159.53ZM37.3844 176.146L35.813 177.383L37.3903 179.387L38.9603 177.378L37.3844 176.146ZM50.4664 159.406L52.0423 160.638L52.0799 160.589L52.1145 160.539L50.4664 159.406ZM54.4344 159.22L53.0202 160.634L53.0485 160.662L53.0778 160.69L54.4344 159.22ZM54.7444 162.63L56.2981 163.889L56.3311 163.849L56.3619 163.806L54.7444 162.63ZM40.4224 180.3L38.8687 179.041L37.8461 180.302L38.8708 181.562L40.4224 180.3ZM54.7444 197.908L53.1928 199.17L53.2244 199.209L53.2578 199.246L54.7444 197.908ZM54.4964 201.504L53.0822 200.09L53.0539 200.118L53.0268 200.147L54.4964 201.504ZM50.2804 201.132L51.8905 199.946L51.8686 199.916L51.8455 199.887L50.2804 201.132ZM37.0124 184.454L38.5775 183.209L36.9984 181.224L35.4365 183.222L37.0124 184.454ZM23.9304 201.194L25.4668 202.474L25.4869 202.45L25.5063 202.426L23.9304 201.194ZM21.7604 200.31C21.5826 200.31 21.4414 200.267 21.257 200.096L18.5438 203.036C19.434 203.857 20.5329 204.31 21.7604 204.31V200.31ZM21.37 200.209C21.1997 200.025 21.1564 199.884 21.1564 199.706H17.1564C17.1564 200.934 17.6091 202.032 18.4308 202.923L21.37 200.209ZM21.1564 199.706C21.1564 199.447 21.2199 199.296 21.3144 199.17L18.1144 196.77C17.4649 197.636 17.1564 198.643 17.1564 199.706H21.1564ZM21.266 199.232L35.588 181.624L32.4848 179.1L18.1628 196.708L21.266 199.232ZM35.589 179.101L21.391 161.617L18.2858 164.139L32.4838 181.623L35.589 179.101ZM21.4384 161.678C21.3439 161.552 21.2804 161.401 21.2804 161.142H17.2804C17.2804 162.205 17.5889 163.212 18.2384 164.078L21.4384 161.678ZM21.2804 161.142C21.2804 160.818 21.364 160.709 21.4386 160.634L18.6102 157.806C17.6928 158.723 17.2804 159.896 17.2804 161.142H21.2804ZM21.4386 160.634C21.5871 160.486 21.7337 160.414 22.0084 160.414V156.414C20.7125 156.414 19.5364 156.88 18.6102 157.806L21.4386 160.634ZM22.0084 160.414C22.1473 160.414 22.2756 160.443 22.416 160.513L24.2048 156.935C23.5185 156.592 22.7788 156.414 22.0084 156.414V160.414ZM22.416 160.513C22.5847 160.597 22.6617 160.676 22.7024 160.73L25.9024 158.33C25.4471 157.723 24.8627 157.264 24.2048 156.935L22.416 160.513ZM22.731 160.767L35.813 177.383L38.9558 174.909L25.8738 158.293L22.731 160.767ZM38.9603 177.378L52.0423 160.638L48.8905 158.174L35.8085 174.914L38.9603 177.378ZM52.1145 160.539C52.1393 160.503 52.157 160.486 52.1651 160.479C52.1727 160.472 52.18 160.467 52.1914 160.462C52.2115 160.452 52.3004 160.414 52.5124 160.414V156.414C51.0464 156.414 49.7003 156.99 48.8183 158.273L52.1145 160.539ZM52.5124 160.414C52.7134 160.414 52.8489 160.463 53.0202 160.634L55.8486 157.806C54.9452 156.902 53.7994 156.414 52.5124 156.414V160.414ZM53.0778 160.69C53.197 160.8 53.2404 160.883 53.2404 161.08H57.2404C57.2404 159.789 56.7465 158.632 55.791 157.75L53.0778 160.69ZM53.2404 161.08C53.2404 161.249 53.2013 161.351 53.1269 161.454L56.3619 163.806C56.9488 162.999 57.2404 162.068 57.2404 161.08H53.2404ZM53.1907 161.371L38.8687 179.041L41.9761 181.559L56.2981 163.889L53.1907 161.371ZM38.8708 181.562L53.1928 199.17L56.296 196.646L41.974 179.038L38.8708 181.562ZM53.2578 199.246C53.2609 199.249 53.2653 199.253 53.2729 199.275C53.2823 199.302 53.3024 199.376 53.3024 199.52H57.3024C57.3024 198.463 56.9941 197.418 56.231 196.57L53.2578 199.246ZM53.3024 199.52C53.3024 199.795 53.2306 199.941 53.0822 200.09L55.9106 202.918C56.8368 201.992 57.3024 200.816 57.3024 199.52H53.3024ZM53.0268 200.147C52.9607 200.219 52.8613 200.31 52.5124 200.31V204.31C53.8168 204.31 55.0401 203.864 55.966 202.861L53.0268 200.147ZM52.5124 200.31C52.2906 200.31 52.1242 200.263 51.8905 199.946L48.6703 202.318C49.5939 203.572 50.9155 204.31 52.5124 204.31V200.31ZM51.8455 199.887L38.5775 183.209L35.4473 185.699L48.7153 202.377L51.8455 199.887ZM35.4365 183.222L22.3545 199.962L25.5063 202.426L38.5883 185.686L35.4365 183.222ZM22.394 199.914C22.0815 200.289 21.8889 200.31 21.7604 200.31V204.31C23.2852 204.31 24.5393 203.587 25.4668 202.474L22.394 199.914ZM69.1841 201.504L70.5983 200.09L69.1841 201.504ZM69.1841 159.282L70.5983 160.696L70.6245 160.67L70.6497 160.643L69.1841 159.282ZM73.1521 159.282L71.6865 160.643L71.7369 160.697L71.7912 160.748L73.1521 159.282ZM74.0201 177.758H72.0201V179.758H74.0201V177.758ZM97.5181 177.758V179.758H99.5181V177.758H97.5181ZM98.3241 159.282L99.7383 160.696L99.7645 160.67L99.7897 160.643L98.3241 159.282ZM102.292 159.282L100.827 160.643L100.877 160.697L100.931 160.748L102.292 159.282ZM102.292 201.504L100.931 200.038L100.904 200.064L100.878 200.09L102.292 201.504ZM98.3241 201.504L96.9099 202.918L98.3241 201.504ZM97.5181 183.028H99.5181V181.028H97.5181V183.028ZM74.0201 183.028V181.028H72.0201V183.028H74.0201ZM73.1521 201.504L71.7912 200.038L71.7641 200.064L71.7379 200.09L73.1521 201.504ZM71.1681 200.31C70.8934 200.31 70.7468 200.238 70.5983 200.09L67.7699 202.918C68.6961 203.844 69.8722 204.31 71.1681 204.31V200.31ZM70.5983 200.09C70.4499 199.941 70.3781 199.795 70.3781 199.52H66.3781C66.3781 200.816 66.8437 201.992 67.7699 202.918L70.5983 200.09ZM70.3781 199.52V161.266H66.3781V199.52H70.3781ZM70.3781 161.266C70.3781 160.991 70.4499 160.845 70.5983 160.696L67.7699 157.868C66.8437 158.794 66.3781 159.97 66.3781 161.266H70.3781ZM70.6497 160.643C70.811 160.469 70.9424 160.414 71.1681 160.414V156.414C69.8231 156.414 68.6319 156.937 67.7185 157.921L70.6497 160.643ZM71.1681 160.414C71.3938 160.414 71.5252 160.469 71.6865 160.643L74.6177 157.921C73.7043 156.937 72.5131 156.414 71.1681 156.414V160.414ZM71.7912 160.748C71.9649 160.909 72.0201 161.04 72.0201 161.266H76.0201C76.0201 159.921 75.4966 158.73 74.513 157.816L71.7912 160.748ZM72.0201 161.266V177.758H76.0201V161.266H72.0201ZM74.0201 179.758H97.5181V175.758H74.0201V179.758ZM99.5181 177.758V161.266H95.5181V177.758H99.5181ZM99.5181 161.266C99.5181 160.991 99.5899 160.845 99.7383 160.696L96.9099 157.868C95.9837 158.794 95.5181 159.97 95.5181 161.266H99.5181ZM99.7897 160.643C99.951 160.469 100.082 160.414 100.308 160.414V156.414C98.9631 156.414 97.7719 156.937 96.8585 157.921L99.7897 160.643ZM100.308 160.414C100.534 160.414 100.665 160.469 100.827 160.643L103.758 157.921C102.844 156.937 101.653 156.414 100.308 156.414V160.414ZM100.931 160.748C101.105 160.909 101.16 161.04 101.16 161.266H105.16C105.16 159.921 104.637 158.73 103.653 157.816L100.931 160.748ZM101.16 161.266V199.52H105.16V161.266H101.16ZM101.16 199.52C101.16 199.746 101.105 199.877 100.931 200.038L103.653 202.97C104.637 202.056 105.16 200.865 105.16 199.52H101.16ZM100.878 200.09C100.729 200.238 100.583 200.31 100.308 200.31V204.31C101.604 204.31 102.78 203.844 103.706 202.918L100.878 200.09ZM100.308 200.31C100.033 200.31 99.8868 200.238 99.7383 200.09L96.9099 202.918C97.8361 203.844 99.0122 204.31 100.308 204.31V200.31ZM99.7383 200.09C99.5899 199.941 99.5181 199.795 99.5181 199.52H95.5181C95.5181 200.816 95.9837 201.992 96.9099 202.918L99.7383 200.09ZM99.5181 199.52V183.028H95.5181V199.52H99.5181ZM97.5181 181.028H74.0201V185.028H97.5181V181.028ZM72.0201 183.028V199.52H76.0201V183.028H72.0201ZM72.0201 199.52C72.0201 199.746 71.9649 199.877 71.7912 200.038L74.513 202.97C75.4966 202.056 76.0201 200.865 76.0201 199.52H72.0201ZM71.7379 200.09C71.5894 200.238 71.4428 200.31 71.1681 200.31V204.31C72.464 204.31 73.6401 203.844 74.5663 202.918L71.7379 200.09ZM130.371 201.504L128.957 202.918L130.371 201.504ZM129.565 163.994H131.565V161.994H129.565V163.994ZM115.057 163.25L113.643 164.664V164.664L115.057 163.25ZM115.057 159.53L116.471 160.944L116.499 160.916L116.526 160.887L115.057 159.53ZM149.653 159.53L148.183 160.887L148.237 160.945L148.296 161L149.653 159.53ZM149.653 163.25L148.296 161.78L148.267 161.808L148.239 161.836L149.653 163.25ZM135.207 163.994V161.994H133.207V163.994H135.207ZM134.339 201.504L132.978 200.038L132.951 200.064L132.925 200.09L134.339 201.504ZM132.355 200.31C132.08 200.31 131.934 200.238 131.785 200.09L128.957 202.918C129.883 203.844 131.059 204.31 132.355 204.31V200.31ZM131.785 200.09C131.637 199.941 131.565 199.795 131.565 199.52H127.565C127.565 200.816 128.03 201.992 128.957 202.918L131.785 200.09ZM131.565 199.52V163.994H127.565V199.52H131.565ZM129.565 161.994H116.917V165.994H129.565V161.994ZM116.917 161.994C116.668 161.994 116.567 161.932 116.471 161.836L113.643 164.664C114.538 165.56 115.678 165.994 116.917 165.994V161.994ZM116.471 161.836C116.375 161.739 116.313 161.639 116.313 161.39H112.313C112.313 162.629 112.747 163.769 113.643 164.664L116.471 161.836ZM116.313 161.39C116.313 161.141 116.375 161.041 116.471 160.944L113.643 158.116C112.747 159.011 112.313 160.151 112.313 161.39H116.313ZM116.526 160.887C116.636 160.767 116.72 160.724 116.917 160.724V156.724C115.626 156.724 114.469 157.218 113.587 158.173L116.526 160.887ZM116.917 160.724H147.793V156.724H116.917V160.724ZM147.793 160.724C147.99 160.724 148.073 160.767 148.183 160.887L151.122 158.173C150.24 157.218 149.084 156.724 147.793 156.724V160.724ZM148.296 161C148.415 161.11 148.459 161.193 148.459 161.39H152.459C152.459 160.099 151.965 158.942 151.009 158.06L148.296 161ZM148.459 161.39C148.459 161.587 148.415 161.67 148.296 161.78L151.009 164.72C151.965 163.838 152.459 162.681 152.459 161.39H148.459ZM148.239 161.836C148.142 161.932 148.042 161.994 147.793 161.994V165.994C149.032 165.994 150.171 165.56 151.067 164.664L148.239 161.836ZM147.793 161.994H135.207V165.994H147.793V161.994ZM133.207 163.994V199.52H137.207V163.994H133.207ZM133.207 199.52C133.207 199.746 133.152 199.877 132.978 200.038L135.7 202.97C136.683 202.056 137.207 200.865 137.207 199.52H133.207ZM132.925 200.09C132.776 200.238 132.63 200.31 132.355 200.31V204.31C133.651 204.31 134.827 203.844 135.753 202.918L132.925 200.09ZM162.448 201.504L163.862 200.09L162.448 201.504ZM162.82 159.654L164.234 161.068L164.252 161.05L164.27 161.031L162.82 159.654ZM169.95 159.158L168.75 160.758L168.773 160.775L168.797 160.792L169.95 159.158ZM171.5 161.018L173.356 160.274L173.343 160.239L173.328 160.206L171.5 161.018ZM185.574 196.11L183.718 196.854L185.574 201.483L187.43 196.854L185.574 196.11ZM199.648 161.018L197.82 160.206L197.806 160.239L197.792 160.274L199.648 161.018ZM201.136 159.158L199.983 157.524L199.959 157.541L199.936 157.558L201.136 159.158ZM208.328 159.654L206.878 161.031L206.896 161.05L206.914 161.068L208.328 159.654ZM208.7 201.504L210.114 202.918V202.918L208.7 201.504ZM204.67 201.504L203.256 202.918L203.282 202.944L203.309 202.97L204.67 201.504ZM203.864 164.304H205.864L202.01 163.554L203.864 164.304ZM189.542 199.706L191.385 200.482L191.391 200.469L191.396 200.456L189.542 199.706ZM187.93 201.628L189.017 203.307L189.028 203.3L189.039 203.292L187.93 201.628ZM183.156 201.628L182.003 203.262L182.057 203.3L182.113 203.335L183.156 201.628ZM181.606 199.706L179.752 200.456L179.757 200.469L179.763 200.482L181.606 199.706ZM167.284 164.304L169.138 163.554L165.284 164.304H167.284ZM166.416 201.504L165.055 200.038L165.028 200.064L165.002 200.09L166.416 201.504ZM164.432 200.31C164.157 200.31 164.011 200.238 163.862 200.09L161.034 202.918C161.96 203.844 163.136 204.31 164.432 204.31V200.31ZM163.862 200.09C163.714 199.941 163.642 199.795 163.642 199.52H159.642C159.642 200.816 160.108 201.992 161.034 202.918L163.862 200.09ZM163.642 199.52V162.506H159.642V199.52H163.642ZM163.642 162.506C163.642 161.918 163.826 161.476 164.234 161.068L161.406 158.24C160.243 159.402 159.642 160.862 159.642 162.506H163.642ZM164.27 161.031C164.687 160.593 165.118 160.414 165.672 160.414V156.414C163.995 156.414 162.524 157.062 161.37 158.276L164.27 161.031ZM165.672 160.414H167.718V156.414H165.672V160.414ZM167.718 160.414C168.112 160.414 168.435 160.522 168.75 160.758L171.15 157.558C170.143 156.802 168.977 156.414 167.718 156.414V160.414ZM168.797 160.792C169.222 161.092 169.497 161.435 169.672 161.83L173.328 160.206C172.842 159.113 172.084 158.216 171.103 157.524L168.797 160.792ZM169.644 161.762L183.718 196.854L187.43 195.366L173.356 160.274L169.644 161.762ZM187.43 196.854L201.504 161.762L197.792 160.274L183.718 195.366L187.43 196.854ZM201.476 161.83C201.666 161.403 201.943 161.053 202.336 160.758L199.936 157.558C199.006 158.255 198.292 159.145 197.82 160.206L201.476 161.83ZM202.289 160.792C202.669 160.524 203.034 160.414 203.43 160.414V156.414C202.173 156.414 201.008 156.8 199.983 157.524L202.289 160.792ZM203.43 160.414H205.476V156.414H203.43V160.414ZM205.476 160.414C206.031 160.414 206.461 160.593 206.878 161.031L209.778 158.276C208.624 157.062 207.154 156.414 205.476 156.414V160.414ZM206.914 161.068C207.322 161.476 207.506 161.918 207.506 162.506H211.506C211.506 160.862 210.905 159.402 209.742 158.24L206.914 161.068ZM207.506 162.506V199.52H211.506V162.506H207.506ZM207.506 199.52C207.506 199.795 207.434 199.941 207.286 200.09L210.114 202.918C211.04 201.992 211.506 200.816 211.506 199.52H207.506ZM207.286 200.09C207.137 200.238 206.991 200.31 206.716 200.31V204.31C208.012 204.31 209.188 203.844 210.114 202.918L207.286 200.09ZM206.716 200.31C206.439 200.31 206.242 200.234 206.031 200.038L203.309 202.97C204.256 203.848 205.423 204.31 206.716 204.31V200.31ZM206.084 200.09C205.936 199.941 205.864 199.795 205.864 199.52H201.864C201.864 200.816 202.33 201.992 203.256 202.918L206.084 200.09ZM205.864 199.52V164.304H201.864V199.52H205.864ZM202.01 163.554L187.688 198.956L191.396 200.456L205.718 165.054L202.01 163.554ZM187.699 198.93C187.528 199.335 187.255 199.674 186.821 199.964L189.039 203.292C190.093 202.59 190.895 201.647 191.385 200.482L187.699 198.93ZM186.844 199.949C186.477 200.186 186.072 200.31 185.574 200.31V204.31C186.813 204.31 187.978 203.979 189.017 203.307L186.844 199.949ZM185.574 200.31C185.076 200.31 184.63 200.185 184.199 199.921L182.113 203.335C183.17 203.98 184.336 204.31 185.574 204.31V200.31ZM184.309 199.994C183.909 199.712 183.633 199.367 183.449 198.93L179.763 200.482C180.24 201.616 180.997 202.552 182.003 203.262L184.309 199.994ZM183.46 198.956L169.138 163.554L165.43 165.054L179.752 200.456L183.46 198.956ZM165.284 164.304V199.52H169.284V164.304H165.284ZM165.284 199.52C165.284 199.746 165.229 199.877 165.055 200.038L167.777 202.97C168.761 202.056 169.284 200.865 169.284 199.52H165.284ZM165.002 200.09C164.853 200.238 164.707 200.31 164.432 200.31V204.31C165.728 204.31 166.904 203.844 167.83 202.918L165.002 200.09ZM226.979 200.884L225.527 202.259L225.564 202.299L225.603 202.336L226.979 200.884ZM226.669 159.282L228.083 160.696L228.109 160.67L228.135 160.643L226.669 159.282ZM230.637 159.282L229.171 160.643L229.222 160.697L229.276 160.748L230.637 159.282ZM231.505 196.358H229.505V198.358H231.505V196.358ZM253.763 197.226L252.297 198.587L252.348 198.641L252.402 198.692L253.763 197.226ZM253.763 201.194L252.402 199.728L252.375 199.754L252.349 199.78L253.763 201.194ZM229.769 200C229.21 200 228.771 199.827 228.354 199.432L225.603 202.336C226.758 203.429 228.179 204 229.769 204V200ZM228.431 199.509C228.036 199.092 227.863 198.653 227.863 198.094H223.863C223.863 199.684 224.434 201.105 225.527 202.259L228.431 199.509ZM227.863 198.094V161.266H223.863V198.094H227.863ZM227.863 161.266C227.863 160.991 227.935 160.845 228.083 160.696L225.255 157.868C224.329 158.794 223.863 159.97 223.863 161.266H227.863ZM228.135 160.643C228.296 160.469 228.427 160.414 228.653 160.414V156.414C227.308 156.414 226.117 156.937 225.203 157.921L228.135 160.643ZM228.653 160.414C228.879 160.414 229.01 160.469 229.171 160.643L232.103 157.921C231.189 156.937 229.998 156.414 228.653 156.414V160.414ZM229.276 160.748C229.45 160.909 229.505 161.04 229.505 161.266H233.505C233.505 159.921 232.981 158.73 231.998 157.816L229.276 160.748ZM229.505 161.266V196.358H233.505V161.266H229.505ZM231.505 198.358H251.779V194.358H231.505V198.358ZM251.779 198.358C252.005 198.358 252.136 198.413 252.297 198.587L255.229 195.865C254.315 194.881 253.124 194.358 251.779 194.358V198.358ZM252.402 198.692C252.576 198.853 252.631 198.984 252.631 199.21H256.631C256.631 197.865 256.107 196.674 255.124 195.76L252.402 198.692ZM252.631 199.21C252.631 199.436 252.576 199.567 252.402 199.728L255.124 202.66C256.107 201.746 256.631 200.555 256.631 199.21H252.631ZM252.349 199.78C252.2 199.928 252.054 200 251.779 200V204C253.075 204 254.251 203.534 255.177 202.608L252.349 199.78ZM251.779 200H229.769V204H251.779V200Z" fill="white"/>
<g filter="url(#filter1_d_204_914)">
<path d="M272 102H192C179.85 102 170 92.1503 170 80V0L272 102Z" fill="url(#paint2_linear_204_914)"/>
</g>
</g>
<defs>
<filter id="filter0_f_204_914" x="9" y="110" width="256" height="162" filterUnits="userSpaceOnUse" color-interpolation-filters="sRGB">
<feFlood flood-opacity="0" result="BackgroundImageFix"/>
<feBlend mode="normal" in="SourceGraphic" in2="BackgroundImageFix" result="shape"/>
<feGaussianBlur stdDeviation="19.5" result="effect1_foregroundBlur_204_914"/>
</filter>
<filter id="filter1_d_204_914" x="147" y="-24" width="152" height="152" filterUnits="userSpaceOnUse" color-interpolation-filters="sRGB">
<feFlood flood-opacity="0" result="BackgroundImageFix"/>
<feColorMatrix in="SourceAlpha" type="matrix" values="0 0 0 0 0 0 0 0 0 0 0 0 0 0 0 0 0 0 127 0" result="hardAlpha"/>
<feOffset dx="2" dy="1"/>
<feGaussianBlur stdDeviation="12.5"/>
<feColorMatrix type="matrix" values="0 0 0 0 0 0 0 0 0 0 0 0 0 0 0 0 0 0 0.33 0"/>
<feBlend mode="normal" in2="BackgroundImageFix" result="effect1_dropShadow_204_914"/>
<feBlend mode="normal" in="SourceGraphic" in2="effect1_dropShadow_204_914" result="shape"/>
</filter>
<linearGradient id="paint0_linear_204_914" x1="136" y1="0" x2="136" y2="308" gradientUnits="userSpaceOnUse">
<stop stop-color="#FF7979"/>
<stop offset="1" stop-color="#E85555"/>
</linearGradient>
<linearGradient id="paint1_linear_204_914" x1="136" y1="0" x2="136" y2="308" gradientUnits="userSpaceOnUse">
<stop offset="0.000265127" stop-color="#83CC70"/>
<stop offset="1" stop-color="#61A850"/>
</linearGradient>
<linearGradient id="paint2_linear_204_914" x1="221" y1="0" x2="221" y2="102" gradientUnits="userSpaceOnUse">
<stop stop-color="#3FAF43"/>
<stop offset="1" stop-color="#0E8312"/>
</linearGradient>
</defs>
</svg>
