<svg width="272" height="308" viewBox="0 0 272 308" fill="none" xmlns="http://www.w3.org/2000/svg">
<mask id="mask0_204_1009" style="mask-type:alpha" maskUnits="userSpaceOnUse" x="0" y="0" width="272" height="308">
<path d="M250 308H22C9.84974 308 0 298.15 0 286V22C0 9.84974 9.84974 0 22 0H170L272 102V286C272 298.15 262.15 308 250 308Z" fill="url(#paint0_linear_204_1009)"/>
</mask>
<g mask="url(#mask0_204_1009)">
<path d="M250 308H22C9.84974 308 0 298.15 0 286V22C0 9.84974 9.84974 0 22 0H170L272 102V286C272 298.15 262.15 308 250 308Z" fill="url(#paint1_linear_204_1009)"/>
<path d="M56.4743 202.31C55.7717 202.31 55.1517 202.062 54.6143 201.566C54.1183 201.029 53.8703 200.409 53.8703 199.706C53.8703 199.045 54.0563 198.466 54.4283 197.97L68.7503 180.362L54.5523 162.878C54.1803 162.382 53.9943 161.803 53.9943 161.142C53.9943 160.357 54.2423 159.716 54.7383 159.22C55.2757 158.683 55.937 158.414 56.7223 158.414C57.177 158.414 57.611 158.517 58.0243 158.724C58.4377 158.931 58.7683 159.199 59.0163 159.53L72.0983 176.146L85.1803 159.406C85.635 158.745 86.317 158.414 87.2263 158.414C87.9703 158.414 88.611 158.683 89.1483 159.22C89.6857 159.716 89.9543 160.336 89.9543 161.08C89.9543 161.659 89.789 162.175 89.4583 162.63L75.1363 180.3L89.4583 197.908C89.8303 198.321 90.0163 198.859 90.0163 199.52C90.0163 200.305 89.7477 200.967 89.2103 201.504C88.7143 202.041 88.053 202.31 87.2263 202.31C86.317 202.31 85.573 201.917 84.9943 201.132L71.7263 184.454L58.6443 201.194C58.0243 201.938 57.301 202.31 56.4743 202.31ZM106.998 202C105.923 202 104.993 201.628 104.208 200.884C103.464 200.099 103.092 199.169 103.092 198.094V161.266C103.092 160.481 103.361 159.819 103.898 159.282C104.435 158.703 105.097 158.414 105.882 158.414C106.667 158.414 107.329 158.703 107.866 159.282C108.445 159.819 108.734 160.481 108.734 161.266V196.358H129.008C129.793 196.358 130.455 196.647 130.992 197.226C131.571 197.763 131.86 198.425 131.86 199.21C131.86 199.995 131.571 200.657 130.992 201.194C130.455 201.731 129.793 202 129.008 202H106.998ZM156.795 202.62C151.545 202.62 146.627 201.628 142.039 199.644C141.543 199.437 141.129 199.107 140.799 198.652C140.468 198.156 140.303 197.639 140.303 197.102C140.303 196.399 140.53 195.8 140.985 195.304C141.481 194.767 142.101 194.498 142.845 194.498C143.258 194.498 143.651 194.581 144.023 194.746C147.825 196.441 151.897 197.288 156.237 197.288C163.47 197.288 167.087 194.911 167.087 190.158C167.087 188.918 166.611 187.885 165.661 187.058C164.751 186.231 163.615 185.591 162.251 185.136C160.887 184.64 158.944 184.061 156.423 183.4C153.075 182.532 150.367 181.705 148.301 180.92C146.234 180.093 144.457 178.874 142.969 177.262C141.481 175.65 140.737 173.501 140.737 170.814C140.737 168.458 141.357 166.329 142.597 164.428C143.837 162.485 145.655 160.956 148.053 159.84C150.491 158.683 153.405 158.104 156.795 158.104C161.341 158.104 165.454 158.786 169.133 160.15C170.29 160.563 170.869 161.39 170.869 162.63C170.869 163.291 170.641 163.891 170.187 164.428C169.732 164.965 169.133 165.234 168.389 165.234C168.141 165.234 167.81 165.151 167.397 164.986C164.173 163.87 160.845 163.312 157.415 163.312C154.149 163.312 151.483 163.932 149.417 165.172C147.391 166.412 146.379 168.148 146.379 170.38C146.379 171.868 146.854 173.087 147.805 174.038C148.797 174.947 150.016 175.671 151.463 176.208C152.951 176.704 154.955 177.241 157.477 177.82C160.742 178.605 163.367 179.391 165.351 180.176C167.376 180.961 169.091 182.181 170.497 183.834C171.943 185.487 172.667 187.719 172.667 190.53C172.667 192.845 172.005 194.932 170.683 196.792C169.36 198.611 167.5 200.037 165.103 201.07C162.705 202.103 159.936 202.62 156.795 202.62ZM184.594 202.31C183.891 202.31 183.271 202.062 182.734 201.566C182.238 201.029 181.99 200.409 181.99 199.706C181.99 199.045 182.176 198.466 182.548 197.97L196.87 180.362L182.672 162.878C182.3 162.382 182.114 161.803 182.114 161.142C182.114 160.357 182.362 159.716 182.858 159.22C183.395 158.683 184.057 158.414 184.842 158.414C185.297 158.414 185.731 158.517 186.144 158.724C186.557 158.931 186.888 159.199 187.136 159.53L200.218 176.146L213.3 159.406C213.755 158.745 214.437 158.414 215.346 158.414C216.09 158.414 216.731 158.683 217.268 159.22C217.805 159.716 218.074 160.336 218.074 161.08C218.074 161.659 217.909 162.175 217.578 162.63L203.256 180.3L217.578 197.908C217.95 198.321 218.136 198.859 218.136 199.52C218.136 200.305 217.867 200.967 217.33 201.504C216.834 202.041 216.173 202.31 215.346 202.31C214.437 202.31 213.693 201.917 213.114 201.132L199.846 184.454L186.764 201.194C186.144 201.938 185.421 202.31 184.594 202.31Z" fill="white"/>
<path d="M54.6143 201.566L53.1447 202.923L53.199 202.981L53.2578 203.036L54.6143 201.566ZM54.4283 197.97L52.8768 196.708L52.852 196.739L52.8283 196.77L54.4283 197.97ZM68.7503 180.362L70.3019 181.624L71.3276 180.363L70.3029 179.101L68.7503 180.362ZM54.5523 162.878L52.9523 164.078L52.9755 164.109L52.9998 164.139L54.5523 162.878ZM54.7383 159.22L53.3241 157.806L53.3241 157.806L54.7383 159.22ZM58.0243 158.724L58.9188 156.935L58.0243 158.724ZM59.0163 159.53L57.4163 160.73L57.4304 160.749L57.4449 160.767L59.0163 159.53ZM72.0983 176.146L70.5269 177.383L72.1042 179.387L73.6742 177.378L72.0983 176.146ZM85.1803 159.406L86.7562 160.638L86.7938 160.589L86.8284 160.539L85.1803 159.406ZM89.1483 159.22L87.7341 160.634L87.7624 160.662L87.7918 160.69L89.1483 159.22ZM89.4583 162.63L91.0121 163.889L91.045 163.849L91.0758 163.806L89.4583 162.63ZM75.1363 180.3L73.5826 179.041L72.5601 180.302L73.5848 181.562L75.1363 180.3ZM89.4583 197.908L87.9068 199.17L87.9383 199.209L87.9718 199.246L89.4583 197.908ZM89.2103 201.504L87.7961 200.09L87.7679 200.118L87.7407 200.147L89.2103 201.504ZM84.9943 201.132L86.6045 199.946L86.5825 199.916L86.5595 199.887L84.9943 201.132ZM71.7263 184.454L73.2915 183.209L71.7123 181.224L70.1505 183.222L71.7263 184.454ZM58.6443 201.194L60.1808 202.474L60.2009 202.45L60.2202 202.426L58.6443 201.194ZM56.4743 200.31C56.2966 200.31 56.1554 200.267 55.9709 200.096L53.2578 203.036C54.148 203.857 55.2468 204.31 56.4743 204.31V200.31ZM56.084 200.209C55.9137 200.025 55.8703 199.884 55.8703 199.706H51.8703C51.8703 200.934 52.323 202.032 53.1447 202.923L56.084 200.209ZM55.8703 199.706C55.8703 199.447 55.9338 199.296 56.0283 199.17L52.8283 196.77C52.1789 197.636 51.8703 198.643 51.8703 199.706H55.8703ZM55.9799 199.232L70.3019 181.624L67.1988 179.1L52.8768 196.708L55.9799 199.232ZM70.3029 179.101L56.1049 161.617L52.9998 164.139L67.1978 181.623L70.3029 179.101ZM56.1523 161.678C56.0578 161.552 55.9943 161.401 55.9943 161.142H51.9943C51.9943 162.205 52.3029 163.212 52.9523 164.078L56.1523 161.678ZM55.9943 161.142C55.9943 160.818 56.078 160.709 56.1526 160.634L53.3241 157.806C52.4067 158.723 51.9943 159.896 51.9943 161.142H55.9943ZM56.1526 160.634C56.301 160.486 56.4476 160.414 56.7223 160.414V156.414C55.4264 156.414 54.2503 156.88 53.3241 157.806L56.1526 160.634ZM56.7223 160.414C56.8613 160.414 56.9896 160.443 57.1299 160.513L58.9188 156.935C58.2324 156.592 57.4927 156.414 56.7223 156.414V160.414ZM57.1299 160.513C57.2987 160.597 57.3757 160.676 57.4163 160.73L60.6163 158.33C60.161 157.723 59.5767 157.264 58.9188 156.935L57.1299 160.513ZM57.4449 160.767L70.5269 177.383L73.6698 174.909L60.5878 158.293L57.4449 160.767ZM73.6742 177.378L86.7562 160.638L83.6045 158.174L70.5225 174.914L73.6742 177.378ZM86.8284 160.539C86.8532 160.503 86.871 160.486 86.879 160.479C86.8866 160.472 86.894 160.467 86.9054 160.462C86.9254 160.452 87.0143 160.414 87.2263 160.414V156.414C85.7603 156.414 84.4143 156.99 83.5323 158.273L86.8284 160.539ZM87.2263 160.414C87.4273 160.414 87.5629 160.463 87.7341 160.634L90.5626 157.806C89.6591 156.902 88.5134 156.414 87.2263 156.414V160.414ZM87.7918 160.69C87.9109 160.8 87.9543 160.883 87.9543 161.08H91.9543C91.9543 159.789 91.4605 158.632 90.5049 157.75L87.7918 160.69ZM87.9543 161.08C87.9543 161.249 87.9152 161.351 87.8409 161.454L91.0758 163.806C91.6628 162.999 91.9543 162.068 91.9543 161.08H87.9543ZM87.9046 161.371L73.5826 179.041L76.6901 181.559L91.0121 163.889L87.9046 161.371ZM73.5848 181.562L87.9068 199.17L91.0099 196.646L76.6879 179.038L73.5848 181.562ZM87.9718 199.246C87.9749 199.249 87.9793 199.253 87.9869 199.275C87.9962 199.302 88.0163 199.376 88.0163 199.52H92.0163C92.0163 198.463 91.7081 197.418 90.9449 196.57L87.9718 199.246ZM88.0163 199.52C88.0163 199.795 87.9446 199.941 87.7961 200.09L90.6246 202.918C91.5508 201.992 92.0163 200.816 92.0163 199.52H88.0163ZM87.7407 200.147C87.6747 200.219 87.5752 200.31 87.2263 200.31V204.31C88.5308 204.31 89.754 203.864 90.68 202.861L87.7407 200.147ZM87.2263 200.31C87.0046 200.31 86.8381 200.263 86.6045 199.946L83.3842 202.318C84.3079 203.572 85.6295 204.31 87.2263 204.31V200.31ZM86.5595 199.887L73.2915 183.209L70.1612 185.699L83.4292 202.377L86.5595 199.887ZM70.1505 183.222L57.0685 199.962L60.2202 202.426L73.3022 185.686L70.1505 183.222ZM57.1079 199.914C56.7954 200.289 56.6029 200.31 56.4743 200.31V204.31C57.9991 204.31 59.2533 203.587 60.1808 202.474L57.1079 199.914ZM104.208 200.884L102.756 202.259L102.793 202.299L102.833 202.336L104.208 200.884ZM103.898 159.282L105.312 160.696L105.338 160.67L105.364 160.643L103.898 159.282ZM107.866 159.282L106.4 160.643L106.451 160.697L106.505 160.748L107.866 159.282ZM108.734 196.358H106.734V198.358H108.734V196.358ZM130.992 197.226L129.526 198.587L129.577 198.641L129.631 198.692L130.992 197.226ZM130.992 201.194L129.631 199.728L129.604 199.754L129.578 199.78L130.992 201.194ZM106.998 200C106.439 200 106 199.827 105.584 199.432L102.833 202.336C103.987 203.429 105.408 204 106.998 204V200ZM105.66 199.509C105.265 199.092 105.092 198.653 105.092 198.094H101.092C101.092 199.684 101.663 201.105 102.756 202.259L105.66 199.509ZM105.092 198.094V161.266H101.092V198.094H105.092ZM105.092 161.266C105.092 160.991 105.164 160.845 105.312 160.696L102.484 157.868C101.558 158.794 101.092 159.97 101.092 161.266H105.092ZM105.364 160.643C105.525 160.469 105.656 160.414 105.882 160.414V156.414C104.537 156.414 103.346 156.937 102.432 157.921L105.364 160.643ZM105.882 160.414C106.108 160.414 106.239 160.469 106.4 160.643L109.332 157.921C108.418 156.937 107.227 156.414 105.882 156.414V160.414ZM106.505 160.748C106.679 160.909 106.734 161.04 106.734 161.266H110.734C110.734 159.921 110.211 158.73 109.227 157.816L106.505 160.748ZM106.734 161.266V196.358H110.734V161.266H106.734ZM108.734 198.358H129.008V194.358H108.734V198.358ZM129.008 198.358C129.234 198.358 129.365 198.413 129.526 198.587L132.458 195.865C131.544 194.881 130.353 194.358 129.008 194.358V198.358ZM129.631 198.692C129.805 198.853 129.86 198.984 129.86 199.21H133.86C133.86 197.865 133.337 196.674 132.353 195.76L129.631 198.692ZM129.86 199.21C129.86 199.436 129.805 199.567 129.631 199.728L132.353 202.66C133.337 201.746 133.86 200.555 133.86 199.21H129.86ZM129.578 199.78C129.429 199.928 129.283 200 129.008 200V204C130.304 204 131.48 203.534 132.406 202.608L129.578 199.78ZM129.008 200H106.998V204H129.008V200ZM142.039 199.644L142.833 197.808L142.82 197.803L142.808 197.798L142.039 199.644ZM140.799 198.652L139.135 199.761L139.157 199.795L139.181 199.828L140.799 198.652ZM140.985 195.304L139.515 193.947L139.51 193.953L140.985 195.304ZM144.023 194.746L144.837 192.919L144.835 192.918L144.023 194.746ZM165.661 187.058L164.315 188.538L164.332 188.553L164.348 188.567L165.661 187.058ZM162.251 185.136L161.567 187.016L161.593 187.025L161.618 187.033L162.251 185.136ZM156.423 183.4L156.93 181.465L156.925 181.464L156.423 183.4ZM148.301 180.92L147.558 182.777L147.574 182.783L147.59 182.79L148.301 180.92ZM142.969 177.262L141.499 178.619L142.969 177.262ZM142.597 164.428L144.272 165.521L144.277 165.512L144.283 165.504L142.597 164.428ZM148.053 159.84L148.897 161.653L148.903 161.65L148.91 161.647L148.053 159.84ZM169.133 160.15L168.437 162.025L168.449 162.029L168.46 162.033L169.133 160.15ZM170.187 164.428L171.713 165.72L171.713 165.72L170.187 164.428ZM167.397 164.986L168.139 163.129L168.096 163.111L168.051 163.096L167.397 164.986ZM149.417 165.172L148.388 163.457L148.38 163.462L148.372 163.466L149.417 165.172ZM147.805 174.038L146.39 175.452L146.421 175.483L146.453 175.512L147.805 174.038ZM151.463 176.208L150.766 178.083L150.798 178.095L150.83 178.105L151.463 176.208ZM157.477 177.82L157.944 175.875L157.934 175.873L157.924 175.871L157.477 177.82ZM165.351 180.176L164.615 182.036L164.628 182.041L165.351 180.176ZM170.497 183.834L168.973 185.129L168.982 185.14L168.992 185.151L170.497 183.834ZM170.683 196.792L172.3 197.968L172.306 197.96L172.313 197.951L170.683 196.792ZM165.103 201.07L165.894 202.907L165.103 201.07ZM156.795 200.62C151.804 200.62 147.157 199.679 142.833 197.808L141.245 201.48C146.096 203.577 151.286 204.62 156.795 204.62V200.62ZM142.808 197.798C142.667 197.739 142.541 197.648 142.416 197.476L139.181 199.828C139.717 200.566 140.419 201.136 141.269 201.49L142.808 197.798ZM142.463 197.543C142.326 197.338 142.303 197.202 142.303 197.102H138.303C138.303 198.077 138.61 198.974 139.135 199.761L142.463 197.543ZM142.303 197.102C142.303 196.875 142.359 196.765 142.459 196.655L139.51 193.953C138.701 194.835 138.303 195.923 138.303 197.102H142.303ZM142.454 196.661C142.564 196.541 142.648 196.498 142.845 196.498V192.498C141.554 192.498 140.397 192.992 139.515 193.947L142.454 196.661ZM142.845 196.498C142.983 196.498 143.098 196.524 143.21 196.574L144.835 192.918C144.203 192.638 143.533 192.498 142.845 192.498V196.498ZM143.209 196.573C147.278 198.387 151.628 199.288 156.237 199.288V195.288C152.165 195.288 148.372 194.495 144.837 192.919L143.209 196.573ZM156.237 199.288C160.009 199.288 163.186 198.68 165.473 197.177C167.906 195.578 169.087 193.13 169.087 190.158H165.087C165.087 191.94 164.459 193.057 163.276 193.834C161.946 194.708 159.698 195.288 156.237 195.288V199.288ZM169.087 190.158C169.087 188.329 168.353 186.748 166.973 185.549L164.348 188.567C164.87 189.021 165.087 189.507 165.087 190.158H169.087ZM167.006 185.578C165.859 184.535 164.467 183.767 162.883 183.239L161.618 187.033C162.763 187.415 163.644 187.928 164.315 188.538L167.006 185.578ZM162.934 183.256C161.484 182.729 159.472 182.132 156.93 181.465L155.915 185.335C158.416 185.99 160.289 186.551 161.567 187.016L162.934 183.256ZM156.925 181.464C153.613 180.605 150.983 179.8 149.011 179.05L147.59 182.79C149.752 183.611 152.537 184.459 155.921 185.336L156.925 181.464ZM149.043 179.063C147.249 178.345 145.721 177.295 144.438 175.905L141.499 178.619C143.192 180.453 145.219 181.841 147.558 182.777L149.043 179.063ZM144.438 175.905C143.364 174.742 142.737 173.117 142.737 170.814H138.737C138.737 173.885 139.597 176.558 141.499 178.619L144.438 175.905ZM142.737 170.814C142.737 168.83 143.252 167.084 144.272 165.521L140.921 163.335C139.461 165.575 138.737 168.086 138.737 170.814H142.737ZM144.283 165.504C145.289 163.927 146.792 162.633 148.897 161.653L147.209 158.027C144.518 159.279 142.384 161.043 140.911 163.352L144.283 165.504ZM148.91 161.647C151.021 160.645 153.628 160.104 156.795 160.104V156.104C153.182 156.104 149.961 156.72 147.195 158.033L148.91 161.647ZM156.795 160.104C161.141 160.104 165.014 160.756 168.437 162.025L169.828 158.275C165.895 156.816 161.542 156.104 156.795 156.104V160.104ZM168.46 162.033C168.735 162.132 168.792 162.222 168.796 162.227C168.801 162.234 168.869 162.325 168.869 162.63H172.869C172.869 161.695 172.647 160.753 172.073 159.933C171.498 159.112 170.688 158.582 169.805 158.267L168.46 162.033ZM168.869 162.63C168.869 162.786 168.83 162.935 168.66 163.136L171.713 165.72C172.452 164.847 172.869 163.796 172.869 162.63H168.869ZM168.66 163.136C168.612 163.193 168.585 163.204 168.578 163.207C168.568 163.212 168.516 163.234 168.389 163.234V167.234C169.683 167.234 170.855 166.735 171.713 165.72L168.66 163.136ZM168.389 163.234C168.476 163.234 168.501 163.247 168.44 163.232C168.384 163.218 168.286 163.188 168.139 163.129L166.654 166.843C167.146 167.04 167.759 167.234 168.389 167.234V163.234ZM168.051 163.096C164.615 161.907 161.067 161.312 157.415 161.312V165.312C160.624 165.312 163.73 165.833 166.742 166.876L168.051 163.096ZM157.415 161.312C153.911 161.312 150.857 161.976 148.388 163.457L150.446 166.887C152.11 165.888 154.388 165.312 157.415 165.312V161.312ZM148.372 163.466C145.799 165.042 144.379 167.4 144.379 170.38H148.379C148.379 168.896 148.983 167.782 150.461 166.878L148.372 163.466ZM144.379 170.38C144.379 172.336 145.023 174.085 146.39 175.452L149.219 172.624C148.685 172.09 148.379 171.4 148.379 170.38H144.379ZM146.453 175.512C147.662 176.62 149.113 177.469 150.766 178.083L152.159 174.333C150.919 173.873 149.932 173.275 149.156 172.564L146.453 175.512ZM150.83 178.105C152.405 178.63 154.48 179.184 157.029 179.769L157.924 175.871C155.431 175.298 153.496 174.778 152.095 174.311L150.83 178.105ZM157.009 179.765C160.228 180.539 162.753 181.299 164.615 182.036L166.087 178.316C163.981 177.483 161.256 176.672 157.944 175.875L157.009 179.765ZM164.628 182.041C166.343 182.706 167.783 183.73 168.973 185.129L172.021 182.539C170.4 180.632 168.409 179.217 166.074 178.311L164.628 182.041ZM168.992 185.151C170.038 186.347 170.667 188.065 170.667 190.53H174.667C174.667 187.374 173.849 184.627 172.002 182.517L168.992 185.151ZM170.667 190.53C170.667 192.436 170.131 194.117 169.053 195.633L172.313 197.951C173.88 195.747 174.667 193.254 174.667 190.53H170.667ZM169.065 195.616C167.986 197.1 166.433 198.319 164.311 199.233L165.894 202.907C168.567 201.754 170.735 200.121 172.3 197.968L169.065 195.616ZM164.311 199.233C162.209 200.139 159.718 200.62 156.795 200.62V204.62C160.154 204.62 163.202 204.067 165.894 202.907L164.311 199.233ZM182.734 201.566L181.264 202.923L181.319 202.981L181.377 203.036L182.734 201.566ZM182.548 197.97L180.996 196.708L180.972 196.739L180.948 196.77L182.548 197.97ZM196.87 180.362L198.422 181.624L199.447 180.363L198.423 179.101L196.87 180.362ZM182.672 162.878L181.072 164.078L181.095 164.109L181.119 164.139L182.672 162.878ZM182.858 159.22L181.444 157.806L181.444 157.806L182.858 159.22ZM186.144 158.724L187.038 156.935L186.144 158.724ZM187.136 159.53L185.536 160.73L185.55 160.749L185.565 160.767L187.136 159.53ZM200.218 176.146L198.647 177.383L200.224 179.387L201.794 177.378L200.218 176.146ZM213.3 159.406L214.876 160.638L214.913 160.589L214.948 160.539L213.3 159.406ZM217.268 159.22L215.854 160.634L215.882 160.662L215.911 160.69L217.268 159.22ZM217.578 162.63L219.132 163.889L219.165 163.849L219.195 163.806L217.578 162.63ZM203.256 180.3L201.702 179.041L200.68 180.302L201.704 181.562L203.256 180.3ZM217.578 197.908L216.026 199.17L216.058 199.209L216.091 199.246L217.578 197.908ZM217.33 201.504L215.916 200.09L215.887 200.118L215.86 200.147L217.33 201.504ZM213.114 201.132L214.724 199.946L214.702 199.916L214.679 199.887L213.114 201.132ZM199.846 184.454L201.411 183.209L199.832 181.224L198.27 183.222L199.846 184.454ZM186.764 201.194L188.3 202.474L188.321 202.45L188.34 202.426L186.764 201.194ZM184.594 200.31C184.416 200.31 184.275 200.267 184.091 200.096L181.377 203.036C182.268 203.857 183.366 204.31 184.594 204.31V200.31ZM184.204 200.209C184.033 200.025 183.99 199.884 183.99 199.706H179.99C179.99 200.934 180.443 202.032 181.264 202.923L184.204 200.209ZM183.99 199.706C183.99 199.447 184.053 199.296 184.148 199.17L180.948 196.77C180.298 197.636 179.99 198.643 179.99 199.706H183.99ZM184.1 199.232L198.422 181.624L195.318 179.1L180.996 196.708L184.1 199.232ZM198.423 179.101L184.225 161.617L181.119 164.139L195.317 181.623L198.423 179.101ZM184.272 161.678C184.177 161.552 184.114 161.401 184.114 161.142H180.114C180.114 162.205 180.422 163.212 181.072 164.078L184.272 161.678ZM184.114 161.142C184.114 160.818 184.198 160.709 184.272 160.634L181.444 157.806C180.526 158.723 180.114 159.896 180.114 161.142H184.114ZM184.272 160.634C184.421 160.486 184.567 160.414 184.842 160.414V156.414C183.546 156.414 182.37 156.88 181.444 157.806L184.272 160.634ZM184.842 160.414C184.981 160.414 185.109 160.443 185.25 160.513L187.038 156.935C186.352 156.592 185.612 156.414 184.842 156.414V160.414ZM185.25 160.513C185.418 160.597 185.495 160.676 185.536 160.73L188.736 158.33C188.281 157.723 187.696 157.264 187.038 156.935L185.25 160.513ZM185.565 160.767L198.647 177.383L201.789 174.909L188.707 158.293L185.565 160.767ZM201.794 177.378L214.876 160.638L211.724 158.174L198.642 174.914L201.794 177.378ZM214.948 160.539C214.973 160.503 214.991 160.486 214.999 160.479C215.006 160.472 215.014 160.467 215.025 160.462C215.045 160.452 215.134 160.414 215.346 160.414V156.414C213.88 156.414 212.534 156.99 211.652 158.273L214.948 160.539ZM215.346 160.414C215.547 160.414 215.683 160.463 215.854 160.634L218.682 157.806C217.779 156.902 216.633 156.414 215.346 156.414V160.414ZM215.911 160.69C216.031 160.8 216.074 160.883 216.074 161.08H220.074C220.074 159.789 219.58 158.632 218.625 157.75L215.911 160.69ZM216.074 161.08C216.074 161.249 216.035 161.351 215.96 161.454L219.195 163.806C219.782 162.999 220.074 162.068 220.074 161.08H216.074ZM216.024 161.371L201.702 179.041L204.81 181.559L219.132 163.889L216.024 161.371ZM201.704 181.562L216.026 199.17L219.13 196.646L204.808 179.038L201.704 181.562ZM216.091 199.246C216.094 199.249 216.099 199.253 216.106 199.275C216.116 199.302 216.136 199.376 216.136 199.52H220.136C220.136 198.463 219.828 197.418 219.065 196.57L216.091 199.246ZM216.136 199.52C216.136 199.795 216.064 199.941 215.916 200.09L218.744 202.918C219.67 201.992 220.136 200.816 220.136 199.52H216.136ZM215.86 200.147C215.794 200.219 215.695 200.31 215.346 200.31V204.31C216.65 204.31 217.874 203.864 218.8 202.861L215.86 200.147ZM215.346 200.31C215.124 200.31 214.958 200.263 214.724 199.946L211.504 202.318C212.428 203.572 213.749 204.31 215.346 204.31V200.31ZM214.679 199.887L201.411 183.209L198.281 185.699L211.549 202.377L214.679 199.887ZM198.27 183.222L185.188 199.962L188.34 202.426L201.422 185.686L198.27 183.222ZM185.228 199.914C184.915 200.289 184.722 200.31 184.594 200.31V204.31C186.119 204.31 187.373 203.587 188.3 202.474L185.228 199.914Z" fill="white"/>
<g filter="url(#filter0_d_204_1009)">
<path d="M272 102H192C179.85 102 170 92.1503 170 80V0L272 102Z" fill="url(#paint2_linear_204_1009)"/>
</g>
</g>
<defs>
<filter id="filter0_d_204_1009" x="147" y="-24" width="152" height="152" filterUnits="userSpaceOnUse" color-interpolation-filters="sRGB">
<feFlood flood-opacity="0" result="BackgroundImageFix"/>
<feColorMatrix in="SourceAlpha" type="matrix" values="0 0 0 0 0 0 0 0 0 0 0 0 0 0 0 0 0 0 127 0" result="hardAlpha"/>
<feOffset dx="2" dy="1"/>
<feGaussianBlur stdDeviation="12.5"/>
<feColorMatrix type="matrix" values="0 0 0 0 0 0 0 0 0 0 0 0 0 0 0 0 0 0 0.33 0"/>
<feBlend mode="normal" in2="BackgroundImageFix" result="effect1_dropShadow_204_1009"/>
<feBlend mode="normal" in="SourceGraphic" in2="effect1_dropShadow_204_1009" result="shape"/>
</filter>
<linearGradient id="paint0_linear_204_1009" x1="136" y1="0" x2="136" y2="308" gradientUnits="userSpaceOnUse">
<stop stop-color="#FF7979"/>
<stop offset="1" stop-color="#E85555"/>
</linearGradient>
<linearGradient id="paint1_linear_204_1009" x1="136" y1="0" x2="136" y2="308" gradientUnits="userSpaceOnUse">
<stop stop-color="#FF7981"/>
<stop offset="1" stop-color="#E85567"/>
</linearGradient>
<linearGradient id="paint2_linear_204_1009" x1="221" y1="0" x2="221" y2="102" gradientUnits="userSpaceOnUse">
<stop stop-color="#D03954"/>
<stop offset="1" stop-color="#C02A3C"/>
</linearGradient>
</defs>
</svg>
