<svg width="272" height="308" viewBox="0 0 272 308" fill="none" xmlns="http://www.w3.org/2000/svg">
<mask id="mask0_204_1022" style="mask-type:alpha" maskUnits="userSpaceOnUse" x="0" y="0" width="272" height="308">
<path d="M250 308H22C9.84974 308 0 298.15 0 286V22C0 9.84974 9.84974 0 22 0H170L272 102V286C272 298.15 262.15 308 250 308Z" fill="url(#paint0_linear_204_1022)"/>
</mask>
<g mask="url(#mask0_204_1022)">
<path d="M250 308H22C9.84974 308 0 298.15 0 286V22C0 9.84974 9.84974 0 22 0H170L272 102V286C272 298.15 262.15 308 250 308Z" fill="url(#paint1_linear_204_1022)"/>
<g opacity="0.26" filter="url(#filter0_f_204_1022)">
<rect x="48" y="149" width="178" height="84" fill="#E66000" style="mix-blend-mode:darken"/>
</g>
<path d="M100.506 217.395C99.4523 217.395 98.5833 217.053 97.8986 216.368C97.2666 215.683 96.9506 214.841 96.9506 213.84C96.9506 213.419 97.0823 212.892 97.3456 212.26L117.491 164.702C117.912 163.754 118.491 162.99 119.229 162.411C120.019 161.779 120.967 161.463 122.073 161.463H122.863C123.969 161.463 124.89 161.779 125.628 162.411C126.418 162.99 127.023 163.754 127.445 164.702L147.59 212.26C147.853 212.892 147.985 213.419 147.985 213.84C147.985 214.841 147.642 215.683 146.958 216.368C146.326 217.053 145.483 217.395 144.43 217.395C143.692 217.395 143.008 217.211 142.376 216.842C141.796 216.421 141.349 215.868 141.033 215.183L135.898 202.859H109.038L103.903 215.183C103.587 215.868 103.113 216.421 102.481 216.842C101.901 217.211 101.243 217.395 100.506 217.395ZM111.803 196.302H133.133L122.468 170.627L111.803 196.302ZM168.69 217.395C167.689 217.395 166.847 217.053 166.162 216.368C165.477 215.683 165.135 214.841 165.135 213.84V165.097C165.135 164.096 165.477 163.254 166.162 162.569C166.847 161.832 167.689 161.463 168.69 161.463C169.691 161.463 170.533 161.832 171.218 162.569C171.955 163.254 172.324 164.096 172.324 165.097V213.84C172.324 214.841 171.955 215.683 171.218 216.368C170.533 217.053 169.691 217.395 168.69 217.395Z" fill="white"/>
<path d="M97.8986 216.368L96.429 217.725L96.4561 217.754L96.4844 217.782L97.8986 216.368ZM97.3456 212.26L95.504 211.48L95.4995 211.491L97.3456 212.26ZM117.491 164.702L115.663 163.89L115.656 163.906L115.649 163.922L117.491 164.702ZM119.229 162.411L120.464 163.984L120.471 163.978L120.478 163.973L119.229 162.411ZM125.628 162.411L124.326 163.93L124.384 163.979L124.445 164.024L125.628 162.411ZM127.445 164.702L129.286 163.922L129.279 163.906L129.272 163.89L127.445 164.702ZM147.59 212.26L149.436 211.491L149.431 211.48L147.59 212.26ZM146.958 216.368L145.543 214.954L145.515 214.982L145.488 215.011L146.958 216.368ZM142.376 216.842L141.199 218.459L141.281 218.519L141.368 218.57L142.376 216.842ZM141.033 215.183L139.186 215.952L139.201 215.987L139.217 216.021L141.033 215.183ZM135.898 202.859L137.744 202.09L137.231 200.859H135.898V202.859ZM109.038 202.859V200.859H107.704L107.191 202.09L109.038 202.859ZM103.903 215.183L105.719 216.021L105.734 215.987L105.749 215.952L103.903 215.183ZM102.481 216.842L103.554 218.529L103.572 218.518L103.59 218.506L102.481 216.842ZM111.803 196.302L109.956 195.535L108.806 198.302H111.803V196.302ZM133.133 196.302V198.302H136.129L134.98 195.535L133.133 196.302ZM122.468 170.627L124.315 169.86L122.468 165.413L120.621 169.86L122.468 170.627ZM100.506 215.395C99.9314 215.395 99.5876 215.229 99.3128 214.954L96.4844 217.782C97.579 218.877 98.9732 219.395 100.506 219.395V215.395ZM99.3682 215.011C99.1038 214.725 98.9506 214.379 98.9506 213.84H94.9506C94.9506 215.303 95.4294 216.642 96.429 217.725L99.3682 215.011ZM98.9506 213.84C98.9506 213.797 98.9743 213.551 99.1918 213.029L95.4995 211.491C95.1903 212.233 94.9506 213.041 94.9506 213.84H98.9506ZM99.1872 213.04L119.332 165.482L115.649 163.922L95.504 211.48L99.1872 213.04ZM119.318 165.514C119.622 164.832 120.01 164.341 120.464 163.984L117.993 160.838C116.973 161.64 116.202 162.676 115.663 163.89L119.318 165.514ZM120.478 163.973C120.88 163.651 121.376 163.463 122.073 163.463V159.463C120.558 159.463 119.158 159.907 117.979 160.849L120.478 163.973ZM122.073 163.463H122.863V159.463H122.073V163.463ZM122.863 163.463C123.562 163.463 124.001 163.651 124.326 163.93L126.929 160.892C125.779 159.907 124.376 159.463 122.863 159.463V163.463ZM124.445 164.024C124.937 164.385 125.329 164.865 125.617 165.514L129.272 163.89C128.718 162.643 127.898 161.596 126.81 160.798L124.445 164.024ZM125.603 165.482L145.748 213.04L149.431 211.48L129.286 163.922L125.603 165.482ZM145.743 213.029C145.961 213.551 145.985 213.797 145.985 213.84H149.985C149.985 213.041 149.745 212.233 149.436 211.491L145.743 213.029ZM145.985 213.84C145.985 214.33 145.839 214.658 145.543 214.954L148.372 217.782C149.445 216.709 149.985 215.351 149.985 213.84H145.985ZM145.488 215.011C145.286 215.23 145.005 215.395 144.43 215.395V219.395C145.961 219.395 147.365 218.875 148.427 217.725L145.488 215.011ZM144.43 215.395C144.044 215.395 143.707 215.303 143.383 215.114L141.368 218.57C142.308 219.118 143.341 219.395 144.43 219.395V215.395ZM143.552 215.225C143.264 215.015 143.029 214.736 142.849 214.345L139.217 216.021C139.668 216.999 140.329 217.827 141.199 218.459L143.552 215.225ZM142.879 214.414L137.744 202.09L134.051 203.628L139.186 215.952L142.879 214.414ZM135.898 200.859H109.038V204.859H135.898V200.859ZM107.191 202.09L102.056 214.414L105.749 215.952L110.884 203.628L107.191 202.09ZM102.087 214.345C101.927 214.692 101.698 214.96 101.371 215.178L103.59 218.506C104.527 217.882 105.247 217.044 105.719 216.021L102.087 214.345ZM101.407 215.155C101.172 215.304 100.892 215.395 100.506 215.395V219.395C101.594 219.395 102.63 219.117 103.554 218.529L101.407 215.155ZM111.803 198.302H133.133V194.302H111.803V198.302ZM134.98 195.535L124.315 169.86L120.621 171.394L131.286 197.069L134.98 195.535ZM120.621 169.86L109.956 195.535L113.65 197.069L124.315 171.394L120.621 169.86ZM166.162 216.368L167.576 214.954L166.162 216.368ZM166.162 162.569L167.576 163.983L167.602 163.957L167.628 163.93L166.162 162.569ZM171.218 162.569L169.752 163.93L169.803 163.984L169.857 164.035L171.218 162.569ZM171.218 216.368L169.857 214.902L169.83 214.928L169.804 214.954L171.218 216.368ZM168.69 215.395C168.2 215.395 167.872 215.25 167.576 214.954L164.748 217.782C165.821 218.856 167.179 219.395 168.69 219.395V215.395ZM167.576 214.954C167.28 214.658 167.135 214.33 167.135 213.84H163.135C163.135 215.351 163.674 216.709 164.748 217.782L167.576 214.954ZM167.135 213.84V165.097H163.135V213.84H167.135ZM167.135 165.097C167.135 164.607 167.28 164.279 167.576 163.983L164.748 161.155C163.674 162.228 163.135 163.586 163.135 165.097H167.135ZM167.628 163.93C167.936 163.598 168.249 163.463 168.69 163.463V159.463C167.13 159.463 165.757 160.066 164.696 161.208L167.628 163.93ZM168.69 163.463C169.131 163.463 169.444 163.598 169.752 163.93L172.684 161.208C171.623 160.066 170.25 159.463 168.69 159.463V163.463ZM169.857 164.035C170.189 164.343 170.324 164.656 170.324 165.097H174.324C174.324 163.537 173.721 162.164 172.579 161.103L169.857 164.035ZM170.324 165.097V213.84H174.324V165.097H170.324ZM170.324 213.84C170.324 214.281 170.189 214.594 169.857 214.902L172.579 217.834C173.721 216.773 174.324 215.4 174.324 213.84H170.324ZM169.804 214.954C169.508 215.25 169.18 215.395 168.69 215.395V219.395C170.201 219.395 171.559 218.856 172.632 217.782L169.804 214.954Z" fill="white"/>
<g filter="url(#filter1_d_204_1022)">
<path d="M272 102H192C179.85 102 170 92.1503 170 80V0L272 102Z" fill="url(#paint2_linear_204_1022)"/>
</g>
</g>
<mask id="mask1_204_1022" style="mask-type:alpha" maskUnits="userSpaceOnUse" x="0" y="0" width="272" height="308">
<path d="M250 308H22C9.84974 308 0 298.15 0 286V22C0 9.84974 9.84974 0 22 0H170L272 102V286C272 298.15 262.15 308 250 308Z" fill="url(#paint3_linear_204_1022)"/>
</mask>
<g mask="url(#mask1_204_1022)">
<path d="M250 308H22C9.84974 308 0 298.15 0 286V22C0 9.84974 9.84974 0 22 0H170L272 102V286C272 298.15 262.15 308 250 308Z" fill="url(#paint4_linear_204_1022)"/>
<g opacity="0.26" filter="url(#filter2_f_204_1022)">
<rect x="48" y="149" width="178" height="84" fill="#E66000" style="mix-blend-mode:darken"/>
</g>
<path d="M88.7335 202C87.7415 202 86.8941 201.649 86.1915 200.946C85.4888 200.243 85.1375 199.396 85.1375 198.404C85.1375 197.495 85.3855 196.73 85.8815 196.11L111.797 164.118H87.9275C87.1835 164.118 86.5428 163.87 86.0055 163.374C85.5095 162.837 85.2615 162.196 85.2615 161.452C85.2615 160.708 85.5095 160.067 86.0055 159.53C86.5428 158.993 87.1835 158.724 87.9275 158.724H114.835C115.993 158.724 116.902 159.096 117.563 159.84C118.266 160.584 118.617 161.493 118.617 162.568C118.617 162.981 118.514 163.415 118.307 163.87C118.142 164.325 117.915 164.717 117.625 165.048L92.0195 196.73H116.323C117.067 196.73 117.687 196.999 118.183 197.536C118.721 198.032 118.989 198.652 118.989 199.396C118.989 200.14 118.721 200.76 118.183 201.256C117.687 201.752 117.067 202 116.323 202H88.7335ZM134.905 202.31C134.119 202.31 133.458 202.041 132.921 201.504C132.383 200.967 132.115 200.305 132.115 199.52V161.266C132.115 160.481 132.383 159.819 132.921 159.282C133.458 158.703 134.119 158.414 134.905 158.414C135.69 158.414 136.351 158.703 136.889 159.282C137.467 159.819 137.757 160.481 137.757 161.266V199.52C137.757 200.305 137.467 200.967 136.889 201.504C136.351 202.041 135.69 202.31 134.905 202.31ZM156.924 202.31C156.139 202.31 155.478 202.041 154.94 201.504C154.403 200.967 154.134 200.305 154.134 199.52V161.576C154.134 160.791 154.403 160.129 154.94 159.592C155.478 159.013 156.139 158.724 156.924 158.724H171.06C174.987 158.724 178.19 159.385 180.67 160.708C183.15 162.031 184.928 163.725 186.002 165.792C187.077 167.859 187.614 170.091 187.614 172.488C187.614 174.885 187.077 177.117 186.002 179.184C184.928 181.251 183.15 182.945 180.67 184.268C178.19 185.591 174.987 186.252 171.06 186.252H159.776V199.52C159.776 200.305 159.487 200.967 158.908 201.504C158.371 202.041 157.71 202.31 156.924 202.31ZM170.502 180.92C174.718 180.92 177.674 180.114 179.368 178.502C181.104 176.89 181.972 174.885 181.972 172.488C181.972 170.091 181.104 168.086 179.368 166.474C177.674 164.862 174.718 164.056 170.502 164.056H159.776V180.92H170.502Z" fill="white"/>
<path d="M86.1915 200.946L87.6057 199.532L86.1915 200.946ZM85.8815 196.11L84.3274 194.851L84.3197 194.861L85.8815 196.11ZM111.797 164.118L113.352 165.377L115.992 162.118H111.797V164.118ZM86.0055 163.374L84.5359 164.731L84.5901 164.789L84.6489 164.844L86.0055 163.374ZM86.0055 159.53L84.5913 158.116L84.563 158.144L84.5359 158.173L86.0055 159.53ZM117.563 159.84L116.069 161.169L116.089 161.191L116.109 161.213L117.563 159.84ZM118.307 163.87L116.487 163.042L116.455 163.113L116.428 163.187L118.307 163.87ZM117.625 165.048L116.12 163.731L116.095 163.76L116.07 163.791L117.625 165.048ZM92.0195 196.73L90.464 195.473L87.8315 198.73H92.0195V196.73ZM118.183 197.536L116.714 198.893L116.768 198.951L116.827 199.006L118.183 197.536ZM118.183 201.256L116.827 199.786L116.798 199.814L116.769 199.842L118.183 201.256ZM88.7335 200C88.2729 200 87.934 199.86 87.6057 199.532L84.7773 202.36C85.8543 203.437 87.21 204 88.7335 204V200ZM87.6057 199.532C87.2774 199.203 87.1375 198.865 87.1375 198.404H83.1375C83.1375 199.927 83.7003 201.283 84.7773 202.36L87.6057 199.532ZM87.1375 198.404C87.1375 197.879 87.2714 197.574 87.4432 197.359L84.3197 194.861C83.4995 195.886 83.1375 197.11 83.1375 198.404H87.1375ZM87.4355 197.369L113.352 165.377L110.243 162.859L84.3274 194.851L87.4355 197.369ZM111.797 162.118H87.9275V166.118H111.797V162.118ZM87.9275 162.118C87.6766 162.118 87.5229 162.053 87.362 161.904L84.6489 164.844C85.5628 165.687 86.6904 166.118 87.9275 166.118V162.118ZM87.4751 162.017C87.3266 161.857 87.2615 161.703 87.2615 161.452H83.2615C83.2615 162.689 83.6923 163.817 84.5359 164.731L87.4751 162.017ZM87.2615 161.452C87.2615 161.201 87.3266 161.047 87.4751 160.887L84.5359 158.173C83.6923 159.087 83.2615 160.215 83.2615 161.452H87.2615ZM87.4197 160.944C87.5909 160.773 87.7265 160.724 87.9275 160.724V156.724C86.6405 156.724 85.4947 157.212 84.5913 158.116L87.4197 160.944ZM87.9275 160.724H114.835V156.724H87.9275V160.724ZM114.835 160.724C115.524 160.724 115.85 160.923 116.069 161.169L119.058 158.511C117.954 157.269 116.462 156.724 114.835 156.724V160.724ZM116.109 161.213C116.443 161.566 116.617 161.976 116.617 162.568H120.617C120.617 161.011 120.09 159.602 119.018 158.467L116.109 161.213ZM116.617 162.568C116.617 162.643 116.599 162.795 116.487 163.042L120.128 164.698C120.429 164.036 120.617 163.32 120.617 162.568H116.617ZM116.428 163.187C116.339 163.432 116.231 163.604 116.12 163.731L119.131 166.365C119.599 165.83 119.946 165.217 120.187 164.553L116.428 163.187ZM116.07 163.791L90.464 195.473L93.575 197.987L119.181 166.305L116.07 163.791ZM92.0195 198.73H116.323V194.73H92.0195V198.73ZM116.323 198.73C116.52 198.73 116.604 198.773 116.714 198.893L119.653 196.179C118.771 195.224 117.615 194.73 116.323 194.73V198.73ZM116.827 199.006C116.946 199.116 116.989 199.199 116.989 199.396H120.989C120.989 198.105 120.496 196.948 119.54 196.066L116.827 199.006ZM116.989 199.396C116.989 199.593 116.946 199.676 116.827 199.786L119.54 202.726C120.496 201.844 120.989 200.687 120.989 199.396H116.989ZM116.769 199.842C116.673 199.938 116.573 200 116.323 200V204C117.562 204 118.702 203.566 119.598 202.67L116.769 199.842ZM116.323 200H88.7335V204H116.323V200ZM132.921 201.504L134.335 200.09L132.921 201.504ZM132.921 159.282L134.335 160.696L134.361 160.67L134.386 160.643L132.921 159.282ZM136.889 159.282L135.423 160.643L135.473 160.697L135.528 160.748L136.889 159.282ZM136.889 201.504L135.528 200.038L135.501 200.064L135.474 200.09L136.889 201.504ZM134.905 200.31C134.63 200.31 134.483 200.238 134.335 200.09L131.506 202.918C132.433 203.844 133.609 204.31 134.905 204.31V200.31ZM134.335 200.09C134.186 199.941 134.115 199.795 134.115 199.52H130.115C130.115 200.816 130.58 201.992 131.506 202.918L134.335 200.09ZM134.115 199.52V161.266H130.115V199.52H134.115ZM134.115 161.266C134.115 160.991 134.186 160.845 134.335 160.696L131.506 157.868C130.58 158.794 130.115 159.97 130.115 161.266H134.115ZM134.386 160.643C134.547 160.469 134.679 160.414 134.905 160.414V156.414C133.56 156.414 132.368 156.937 131.455 157.921L134.386 160.643ZM134.905 160.414C135.13 160.414 135.262 160.469 135.423 160.643L138.354 157.921C137.441 156.937 136.25 156.414 134.905 156.414V160.414ZM135.528 160.748C135.701 160.909 135.757 161.04 135.757 161.266H139.757C139.757 159.921 139.233 158.73 138.249 157.816L135.528 160.748ZM135.757 161.266V199.52H139.757V161.266H135.757ZM135.757 199.52C135.757 199.746 135.701 199.877 135.528 200.038L138.249 202.97C139.233 202.056 139.757 200.865 139.757 199.52H135.757ZM135.474 200.09C135.326 200.238 135.179 200.31 134.905 200.31V204.31C136.201 204.31 137.377 203.844 138.303 202.918L135.474 200.09ZM154.94 201.504L156.354 200.09L154.94 201.504ZM154.94 159.592L156.354 161.006L156.381 160.98L156.406 160.953L154.94 159.592ZM180.67 160.708L181.611 158.943L180.67 160.708ZM186.002 165.792L184.228 166.715L186.002 165.792ZM186.002 179.184L184.228 178.261L184.228 178.261L186.002 179.184ZM180.67 184.268L181.611 186.033L180.67 184.268ZM159.776 186.252V184.252H157.776V186.252H159.776ZM158.908 201.504L157.547 200.038L157.52 200.064L157.494 200.09L158.908 201.504ZM179.368 178.502L178.007 177.036L177.999 177.045L177.99 177.053L179.368 178.502ZM179.368 166.474L177.99 167.923L177.999 167.931L178.007 167.94L179.368 166.474ZM159.776 164.056V162.056H157.776V164.056H159.776ZM159.776 180.92H157.776V182.92H159.776V180.92ZM156.924 200.31C156.65 200.31 156.503 200.238 156.354 200.09L153.526 202.918C154.452 203.844 155.628 204.31 156.924 204.31V200.31ZM156.354 200.09C156.206 199.941 156.134 199.795 156.134 199.52H152.134C152.134 200.816 152.6 201.992 153.526 202.918L156.354 200.09ZM156.134 199.52V161.576H152.134V199.52H156.134ZM156.134 161.576C156.134 161.301 156.206 161.155 156.354 161.006L153.526 158.178C152.6 159.104 152.134 160.28 152.134 161.576H156.134ZM156.406 160.953C156.567 160.779 156.699 160.724 156.924 160.724V156.724C155.579 156.724 154.388 157.247 153.475 158.231L156.406 160.953ZM156.924 160.724H171.06V156.724H156.924V160.724ZM171.06 160.724C174.782 160.724 177.631 161.354 179.729 162.473L181.611 158.943C178.75 157.417 175.192 156.724 171.06 156.724V160.724ZM179.729 162.473C181.928 163.645 183.375 165.075 184.228 166.715L187.777 164.869C186.48 162.376 184.373 160.416 181.611 158.943L179.729 162.473ZM184.228 166.715C185.15 168.488 185.614 170.402 185.614 172.488H189.614C189.614 169.779 189.004 167.229 187.777 164.869L184.228 166.715ZM185.614 172.488C185.614 174.574 185.15 176.488 184.228 178.261L187.777 180.107C189.004 177.747 189.614 175.197 189.614 172.488H185.614ZM184.228 178.261C183.375 179.901 181.928 181.331 179.729 182.503L181.611 186.033C184.373 184.56 186.48 182.6 187.777 180.107L184.228 178.261ZM179.729 182.503C177.631 183.622 174.782 184.252 171.06 184.252V188.252C175.192 188.252 178.75 187.559 181.611 186.033L179.729 182.503ZM171.06 184.252H159.776V188.252H171.06V184.252ZM157.776 186.252V199.52H161.776V186.252H157.776ZM157.776 199.52C157.776 199.746 157.721 199.877 157.547 200.038L160.269 202.97C161.253 202.056 161.776 200.865 161.776 199.52H157.776ZM157.494 200.09C157.346 200.238 157.199 200.31 156.924 200.31V204.31C158.22 204.31 159.396 203.844 160.322 202.918L157.494 200.09ZM170.502 182.92C174.858 182.92 178.477 182.11 180.747 179.951L177.99 177.053C176.87 178.118 174.578 178.92 170.502 178.92V182.92ZM180.729 179.968C182.878 177.972 183.972 175.434 183.972 172.488H179.972C179.972 174.337 179.33 175.808 178.007 177.036L180.729 179.968ZM183.972 172.488C183.972 169.542 182.878 167.004 180.729 165.008L178.007 167.94C179.33 169.168 179.972 170.639 179.972 172.488H183.972ZM180.747 165.025C178.477 162.866 174.858 162.056 170.502 162.056V166.056C174.578 166.056 176.87 166.858 177.99 167.923L180.747 165.025ZM170.502 162.056H159.776V166.056H170.502V162.056ZM157.776 164.056V180.92H161.776V164.056H157.776ZM159.776 182.92H170.502V178.92H159.776V182.92Z" fill="white"/>
<g filter="url(#filter3_d_204_1022)">
<path d="M272 102H192C179.85 102 170 92.1503 170 80V0L272 102Z" fill="url(#paint5_linear_204_1022)"/>
</g>
</g>
<defs>
<filter id="filter0_f_204_1022" x="9" y="110" width="256" height="162" filterUnits="userSpaceOnUse" color-interpolation-filters="sRGB">
<feFlood flood-opacity="0" result="BackgroundImageFix"/>
<feBlend mode="normal" in="SourceGraphic" in2="BackgroundImageFix" result="shape"/>
<feGaussianBlur stdDeviation="19.5" result="effect1_foregroundBlur_204_1022"/>
</filter>
<filter id="filter1_d_204_1022" x="147" y="-24" width="152" height="152" filterUnits="userSpaceOnUse" color-interpolation-filters="sRGB">
<feFlood flood-opacity="0" result="BackgroundImageFix"/>
<feColorMatrix in="SourceAlpha" type="matrix" values="0 0 0 0 0 0 0 0 0 0 0 0 0 0 0 0 0 0 127 0" result="hardAlpha"/>
<feOffset dx="2" dy="1"/>
<feGaussianBlur stdDeviation="12.5"/>
<feColorMatrix type="matrix" values="0 0 0 0 0 0 0 0 0 0 0 0 0 0 0 0 0 0 0.33 0"/>
<feBlend mode="normal" in2="BackgroundImageFix" result="effect1_dropShadow_204_1022"/>
<feBlend mode="normal" in="SourceGraphic" in2="effect1_dropShadow_204_1022" result="shape"/>
</filter>
<filter id="filter2_f_204_1022" x="9" y="110" width="256" height="162" filterUnits="userSpaceOnUse" color-interpolation-filters="sRGB">
<feFlood flood-opacity="0" result="BackgroundImageFix"/>
<feBlend mode="normal" in="SourceGraphic" in2="BackgroundImageFix" result="shape"/>
<feGaussianBlur stdDeviation="19.5" result="effect1_foregroundBlur_204_1022"/>
</filter>
<filter id="filter3_d_204_1022" x="147" y="-24" width="152" height="152" filterUnits="userSpaceOnUse" color-interpolation-filters="sRGB">
<feFlood flood-opacity="0" result="BackgroundImageFix"/>
<feColorMatrix in="SourceAlpha" type="matrix" values="0 0 0 0 0 0 0 0 0 0 0 0 0 0 0 0 0 0 127 0" result="hardAlpha"/>
<feOffset dx="2" dy="1"/>
<feGaussianBlur stdDeviation="12.5"/>
<feColorMatrix type="matrix" values="0 0 0 0 0 0 0 0 0 0 0 0 0 0 0 0 0 0 0.33 0"/>
<feBlend mode="normal" in2="BackgroundImageFix" result="effect1_dropShadow_204_1022"/>
<feBlend mode="normal" in="SourceGraphic" in2="effect1_dropShadow_204_1022" result="shape"/>
</filter>
<linearGradient id="paint0_linear_204_1022" x1="136" y1="0" x2="136" y2="308" gradientUnits="userSpaceOnUse">
<stop stop-color="#FF7979"/>
<stop offset="1" stop-color="#E85555"/>
</linearGradient>
<linearGradient id="paint1_linear_204_1022" x1="136" y1="0" x2="136" y2="308" gradientUnits="userSpaceOnUse">
<stop stop-color="#FFA216"/>
<stop offset="1" stop-color="#EF8100"/>
</linearGradient>
<linearGradient id="paint2_linear_204_1022" x1="221" y1="0" x2="221" y2="102" gradientUnits="userSpaceOnUse">
<stop stop-color="#FF7A1B"/>
<stop offset="1" stop-color="#E86100"/>
</linearGradient>
<linearGradient id="paint3_linear_204_1022" x1="136" y1="0" x2="136" y2="308" gradientUnits="userSpaceOnUse">
<stop stop-color="#FF7979"/>
<stop offset="1" stop-color="#E85555"/>
</linearGradient>
<linearGradient id="paint4_linear_204_1022" x1="136" y1="0" x2="136" y2="308" gradientUnits="userSpaceOnUse">
<stop stop-color="#FFA216"/>
<stop offset="1" stop-color="#EF8100"/>
</linearGradient>
<linearGradient id="paint5_linear_204_1022" x1="221" y1="0" x2="221" y2="102" gradientUnits="userSpaceOnUse">
<stop stop-color="#FF7A1B"/>
<stop offset="1" stop-color="#E86100"/>
</linearGradient>
</defs>
</svg>
