<svg width="272" height="308" viewBox="0 0 272 308" fill="none" xmlns="http://www.w3.org/2000/svg">
<mask id="mask0_316_2" style="mask-type:alpha" maskUnits="userSpaceOnUse" x="0" y="0" width="272" height="308">
<path d="M250 308H22C9.84974 308 0 298.15 0 286V22C0 9.84974 9.84974 0 22 0H170L272 102V286C272 298.15 262.15 308 250 308Z" fill="url(#paint0_linear_316_2)"/>
</mask>
<g mask="url(#mask0_316_2)">
<path d="M250 308H22C9.84974 308 0 298.15 0 286V22C0 9.84974 9.84974 0 22 0H170L272 102V286C272 298.15 262.15 308 250 308Z" fill="url(#paint1_linear_316_2)"/>
<g filter="url(#filter0_f_316_2)">
<rect x="47" y="149" width="178" height="84" fill="#3F3F46" fill-opacity="0.07" style="mix-blend-mode:darken"/>
</g>
<mask id="path-4-outside-1_316_2" maskUnits="userSpaceOnUse" x="31" y="120" width="215" height="120" fill="black">
<rect fill="white" x="31" y="120" width="215" height="120"/>
<path d="M94.9923 165.3C94.2323 165.3 93.5923 165.04 93.0723 164.52C92.5523 164 92.2923 163.36 92.2923 162.6V126.78C92.2923 125.7 92.6723 124.78 93.4323 124.02C94.1923 123.22 95.1123 122.82 96.1923 122.82H96.9723C98.2523 122.82 99.3523 123.42 100.272 124.62L123.372 157.98V125.58C123.372 124.82 123.632 124.18 124.152 123.66C124.672 123.1 125.312 122.82 126.072 122.82C126.832 122.82 127.472 123.1 127.992 123.66C128.552 124.18 128.832 124.82 128.832 125.58V161.4C128.832 162.48 128.432 163.4 127.632 164.16C126.872 164.92 125.952 165.3 124.872 165.3H124.152C123.512 165.3 122.912 165.16 122.352 164.88C121.792 164.56 121.332 164.16 120.972 163.68L97.7523 130.14V162.6C97.7523 163.36 97.4723 164 96.9123 164.52C96.3923 165.04 95.7523 165.3 94.9923 165.3ZM163.196 165.6C158.996 165.6 155.316 164.68 152.156 162.84C148.996 161 146.556 158.46 144.836 155.22C143.116 151.98 142.216 148.26 142.136 144.06C142.216 139.86 143.116 136.14 144.836 132.9C146.556 129.66 148.996 127.12 152.156 125.28C155.316 123.44 158.996 122.52 163.196 122.52C167.396 122.52 171.056 123.44 174.176 125.28C177.336 127.12 179.776 129.68 181.496 132.96C183.256 136.2 184.176 139.9 184.256 144.06C184.176 148.22 183.256 151.94 181.496 155.22C179.776 158.46 177.336 161 174.176 162.84C171.056 164.68 167.396 165.6 163.196 165.6ZM163.196 160.5C166.396 160.5 169.176 159.78 171.536 158.34C173.896 156.9 175.696 154.94 176.936 152.46C178.176 149.98 178.796 147.18 178.796 144.06C178.796 140.94 178.176 138.14 176.936 135.66C175.696 133.18 173.896 131.22 171.536 129.78C169.176 128.34 166.396 127.62 163.196 127.62C159.956 127.62 157.156 128.34 154.796 129.78C152.476 131.22 150.696 133.18 149.456 135.66C148.216 138.14 147.596 140.94 147.596 144.06C147.596 147.18 148.216 149.98 149.456 152.46C150.696 154.94 152.476 156.9 154.796 158.34C157.156 159.78 159.956 160.5 163.196 160.5ZM35.7821 237.3C35.0221 237.3 34.3821 237.04 33.8621 236.52C33.3421 236 33.0821 235.36 33.0821 234.6V197.58C33.0821 196.82 33.3421 196.18 33.8621 195.66C34.3821 195.1 35.0221 194.82 35.7821 194.82C36.5421 194.82 37.1821 195.1 37.7021 195.66C38.2621 196.18 38.5421 196.82 38.5421 197.58V234.6C38.5421 235.36 38.2621 236 37.7021 236.52C37.1821 237.04 36.5421 237.3 35.7821 237.3ZM57.0915 237.3C56.3315 237.3 55.6915 237.04 55.1715 236.52C54.6515 236 54.3915 235.36 54.3915 234.6V198.78C54.3915 197.7 54.7715 196.78 55.5315 196.02C56.2915 195.22 57.2115 194.82 58.2915 194.82H60.2715C61.0715 194.82 61.7915 195.06 62.4315 195.54C63.1115 196.02 63.6115 196.62 63.9315 197.34L77.5515 231.3L91.1715 197.34C91.4915 196.62 91.9715 196.02 92.6115 195.54C93.2915 195.06 94.0315 194.82 94.8315 194.82H96.8115C97.8915 194.82 98.8115 195.22 99.5715 196.02C100.331 196.78 100.711 197.7 100.711 198.78V234.6C100.711 235.36 100.451 236 99.9315 236.52C99.4115 237.04 98.7715 237.3 98.0115 237.3C97.2515 237.3 96.5915 237.04 96.0315 236.52C95.5115 236 95.2515 235.36 95.2515 234.6V200.52L81.3915 234.78C81.0715 235.54 80.5515 236.16 79.8315 236.64C79.1515 237.08 78.3915 237.3 77.5515 237.3C76.7115 237.3 75.9315 237.08 75.2115 236.64C74.5315 236.16 74.0315 235.54 73.7115 234.78L59.8515 200.52V234.6C59.8515 235.36 59.5715 236 59.0115 236.52C58.4915 237.04 57.8515 237.3 57.0915 237.3ZM116.421 237.3C115.621 237.3 114.961 237.04 114.441 236.52C113.961 236 113.721 235.36 113.721 234.6C113.721 234.28 113.821 233.88 114.021 233.4L129.321 197.28C129.641 196.56 130.081 195.98 130.641 195.54C131.241 195.06 131.961 194.82 132.801 194.82H133.401C134.241 194.82 134.941 195.06 135.501 195.54C136.101 195.98 136.561 196.56 136.881 197.28L152.181 233.4C152.381 233.88 152.481 234.28 152.481 234.6C152.481 235.36 152.221 236 151.701 236.52C151.221 237.04 150.581 237.3 149.781 237.3C149.221 237.3 148.701 237.16 148.221 236.88C147.781 236.56 147.441 236.14 147.201 235.62L143.301 226.26H122.901L119.001 235.62C118.761 236.14 118.401 236.56 117.921 236.88C117.481 237.16 116.981 237.3 116.421 237.3ZM125.001 221.28H141.201L133.101 201.78L125.001 221.28ZM183.226 237.6C179.106 237.6 175.446 236.7 172.246 234.9C169.046 233.06 166.566 230.52 164.806 227.28C163.046 224 162.166 220.28 162.166 216.12C162.166 211.88 163.086 208.12 164.926 204.84C166.766 201.56 169.266 199.02 172.426 197.22C175.626 195.42 179.166 194.52 183.046 194.52C186.166 194.52 188.886 194.9 191.206 195.66C193.566 196.42 195.826 197.48 197.986 198.84C198.306 199 198.586 199.28 198.826 199.68C199.066 200.08 199.186 200.52 199.186 201C199.186 201.68 198.946 202.26 198.466 202.74C198.026 203.22 197.426 203.46 196.666 203.46C196.226 203.46 195.806 203.36 195.406 203.16C193.526 202.04 191.646 201.2 189.766 200.64C187.886 200.08 185.846 199.8 183.646 199.8C180.606 199.8 177.866 200.44 175.426 201.72C172.986 203 171.066 204.88 169.666 207.36C168.306 209.8 167.626 212.72 167.626 216.12C167.626 219.24 168.266 222.04 169.546 224.52C170.866 226.96 172.746 228.9 175.186 230.34C177.666 231.74 180.586 232.44 183.946 232.44C187.706 232.44 191.206 231.56 194.446 229.8V218.94H184.546C183.866 218.94 183.286 218.7 182.806 218.22C182.326 217.74 182.086 217.16 182.086 216.48C182.086 215.8 182.326 215.22 182.806 214.74C183.286 214.26 183.866 214.02 184.546 214.02H196.366C197.166 214.02 197.846 214.3 198.406 214.86C198.966 215.42 199.246 216.1 199.246 216.9V230.52C199.246 231.36 199.026 232.12 198.586 232.8C198.186 233.44 197.646 233.92 196.966 234.24C192.486 236.48 187.906 237.6 183.226 237.6ZM216.996 237C216.236 237 215.596 236.74 215.076 236.22C214.556 235.7 214.296 235.06 214.296 234.3V197.88C214.296 197.12 214.556 196.48 215.076 195.96C215.596 195.4 216.236 195.12 216.996 195.12H241.056C241.776 195.12 242.376 195.38 242.856 195.9C243.376 196.38 243.636 196.98 243.636 197.7C243.636 198.42 243.376 199.02 242.856 199.5C242.376 199.98 241.776 200.22 241.056 200.22H219.756V213.48H238.896C239.616 213.48 240.216 213.74 240.696 214.26C241.216 214.74 241.476 215.34 241.476 216.06C241.476 216.78 241.216 217.38 240.696 217.86C240.216 218.34 239.616 218.58 238.896 218.58H219.756V231.9H241.056C241.776 231.9 242.376 232.16 242.856 232.68C243.376 233.16 243.636 233.76 243.636 234.48C243.636 235.2 243.376 235.8 242.856 236.28C242.376 236.76 241.776 237 241.056 237H216.996Z"/>
</mask>
<path d="M94.9923 165.3C94.2323 165.3 93.5923 165.04 93.0723 164.52C92.5523 164 92.2923 163.36 92.2923 162.6V126.78C92.2923 125.7 92.6723 124.78 93.4323 124.02C94.1923 123.22 95.1123 122.82 96.1923 122.82H96.9723C98.2523 122.82 99.3523 123.42 100.272 124.62L123.372 157.98V125.58C123.372 124.82 123.632 124.18 124.152 123.66C124.672 123.1 125.312 122.82 126.072 122.82C126.832 122.82 127.472 123.1 127.992 123.66C128.552 124.18 128.832 124.82 128.832 125.58V161.4C128.832 162.48 128.432 163.4 127.632 164.16C126.872 164.92 125.952 165.3 124.872 165.3H124.152C123.512 165.3 122.912 165.16 122.352 164.88C121.792 164.56 121.332 164.16 120.972 163.68L97.7523 130.14V162.6C97.7523 163.36 97.4723 164 96.9123 164.52C96.3923 165.04 95.7523 165.3 94.9923 165.3ZM163.196 165.6C158.996 165.6 155.316 164.68 152.156 162.84C148.996 161 146.556 158.46 144.836 155.22C143.116 151.98 142.216 148.26 142.136 144.06C142.216 139.86 143.116 136.14 144.836 132.9C146.556 129.66 148.996 127.12 152.156 125.28C155.316 123.44 158.996 122.52 163.196 122.52C167.396 122.52 171.056 123.44 174.176 125.28C177.336 127.12 179.776 129.68 181.496 132.96C183.256 136.2 184.176 139.9 184.256 144.06C184.176 148.22 183.256 151.94 181.496 155.22C179.776 158.46 177.336 161 174.176 162.84C171.056 164.68 167.396 165.6 163.196 165.6ZM163.196 160.5C166.396 160.5 169.176 159.78 171.536 158.34C173.896 156.9 175.696 154.94 176.936 152.46C178.176 149.98 178.796 147.18 178.796 144.06C178.796 140.94 178.176 138.14 176.936 135.66C175.696 133.18 173.896 131.22 171.536 129.78C169.176 128.34 166.396 127.62 163.196 127.62C159.956 127.62 157.156 128.34 154.796 129.78C152.476 131.22 150.696 133.18 149.456 135.66C148.216 138.14 147.596 140.94 147.596 144.06C147.596 147.18 148.216 149.98 149.456 152.46C150.696 154.94 152.476 156.9 154.796 158.34C157.156 159.78 159.956 160.5 163.196 160.5ZM35.7821 237.3C35.0221 237.3 34.3821 237.04 33.8621 236.52C33.3421 236 33.0821 235.36 33.0821 234.6V197.58C33.0821 196.82 33.3421 196.18 33.8621 195.66C34.3821 195.1 35.0221 194.82 35.7821 194.82C36.5421 194.82 37.1821 195.1 37.7021 195.66C38.2621 196.18 38.5421 196.82 38.5421 197.58V234.6C38.5421 235.36 38.2621 236 37.7021 236.52C37.1821 237.04 36.5421 237.3 35.7821 237.3ZM57.0915 237.3C56.3315 237.3 55.6915 237.04 55.1715 236.52C54.6515 236 54.3915 235.36 54.3915 234.6V198.78C54.3915 197.7 54.7715 196.78 55.5315 196.02C56.2915 195.22 57.2115 194.82 58.2915 194.82H60.2715C61.0715 194.82 61.7915 195.06 62.4315 195.54C63.1115 196.02 63.6115 196.62 63.9315 197.34L77.5515 231.3L91.1715 197.34C91.4915 196.62 91.9715 196.02 92.6115 195.54C93.2915 195.06 94.0315 194.82 94.8315 194.82H96.8115C97.8915 194.82 98.8115 195.22 99.5715 196.02C100.331 196.78 100.711 197.7 100.711 198.78V234.6C100.711 235.36 100.451 236 99.9315 236.52C99.4115 237.04 98.7715 237.3 98.0115 237.3C97.2515 237.3 96.5915 237.04 96.0315 236.52C95.5115 236 95.2515 235.36 95.2515 234.6V200.52L81.3915 234.78C81.0715 235.54 80.5515 236.16 79.8315 236.64C79.1515 237.08 78.3915 237.3 77.5515 237.3C76.7115 237.3 75.9315 237.08 75.2115 236.64C74.5315 236.16 74.0315 235.54 73.7115 234.78L59.8515 200.52V234.6C59.8515 235.36 59.5715 236 59.0115 236.52C58.4915 237.04 57.8515 237.3 57.0915 237.3ZM116.421 237.3C115.621 237.3 114.961 237.04 114.441 236.52C113.961 236 113.721 235.36 113.721 234.6C113.721 234.28 113.821 233.88 114.021 233.4L129.321 197.28C129.641 196.56 130.081 195.98 130.641 195.54C131.241 195.06 131.961 194.82 132.801 194.82H133.401C134.241 194.82 134.941 195.06 135.501 195.54C136.101 195.98 136.561 196.56 136.881 197.28L152.181 233.4C152.381 233.88 152.481 234.28 152.481 234.6C152.481 235.36 152.221 236 151.701 236.52C151.221 237.04 150.581 237.3 149.781 237.3C149.221 237.3 148.701 237.16 148.221 236.88C147.781 236.56 147.441 236.14 147.201 235.62L143.301 226.26H122.901L119.001 235.62C118.761 236.14 118.401 236.56 117.921 236.88C117.481 237.16 116.981 237.3 116.421 237.3ZM125.001 221.28H141.201L133.101 201.78L125.001 221.28ZM183.226 237.6C179.106 237.6 175.446 236.7 172.246 234.9C169.046 233.06 166.566 230.52 164.806 227.28C163.046 224 162.166 220.28 162.166 216.12C162.166 211.88 163.086 208.12 164.926 204.84C166.766 201.56 169.266 199.02 172.426 197.22C175.626 195.42 179.166 194.52 183.046 194.52C186.166 194.52 188.886 194.9 191.206 195.66C193.566 196.42 195.826 197.48 197.986 198.84C198.306 199 198.586 199.28 198.826 199.68C199.066 200.08 199.186 200.52 199.186 201C199.186 201.68 198.946 202.26 198.466 202.74C198.026 203.22 197.426 203.46 196.666 203.46C196.226 203.46 195.806 203.36 195.406 203.16C193.526 202.04 191.646 201.2 189.766 200.64C187.886 200.08 185.846 199.8 183.646 199.8C180.606 199.8 177.866 200.44 175.426 201.72C172.986 203 171.066 204.88 169.666 207.36C168.306 209.8 167.626 212.72 167.626 216.12C167.626 219.24 168.266 222.04 169.546 224.52C170.866 226.96 172.746 228.9 175.186 230.34C177.666 231.74 180.586 232.44 183.946 232.44C187.706 232.44 191.206 231.56 194.446 229.8V218.94H184.546C183.866 218.94 183.286 218.7 182.806 218.22C182.326 217.74 182.086 217.16 182.086 216.48C182.086 215.8 182.326 215.22 182.806 214.74C183.286 214.26 183.866 214.02 184.546 214.02H196.366C197.166 214.02 197.846 214.3 198.406 214.86C198.966 215.42 199.246 216.1 199.246 216.9V230.52C199.246 231.36 199.026 232.12 198.586 232.8C198.186 233.44 197.646 233.92 196.966 234.24C192.486 236.48 187.906 237.6 183.226 237.6ZM216.996 237C216.236 237 215.596 236.74 215.076 236.22C214.556 235.7 214.296 235.06 214.296 234.3V197.88C214.296 197.12 214.556 196.48 215.076 195.96C215.596 195.4 216.236 195.12 216.996 195.12H241.056C241.776 195.12 242.376 195.38 242.856 195.9C243.376 196.38 243.636 196.98 243.636 197.7C243.636 198.42 243.376 199.02 242.856 199.5C242.376 199.98 241.776 200.22 241.056 200.22H219.756V213.48H238.896C239.616 213.48 240.216 213.74 240.696 214.26C241.216 214.74 241.476 215.34 241.476 216.06C241.476 216.78 241.216 217.38 240.696 217.86C240.216 218.34 239.616 218.58 238.896 218.58H219.756V231.9H241.056C241.776 231.9 242.376 232.16 242.856 232.68C243.376 233.16 243.636 233.76 243.636 234.48C243.636 235.2 243.376 235.8 242.856 236.28C242.376 236.76 241.776 237 241.056 237H216.996Z" fill="white"/>
<path d="M93.0723 164.52L94.4865 163.106L94.4865 163.106L93.0723 164.52ZM93.4323 124.02L94.8465 125.434L94.8646 125.416L94.8823 125.397L93.4323 124.02ZM100.272 124.62L101.917 123.481L101.889 123.442L101.859 123.403L100.272 124.62ZM123.372 157.98L121.728 159.119L125.372 164.381V157.98H123.372ZM124.152 123.66L125.566 125.074L125.593 125.048L125.618 125.021L124.152 123.66ZM127.992 123.66L126.527 125.021L126.577 125.075L126.631 125.126L127.992 123.66ZM127.632 164.16L126.255 162.71L126.236 162.728L126.218 162.746L127.632 164.16ZM122.352 164.88L121.36 166.616L121.408 166.644L121.458 166.669L122.352 164.88ZM120.972 163.68L119.328 164.818L119.349 164.85L119.372 164.88L120.972 163.68ZM97.7523 130.14L99.3967 129.002L95.7523 123.737V130.14H97.7523ZM96.9123 164.52L95.5514 163.054L95.5242 163.08L95.4981 163.106L96.9123 164.52ZM94.9923 163.3C94.7429 163.3 94.6176 163.237 94.4865 163.106L91.6581 165.934C92.5669 166.843 93.7217 167.3 94.9923 167.3V163.3ZM94.4865 163.106C94.3554 162.975 94.2923 162.849 94.2923 162.6H90.2923C90.2923 163.871 90.7492 165.025 91.6581 165.934L94.4865 163.106ZM94.2923 162.6V126.78H90.2923V162.6H94.2923ZM94.2923 126.78C94.2923 126.228 94.4636 125.817 94.8465 125.434L92.0181 122.606C90.8809 123.743 90.2923 125.172 90.2923 126.78H94.2923ZM94.8823 125.397C95.2739 124.985 95.6738 124.82 96.1923 124.82V120.82C94.5507 120.82 93.1106 121.455 91.9823 122.642L94.8823 125.397ZM96.1923 124.82H96.9723V120.82H96.1923V124.82ZM96.9723 124.82C97.5134 124.82 98.0663 125.03 98.6851 125.837L101.859 123.403C100.638 121.81 98.9911 120.82 96.9723 120.82V124.82ZM98.628 125.759L121.728 159.119L125.017 156.841L101.917 123.481L98.628 125.759ZM125.372 157.98V125.58H121.372V157.98H125.372ZM125.372 125.58C125.372 125.331 125.435 125.205 125.566 125.074L122.738 122.246C121.829 123.155 121.372 124.309 121.372 125.58H125.372ZM125.618 125.021C125.762 124.866 125.872 124.82 126.072 124.82V120.82C124.753 120.82 123.583 121.334 122.687 122.299L125.618 125.021ZM126.072 124.82C126.273 124.82 126.383 124.866 126.527 125.021L129.458 122.299C128.562 121.334 127.392 120.82 126.072 120.82V124.82ZM126.631 125.126C126.786 125.27 126.832 125.38 126.832 125.58H130.832C130.832 124.26 130.318 123.09 129.353 122.194L126.631 125.126ZM126.832 125.58V161.4H130.832V125.58H126.832ZM126.832 161.4C126.832 161.918 126.667 162.318 126.255 162.71L129.01 165.61C130.197 164.482 130.832 163.042 130.832 161.4H126.832ZM126.218 162.746C125.835 163.129 125.425 163.3 124.872 163.3V167.3C126.48 167.3 127.909 166.711 129.046 165.574L126.218 162.746ZM124.872 163.3H124.152V167.3H124.872V163.3ZM124.152 163.3C123.816 163.3 123.523 163.229 123.247 163.091L121.458 166.669C122.302 167.091 123.209 167.3 124.152 167.3V163.3ZM123.345 163.144C123.004 162.949 122.756 162.726 122.572 162.48L119.372 164.88C119.908 165.594 120.581 166.171 121.36 166.616L123.345 163.144ZM122.617 162.542L99.3967 129.002L96.1079 131.278L119.328 164.818L122.617 162.542ZM95.7523 130.14V162.6H99.7523V130.14H95.7523ZM95.7523 162.6C95.7523 162.8 95.7064 162.91 95.5514 163.054L98.2732 165.986C99.2381 165.09 99.7523 163.92 99.7523 162.6H95.7523ZM95.4981 163.106C95.3669 163.237 95.2417 163.3 94.9923 163.3V167.3C96.2629 167.3 97.4176 166.843 98.3265 165.934L95.4981 163.106ZM152.156 162.84L153.163 161.112L153.163 161.112L152.156 162.84ZM144.836 155.22L143.07 156.158L143.07 156.158L144.836 155.22ZM142.136 144.06L140.137 144.022L140.136 144.06L140.137 144.098L142.136 144.06ZM144.836 132.9L146.603 133.838L146.603 133.838L144.836 132.9ZM152.156 125.28L151.15 123.552L151.15 123.552L152.156 125.28ZM174.176 125.28L173.16 127.003L173.17 127.008L174.176 125.28ZM181.496 132.96L179.725 133.889L179.732 133.902L179.739 133.915L181.496 132.96ZM184.256 144.06L186.256 144.098L186.257 144.06L186.256 144.022L184.256 144.06ZM181.496 155.22L179.734 154.274L179.73 154.282L181.496 155.22ZM174.176 162.84L173.17 161.112L173.16 161.117L174.176 162.84ZM171.536 158.34L170.495 156.633L170.495 156.633L171.536 158.34ZM176.936 152.46L178.725 153.354L178.725 153.354L176.936 152.46ZM176.936 135.66L178.725 134.766L178.725 134.766L176.936 135.66ZM171.536 129.78L170.495 131.487L170.495 131.487L171.536 129.78ZM154.796 129.78L153.755 128.073L153.748 128.077L153.742 128.081L154.796 129.78ZM149.456 135.66L147.667 134.766L147.667 134.766L149.456 135.66ZM149.456 152.46L147.667 153.354L147.667 153.354L149.456 152.46ZM154.796 158.34L153.742 160.039L153.748 160.043L153.755 160.047L154.796 158.34ZM163.196 163.6C159.297 163.6 155.974 162.749 153.163 161.112L151.15 164.568C154.659 166.611 158.696 167.6 163.196 167.6V163.6ZM153.163 161.112C150.326 159.46 148.149 157.194 146.603 154.282L143.07 156.158C144.964 159.726 147.667 162.54 151.15 164.568L153.163 161.112ZM146.603 154.282C145.05 151.357 144.211 147.954 144.136 144.022L140.137 144.098C140.222 148.566 141.182 152.603 143.07 156.158L146.603 154.282ZM144.136 144.098C144.211 140.166 145.05 136.763 146.603 133.838L143.07 131.962C141.182 135.517 140.222 139.554 140.137 144.022L144.136 144.098ZM146.603 133.838C148.149 130.926 150.326 128.66 153.163 127.008L151.15 123.552C147.667 125.58 144.964 128.394 143.07 131.962L146.603 133.838ZM153.163 127.008C155.974 125.371 159.297 124.52 163.196 124.52V120.52C158.696 120.52 154.659 121.509 151.15 123.552L153.163 127.008ZM163.196 124.52C167.097 124.52 170.394 125.372 173.16 127.003L175.192 123.557C171.718 121.508 167.696 120.52 163.196 120.52V124.52ZM173.17 127.008C176 128.657 178.177 130.937 179.725 133.889L183.268 132.031C181.375 128.423 178.672 125.583 175.183 123.552L173.17 127.008ZM179.739 133.915C181.327 136.839 182.182 140.217 182.257 144.098L186.256 144.022C186.171 139.583 185.185 135.561 183.254 132.005L179.739 133.915ZM182.257 144.022C182.182 147.902 181.327 151.305 179.734 154.274L183.259 156.166C185.185 152.575 186.171 148.538 186.256 144.098L182.257 144.022ZM179.73 154.282C178.184 157.194 176.007 159.46 173.17 161.112L175.183 164.568C178.666 162.54 181.369 159.726 183.263 156.158L179.73 154.282ZM173.16 161.117C170.394 162.748 167.097 163.6 163.196 163.6V167.6C167.696 167.6 171.718 166.612 175.192 164.563L173.16 161.117ZM163.196 162.5C166.705 162.5 169.858 161.707 172.578 160.047L170.495 156.633C168.495 157.853 166.088 158.5 163.196 158.5V162.5ZM172.578 160.047C175.259 158.411 177.318 156.169 178.725 153.354L175.147 151.566C174.075 153.711 172.533 155.389 170.495 156.633L172.578 160.047ZM178.725 153.354C180.121 150.564 180.796 147.451 180.796 144.06H176.796C176.796 146.909 176.232 149.396 175.147 151.566L178.725 153.354ZM180.796 144.06C180.796 140.669 180.121 137.556 178.725 134.766L175.147 136.554C176.232 138.724 176.796 141.211 176.796 144.06H180.796ZM178.725 134.766C177.318 131.951 175.259 129.709 172.578 128.073L170.495 131.487C172.533 132.731 174.075 134.409 175.147 136.554L178.725 134.766ZM172.578 128.073C169.858 126.413 166.705 125.62 163.196 125.62V129.62C166.088 129.62 168.495 130.267 170.495 131.487L172.578 128.073ZM163.196 125.62C159.653 125.62 156.479 126.41 153.755 128.073L155.838 131.487C157.834 130.27 160.26 129.62 163.196 129.62V125.62ZM153.742 128.081C151.102 129.719 149.07 131.96 147.667 134.766L151.245 136.554C152.322 134.4 153.851 132.721 155.851 131.479L153.742 128.081ZM147.667 134.766C146.272 137.556 145.596 140.669 145.596 144.06H149.596C149.596 141.211 150.161 138.724 151.245 136.554L147.667 134.766ZM145.596 144.06C145.596 147.451 146.272 150.564 147.667 153.354L151.245 151.566C150.161 149.396 149.596 146.909 149.596 144.06H145.596ZM147.667 153.354C149.07 156.16 151.102 158.401 153.742 160.039L155.851 156.641C153.851 155.399 152.322 153.72 151.245 151.566L147.667 153.354ZM153.755 160.047C156.479 161.71 159.653 162.5 163.196 162.5V158.5C160.26 158.5 157.834 157.85 155.838 156.633L153.755 160.047ZM33.8621 236.52L35.2763 235.106L35.2763 235.106L33.8621 236.52ZM33.8621 195.66L35.2763 197.074L35.3025 197.048L35.3277 197.021L33.8621 195.66ZM37.7021 195.66L36.2365 197.021L36.2869 197.075L36.3412 197.126L37.7021 195.66ZM37.7021 236.52L36.3412 235.054L36.3141 235.08L36.2879 235.106L37.7021 236.52ZM35.7821 235.3C35.5327 235.3 35.4075 235.237 35.2763 235.106L32.4479 237.934C33.3568 238.843 34.5115 239.3 35.7821 239.3V235.3ZM35.2763 235.106C35.1452 234.975 35.0821 234.849 35.0821 234.6H31.0821C31.0821 235.871 31.539 237.025 32.4479 237.934L35.2763 235.106ZM35.0821 234.6V197.58H31.0821V234.6H35.0821ZM35.0821 197.58C35.0821 197.331 35.1452 197.205 35.2763 197.074L32.4479 194.246C31.539 195.155 31.0821 196.309 31.0821 197.58H35.0821ZM35.3277 197.021C35.4717 196.866 35.5817 196.82 35.7821 196.82V192.82C34.4625 192.82 33.2926 193.334 32.3965 194.299L35.3277 197.021ZM35.7821 196.82C35.9825 196.82 36.0926 196.866 36.2365 197.021L39.1677 194.299C38.2717 193.334 37.1017 192.82 35.7821 192.82V196.82ZM36.3412 197.126C36.4962 197.27 36.5421 197.38 36.5421 197.58H40.5421C40.5421 196.26 40.028 195.09 39.063 194.194L36.3412 197.126ZM36.5421 197.58V234.6H40.5421V197.58H36.5421ZM36.5421 234.6C36.5421 234.8 36.4962 234.91 36.3412 235.054L39.063 237.986C40.028 237.09 40.5421 235.92 40.5421 234.6H36.5421ZM36.2879 235.106C36.1568 235.237 36.0315 235.3 35.7821 235.3V239.3C37.0527 239.3 38.2075 238.843 39.1163 237.934L36.2879 235.106ZM55.1715 236.52L56.5857 235.106L56.5857 235.106L55.1715 236.52ZM55.5315 196.02L56.9457 197.434L56.9638 197.416L56.9815 197.397L55.5315 196.02ZM62.4315 195.54L61.2315 197.14L61.2546 197.157L61.2781 197.174L62.4315 195.54ZM63.9315 197.34L65.7878 196.596L65.7741 196.561L65.7591 196.528L63.9315 197.34ZM77.5515 231.3L75.6952 232.044L77.5515 236.673L79.4078 232.044L77.5515 231.3ZM91.1715 197.34L89.3439 196.528L89.3289 196.561L89.3152 196.596L91.1715 197.34ZM92.6115 195.54L91.4581 193.906L91.4346 193.923L91.4115 193.94L92.6115 195.54ZM99.5715 196.02L98.1215 197.397L98.1391 197.416L98.1573 197.434L99.5715 196.02ZM99.9315 236.52L101.346 237.934L101.346 237.934L99.9315 236.52ZM96.0315 236.52L94.6173 237.934L94.6435 237.96L94.6706 237.986L96.0315 236.52ZM95.2515 200.52H97.2515L93.3975 199.77L95.2515 200.52ZM81.3915 234.78L83.2348 235.556L83.2402 235.543L83.2455 235.53L81.3915 234.78ZM79.8315 236.64L80.918 238.319L80.9295 238.312L80.9409 238.304L79.8315 236.64ZM75.2115 236.64L74.0581 238.274L74.1122 238.312L74.1686 238.347L75.2115 236.64ZM73.7115 234.78L71.8575 235.53L71.8627 235.543L71.8682 235.556L73.7115 234.78ZM59.8515 200.52L61.7055 199.77L57.8515 200.52H59.8515ZM59.0115 236.52L57.6506 235.054L57.6235 235.08L57.5973 235.106L59.0115 236.52ZM57.0915 235.3C56.8421 235.3 56.7168 235.237 56.5857 235.106L53.7573 237.934C54.6661 238.843 55.8209 239.3 57.0915 239.3V235.3ZM56.5857 235.106C56.4546 234.975 56.3915 234.849 56.3915 234.6H52.3915C52.3915 235.871 52.8484 237.025 53.7573 237.934L56.5857 235.106ZM56.3915 234.6V198.78H52.3915V234.6H56.3915ZM56.3915 198.78C56.3915 198.228 56.5628 197.817 56.9457 197.434L54.1173 194.606C52.9802 195.743 52.3915 197.172 52.3915 198.78H56.3915ZM56.9815 197.397C57.3732 196.985 57.773 196.82 58.2915 196.82V192.82C56.65 192.82 55.2098 193.455 54.0815 194.642L56.9815 197.397ZM58.2915 196.82H60.2715V192.82H58.2915V196.82ZM60.2715 196.82C60.6387 196.82 60.9377 196.92 61.2315 197.14L63.6315 193.94C62.6453 193.2 61.5042 192.82 60.2715 192.82V196.82ZM61.2781 197.174C61.6807 197.458 61.9388 197.781 62.1039 198.152L65.7591 196.528C65.2842 195.459 64.5423 194.582 63.5849 193.906L61.2781 197.174ZM62.0752 198.084L75.6952 232.044L79.4078 230.556L65.7878 196.596L62.0752 198.084ZM79.4078 232.044L93.0278 198.084L89.3152 196.596L75.6952 230.556L79.4078 232.044ZM92.9991 198.152C93.1783 197.749 93.4401 197.419 93.8115 197.14L91.4115 193.94C90.5029 194.621 89.8047 195.491 89.3439 196.528L92.9991 198.152ZM93.7648 197.174C94.1219 196.922 94.4619 196.82 94.8315 196.82V192.82C93.601 192.82 92.461 193.198 91.4581 193.906L93.7648 197.174ZM94.8315 196.82H96.8115V192.82H94.8315V196.82ZM96.8115 196.82C97.33 196.82 97.7298 196.985 98.1215 197.397L101.021 194.642C99.8932 193.455 98.453 192.82 96.8115 192.82V196.82ZM98.1573 197.434C98.5402 197.817 98.7115 198.228 98.7115 198.78H102.711C102.711 197.172 102.123 195.743 100.986 194.606L98.1573 197.434ZM98.7115 198.78V234.6H102.711V198.78H98.7115ZM98.7115 234.6C98.7115 234.849 98.6484 234.975 98.5173 235.106L101.346 237.934C102.255 237.025 102.711 235.871 102.711 234.6H98.7115ZM98.5173 235.106C98.3861 235.237 98.2609 235.3 98.0115 235.3V239.3C99.2821 239.3 100.437 238.843 101.346 237.934L98.5173 235.106ZM98.0115 235.3C97.7594 235.3 97.5847 235.233 97.3924 235.054L94.6706 237.986C95.5982 238.847 96.7436 239.3 98.0115 239.3V235.3ZM97.4457 235.106C97.3146 234.975 97.2515 234.849 97.2515 234.6H93.2515C93.2515 235.871 93.7084 237.025 94.6173 237.934L97.4457 235.106ZM97.2515 234.6V200.52H93.2515V234.6H97.2515ZM93.3975 199.77L79.5375 234.03L83.2455 235.53L97.1055 201.27L93.3975 199.77ZM79.5482 234.004C79.3882 234.384 79.1327 234.702 78.7221 234.976L80.9409 238.304C81.9703 237.618 82.7548 236.696 83.2348 235.556L79.5482 234.004ZM78.745 234.961C78.4011 235.183 78.0211 235.3 77.5515 235.3V239.3C78.7619 239.3 79.9019 238.977 80.918 238.319L78.745 234.961ZM77.5515 235.3C77.0813 235.3 76.6619 235.182 76.2544 234.933L74.1686 238.347C75.2011 238.978 76.3417 239.3 77.5515 239.3V235.3ZM76.3649 235.006C75.9875 234.74 75.7281 234.416 75.5548 234.004L71.8682 235.556C72.3348 236.664 73.0755 237.58 74.0581 238.274L76.3649 235.006ZM75.5655 234.03L61.7055 199.77L57.9975 201.27L71.8575 235.53L75.5655 234.03ZM57.8515 200.52V234.6H61.8515V200.52H57.8515ZM57.8515 234.6C57.8515 234.8 57.8056 234.91 57.6506 235.054L60.3724 237.986C61.3374 237.09 61.8515 235.92 61.8515 234.6H57.8515ZM57.5973 235.106C57.4661 235.237 57.3409 235.3 57.0915 235.3V239.3C58.3621 239.3 59.5168 238.843 60.4257 237.934L57.5973 235.106ZM114.441 236.52L112.971 237.877L112.998 237.906L113.026 237.934L114.441 236.52ZM114.021 233.4L112.179 232.62L112.175 232.631L114.021 233.4ZM129.321 197.28L127.493 196.468L127.486 196.484L127.479 196.5L129.321 197.28ZM130.641 195.54L131.876 197.113L131.883 197.107L131.89 197.102L130.641 195.54ZM135.501 195.54L134.199 197.059L134.257 197.108L134.318 197.153L135.501 195.54ZM136.881 197.28L138.722 196.5L138.715 196.484L138.708 196.468L136.881 197.28ZM152.181 233.4L154.027 232.631L154.022 232.62L152.181 233.4ZM151.701 236.52L150.286 235.106L150.258 235.134L150.231 235.163L151.701 236.52ZM148.221 236.88L147.044 238.497L147.126 238.557L147.213 238.608L148.221 236.88ZM147.201 235.62L145.355 236.389L145.369 236.424L145.385 236.458L147.201 235.62ZM143.301 226.26L145.147 225.491L144.634 224.26H143.301V226.26ZM122.901 226.26V224.26H121.567L121.055 225.491L122.901 226.26ZM119.001 235.62L120.817 236.458L120.832 236.424L120.847 236.389L119.001 235.62ZM117.921 236.88L118.994 238.567L119.012 238.556L119.03 238.544L117.921 236.88ZM125.001 221.28L123.154 220.513L122.004 223.28H125.001V221.28ZM141.201 221.28V223.28H144.197L143.048 220.513L141.201 221.28ZM133.101 201.78L134.948 201.013L133.101 196.566L131.254 201.013L133.101 201.78ZM116.421 235.3C116.1 235.3 115.965 235.216 115.855 235.106L113.026 237.934C113.956 238.864 115.142 239.3 116.421 239.3V235.3ZM115.91 235.163C115.798 235.042 115.721 234.898 115.721 234.6H111.721C111.721 235.822 112.123 236.958 112.971 237.877L115.91 235.163ZM115.721 234.6C115.721 234.643 115.715 234.629 115.736 234.545C115.756 234.463 115.796 234.34 115.867 234.169L112.175 232.631C111.929 233.221 111.721 233.902 111.721 234.6H115.721ZM115.862 234.18L131.162 198.06L127.479 196.5L112.179 232.62L115.862 234.18ZM131.148 198.092C131.35 197.638 131.599 197.33 131.876 197.113L129.405 193.967C128.562 194.63 127.931 195.482 127.493 196.468L131.148 198.092ZM131.89 197.102C132.102 196.932 132.37 196.82 132.801 196.82V192.82C131.552 192.82 130.38 193.188 129.391 193.978L131.89 197.102ZM132.801 196.82H133.401V192.82H132.801V196.82ZM133.401 196.82C133.834 196.82 134.052 196.932 134.199 197.059L136.802 194.021C135.83 193.188 134.648 192.82 133.401 192.82V196.82ZM134.318 197.153C134.62 197.374 134.866 197.671 135.053 198.092L138.708 196.468C138.255 195.449 137.581 194.586 136.683 193.927L134.318 197.153ZM135.039 198.06L150.339 234.18L154.022 232.62L138.722 196.5L135.039 198.06ZM150.335 234.169C150.406 234.34 150.445 234.463 150.465 234.545C150.487 234.629 150.481 234.643 150.481 234.6H154.481C154.481 233.902 154.273 233.221 154.027 232.631L150.335 234.169ZM150.481 234.6C150.481 234.849 150.418 234.975 150.286 235.106L153.115 237.934C154.024 237.025 154.481 235.871 154.481 234.6H150.481ZM150.231 235.163C150.181 235.218 150.103 235.3 149.781 235.3V239.3C151.058 239.3 152.26 238.862 153.17 237.877L150.231 235.163ZM149.781 235.3C149.572 235.3 149.4 235.253 149.228 235.152L147.213 238.608C148.001 239.067 148.869 239.3 149.781 239.3V235.3ZM149.397 235.263C149.248 235.154 149.121 235.009 149.017 234.782L145.385 236.458C145.76 237.271 146.313 237.966 147.044 238.497L149.397 235.263ZM149.047 234.851L145.147 225.491L141.455 227.029L145.355 236.389L149.047 234.851ZM143.301 224.26H122.901V228.26H143.301V224.26ZM121.055 225.491L117.155 234.851L120.847 236.389L124.747 227.029L121.055 225.491ZM117.185 234.782C117.101 234.964 116.986 235.099 116.811 235.216L119.03 238.544C119.815 238.021 120.421 237.316 120.817 236.458L117.185 234.782ZM116.847 235.193C116.752 235.253 116.63 235.3 116.421 235.3V239.3C117.332 239.3 118.21 239.067 118.994 238.567L116.847 235.193ZM125.001 223.28H141.201V219.28H125.001V223.28ZM143.048 220.513L134.948 201.013L131.254 202.547L139.354 222.047L143.048 220.513ZM131.254 201.013L123.154 220.513L126.848 222.047L134.948 202.547L131.254 201.013ZM172.246 234.9L171.249 236.634L171.257 236.639L171.266 236.643L172.246 234.9ZM164.806 227.28L163.044 228.226L163.049 228.235L164.806 227.28ZM164.926 204.84L166.67 205.819L166.67 205.819L164.926 204.84ZM172.426 197.22L171.445 195.477L171.436 195.482L172.426 197.22ZM191.206 195.66L190.583 197.561L190.593 197.564L191.206 195.66ZM197.986 198.84L196.92 200.532L197.004 200.585L197.092 200.629L197.986 198.84ZM198.826 199.68L197.111 200.709L197.111 200.709L198.826 199.68ZM198.466 202.74L197.052 201.326L197.021 201.357L196.992 201.389L198.466 202.74ZM195.406 203.16L194.382 204.878L194.446 204.916L194.512 204.949L195.406 203.16ZM189.766 200.64L190.337 198.723L190.337 198.723L189.766 200.64ZM175.426 201.72L176.355 203.491L176.355 203.491L175.426 201.72ZM169.666 207.36L167.924 206.377L167.919 206.386L169.666 207.36ZM169.546 224.52L167.769 225.437L167.778 225.455L167.787 225.472L169.546 224.52ZM175.186 230.34L174.17 232.062L174.186 232.072L174.203 232.082L175.186 230.34ZM194.446 229.8L195.401 231.557L196.446 230.99V229.8H194.446ZM194.446 218.94H196.446V216.94H194.446V218.94ZM198.586 232.8L196.907 231.713L196.898 231.727L196.89 231.74L198.586 232.8ZM196.966 234.24L196.114 232.43L196.093 232.44L196.072 232.451L196.966 234.24ZM183.226 235.6C179.407 235.6 176.092 234.769 173.227 233.157L171.266 236.643C174.8 238.631 178.805 239.6 183.226 239.6V235.6ZM173.243 233.166C170.363 231.51 168.147 229.24 166.563 226.325L163.049 228.235C164.985 231.8 167.729 234.61 171.249 236.634L173.243 233.166ZM166.568 226.334C164.982 223.378 164.166 219.989 164.166 216.12H160.166C160.166 220.571 161.11 224.622 163.044 228.226L166.568 226.334ZM164.166 216.12C164.166 212.178 165.018 208.763 166.67 205.819L163.182 203.861C161.154 207.477 160.166 211.582 160.166 216.12H164.166ZM166.67 205.819C168.339 202.844 170.583 200.572 173.416 198.958L171.436 195.482C167.949 197.468 165.193 200.276 163.182 203.861L166.67 205.819ZM173.407 198.963C176.29 197.341 179.489 196.52 183.046 196.52V192.52C178.843 192.52 174.962 193.499 171.446 195.477L173.407 198.963ZM183.046 196.52C186.01 196.52 188.511 196.882 190.583 197.561L191.829 193.759C189.261 192.918 186.322 192.52 183.046 192.52V196.52ZM190.593 197.564C192.789 198.271 194.898 199.259 196.92 200.532L199.052 197.148C196.754 195.701 194.343 194.569 191.819 193.756L190.593 197.564ZM197.092 200.629C197.04 200.603 197.018 200.58 197.022 200.584C197.028 200.59 197.061 200.625 197.111 200.709L200.541 198.651C200.164 198.022 199.63 197.426 198.88 197.051L197.092 200.629ZM197.111 200.709C197.159 200.789 197.186 200.871 197.186 201H201.186C201.186 200.169 200.973 199.371 200.541 198.651L197.111 200.709ZM197.186 201C197.186 201.151 197.156 201.222 197.052 201.326L199.88 204.154C200.736 203.298 201.186 202.209 201.186 201H197.186ZM196.992 201.389C196.973 201.409 196.962 201.415 196.943 201.423C196.917 201.433 196.836 201.46 196.666 201.46V205.46C197.884 205.46 199.057 205.055 199.94 204.091L196.992 201.389ZM196.666 201.46C196.542 201.46 196.427 201.435 196.3 201.371L194.512 204.949C195.185 205.285 195.91 205.46 196.666 205.46V201.46ZM196.43 201.442C194.424 200.247 192.393 199.336 190.337 198.723L189.195 202.557C190.9 203.064 192.628 203.833 194.382 204.878L196.43 201.442ZM190.337 198.723C188.251 198.102 186.016 197.8 183.646 197.8V201.8C185.676 201.8 187.521 202.058 189.195 202.557L190.337 198.723ZM183.646 197.8C180.316 197.8 177.252 198.503 174.497 199.949L176.355 203.491C178.48 202.377 180.896 201.8 183.646 201.8V197.8ZM174.497 199.949C171.704 201.414 169.507 203.573 167.924 206.377L171.408 208.343C172.625 206.187 174.268 204.586 176.355 203.491L174.497 199.949ZM167.919 206.386C166.361 209.182 165.626 212.453 165.626 216.12H169.626C169.626 212.987 170.251 210.418 171.413 208.334L167.919 206.386ZM165.626 216.12C165.626 219.521 166.326 222.642 167.769 225.437L171.323 223.603C170.206 221.438 169.626 218.959 169.626 216.12H165.626ZM167.787 225.472C169.284 228.238 171.424 230.442 174.17 232.062L176.203 228.618C174.068 227.358 172.448 225.682 171.305 223.568L167.787 225.472ZM174.203 232.082C177.033 233.679 180.304 234.44 183.946 234.44V230.44C180.868 230.44 178.299 229.801 176.169 228.598L174.203 232.082ZM183.946 234.44C188.033 234.44 191.862 233.48 195.401 231.557L193.491 228.043C190.55 229.64 187.379 230.44 183.946 230.44V234.44ZM196.446 229.8V218.94H192.446V229.8H196.446ZM194.446 216.94H184.546V220.94H194.446V216.94ZM184.546 216.94C184.395 216.94 184.324 216.91 184.22 216.806L181.392 219.634C182.248 220.49 183.337 220.94 184.546 220.94V216.94ZM184.22 216.806C184.116 216.702 184.086 216.631 184.086 216.48H180.086C180.086 217.689 180.536 218.778 181.392 219.634L184.22 216.806ZM184.086 216.48C184.086 216.329 184.116 216.258 184.22 216.154L181.392 213.326C180.536 214.182 180.086 215.271 180.086 216.48H184.086ZM184.22 216.154C184.324 216.05 184.395 216.02 184.546 216.02V212.02C183.337 212.02 182.248 212.47 181.392 213.326L184.22 216.154ZM184.546 216.02H196.366V212.02H184.546V216.02ZM196.366 216.02C196.642 216.02 196.811 216.094 196.992 216.274L199.82 213.446C198.881 212.506 197.69 212.02 196.366 212.02V216.02ZM196.992 216.274C197.172 216.455 197.246 216.624 197.246 216.9H201.246C201.246 215.576 200.76 214.385 199.82 213.446L196.992 216.274ZM197.246 216.9V230.52H201.246V216.9H197.246ZM197.246 230.52C197.246 230.99 197.129 231.37 196.907 231.713L200.265 233.887C200.923 232.87 201.246 231.73 201.246 230.52H197.246ZM196.89 231.74C196.693 232.056 196.445 232.275 196.114 232.43L197.818 236.05C198.847 235.565 199.679 234.824 200.282 233.86L196.89 231.74ZM196.072 232.451C191.849 234.562 187.574 235.6 183.226 235.6V239.6C188.238 239.6 193.123 238.398 197.86 236.029L196.072 232.451ZM215.076 236.22L216.49 234.806L216.49 234.806L215.076 236.22ZM215.076 195.96L216.49 197.374L216.517 197.348L216.542 197.321L215.076 195.96ZM242.856 195.9L241.387 197.257L241.441 197.315L241.5 197.37L242.856 195.9ZM242.856 199.5L241.5 198.03L241.47 198.058L241.442 198.086L242.856 199.5ZM219.756 200.22V198.22H217.756V200.22H219.756ZM219.756 213.48H217.756V215.48H219.756V213.48ZM240.696 214.26L239.227 215.617L239.281 215.675L239.34 215.73L240.696 214.26ZM240.696 217.86L239.34 216.39L239.31 216.418L239.282 216.446L240.696 217.86ZM219.756 218.58V216.58H217.756V218.58H219.756ZM219.756 231.9H217.756V233.9H219.756V231.9ZM242.856 232.68L241.387 234.037L241.441 234.095L241.5 234.15L242.856 232.68ZM242.856 236.28L241.5 234.81L241.47 234.838L241.442 234.866L242.856 236.28ZM216.996 235C216.747 235 216.622 234.937 216.49 234.806L213.662 237.634C214.571 238.543 215.726 239 216.996 239V235ZM216.49 234.806C216.359 234.675 216.296 234.549 216.296 234.3H212.296C212.296 235.571 212.753 236.725 213.662 237.634L216.49 234.806ZM216.296 234.3V197.88H212.296V234.3H216.296ZM216.296 197.88C216.296 197.631 216.359 197.505 216.49 197.374L213.662 194.546C212.753 195.455 212.296 196.609 212.296 197.88H216.296ZM216.542 197.321C216.686 197.166 216.796 197.12 216.996 197.12V193.12C215.677 193.12 214.507 193.634 213.611 194.599L216.542 197.321ZM216.996 197.12H241.056V193.12H216.996V197.12ZM241.056 197.12C241.229 197.12 241.293 197.155 241.387 197.257L244.326 194.543C243.46 193.605 242.323 193.12 241.056 193.12V197.12ZM241.5 197.37C241.601 197.464 241.636 197.527 241.636 197.7H245.636C245.636 196.433 245.151 195.296 244.213 194.43L241.5 197.37ZM241.636 197.7C241.636 197.873 241.601 197.936 241.5 198.03L244.213 200.97C245.151 200.104 245.636 198.967 245.636 197.7H241.636ZM241.442 198.086C241.362 198.166 241.281 198.22 241.056 198.22V202.22C242.271 202.22 243.391 201.794 244.27 200.914L241.442 198.086ZM241.056 198.22H219.756V202.22H241.056V198.22ZM217.756 200.22V213.48H221.756V200.22H217.756ZM219.756 215.48H238.896V211.48H219.756V215.48ZM238.896 215.48C239.069 215.48 239.133 215.515 239.227 215.617L242.166 212.903C241.3 211.965 240.163 211.48 238.896 211.48V215.48ZM239.34 215.73C239.441 215.824 239.476 215.887 239.476 216.06H243.476C243.476 214.793 242.991 213.656 242.053 212.79L239.34 215.73ZM239.476 216.06C239.476 216.233 239.441 216.296 239.34 216.39L242.053 219.33C242.991 218.464 243.476 217.327 243.476 216.06H239.476ZM239.282 216.446C239.202 216.526 239.121 216.58 238.896 216.58V220.58C240.111 220.58 241.231 220.154 242.11 219.274L239.282 216.446ZM238.896 216.58H219.756V220.58H238.896V216.58ZM217.756 218.58V231.9H221.756V218.58H217.756ZM219.756 233.9H241.056V229.9H219.756V233.9ZM241.056 233.9C241.229 233.9 241.293 233.935 241.387 234.037L244.326 231.323C243.46 230.385 242.323 229.9 241.056 229.9V233.9ZM241.5 234.15C241.601 234.244 241.636 234.307 241.636 234.48H245.636C245.636 233.213 245.151 232.076 244.213 231.21L241.5 234.15ZM241.636 234.48C241.636 234.653 241.601 234.716 241.5 234.81L244.213 237.75C245.151 236.884 245.636 235.747 245.636 234.48H241.636ZM241.442 234.866C241.362 234.946 241.281 235 241.056 235V239C242.271 239 243.391 238.574 244.27 237.694L241.442 234.866ZM241.056 235H216.996V239H241.056V235Z" fill="white" mask="url(#path-4-outside-1_316_2)"/>
<g filter="url(#filter1_d_316_2)">
<path d="M272 102H192C179.85 102 170 92.1503 170 80V0L272 102Z" fill="url(#paint2_linear_316_2)"/>
</g>
</g>
<defs>
<filter id="filter0_f_316_2" x="8" y="110" width="256" height="162" filterUnits="userSpaceOnUse" color-interpolation-filters="sRGB">
<feFlood flood-opacity="0" result="BackgroundImageFix"/>
<feBlend mode="normal" in="SourceGraphic" in2="BackgroundImageFix" result="shape"/>
<feGaussianBlur stdDeviation="19.5" result="effect1_foregroundBlur_316_2"/>
</filter>
<filter id="filter1_d_316_2" x="147" y="-24" width="152" height="152" filterUnits="userSpaceOnUse" color-interpolation-filters="sRGB">
<feFlood flood-opacity="0" result="BackgroundImageFix"/>
<feColorMatrix in="SourceAlpha" type="matrix" values="0 0 0 0 0 0 0 0 0 0 0 0 0 0 0 0 0 0 127 0" result="hardAlpha"/>
<feOffset dx="2" dy="1"/>
<feGaussianBlur stdDeviation="12.5"/>
<feColorMatrix type="matrix" values="0 0 0 0 0 0 0 0 0 0 0 0 0 0 0 0 0 0 0.33 0"/>
<feBlend mode="normal" in2="BackgroundImageFix" result="effect1_dropShadow_316_2"/>
<feBlend mode="normal" in="SourceGraphic" in2="effect1_dropShadow_316_2" result="shape"/>
</filter>
<linearGradient id="paint0_linear_316_2" x1="136" y1="0" x2="136" y2="308" gradientUnits="userSpaceOnUse">
<stop stop-color="#FF7979"/>
<stop offset="1" stop-color="#E85555"/>
</linearGradient>
<linearGradient id="paint1_linear_316_2" x1="136" y1="0" x2="136" y2="308" gradientUnits="userSpaceOnUse">
<stop stop-color="#B4B6BC"/>
<stop offset="0.0730828" stop-color="#B1B3B9"/>
<stop offset="1" stop-color="#8D8F94"/>
</linearGradient>
<linearGradient id="paint2_linear_316_2" x1="221" y1="0" x2="221" y2="102" gradientUnits="userSpaceOnUse">
<stop stop-color="#979CAB"/>
<stop offset="1" stop-color="#797C88"/>
</linearGradient>
</defs>
</svg>
